<svg width="90" height="90" viewBox="0 0 90 90" fill="none" xmlns="http://www.w3.org/2000/svg">
<g clip-path="url(#clip0_23594_13703)">
<g clip-path="url(#clip1_23594_13703)">
<path d="M44.9994 89.9988C69.8519 89.9988 89.9988 69.8519 89.9988 44.9994C89.9988 20.1469 69.8519 0 44.9994 0C20.1469 0 0 20.1469 0 44.9994C0 69.8519 20.1469 89.9988 44.9994 89.9988Z" fill="#EAEFF4"/>
<path opacity="0.2" d="M44.9994 89.9999C65.0079 89.9999 81.9644 76.9388 87.8145 58.8802C74.9373 51.9866 60.2236 48.0771 44.5965 48.0771C28.9693 48.0771 14.7792 51.8484 2.06592 58.5148C7.80474 76.7631 24.8561 89.9999 44.9994 89.9999Z" fill="#7CA5B9"/>
</g>
<path opacity="0.3" d="M44.943 82.2107C54.9448 82.2107 63.053 81.773 63.053 81.2323C63.053 80.6916 54.9448 80.2539 44.943 80.2539C34.9412 80.2539 26.833 80.6916 26.833 81.2323C26.833 81.773 34.9412 82.2107 44.943 82.2107Z" fill="#7CA5B9"/>
<path d="M56.9416 34.7369V37.0073L53.5124 37.0085H49.3085V35.0529L46.5605 35.1793C49.0908 32.711 49.3074 28.6733 49.3074 28.6733L49.3039 14.8936H53.5124H56.9369L56.9416 28.2566C56.9416 28.2566 57.1124 32.0369 59.5152 34.5075C59.5585 34.5519 59.6029 34.5964 59.6474 34.6397L56.9416 34.738V34.7369Z" fill="#DEDEDE"/>
<path d="M63.0529 77.2293C63.067 79.3921 61.322 81.1558 59.158 81.1699L53.5122 81.2015L48.1111 81.2319C47.7447 81.2343 47.3901 81.1851 47.0531 81.0926C46.2806 80.8808 45.6018 80.4384 45.0986 79.8427C44.5251 79.1662 44.1775 78.292 44.1728 77.3358L44.1014 64.7077L44.0897 62.5543L44.0675 58.7389L44.0535 56.1665L44.0242 51.0333L44.0078 48.1753L44.0043 47.5551L44.002 47.1466L43.9996 46.737L43.9704 41.4809C43.9587 39.4457 44.6363 37.5673 45.7856 36.0657C46.0232 35.7532 46.283 35.4571 46.5604 35.1798C48.1473 33.5928 50.3371 32.6062 52.7597 32.5921L53.5122 32.5874L53.9652 32.5851C56.0624 32.5734 57.9935 33.2932 59.515 34.5068C61.535 36.1149 62.8353 38.5913 62.8505 41.3744L62.9043 50.8906L62.9698 62.4138L63.0529 77.2293Z" fill="#DEDEDE"/>
<path d="M62.9524 64.5187C62.2081 65.1097 58.1774 65.6633 53.5123 65.6902H53.4796C48.8017 65.7171 44.9278 65.29 44.1765 64.706H44.1016L44.0348 64.7071L44.0231 62.5197L44.0021 58.7676L43.988 56.2092L43.9588 50.9988L43.9424 48.0285C43.9424 48.0776 43.9646 48.1268 44.0079 48.1747C44.2724 48.4697 45.3269 48.7272 46.8858 48.9132C47.5342 48.9917 48.2703 49.056 49.0732 49.1052C50.3664 49.1859 51.8329 49.2269 53.3871 49.2187C53.4292 49.2187 53.4714 49.2187 53.5123 49.2175C58.6666 49.1789 62.8588 48.5083 62.8588 47.8271L62.8763 50.9052L62.9407 62.4285L62.9524 64.5187Z" fill="#F41C5E"/>
<path d="M62.9699 62.4129C62.9606 62.4176 62.9512 62.4223 62.9407 62.4281C61.8721 62.9899 58.0556 63.4218 53.5123 63.4487H53.5018C49.0018 63.4744 45.2134 63.0941 44.0898 62.5534C44.0664 62.5428 44.0442 62.5311 44.0231 62.5194L44.002 58.7673L43.988 56.2089L43.9587 50.9985C43.9786 51.009 44.0009 51.0207 44.0243 51.0324C44.4912 51.2595 45.4346 51.4596 46.7067 51.6129C47.368 51.6925 48.1193 51.7592 48.9386 51.8119C50.2833 51.8962 51.813 51.9406 53.4362 51.9313H53.5123C58.0439 51.9008 61.8277 51.4666 62.8763 50.9049C62.8857 50.9002 62.895 50.8943 62.9044 50.8896L62.9699 62.4129Z" fill="white"/>
<path d="M49.2976 10.9515L49.2327 25.8301L56.9405 25.8637L57.0054 10.9852L49.2976 10.9515Z" fill="#F41C5E"/>
<path d="M53.0887 26.4536C55.2176 26.4396 56.9427 26.1763 56.9415 25.8673C56.9404 25.5571 55.2141 25.3184 53.0841 25.3348C50.9564 25.3488 49.2359 25.6122 49.2324 25.9211C49.2371 26.2301 50.9622 26.47 53.0887 26.4536Z" fill="#F41C5E"/>
<path opacity="0.1" d="M63.0532 77.229C63.0672 79.3918 61.3222 81.1555 59.1582 81.1696L53.5125 81.2012V14.8926H56.9369V16.3462L56.9404 25.8529V28.2556C56.9404 28.2556 57.1125 32.0359 59.5152 34.5065C61.5352 36.1146 62.8355 38.591 62.8507 41.3741L62.9045 50.8902L62.9701 62.4135L63.0532 77.229Z" fill="#222222"/>
<path d="M57.6496 9.17163L57.6191 16.0463L53.5124 16.0275L48.6964 16.0065H48.6414L48.6718 9.13184L53.5124 9.1529L57.5934 9.17163H57.6496Z" fill="#F41C5E"/>
<path d="M57.6496 9.0829C57.6496 9.11333 57.6309 9.14258 57.5935 9.17184C57.2704 9.42581 55.5898 9.63062 53.5124 9.66339C53.3978 9.66456 53.2807 9.66573 53.1637 9.6669C50.6861 9.68095 48.6766 9.43868 48.6719 9.13205C48.6742 8.82191 50.6802 8.56092 53.1578 8.54804C53.2772 8.54687 53.3954 8.54688 53.5124 8.54688C55.8251 8.55624 57.6485 8.78797 57.6496 9.0829Z" fill="#F41C5E"/>
<path d="M57.6191 16.047C57.6191 16.3384 55.8121 16.5912 53.5123 16.6263C53.3871 16.6286 53.2607 16.6298 53.1331 16.631C50.6555 16.645 48.646 16.4039 48.6401 16.0961C48.6401 16.0657 48.66 16.0364 48.6963 16.0072C49.0357 15.738 50.8896 15.5238 53.1273 15.5109C53.2572 15.5098 53.3859 15.5098 53.5123 15.5098C55.8109 15.5203 57.6179 15.7532 57.6191 16.047Z" fill="#F41C5E"/>
<path opacity="0.1" d="M57.5935 9.17184H57.6496L57.6192 16.0465C57.6192 16.3379 55.8122 16.5907 53.5125 16.6258V8.54688C55.8251 8.55624 57.6485 8.78797 57.6496 9.0829C57.6496 9.11333 57.6309 9.14258 57.5935 9.17184Z" fill="#222222"/>
<path d="M39.075 76.6496C39.0317 73.0391 39.1499 71.3222 39.1159 65.9597C39.0843 60.7247 41.789 59.4268 41.789 59.4268L38.0018 59.552L34.2157 59.4268C34.2157 59.4268 36.9215 60.7247 36.8876 65.9597C36.8548 71.3222 36.9742 73.0391 36.9309 76.6496C36.8899 80.1209 28.1462 79.3578 28.1462 81.0923H47.8573C47.8573 79.3578 39.1136 80.1209 39.075 76.6496Z" fill="#F8FBFF"/>
<path opacity="0.6" d="M41.7889 59.4268L38.0017 59.552L34.2156 59.4268C34.2156 59.4268 35.5486 60.0728 36.3316 62.2719C36.8325 62.4193 37.3626 62.5024 37.9104 62.5024C38.5353 62.5024 39.1346 62.3948 39.6952 62.204C40.4805 60.0599 41.7889 59.4279 41.7889 59.4279V59.4268Z" fill="#D7E6FD"/>
<path d="M48.9387 51.8129C48.5221 54.8067 47.1375 57.3908 44.0677 58.739C44.0455 58.7496 44.0244 58.7589 44.0022 58.7683C43.9132 58.8069 43.8231 58.8432 43.7318 58.8795C43.1326 59.1171 42.4713 59.309 41.7457 59.4506C41.7457 59.4506 41.7449 59.451 41.7434 59.4518H41.7422C40.6245 59.6706 39.3512 59.7701 37.9058 59.7303C37.8286 59.735 37.7525 59.7385 37.6764 59.7409C37.646 59.742 37.6156 59.7432 37.5851 59.7444C37.4564 59.749 37.3276 59.7526 37.2013 59.7549C36.4265 59.7701 35.7044 59.7397 35.0338 59.6671C34.8477 59.6461 34.6651 59.6238 34.4872 59.5969H34.486C34.0788 59.5372 33.6925 59.46 33.325 59.3675C32.3092 59.1136 31.4396 58.7414 30.6988 58.2744C30.3617 58.0614 30.0516 57.8285 29.766 57.578C29.7087 57.5277 29.6537 57.4774 29.5987 57.4247C29.5436 57.3732 29.4898 57.3206 29.4371 57.2679C23.0716 50.9094 30.8018 34.5713 30.8018 34.5713H31.339C31.3202 34.583 31.3109 34.5959 31.3109 34.6087C31.3109 34.8288 34.0834 35.0078 37.5851 35.0207C37.7209 35.0219 37.859 35.0219 37.9983 35.0219C41.6896 35.0219 44.6833 34.837 44.6833 34.6087C44.6833 34.5959 44.6739 34.583 44.6552 34.5713H45.1117C45.1117 34.5713 45.3832 35.1237 45.7858 36.0658C46.8789 38.6301 48.934 44.0804 49.0733 49.1059C49.099 50.0293 49.0604 50.9387 48.9387 51.8129Z" fill="#939598"/>
<path d="M48.9388 51.8129C48.5221 54.8067 47.1376 57.3908 44.0678 58.739C44.0455 58.7496 44.0245 58.7589 44.0022 58.7683C43.9133 58.8069 43.8232 58.8432 43.7319 58.8795C43.1326 59.1171 42.4714 59.309 41.7458 59.4506C41.7458 59.4506 41.745 59.451 41.7434 59.4518H41.7423C40.6246 59.6706 39.3512 59.7701 37.9059 59.7303C37.8286 59.735 37.7525 59.7385 37.6765 59.7409C37.646 59.742 37.6156 59.7432 37.5852 59.7444C37.4564 59.749 37.3277 59.7526 37.2013 59.7549C36.4265 59.7701 35.7044 59.7397 35.0338 59.6671C34.8466 59.6461 34.664 59.6227 34.4849 59.5957C34.0788 59.5349 33.6926 59.4588 33.3263 59.3675C32.3104 59.1136 31.4408 58.7414 30.7 58.2744C30.3629 58.0614 30.0528 57.8285 29.7672 57.578C29.7099 57.5277 29.6549 57.4774 29.5999 57.4247C29.5449 57.3732 29.491 57.3206 29.4384 57.2679C23.0728 50.9094 30.803 34.5713 30.803 34.5713H31.3402C31.3215 34.583 31.3121 34.5959 31.3121 34.6087C31.3121 34.8288 34.0847 35.0078 37.5863 35.0207C37.7221 35.0219 37.8602 35.0219 37.9995 35.0219C41.6908 35.0219 44.6845 34.837 44.6845 34.6087C44.6845 34.5959 44.6752 34.583 44.6564 34.5713H45.1129C45.1129 34.5713 45.3844 35.1237 45.787 36.0658C46.8801 38.6301 48.9352 44.0804 49.0745 49.1059C49.1003 50.0293 49.0616 50.9387 48.9399 51.8129H48.9388Z" fill="#F8FBFF"/>
<path d="M37.585 57.6328C29.2299 57.6504 27.9238 53.5062 28.3556 47.1465H28.3591C28.3591 47.4613 32.4893 47.7164 37.585 47.7164C42.6831 47.7164 46.8132 47.4613 46.8132 47.1465C47.2451 53.5062 45.939 57.6504 37.5839 57.6328H37.585Z" fill="#F41C5E"/>
<path d="M37.585 47.1465V47.7164C32.4893 47.7164 28.3591 47.4613 28.3591 47.1465H37.585Z" fill="#F41C5E"/>
<path d="M46.8144 47.1465C46.8144 47.4613 42.6842 47.7164 37.5862 47.7164V47.1465H46.8156H46.8144Z" fill="#F41C5E"/>
<path d="M46.8144 47.1461C46.8144 47.461 42.6843 47.7161 37.5862 47.7161C32.4905 47.7161 28.3604 47.461 28.3604 47.1461C28.3604 46.8313 32.4905 46.5762 37.5862 46.5762C42.6843 46.5762 46.8144 46.8313 46.8144 47.1461Z" fill="#F6497E"/>
<path d="M45.0905 34.5711C44.8097 34.3183 41.7246 34.1182 37.9608 34.1182C34.1969 34.1182 31.1142 34.3183 30.8333 34.5711C30.8193 34.5828 30.8123 34.5957 30.8123 34.6085C30.8123 34.8707 33.8119 35.0837 37.5851 35.0966C37.7091 35.0978 37.8344 35.0978 37.9608 35.0978C41.9095 35.0978 45.1116 34.8789 45.1116 34.6085C45.1116 34.5957 45.1046 34.5828 45.0905 34.5711ZM37.9982 35.0217C37.8589 35.0217 37.7208 35.0217 37.5851 35.0205C34.0834 35.0076 31.3108 34.8286 31.3108 34.6085C31.3108 34.5957 31.3202 34.5828 31.3389 34.5711C31.6479 34.3604 34.5117 34.1954 37.9982 34.1954C41.4847 34.1954 44.3462 34.3604 44.6552 34.5711C44.6739 34.5828 44.6833 34.5957 44.6833 34.6085C44.6833 34.8368 41.6895 35.0217 37.9982 35.0217Z" fill="#D7E6FD"/>
<path d="M44.6832 34.6084C44.6832 34.8367 41.6895 35.0216 37.9982 35.0216C37.8589 35.0216 37.7208 35.0216 37.585 35.0204C34.0834 35.0075 31.3108 34.8285 31.3108 34.6084C31.3108 34.5956 31.3202 34.5827 31.3389 34.571C31.6479 34.3603 34.5117 34.1953 37.9982 34.1953C41.4847 34.1953 44.3462 34.3603 44.6551 34.571C44.6739 34.5827 44.6832 34.5956 44.6832 34.6084Z" fill="#F8FBFF"/>
<path opacity="0.6" d="M48.9388 51.8129C48.5221 54.8067 47.1376 57.3908 44.0678 58.739C44.0455 58.7496 44.0245 58.7589 44.0022 58.7683C43.9133 58.8069 43.8232 58.8432 43.7319 58.8795C43.1327 59.1171 42.4714 59.309 41.7458 59.4506C41.7458 59.4506 41.745 59.451 41.7435 59.4518H41.7423C40.6246 59.6706 39.3513 59.7701 37.9059 59.7303C37.8286 59.735 37.7526 59.7385 37.6765 59.7409C37.6461 59.742 37.6156 59.7432 37.5852 59.7444V57.6331C40.325 57.6389 42.3064 57.1965 43.7178 56.3761C43.8103 56.3223 43.9004 56.2673 43.9882 56.2099C44.0104 56.1959 44.0327 56.1806 44.0537 56.1666C45.6056 55.1285 46.3886 53.5731 46.7069 51.6139C46.8427 50.7842 46.8942 49.8818 46.886 48.9139C46.8813 48.3463 46.8556 47.7565 46.8146 47.1467C46.8146 46.9864 45.7355 46.8401 43.9999 46.7371C42.3392 46.6376 40.0792 46.5767 37.5864 46.5767V35.0207C37.7221 35.0219 37.8602 35.0219 37.9995 35.0219C41.6908 35.0219 44.6846 34.837 44.6846 34.6087C44.6846 34.5959 44.6752 34.583 44.6565 34.5713H45.1129C45.1129 34.5713 45.3844 35.1237 45.787 36.0658C46.8801 38.6301 48.9353 44.0804 49.0745 49.1059C49.1003 50.0293 49.0617 50.9387 48.9399 51.8129H48.9388Z" fill="#D7E6FD"/>
</g>
<defs>
<clipPath id="clip0_23594_13703">
<rect width="90" height="90" fill="white"/>
</clipPath>
<clipPath id="clip1_23594_13703">
<rect width="90" height="90" fill="white"/>
</clipPath>
</defs>
</svg>
