<svg width="40" height="40" viewBox="0 0 40 40" fill="none" xmlns="http://www.w3.org/2000/svg">
<g clip-path="url(#clip0_16575_1820)">
<g clip-path="url(#clip1_16575_1820)">
<path d="M19.9997 39.9995C31.0453 39.9995 39.9995 31.0453 39.9995 19.9997C39.9995 8.95419 31.0453 0 19.9997 0C8.95419 0 0 8.95419 0 19.9997C0 31.0453 8.95419 39.9995 19.9997 39.9995Z" fill="#EAEFF4"/>
<path opacity="0.2" d="M19.9997 40C28.8924 40 36.4286 34.1951 39.0287 26.169C33.3055 23.1052 26.7661 21.3677 19.8207 21.3677C12.8753 21.3677 6.56855 23.0438 0.918213 26.0066C3.4688 34.117 11.0472 40 19.9997 40Z" fill="#7CA5B9"/>
</g>
<path opacity="0.3" d="M19.5179 34.6048C24.6243 34.6048 28.7665 34.212 28.7665 33.7121C28.7665 33.2121 24.6243 32.8193 19.5179 32.8193C14.4116 32.855 10.2693 33.2478 10.2693 33.7121C10.2693 34.1763 14.4116 34.6048 19.5179 34.6048Z" fill="#7CA5B9"/>
<path d="M19.9821 26.856C18.0181 26.856 16.1256 26.0704 14.6972 24.6778C13.2689 23.2852 12.519 21.3926 12.519 19.3929C12.519 19.0358 12.6618 18.6787 12.9118 18.4288C13.1617 18.1788 13.5188 18.036 13.8759 18.036C14.233 18.036 14.5901 18.1788 14.8401 18.4288C15.09 18.6787 15.2329 19.0358 15.2329 19.3929C15.2329 20.3213 15.5185 21.2498 16.0542 22.0353C16.5898 22.8209 17.3397 23.428 18.1967 23.7851C19.0537 24.1422 20.0178 24.2493 20.9463 24.0707C21.8747 23.8922 22.7317 23.428 23.3745 22.7495C24.0529 22.0711 24.4814 21.2498 24.6957 20.3213C24.8742 19.3929 24.8028 18.4288 24.41 17.5717C24.0529 16.7147 23.4459 15.9648 22.6603 15.4292C21.8747 14.8936 20.9463 14.6079 20.0178 14.6079C19.6607 14.6079 19.3037 14.4651 19.0537 14.2151C18.8037 13.9652 18.6609 13.6081 18.6609 13.251C18.6609 12.8939 18.8037 12.5368 19.0537 12.2868C19.3037 12.0369 19.6607 11.894 20.0178 11.894C21.9818 11.894 23.9101 12.6796 25.3027 14.0723C26.6954 15.4649 27.481 17.3575 27.481 19.3572C27.481 21.3212 26.6954 23.2494 25.3027 24.6421C23.8744 26.0704 21.9461 26.856 19.9821 26.856Z" fill="white"/>
<path d="M19.9822 33.355C12.2691 33.355 6.02002 27.0703 6.02002 19.3929C6.02002 19.0358 6.16285 18.6787 6.41282 18.4287C6.66278 18.1788 7.01987 18.0359 7.37695 18.0359C7.73404 18.0359 8.09113 18.1788 8.34109 18.4287C8.59105 18.6787 8.73389 19.0358 8.73389 19.3929C8.73389 25.6062 13.8045 30.6769 20.0179 30.6769C26.2312 30.6769 31.3019 25.6062 31.3019 19.3929C31.3019 13.1795 26.2312 8.10889 20.0179 8.10889C19.6608 8.10889 19.3037 7.96605 19.0537 7.71609C18.8038 7.46613 18.6609 7.10904 18.6609 6.75195C18.6609 6.39487 18.8038 6.03778 19.0537 5.78782C19.3037 5.53785 19.6608 5.39502 20.0179 5.39502C27.731 5.39502 33.98 11.6798 33.98 19.3572C33.98 27.106 27.6953 33.355 19.9822 33.355Z" fill="#8529A6"/>
<path d="M19.9822 30.1055C14.0545 30.1055 9.26953 25.2848 9.26953 19.3929C9.26953 19.0358 9.41237 18.6787 9.66233 18.4287C9.91229 18.1788 10.2694 18.0359 10.6265 18.0359C10.9836 18.0359 11.3406 18.1788 11.5906 18.4287C11.8406 18.6787 11.9834 19.0358 11.9834 19.3929C11.9834 20.9641 12.4476 22.5353 13.3403 23.8565C14.2331 25.1777 15.4829 26.2133 16.9469 26.8203C18.411 27.4274 20.0179 27.5702 21.5891 27.2845C23.1603 26.9632 24.5886 26.2133 25.6956 25.0706C26.8026 23.9636 27.5882 22.4995 27.9095 20.9641C28.2309 19.3929 28.0524 17.786 27.4453 16.3219C26.8383 14.8579 25.8027 13.6081 24.4815 12.7153C23.1603 11.8226 21.6248 11.3584 20.0179 11.3584C19.6608 11.3584 19.3037 11.2156 19.0537 10.9656C18.8038 10.7156 18.6609 10.3586 18.6609 10.0015C18.6609 9.64438 18.8038 9.28729 19.0537 9.03733C19.3037 8.78737 19.6608 8.64453 20.0179 8.64453C25.9455 8.64453 30.7305 13.4652 30.7305 19.3572C30.7305 25.2491 25.9098 30.1055 19.9822 30.1055Z" fill="#F41C5E"/>
<path opacity="0.05" d="M19.9822 11.9297C19.8036 11.9297 19.6608 11.9654 19.518 12.0011C21.3034 12.2868 22.946 13.2152 24.0887 14.5721C25.2314 15.9648 25.8741 17.7145 25.8384 19.5357C25.8027 21.3568 25.0885 23.0708 23.8744 24.3921C22.6603 25.7133 20.982 26.5703 19.1966 26.7488C20.1964 26.856 21.232 26.7488 22.1961 26.4632C23.1603 26.1775 24.053 25.6776 24.8386 25.0348C25.6242 24.3921 26.2312 23.5708 26.6954 22.678C27.1597 21.7853 27.4096 20.7855 27.481 19.7499C27.5525 18.7501 27.3739 17.7145 27.0525 16.7861C26.6954 15.8219 26.1598 14.9649 25.4813 14.2151C24.7672 13.4652 23.9459 12.8938 23.0174 12.501C22.0176 12.1439 20.982 11.9297 19.9822 11.9297Z" fill="#333333"/>
<path opacity="0.2" d="M19.9822 5.43066C19.875 5.43066 19.8036 5.43066 19.6965 5.46637C26.9811 5.93059 32.7302 12.0011 32.7302 19.4285C32.7302 26.9274 26.8026 33.0693 19.3751 33.3907C19.5894 33.3907 19.7679 33.3907 19.9822 33.3907C27.6953 33.3907 33.9443 27.1059 33.9443 19.4285C33.9443 11.6797 27.6953 5.43066 19.9822 5.43066Z" fill="#333333"/>
<path opacity="0.2" d="M19.9822 8.68018C19.8394 8.68018 19.6965 8.71588 19.5537 8.75159C24.91 9.35864 29.0522 13.8937 29.0522 19.3928C29.0522 25.0348 24.6958 29.677 19.1609 30.0698C19.4466 30.1055 19.6965 30.1055 19.9822 30.1055C25.9099 30.1055 30.6948 25.2848 30.6948 19.3928C30.6948 13.5009 25.9099 8.68018 19.9822 8.68018Z" fill="#333333"/>
</g>
<defs>
<clipPath id="clip0_16575_1820">
<rect width="40" height="40" fill="white"/>
</clipPath>
<clipPath id="clip1_16575_1820">
<rect width="40" height="40" fill="white"/>
</clipPath>
</defs>
</svg>
