<svg width="94" height="94" viewBox="0 0 94 94" fill="none" xmlns="http://www.w3.org/2000/svg">
<path opacity="0.2" d="M47.213 77.3855C59.2055 77.3855 68.927 76.4606 68.927 75.3175C68.927 74.1745 59.2055 73.2495 47.213 73.2495C35.2205 73.2495 25.499 74.1745 25.499 75.3175C25.499 76.4606 35.2205 77.3855 47.213 77.3855Z" fill="#222222"/>
<path d="M47.8143 21.1736C47.9797 24.6403 47.4383 27.4566 46.6111 27.4641C45.7839 27.4716 44.9755 24.6685 44.8101 21.1999C44.6446 17.7313 46.8574 17.0376 47.6865 17.0376C48.5155 17.0376 47.6489 17.705 47.8143 21.1736Z" fill="#333333"/>
<path d="M20.583 38.4791C20.1412 29.2408 26.8923 21.6851 35.6587 21.6042C39.8116 21.5648 43.6713 23.2116 46.6304 25.9376C47.9975 24.5172 49.6348 23.3845 51.446 22.6061C53.2573 21.8277 55.2058 21.4193 57.1772 21.405C65.9436 21.3241 73.4072 28.7482 73.849 37.9865C74.225 45.8825 65.577 61.9471 57.5908 66.4817C56.4202 67.2681 55.0436 67.6919 53.6334 67.6999C51.6478 67.7034 49.7358 66.9482 48.2886 65.5887C47.6227 66.2804 46.8254 66.8322 45.9434 67.2115C45.0614 67.5908 44.1125 67.7901 43.1524 67.7977C41.6617 67.8056 40.2012 67.3776 38.9506 66.5663C30.6692 62.0656 20.9571 46.33 20.583 38.4791Z" fill="#E71757"/>
<path opacity="0.2" d="M73.8535 37.9865C73.4117 28.7482 65.9481 21.3241 57.1817 21.405C55.2945 21.4192 53.4274 21.7938 51.6808 22.5085C59.6877 26.9792 65.0739 35.3395 65.0739 44.9181C65.0739 54.5569 59.6219 62.9661 51.521 67.4142C52.2087 67.6102 52.921 67.7064 53.636 67.7C55.0469 67.6922 56.4241 67.2685 57.5953 66.4817C65.589 61.9472 74.2295 45.8882 73.8535 37.9865Z" fill="#333333"/>
<path d="M28.5077 28.1293C29.1845 26.6253 30.9969 25.956 31.7827 26.2887C32.5685 26.6215 32.0309 27.8379 31.3541 29.3343C30.6773 30.8308 29.9121 32.3423 29.1263 32.019C28.3404 31.6956 27.8328 29.6333 28.5077 28.1293Z" fill="white"/>
</svg>
