<svg width="90" height="90" viewBox="0 0 90 90" fill="none" xmlns="http://www.w3.org/2000/svg">
<g clip-path="url(#clip0_23594_5488)">
<g clip-path="url(#clip1_23594_5488)">
<path d="M44.9994 89.9988C69.8519 89.9988 89.9988 69.8519 89.9988 44.9994C89.9988 20.1469 69.8519 0 44.9994 0C20.1469 0 0 20.1469 0 44.9994C0 69.8519 20.1469 89.9988 44.9994 89.9988Z" fill="#EAEFF4"/>
<path opacity="0.2" d="M44.9994 89.9999C65.0079 89.9999 81.9644 76.9388 87.8145 58.8802C74.9373 51.9866 60.2236 48.0771 44.5965 48.0771C28.9693 48.0771 14.7792 51.8484 2.06592 58.5148C7.80474 76.7631 24.8561 89.9999 44.9994 89.9999Z" fill="#7CA5B9"/>
</g>
<path opacity="0.3" d="M44.8525 73.9522C56.3347 73.9522 65.6425 73.0666 65.6425 71.9722C65.6425 70.8778 56.3347 69.9922 44.8525 69.9922C33.3703 69.9922 24.0625 70.8778 24.0625 71.9722C24.0625 73.0666 33.3703 73.9522 44.8525 73.9522Z" fill="#7CA5B9"/>
<path d="M45.4285 20.1319C45.5869 23.4511 45.0685 26.1475 44.2765 26.1547C43.4845 26.1619 42.7105 23.4781 42.5521 20.1571C42.3937 16.8361 44.5123 16.1719 45.3061 16.1719C46.0999 16.1719 45.2701 16.8109 45.4285 20.1319Z" fill="#333333"/>
<path d="M19.3556 36.7008C18.9326 27.8556 25.3964 20.6214 33.7898 20.544C37.766 20.5062 41.4614 22.083 44.2946 24.693C45.6035 23.333 47.1711 22.2485 48.9053 21.5032C50.6394 20.758 52.5051 20.3669 54.3926 20.3532C62.786 20.2758 69.932 27.384 70.355 36.2292C70.715 43.7892 62.435 59.1702 54.7886 63.5118C53.6678 64.2647 52.3498 64.6704 50.9996 64.6782C49.0984 64.6815 47.2679 63.9584 45.8822 62.6568C45.2447 63.319 44.4813 63.8473 43.6368 64.2105C42.7923 64.5737 41.8838 64.7645 40.9646 64.7718C39.5373 64.7793 38.139 64.3695 36.9416 63.5928C29.0126 59.2836 19.7138 44.2176 19.3556 36.7008Z" fill="#F41C5E"/>
<path opacity="0.2" d="M70.3585 36.2292C69.9355 27.384 62.7895 20.2758 54.3961 20.3532C52.5893 20.3668 50.8016 20.7254 49.1293 21.4098C56.7955 25.6902 61.9525 33.6948 61.9525 42.8658C61.9525 52.0944 56.7325 60.1458 48.9763 64.4046C49.6347 64.5922 50.3167 64.6844 51.0013 64.6782C52.3522 64.6708 53.6708 64.2651 54.7921 63.5118C62.4457 59.1702 70.7185 43.7946 70.3585 36.2292Z" fill="#333333"/>
<path d="M26.9426 26.7915C27.5906 25.3515 29.3258 24.7107 30.0782 25.0293C30.8306 25.3479 30.3158 26.5125 29.6678 27.9453C29.0198 29.3781 28.2872 30.8253 27.5348 30.5157C26.7824 30.2061 26.2964 28.2315 26.9426 26.7915Z" fill="white"/>
</g>
<defs>
<clipPath id="clip0_23594_5488">
<rect width="90" height="90" fill="white"/>
</clipPath>
<clipPath id="clip1_23594_5488">
<rect width="90" height="90" fill="white"/>
</clipPath>
</defs>
</svg>
