<svg width="24" height="25" viewBox="0 0 24 25" fill="none" xmlns="http://www.w3.org/2000/svg">
<path d="M3.30835 13.2279C3.11251 13.0363 3 12.7779 3 12.5029C3 12.2279 3.11251 11.9695 3.30835 11.7778L10.6421 4.7774C11.0422 4.39404 11.6755 4.41071 12.0547 4.81074C12.4339 5.21076 12.4214 5.84413 12.0214 6.22332L6.49605 11.5028H20.6678C21.222 11.5028 21.6678 11.9487 21.6678 12.5029C21.6678 13.0571 21.222 13.503 20.6678 13.503H6.49605L12.0256 18.7783C12.4256 19.1616 12.4381 19.7908 12.0589 20.1909C11.6797 20.5909 11.0463 20.6034 10.6463 20.2242L3.31252 13.2238L3.30835 13.2279Z" fill="#1D1D1D"/>
</svg>
