<svg width="70" height="70" viewBox="0 0 70 70" fill="none" xmlns="http://www.w3.org/2000/svg">
<rect width="70" height="70" rx="8" fill="#E71757"/>
<path d="M33.1318 29.8518V32.8126H24.4961V29.8518H33.1318ZM25.8002 15.7057V32.8126H21.97V15.7057H25.8002Z" fill="white"/>
<path d="M48.4998 23.8832V24.6469C48.4998 25.9471 48.3197 27.1142 47.9594 28.1482C47.6069 29.1821 47.1017 30.0633 46.4437 30.7917C45.7936 31.5202 45.0181 32.0803 44.1173 32.4719C43.2244 32.8557 42.2335 33.0476 41.1448 33.0476C40.056 33.0476 39.0612 32.8557 38.1605 32.4719C37.2597 32.0803 36.4764 31.5202 35.8106 30.7917C35.1526 30.0633 34.6435 29.1821 34.2832 28.1482C33.9229 27.1142 33.7427 25.9471 33.7427 24.6469V23.8832C33.7427 22.5829 33.9229 21.4158 34.2832 20.3819C34.6435 19.3401 35.1487 18.455 35.7989 17.7266C36.4568 16.9981 37.2362 16.442 38.137 16.0582C39.0377 15.6665 40.0325 15.4707 41.1213 15.4707C42.21 15.4707 43.2048 15.6665 44.1056 16.0582C45.0064 16.442 45.7818 16.9981 46.4319 17.7266C47.0899 18.455 47.599 19.3401 47.9594 20.3819C48.3197 21.4158 48.4998 22.5829 48.4998 23.8832ZM44.6343 24.6469V23.8597C44.6343 22.9902 44.556 22.2226 44.3993 21.5568C44.2427 20.8832 44.0155 20.3192 43.7179 19.8649C43.4202 19.4106 43.0521 19.0699 42.6134 18.8427C42.1748 18.6078 41.6774 18.4903 41.1213 18.4903C40.5416 18.4903 40.0364 18.6078 39.6056 18.8427C39.1748 19.0699 38.8106 19.4106 38.5129 19.8649C38.2231 20.3192 37.9999 20.8832 37.8432 21.5568C37.6944 22.2226 37.62 22.9902 37.62 23.8597V24.6469C37.62 25.5085 37.6944 26.2761 37.8432 26.9497C37.9999 27.6155 38.227 28.1795 38.5247 28.6416C38.8223 29.1038 39.1866 29.4523 39.6174 29.6873C40.056 29.9223 40.5651 30.0398 41.1448 30.0398C41.7009 30.0398 42.1944 29.9223 42.6252 29.6873C43.0638 29.4523 43.432 29.1038 43.7296 28.6416C44.0273 28.1795 44.2505 27.6155 44.3993 26.9497C44.556 26.2761 44.6343 25.5085 44.6343 24.6469Z" fill="white"/>
<path d="M33.684 45.6524V52.5493C33.402 52.8704 32.9712 53.215 32.3916 53.5832C31.8198 53.9513 31.0874 54.2686 30.1945 54.5349C29.3015 54.7934 28.2362 54.9226 26.9987 54.9226C25.8786 54.9226 24.8603 54.7425 23.9438 54.3821C23.0274 54.014 22.2402 53.4774 21.5822 52.7725C20.9243 52.0597 20.4152 51.1903 20.0548 50.1642C19.7024 49.1381 19.5261 47.9631 19.5261 46.6394V45.6289C19.5261 44.3052 19.7024 43.1303 20.0548 42.1042C20.4073 41.0781 20.9047 40.2125 21.547 39.5076C22.1893 38.7948 22.953 38.2543 23.8381 37.8862C24.7232 37.518 25.7023 37.334 26.7754 37.334C28.3028 37.334 29.5522 37.5807 30.5234 38.0742C31.4947 38.5598 32.231 39.2334 32.7323 40.095C33.2414 40.9566 33.5547 41.9475 33.6722 43.0676H29.983C29.9046 42.4958 29.748 42.0023 29.513 41.5872C29.2858 41.172 28.9608 40.8548 28.5378 40.6355C28.1148 40.4083 27.5665 40.2948 26.8929 40.2948C26.3524 40.2948 25.8629 40.4083 25.4243 40.6355C24.9934 40.8548 24.6292 41.1877 24.3316 41.6342C24.0339 42.0807 23.8068 42.6368 23.6501 43.3026C23.4935 43.9605 23.4151 44.7282 23.4151 45.6054V46.6394C23.4151 47.5167 23.4935 48.2882 23.6501 48.954C23.8146 49.6198 24.0535 50.1759 24.3668 50.6224C24.6801 51.061 25.0757 51.3939 25.5535 51.6211C26.0391 51.8482 26.6031 51.9618 27.2454 51.9618C27.7467 51.9618 28.1697 51.9226 28.5143 51.8443C28.859 51.7581 29.1409 51.6524 29.3603 51.5271C29.5796 51.3939 29.7441 51.2725 29.8537 51.1628V48.3195H26.8107V45.6524H33.684Z" fill="white"/>
<path d="M50.5677 45.7582V46.5219C50.5677 47.8221 50.3875 48.9892 50.0272 50.0232C49.6747 51.0571 49.1695 51.9383 48.5116 52.6667C47.8614 53.3952 47.086 53.9552 46.1852 54.3469C45.2923 54.7307 44.3014 54.9226 43.2126 54.9226C42.1239 54.9226 41.1291 54.7307 40.2283 54.3469C39.3276 53.9552 38.5443 53.3952 37.8785 52.6667C37.2205 51.9383 36.7114 51.0571 36.3511 50.0232C35.9908 48.9892 35.8106 47.8221 35.8106 46.5219V45.7582C35.8106 44.4579 35.9908 43.2908 36.3511 42.2569C36.7114 41.2151 37.2166 40.33 37.8667 39.6016C38.5247 38.8731 39.3041 38.317 40.2048 37.9332C41.1056 37.5415 42.1004 37.3457 43.1891 37.3457C44.2779 37.3457 45.2727 37.5415 46.1735 37.9332C47.0742 38.317 47.8497 38.8731 48.4998 39.6016C49.1578 40.33 49.6669 41.2151 50.0272 42.2569C50.3875 43.2908 50.5677 44.4579 50.5677 45.7582ZM46.7022 46.5219V45.7347C46.7022 44.8652 46.6238 44.0976 46.4672 43.4318C46.3105 42.7582 46.0834 42.1942 45.7857 41.7399C45.4881 41.2856 45.1199 40.9449 44.6813 40.7177C44.2427 40.4828 43.7453 40.3653 43.1891 40.3653C42.6095 40.3653 42.1043 40.4828 41.6735 40.7177C41.2427 40.9449 40.8785 41.2856 40.5808 41.7399C40.291 42.1942 40.0678 42.7582 39.9111 43.4318C39.7623 44.0976 39.6879 44.8652 39.6879 45.7347V46.5219C39.6879 47.3835 39.7623 48.1511 39.9111 48.8247C40.0678 49.4905 40.2949 50.0545 40.5926 50.5166C40.8902 50.9788 41.2544 51.3273 41.6852 51.5623C42.1239 51.7973 42.633 51.9148 43.2126 51.9148C43.7688 51.9148 44.2622 51.7973 44.6931 51.5623C45.1317 51.3273 45.4998 50.9788 45.7975 50.5166C46.0951 50.0545 46.3184 49.4905 46.4672 48.8247C46.6238 48.1511 46.7022 47.3835 46.7022 46.5219Z" fill="white"/>
</svg>
