<svg width="40" height="40" viewBox="0 0 40 40" fill="none" xmlns="http://www.w3.org/2000/svg">
<g clip-path="url(#clip0_16575_303)">
<g clip-path="url(#clip1_16575_303)">
<path d="M19.9997 39.9995C31.0453 39.9995 39.9995 31.0453 39.9995 19.9997C39.9995 8.95419 31.0453 0 19.9997 0C8.95419 0 0 8.95419 0 19.9997C0 31.0453 8.95419 39.9995 19.9997 39.9995Z" fill="#EAEFF4"/>
<path opacity="0.2" d="M19.9997 40C28.8924 40 36.4286 34.1951 39.0287 26.169C33.3055 23.1052 26.7661 21.3677 19.8207 21.3677C12.8753 21.3677 6.56855 23.0438 0.918213 26.0066C3.4688 34.117 11.0472 40 19.9997 40Z" fill="#7CA5B9"/>
</g>
<path d="M14.8316 11.2648C14.8315 11.1982 14.811 11.1333 14.7729 11.0786C14.7349 11.024 14.6811 10.9822 14.6187 10.959C14.6552 10.9448 14.694 10.9375 14.7331 10.9375H16.2425C16.3267 10.9416 16.406 10.978 16.464 11.039C16.5221 11.1 16.5545 11.181 16.5545 11.2652C16.5545 11.3494 16.5221 11.4304 16.464 11.4914C16.406 11.5524 16.3267 11.5888 16.2425 11.5929H14.7331C14.6939 11.5925 14.6552 11.585 14.6187 11.5707C14.6811 11.5474 14.7349 11.5056 14.7729 11.451C14.811 11.3963 14.8315 11.3314 14.8316 11.2648Z" fill="#333333"/>
<path d="M13.2769 11.0916C13.3064 11.0444 13.3473 11.0055 13.396 10.9785C13.4446 10.9516 13.4994 10.9374 13.555 10.9375H15.298C15.3821 10.9416 15.4614 10.978 15.5195 11.039C15.5775 11.1 15.6099 11.181 15.6099 11.2652C15.6099 11.3494 15.5775 11.4304 15.5195 11.4914C15.4614 11.5524 15.3821 11.5888 15.298 11.5929H14.0817L14.602 12.6511C14.6212 12.6897 14.6325 12.7316 14.6353 12.7746C14.6382 12.8176 14.6325 12.8607 14.6186 12.9014C14.6047 12.9422 14.5829 12.9798 14.5544 13.0121C14.526 13.0444 14.4914 13.0707 14.4527 13.0896C14.4078 13.1121 14.3583 13.1238 14.3081 13.1238C14.2469 13.1237 14.1869 13.1064 14.1349 13.074C14.083 13.0416 14.0411 12.9952 14.0142 12.9403L13.261 11.4094C13.2365 11.3594 13.2251 11.304 13.2279 11.2485C13.2307 11.1929 13.2475 11.1389 13.2769 11.0916Z" fill="#333333"/>
<path d="M13.6503 13.7317L14.2493 13.9255L14.9596 11.9688C14.9695 11.9372 14.9667 11.903 14.9519 11.8733C14.9371 11.8437 14.9114 11.821 14.8801 11.8099L14.5234 11.6947C14.4918 11.6844 14.4574 11.6869 14.4276 11.7018C14.3979 11.7167 14.3752 11.7427 14.3645 11.7742L13.6503 13.7317Z" fill="#333333"/>
<path opacity="0.3" d="M29.6876 29.0625C32.3171 29.0625 34.4494 28.8528 34.4494 28.5946C34.4494 28.3364 32.3171 28.1274 29.6876 28.1274C27.058 28.1274 24.9257 28.3364 24.9257 28.5946C24.9257 28.8528 27.0572 29.0625 29.6876 29.0625Z" fill="#7CA5B9"/>
<path opacity="0.3" d="M10.1969 29.0625C12.8273 29.0625 14.9587 28.8528 14.9587 28.5946C14.9587 28.3364 12.8273 28.1274 10.1969 28.1274C7.56652 28.1274 5.43506 28.3364 5.43506 28.5946C5.43506 28.8528 7.56732 29.0625 10.1969 29.0625Z" fill="#7CA5B9"/>
<path d="M10.5322 17.6807C11.5087 17.6807 12.4633 17.9703 13.2752 18.5128C14.0872 19.0553 14.72 19.8264 15.0937 20.7286C15.4674 21.6308 15.5652 22.6236 15.3747 23.5813C15.1842 24.5391 14.7139 25.4188 14.0234 26.1094C13.3329 26.7999 12.4532 27.2701 11.4954 27.4606C10.5376 27.6511 9.54488 27.5534 8.64269 27.1797C7.7405 26.806 6.96938 26.1731 6.42685 25.3612C5.88432 24.5492 5.59475 23.5946 5.59475 22.6181C5.59622 21.3091 6.11688 20.0541 7.0425 19.1284C7.96813 18.2028 9.22312 17.6822 10.5322 17.6807ZM10.5322 16.7734C9.37619 16.7734 8.24619 17.1162 7.28504 17.7584C6.32389 18.4007 5.57477 19.3135 5.1324 20.3814C4.69003 21.4494 4.57429 22.6246 4.79981 23.7583C5.02532 24.8921 5.58197 25.9335 6.39936 26.7509C7.21675 27.5683 8.25817 28.1249 9.39192 28.3504C10.5257 28.5759 11.7008 28.4602 12.7688 28.0178C13.8368 27.5755 14.7496 26.8263 15.3918 25.8652C16.034 24.9041 16.3768 23.774 16.3768 22.6181C16.3768 21.068 15.761 19.5814 14.6649 18.4853C13.5689 17.3892 12.0822 16.7734 10.5322 16.7734Z" fill="#333333"/>
<path d="M29.3523 17.6807C30.3288 17.6807 31.2834 17.9703 32.0954 18.5128C32.9073 19.0553 33.5402 19.8264 33.9139 20.7286C34.2876 21.6308 34.3853 22.6236 34.1948 23.5813C34.0043 24.5391 33.5341 25.4188 32.8436 26.1094C32.153 26.7999 31.2733 27.2701 30.3155 27.4606C29.3578 27.6511 28.365 27.5534 27.4628 27.1797C26.5606 26.806 25.7895 26.1731 25.247 25.3612C24.7045 24.5492 24.4149 23.5946 24.4149 22.6181C24.4163 21.3091 24.937 20.0541 25.8626 19.1284C26.7883 18.2028 28.0433 17.6822 29.3523 17.6807ZM29.3523 16.7734C28.1963 16.7731 27.0661 17.1156 26.1047 17.7577C25.1434 18.3997 24.394 19.3124 23.9514 20.3803C23.5088 21.4483 23.3928 22.6235 23.6182 23.7573C23.8435 24.8912 24.4 25.9328 25.2173 26.7503C26.0347 27.5679 27.0761 28.1247 28.2099 28.3503C29.3437 28.576 30.5189 28.4603 31.587 28.018C32.655 27.5757 33.5679 26.8265 34.2102 25.8654C34.8525 24.9042 35.1953 23.7741 35.1953 22.6181C35.1953 21.0683 34.5798 19.5819 33.484 18.4859C32.3883 17.3898 30.9021 16.7739 29.3523 16.7734Z" fill="#333333"/>
<path d="M13.4279 14.1973L10.2295 22.5023C10.1987 22.5826 10.2011 22.6718 10.2361 22.7503C10.2711 22.8288 10.3359 22.8902 10.4162 22.9209C10.4964 22.9517 10.5856 22.9493 10.6642 22.9143C10.7427 22.8793 10.8041 22.8145 10.8348 22.7342L14.0348 14.4189L13.4279 14.1973Z" fill="#333333"/>
<path d="M21.7758 26.3257H19.2574V26.7142H21.7758V26.3257Z" fill="#333333"/>
<path d="M30.0394 22.7068L25.1743 14.2795L25.4047 13.5724H14.5559L13.6328 13.2261L12.5619 15.9724L13.5073 16.3244L13.5565 16.1901L20.6866 23.7754C20.7228 23.9444 20.8076 24.0992 20.9304 24.2209C21.0533 24.3425 21.2089 24.4258 21.3783 24.4604C21.5477 24.495 21.7235 24.4796 21.8842 24.4159C22.0449 24.3522 22.1837 24.2431 22.2834 24.1019L29.7995 23.1907L30.0394 22.7068ZM14.208 14.6092H23.9795L21.334 22.7251C21.2794 22.7395 21.2262 22.7589 21.1751 22.7831L13.999 15.147L14.208 14.6092ZM22.4335 23.4457C22.4143 23.323 22.3694 23.2057 22.3016 23.1017L24.9042 15.1089L29.2371 22.606L22.4335 23.4457Z" fill="#F41C5E"/>
<path d="M21.5541 24.0972L20.5285 26.4988L20.1702 26.3462L21.1275 24.094L21.3714 23.5093C21.3714 23.5093 21.458 23.2885 21.6669 23.3735C21.8322 23.441 21.7361 23.6746 21.7361 23.6746L21.5541 24.0972Z" fill="#333333"/>
<path d="M22.7776 12.9404C22.7465 12.9377 22.7167 12.9269 22.6911 12.909C22.6655 12.8911 22.6452 12.8668 22.632 12.8385C22.6189 12.8102 22.6134 12.7789 22.6163 12.7478C22.6191 12.7168 22.6301 12.687 22.6481 12.6615C22.7553 12.5066 22.9659 12.3438 23.3631 12.3438H26.8459C26.882 12.3436 26.9175 12.3534 26.9484 12.3722C26.9793 12.391 27.0044 12.418 27.0209 12.4502C27.0373 12.4824 27.0446 12.5185 27.0417 12.5546C27.0389 12.5906 27.0261 12.6252 27.0048 12.6544C26.6919 13.0667 26.2689 13.3823 25.7845 13.5648C25.4833 13.6762 25.1601 13.7157 24.8409 13.68C24.5217 13.6442 24.2153 13.5343 23.9462 13.359C23.5955 13.1286 23.1948 12.9851 22.7776 12.9404Z" fill="#333333"/>
<path opacity="0.2" d="M14.053 15.0063H13.8107L13.601 15.5442L20.7771 23.1803C20.8282 23.1561 20.8814 23.1366 20.936 23.1223L21.079 22.6822L13.9974 15.147L14.053 15.0063Z" fill="#333333"/>
<path opacity="0.2" d="M25.1743 14.2795L25.4047 13.5724H14.5559L13.6328 13.2261L13.4469 13.7027L14.1587 13.9697H25.0075L25.1743 14.2795Z" fill="#333333"/>
<path opacity="0.2" d="M22.204 23.3912C22.2769 23.5042 22.3255 23.631 22.347 23.7638L29.7138 22.8557L25.0266 14.7358L22.204 23.3912ZM22.4336 23.446C22.4144 23.3233 22.3694 23.2061 22.3017 23.102L24.9043 15.1092L29.2371 22.6063L22.4336 23.446Z" fill="#333333"/>
</g>
<defs>
<clipPath id="clip0_16575_303">
<rect width="40" height="40" fill="white"/>
</clipPath>
<clipPath id="clip1_16575_303">
<rect width="40" height="40" fill="white"/>
</clipPath>
</defs>
</svg>
