<svg width="57" height="56" viewBox="0 0 57 56" fill="none" xmlns="http://www.w3.org/2000/svg">
<path d="M34.5105 54.3796C30.0962 56.5129 24.9474 56.4657 20.5495 54.2975C12.6623 50.4083 0.93103 45.9242 0.93103 36.6667V10.0206C0.93103 4.997 5.0418 0.88623 10.0654 0.88623H45.5177C50.5413 0.88623 55.1485 4.50059 55.1485 9.52623V36.1724C55.1485 44.3406 42.5392 50.5006 34.5085 54.3816L34.5105 54.3796Z" fill="#B7B7B7"/>
<path d="M34.5105 53.5402C30.0962 55.6735 24.9474 55.6264 20.5495 53.4582C12.6623 49.5689 0.93103 45.0848 0.93103 35.8274V9.18123C0.93103 4.15764 5.0418 0.046875 10.0654 0.046875H45.5177C50.5413 0.046875 54.6521 4.15764 54.6521 9.18123V35.8274C54.6521 43.9956 42.5372 49.6592 34.5085 53.5402H34.5105Z" fill="#A17242"/>
<path d="M42.2233 23.3123L35.7064 29.6426L37.2448 38.6047C37.4048 39.5421 36.4223 40.2559 35.5812 39.8129L27.5382 35.5872L19.5012 39.8108C18.6582 40.26 17.6715 39.5421 17.8335 38.6088L19.372 29.6467L12.8674 23.3123C12.1864 22.6498 12.5617 21.5011 13.4951 21.3575L22.5084 20.0405L26.531 11.8929C26.9515 11.0416 28.1659 11.0416 28.5864 11.8929L32.6089 20.0405L41.5894 21.3534C42.5289 21.4847 42.9064 22.6498 42.2233 23.3123Z" fill="white"/>
<mask id="mask0_16771_3400" style="mask-type:luminance" maskUnits="userSpaceOnUse" x="-17" y="-22" width="79" height="76">
<path d="M61.1834 2.59084L5.57726 53.9406L-16.1356 22.837L13.5014 -21.4707L61.1834 2.59084Z" fill="white"/>
</mask>
<g mask="url(#mask0_16771_3400)">
<path opacity="0.26" d="M34.5107 53.5402C30.0963 55.6735 24.9476 55.6264 20.5497 53.4582C12.6625 49.5689 0.931213 45.0848 0.931213 35.8274V9.18123C0.931213 4.15764 5.04198 0.046875 10.0656 0.046875H45.5179C50.5415 0.046875 54.6522 4.15764 54.6522 9.18123V35.8274C54.6522 43.9956 42.5374 49.6592 34.5087 53.5402H34.5107Z" fill="url(#paint0_linear_16771_3400)"/>
</g>
<path d="M56.5517 9.88529L54.8019 9.10785L53.8727 10.6607L54.0347 8.80016L52.3076 8.35093L54.0204 8.09247V6.1499L54.7281 7.87298L56.644 7.0976L55.1547 8.43093L56.5517 9.88529Z" fill="white"/>
<defs>
<linearGradient id="paint0_linear_16771_3400" x1="44.8943" y1="39.973" x2="0.861475" y2="-4.0598" gradientUnits="userSpaceOnUse">
<stop offset="0.36" stop-color="white"/>
<stop offset="0.55" stop-color="white" stop-opacity="0"/>
</linearGradient>
</defs>
</svg>
