<svg width="25" height="25" viewBox="0 0 25 25" fill="none" xmlns="http://www.w3.org/2000/svg">
    <g clip-path="url(#clip0_21041_11146)">
        <rect x="0.5" y="0.5" width="24" height="24" rx="6" fill="#F3F3F3" />
        <path
            d="M12.4973 6C12.4973 5.60218 12.6553 5.22064 12.9366 4.93934C13.2179 4.65804 13.5994 4.5 13.9973 4.5C14.3951 4.5 14.7766 4.65804 15.0579 4.93934C15.3392 5.22064 15.4973 5.60218 15.4973 6C15.4973 6.39782 15.3392 6.77936 15.0579 7.06066C14.7766 7.34196 14.3951 7.5 13.9973 7.5C13.5994 7.5 13.2179 7.34196 12.9366 7.06066C12.6553 6.77936 12.4973 6.39782 12.4973 6ZM12.8629 10.025L11.9285 12.8313C11.8941 12.9313 11.9285 13.0375 12.0066 13.1031L12.5191 13.5188L13.5316 10.275C13.5348 10.2656 13.5379 10.2531 13.541 10.2438C13.3316 10.1344 13.1035 10.0594 12.8629 10.0219V10.025ZM14.6629 11.6844L13.7723 14.5375L15.3379 15.8094C15.5535 15.9844 15.7035 16.2281 15.7691 16.5L16.4816 19.5813C16.5754 19.9844 16.3223 20.3875 15.9191 20.4812C15.516 20.575 15.1129 20.3219 15.0191 19.9187L14.3285 16.9187L11.0598 14.2688C10.4973 13.8094 10.2754 13.0469 10.5035 12.3562L11.216 10.2219C10.4441 10.5281 9.81914 11.125 9.47852 11.8875L9.18164 12.5531C9.01289 12.9313 8.56914 13.1031 8.19102 12.9344C7.81289 12.7656 7.64102 12.3219 7.80977 11.9437L8.10664 11.2812C8.64102 10.0781 9.65664 9.15625 10.9035 8.74062C11.3816 8.58125 11.8816 8.5 12.3848 8.5H12.5379C14.1785 8.5 15.6223 9.5875 16.0754 11.1687L16.416 12.3594L17.2785 13.2188C17.5723 13.5125 17.5723 13.9875 17.2785 14.2781C16.9848 14.5687 16.5098 14.5719 16.2191 14.2781L15.3098 13.3719C15.1598 13.2219 15.0504 13.0344 14.991 12.8313L14.6629 11.6844ZM9.85664 17.0781L10.6098 15.1906L11.8285 16.1812L11.2285 17.6812C11.166 17.8375 11.0723 17.9813 10.9504 18.1L8.77852 20.2812C8.48477 20.575 8.00977 20.575 7.71914 20.2812C7.42852 19.9875 7.42539 19.5125 7.71914 19.2219L9.85977 17.0813L9.85664 17.0781Z"
            fill="#1D1D1D" />
    </g>
    <defs>
        <clipPath id="clip0_21041_11146">
            <rect x="0.5" y="0.5" width="24" height="24" rx="6" fill="white" />
        </clipPath>
    </defs>
</svg>
