<svg width="90" height="90" viewBox="0 0 90 90" fill="none" xmlns="http://www.w3.org/2000/svg">
<g clip-path="url(#clip0_23594_6544)">
<g clip-path="url(#clip1_23594_6544)">
<path d="M44.9994 89.9988C69.8519 89.9988 89.9988 69.8519 89.9988 44.9994C89.9988 20.1469 69.8519 0 44.9994 0C20.1469 0 0 20.1469 0 44.9994C0 69.8519 20.1469 89.9988 44.9994 89.9988Z" fill="#EAEFF4"/>
<path opacity="0.2" d="M44.9998 90.0008C65.0084 90.0008 81.9649 76.9397 87.815 58.8812C74.9378 51.9876 60.2241 48.0781 44.597 48.0781C28.9698 48.0781 14.7797 51.8494 2.06641 58.5158C7.80523 76.7641 24.8566 90.0008 44.9998 90.0008Z" fill="#7CA5B9"/>
</g>
<ellipse cx="46.6182" cy="39.8931" rx="12.4713" ry="12.4713" fill="white"/>
<path d="M27.4117 15.0475C23.0646 15.0457 25.8453 18.8875 27.4117 19.4432V60.9016C28.6749 62.7965 31.9137 66.5406 34.7635 66.3587C37.6133 66.1768 40.0437 62.6449 40.9027 60.9016V52.5724L32.5479 40.2071L40.9027 27.39V20.1254C41.6606 19.7211 43.1765 18.6247 43.1765 17.4726C43.1765 16.3206 42.4691 15.3758 42.1154 15.0475C40.6338 14.7297 27.6665 15.0476 27.4117 15.0475Z" fill="white"/>
<path d="M27.7017 30.5271H35.0068C30.1795 36.7204 30.8157 45.3595 36.5558 51.2189C37.6905 52.1097 39.0796 52.8725 40.3888 53.5001L40.5244 60.957C40.5244 63.5531 37.5161 65.8789 34.1778 65.8789C30.8287 65.8789 27.9026 63.735 27.9026 61.1389L27.7017 30.5271Z" fill="#F41C5E"/>
<path opacity="0.2" d="M34.625 55.0626C33.2759 58.7437 32.2898 61.5754 28.2192 62.7132C31.7672 67.1286 35.6082 67.0364 38.6318 64.6653C40.928 62.8647 41.1255 57.6287 40.7462 54.2467L36.6638 47.8086C36.3477 48.6936 35.9263 51.5124 34.625 55.0626Z" fill="black"/>
<path d="M38.3247 43.9648C41.443 43.9648 43.9754 46.4486 43.9754 49.5148C43.9754 50.243 43.8351 50.9469 43.5713 51.5859C39.892 50.6636 36.8731 48.1313 35.3306 44.8061C36.1964 44.2804 37.2195 43.9648 38.3247 43.9648Z" fill="#F41C5E"/>
<path d="M55.2192 32.7029C55.9454 32.7029 56.6217 32.8971 57.1991 33.2449C58.0076 34.507 58.5931 35.9228 58.8901 37.4357C58.4446 39.0133 56.9682 40.1621 55.2192 40.1621C53.1241 40.1621 51.4165 38.4956 51.4165 36.4325C51.4165 34.3694 53.1241 32.7029 55.2192 32.7029Z" fill="#F41C5E"/>
<path d="M35.0827 19.306C35.3302 19.306 35.5197 19.5002 35.5197 19.7346C35.5197 19.9694 35.3302 20.1635 35.0827 20.1635H28.0214V59.7663C28.0214 61.4168 28.7144 62.9216 29.8196 64.0056C30.9332 65.0978 32.4595 65.7694 34.1505 65.7694C35.8333 65.7694 37.3592 65.0978 38.4729 64.0056C39.5784 62.9216 40.2713 61.4168 40.2713 59.7663V53.6337C40.2713 53.399 40.4609 53.2048 40.7083 53.2048C40.9477 53.2048 41.1457 53.399 41.1457 53.6337V59.7663C41.1457 61.6515 40.3537 63.3665 39.0834 64.6124C37.8213 65.8585 36.0723 66.627 34.1505 66.627C32.2201 66.627 30.4715 65.8585 29.2093 64.6124C27.9391 63.3665 27.1471 61.6515 27.1471 59.7663V20.1313C26.5447 20.0342 26.0003 19.7509 25.5795 19.3463C25.0683 18.8366 24.7466 18.141 24.7466 17.3723C24.7466 16.6118 25.0683 15.9159 25.5795 15.4062C26.0993 14.9048 26.8088 14.5893 27.5841 14.5893H40.7083C41.484 14.5893 42.1932 14.9048 42.7129 15.4062C43.2245 15.9159 43.5462 16.6118 43.5462 17.3723C43.5462 18.141 43.2245 18.8366 42.7129 19.3463C42.2922 19.7509 41.7477 20.0342 41.1457 20.1313V25.8349C41.1457 26.0776 40.9477 26.2638 40.7083 26.2638C40.4609 26.2638 40.2713 26.0776 40.2713 25.8349V20.1635H38.1349C37.8955 20.1635 37.6976 19.9694 37.6976 19.7346C37.6976 19.5002 37.8955 19.306 38.1349 19.306H40.7083C41.2446 19.306 41.7396 19.0876 42.0942 18.7395C42.4492 18.3917 42.6719 17.9062 42.6719 17.3723C42.6719 16.8466 42.4492 16.3611 42.0942 16.013C41.7396 15.6652 41.2446 15.4468 40.7083 15.4468H27.5841C27.0481 15.4468 26.5532 15.6652 26.1982 16.013C25.8436 16.3611 25.6209 16.8466 25.6209 17.3723C25.6209 17.9062 25.8436 18.3917 26.1982 18.7395C26.5532 19.0876 27.0481 19.306 27.5841 19.306H35.0827Z" fill="white" stroke="white" stroke-width="1.06667"/>
<mask id="mask0_23594_6544" style="mask-type:alpha" maskUnits="userSpaceOnUse" x="31" y="24" width="39" height="39">
<path fill-rule="evenodd" clip-rule="evenodd" d="M46.5657 24.6022C54.6571 25.2596 59.8409 30.0395 61.6856 37.7049C62.2753 40.1555 60.301 49.2645 58.6568 48.3042L69.9622 59.566C69.9622 59.9096 69.9004 60.7225 69.0274 61.7003C68.2985 62.5167 67.7 62.3833 67.0226 62.2324C66.8887 62.2025 66.7517 62.172 66.61 62.148L55.5524 51.359C50.8966 55.8358 37.8245 56.373 32.7658 44.823C27.92 33.7591 38.9852 25.1842 46.5657 24.6022ZM46.8881 52.1724C53.7577 52.1724 59.3266 46.6036 59.3266 39.734C59.3266 32.8644 53.7577 27.2956 46.8881 27.2956C40.0186 27.2956 34.4497 32.8644 34.4497 39.734C34.4497 46.6036 40.0186 52.1724 46.8881 52.1724Z" fill="#222222"/>
</mask>
<g mask="url(#mask0_23594_6544)">
<path fill-rule="evenodd" clip-rule="evenodd" d="M46.5657 24.6022C54.6571 25.2596 59.8409 30.0395 61.6856 37.7049C62.2753 40.1555 60.301 49.2645 58.6568 48.3042L69.9622 59.566C69.9622 59.9096 69.9004 60.7225 69.0274 61.7003C68.2985 62.5167 67.7 62.3833 67.0226 62.2324C66.8887 62.2025 66.7517 62.172 66.61 62.148L55.5524 51.359C50.8966 55.8358 37.8245 56.373 32.7658 44.823C27.92 33.7591 38.9852 25.1842 46.5657 24.6022ZM46.8234 52.1738C53.7284 52.1738 59.326 46.5762 59.326 39.6712C59.326 32.7662 53.7284 27.1686 46.8234 27.1686C39.9184 27.1686 34.3208 32.7662 34.3208 39.6712C34.3208 46.5762 39.9184 52.1738 46.8234 52.1738Z" fill="#707070"/>
<path opacity="0.2" d="M61.2297 50.3027L70.4109 60.2885C69.1843 61.9814 68.3611 62.9727 67.3823 62.6948C66.4036 62.4169 62.6599 60.1555 63.0677 59.2099L61.2297 50.3027Z" fill="black"/>
</g>
<path d="M43.9426 40.9727C46.6235 40.9727 48.8176 38.8204 48.8176 36.1911C48.8176 33.5534 46.6235 31.4015 43.9426 31.4015C41.2532 31.4015 39.0591 33.5534 39.0591 36.1911C39.0591 38.8204 41.2532 40.9727 43.9426 40.9727Z" fill="#F41C5E"/>
<path d="M47.0769 33.1077C46.2768 32.315 45.1632 31.8295 43.9424 31.8295C42.7131 31.8295 41.5995 32.315 40.7994 33.1077C39.9993 33.8927 39.4959 34.9846 39.4959 36.1902C39.4959 37.3875 39.9993 38.4798 40.7994 39.2645C41.5995 40.0574 42.7131 40.5429 43.9424 40.5429C45.1632 40.5429 46.2768 40.0574 47.0769 39.2645C47.8854 38.4798 48.3804 37.3875 48.3804 36.1902C48.3804 34.9846 47.8854 33.8927 47.0769 33.1077ZM43.9424 30.9717C45.4106 30.9717 46.7386 31.5542 47.6956 32.5009C48.6608 33.4475 49.2547 34.7502 49.2547 36.1902C49.2547 37.6223 48.6608 38.9329 47.6956 39.8713C46.7386 40.8179 45.4106 41.4004 43.9424 41.4004C42.4741 41.4004 41.1459 40.8179 40.1807 39.8713C39.224 38.9329 38.6216 37.6223 38.6216 36.1902C38.6216 34.7502 39.224 33.4475 40.1807 32.5009C41.1459 31.5542 42.4741 30.9717 43.9424 30.9717Z" fill="#C3164B"/>
<path d="M45.6169 37.1373C45.7406 36.9348 46.0047 36.862 46.2109 36.9834C46.4173 37.0967 46.4915 37.3637 46.3759 37.5662C46.1203 37.9868 45.7654 38.3346 45.3447 38.5693C44.924 38.8121 44.4375 38.9414 43.9425 38.9414C43.1669 38.9414 42.4576 38.6339 41.9545 38.1324C41.443 37.639 41.1294 36.9511 41.1294 36.1907C41.1294 35.8266 41.2036 35.4705 41.344 35.1307C41.4843 34.7992 41.6905 34.4996 41.9545 34.2409C42.1193 34.071 42.4 34.071 42.5648 34.2409C42.738 34.4025 42.738 34.6778 42.5732 34.8394C42.3834 35.0176 42.243 35.2278 42.1525 35.4545C42.0535 35.689 42.004 35.9317 42.004 36.1907C42.004 36.7084 42.2183 37.1858 42.5732 37.5336C42.9197 37.8734 43.4062 38.0839 43.9425 38.0839C44.289 38.0839 44.6188 37.9948 44.9077 37.8329C45.1962 37.6713 45.4437 37.4365 45.6169 37.1373Z" fill="#C3164B"/>
<path d="M50.7301 48.6914C52.5862 48.6914 54.1125 47.2028 54.1125 45.3741C54.1125 43.554 52.5862 42.0572 50.7301 42.0572C48.8659 42.0572 47.3481 43.554 47.3481 45.3741C47.3481 47.2028 48.8659 48.6914 50.7301 48.6914Z" fill="#F41C5E"/>
<path d="M53.675 45.3733C53.675 43.7796 52.3552 42.4852 50.73 42.4852C49.9136 42.4852 49.1793 42.8087 48.643 43.3347C48.107 43.8604 47.7853 44.5806 47.7853 45.3733C47.7853 46.1742 48.107 46.8944 48.643 47.4204C49.1793 47.9461 49.9136 48.2699 50.73 48.2699C51.5385 48.2699 52.2728 47.9461 52.8088 47.4204C53.3451 46.8944 53.675 46.1742 53.675 45.3733ZM50.73 41.6357C52.8335 41.6357 54.5411 43.3105 54.5411 45.3733C54.5411 46.409 54.1204 47.3476 53.4275 48.0272C52.7345 48.7065 51.7778 49.1191 50.73 49.1191C49.6743 49.1191 48.7172 48.7065 48.0243 48.0272C47.3314 47.3476 46.9106 46.409 46.9106 45.3733C46.9106 44.3459 47.3314 43.4075 48.0243 42.7279C48.7172 42.0483 49.6743 41.6357 50.73 41.6357Z" fill="#C3164B"/>
<path d="M51.3258 45.9644C51.499 45.7945 51.7713 45.7945 51.9364 45.9644C52.1096 46.126 52.1096 46.4013 51.9364 46.5629C51.7797 46.7248 51.5899 46.8462 51.3838 46.927C51.1773 47.0161 50.9546 47.0566 50.7319 47.0566C50.2535 47.0566 49.8246 46.8705 49.5195 46.5629C49.2059 46.2637 49.0161 45.843 49.0161 45.3736C49.0161 45.2279 49.0327 45.0823 49.0741 44.945C49.1151 44.7993 49.1731 44.6697 49.2473 44.5403C49.3626 44.3302 49.6348 44.2654 49.8412 44.3787C50.0474 44.5001 50.1216 44.7588 49.9979 44.9692C49.965 45.0258 49.9318 45.0906 49.9155 45.1634C49.8989 45.2279 49.8907 45.3008 49.8907 45.3736C49.8907 45.6083 49.9813 45.8105 50.1382 45.9644C50.2864 46.11 50.4928 46.1988 50.7319 46.1988C50.8393 46.1988 50.9546 46.1828 51.0536 46.1423C51.1526 46.1017 51.2434 46.0372 51.3258 45.9644Z" fill="#C3164B"/>
<path d="M56.0848 37.283C56.2581 37.1131 56.5303 37.1131 56.7035 37.283C56.8768 37.4449 56.8768 37.7199 56.7035 37.8815C56.5055 38.0757 56.2747 38.2296 56.019 38.3347C55.7716 38.4317 55.4993 38.4883 55.2187 38.4883C54.6494 38.4883 54.1216 38.2618 53.7422 37.8898V37.8815C53.3629 37.5094 53.1235 36.9997 53.1235 36.4335C53.1235 36.1665 53.1812 35.8995 53.2886 35.6488C53.3958 35.3977 53.5442 35.1713 53.7422 34.9771C53.9155 34.8152 54.1877 34.8152 54.3609 34.9851C54.5257 35.147 54.5257 35.422 54.3609 35.5839C54.2453 35.6973 54.1545 35.8267 54.0887 35.9723C54.0311 36.1179 53.9979 36.2715 53.9979 36.4335C53.9979 36.765 54.1382 37.0645 54.3609 37.283C54.5752 37.5014 54.8806 37.6308 55.2187 37.6308C55.3837 37.6308 55.5488 37.5985 55.6889 37.5417C55.8373 37.4851 55.9695 37.3963 56.0848 37.283Z" fill="#B71546"/>
<path d="M35.5532 45.1705C35.3555 45.2998 35.0833 45.2353 34.9595 45.0328C34.8273 44.8387 34.8934 44.572 35.0996 44.4506C35.5698 44.1511 36.0895 43.9246 36.6421 43.771C37.1784 43.6171 37.7394 43.5443 38.3249 43.5443C40.0078 43.5443 41.5256 44.2079 42.6311 45.2918C43.7281 46.3678 44.4129 47.8647 44.4129 49.5152C44.4129 49.9035 44.3797 50.2836 44.3055 50.6477C44.2312 51.028 44.1159 51.3921 43.9756 51.7399C43.8848 51.9584 43.6291 52.0634 43.4064 51.9826C43.1837 51.8935 43.0765 51.6428 43.1671 51.4244C43.2908 51.1251 43.3817 50.8096 43.4478 50.4861C43.5054 50.1785 43.5383 49.855 43.5383 49.5152C43.5383 48.0994 42.9528 46.821 42.0124 45.8986C41.072 44.9683 39.7603 44.3938 38.3249 44.3938C37.8218 44.3938 37.335 44.4666 36.8814 44.5959C36.4112 44.7256 35.9658 44.9198 35.5532 45.1705Z" fill="#C3164B"/>
<path d="M58.4692 37.3231C58.5353 37.0966 58.7746 36.9593 59.0055 37.0238C59.2363 37.0886 59.3767 37.3231 59.3106 37.5498C59.055 38.4396 58.5105 39.2083 57.7847 39.7503C57.067 40.2763 56.1842 40.5918 55.219 40.5918C54.0477 40.5918 52.992 40.1306 52.2249 39.3782C51.4577 38.6258 50.979 37.5821 50.979 36.4333C50.979 35.2845 51.4577 34.2488 52.2249 33.4884C52.992 32.736 54.0477 32.2748 55.219 32.2748C55.615 32.2748 56.0028 32.3233 56.3659 32.4284C56.7453 32.5338 57.0999 32.6874 57.4301 32.8816C57.6362 33.0029 56.8245 33.2616 56.7008 33.4641C56.577 33.6663 57.1826 33.7311 56.9761 33.6097C56.7124 33.4558 56.4317 33.3345 56.1347 33.2537C55.8462 33.1729 55.5408 33.1323 55.219 33.1323C54.2952 33.1323 53.4538 33.4964 52.8436 34.0952C52.233 34.6937 51.8536 35.5189 51.8536 36.4333C51.8536 37.3473 52.233 38.1726 52.8436 38.7714C53.4538 39.3702 54.2952 39.7343 55.219 39.7343C55.9862 39.7343 56.6958 39.4916 57.2568 39.0706C57.8342 38.642 58.2712 38.0269 58.4692 37.3231Z" fill="#E3175C"/>
<mask id="mask1_23594_6544" style="mask-type:alpha" maskUnits="userSpaceOnUse" x="34" y="27" width="25" height="26">
<ellipse opacity="0.1" cx="46.5182" cy="39.7953" rx="12.3714" ry="12.3714" fill="#F5F5F5"/>
</mask>
<g mask="url(#mask1_23594_6544)">
<ellipse opacity="0.6" cx="46.5364" cy="39.8135" rx="12.6318" ry="12.6318" fill="#C2164B"/>
<path d="M65.7967 35.8173C62.6733 42.799 47.1786 48.7638 41.1399 49.2672C46.2441 52.2864 61.1917 55.5724 73.7868 44.8752C86.3819 34.178 76.4703 17.3903 67.9907 12.1719C67.9907 13.6498 70.4412 25.4354 65.7967 35.8173Z" fill="white"/>
</g>
<path d="M55.1603 31.4183C52.9825 29.2903 49.9798 27.9716 46.6636 27.9716C43.3393 27.9716 40.3366 29.2903 38.1673 31.4183C35.9895 33.5539 34.6449 36.4991 34.6449 39.7513C34.6449 43.0037 35.9895 45.9486 38.1673 48.0846C40.3366 50.2122 43.3393 51.5392 46.6636 51.5392C49.9798 51.5392 52.9825 50.2122 55.1603 48.0846C57.33 45.9486 58.6745 43.0037 58.6745 39.7513C58.6745 36.4991 57.33 33.5539 55.1603 31.4183ZM46.6636 27.1141C50.2192 27.1141 53.4445 28.5299 55.7708 30.8115C58.1053 33.101 59.5488 36.2644 59.5488 39.7513C59.5488 43.2384 58.1053 46.4018 55.7708 48.6914C53.4445 50.9729 50.2192 52.3887 46.6636 52.3887C43.1002 52.3887 39.883 50.9729 37.5486 48.6914C35.2141 46.4018 33.7706 43.2384 33.7706 39.7513C33.7706 36.2644 35.2141 33.101 37.5486 30.8115C39.883 28.5299 43.1002 27.1141 46.6636 27.1141ZM61.3307 38.5945C61.0666 35.2935 59.6397 32.0653 57.0659 29.541C54.1951 26.7258 50.4253 25.318 46.6636 25.318C42.8941 25.318 39.124 26.7258 36.2535 29.541C33.3828 32.3649 31.9393 36.0539 31.9393 39.7513C31.9393 43.4486 33.3828 47.1379 36.2535 49.9615C38.8273 52.4858 42.1185 53.8773 45.4842 54.1443C48.8909 54.4113 52.3722 53.5132 55.2674 51.4664C55.4407 51.3287 55.6966 51.337 55.8532 51.4986L66.1562 61.6038C66.5359 61.9758 67.0471 62.162 67.5505 62.162C68.0536 62.162 68.5567 61.9758 68.9364 61.6038C69.3239 61.2234 69.5138 60.73 69.5138 60.2362C69.5138 59.7508 69.3321 59.2654 68.9612 58.8933L68.9364 58.869L58.6331 48.7642C58.4847 48.6185 58.4599 48.3838 58.5918 48.2139C60.6954 45.3661 61.6029 41.9437 61.3307 38.5945ZM57.6846 28.9345C60.415 31.6124 61.9162 35.0265 62.205 38.5297C62.4854 41.96 61.5863 45.4632 59.5075 48.4161L69.5548 58.2705L69.5795 58.2948C70.1158 58.8288 70.3881 59.5323 70.3881 60.2362C70.3799 60.9484 70.1077 61.6603 69.5548 62.2023V62.2106C69.0022 62.7525 68.2764 63.0195 67.5505 63.0195C66.8162 63.0195 66.0904 62.7525 65.5375 62.2106L55.4902 52.3561C52.4875 54.387 48.9075 55.2688 45.4099 54.9938C41.8462 54.7188 38.3652 53.2382 35.6348 50.5683C32.5908 47.5748 31.0649 43.667 31.0649 39.7513C31.0649 35.8355 32.5908 31.928 35.6348 28.9345C38.6788 25.9491 42.6714 24.4605 46.6636 24.4605C50.648 24.4605 54.6406 25.9491 57.6846 28.9345Z" fill="#707070"/>
<path opacity="0.3" d="M46.4048 76.2028C58.368 76.2028 68.0655 75.6489 68.0655 74.9637C68.0655 74.2785 58.368 73.7246 46.4048 73.7246C34.4416 73.7246 24.7461 74.2785 24.7461 74.9637C24.7461 75.6489 34.4435 76.2028 46.4048 76.2028Z" fill="#7CA5B9"/>
</g>
<defs>
<clipPath id="clip0_23594_6544">
<rect width="90" height="90" fill="white"/>
</clipPath>
<clipPath id="clip1_23594_6544">
<rect width="90" height="90" fill="white"/>
</clipPath>
</defs>
</svg>
