<svg width="24" height="25" viewBox="0 0 24 25" fill="none" xmlns="http://www.w3.org/2000/svg">
<path d="M12 21.5C14.3869 21.5 16.6761 20.5518 18.364 18.864C20.0518 17.1761 21 14.8869 21 12.5C21 10.1131 20.0518 7.82387 18.364 6.13604C16.6761 4.44821 14.3869 3.5 12 3.5C9.61305 3.5 7.32387 4.44821 5.63604 6.13604C3.94821 7.82387 3 10.1131 3 12.5C3 14.8869 3.94821 17.1761 5.63604 18.864C7.32387 20.5518 9.61305 21.5 12 21.5ZM12 8C12.4676 8 12.8438 8.37617 12.8438 8.84375V12.7812C12.8438 13.2488 12.4676 13.625 12 13.625C11.5324 13.625 11.1562 13.2488 11.1562 12.7812V8.84375C11.1562 8.37617 11.5324 8 12 8ZM10.875 15.875C10.875 15.5766 10.9935 15.2905 11.2045 15.0795C11.4155 14.8685 11.7016 14.75 12 14.75C12.2984 14.75 12.5845 14.8685 12.7955 15.0795C13.0065 15.2905 13.125 15.5766 13.125 15.875C13.125 16.1734 13.0065 16.4595 12.7955 16.6705C12.5845 16.8815 12.2984 17 12 17C11.7016 17 11.4155 16.8815 11.2045 16.6705C10.9935 16.4595 10.875 16.1734 10.875 15.875Z" fill="#DC282B"/>
</svg>
