<svg width="24" height="25" viewBox="0 0 24 25" fill="none" xmlns="http://www.w3.org/2000/svg">
<path d="M12 21.5C14.3869 21.5 16.6761 20.5518 18.364 18.864C20.0518 17.1761 21 14.8869 21 12.5C21 10.1131 20.0518 7.82387 18.364 6.13604C16.6761 4.44821 14.3869 3.5 12 3.5C9.61305 3.5 7.32387 4.44821 5.63604 6.13604C3.94821 7.82387 3 10.1131 3 12.5C3 14.8869 3.94821 17.1761 5.63604 18.864C7.32387 20.5518 9.61305 21.5 12 21.5ZM15.9727 10.8477L11.4727 15.3477C11.1422 15.6781 10.6078 15.6781 10.2809 15.3477L8.03086 13.0977C7.70039 12.7672 7.70039 12.2328 8.03086 11.9059C8.36133 11.5789 8.8957 11.5754 9.22266 11.9059L10.875 13.5582L14.7773 9.65234C15.1078 9.32188 15.6422 9.32188 15.9691 9.65234C16.2961 9.98281 16.2996 10.5172 15.9691 10.8441L15.9727 10.8477Z" fill="#4CAF50"/>
</svg>
