<svg width="121" height="127" viewBox="0 0 121 127" fill="none" xmlns="http://www.w3.org/2000/svg">
<path d="M88.1063 45.3705C88.1063 47.1875 86.7149 48.8587 84.3559 50.2046C81.5186 51.8309 77.2898 52.9749 72.4087 53.3226C72.0609 53.1544 71.6912 52.975 71.3108 52.8179C67.4516 51.158 62.3314 50.2046 56.8416 50.2046C56.0262 50.2046 55.2435 50.227 54.4499 50.2607L54.3413 50.2046C51.9823 48.8587 50.5908 47.1875 50.5908 45.3705C50.5908 40.9177 58.907 37.3062 69.3431 37.3062C79.7792 37.3062 88.0955 40.9177 88.0955 45.3705H88.1063ZM53.7977 53.547C54.7978 53.4797 55.8088 53.4348 56.8524 53.4348C62.9293 53.4348 68.3213 54.6798 71.7456 56.5977C74.1698 57.9549 75.6048 59.6485 75.6048 61.4991C75.6048 61.8132 75.5396 62.2955 75.3982 62.6768C74.9525 64.0116 73.6589 65.2229 71.9847 66.266C71.9847 66.266 71.9522 66.2659 71.9413 66.2884C71.9413 66.2884 71.8869 66.322 71.8543 66.3333C68.4408 68.2848 62.9836 69.5635 56.8524 69.5635C50.7212 69.5635 45.8185 68.4195 42.3832 66.6361C42.1984 66.5352 42.0245 66.3557 41.8506 66.3445C39.4916 64.9986 38.1001 63.3162 38.1001 61.5104C38.1001 57.9998 43.3181 55.0163 50.6017 53.9171C51.6235 53.7601 52.6889 53.6367 53.7977 53.5694V53.547ZM76.3766 56.1155C79.1379 55.6668 81.6708 54.9714 83.8232 54.0517C85.4104 53.3675 86.8888 52.5151 88.1063 51.4832V55.0499C88.1063 56.9903 86.4974 58.7849 83.8232 60.1757C82.3882 60.9159 80.6597 61.544 78.703 62.0263C78.703 61.8581 78.7247 61.6786 78.7247 61.4879C78.7247 59.2784 77.692 57.4726 76.3658 56.1042L76.3766 56.1155ZM75.6048 71.1674C75.6048 72.9844 74.2133 74.6555 71.8543 76.0015C71.6804 76.0015 71.5064 76.1921 71.3216 76.2931C67.8756 78.0877 62.6684 79.2205 56.8524 79.2205C50.7212 79.2205 45.2749 77.9531 41.8506 75.9903C39.4916 74.6443 38.1001 72.9619 38.1001 71.1562V67.5894C39.3176 68.6325 40.7961 69.4737 42.3941 70.1579C46.2533 71.8179 51.3626 72.7713 56.8524 72.7713C62.3423 72.7713 67.4625 71.8291 71.3216 70.1579C72.0826 69.8327 72.811 69.4625 73.5067 69.0587C74.1046 68.711 74.659 68.3297 75.1917 67.9259C75.333 67.8138 75.4743 67.6904 75.6157 67.5782V71.1449L75.6048 71.1674ZM78.7356 65.335C80.5076 64.8303 82.3013 64.3817 83.8232 63.7199C85.4104 63.0358 86.8888 62.1833 88.1063 61.1514V64.7181C88.1063 65.7724 87.6171 66.838 86.6496 67.8362C85.0625 69.4737 82.2578 70.8309 78.7139 71.7057C78.7139 71.5375 78.7356 71.358 78.7356 71.1674V65.335ZM56.8633 82.4507C62.3531 82.4507 67.4733 81.5086 71.3325 79.8374C72.9197 79.1532 74.3981 78.3008 75.6157 77.2689V80.8356C75.6157 85.2883 67.2124 88.8999 56.8633 88.8999C46.5142 88.8999 38.111 85.2883 38.111 80.8356V77.2689C39.3285 78.312 40.807 79.1532 42.405 79.8374C46.2642 81.4973 51.3735 82.4507 56.8633 82.4507Z" fill="#F41C5E"/>
</svg>
