<svg width="16" height="16" viewBox="0 0 16 16" fill="none" xmlns="http://www.w3.org/2000/svg">
<path d="M13.3333 4.33333C13.3333 4.70833 13.0354 5.05416 12.5333 5.33333C11.9271 5.66875 11.0229 5.90625 9.98541 5.97708C9.90832 5.93958 9.83124 5.90416 9.74999 5.87291C8.92916 5.52916 7.83749 5.33333 6.66666 5.33333C6.49374 5.33333 6.32499 5.3375 6.15624 5.34583L6.13332 5.33333C5.63124 5.05416 5.33332 4.70833 5.33332 4.33333C5.33332 3.4125 7.12499 2.66666 9.33332 2.66666C11.5417 2.66666 13.3333 3.4125 13.3333 4.33333ZM6.01457 6.02291C6.22707 6.00833 6.44582 6 6.66666 6C7.96249 6 9.11249 6.25625 9.84374 6.65416C10.3604 6.93541 10.6667 7.28541 10.6667 7.66666C10.6667 7.75 10.6521 7.83125 10.6229 7.91041C10.5271 8.18541 10.2687 8.4375 9.89374 8.65C9.89166 8.65208 9.88749 8.65208 9.88541 8.65416C9.87916 8.65833 9.87291 8.66041 9.86666 8.66458C9.13749 9.06875 7.97499 9.33125 6.66666 9.33125C5.42499 9.33125 4.31457 9.09583 3.57916 8.725C3.53957 8.70625 3.50207 8.68541 3.46457 8.66458C2.96457 8.3875 2.66666 8.04166 2.66666 7.66666C2.66666 6.94166 3.77916 6.32291 5.33332 6.09583C5.55207 6.06458 5.77916 6.03958 6.01457 6.02291ZM11.3333 7.66666C11.3333 7.21041 11.1125 6.83541 10.8312 6.55416C11.4208 6.4625 11.9604 6.31666 12.4187 6.12708C12.7583 5.98541 13.075 5.81041 13.3333 5.59583V6.33333C13.3333 6.73541 12.9896 7.10625 12.4208 7.39375C12.1167 7.54791 11.7458 7.67916 11.3292 7.77916C11.3312 7.74166 11.3333 7.70625 11.3333 7.66875V7.66666ZM10.6667 9.66666C10.6667 10.0417 10.3687 10.3875 9.86666 10.6667C9.82916 10.6875 9.79166 10.7062 9.75207 10.7271C9.01874 11.0979 7.90832 11.3333 6.66666 11.3333C5.35832 11.3333 4.19582 11.0708 3.46666 10.6667C2.96457 10.3875 2.66666 10.0417 2.66666 9.66666V8.92916C2.92707 9.14375 3.24166 9.31875 3.58124 9.46041C4.40416 9.80416 5.49582 10 6.66666 10C7.83749 10 8.92916 9.80416 9.75207 9.46041C9.91457 9.39375 10.0708 9.31666 10.2187 9.23333C10.3458 9.1625 10.4646 9.08333 10.5771 9C10.6083 8.97708 10.6375 8.95208 10.6667 8.92916V9V9.11875V9.66666ZM11.3333 9.66666V9V8.46041C11.7292 8.37291 12.0937 8.2625 12.4187 8.12708C12.7583 7.98541 13.075 7.81041 13.3333 7.59583V8.33333C13.3333 8.55208 13.2292 8.77083 13.0229 8.97708C12.6833 9.31666 12.0854 9.59583 11.3292 9.77708C11.3312 9.74166 11.3333 9.70416 11.3333 9.66666ZM6.66666 12C7.83749 12 8.92916 11.8042 9.75207 11.4604C10.0917 11.3187 10.4083 11.1437 10.6667 10.9292V11.6667C10.6667 12.5875 8.87499 13.3333 6.66666 13.3333C4.45832 13.3333 2.66666 12.5875 2.66666 11.6667V10.9292C2.92707 11.1437 3.24166 11.3187 3.58124 11.4604C4.40416 11.8042 5.49582 12 6.66666 12Z" fill="#F39325"/>
</svg>
