<svg width="40" height="40" viewBox="0 0 40 40" fill="none" xmlns="http://www.w3.org/2000/svg">
<g clip-path="url(#clip0_16575_2396)">
<g clip-path="url(#clip1_16575_2396)">
<path d="M19.9997 39.9995C31.0453 39.9995 39.9995 31.0453 39.9995 19.9997C39.9995 8.95419 31.0453 0 19.9997 0C8.95419 0 0 8.95419 0 19.9997C0 31.0453 8.95419 39.9995 19.9997 39.9995Z" fill="#EAEFF4"/>
<path opacity="0.2" d="M19.9997 40C28.8924 40 36.4286 34.1951 39.0287 26.169C33.3055 23.1052 26.7661 21.3677 19.8207 21.3677C12.8753 21.3677 6.56855 23.0438 0.918213 26.0066C3.4688 34.117 11.0472 40 19.9997 40Z" fill="#7CA5B9"/>
</g>
<path opacity="0.3" d="M19.6251 34.6753C24.7251 34.6753 28.8751 34.2753 28.8751 33.8003C28.8751 33.3253 24.7501 32.9253 19.6251 32.9253C14.5001 32.9253 10.3751 33.3253 10.3751 33.8003C10.3751 34.2753 14.5001 34.6753 19.6251 34.6753Z" fill="#7CA5B9"/>
<path d="M19.625 33.3C12.175 33.3 6.10004 27.225 6.10004 19.775C6.10004 12.325 12.175 6.25 19.625 6.25C27.075 6.25 33.15 12.325 33.15 19.775C33.125 27.25 27.075 33.3 19.625 33.3ZM19.625 8.675C13.5 8.675 8.50004 13.675 8.50004 19.8C8.50004 25.925 13.5 30.925 19.625 30.925C25.75 30.925 30.75 25.925 30.75 19.8C30.725 13.65 25.75 8.675 19.625 8.675Z" fill="white"/>
<path d="M31.925 21.8001C31.4 21.8001 30.875 21.6001 30.5 21.2251C30.125 20.8501 29.925 20.3501 29.925 19.8001C29.925 17.0751 28.825 14.4501 26.9 12.5001C24.975 10.5751 22.35 9.4751 19.6 9.4751C19.075 9.4751 18.55 9.2751 18.175 8.9001C17.8 8.5251 17.6 8.0251 17.6 7.4751C17.6 6.9251 17.8 6.4251 18.175 6.0501C18.55 5.6751 19.05 5.4751 19.6 5.4751C27.5 5.4751 33.925 11.9001 33.925 19.8001C33.925 20.3251 33.725 20.8501 33.35 21.2251C32.975 21.5751 32.475 21.8001 31.925 21.8001Z" fill="#8529A6"/>
<path opacity="0.1" d="M31.7751 21.7752C30.8251 28.1002 25.5251 33.0002 19.0001 33.2752C19.2001 33.2752 19.4001 33.3002 19.6001 33.3002C26.5001 33.3002 32.2001 28.1252 33.0251 21.4502C32.7001 21.6752 32.3251 21.7752 31.9251 21.7752C31.8751 21.8002 31.8251 21.8002 31.7751 21.7752Z" fill="#333333"/>
<path opacity="0.2" d="M33.55 20.95C33.575 20.925 33.6 20.9 33.6 20.875V20.85C33.625 20.825 33.625 20.8 33.65 20.75C33.675 20.725 33.7 20.675 33.7 20.65C33.725 20.625 33.725 20.6 33.75 20.55V20.525C33.75 20.5 33.775 20.475 33.775 20.45V20.425C33.775 20.4 33.8 20.35 33.8 20.325C33.8 20.3 33.825 20.25 33.825 20.2V20.175C33.825 20.15 33.825 20.125 33.85 20.1V20.05C33.85 20.025 33.85 20 33.85 19.975V19.95C33.85 19.9 33.85 19.875 33.85 19.825C33.85 11.925 27.425 5.5 19.525 5.5C19.475 5.5 19.425 5.5 19.375 5.5C19.325 5.5 19.275 5.5 19.225 5.525C26.725 5.975 32.675 12.2 32.675 19.8C32.675 20.125 32.6 20.45 32.425 20.75C32.275 21.05 32.05 21.3 31.75 21.475C31.725 21.575 31.725 21.7 31.7 21.8C31.75 21.8 31.8 21.8 31.85 21.8C32.25 21.8 32.625 21.675 32.95 21.475C33.025 21.425 33.075 21.375 33.15 21.325C33.175 21.3 33.2 21.275 33.225 21.25C33.4 21.15 33.475 21.05 33.55 20.95Z" fill="#333333"/>
<path d="M19.625 24.6C19.625 24.6 16.575 21.25 15.625 20.075C15.125 19.5 14.85 18.75 14.825 17.975C14.8 17.225 15.05 16.475 15.575 15.925C16.075 15.375 16.8 15.025 17.55 15C17.95 15 18.35 15.1 18.725 15.3C19.075 15.475 19.4 15.75 19.65 16.075C19.9 15.75 20.2 15.475 20.575 15.3C20.925 15.125 21.325 15.025 21.75 15C22.5 15.025 23.2 15.375 23.725 15.925C24.225 16.475 24.5 17.225 24.475 17.975C24.475 18.75 24.175 19.5 23.675 20.075C22.65 21.225 19.625 24.6 19.625 24.6Z" fill="#F41C5E"/>
<path opacity="0.2" d="M20.525 15.2751C20.175 15.4501 19.85 15.7251 19.6 16.0501C21.8 15.8251 24.875 17.2251 19.6 24.5751C19.6 24.5751 22.65 21.2251 23.6 20.0501C24.1 19.4751 24.4 18.7251 24.4 17.9501C24.425 17.2001 24.175 16.4501 23.65 15.9001C23.15 15.3501 22.425 15.0001 21.675 14.9751C21.3 15.0001 20.9 15.1001 20.525 15.2751Z" fill="#333333"/>
</g>
<defs>
<clipPath id="clip0_16575_2396">
<rect width="40" height="40" fill="white"/>
</clipPath>
<clipPath id="clip1_16575_2396">
<rect width="40" height="40" fill="white"/>
</clipPath>
</defs>
</svg>
