<svg width="90" height="90" viewBox="0 0 90 90" fill="none" xmlns="http://www.w3.org/2000/svg">
<g clip-path="url(#clip0_23594_15154)">
<g clip-path="url(#clip1_23594_15154)">
<path d="M44.9994 89.9988C69.8519 89.9988 89.9988 69.8519 89.9988 44.9994C89.9988 20.1469 69.8519 0 44.9994 0C20.1469 0 0 20.1469 0 44.9994C0 69.8519 20.1469 89.9988 44.9994 89.9988Z" fill="#EAEFF4"/>
<path opacity="0.2" d="M44.9994 89.9999C65.0079 89.9999 81.9644 76.9388 87.8145 58.8802C74.9373 51.9866 60.2236 48.0771 44.5965 48.0771C28.9693 48.0771 14.7792 51.8484 2.06592 58.5148C7.80474 76.7631 24.8561 89.9999 44.9994 89.9999Z" fill="#7CA5B9"/>
</g>
<path opacity="0.3" d="M44.1562 78.0195C55.6312 78.0195 64.9687 77.1195 64.9687 76.0508C64.9687 74.982 55.6875 74.082 44.1562 74.082C32.625 74.082 23.3438 74.982 23.3438 76.0508C23.3438 77.1195 32.625 78.0195 44.1562 78.0195Z" fill="#7CA5B9"/>
<path d="M44.1563 74.926C27.3938 74.926 13.7251 61.2572 13.7251 44.4947C13.7251 27.7322 27.3938 14.0635 44.1563 14.0635C60.9188 14.0635 74.5876 27.7322 74.5876 44.4947C74.5313 61.3135 60.9188 74.926 44.1563 74.926ZM44.1563 19.5197C30.3751 19.5197 19.1251 30.7697 19.1251 44.551C19.1251 58.3322 30.3751 69.5822 44.1563 69.5822C57.9376 69.5822 69.1876 58.3322 69.1876 44.551C69.1313 30.7135 57.9376 19.5197 44.1563 19.5197Z" fill="white"/>
<path d="M71.8313 49.0506C70.6501 49.0506 69.4688 48.6006 68.6251 47.7568C67.7813 46.9131 67.3313 45.7881 67.3313 44.5506C67.3313 38.4193 64.8563 32.5131 60.5251 28.1256C56.1938 23.7943 50.2876 21.3193 44.1001 21.3193C42.9188 21.3193 41.7376 20.8693 40.8938 20.0256C40.0501 19.1818 39.6001 18.0568 39.6001 16.8193C39.6001 15.5818 40.0501 14.4568 40.8938 13.6131C41.7376 12.7693 42.8626 12.3193 44.1001 12.3193C61.8751 12.3193 76.3313 26.7756 76.3313 44.5506C76.3313 45.7318 75.8813 46.9131 75.0376 47.7568C74.1938 48.5443 73.0688 49.0506 71.8313 49.0506Z" fill="#8529A6"/>
<path opacity="0.1" d="M71.4938 48.9939C69.3563 63.2252 57.4313 74.2502 42.75 74.8689C43.2 74.8689 43.65 74.9252 44.1 74.9252C59.625 74.9252 72.45 63.2814 74.3063 48.2627C73.575 48.7689 72.7313 48.9939 71.8313 48.9939C71.7188 49.0502 71.6063 49.0502 71.4938 48.9939Z" fill="#333333"/>
<path opacity="0.2" d="M75.4876 47.1385C75.5438 47.0822 75.6001 47.026 75.6001 46.9697V46.9135C75.6563 46.8572 75.6564 46.801 75.7126 46.6885C75.7689 46.6322 75.8251 46.5197 75.8251 46.4635C75.8814 46.4072 75.8814 46.351 75.9376 46.2385V46.1822C75.9376 46.126 75.9939 46.0697 75.9939 46.0135V45.9572C75.9939 45.901 76.0501 45.7885 76.0501 45.7322C76.0501 45.676 76.1064 45.5635 76.1064 45.451V45.3947C76.1064 45.3385 76.1063 45.2822 76.1626 45.226V45.1135C76.1626 45.0572 76.1626 45.001 76.1626 44.9447V44.8885C76.1626 44.776 76.1626 44.7197 76.1626 44.6072C76.1626 26.8322 61.7063 12.376 43.9313 12.376C43.8188 12.376 43.7063 12.376 43.5938 12.376C43.4813 12.376 43.3688 12.376 43.2563 12.4322C60.1313 13.4447 73.5188 27.451 73.5188 44.551C73.5188 45.2822 73.3501 46.0135 72.9563 46.6885C72.6188 47.3635 72.1126 47.926 71.4376 48.3197C71.3813 48.5447 71.3814 48.826 71.3251 49.051C71.4376 49.051 71.5501 49.051 71.6626 49.051C72.5626 49.051 73.4064 48.7697 74.1376 48.3197C74.3064 48.2072 74.4189 48.0947 74.5876 47.9822C74.6439 47.926 74.7001 47.8697 74.7563 47.8135C75.1501 47.5885 75.3188 47.3635 75.4876 47.1385Z" fill="#333333"/>
<path d="M44.1564 55.351C44.1564 55.351 37.2939 47.8135 35.1564 45.1697C34.0314 43.876 33.4126 42.1885 33.3564 40.4447C33.3001 38.7572 33.8626 37.0697 35.0439 35.8322C36.1689 34.5947 37.8001 33.8072 39.4876 33.751C40.3876 33.751 41.2876 33.976 42.1314 34.426C42.9189 34.8197 43.6501 35.4385 44.2126 36.1697C44.7751 35.4385 45.4501 34.8197 46.2939 34.426C47.0814 34.0322 47.9814 33.8072 48.9376 33.751C50.6251 33.8072 52.2001 34.5947 53.3814 35.8322C54.5064 37.0697 55.1251 38.7572 55.0689 40.4447C55.0689 42.1885 54.3939 43.876 53.2689 45.1697C50.9626 47.7572 44.1564 55.351 44.1564 55.351Z" fill="#F41C5E"/>
<path opacity="0.2" d="M46.1813 34.3693C45.3938 34.7631 44.6626 35.3818 44.1001 36.1131C49.0501 35.6068 55.9689 38.7568 44.1001 55.2943C44.1001 55.2943 50.9626 47.7568 53.1001 45.1131C54.2251 43.8193 54.9001 42.1318 54.9001 40.3881C54.9563 38.7006 54.3938 37.0131 53.2126 35.7756C52.0876 34.5381 50.4563 33.7506 48.7688 33.6943C47.9251 33.7506 47.0251 33.9756 46.1813 34.3693Z" fill="#333333"/>
</g>
<defs>
<clipPath id="clip0_23594_15154">
<rect width="90" height="90" fill="white"/>
</clipPath>
<clipPath id="clip1_23594_15154">
<rect width="90" height="90" fill="white"/>
</clipPath>
</defs>
</svg>
