<svg width="40" height="40" viewBox="0 0 40 40" fill="none" xmlns="http://www.w3.org/2000/svg">
<g clip-path="url(#clip0_16575_443)">
<g clip-path="url(#clip1_16575_443)">
<path d="M19.9997 39.9995C31.0453 39.9995 39.9995 31.0453 39.9995 19.9997C39.9995 8.95419 31.0453 0 19.9997 0C8.95419 0 0 8.95419 0 19.9997C0 31.0453 8.95419 39.9995 19.9997 39.9995Z" fill="#EAEFF4"/>
<path opacity="0.2" d="M19.9997 40C28.8924 40 36.4286 34.1951 39.0287 26.169C33.3055 23.1052 26.7661 21.3677 19.8207 21.3677C12.8753 21.3677 6.56855 23.0438 0.918213 26.0066C3.4688 34.117 11.0472 40 19.9997 40Z" fill="#7CA5B9"/>
</g>
<path opacity="0.3" d="M19.6076 34.5903C24.7089 34.5903 28.8469 34.1979 28.8469 33.6985C28.8469 33.199 24.7089 32.8066 19.6076 32.8066C14.5064 32.8066 10.3683 33.199 10.3683 33.6985C10.3683 34.1979 14.5064 34.5903 19.6076 34.5903Z" fill="#7CA5B9"/>
<path fill-rule="evenodd" clip-rule="evenodd" d="M21.0702 15.0059C21.0702 15.7194 21.6767 16.2902 22.4615 16.2902C22.8182 16.2902 23.1749 16.1475 23.4246 15.8978C23.5673 15.7907 23.6387 15.6481 23.71 15.4697C23.7814 15.327 23.8171 15.1486 23.8171 14.9703C23.8171 14.2568 23.2106 13.686 22.4258 13.686C21.6767 13.7217 21.0702 14.2925 21.0702 15.0059ZM19.6076 17.289L18.3591 16.3615C18.3234 16.3258 18.2877 16.3258 18.2521 16.3258C18.2164 16.3258 18.1807 16.3615 18.145 16.3615L17.0392 17.396C16.8965 17.5031 16.7181 17.5744 16.5397 17.5744C16.3614 17.5744 16.183 17.5031 16.0403 17.396C15.969 17.3247 15.9333 17.2533 15.8976 17.182C15.862 17.1107 15.8263 17.0036 15.8263 16.9323C15.8263 16.8609 15.8263 16.7539 15.862 16.6826C15.8976 16.6112 15.9333 16.5399 16.0046 16.4685L17.0748 15.541C17.3602 15.2913 17.717 15.113 18.1094 15.0773C18.5018 15.0416 18.8942 15.1486 19.1796 15.3983L23.2106 18.3235L23.2463 18.3592C23.2463 18.3592 23.282 18.3592 23.3176 18.3592C23.3533 18.3592 23.3533 18.3592 23.389 18.3592C23.4246 18.3592 23.4246 18.3235 23.4246 18.3235L24.3165 17.4674C24.4592 17.3247 24.6375 17.2533 24.8159 17.2533C24.9943 17.2533 25.1726 17.3247 25.3153 17.4674C25.4223 17.5744 25.4937 17.7171 25.5294 17.8955C25.565 18.0738 25.4937 18.2165 25.4223 18.3592L25.3867 18.3949L24.4948 19.251L24.5305 19.2154L24.4235 19.3224C24.0668 19.6434 23.7814 19.7861 23.4246 19.7861C23.3176 19.7861 23.2106 19.7505 23.1036 19.7148C22.9252 19.6434 22.7469 19.5364 22.5685 19.4294L22.5328 19.3937L22.3545 19.2867L21.427 18.6089L20.1071 20.2142L22.6398 21.6411C22.7469 21.6768 22.8182 21.7482 22.8539 21.8552C22.9252 21.9265 22.9609 22.0335 22.9966 22.1406C22.9966 22.2476 22.9966 22.3189 22.9966 22.4259C22.9609 22.533 22.9252 22.6043 22.8896 22.6757L20.8562 25.1014C20.7848 25.2084 20.6778 25.2798 20.5708 25.3155C20.4638 25.3511 20.3568 25.3868 20.2141 25.3868C20.0714 25.3868 19.9287 25.3155 19.786 25.2441C19.7146 25.2084 19.6433 25.1371 19.6076 25.1014C19.572 25.0301 19.5363 24.9587 19.5006 24.8874C19.4649 24.7804 19.4649 24.6733 19.5006 24.602C19.5363 24.495 19.572 24.4236 19.6433 24.3166L21.1772 22.4973L18.5018 20.9277L14.8988 25.4582C14.8274 25.5652 14.7204 25.6365 14.6134 25.6722C14.5064 25.7079 14.3994 25.7435 14.2567 25.7079C14.114 25.7079 14.007 25.6365 13.8643 25.6008L13.8286 25.5652C13.7572 25.5295 13.7216 25.4582 13.6502 25.3868C13.6146 25.3155 13.5789 25.2441 13.5789 25.1371C13.5432 25.0657 13.5432 24.9587 13.5789 24.8874C13.6146 24.816 13.6502 24.709 13.6859 24.6377L19.6076 17.289Z" fill="#F41C5E"/>
<path opacity="0.2" d="M19.5719 24.4594C19.5363 24.6021 19.5006 24.7091 19.5363 24.8518C19.5363 24.9231 19.5719 24.9945 19.6433 25.0658C19.679 25.1372 19.7503 25.1728 19.8216 25.2085C19.9643 25.2799 20.0714 25.3155 20.2497 25.3512C20.3567 25.3512 20.4994 25.3512 20.6065 25.2799C20.7135 25.2442 20.8205 25.1728 20.8918 25.0658L22.9252 22.64C22.9965 22.5687 23.0322 22.4617 23.0322 22.3903C23.0679 22.2833 23.0679 22.212 23.0322 22.1049C22.9965 21.9979 22.9609 21.9266 22.8895 21.8196C22.8182 21.7482 22.7468 21.6769 22.6755 21.6055L22.5328 21.5342C21.8193 22.7827 20.8205 23.7816 19.5719 24.4594Z" fill="#333333"/>
<path opacity="0.2" d="M23.4246 15.8978C23.5673 15.7907 23.6387 15.6481 23.71 15.4697C23.7814 15.327 23.817 15.1486 23.817 14.9703C23.817 14.2568 23.2106 13.686 22.4258 13.686C22.3901 13.686 22.3188 13.686 22.2831 13.686C22.7468 14.3995 23.0679 15.1486 23.2819 15.9691C23.3533 16.0048 23.3889 15.9691 23.4246 15.8978Z" fill="#333333"/>
<path opacity="0.2" d="M25.3866 17.3957C25.2439 17.253 25.0656 17.1816 24.8872 17.1816C24.7088 17.1816 24.5305 17.253 24.3878 17.3957L23.5316 18.2162C23.496 18.7513 23.4246 19.2507 23.2819 19.7501C23.3533 19.7501 23.3889 19.7858 23.4603 19.7858C23.817 19.7858 24.0667 19.6431 24.4591 19.322L24.5662 19.215L24.6018 19.1793L25.4937 18.3232L25.5293 18.2875C25.6363 18.1448 25.672 18.0021 25.6363 17.8238C25.565 17.6454 25.4937 17.5027 25.3866 17.3957Z" fill="#333333"/>
<path d="M19.6076 33.2345C12.1519 33.2345 6.08752 27.1701 6.08752 19.7144C6.08752 12.2588 12.1519 6.19434 19.6076 6.19434C27.0633 6.19434 33.1277 12.2588 33.1277 19.7144C33.1277 27.1701 27.0633 33.2345 19.6076 33.2345ZM19.6076 8.6201C13.4719 8.6201 8.51329 13.6143 8.51329 19.7144C8.51329 25.8145 13.5075 30.8088 19.6076 30.8088C25.7077 30.8088 30.7019 25.8145 30.7019 19.7144C30.7019 13.6143 25.7434 8.6201 19.6076 8.6201Z" fill="white"/>
<path d="M31.9148 21.7123C31.3797 21.7123 30.8803 21.4982 30.4879 21.1415C30.0955 20.7491 29.9171 20.2497 29.9171 19.7146C29.9171 16.9677 28.8113 14.3636 26.8849 12.4373C24.9586 10.5109 22.3188 9.40505 19.6076 9.40505C19.0725 9.40505 18.5731 9.19101 18.1807 8.83428C17.7883 8.44188 17.6099 7.94246 17.6099 7.40736C17.6099 6.87226 17.824 6.37284 18.1807 5.98044C18.5731 5.58803 19.0725 5.40967 19.6076 5.40967C27.4914 5.40967 33.9125 11.8308 33.9125 19.7146C33.9125 20.2497 33.6985 20.7491 33.3418 21.1415C32.9493 21.4982 32.4499 21.7123 31.9148 21.7123Z" fill="#8529A6"/>
<path opacity="0.1" d="M31.7722 21.7122C30.8447 28.0263 25.5294 32.9135 19.0369 33.1989C19.2509 33.1989 19.4293 33.1989 19.6433 33.1989C26.5282 33.1989 32.2359 28.0263 33.0564 21.3555C32.7353 21.5695 32.3429 21.6765 31.9505 21.6765C31.8792 21.7122 31.8078 21.7122 31.7722 21.7122Z" fill="#333333"/>
<path opacity="0.2" d="M33.5558 20.8917C33.5915 20.8561 33.5915 20.8204 33.6272 20.8204C33.6628 20.7847 33.6628 20.749 33.6985 20.7134C33.7342 20.6777 33.7342 20.642 33.7699 20.6063C33.7699 20.5707 33.8055 20.535 33.8055 20.4993V20.4636C33.8055 20.428 33.8412 20.3923 33.8412 20.3923V20.3566C33.8412 20.321 33.8769 20.2853 33.8769 20.2496C33.8769 20.2139 33.8769 20.1783 33.9126 20.1426V20.1069C33.9126 20.0712 33.9126 20.0356 33.9126 20.0356V19.9999C33.9126 19.9642 33.9126 19.9286 33.9126 19.9286V19.8929C33.9126 19.8572 33.9126 19.8215 33.9126 19.7859C33.9126 11.9021 27.4914 5.48096 19.6077 5.48096C19.5363 5.48096 19.5006 5.48096 19.465 5.48096C19.3936 5.48096 19.3579 5.48096 19.3223 5.51663C26.8136 5.94471 32.771 12.1875 32.771 19.7859C32.771 20.1069 32.6997 20.428 32.5213 20.749C32.3786 21.0344 32.1289 21.2841 31.8435 21.4625C31.8435 21.5695 31.8078 21.6765 31.8078 21.7836C31.8435 21.7836 31.9149 21.7836 31.9505 21.7836C32.3429 21.7836 32.7353 21.6765 33.0564 21.4625C33.1277 21.4268 33.1991 21.3555 33.2348 21.3198C33.2704 21.2841 33.3061 21.2841 33.3061 21.2485C33.3775 21.0701 33.4488 20.9987 33.5558 20.8917Z" fill="#333333"/>
</g>
<defs>
<clipPath id="clip0_16575_443">
<rect width="40" height="40" fill="white"/>
</clipPath>
<clipPath id="clip1_16575_443">
<rect width="40" height="40" fill="white"/>
</clipPath>
</defs>
</svg>
