<svg width="84" height="88" viewBox="0 0 84 88" fill="none" xmlns="http://www.w3.org/2000/svg">
<ellipse cx="41" cy="41.4853" rx="38.3333" ry="38.3333" fill="white"/>
<rect x="17.3333" y="59.6667" width="46" height="12" fill="white"/>
<circle cx="42" cy="41.9565" r="41.0435" fill="white"/>
<path d="M42.0881 76.3914C41.5274 76.3914 41.0718 75.94 41.0667 75.3792C41.0616 74.8154 41.5151 74.3537 42.0789 74.3486C42.4129 74.3455 42.7459 74.3384 43.0779 74.3251C43.6407 74.2944 44.1157 74.7439 44.1371 75.3067C44.1586 75.8695 43.7194 76.3455 43.1555 76.3669C42.8041 76.3802 42.4518 76.3884 42.0973 76.3914C42.0943 76.3914 42.0912 76.3914 42.0881 76.3914ZM37.982 76.179C37.9442 76.179 37.9054 76.1769 37.8655 76.1729C37.5131 76.133 37.1628 76.0881 36.8155 76.037C36.2568 75.9563 35.8696 75.4384 35.9503 74.8797C36.03 74.322 36.554 73.94 37.1066 74.0146C37.4345 74.0615 37.7654 74.1044 38.0974 74.1422C38.6582 74.2056 39.0596 74.7122 38.9963 75.2719C38.936 75.7939 38.4947 76.179 37.982 76.179ZM47.2096 75.9594C46.7183 75.9594 46.2842 75.6039 46.2025 75.1024C46.1115 74.5457 46.4895 74.0207 47.0462 73.9298C47.3751 73.8756 47.705 73.8174 48.0308 73.7551C48.5906 73.6468 49.1197 74.0105 49.2269 74.5641C49.3342 75.1177 48.9716 75.654 48.4179 75.7602C48.0717 75.8266 47.7244 75.8879 47.3751 75.9451C47.3189 75.9553 47.2647 75.9594 47.2096 75.9594ZM32.932 75.2107C32.8421 75.2107 32.7522 75.1984 32.6623 75.1739C32.3202 75.0809 31.9811 74.9819 31.6419 74.8787C31.1036 74.7132 30.8003 74.1412 30.9658 73.6019C31.1312 73.0636 31.6971 72.7602 32.2425 72.9247C32.5602 73.0228 32.8789 73.1147 33.1996 73.2015C33.744 73.3506 34.0658 73.9114 33.9167 74.4558C33.7931 74.9124 33.3814 75.2107 32.932 75.2107ZM52.2075 74.751C51.7764 74.751 51.377 74.4763 51.2361 74.0442C51.0614 73.5079 51.3556 72.9318 51.8929 72.7572C52.2095 72.654 52.5231 72.5468 52.8356 72.4344C53.3647 72.2454 53.9521 72.5192 54.142 73.0493C54.3341 73.5805 54.0583 74.1657 53.5271 74.3567C53.1952 74.4763 52.8612 74.5907 52.5231 74.701C52.4179 74.7347 52.3116 74.751 52.2075 74.751ZM28.0884 73.4773C27.9495 73.4773 27.8085 73.4487 27.6727 73.3874C27.3489 73.2424 27.0271 73.0932 26.7094 72.938C26.2018 72.6918 25.9904 72.081 26.2365 71.5733C26.4817 71.0647 27.0945 70.8532 27.6012 71.1004C27.9015 71.2455 28.2028 71.3864 28.5072 71.5233C29.023 71.7541 29.2528 72.3578 29.023 72.8726C28.8514 73.2516 28.4796 73.4773 28.0884 73.4773ZM56.9602 72.7868C56.5884 72.7868 56.2288 72.5825 56.048 72.2281C55.7927 71.7245 55.9929 71.1106 56.4954 70.8543C56.7916 70.7041 57.0868 70.5488 57.3779 70.3905C57.8754 70.1188 58.4944 70.3037 58.763 70.7981C59.0337 71.2935 58.8509 71.9135 58.3555 72.1831C58.046 72.3517 57.7355 72.5151 57.4208 72.6744C57.2738 72.7521 57.1154 72.7868 56.9602 72.7868ZM23.5675 71.0207C23.3765 71.0207 23.1855 70.9676 23.0139 70.8563C22.7167 70.6643 22.4235 70.4682 22.1314 70.2669C21.6677 69.9462 21.5512 69.3098 21.8709 68.8461C22.1906 68.3814 22.826 68.2649 23.2928 68.5857C23.5675 68.7756 23.8443 68.9615 24.1232 69.1423C24.5971 69.4488 24.733 70.081 24.4265 70.555C24.2304 70.8563 23.9025 71.0207 23.5675 71.0207ZM61.3523 70.1229C61.0337 70.1229 60.7201 69.9748 60.5209 69.6959C60.193 69.2373 60.2982 68.5989 60.7568 68.271C61.0275 68.077 61.2941 67.8798 61.5577 67.6776C62.0081 67.3354 62.6475 67.4222 62.9897 67.8696C63.3319 68.318 63.2461 68.9585 62.7977 69.3017C62.5168 69.5152 62.2328 69.7266 61.9448 69.9319C61.766 70.0606 61.5577 70.1229 61.3523 70.1229ZM19.4767 67.9054C19.2356 67.9054 18.9925 67.8206 18.7984 67.648C18.5329 67.413 18.2714 67.173 18.015 66.9289C17.6064 66.5407 17.5891 65.8942 17.9782 65.4846C18.3654 65.076 19.0129 65.0586 19.4215 65.4468C19.6616 65.6756 19.9077 65.8993 20.1549 66.1199C20.5768 66.4948 20.6146 67.1413 20.2397 67.5622C20.0374 67.7889 19.7576 67.9054 19.4767 67.9054ZM65.29 66.8186C65.0244 66.8186 64.7588 66.7154 64.5596 66.5111C64.1643 66.1077 64.1725 65.4611 64.576 65.0668C64.813 64.8339 65.0479 64.599 65.2777 64.359C65.6679 63.9524 66.3145 63.9392 66.722 64.3293C67.1285 64.7206 67.1418 65.3671 66.7516 65.7736C66.5065 66.029 66.2583 66.2803 66.005 66.5275C65.8058 66.7215 65.5474 66.8186 65.29 66.8186ZM15.9068 64.2057C15.6126 64.2057 15.3215 64.0791 15.1192 63.836C14.8945 63.5643 14.6729 63.2885 14.4563 63.0097C14.1101 62.5643 14.1908 61.9228 14.6371 61.5766C15.0825 61.2303 15.725 61.312 16.0702 61.7564C16.2735 62.0189 16.4808 62.2783 16.6933 62.5337C17.0528 62.9678 16.9926 63.6123 16.5574 63.9718C16.3664 64.1281 16.1356 64.2057 15.9068 64.2057ZM68.6811 62.9545C68.4676 62.9545 68.2521 62.8881 68.0672 62.7492C67.6168 62.4101 67.5269 61.7696 67.866 61.3192C68.0652 61.0536 68.2623 60.785 68.4523 60.5133C68.7771 60.0526 69.4135 59.9402 69.8762 60.2651C70.3389 60.5899 70.4492 61.2262 70.1244 61.6879C69.9201 61.978 69.7117 62.264 69.4983 62.548C69.297 62.8135 68.9906 62.9545 68.6811 62.9545ZM12.9416 60.0087C12.5932 60.0087 12.2552 59.831 12.0641 59.5112C11.8834 59.2089 11.7056 58.9025 11.534 58.594C11.2593 58.1017 11.437 57.4796 11.9303 57.2049C12.4247 56.9291 13.0457 57.1078 13.3195 57.6001C13.4809 57.8902 13.6463 58.1773 13.8169 58.4622C14.106 58.9464 13.9487 59.5736 13.4635 59.8636C13.3011 59.9627 13.1203 60.0087 12.9416 60.0087ZM71.4461 58.6185C71.2837 58.6185 71.1183 58.5797 70.963 58.497C70.4666 58.2304 70.2797 57.6104 70.5473 57.1139C70.7046 56.8208 70.8568 56.5256 71.0039 56.2273C71.2551 55.7228 71.866 55.5134 72.3726 55.7657C72.8782 56.0159 73.0855 56.6288 72.8353 57.1344C72.678 57.4531 72.5146 57.7687 72.346 58.0812C72.1622 58.4234 71.8098 58.6185 71.4461 58.6185ZM10.6495 55.4112C10.246 55.4112 9.86296 55.1702 9.70259 54.7728C9.56981 54.446 9.44213 54.116 9.31956 53.7841C9.12344 53.255 9.3931 52.6676 9.9222 52.4715C10.4493 52.2754 11.0396 52.5451 11.2347 53.0742C11.3512 53.3878 11.4707 53.6973 11.5963 54.0057C11.8078 54.5287 11.5565 55.1242 11.0325 55.3356C10.9069 55.3867 10.7771 55.4112 10.6495 55.4112ZM73.5176 53.9087C73.4063 53.9087 73.2919 53.8893 73.1805 53.8505C72.6484 53.6635 72.3675 53.0813 72.5544 52.5492C72.6637 52.2346 72.7699 51.9179 72.87 51.5992C73.0406 51.0609 73.6167 50.7617 74.1519 50.9322C74.6902 51.1018 74.9885 51.6758 74.8189 52.2131C74.7117 52.5522 74.5993 52.8893 74.4818 53.2233C74.3347 53.6452 73.9395 53.9087 73.5176 53.9087ZM9.09178 50.5114C8.62907 50.5114 8.21028 50.1948 8.09792 49.7249C8.01723 49.3807 7.94062 49.0344 7.87014 48.6851C7.75983 48.1315 8.11733 47.5942 8.66992 47.4829C9.22354 47.3746 9.76081 47.73 9.87317 48.2837C9.93854 48.6095 10.01 48.9333 10.0867 49.2561C10.2164 49.8046 9.87624 50.3551 9.32773 50.4848C9.24805 50.5022 9.1694 50.5114 9.09178 50.5114ZM74.8404 48.9364C74.7781 48.9364 74.7157 48.9312 74.6514 48.919C74.0968 48.8158 73.7321 48.2816 73.8343 47.727C73.8955 47.4011 73.9497 47.0743 74.0007 46.7454C74.0855 46.1887 74.6075 45.8016 75.1642 45.8894C75.7219 45.9742 76.1059 46.4962 76.0201 47.0539C75.967 47.4052 75.9088 47.7546 75.8434 48.1018C75.7515 48.5942 75.3225 48.9364 74.8404 48.9364ZM8.30221 45.4318C7.77413 45.4318 7.32776 45.0263 7.28486 44.4911C7.25728 44.1397 7.23583 43.7873 7.21847 43.4339C7.19089 42.8701 7.625 42.391 8.18883 42.3634C8.73734 42.3399 9.23171 42.77 9.25929 43.3338C9.27563 43.6678 9.29606 43.9998 9.32262 44.3317C9.36654 44.8935 8.94673 45.3859 8.38494 45.4308C8.35634 45.4308 8.32979 45.4318 8.30221 45.4318ZM75.3838 43.8241C75.3715 43.8241 75.3613 43.8241 75.3501 43.8241C74.7862 43.8057 74.3439 43.3348 74.3623 42.77C74.3725 42.439 74.3777 42.1071 74.3777 41.7731L74.3766 41.6413C74.3766 41.0775 74.8332 40.6199 75.3981 40.6199C75.9629 40.6199 76.4195 41.0775 76.4195 41.6413L76.4205 41.7496C76.4205 42.1285 76.4154 42.4819 76.4032 42.8353C76.3858 43.389 75.9323 43.8241 75.3838 43.8241ZM8.29404 40.2899C8.26952 40.2899 8.24399 40.2889 8.21947 40.2879C7.65666 40.247 7.23379 39.7578 7.27465 39.195C7.30018 38.8405 7.33185 38.4881 7.36964 38.1368C7.42786 37.576 7.9253 37.1705 8.49322 37.2277C9.05398 37.2869 9.46051 37.7895 9.40127 38.3512C9.36756 38.6802 9.33692 39.0111 9.31241 39.3431C9.27257 39.8803 8.82518 40.2899 8.29404 40.2899ZM75.1335 38.5576C74.6269 38.5576 74.1877 38.1817 74.1213 37.6659C74.0794 37.3339 74.0324 37.004 73.9803 36.6741C73.8935 36.1174 74.2745 35.5944 74.8322 35.5076C75.395 35.4177 75.9139 35.8028 75.9997 36.3584C76.0538 36.7057 76.1029 37.054 76.1488 37.4044C76.2203 37.9641 75.826 38.4759 75.2663 38.5474C75.2203 38.5545 75.1764 38.5576 75.1335 38.5576ZM9.06318 35.2073C8.98657 35.2073 8.90894 35.1991 8.83029 35.1807C8.28178 35.053 7.9396 34.5045 8.06728 33.955C8.14695 33.6108 8.23173 33.2676 8.32162 32.9274C8.46359 32.382 9.02436 32.0531 9.56878 32.1992C10.1142 32.3422 10.4411 32.9009 10.2971 33.4463C10.2133 33.7671 10.1326 34.0909 10.057 34.4167C9.94876 34.8886 9.52691 35.2073 9.06318 35.2073ZM74.1008 33.5209C73.6555 33.5209 73.2469 33.2267 73.1192 32.7773C73.0283 32.4576 72.9313 32.1409 72.8312 31.8253C72.6586 31.288 72.9538 30.713 73.4911 30.5404C74.0304 30.3667 74.6034 30.665 74.776 31.2002C74.8843 31.5373 74.9874 31.8774 75.0845 32.2186C75.2377 32.7609 74.9231 33.3258 74.3807 33.48C74.2878 33.5086 74.1938 33.5209 74.1008 33.5209ZM10.6015 30.3003C10.4748 30.3003 10.3471 30.2768 10.2225 30.2268C9.69851 30.0174 9.44315 29.4229 9.65254 28.8989C9.78431 28.569 9.92118 28.2421 10.0632 27.9173C10.2889 27.4005 10.8915 27.1635 11.4074 27.3913C11.9252 27.617 12.1602 28.2197 11.9344 28.7365C11.8016 29.0409 11.6729 29.3483 11.5493 29.6578C11.391 30.0572 11.007 30.3003 10.6015 30.3003ZM72.3092 28.7028C71.9231 28.7028 71.5534 28.4832 71.3808 28.1093C71.2419 27.808 71.0978 27.5087 70.9497 27.2125C70.6974 26.7079 70.9027 26.0941 71.4073 25.8428C71.9119 25.5905 72.5258 25.7968 72.7771 26.3004C72.9344 26.616 73.0876 26.9337 73.2357 27.2544C73.4716 27.7661 73.249 28.3739 72.7362 28.6098C72.5973 28.6722 72.4522 28.7028 72.3092 28.7028ZM12.8782 25.6855C12.7005 25.6855 12.5207 25.6395 12.3573 25.5425C11.8721 25.2544 11.7128 24.6273 11.9998 24.1431C12.1806 23.8387 12.3655 23.5374 12.5544 23.2392C12.8558 22.7632 13.486 22.6212 13.964 22.9225C14.441 23.2238 14.582 23.8551 14.2807 24.3321C14.1019 24.613 13.9283 24.898 13.7577 25.185C13.5667 25.5067 13.2265 25.6855 12.8782 25.6855ZM69.8016 24.2197C69.4697 24.2197 69.1438 24.0583 68.9477 23.7611C68.7659 23.4853 68.578 23.2126 68.3859 22.9429C68.0601 22.4833 68.1673 21.8459 68.627 21.5191C69.0877 21.1922 69.724 21.3005 70.0519 21.7601C70.2572 22.0492 70.4574 22.3403 70.6535 22.6365C70.964 23.1074 70.8343 23.7417 70.3634 24.0522C70.1898 24.1656 69.9947 24.2197 69.8016 24.2197ZM15.8312 21.4741C15.6024 21.4741 15.3736 21.3975 15.1826 21.2412C14.7474 20.8827 14.6851 20.2392 15.0426 19.8031C15.2684 19.5303 15.4962 19.2607 15.728 18.9951C16.0998 18.5692 16.7454 18.5273 17.1693 18.897C17.5942 19.2678 17.6381 19.9134 17.2683 20.3383C17.0487 20.5896 16.8322 20.8439 16.6208 21.1013C16.4185 21.3475 16.1264 21.4741 15.8312 21.4741ZM66.6383 20.1698C66.3614 20.1698 66.0867 20.0584 65.8855 19.8378C65.6587 19.5906 65.4319 19.3485 65.1991 19.1085C64.8068 18.703 64.8181 18.0564 65.2225 17.6642C65.6281 17.272 66.2746 17.2832 66.6669 17.6877C66.911 17.941 67.1531 18.1974 67.391 18.4578C67.772 18.8736 67.7445 19.5201 67.3277 19.9011C67.1326 20.0809 66.8854 20.1698 66.6383 20.1698ZM19.3899 17.7622C19.11 17.7622 18.8311 17.6478 18.6299 17.4221C18.253 17.0023 18.2877 16.3567 18.7075 15.9798C18.9711 15.7439 19.2387 15.512 19.5083 15.2842C19.9404 14.9186 20.586 14.9768 20.9475 15.4078C21.3112 15.8389 21.256 16.4834 20.825 16.847C20.5706 17.0615 20.3194 17.2791 20.0722 17.5018C19.8761 17.6754 19.633 17.7622 19.3899 17.7622ZM62.8957 16.6438C62.67 16.6438 62.4443 16.5692 62.2553 16.417C61.9958 16.2076 61.7333 16.0023 61.4678 15.8011C61.0183 15.4599 60.9305 14.8195 61.2716 14.3701C61.6128 13.9206 62.2532 13.8328 62.7027 14.1739C62.9836 14.3874 63.2624 14.605 63.5372 14.8277C63.9764 15.1821 64.0448 15.8256 63.6904 16.2638C63.4892 16.514 63.194 16.6438 62.8957 16.6438ZM23.4695 14.6336C23.1365 14.6336 22.8096 14.4702 22.6135 14.1709C22.304 13.699 22.4368 13.0657 22.9097 12.7572C23.2049 12.5652 23.5032 12.3762 23.8055 12.1924C24.2927 11.8972 24.9179 12.0524 25.21 12.5335C25.5031 13.0156 25.3509 13.6438 24.8688 13.937C24.5849 14.1096 24.304 14.2863 24.0272 14.4681C23.8545 14.5795 23.6605 14.6336 23.4695 14.6336ZM58.6598 13.7266C58.4862 13.7266 58.3095 13.6826 58.1481 13.5887C57.8601 13.4212 57.569 13.2577 57.2758 13.0994C56.7794 12.8308 56.5945 12.2108 56.8631 11.7154C57.1328 11.2189 57.7528 11.0351 58.2472 11.3037C58.5587 11.4723 58.8672 11.6449 59.1736 11.8226C59.6619 12.1055 59.8284 12.7307 59.5444 13.2189C59.3554 13.5447 59.0122 13.7266 58.6598 13.7266ZM27.974 12.1648C27.5848 12.1648 27.213 11.9411 27.0424 11.5642C26.8095 11.0504 27.0383 10.4457 27.5521 10.2128C27.8729 10.0678 28.1966 9.92785 28.5215 9.792C29.0414 9.57648 29.6399 9.8206 29.8575 10.3426C30.0751 10.8635 29.8289 11.461 29.308 11.6786C29.0005 11.8063 28.6951 11.938 28.3938 12.0749C28.2569 12.1352 28.1149 12.1648 27.974 12.1648ZM54.0276 11.4917C53.9041 11.4917 53.7784 11.4692 53.6558 11.4212C53.3453 11.2996 53.0338 11.1832 52.7182 11.0708C52.186 10.8819 51.9092 10.2976 52.0982 9.76647C52.2871 9.23532 52.8724 8.95749 53.4025 9.14748C53.7376 9.26698 54.0695 9.39058 54.4005 9.51928C54.9265 9.72459 55.186 10.317 54.9796 10.842C54.8213 11.2445 54.4352 11.4917 54.0276 11.4917ZM32.8033 10.4151C32.3559 10.4151 31.9443 10.1178 31.8197 9.66534C31.6695 9.12092 31.9882 8.55913 32.5316 8.40898C32.8717 8.31501 33.2139 8.22512 33.5571 8.14137C34.1026 8.01062 34.6582 8.34361 34.792 8.89212C34.9258 9.43961 34.5898 9.99322 34.0423 10.126C33.7195 10.2047 33.3968 10.2884 33.0771 10.3773C32.9851 10.4028 32.8932 10.4151 32.8033 10.4151ZM49.1043 9.9922C49.0318 9.9922 48.9573 9.98505 48.8827 9.96871C48.5589 9.89721 48.2331 9.82979 47.9052 9.76749C47.3505 9.6633 46.9869 9.12909 47.0911 8.57445C47.1973 8.02084 47.7346 7.65516 48.2841 7.76037C48.6324 7.82574 48.9797 7.89724 49.324 7.97283C49.8745 8.09438 50.2228 8.63983 50.1013 9.19038C49.9961 9.66739 49.5732 9.9922 49.1043 9.9922ZM37.8482 9.42633C37.3364 9.42633 36.8952 9.04329 36.8349 8.5244C36.7695 7.96364 37.1699 7.45701 37.7307 7.39061C38.0811 7.34873 38.4334 7.31298 38.7869 7.28336C39.3405 7.23025 39.842 7.6521 39.891 8.21389C39.9401 8.77568 39.5233 9.27107 38.9605 9.31908C38.6285 9.34768 38.2986 9.38139 37.9677 9.4202C37.9278 9.42429 37.888 9.42633 37.8482 9.42633ZM44.0145 9.26801C43.9921 9.26801 43.9696 9.26801 43.9471 9.26596C43.6162 9.24451 43.2842 9.22715 42.9492 9.21591C42.3854 9.19548 41.9451 8.72358 41.9645 8.15975C41.9839 7.59592 42.4191 7.16386 43.0207 7.17407C43.3751 7.18633 43.7285 7.20369 44.0799 7.22718C44.6438 7.26498 45.0697 7.75118 45.0329 8.31297C44.9972 8.85433 44.5488 9.26801 44.0145 9.26801Z" fill="#DCDCDC"/>
<path d="M54.254 83.5277H34.5168C32.1348 83.5277 30.2033 81.5961 30.2033 79.2142V24.8096C30.2033 23.4338 31.3187 22.3194 32.6936 22.3194H57.0088C58.3846 22.3194 59.499 23.4348 59.499 24.8096V78.2816C59.499 81.1794 57.1507 83.5277 54.254 83.5277Z" fill="#F3F3F3"/>
<path fill-rule="evenodd" clip-rule="evenodd" d="M30.6711 20.6616C28.0523 20.6616 25.9287 22.7853 25.9287 25.4041V78.0896C25.9287 80.7084 28.0523 82.832 30.6711 82.832H54.0609C56.6806 82.832 58.8033 80.7085 58.8033 78.0896V25.4041C58.8033 22.7853 56.6797 20.6616 54.0609 20.6616H30.6711ZM24.5374 25.4041C24.5374 22.0169 27.2839 19.2703 30.6711 19.2703H54.0609C57.4481 19.2703 60.1946 22.0169 60.1946 25.4041V78.0896C60.1946 81.4767 57.4492 84.2233 54.0609 84.2233H30.6711C27.2839 84.2233 24.5374 81.4768 24.5374 78.0896V25.4041Z" fill="#999999"/>
<path fill-rule="evenodd" clip-rule="evenodd" d="M59.9025 29.4592H24.8306V28.0679H59.9025V29.4592Z" fill="#707070"/>
<path fill-rule="evenodd" clip-rule="evenodd" d="M36.152 24.7831C36.152 24.3989 36.4635 24.0874 36.8477 24.0874H47.8853C48.2695 24.0874 48.5809 24.3989 48.5809 24.7831C48.5809 25.1673 48.2695 25.4787 47.8853 25.4787H36.8477C36.4635 25.4787 36.152 25.1673 36.152 24.7831Z" fill="#707070"/>
<path fill-rule="evenodd" clip-rule="evenodd" d="M32.4055 79.8229C32.4055 79.4388 32.7169 79.1273 33.1011 79.1273H51.6319C52.0161 79.1273 52.3276 79.4388 52.3276 79.8229C52.3276 80.2071 52.0161 80.5186 51.6319 80.5186H33.1011C32.7169 80.5186 32.4055 80.2071 32.4055 79.8229Z" fill="#B8B8B8"/>
<path d="M20.846 42.7051C21.083 42.3558 21.4824 42.1464 21.9114 42.1464H29.5006C29.9286 42.1464 30.328 42.3558 30.566 42.7051L33.3851 46.5345H18.0269L20.846 42.7051Z" fill="white"/>
<path fill-rule="evenodd" clip-rule="evenodd" d="M21.9114 42.842C21.7083 42.842 21.5266 42.941 21.4217 43.0956L21.4142 43.1067L19.4028 45.8388H32.0091L29.9982 43.1073L29.991 43.0968C29.8846 42.9406 29.702 42.842 29.5006 42.842H21.9114ZM20.2787 42.3023C20.6486 41.7658 21.2613 41.4507 21.9114 41.4507H29.5006C30.1504 41.4507 30.7625 41.7664 31.1329 42.3018L34.7611 47.2301H16.6509L20.2787 42.3023Z" fill="#999999"/>
<path d="M20.846 71.678C21.083 72.0274 21.4824 72.2368 21.9114 72.2368H29.5006C29.9286 72.2368 30.328 72.0274 30.566 71.678L33.3851 67.8487H18.0269L20.846 71.678Z" fill="white"/>
<path fill-rule="evenodd" clip-rule="evenodd" d="M16.6509 67.153H34.7611L31.1329 72.0813C30.7625 72.6167 30.1504 72.9324 29.5006 72.9324H21.9114C21.2613 72.9324 20.6486 72.6174 20.2787 72.0809L16.6509 67.153ZM19.4028 68.5443L21.4142 71.2764L21.4217 71.2875C21.5266 71.4422 21.7083 71.5411 21.9114 71.5411H29.5006C29.702 71.5411 29.8846 71.4426 29.991 71.2864L29.9982 71.2759L32.0091 68.5443H19.4028Z" fill="#999999"/>
<path d="M33.3851 67.8487H18.0269C16.6193 67.8487 15.4672 66.72 15.4672 65.3411V49.0421C15.4672 47.6632 16.6193 46.5345 18.0269 46.5345H33.3851C34.7927 46.5345 35.9448 47.6632 35.9448 49.0421V65.3411C35.9448 66.72 34.7937 67.8487 33.3851 67.8487Z" fill="white"/>
<path fill-rule="evenodd" clip-rule="evenodd" d="M18.0268 47.2301C16.9899 47.2301 16.1628 48.0608 16.1628 49.0421V65.3411C16.1628 66.3224 16.9899 67.1531 18.0268 67.1531H33.3851C34.4228 67.1531 35.2492 66.3226 35.2492 65.3411V49.0421C35.2492 48.0608 34.422 47.2301 33.3851 47.2301H18.0268ZM14.7715 49.0421C14.7715 47.2655 16.2487 45.8388 18.0268 45.8388H33.3851C35.1633 45.8388 36.6405 47.2655 36.6405 49.0421V65.3411C36.6405 67.1175 35.1645 68.5444 33.3851 68.5444H18.0268C16.2487 68.5444 14.7715 67.1176 14.7715 65.3411V49.0421Z" fill="#707070"/>
<path d="M31.6343 50.9338V57.8284" stroke="#EBEBEB" stroke-width="2" stroke-miterlimit="10" stroke-linecap="round"/>
</svg>
