<svg width="120" height="120" viewBox="0 0 120 120" fill="none" xmlns="http://www.w3.org/2000/svg">
<circle cx="58.3706" cy="57.728" r="57.5" fill="white"/>
<path d="M22 9C22 6.79086 23.7909 5 26 5H88C90.2091 5 92 6.79086 92 9V88C92 90.2091 90.2091 92 88 92H26C23.7909 92 22 90.2091 22 88V9Z" fill="white"/>
<path fill-rule="evenodd" clip-rule="evenodd" d="M20.75 9C20.75 6.1005 23.1005 3.75 26 3.75H88C90.8995 3.75 93.25 6.10051 93.25 9V88C93.25 90.8995 90.8995 93.25 88 93.25H26C23.1005 93.25 20.75 90.8995 20.75 88V9ZM26 6.25C24.4812 6.25 23.25 7.48122 23.25 9V88C23.25 89.5188 24.4812 90.75 26 90.75H88C89.5188 90.75 90.75 89.5188 90.75 88V9C90.75 7.48122 89.5188 6.25 88 6.25H26Z" fill="#707070"/>
<path d="M12 19C12 16.7909 13.7909 15 16 15H78C80.2091 15 82 16.7909 82 19V98C82 100.209 80.2091 102 78 102H16C13.7909 102 12 100.209 12 98V19Z" fill="white"/>
<path fill-rule="evenodd" clip-rule="evenodd" d="M10.75 19C10.75 16.1005 13.1005 13.75 16 13.75H78C80.8995 13.75 83.25 16.1005 83.25 19V98C83.25 100.899 80.8995 103.25 78 103.25H16C13.1005 103.25 10.75 100.899 10.75 98V19ZM16 16.25C14.4812 16.25 13.25 17.4812 13.25 19V98C13.25 99.5188 14.4812 100.75 16 100.75H78C79.5188 100.75 80.75 99.5188 80.75 98V19C80.75 17.4812 79.5188 16.25 78 16.25H16Z" fill="#707070"/>
<rect x="22" y="27" width="48" height="1" fill="#707070" stroke="#B8B8B8"/>
<rect x="22" y="34" width="48" height="1" fill="#707070" stroke="#B8B8B8"/>
<rect x="22" y="40" width="48" height="1" fill="#707070" stroke="#B8B8B8"/>
<rect x="22" y="47" width="48" height="1" fill="#707070" stroke="#B8B8B8"/>
<rect x="22" y="54" width="24" height="1" fill="#707070" stroke="#B8B8B8"/>
<rect x="22" y="61" width="20" height="1" fill="#707070" stroke="#B8B8B8"/>
<rect x="22" y="67" width="24" height="1" fill="#707070" stroke="#B8B8B8"/>
<rect x="22" y="74" width="28" height="1" fill="#707070" stroke="#B8B8B8"/>
<rect x="22" y="81" width="14" height="1" fill="#707070" stroke="#B8B8B8"/>
<rect x="22" y="87" width="7" height="1" fill="#707070" stroke="#B8B8B8"/>
<path fill-rule="evenodd" clip-rule="evenodd" d="M86.9942 72.5628C87.1185 77.6354 85.2527 82.4454 81.7421 86.1221C78.2454 89.7987 73.5186 91.8858 68.4463 91.9964C63.3739 92.0931 58.5504 90.2548 54.874 86.744C51.1976 83.2471 49.1106 78.52 49 73.4474V72.9774C49 68.0707 50.852 63.4403 54.252 59.8743C57.7487 56.2115 62.4756 54.1244 67.5479 54H68.004C72.9105 54 77.5544 55.8521 81.1202 59.2523C84.7966 62.7631 86.8836 67.4763 86.9942 72.5628Z" fill="white"/>
<rect x="82" y="87.5825" width="5" height="28" transform="rotate(-45.7666 82 87.5825)" fill="white"/>
<path fill-rule="evenodd" clip-rule="evenodd" d="M58.1407 82.5788C55.4807 80.0498 53.9707 76.6288 53.8907 72.9588V72.6188C53.8907 69.0688 55.2307 65.7198 57.6907 63.1398C60.2207 60.4888 63.6407 58.9788 67.3107 58.8898H67.6407C71.1907 58.8898 74.5507 60.2288 77.1307 62.6888C79.7907 65.2288 81.3007 68.6398 81.3807 72.3188C81.4707 75.9888 80.1207 79.4698 77.5807 82.1288C75.0507 84.7888 71.6307 86.2998 67.9607 86.3788C64.2907 86.4488 60.8007 85.1188 58.1407 82.5788ZM78.8507 60.8788C75.7107 57.8788 71.6007 56.2888 67.2607 56.3898C65.0907 56.4388 63.0007 56.9088 61.0707 57.7598C59.1407 58.6188 57.3807 59.8498 55.8807 61.4188C52.8807 64.5588 51.2907 68.6798 51.3907 73.0188C51.4907 77.3588 53.2807 81.3988 56.4207 84.3898C59.4607 87.2998 63.4307 88.8898 67.6207 88.8898C67.7507 88.8898 67.8807 88.8898 68.0107 88.8788C72.3507 88.7788 76.3907 86.9988 79.3907 83.8588C82.3907 80.7198 83.9807 76.5998 83.8807 72.2598C83.7807 67.9188 81.9907 63.8788 78.8507 60.8788Z" fill="#B8B8B8"/>
<path fill-rule="evenodd" clip-rule="evenodd" d="M106.722 107.626L106.007 108.376C105.467 108.939 104.568 108.962 104.006 108.425L82.3043 87.6238L84.9743 84.8258L106.675 105.624C106.949 105.885 107.104 106.237 107.113 106.616C107.121 106.994 106.983 107.353 106.722 107.626ZM55.1073 85.7628C47.8693 78.8548 47.6013 67.3468 54.5093 60.1078C58.0683 56.3778 62.8503 54.4988 67.6393 54.4988C72.1443 54.4988 76.6553 56.1618 80.1633 59.5098C83.6693 62.8558 85.6633 67.3668 85.7763 72.2128C85.8893 77.0588 84.1083 81.6578 80.7623 85.1638C73.8543 92.4028 62.3463 92.6698 55.1073 85.7628ZM108.403 103.817L85.9003 82.2498C87.5243 79.1748 88.3583 75.7268 88.2753 72.1538C88.1463 66.6418 85.8793 61.5088 81.8893 57.7008C73.6553 49.8418 60.5593 50.1458 52.7003 58.3818C44.8413 66.6168 45.1463 79.7118 53.3823 87.5708C57.3733 91.3808 62.5053 93.2718 67.6313 93.2718C72.0623 93.2718 76.4743 91.8338 80.1513 89.0228L102.278 110.231C103.035 110.954 104.008 111.313 104.98 111.313C106.014 111.313 107.046 110.907 107.815 110.102L108.531 109.352C109.252 108.596 109.637 107.604 109.612 106.558C109.588 105.512 109.158 104.538 108.403 103.817Z" fill="#5C5C5C"/>
<path fill-rule="evenodd" clip-rule="evenodd" d="M75.2495 80.4196C74.9645 80.4196 74.6795 80.3146 74.4575 80.1026C73.9995 79.6656 73.9825 78.9396 74.4195 78.4816C75.4655 77.3866 76.2195 76.0386 76.6005 74.5836C76.7615 73.9716 77.3915 73.6076 78.0005 73.7656C78.6135 73.9266 78.9795 74.5536 78.8195 75.1656C78.3395 76.9956 77.3915 78.6906 76.0795 80.0656C75.8535 80.3006 75.5515 80.4196 75.2495 80.4196Z" fill="#5C5C5C"/>
<path fill-rule="evenodd" clip-rule="evenodd" d="M77.7714 71.1385C77.2504 71.1385 76.7804 70.7825 76.6564 70.2535C76.2604 68.5675 75.3844 67.0395 74.1254 65.8365C72.3974 64.1875 70.1394 63.3115 67.7414 63.3665C65.3534 63.4215 63.1294 64.4045 61.4794 66.1325C61.0414 66.5885 60.3154 66.6065 59.8584 66.1695C59.4004 65.7335 59.3834 65.0065 59.8204 64.5485C64.0994 60.0675 71.2264 59.8995 75.7084 64.1785C77.2914 65.6895 78.3904 67.6095 78.8884 69.7305C79.0334 70.3465 78.6504 70.9635 78.0344 71.1085C77.9464 71.1285 77.8584 71.1385 77.7714 71.1385Z" fill="#5C5C5C"/>
</svg>
