<svg width="56" height="56" viewBox="0 0 56 56" fill="none" xmlns="http://www.w3.org/2000/svg">
<path d="M28.2083 41.4896C28.8889 41.4896 29.4479 41.2708 29.8854 40.8333C30.3229 40.3958 30.5417 39.8368 30.5417 39.1562C30.5417 38.4757 30.3229 37.9167 29.8854 37.4792C29.4479 37.0417 28.8889 36.8229 28.2083 36.8229C27.5278 36.8229 26.9688 37.0417 26.5313 37.4792C26.0938 37.9167 25.875 38.4757 25.875 39.1562C25.875 39.8368 26.0938 40.3958 26.5313 40.8333C26.9688 41.2708 27.5278 41.4896 28.2083 41.4896ZM28.2083 30.8438C28.8403 30.8438 29.3633 30.6367 29.7775 30.2225C30.1897 29.8103 30.3958 29.2882 30.3958 28.6562V15.5312C30.3958 14.8993 30.1897 14.3763 29.7775 13.9621C29.3633 13.5499 28.8403 13.3438 28.2083 13.3438C27.5764 13.3438 27.0543 13.5499 26.6421 13.9621C26.2279 14.3763 26.0208 14.8993 26.0208 15.5312V28.6562C26.0208 29.2882 26.2279 29.8103 26.6421 30.2225C27.0543 30.6367 27.5764 30.8438 28.2083 30.8438ZM28.2083 55.4167C24.3681 55.4167 20.7592 54.6875 17.3817 53.2292C14.0022 51.7708 11.0729 49.8021 8.59375 47.3229C6.11458 44.8438 4.14583 41.9144 2.6875 38.535C1.22917 35.1575 0.5 31.5486 0.5 27.7083C0.5 23.8681 1.22917 20.2582 2.6875 16.8787C4.14583 13.5012 6.11458 10.5729 8.59375 8.09375C11.0729 5.61458 14.0022 3.64583 17.3817 2.1875C20.7592 0.729167 24.3681 0 28.2083 0C32.0486 0 35.6585 0.729167 39.0379 2.1875C42.4154 3.64583 45.3438 5.61458 47.8229 8.09375C50.3021 10.5729 52.2708 13.5012 53.7292 16.8787C55.1875 20.2582 55.9167 23.8681 55.9167 27.7083C55.9167 31.5486 55.1875 35.1575 53.7292 38.535C52.2708 41.9144 50.3021 44.8438 47.8229 47.3229C45.3438 49.8021 42.4154 51.7708 39.0379 53.2292C35.6585 54.6875 32.0486 55.4167 28.2083 55.4167ZM28.2083 51.0417C34.7222 51.0417 40.2396 48.7812 44.7604 44.2604C49.2812 39.7396 51.5417 34.2222 51.5417 27.7083C51.5417 21.1944 49.2812 15.6771 44.7604 11.1562C40.2396 6.63542 34.7222 4.375 28.2083 4.375C21.6944 4.375 16.1771 6.63542 11.6562 11.1562C7.13542 15.6771 4.875 21.1944 4.875 27.7083C4.875 34.2222 7.13542 39.7396 11.6562 44.2604C16.1771 48.7812 21.6944 51.0417 28.2083 51.0417Z" fill="#DC282B"/>
</svg>
