<svg width="24" height="25" viewBox="0 0 24 25" fill="none" xmlns="http://www.w3.org/2000/svg">
    <g id="ferris-wheel">
        <g id="vector">
            <path
                d="M14.2654 12.5212C14.2654 11.8105 13.6892 11.2344 12.9785 11.2344C12.2678 11.2344 11.6916 11.8105 11.6916 12.5212C11.6916 13.232 12.2678 13.8081 12.9785 13.8081C13.6892 13.8081 14.2654 13.232 14.2654 12.5212Z"
                fill="#F39325" />
            <path
                d="M10.7206 13.0406H7.71791C7.62761 13.2438 7.51472 13.4244 7.33411 13.5598L6.20527 14.4629C6.49877 15.4563 6.99546 16.3594 7.65018 17.127L11.0141 13.7405C10.8787 13.5373 10.7883 13.2889 10.7206 13.0406Z"
                fill="#F39325" />
            <path
                d="M11.76 14.4855L8.37348 17.8494C9.47974 18.8202 10.9021 19.4298 12.4599 19.5427V14.779C12.2115 14.7113 11.9632 14.621 11.76 14.4855Z"
                fill="#F39325" />
            <path
                d="M7.33411 11.4828C7.51472 11.6183 7.65018 11.7989 7.71791 12.0021H10.7206C10.7658 11.7312 10.8787 11.5054 11.0141 11.2796L7.65018 7.89314C6.99546 8.68333 6.49877 9.58639 6.20527 10.5798L7.33411 11.4828Z"
                fill="#F39325" />
            <path
                d="M15.2358 12.0021L19.9995 12.0021C19.8866 10.4443 19.277 9.02198 18.3062 7.91572L14.9423 11.3022C15.0778 11.5054 15.1681 11.7538 15.2358 12.0021Z"
                fill="#F39325" />
            <path
                d="M14.1983 10.5572L17.5622 7.19325C16.4559 6.22246 15.0336 5.61288 13.4758 5.5V10.2637C13.7467 10.3314 13.9951 10.4217 14.1983 10.5572Z"
                fill="#F39325" />
            <path
                d="M12.4599 10.2637V5.5C10.9021 5.61288 9.47974 6.22246 8.37348 7.19325L11.76 10.5572C11.9632 10.4217 12.2115 10.3314 12.4599 10.2637Z"
                fill="#F39325" />
            <path
                d="M13.4979 14.779V19.5427C15.0557 19.4298 16.4781 18.8202 17.5843 17.8494L14.2204 14.4855C13.9946 14.621 13.7463 14.7113 13.4979 14.779Z"
                fill="#F39325" />
            <path
                d="M15.2358 13.0406C15.1681 13.2889 15.0778 13.5373 14.9423 13.763L18.3062 17.127C19.277 16.0207 19.8866 14.5984 19.9995 13.0406L15.2358 13.0406Z"
                fill="#F39325" />
            <path
                d="M6.68001 12.747C6.83804 12.6341 6.83804 12.3858 6.68001 12.2729L3.49669 9.72172C3.2935 9.56369 3 9.69915 3 9.94749L3 15.095C3 15.3433 3.2935 15.5014 3.49669 15.3208L6.68001 12.747Z"
                fill="#F39325" />
        </g>
    </g>
</svg>
