<svg width="32" height="32" viewBox="0 0 32 32" fill="none" xmlns="http://www.w3.org/2000/svg">
<g clip-path="url(#clip0_16801_7974)">
<path d="M12.4449 4.2543C12.7931 3.91213 13.3333 3.91681 13.6815 4.25898C14.9136 5.47299 16.0699 6.78073 17.1502 8.19629C17.6413 7.52132 18.1993 6.78542 18.802 6.18545C19.1547 5.83859 19.6993 5.83859 20.052 6.19014C21.5966 7.73694 22.9047 9.78059 23.8243 11.7211C24.7306 13.6335 25.3333 15.5881 25.3333 16.9662C25.3333 22.9471 20.8779 28 15.3333 28C9.72611 28 5.33325 22.9424 5.33325 16.9615C5.33325 15.1616 6.12789 12.9632 7.36004 10.7883C8.60557 8.58065 10.3645 6.2792 12.4449 4.2543ZM15.4091 23.5002C16.5386 23.5002 17.5386 23.1721 18.4806 22.5159C20.36 21.1378 20.8645 18.3817 19.735 16.2162C19.5341 15.7944 19.0208 15.7662 18.7306 16.1225L17.6056 17.4958C17.3109 17.8521 16.7797 17.8427 16.5029 17.4724C15.7663 16.4881 14.4493 14.7303 13.6993 13.732C13.4181 13.357 12.8824 13.3523 12.5966 13.7273C11.0877 15.7194 10.3288 16.9755 10.3288 18.3864C10.3333 21.5972 12.5922 23.5002 15.4091 23.5002Z" fill="#F41C5E"/>
</g>
<defs>
<clipPath id="clip0_16801_7974">
<rect width="32" height="32" fill="white"/>
</clipPath>
</defs>
</svg>
