<svg width="48" height="48" viewBox="0 0 48 48" fill="none" xmlns="http://www.w3.org/2000/svg">
<g clip-path="url(#clip0_9673_119226)">
<g clip-path="url(#clip1_9673_119226)">
<path d="M48 23.9997C48 24.2283 47.9969 24.4557 47.99 24.6824C47.9875 24.7661 47.985 24.8498 47.9819 24.9335C47.9675 25.3189 47.9438 25.7018 47.9107 26.0822V26.0835C47.9082 26.1141 47.9051 26.1447 47.9019 26.1753C47.9007 26.1965 47.8988 26.2171 47.8963 26.2377C47.7033 28.3234 47.2429 30.3316 46.5515 32.2286C45.855 34.1362 44.9237 35.9308 43.7925 37.5774C43.6669 37.7604 43.5389 37.9409 43.4083 38.1202C43.3471 38.2039 43.2859 38.2869 43.2234 38.37C38.8466 44.2166 31.8651 48 24.0003 48C21.8428 48 19.7522 47.7152 17.7633 47.1817C16.8551 46.9375 15.9688 46.642 15.1068 46.2979C10.9729 44.6476 7.40566 41.8805 4.77783 38.37C4.71536 38.2869 4.65415 38.2039 4.59293 38.1202C3.56916 36.716 2.69405 35.1956 1.99133 33.5834C1.76896 33.075 1.56408 32.5565 1.37732 32.0306C1.26176 31.7045 1.15307 31.376 1.05126 31.0443C1.02378 30.9556 0.996916 30.8675 0.970681 30.7782C0.944447 30.6889 0.918837 30.5996 0.893851 30.5096C0.532188 29.2248 0.275464 27.8955 0.132422 26.5326C0.123053 26.4458 0.114308 26.3583 0.106812 26.2709C0.100566 26.2084 0.0949444 26.1453 0.0893227 26.0822C0.0474722 25.6012 0.0206129 25.1165 0.00812024 24.6287C0.00624634 24.545 0.00437244 24.4619 0.00312317 24.3782C0.00124927 24.252 0 24.1259 0 23.9997C0 10.745 10.7456 0 24.0003 0C37.255 0 48 10.745 48 23.9997Z" fill="#EAEFF4"/>
<path opacity="0.2" d="M15.1304 46.3066C15.9761 46.6208 16.8356 46.9069 17.7076 47.1655C17.5533 47.1237 17.3997 47.0812 17.2466 47.0362C17.2179 47.0281 17.1898 47.0193 17.1617 47.0106C17.0261 46.9706 16.8912 46.9288 16.7563 46.8863C16.7213 46.8757 16.687 46.8644 16.652 46.8532C16.5021 46.8057 16.3534 46.7557 16.2054 46.7052C16.1666 46.6914 16.1279 46.6783 16.0892 46.6646C15.953 46.6171 15.8168 46.5684 15.6813 46.5184C15.6613 46.5109 15.6413 46.504 15.6213 46.4965C15.4739 46.4416 15.3271 46.3847 15.181 46.3266C15.1641 46.3198 15.1472 46.3135 15.1304 46.3066Z" fill="#7CA5B9"/>
<path opacity="0.2" d="M13.6241 26.0822H22.6731C20.7337 26.1659 18.9341 26.2971 17.2707 26.4688H17.2682C15.8153 26.6187 14.4673 26.7999 13.2224 27.0079C6.33647 28.1491 2.54619 30.0861 1.3775 32.03C1.33502 31.9094 1.29317 31.7888 1.25257 31.6677C1.23508 31.6177 1.21884 31.5671 1.2026 31.5165C1.16637 31.4084 1.13202 31.2998 1.09766 31.1911C1.08267 31.1423 1.06706 31.0942 1.05206 31.0455C1.05206 31.0455 1.05144 31.0455 1.05144 31.0443C1.02396 30.9556 0.997096 30.8675 0.970862 30.7782C0.952123 30.7138 0.934008 30.6489 0.915269 30.5845C0.910272 30.5652 0.904651 30.5464 0.899029 30.5277C0.89778 30.5215 0.895906 30.5152 0.894032 30.5096C0.848433 30.3466 0.804084 30.1829 0.761609 30.0186C0.750991 29.9768 0.740996 29.9337 0.730378 29.8912C0.697272 29.76 0.664167 29.6289 0.633559 29.4971C0.618568 29.434 0.604826 29.3703 0.59046 29.3072C0.565474 29.196 0.540489 29.0848 0.517377 28.973C0.501762 28.9012 0.48802 28.8293 0.473653 28.7575C0.452416 28.6532 0.431803 28.5495 0.412439 28.4452C0.398072 28.3683 0.38433 28.2915 0.370588 28.2147C0.353099 28.1147 0.335609 28.0142 0.319369 27.9136C0.306251 27.8337 0.293134 27.7537 0.281266 27.6738C0.26565 27.5751 0.251283 27.4764 0.237541 27.3771C0.226298 27.2958 0.21443 27.2146 0.203811 27.1328C0.190694 27.0323 0.178826 26.9317 0.166958 26.8305C0.157588 26.7505 0.148219 26.6712 0.139474 26.5913C0.1376 26.5713 0.134477 26.5519 0.132603 26.5325C0.123233 26.4457 0.114489 26.3583 0.106993 26.2708C0.100747 26.2084 0.0951249 26.1459 0.0895032 26.0834V26.0822C0.0476527 25.6012 0.0207935 25.1165 0.00830078 24.6287C1.15076 24.7455 2.31945 24.8885 3.51125 25.0622C6.81431 25.5419 10.2198 25.8717 13.6241 26.0822Z" fill="#7CA5B9"/>
<path opacity="0.2" d="M47.982 24.9335C47.9677 25.3189 47.9439 25.7018 47.9108 26.0822V26.0835C47.9083 26.1141 47.9052 26.1447 47.9021 26.1753C47.9008 26.1965 47.8989 26.2172 47.8965 26.2378C47.8865 26.3433 47.8758 26.4483 47.8646 26.5538C47.8559 26.6369 47.8465 26.72 47.8365 26.8031C47.8246 26.9055 47.8121 27.0073 47.799 27.1091C47.7896 27.1835 47.7796 27.2578 47.7697 27.3321C47.7547 27.4358 47.7397 27.5395 47.7241 27.6432C47.7084 27.7425 47.6928 27.8418 47.6766 27.9405C47.6597 28.0417 47.6429 28.1429 47.6247 28.2441C47.611 28.3197 47.5973 28.3959 47.5829 28.4715C47.5654 28.5639 47.5473 28.6563 47.5285 28.7482C47.5092 28.8469 47.4886 28.9449 47.468 29.0424C47.4448 29.1498 47.4217 29.2566 47.3974 29.3634C47.3799 29.439 47.3624 29.5146 47.3443 29.5896C47.3237 29.6764 47.3018 29.7638 47.2799 29.8507C47.2618 29.9237 47.2437 29.9974 47.2243 30.0711C47.19 30.2029 47.1544 30.3347 47.1175 30.4659C47.0975 30.539 47.0763 30.6121 47.0551 30.6845C47.0307 30.7701 47.0051 30.8551 46.9795 30.94C46.9589 31.01 46.9376 31.0799 46.9158 31.1493C46.8746 31.2829 46.8314 31.4166 46.7877 31.549C46.7646 31.6184 46.7409 31.6864 46.7178 31.7552C46.6884 31.8407 46.659 31.9263 46.6284 32.0113C46.6047 32.0793 46.581 32.1474 46.556 32.2149C46.5541 32.2193 46.5529 32.2243 46.551 32.2286C33.5405 30.3816 24.2734 28.9974 23.858 28.7519C23.3209 28.4327 23.8049 28.1054 24.6732 27.8187C25.6907 27.4758 27.2248 27.1847 28.2498 27.0079C28.7021 26.9311 29.0575 26.8749 29.2274 26.8462C30.0906 26.7012 33.6804 26.2771 33.1438 26.1197C33.0957 26.106 33.0145 26.0935 32.9046 26.0822H35.0165C40.2859 25.7937 44.8126 25.347 47.982 24.9335Z" fill="#7CA5B9"/>
<g opacity="0.6">
<path opacity="0.8" d="M46.551 32.2286C46.5291 32.288 46.5072 32.3479 46.4854 32.4073C46.4848 32.4091 46.4841 32.411 46.4829 32.4135C46.4585 32.4797 46.4335 32.5453 46.4079 32.6109C46.3961 32.6421 46.3836 32.6734 46.3717 32.7046L46.3342 32.7983C46.2999 32.8864 46.2643 32.9751 46.2287 33.0625C46.2018 33.1275 46.1756 33.1918 46.1487 33.2555C46.1212 33.3217 46.0937 33.3873 46.0656 33.4529C46.0444 33.5029 46.0232 33.5522 46.0013 33.6016C45.9826 33.6447 45.9638 33.6871 45.9445 33.7302C45.9326 33.7571 45.9201 33.784 45.9082 33.8108C45.8664 33.9045 45.8239 33.9976 45.7808 34.09C45.7527 34.1506 45.7246 34.2106 45.6965 34.2705C45.6421 34.3842 45.5878 34.4973 45.5322 34.6097C45.5028 34.6691 45.4729 34.729 45.4429 34.7884C45.3917 34.8902 45.3398 34.9914 45.2873 35.0919C45.258 35.1482 45.2286 35.2037 45.1993 35.2593C45.143 35.3643 45.0862 35.4692 45.0287 35.5735C45.0013 35.6229 44.9744 35.6716 44.9469 35.7209C44.882 35.8365 44.8157 35.9521 44.7489 36.067C44.7195 36.1176 44.6896 36.1682 44.6596 36.2188C44.5996 36.32 44.539 36.4212 44.4772 36.5211C44.4547 36.558 44.4328 36.5948 44.4104 36.631C44.3766 36.686 44.3423 36.7403 44.3079 36.7947C44.3023 36.8041 44.2967 36.8134 44.2898 36.8228C44.2498 36.8865 44.2086 36.9496 44.168 37.0133C44.1386 37.0589 44.1087 37.1039 44.0793 37.1489C44.0143 37.2475 43.9487 37.3462 43.8825 37.4443C43.8576 37.4812 43.8332 37.518 43.8076 37.5542C43.8026 37.5617 43.7976 37.5699 43.7926 37.5774C43.7514 37.6373 43.7101 37.6967 43.6689 37.7554C43.6289 37.8116 43.589 37.8678 43.549 37.924C43.5246 37.959 43.4996 37.9934 43.4747 38.0277C43.4528 38.0589 43.4309 38.0896 43.4084 38.1202C43.3472 38.2039 43.286 38.2869 43.2235 38.37C43.1898 38.415 43.1561 38.46 43.1211 38.5049C43.0568 38.5899 42.9918 38.6742 42.9262 38.7579C42.8925 38.8023 42.8575 38.8466 42.8225 38.8903C42.7932 38.9272 42.7638 38.964 42.7345 39.0009C42.7107 39.0309 42.687 39.0609 42.6626 39.0902C42.6283 39.1327 42.5933 39.1745 42.5589 39.217C42.5233 39.2607 42.4877 39.3045 42.4509 39.3476C42.3759 39.4369 42.301 39.5262 42.2248 39.6149C42.191 39.6543 42.1573 39.6936 42.1236 39.7323C42.0798 39.7829 42.0361 39.8329 41.9918 39.8829C41.948 39.9328 41.9037 39.9822 41.8593 40.0315C41.8237 40.0721 41.7875 40.1127 41.7494 40.1527C41.7057 40.2008 41.662 40.2483 41.6182 40.2964C41.6057 40.3101 41.5933 40.3239 41.5795 40.3376C41.5389 40.382 41.4971 40.4263 41.4558 40.47C41.4258 40.5019 41.3959 40.5331 41.3659 40.5644C41.2834 40.6506 41.201 40.7355 41.1179 40.8205C41.0836 40.8548 41.0498 40.8898 41.0155 40.9241C40.9742 40.966 40.9324 41.0072 40.8905 41.0491C40.8693 41.0709 40.8481 41.0915 40.8268 41.1115C40.7862 41.1515 40.7456 41.1915 40.705 41.2308C40.66 41.2752 40.6157 41.3183 40.5707 41.3601C40.5345 41.3945 40.4983 41.4288 40.462 41.4632C40.4158 41.5076 40.3696 41.5507 40.3234 41.5925C40.299 41.6156 40.2747 41.6387 40.2497 41.6612C40.2128 41.6949 40.176 41.7287 40.1391 41.7624C40.1129 41.7868 40.0866 41.8105 40.0604 41.8336C40.0129 41.8761 39.9655 41.9186 39.918 41.9604C39.8811 41.9941 39.8449 42.026 39.8087 42.0572C39.7618 42.0978 39.715 42.1391 39.6681 42.1797C39.645 42.2003 39.6219 42.2203 39.5988 42.239C39.5557 42.2759 39.5126 42.3127 39.4695 42.3489L39.3889 42.4164C39.2902 42.4988 39.1915 42.58 39.0916 42.6606C39.0597 42.6875 39.0266 42.7137 38.9948 42.74C38.9179 42.8018 38.8405 42.863 38.763 42.9223C38.7212 42.9555 38.6793 42.9879 38.6375 43.0204C38.6025 43.0479 38.5681 43.0741 38.5332 43.0997C38.4276 43.1803 38.3214 43.2597 38.2146 43.3384C38.119 43.4096 38.0235 43.4795 37.9273 43.547C37.8829 43.5788 37.8386 43.6101 37.7936 43.6419C37.7443 43.6769 37.6949 43.7113 37.6462 43.7444C37.6018 43.775 37.5581 43.8056 37.5138 43.8356C37.4126 43.9055 37.3114 43.9736 37.2096 44.0398C37.0965 44.1141 36.9828 44.1879 36.8685 44.2609C36.8342 44.2841 36.7992 44.3059 36.7642 44.3272C36.7067 44.3634 36.6486 44.3996 36.5906 44.4352C36.5743 44.4458 36.5581 44.4558 36.5425 44.4646C36.4881 44.4983 36.4338 44.5314 36.3794 44.5645C36.3432 44.5864 36.3076 44.6082 36.272 44.6282C36.1546 44.6982 36.0365 44.7675 35.9178 44.8356C35.8185 44.8937 35.7192 44.9493 35.6193 45.0043C35.5624 45.0355 35.5049 45.0673 35.4475 45.0986C35.4069 45.1211 35.3657 45.1435 35.3251 45.1642C35.2563 45.201 35.1876 45.2379 35.1183 45.2741C35.049 45.3109 34.9796 45.3472 34.9103 45.3822C34.8897 45.3928 34.8691 45.4028 34.8485 45.4128C34.7223 45.4771 34.5949 45.5402 34.4668 45.602C34.4318 45.6195 34.3962 45.637 34.3606 45.6539C34.2207 45.7213 34.0795 45.7869 33.9384 45.8513C33.9046 45.8669 33.8709 45.8819 33.8372 45.8969C33.7091 45.9543 33.5811 46.0105 33.4524 46.0661C33.4268 46.0774 33.4012 46.0886 33.3749 46.0992C33.23 46.1611 33.0845 46.221 32.9383 46.2798C32.9002 46.2947 32.8621 46.3097 32.824 46.3247C32.7503 46.3541 32.6754 46.3834 32.601 46.4122C32.5267 46.4409 32.4517 46.469 32.3774 46.4971C32.3605 46.5034 32.343 46.5096 32.3262 46.5159C32.1875 46.5671 32.0476 46.6171 31.9077 46.6658C31.8708 46.6789 31.8346 46.6914 31.7977 46.7039C31.6478 46.7557 31.4979 46.8057 31.3468 46.8538L31.2474 46.8857C31.1106 46.9287 30.9732 46.9706 30.8358 47.0118C30.8089 47.0193 30.7821 47.0281 30.7552 47.0356C30.6016 47.0805 30.4467 47.1243 30.2917 47.1661C30.253 47.1767 30.2143 47.1867 30.1762 47.1967C30.0969 47.218 30.0182 47.2386 29.9388 47.2592C29.862 47.2785 29.7845 47.2979 29.7071 47.3173C29.7046 47.3173 29.7027 47.3185 29.7008 47.3185C29.6884 47.3216 29.6759 47.3241 29.6634 47.3273C29.5122 47.3641 29.361 47.3985 29.2093 47.4322C29.1718 47.4403 29.1343 47.4491 29.0962 47.4572C28.9388 47.4909 28.7801 47.524 28.6209 47.5553C28.5884 47.5615 28.5559 47.5671 28.524 47.5734C28.3797 47.6009 28.2348 47.6271 28.0893 47.6521C28.0612 47.6571 28.0331 47.6621 28.0043 47.6671C27.8432 47.6939 27.6808 47.7195 27.5184 47.7433C27.4796 47.7489 27.4409 47.7545 27.4022 47.7595C27.2367 47.7832 27.0718 47.8057 26.905 47.8257C26.8919 47.8276 26.8794 47.8288 26.8663 47.8301C26.7088 47.8488 26.5502 47.8657 26.3915 47.8813C26.3534 47.8851 26.3153 47.8888 26.2772 47.8926C26.1117 47.9082 25.9462 47.9225 25.78 47.9344C25.7488 47.9369 25.7176 47.9388 25.6863 47.9407C25.5352 47.9513 25.384 47.96 25.2328 47.9681C25.2029 47.9694 25.1729 47.9713 25.1429 47.9725C25.0592 47.9769 24.9755 47.98 24.8912 47.9831C24.8075 47.9856 24.7231 47.9881 24.6388 47.9906C24.6001 47.9919 24.5607 47.9925 24.5214 47.9937C24.3502 47.9969 24.1791 47.9994 24.0073 47.9994C24.0048 47.9994 24.0029 48 24.0004 48C23.9979 48 23.9961 47.9994 23.9936 47.9994C23.8218 47.9994 23.6506 47.9969 23.4795 47.9937C23.4401 47.9925 23.4008 47.9919 23.3621 47.9906C23.1934 47.9863 23.0254 47.9806 22.858 47.9725C22.828 47.9713 22.798 47.9694 22.768 47.9681C22.6169 47.96 22.4657 47.9513 22.3145 47.9407C22.2833 47.9388 22.2521 47.9369 22.2209 47.9344C22.1378 47.9282 22.0547 47.9219 21.9722 47.915C21.8892 47.9082 21.8067 47.9007 21.7236 47.8926C21.6855 47.8888 21.6474 47.8851 21.6093 47.8813C21.4482 47.8651 21.287 47.8488 21.1271 47.8295C21.1171 47.8295 21.1078 47.8276 21.0978 47.8257C20.931 47.8057 20.7648 47.7832 20.5993 47.7601C20.56 47.7551 20.5206 47.7495 20.4819 47.7433C20.3201 47.7195 20.1583 47.6939 19.9965 47.6671C19.9678 47.6621 19.9391 47.6571 19.9103 47.6521C19.766 47.6271 19.6218 47.6009 19.4781 47.5734C19.445 47.5671 19.4125 47.5615 19.3794 47.5546C19.2207 47.524 19.0627 47.4915 18.9053 47.4572C18.8672 47.4491 18.8291 47.4403 18.791 47.4322C18.6398 47.3985 18.4899 47.3641 18.34 47.3279C18.3263 47.3248 18.3125 47.3216 18.2988 47.3185C18.2201 47.2992 18.1407 47.2792 18.062 47.2592C17.9833 47.2386 17.9053 47.2186 17.8266 47.1973C17.7903 47.188 17.7553 47.178 17.7197 47.1686C17.716 47.1674 17.7116 47.1667 17.7079 47.1655C16.8359 46.9069 15.9764 46.6208 15.1306 46.3066C15.1063 46.2972 15.0825 46.2873 15.0582 46.2779C14.9863 46.2491 14.9145 46.2198 14.8433 46.1904C14.7796 46.1642 14.7159 46.138 14.6528 46.1111C14.6409 46.1061 14.6297 46.1011 14.6178 46.0961C14.5916 46.0849 14.5653 46.073 14.5391 46.0618C14.4161 46.0093 14.2936 45.9556 14.1718 45.9006C14.1325 45.8837 14.0931 45.8656 14.0544 45.8475C13.9869 45.8169 13.9188 45.7857 13.8514 45.7538C13.7827 45.722 13.714 45.6895 13.6459 45.6564C13.6053 45.637 13.5653 45.6176 13.5247 45.5977C13.4822 45.577 13.4404 45.5564 13.3979 45.5364C13.366 45.5208 13.3342 45.5052 13.303 45.489C13.258 45.4665 13.2136 45.444 13.1687 45.4215C13.1393 45.4071 13.1099 45.3922 13.0806 45.3772C12.9475 45.3091 12.8164 45.2397 12.6846 45.1692C12.6408 45.1454 12.5971 45.1223 12.5534 45.0986C12.4903 45.0642 12.4272 45.0292 12.3641 44.9949C12.296 44.9568 12.228 44.9187 12.1605 44.8806C12.1274 44.8612 12.0949 44.8419 12.0618 44.8231C11.9556 44.7619 11.8494 44.7001 11.7445 44.6376C11.7014 44.612 11.6589 44.587 11.6164 44.5614C11.554 44.5239 11.4928 44.4864 11.4309 44.4483C11.3691 44.4102 11.3079 44.3721 11.2473 44.3334C11.2248 44.3197 11.2029 44.3053 11.1804 44.2915C11.1586 44.2772 11.1367 44.2628 11.1142 44.2491C11.0649 44.2178 11.0155 44.1866 10.9668 44.1548C10.9175 44.1229 10.8688 44.0904 10.82 44.0586C10.7851 44.0354 10.7501 44.013 10.7151 43.9898C10.7107 43.9867 10.7057 43.9836 10.7014 43.9805C10.6451 43.943 10.5889 43.9049 10.5327 43.8668C10.4734 43.8268 10.4146 43.7862 10.3566 43.7456C10.3085 43.7125 10.2604 43.6788 10.2129 43.6457C10.1635 43.6113 10.1148 43.5763 10.0655 43.5414C10.0055 43.4989 9.94617 43.4564 9.88745 43.4127C9.86372 43.3958 9.84061 43.3783 9.8175 43.3615C9.79376 43.3446 9.77065 43.3277 9.74754 43.3102C9.66259 43.2465 9.57764 43.1834 9.49331 43.1191C9.45458 43.0898 9.41648 43.061 9.37775 43.0317C9.31404 42.9823 9.25033 42.933 9.18724 42.883C9.13415 42.8411 9.08168 42.7993 9.02858 42.7568C8.97799 42.7168 8.92802 42.6762 8.87867 42.6356C8.80434 42.5757 8.73001 42.5145 8.6563 42.4532C8.59634 42.4033 8.537 42.3533 8.47766 42.3033C8.39021 42.229 8.30338 42.154 8.21718 42.0785C8.16284 42.0316 8.10912 41.9841 8.05603 41.9367C7.98357 41.8723 7.91174 41.8074 7.84053 41.7424C7.82866 41.7324 7.81742 41.7218 7.80617 41.7112C7.74246 41.6525 7.67937 41.5938 7.61629 41.535C7.55695 41.4794 7.49823 41.4245 7.43889 41.3683C7.43826 41.3683 7.43764 41.3683 7.43764 41.367C7.38205 41.3133 7.32646 41.2608 7.27086 41.2065C7.24088 41.1777 7.21152 41.149 7.18217 41.1203C7.14281 41.0809 7.10346 41.0422 7.06411 41.0028C7.03787 40.9772 7.01226 40.9516 6.98665 40.9254C6.93668 40.8748 6.88671 40.8242 6.83737 40.7736C6.7899 40.7249 6.74242 40.6762 6.69558 40.6268C6.64935 40.5787 6.6025 40.53 6.55628 40.4807C6.51006 40.4319 6.46446 40.3826 6.41824 40.3332C6.37389 40.2858 6.32892 40.2377 6.28519 40.1896C6.22335 40.1227 6.16276 40.0553 6.1028 39.9878C6.06782 39.9485 6.03221 39.9085 5.99723 39.8685C5.94477 39.8092 5.89292 39.7498 5.84108 39.6899C5.78986 39.6305 5.73801 39.5706 5.68679 39.51C5.65681 39.475 5.62745 39.44 5.59872 39.405C5.54875 39.3457 5.49878 39.2857 5.44943 39.2251C5.39946 39.1652 5.35074 39.1046 5.30139 39.044C5.25892 38.9903 5.21582 38.9372 5.17397 38.8835C5.09901 38.7904 5.02593 38.6961 4.95347 38.6011C4.90288 38.5355 4.85291 38.4693 4.80356 38.4037C4.75359 38.3369 4.70362 38.2701 4.65427 38.2026C4.64428 38.1889 4.63428 38.1751 4.62366 38.1614C4.61305 38.1476 4.60305 38.1339 4.59306 38.1202C4.52934 38.0327 4.46563 37.944 4.40254 37.8553C4.36569 37.8028 4.32946 37.751 4.29323 37.6979C4.2214 37.5948 4.15019 37.4912 4.07961 37.3868C4.04275 37.3319 4.0059 37.2763 3.96905 37.2207C3.90159 37.1182 3.83475 37.0158 3.76854 36.9121C3.72794 36.8484 3.68734 36.7847 3.64674 36.721C3.60426 36.6523 3.56116 36.5836 3.51869 36.5142C3.46434 36.4249 3.41 36.335 3.35566 36.2444C3.30319 36.1557 3.25072 36.067 3.1995 35.977C3.18638 35.9546 3.17326 35.9314 3.16077 35.909C3.11205 35.8253 3.06458 35.7416 3.01835 35.6572C2.99524 35.616 2.97276 35.5742 2.94965 35.5329C2.92528 35.4892 2.90092 35.4449 2.87781 35.4005C2.85907 35.3674 2.84158 35.3337 2.82347 35.2999C2.8216 35.2974 2.82035 35.2943 2.8191 35.2918C2.75726 35.1769 2.69667 35.0607 2.63733 34.9445C2.60735 34.8871 2.57861 34.8296 2.54925 34.7715C2.53052 34.734 2.51178 34.6965 2.49304 34.6584C2.47367 34.621 2.45556 34.5835 2.43745 34.546C2.40809 34.4867 2.37935 34.4273 2.35125 34.3674C2.29128 34.2449 2.23381 34.1219 2.1776 33.9982C2.15261 33.9439 2.12825 33.8901 2.10327 33.8358C2.06516 33.7521 2.02831 33.6678 1.99146 33.5834C1.94461 33.4766 1.89901 33.3692 1.85404 33.2618C1.8253 33.193 1.7972 33.1243 1.76909 33.055C1.73223 32.9651 1.696 32.8745 1.65978 32.7839C1.60981 32.6584 1.56171 32.5328 1.51486 32.406C1.49362 32.3492 1.47239 32.2917 1.45177 32.2342C1.43178 32.1805 1.4118 32.1262 1.39243 32.0718C1.38744 32.0581 1.38244 32.0437 1.37744 32.03C2.54613 30.0861 6.33641 28.1491 13.2224 27.0079C14.4673 26.7999 15.8152 26.6188 17.2681 26.4689H17.2706C18.934 26.2971 20.7336 26.1659 22.6731 26.0822H32.9046C33.0145 26.0935 33.0957 26.106 33.1438 26.1197C33.6804 26.2771 30.0906 26.7012 29.2274 26.8461C29.0575 26.8749 28.7021 26.9311 28.2498 27.0079C27.2248 27.1847 25.6907 27.4758 24.6732 27.8187C23.8049 28.1054 23.3208 28.4327 23.858 28.7519C24.2734 28.9974 33.5405 30.3816 46.551 32.2286Z" fill="#7CA5B9"/>
<path opacity="0.6" d="M1.37744 32.03C1.38244 32.0438 1.38744 32.0581 1.39243 32.0719C1.38744 32.0581 1.38244 32.0444 1.37744 32.0307V32.03Z" fill="#7CA5B9"/>
<path opacity="0.6" d="M1.39258 32.0718C1.43193 32.1836 1.47316 32.2948 1.51501 32.406C1.49377 32.3491 1.47253 32.2916 1.45192 32.2342C1.43193 32.1805 1.41194 32.1261 1.39258 32.0718Z" fill="#7CA5B9"/>
<path opacity="0.6" d="M1.76898 33.055C1.79709 33.1244 1.8252 33.1931 1.85393 33.2618C1.78709 33.1031 1.72213 32.9438 1.65967 32.7839C1.6959 32.8745 1.73213 32.9651 1.76898 33.055Z" fill="#7CA5B9"/>
<path opacity="0.6" d="M2.49316 34.6584C2.54001 34.754 2.58811 34.8496 2.63745 34.9445C2.60747 34.8871 2.57874 34.8296 2.54938 34.7715C2.53064 34.734 2.5119 34.6965 2.49316 34.6584Z" fill="#7CA5B9"/>
<path opacity="0.6" d="M3.5185 36.5142C3.56097 36.5836 3.60407 36.6523 3.64655 36.721C3.54723 36.5636 3.45041 36.4043 3.35547 36.2444C3.40981 36.335 3.46416 36.4249 3.5185 36.5142Z" fill="#7CA5B9"/>
<path opacity="0.6" d="M3.76878 36.9121C3.83499 37.0158 3.90182 37.1182 3.96928 37.2207C3.85872 37.0558 3.75191 36.889 3.64697 36.7209C3.68757 36.7847 3.72818 36.8484 3.76878 36.9121Z" fill="#7CA5B9"/>
<path opacity="0.6" d="M4.29321 37.6979C4.32944 37.751 4.36567 37.8028 4.40253 37.8553C4.29321 37.7004 4.18515 37.5442 4.07959 37.3868C4.15017 37.4912 4.22138 37.5948 4.29321 37.6979Z" fill="#7CA5B9"/>
<path opacity="0.6" d="M4.65414 38.2026C4.70349 38.2701 4.75346 38.3369 4.80343 38.4037C4.79469 38.3925 4.78656 38.3813 4.77782 38.37C4.72535 38.3007 4.67413 38.2313 4.62354 38.1614C4.63415 38.1751 4.64415 38.1889 4.65414 38.2026Z" fill="#7CA5B9"/>
<path opacity="0.6" d="M6.28516 40.1896C6.37448 40.2876 6.46443 40.3845 6.55625 40.4807C6.51002 40.4319 6.46443 40.3826 6.4182 40.3332C6.37385 40.2858 6.32888 40.2377 6.28516 40.1896Z" fill="#7CA5B9"/>
<path opacity="0.6" d="M6.55615 40.4807C6.6486 40.5794 6.74229 40.6768 6.83724 40.7737C6.78977 40.7249 6.74229 40.6762 6.69545 40.6269C6.64922 40.5788 6.60238 40.5301 6.55615 40.4807Z" fill="#7CA5B9"/>
<path opacity="0.6" d="M7.43896 41.3683C7.56014 41.4838 7.68257 41.5982 7.80625 41.7112C7.74254 41.6525 7.67945 41.5938 7.61636 41.5351C7.55702 41.4795 7.49831 41.4245 7.43896 41.3683Z" fill="#7CA5B9"/>
<path opacity="0.6" d="M8.87854 42.6356C8.89728 42.6506 8.91602 42.6656 8.93476 42.6812C8.86417 42.6243 8.79359 42.5669 8.72363 42.5088C8.77548 42.5513 8.8267 42.5944 8.87854 42.6356Z" fill="#7CA5B9"/>
<path opacity="0.6" d="M8.47754 42.3033C8.55874 42.3727 8.64119 42.4408 8.72365 42.5088C8.70116 42.4901 8.67867 42.472 8.65618 42.4533C8.59622 42.4033 8.53688 42.3533 8.47754 42.3033Z" fill="#7CA5B9"/>
<path opacity="0.6" d="M8.93506 42.6813C9.01876 42.7487 9.10246 42.8168 9.18741 42.883C9.13432 42.8412 9.08185 42.7993 9.02875 42.7569C8.9969 42.7319 8.96629 42.7063 8.93506 42.6813Z" fill="#7CA5B9"/>
<path opacity="0.6" d="M9.37793 43.0316C9.50036 43.1259 9.62341 43.2184 9.74771 43.3102C9.66276 43.2465 9.57781 43.1834 9.49349 43.1191C9.45476 43.0897 9.41666 43.061 9.37793 43.0316Z" fill="#7CA5B9"/>
<path opacity="0.6" d="M10.0654 43.5414C10.1198 43.5807 10.1747 43.6188 10.2297 43.6576C10.2241 43.6538 10.2185 43.6494 10.2128 43.6457C10.1635 43.6113 10.1148 43.5764 10.0654 43.5414Z" fill="#7CA5B9"/>
<path opacity="0.6" d="M10.5329 43.8668C10.4317 43.7981 10.3305 43.7282 10.23 43.6576C10.2718 43.687 10.3143 43.7163 10.3568 43.7457C10.4149 43.7863 10.4736 43.8269 10.5329 43.8668Z" fill="#7CA5B9"/>
<path opacity="0.6" d="M10.8203 44.0586C10.869 44.0904 10.9177 44.1229 10.9671 44.1548C10.8827 44.1004 10.799 44.0455 10.7153 43.9899C10.7503 44.013 10.7853 44.0355 10.8203 44.0586Z" fill="#7CA5B9"/>
<path opacity="0.6" d="M11.1142 44.2491C11.1367 44.2628 11.1586 44.2772 11.1804 44.2916C11.1086 44.2466 11.0374 44.201 10.9668 44.1548C11.0155 44.1866 11.0649 44.2179 11.1142 44.2491Z" fill="#7CA5B9"/>
<path opacity="0.6" d="M11.1807 44.2915C11.2637 44.3446 11.3468 44.3964 11.4311 44.4483C11.3693 44.4102 11.3081 44.3721 11.2475 44.3334C11.225 44.3196 11.2032 44.3052 11.1807 44.2915Z" fill="#7CA5B9"/>
<path opacity="0.6" d="M12.0616 44.8231C12.0947 44.8419 12.1272 44.8612 12.1603 44.8806C11.9772 44.7763 11.7961 44.6701 11.6162 44.5614C11.6587 44.587 11.7012 44.612 11.7443 44.6376C11.8492 44.7001 11.9554 44.7619 12.0616 44.8231Z" fill="#7CA5B9"/>
<path opacity="0.6" d="M13.3979 45.5365C13.5479 45.6108 13.699 45.6833 13.8514 45.7539C13.7827 45.722 13.714 45.6895 13.6459 45.6564C13.6053 45.6371 13.5654 45.6177 13.5247 45.5977C13.4823 45.5771 13.4404 45.5565 13.3979 45.5365Z" fill="#7CA5B9"/>
<path opacity="0.6" d="M14.5392 46.0618C14.5654 46.073 14.5916 46.0849 14.6179 46.0961C14.4686 46.0331 14.3199 45.9675 14.1719 45.9006C14.2937 45.9556 14.4161 46.0093 14.5392 46.0618Z" fill="#7CA5B9"/>
<path opacity="0.6" d="M15.0581 46.2778C15.0825 46.2872 15.1062 46.2972 15.1306 46.3066C15.1224 46.3034 15.1149 46.3009 15.1068 46.2978C15.0906 46.2916 15.0743 46.2847 15.0581 46.2778Z" fill="#7CA5B9"/>
<path opacity="0.6" d="M17.8265 47.1973C17.9052 47.2185 17.9833 47.2385 18.062 47.2592C17.9621 47.2342 17.8628 47.2086 17.7635 47.1817C17.7491 47.1773 17.7341 47.173 17.7197 47.1686C17.7553 47.1779 17.7903 47.1879 17.8265 47.1973Z" fill="#7CA5B9"/>
<path opacity="0.6" d="M18.873 47.4503C18.888 47.4534 18.9024 47.4566 18.9174 47.4597C18.9136 47.4591 18.9099 47.4584 18.9062 47.4572C18.8955 47.4547 18.8843 47.4522 18.8737 47.4503H18.873Z" fill="#7CA5B9"/>
<path opacity="0.6" d="M19.4779 47.5733C19.6085 47.5983 19.7403 47.6221 19.8714 47.6452C19.7134 47.6177 19.5554 47.589 19.3979 47.5583C19.4242 47.5633 19.451 47.5683 19.4773 47.5733H19.4779Z" fill="#7CA5B9"/>
<path opacity="0.6" d="M18.9165 47.4597C19.0664 47.4922 19.2163 47.5234 19.3669 47.5522C19.2163 47.5228 19.0658 47.4916 18.9165 47.4597Z" fill="#7CA5B9"/>
<path opacity="0.6" d="M18.791 47.4322C18.8185 47.4378 18.8454 47.444 18.8729 47.4503C18.6811 47.4084 18.4893 47.3653 18.2988 47.3185C18.3126 47.3216 18.3263 47.3247 18.3401 47.3279C18.49 47.3641 18.6399 47.3984 18.791 47.4322Z" fill="#7CA5B9"/>
<path opacity="0.6" d="M19.8716 47.6453C19.9134 47.6521 19.9547 47.6603 19.9965 47.6671C19.9678 47.6621 19.939 47.6571 19.9103 47.6521C19.8972 47.6496 19.8847 47.6471 19.8716 47.6453Z" fill="#7CA5B9"/>
<path opacity="0.6" d="M19.3677 47.5521C19.3783 47.554 19.3883 47.5565 19.3989 47.5584C19.3927 47.5571 19.3864 47.5559 19.3795 47.5546C19.3758 47.554 19.3714 47.5527 19.3677 47.5521Z" fill="#7CA5B9"/>
<path opacity="0.6" d="M19.9966 47.6671C20.1584 47.694 20.3201 47.7196 20.4819 47.7433C20.3195 47.7202 20.1577 47.6946 19.9966 47.6671Z" fill="#7CA5B9"/>
<path opacity="0.6" d="M20.5991 47.7601C20.7646 47.7832 20.9308 47.8057 21.0976 47.8257C20.9308 47.8064 20.7646 47.7845 20.5991 47.7601Z" fill="#7CA5B9"/>
<path opacity="0.6" d="M21.127 47.8295C21.2219 47.8407 21.3175 47.8507 21.4124 47.8613C21.3168 47.8513 21.2213 47.8413 21.127 47.8295Z" fill="#7CA5B9"/>
<path opacity="0.6" d="M21.6826 47.8888C21.7794 47.8982 21.8756 47.9075 21.9724 47.9157C21.8894 47.9088 21.8069 47.9013 21.7238 47.8932C21.7101 47.8919 21.6964 47.8907 21.6826 47.8888Z" fill="#7CA5B9"/>
<path opacity="0.6" d="M21.6092 47.8813C21.6336 47.8838 21.6579 47.8863 21.6823 47.8882C21.5924 47.8795 21.5024 47.8707 21.4131 47.8607C21.4787 47.8676 21.5443 47.8745 21.6098 47.8807L21.6092 47.8813Z" fill="#7CA5B9"/>
<path opacity="0.6" d="M21.9722 47.915C22.0971 47.9257 22.222 47.9338 22.3476 47.9425C22.3363 47.9419 22.3257 47.9413 22.3145 47.9406C22.2832 47.9388 22.252 47.9369 22.2208 47.9344C22.1377 47.9282 22.0546 47.9219 21.9722 47.915Z" fill="#7CA5B9"/>
<path opacity="0.6" d="M22.6802 47.9631C22.7501 47.9669 22.8207 47.9706 22.8913 47.9744C22.8801 47.9744 22.8694 47.9738 22.8582 47.9731C22.8282 47.9719 22.7982 47.97 22.7682 47.9688C22.7389 47.9669 22.7095 47.965 22.6802 47.9638V47.9631Z" fill="#7CA5B9"/>
<path opacity="0.6" d="M23.4795 47.9937C23.5313 47.995 23.5825 47.9956 23.6344 47.9962C23.5438 47.995 23.4532 47.9931 23.3633 47.9906C23.4014 47.9918 23.4407 47.9925 23.4795 47.9937Z" fill="#7CA5B9"/>
<path opacity="0.6" d="M22.8911 47.9744C22.9536 47.9775 23.016 47.98 23.0791 47.9819C23.0167 47.9794 22.9542 47.9769 22.8911 47.9744Z" fill="#7CA5B9"/>
<path opacity="0.6" d="M23.6343 47.9962C23.7092 47.9975 23.7842 47.9981 23.8591 47.9987C23.7842 47.9987 23.7092 47.9975 23.6343 47.9962Z" fill="#7CA5B9"/>
<path opacity="0.6" d="M23.0786 47.9819C23.1736 47.9857 23.2685 47.9882 23.3634 47.9907H23.3622C23.2673 47.9882 23.1729 47.9851 23.0786 47.9819Z" fill="#7CA5B9"/>
<path opacity="0.6" d="M23.9935 47.9994C23.9935 47.9994 23.9979 48 24.0004 48C23.9536 48 23.9067 47.9988 23.8599 47.9988C23.9042 47.9988 23.9492 47.9994 23.9942 47.9994H23.9935Z" fill="#7CA5B9"/>
<path opacity="0.6" d="M22.3477 47.9431C22.4582 47.9506 22.5694 47.9569 22.68 47.9631C22.5688 47.9569 22.4582 47.9506 22.3477 47.9431Z" fill="#7CA5B9"/>
<path opacity="0.6" d="M24.5137 47.9944C24.6398 47.9919 24.7654 47.9881 24.8909 47.9838C24.8072 47.9863 24.7229 47.9888 24.6386 47.9913C24.5999 47.9925 24.5605 47.9931 24.5212 47.9944C24.5187 47.9944 24.5162 47.9944 24.5137 47.9944Z" fill="#7CA5B9"/>
<path opacity="0.6" d="M24.0074 47.9994C24.0679 47.9994 24.1285 47.9994 24.1898 47.9982C24.1267 47.9982 24.0636 48 24.0005 48C24.003 48 24.0049 47.9994 24.0074 47.9994Z" fill="#7CA5B9"/>
<path opacity="0.6" d="M24.1899 47.9981C24.2274 47.9981 24.2655 47.9981 24.303 47.9968C24.2655 47.9968 24.2274 47.9974 24.1899 47.9981Z" fill="#7CA5B9"/>
<path opacity="0.6" d="M24.8911 47.9831C25.0073 47.9794 25.1229 47.9738 25.2384 47.9675C25.2365 47.9675 25.2347 47.9675 25.2328 47.9675C25.2028 47.9688 25.1728 47.9707 25.1428 47.9719C25.0591 47.9763 24.9754 47.9794 24.8911 47.9825V47.9831Z" fill="#7CA5B9"/>
<path opacity="0.6" d="M25.2383 47.9681C25.3801 47.9606 25.5225 47.9519 25.6643 47.9425C25.5225 47.9525 25.3807 47.9612 25.2383 47.9681Z" fill="#7CA5B9"/>
<path opacity="0.6" d="M25.665 47.9419C25.7031 47.9394 25.7419 47.9376 25.78 47.9344C25.7487 47.9369 25.7175 47.9388 25.6863 47.9407C25.6794 47.9407 25.6719 47.9413 25.665 47.9419Z" fill="#7CA5B9"/>
<path opacity="0.6" d="M26.8663 47.8301C26.6689 47.8538 26.4703 47.8744 26.271 47.8932C26.2729 47.8932 26.2747 47.8932 26.2772 47.8932C26.3153 47.8894 26.3534 47.8857 26.3916 47.8819C26.5502 47.8663 26.7089 47.8494 26.8663 47.8307V47.8301Z" fill="#7CA5B9"/>
<path opacity="0.6" d="M25.7798 47.9344C25.9441 47.9225 26.1077 47.9082 26.2707 47.8932C26.1071 47.9088 25.9434 47.9225 25.7798 47.9344Z" fill="#7CA5B9"/>
<path opacity="0.6" d="M26.9048 47.8257C27.0416 47.8095 27.1777 47.7907 27.3133 47.772C27.1771 47.7913 27.0416 47.8095 26.9048 47.8257Z" fill="#7CA5B9"/>
<path opacity="0.6" d="M27.5184 47.7433C27.6808 47.7196 27.8432 47.694 28.0043 47.6671C27.7757 47.7058 27.5446 47.7402 27.3135 47.7721C27.3428 47.7677 27.3722 47.7639 27.4022 47.7596C27.4409 47.7546 27.4796 47.7489 27.5184 47.7433Z" fill="#7CA5B9"/>
<path opacity="0.6" d="M28.5241 47.5734C28.5559 47.5672 28.5884 47.5615 28.6209 47.5553C28.416 47.5959 28.2111 47.6328 28.0044 47.6671C28.0331 47.6621 28.0612 47.6571 28.0893 47.6521C28.2349 47.6271 28.3798 47.6009 28.5241 47.5734Z" fill="#7CA5B9"/>
<path opacity="0.6" d="M28.6211 47.5552C28.7804 47.524 28.939 47.4909 29.0964 47.4572C28.9384 47.4921 28.7804 47.5246 28.6211 47.5552Z" fill="#7CA5B9"/>
<path opacity="0.6" d="M29.701 47.3185C29.5386 47.3585 29.3756 47.3959 29.2119 47.4315C29.3631 47.3978 29.513 47.3641 29.6635 47.3272C29.676 47.3241 29.6885 47.3216 29.701 47.3185Z" fill="#7CA5B9"/>
<path opacity="0.6" d="M29.0962 47.4571C29.1349 47.449 29.173 47.4403 29.2118 47.4315C29.2111 47.4315 29.2099 47.4315 29.2093 47.4315C29.1718 47.4396 29.1343 47.4484 29.0962 47.4565V47.4571Z" fill="#7CA5B9"/>
<path opacity="0.6" d="M32.3164 46.5197C32.4114 46.4847 32.5069 46.4491 32.6012 46.4122C32.5269 46.441 32.452 46.4691 32.3776 46.4972C32.3608 46.5034 32.3433 46.5097 32.3264 46.5159C32.3233 46.5172 32.3195 46.5184 32.3164 46.5197Z" fill="#7CA5B9"/>
<path opacity="0.6" d="M30.2919 47.1662C30.4449 47.1249 30.5986 47.0812 30.7504 47.0369C30.4818 47.1156 30.2113 47.1899 29.939 47.2592C30.0183 47.2386 30.097 47.218 30.1763 47.1968C30.2144 47.1868 30.2532 47.1768 30.2919 47.1662Z" fill="#7CA5B9"/>
<path opacity="0.6" d="M30.75 47.0374C30.7787 47.0293 30.8075 47.0206 30.8362 47.0118C30.8093 47.0193 30.7825 47.0281 30.7556 47.0356C30.7537 47.0356 30.7525 47.0362 30.7506 47.0368L30.75 47.0374Z" fill="#7CA5B9"/>
<path opacity="0.6" d="M31.9077 46.6658C32.0445 46.6183 32.1806 46.5696 32.3162 46.5197C31.8302 46.6995 31.3368 46.8638 30.8364 47.0119C30.9738 46.9706 31.1106 46.9288 31.2474 46.8857L31.3468 46.8538C31.4979 46.8057 31.6478 46.7558 31.7977 46.7039C31.8346 46.6914 31.8708 46.6789 31.9077 46.6658Z" fill="#7CA5B9"/>
<path opacity="0.6" d="M32.9044 26.0822H22.6729C23.2219 26.0585 23.7828 26.0385 24.3544 26.0229H24.3562C24.6286 26.0447 25.7598 26.0291 27.1646 25.9973H27.174C29.3108 25.9873 32.0255 25.9923 32.9044 26.0822Z" fill="#7CA5B9"/>
<path opacity="0.6" d="M32.6011 46.4122C32.7141 46.3697 32.8266 46.3254 32.9384 46.2798C32.9003 46.2948 32.8622 46.3098 32.8241 46.3248C32.7504 46.3541 32.6754 46.3835 32.6011 46.4122Z" fill="#7CA5B9"/>
<path opacity="0.6" d="M33.9385 45.8512C34.0391 45.8056 34.139 45.7582 34.2396 45.7107C34.1197 45.7675 33.9991 45.8238 33.8779 45.8787C33.8979 45.87 33.9185 45.8606 33.9385 45.8512Z" fill="#7CA5B9"/>
<path opacity="0.6" d="M34.9102 45.3822C34.7321 45.4734 34.5516 45.5621 34.3711 45.6489C34.403 45.6333 34.4354 45.6177 34.4667 45.6021C34.5947 45.5402 34.7221 45.4771 34.8483 45.4128C34.8689 45.4028 34.8895 45.3928 34.9102 45.3822Z" fill="#7CA5B9"/>
<path opacity="0.6" d="M34.2393 45.7108C34.283 45.6902 34.3273 45.6702 34.3711 45.6489C34.3673 45.6508 34.3642 45.6527 34.3604 45.6539C34.3205 45.6733 34.2792 45.6914 34.2393 45.7108Z" fill="#7CA5B9"/>
<path opacity="0.6" d="M33.4525 46.0661C33.5031 46.0442 33.5531 46.0218 33.6037 45.9993C33.5387 46.028 33.4738 46.0567 33.4082 46.0848C33.4226 46.0786 33.4376 46.0724 33.4519 46.0661H33.4525Z" fill="#7CA5B9"/>
<path opacity="0.6" d="M33.6036 46C33.6948 45.96 33.7867 45.92 33.8772 45.8788C33.8635 45.885 33.8504 45.8913 33.8366 45.8969C33.7592 45.9319 33.6811 45.9656 33.603 45.9993L33.6036 46Z" fill="#7CA5B9"/>
<path opacity="0.6" d="M32.9385 46.2797C33.0959 46.2166 33.2527 46.151 33.4088 46.0848C33.3976 46.0898 33.387 46.0948 33.3751 46.0992C33.2302 46.161 33.0846 46.221 32.9385 46.2797Z" fill="#7CA5B9"/>
<path opacity="0.6" d="M35.918 44.8356C36.0366 44.7675 36.1547 44.6981 36.2721 44.6282C36.1547 44.6994 36.0366 44.7681 35.918 44.8356Z" fill="#7CA5B9"/>
<path opacity="0.6" d="M38.2148 43.3383C38.3217 43.2596 38.4278 43.1803 38.5334 43.0997C38.4278 43.1816 38.3217 43.2609 38.2148 43.3383Z" fill="#7CA5B9"/>
<path opacity="0.6" d="M39.0914 42.6606C39.1914 42.58 39.2901 42.4988 39.3888 42.4164C39.2588 42.5263 39.1271 42.6338 38.9946 42.7399C39.0265 42.7137 39.0596 42.6875 39.0914 42.6606Z" fill="#7CA5B9"/>
<path opacity="0.6" d="M39.3892 42.4164C39.4597 42.3589 39.5297 42.2996 39.599 42.239C39.5559 42.2759 39.5128 42.3127 39.4697 42.349L39.3892 42.4164Z" fill="#7CA5B9"/>
<path opacity="0.6" d="M40.1392 41.7624C40.201 41.7068 40.2622 41.6506 40.3234 41.5925C40.2991 41.6156 40.2747 41.6388 40.2497 41.6612C40.2129 41.695 40.176 41.7287 40.1392 41.7624Z" fill="#7CA5B9"/>
<path opacity="0.6" d="M40.8906 41.049C40.9675 40.9741 41.0437 40.8973 41.118 40.8204C41.0836 40.8548 41.0499 40.8898 41.0156 40.9241C40.9743 40.966 40.9325 41.0072 40.8906 41.049Z" fill="#7CA5B9"/>
<path opacity="0.6" d="M41.4126 40.5157C41.4682 40.4563 41.5244 40.3976 41.5794 40.3383C41.5388 40.3826 41.4969 40.427 41.4557 40.4707C41.4413 40.4863 41.427 40.5007 41.4126 40.5157Z" fill="#7CA5B9"/>
<path opacity="0.6" d="M41.3657 40.5644C41.3813 40.5481 41.3969 40.5319 41.4125 40.515C41.3157 40.6175 41.2176 40.7193 41.1177 40.8205C41.2008 40.7355 41.2832 40.6506 41.3657 40.5644Z" fill="#7CA5B9"/>
<path opacity="0.6" d="M41.9917 39.8828C42.071 39.7941 42.1485 39.7048 42.2247 39.6149C42.191 39.6542 42.1572 39.6936 42.1235 39.7323C42.0798 39.7829 42.036 39.8329 41.9917 39.8828Z" fill="#7CA5B9"/>
<path opacity="0.6" d="M43.4746 38.0277C43.5402 37.9378 43.6052 37.8466 43.6689 37.7554C43.6289 37.8116 43.5889 37.8678 43.5489 37.924C43.5246 37.959 43.4996 37.9934 43.4746 38.0277Z" fill="#7CA5B9"/>
<path opacity="0.6" d="M44.0792 37.1488C44.1085 37.1039 44.1385 37.0589 44.1679 37.0133C44.0461 37.2032 43.9205 37.3912 43.7925 37.5774C43.7975 37.5699 43.8025 37.5617 43.8075 37.5542C43.8331 37.518 43.8574 37.4812 43.8824 37.4443C43.9486 37.3462 44.0142 37.2475 44.0792 37.1488Z" fill="#7CA5B9"/>
<path opacity="0.6" d="M44.3081 36.7946C44.3656 36.7034 44.4224 36.611 44.4793 36.5186C44.4793 36.5192 44.478 36.5204 44.4774 36.5211C44.4549 36.5579 44.433 36.5948 44.4105 36.631C44.3768 36.686 44.3425 36.7403 44.3081 36.7946Z" fill="#7CA5B9"/>
<path opacity="0.6" d="M44.479 36.5187C44.5315 36.4343 44.5821 36.3488 44.6333 36.2632C44.5821 36.3488 44.5308 36.4337 44.479 36.5187Z" fill="#7CA5B9"/>
<path opacity="0.6" d="M44.7491 36.067C44.8028 35.9746 44.8559 35.8815 44.9084 35.7891C44.8441 35.9027 44.7791 36.0164 44.7129 36.1289C44.7248 36.1083 44.7373 36.0876 44.7491 36.067Z" fill="#7CA5B9"/>
<path opacity="0.6" d="M45.0186 35.5916C45.0798 35.481 45.1397 35.3705 45.1991 35.2593C45.1429 35.3642 45.086 35.4692 45.0286 35.5735C45.0254 35.5797 45.0217 35.5853 45.0186 35.5916Z" fill="#7CA5B9"/>
<path opacity="0.6" d="M44.9082 35.789C44.9244 35.7596 44.9419 35.7303 44.9582 35.7009C44.9544 35.7078 44.9507 35.714 44.9469 35.7209C44.9344 35.7434 44.9207 35.7659 44.9082 35.789Z" fill="#7CA5B9"/>
<path opacity="0.6" d="M44.6328 36.2631C44.6597 36.2181 44.6859 36.1738 44.7128 36.1288C44.6953 36.1588 44.6778 36.1888 44.6597 36.2187C44.6509 36.2337 44.6416 36.2481 44.6328 36.2631Z" fill="#7CA5B9"/>
<path opacity="0.6" d="M45.2871 35.092C45.3477 34.9758 45.407 34.859 45.4658 34.7422C45.4583 34.7578 45.4501 34.7734 45.4426 34.7884C45.3914 34.8902 45.3396 34.9914 45.2871 35.092Z" fill="#7CA5B9"/>
<path opacity="0.6" d="M45.4658 34.7422C45.4827 34.7085 45.5002 34.6741 45.517 34.6404C45.5002 34.6741 45.4833 34.7085 45.4658 34.7422Z" fill="#7CA5B9"/>
<path opacity="0.6" d="M45.5171 34.6403C45.5777 34.5179 45.6376 34.3948 45.6964 34.2705C45.642 34.3842 45.5877 34.4972 45.5321 34.6097C45.5271 34.6197 45.5221 34.6297 45.5171 34.6403Z" fill="#7CA5B9"/>
<path opacity="0.6" d="M45.7808 34.09C45.837 33.9707 45.8913 33.8508 45.9444 33.7302C45.9325 33.7571 45.9201 33.7839 45.9082 33.8108C45.8663 33.9045 45.8239 33.9976 45.7808 34.09Z" fill="#7CA5B9"/>
<path opacity="0.6" d="M46.0654 33.4529C46.0967 33.3804 46.1266 33.3073 46.1573 33.2343C46.1541 33.2411 46.1516 33.2486 46.1485 33.2555C46.121 33.3217 46.0935 33.3873 46.0654 33.4529Z" fill="#7CA5B9"/>
<path opacity="0.6" d="M46.334 32.7983L46.3715 32.7046C46.3028 32.8826 46.2309 33.0588 46.1572 33.2343C46.181 33.1774 46.2047 33.12 46.2284 33.0625C46.264 32.9751 46.2996 32.8864 46.334 32.7983Z" fill="#7CA5B9"/>
<path opacity="0.6" d="M46.3716 32.7045C46.4097 32.6077 46.4465 32.5109 46.4828 32.4135C46.4584 32.4797 46.4334 32.5453 46.4078 32.6108C46.3959 32.6421 46.3835 32.6733 46.3716 32.7045Z" fill="#7CA5B9"/>
<path opacity="0.6" d="M46.5516 32.2286C46.5297 32.288 46.5078 32.3479 46.4854 32.4073C46.5072 32.3479 46.5291 32.288 46.5509 32.2286H46.5516Z" fill="#7CA5B9"/>
</g>
</g>
<path d="M18.7241 18.8976V18.9038C18.7231 18.9993 18.6981 19.0958 18.6473 19.1837L16.8545 22.2888C16.6961 22.5629 16.3418 22.6579 16.0678 22.4995C15.9401 22.4256 15.8513 22.3099 15.809 22.1793C15.7601 22.0291 15.7721 21.8597 15.857 21.7128L17.6493 18.6077C17.8077 18.3336 18.162 18.2385 18.4366 18.3969C18.4711 18.4166 18.5023 18.4397 18.5311 18.4656C18.6559 18.576 18.7241 18.7353 18.7241 18.8976Z" fill="#F41C5E"/>
<path opacity="0.1" d="M18.7241 18.9038C18.7232 18.9993 18.6982 19.0958 18.6473 19.1837L16.8545 22.2888C16.6961 22.5629 16.3419 22.6579 16.0678 22.4995C15.9401 22.4256 15.8513 22.3099 15.8091 22.1793L18.5312 18.4656L18.7241 18.9038Z" fill="#222222"/>
<path d="M28.7578 12.095C28.7578 12.095 28.7021 12.9259 28.6714 13.2451C28.6628 13.333 28.6469 13.4246 28.5913 13.4928C28.4213 13.6982 27.3327 13.3714 27.2151 13.3358C27.2151 13.3354 27.2141 13.3354 27.2137 13.3354C27.2079 13.3334 27.205 13.3325 27.205 13.3325C27.205 13.3325 26.8244 13.5125 26.4663 13.6853C26.1481 13.8384 25.8471 13.9853 25.8461 13.9939L25.3863 14.4336C24.6509 13.8374 24.1028 13.2778 23.3247 12.7382C23.6079 12.6168 24.0749 12.4685 24.3937 12.3614C24.2396 11.7864 23.7697 10.9666 23.7793 10.3714C23.7889 9.77568 23.9852 9.15696 24.4316 8.76336C24.9836 8.27664 25.7833 8.2248 26.5186 8.19744C26.9271 8.18208 27.6898 8.41488 28.0052 8.67408C28.1669 8.80704 28.273 8.99424 28.3609 9.18432C28.5567 9.60864 28.6767 10.0675 28.7141 10.5326C28.7338 10.7765 28.7669 11.2315 28.7669 11.2315" fill="#9B6D51"/>
<path d="M27.9414 12.6437C27.9414 12.6437 27.9433 12.6442 27.9448 12.6456C27.9457 12.6466 27.9467 12.6475 27.9476 12.6494C27.9644 12.6778 27.9904 12.8088 28.1766 12.8722C28.2155 12.8856 28.263 12.8827 28.3187 12.8798C28.3201 12.8798 28.3216 12.8789 28.323 12.8784C28.3244 12.8784 28.3254 12.8784 28.3268 12.8784C28.335 12.875 28.3417 12.8693 28.347 12.8621C28.3628 12.8309 28.3316 12.7646 28.287 12.6624C28.287 12.6624 28.2875 12.6624 28.288 12.6619C28.3273 12.6408 28.3494 12.6192 28.3739 12.5938C28.2366 12.6034 27.9841 12.6418 27.9414 12.6442V12.6437Z" fill="#9B6D51"/>
<path d="M27.8838 12.6466C27.951 12.6533 28.082 12.6547 28.143 12.648C28.2083 12.6408 28.263 12.6389 28.2879 12.6614C28.3273 12.6403 28.3494 12.6187 28.3739 12.5933C28.3743 12.5928 28.3748 12.5923 28.3753 12.5914C28.4223 12.5424 28.4555 12.5189 28.4612 12.5006C28.4612 12.5006 28.4612 12.5002 28.4612 12.4997C28.4627 12.4925 28.4631 12.4862 28.4627 12.4805C28.4627 12.4795 28.4627 12.479 28.4627 12.4781C28.4607 12.4781 28.4588 12.4781 28.4569 12.4781C28.4396 12.4733 28.382 12.445 28.37 12.4445C28.3259 12.4421 27.9759 12.6475 27.8833 12.6466H27.8838Z" fill="#9B6D51"/>
<path opacity="0.1" d="M25.8185 10.919C25.6817 10.787 25.3884 10.5571 25.1484 10.6257C24.8739 10.7045 24.8287 11.0731 24.9017 11.2805C25.0164 11.6049 25.3846 12.1785 25.6678 12.1349C25.951 12.0907 25.902 11.6568 25.8943 11.4221C25.8867 11.1873 25.8723 10.9723 25.818 10.92L25.8185 10.919Z" fill="#222222"/>
<path opacity="0.1" d="M27.2132 13.3349C27.2074 13.3329 27.2045 13.332 27.2045 13.332C27.2045 13.332 26.8239 13.512 26.4658 13.6848C26.2143 13.3483 25.9815 12.9302 25.9215 12.7656C25.8605 12.5985 25.9181 12.2544 25.9321 11.9597C25.9397 12.1593 25.9709 12.4411 26.0281 12.539C26.0957 12.6552 26.3737 12.9811 27.2132 13.3344V13.3349Z" fill="#222222"/>
<path d="M28.4633 9.00142C28.0323 8.59726 27.2758 8.61406 26.863 9.03694C26.7838 9.11806 26.7147 9.2155 26.695 9.32782C26.6499 9.58846 26.8812 9.84622 26.814 10.1021C26.7276 10.4313 26.2044 10.5432 26.2073 10.884C26.2092 11.1014 24.2302 9.62878 25.4868 12.0921C25.5536 12.2227 25.1993 12.2846 25.0568 12.3177C24.8211 12.372 24.5513 12.5448 24.3929 12.3619C24.3286 12.2875 24.3684 12.3177 24.3219 12.2309C24.2038 12.0115 24.4371 12.3345 24.246 12.1747C23.7775 11.7821 23.6494 11.2569 23.6475 10.6459C23.646 10.1328 23.8304 9.63934 24.0128 9.15982C24.1611 8.76814 24.3411 8.34094 24.7179 8.15854C25.0937 7.97614 25.5459 8.09758 25.9539 8.00686C26.3503 7.91854 26.6979 7.6315 27.104 7.62814C27.4361 7.62526 27.7448 7.82062 27.9584 8.07502C28.1715 8.32942 28.3054 8.6395 28.4355 8.94526L28.4628 9.00286L28.4633 9.00142Z" fill="#333333"/>
<path d="M24.159 12.013C24.0285 11.6789 23.8417 11.352 23.5475 11.1475C23.2533 10.9426 22.8333 10.8879 22.5381 11.0919C22.2193 11.3117 22.0921 11.7802 21.7221 11.8944C21.3486 12.0096 20.9949 11.6919 20.7198 11.4144C20.2139 10.9042 19.5865 10.4107 18.8684 10.4405C18.0428 10.4751 17.3536 11.3362 17.5009 12.1493C17.572 11.7883 18.0092 11.5915 18.3673 11.6736C18.7259 11.7557 19.0033 12.0408 19.2059 12.348C19.4084 12.6547 19.5587 12.996 19.7848 13.2864C20.127 13.7256 20.6579 14.0319 21.2147 14.0347C21.7715 14.0376 22.3341 13.704 22.5366 13.1851C22.6134 12.9888 22.6388 12.7767 22.7056 12.577C22.9033 11.9847 23.4923 11.5459 24.1163 11.5253L24.1585 12.013H24.159Z" fill="#333333"/>
<path d="M25.8561 10.8456C25.7265 10.7141 25.4486 10.4846 25.2211 10.5542C24.9605 10.6334 24.9163 11.0026 24.9849 11.2094C25.0929 11.5334 25.4409 12.1061 25.7097 12.0614C25.9785 12.0168 25.9334 11.5824 25.9267 11.3482C25.92 11.1134 25.907 10.8984 25.8557 10.8461L25.8561 10.8456Z" fill="#9B6D51"/>
<path d="M20.9364 26.6155C20.9364 26.6155 16.2324 25.8106 16.1162 26.0558L19.1738 33.0014C19.1738 33.0014 19.1532 35.5666 19.4801 36.0989C19.8065 36.6312 21.9333 42.1718 21.9333 42.1718L23.8711 42.0773C23.8711 42.0773 22.2161 34.0142 22.1023 33.3245C21.9885 32.6347 20.9369 26.616 20.9369 26.616L20.9364 26.6155Z" fill="#9B6D51"/>
<path opacity="0.1" d="M20.9364 26.6155C20.9364 26.6155 16.2324 25.8106 16.1162 26.0558L19.1738 33.0014C19.1738 33.0014 19.1532 35.5666 19.4801 36.0989C19.8065 36.6312 21.9333 42.1718 21.9333 42.1718L23.8711 42.0773C23.8711 42.0773 22.2161 34.0142 22.1023 33.3245C21.9885 32.6347 20.9369 26.616 20.9369 26.616L20.9364 26.6155Z" fill="#222222"/>
<path d="M16.1162 26.0558L19.0649 32.7538C19.661 31.9286 21.0804 31.4726 21.8325 31.7568C21.4922 29.7984 20.9369 26.616 20.9369 26.616C20.9369 26.616 16.2329 25.811 16.1167 26.0563L16.1162 26.0558Z" fill="#333333"/>
<path opacity="0.1" d="M16.1162 26.0558L19.0649 32.7538C19.661 31.9286 21.0804 31.4726 21.8325 31.7568C21.4922 29.7984 20.9369 26.616 20.9369 26.616C20.9369 26.616 16.2329 25.811 16.1167 26.0563L16.1162 26.0558Z" fill="#222222"/>
<path d="M26.8084 42.0447C26.4445 42.1066 25.7864 42.1474 25.7864 42.1474L24.2677 41.4437L24.0143 41.3573C24.0143 41.3573 23.6044 41.8944 23.1282 41.904C22.6525 41.9136 21.9028 41.5085 21.6925 41.6573L21.5917 42.2813C21.5917 42.2813 21.5264 42.9639 21.6239 43.3867L21.5869 43.9517C21.5869 43.9517 23.0989 44.1922 23.661 43.9287C24.2231 43.6651 24.6695 43.6733 24.8989 43.6536C25.1279 43.6339 26.3903 43.465 26.8986 43.1136C27.4069 42.7623 27.5874 42.5314 27.5874 42.5314C27.5874 42.5314 27.1717 41.9818 26.8079 42.0437L26.8084 42.0447Z" fill="#F5D970"/>
<path d="M21.6292 43.4021C21.6292 43.4021 21.6253 43.4021 21.6234 43.4021L21.5874 43.9527C21.5874 43.9527 23.0994 44.1931 23.6615 43.9296C24.2236 43.6661 24.67 43.6743 24.8994 43.6546C25.1284 43.6349 26.3908 43.4659 26.8991 43.1146C27.4074 42.7632 27.5879 42.5323 27.5879 42.5323C27.5879 42.5323 27.5514 42.4843 27.4919 42.4191C25.748 43.4794 23.5708 43.5581 21.6296 43.4021H21.6292Z" fill="white"/>
<path d="M21.4692 36.7339C21.4692 36.7339 21.2882 36.7704 21.0698 36.7584C21.2388 37.127 21.3847 37.5129 21.6103 37.8494C21.7754 38.0961 21.9722 38.2483 22.2017 38.3131L21.593 36.947L21.4697 36.7339H21.4692Z" fill="white"/>
<path d="M23.8793 12.6091C23.1737 12.5606 23.0086 12.8808 21.9703 13.4957C20.8183 14.1778 19.5137 16.5845 18.2527 18.9965C16.9918 21.4085 16.062 22.9003 16.062 22.9003L21.2153 24.2558L24.535 19.6944C24.535 19.6944 25.7935 16.2259 25.9092 15.2986C26.0614 14.0808 24.6055 12.6586 23.8793 12.6091Z" fill="#F41C5E"/>
<path opacity="0.1" d="M24.7502 19.0906C24.6211 19.4573 24.5352 19.6944 24.5352 19.6944L23.6318 20.9352L23.0928 15.9096L24.7502 19.0906Z" fill="#222222"/>
<path opacity="0.1" d="M20.8419 21.8698C20.2083 19.3853 21.018 16.9378 21.7313 14.5728C21.8825 14.0722 22.1086 13.6229 22.3942 13.2317C22.2699 13.3128 22.1316 13.4002 21.9708 13.4952C20.8188 14.1773 19.5142 16.584 18.2532 18.996C16.9923 21.408 16.0625 22.8998 16.0625 22.8998L21.2158 24.2554L21.6636 23.64C21.2926 23.1125 21.0084 22.5197 20.8428 21.8693L20.8419 21.8698Z" fill="#222222"/>
<path d="M23.1292 41.076C23.0701 40.9652 22.9319 40.9234 22.8215 40.9829C22.7101 41.0367 22.6689 41.1802 22.7284 41.2906L24.1348 43.92C24.1938 44.0309 24.3321 44.0727 24.4425 44.0132C24.4521 44.0088 24.4602 44.0031 24.4689 43.9968C24.5596 43.9311 24.5903 43.8068 24.5361 43.705L23.1297 41.0756L23.1292 41.076Z" fill="#333333"/>
<path d="M25.2623 43.5298L23.3659 43.8773C23.2315 43.9018 23.1427 44.0309 23.1671 44.1648C23.182 44.2474 23.2363 44.3122 23.3068 44.3448C23.3515 44.3655 23.4028 44.3727 23.4547 44.3636L25.355 44.0112C25.4894 43.9868 25.5743 43.8624 25.5499 43.728C25.5254 43.5936 25.3967 43.5048 25.2623 43.5293V43.5298Z" fill="#F41C5E"/>
<path d="M18.5772 36.7066C18.5772 36.7066 18.5748 36.7042 18.5734 36.7028L18.2148 37.0628C18.2148 37.0628 19.1172 38.1447 19.6664 38.3026C20.2155 38.46 20.5203 38.736 20.6907 38.8613C20.8611 38.9866 21.8388 39.6332 22.4038 39.6975C22.9688 39.7618 23.2337 39.7109 23.2337 39.7109C23.2337 39.7109 23.2376 39.6557 23.2356 39.5741C21.3852 39.2535 19.8281 37.9896 18.5772 36.7061V36.7066Z" fill="#222222"/>
<path d="M32.9003 24.8314L32.775 24.9917C32.7793 24.995 33.2094 25.3416 33.2286 26.0078C33.2521 26.8152 32.6665 27.7718 31.5352 28.7746L31.67 28.9267C32.8676 27.865 33.46 26.879 33.4316 25.9958C33.4072 25.2341 32.9204 24.8472 32.8998 24.8314H32.9003Z" fill="#222222"/>
<path d="M13.1479 40.2385L18.712 38.2167L18.6136 37.946L18.556 37.9666L13.0092 39.9821L17.3618 35.9069L17.165 35.6962L17.1204 35.738L12.8436 39.7426L15.3482 34.3786L15.0871 34.2567L12.5642 39.6591L12.7605 33.6999L12.472 33.6903L12.4701 33.7513L12.2772 39.6073L10.2559 34.0426L9.98468 34.1415L10.0058 34.1986L12.0208 39.746L7.94564 35.3929L7.7354 35.5897L7.77716 35.6343L11.7818 39.9116L6.41732 37.4065L6.2954 37.6681L11.6978 40.1905L5.7386 39.9941L5.729 40.2826L5.78996 40.2845L11.646 40.4775L6.0818 42.4993L6.1802 42.77L6.2378 42.7493L11.7847 40.7338L7.43156 44.809L7.62884 45.0193L7.67348 44.9775L11.9503 40.9733L9.44564 46.3373L9.70676 46.4593L12.2296 41.0564L12.0333 47.0161L12.3213 47.0257L12.3232 46.9647L12.5162 41.1087L14.538 46.6729L14.8087 46.5745L14.788 46.5173L12.7725 40.97L16.8477 45.3231L17.0584 45.1263L17.0167 45.0817L13.012 40.8044L18.3765 43.3095L18.4984 43.0484L13.0956 40.525L19.0552 40.7213L19.0644 40.4333L19.0034 40.4314L13.1479 40.2385Z" fill="#A7A7A7"/>
<path d="M36.4169 40.2385L41.9811 38.2167L41.8827 37.946L41.8251 37.9666L36.2782 39.9821L40.6313 35.9069L40.434 35.6962L40.3894 35.738L36.1126 39.7426L38.6172 34.3786L38.3561 34.2567L35.8332 39.6591L36.0296 33.6999L35.7416 33.6903L35.7396 33.7513L35.5467 39.6073L33.5249 34.0426L33.2537 34.1415L33.2748 34.1986L35.2904 39.746L31.2147 35.3929L31.0044 35.5897L31.0462 35.6343L35.0508 39.9116L29.6864 37.4065L29.5644 37.6681L34.9673 40.1905L29.0076 39.9941L28.998 40.2826L29.059 40.2845L34.915 40.4775L29.3508 42.4993L29.4492 42.77L29.5068 42.7493L35.0537 40.7338L30.7011 44.809L30.8979 45.0193L30.9425 44.9775L35.2193 40.9733L32.7147 46.3373L32.9758 46.4593L35.4987 41.0564L35.3024 47.0161L35.5904 47.0257L35.5928 46.9647L35.7852 41.1087L37.807 46.6729L38.0782 46.5745L38.0571 46.5173L36.0416 40.97L40.1172 45.3231L40.3275 45.1263L40.2857 45.0817L36.2816 40.8044L41.6456 43.3095L41.7675 43.0484L36.3646 40.525L42.3243 40.7213L42.3339 40.4333L42.2729 40.4314L36.4169 40.2385Z" fill="#A7A7A7"/>
<path d="M12.3643 33.0586C8.35535 33.0586 5.09375 36.3197 5.09375 40.3287C5.09375 44.3376 8.35535 47.5992 12.3643 47.5992C16.3733 47.5992 19.6349 44.3376 19.6349 40.3287C19.6349 36.3197 16.3733 33.0581 12.3643 33.0581V33.0586ZM12.3643 46.8288C8.78063 46.8288 5.86463 43.9133 5.86463 40.3291C5.86463 36.745 8.78063 33.8295 12.3643 33.8295C15.948 33.8295 18.864 36.7455 18.864 40.3291C18.864 43.9128 15.948 46.8288 12.3643 46.8288Z" fill="#222222"/>
<path d="M36.4635 33.2089C32.481 32.7524 28.869 35.6209 28.4125 39.6039C27.956 43.587 30.825 47.1985 34.8075 47.6554C38.7901 48.1119 42.4021 45.243 42.8586 41.2604C43.315 37.2774 40.4466 33.6658 36.4635 33.2089ZM42.093 41.1726C41.685 44.7332 38.456 47.2978 34.8954 46.8894C31.3347 46.4814 28.7701 43.2524 29.1781 39.6918C29.5861 36.1311 32.815 33.5665 36.3757 33.9745C39.9363 34.3825 42.501 37.6114 42.093 41.1726Z" fill="#222222"/>
<path d="M13.0253 39.6452L20.0429 31.2543L19.6181 30.9216L12.3965 39.5736L12.8981 40.6479L22.3248 40.5984L22.331 40.0589L13.2432 40.1122L13.0253 39.6452Z" fill="#5C5C5C"/>
<path d="M19.4805 30.7709V31.5418H31.479L31.5808 31.7794L23.8163 38.377L24.3419 38.9405L32.5019 31.9738L31.9873 30.7709H19.4805Z" fill="#5C5C5C"/>
<path d="M32.5958 23.9986C32.3433 23.8637 32.0803 23.9045 31.9771 23.9285L32.076 24.6154C32.0985 24.613 32.1211 24.6082 32.1427 24.6015C32.1437 24.6015 32.2224 24.5851 32.2685 24.6101C32.303 24.6288 32.3251 24.6826 32.3376 24.7248C32.4033 24.9499 32.0237 25.2413 31.7721 25.4338C31.7285 25.4674 31.6862 25.4995 31.6478 25.5303C31.6017 25.5667 31.5561 25.5994 31.512 25.6315C31.1462 25.8946 30.8539 26.1768 30.9792 26.9621L31.2101 28.5576C31.2331 28.717 31.3608 28.8351 31.5134 28.8523C31.5427 28.8557 31.5725 28.8552 31.6027 28.8509C31.7923 28.8235 31.9238 28.6474 31.8965 28.4578L31.6651 26.8575C31.596 26.4255 31.6704 26.3717 31.9171 26.1941C31.9694 26.1562 32.0241 26.1168 32.0793 26.0731C32.1149 26.0448 32.1537 26.0151 32.1945 25.9839C32.5713 25.6944 33.2025 25.2106 33.0033 24.5295C32.9136 24.2223 32.7321 24.0706 32.5958 23.9976V23.9986Z" fill="#5C5C5C"/>
<path d="M19.0789 28.3161C19.0357 28.1736 18.885 28.0929 18.7424 28.1366C18.5999 28.1798 18.5192 28.3305 18.5624 28.4731L19.688 32.2608C19.7212 32.3697 19.8176 32.4427 19.9247 32.4513C19.9573 32.4537 19.9914 32.4504 20.0245 32.4403C20.1671 32.3971 20.2477 32.2464 20.2045 32.1038L19.0789 28.3161Z" fill="#5C5C5C"/>
<path d="M12.3383 39.2112C11.6792 39.2112 11.1436 39.7473 11.1436 40.4059C11.1436 41.0645 11.6792 41.6006 12.3383 41.6006C12.9968 41.6006 13.533 41.0649 13.533 40.4059C13.533 39.7473 12.9973 39.2112 12.3383 39.2112ZM12.3383 41.0611C11.9768 41.0611 11.6831 40.7673 11.6831 40.4059C11.6831 40.0449 11.9768 39.7507 12.3383 39.7507C12.6997 39.7507 12.9935 40.0445 12.9935 40.4059C12.9935 40.7669 12.6997 41.0611 12.3383 41.0611Z" fill="#222222"/>
<path d="M12.2172 39.4829C12.0703 39.5088 11.9724 39.6485 11.9983 39.7954C12.0213 39.9264 12.1351 40.0186 12.2637 40.0186C12.2791 40.0186 12.2949 40.0172 12.3108 40.0143L22.65 38.2834C22.5665 38.1221 22.5117 37.9464 22.4863 37.7645L12.2172 39.4829Z" fill="#383838"/>
<path d="M12.2181 40.7678C12.0703 40.751 11.9373 40.8595 11.9215 41.0073C11.9056 41.1557 12.0131 41.2886 12.161 41.304L22.0255 42.3245C21.9511 42.1493 21.9083 41.9611 21.8978 41.7682L12.2181 40.7673V40.7678Z" fill="#383838"/>
<path d="M33.5313 35.3496L31.8777 28.0757L31.1313 28.2682L32.9222 36.0749C33.1133 36.8155 33.4133 37.5235 33.8136 38.1754L35.3376 40.7453L35.9947 40.3421L34.7433 38.2507C34.2024 37.3464 33.7944 36.3696 33.5313 35.3491V35.3496Z" fill="#5C5C5C"/>
<path d="M19.7682 30.3119L19.0278 30.5266L21.2236 38.0992L21.964 37.8845L19.7682 30.3119Z" fill="#5C5C5C"/>
<path d="M22.4859 37.6954C21.1616 37.6954 20.084 38.773 20.084 40.0974C20.084 41.4217 21.1616 42.4993 22.4859 42.4993C23.8102 42.4993 24.8878 41.4217 24.8878 40.0974C24.8878 38.773 23.8102 37.6954 22.4859 37.6954Z" fill="#222222"/>
<path d="M22.4861 38.1298C21.4008 38.1298 20.5181 39.0125 20.5181 40.0978C20.5181 41.183 21.4008 42.0658 22.4861 42.0658C23.5713 42.0658 24.4541 41.183 24.4541 40.0978C24.4541 39.0125 23.5713 38.1298 22.4861 38.1298Z" fill="#4E4E4E"/>
<path d="M35.7321 39.6937C35.3725 39.6524 35.0481 39.9102 35.0068 40.2697C34.9655 40.6292 35.2237 40.9537 35.5828 40.995C35.9423 41.0362 36.2673 40.7785 36.3081 40.419C36.3493 40.0594 36.0911 39.7345 35.7316 39.6937H35.7321Z" fill="#333333"/>
<path d="M12.3385 39.481C11.8278 39.481 11.4136 39.8952 11.4136 40.4059C11.4136 40.9166 11.8273 41.3309 12.3385 41.3309C12.8493 41.3309 13.2635 40.9166 13.2635 40.4059C13.2635 39.8952 12.8493 39.481 12.3385 39.481Z" fill="#5C5C5C"/>
<path d="M20.5044 37.8692C20.4108 37.7852 20.2668 37.7929 20.1833 37.8865C20.0969 37.9753 20.107 38.1241 20.2006 38.2076L22.4191 40.2001C22.5127 40.2841 22.6567 40.2764 22.7402 40.1828C22.7474 40.1756 22.7537 40.167 22.7594 40.1588C22.8223 40.0662 22.8089 39.9385 22.723 39.8617L20.5039 37.8692H20.5044Z" fill="#333333"/>
<path d="M21.4242 38.2301L19.7869 37.2116C19.6712 37.1396 19.5185 37.1751 19.4465 37.2908C19.4024 37.3618 19.3986 37.4463 19.4288 37.5183C19.448 37.5634 19.4806 37.6033 19.5258 37.6316L21.1688 38.6492C21.2849 38.7212 21.4313 38.6866 21.5033 38.5709C21.5753 38.4548 21.5398 38.3026 21.4242 38.2306V38.2301Z" fill="#F41C5E"/>
<path d="M34.5368 24.191L33.6435 23.8795C33.5408 23.8435 33.4304 23.8354 33.3229 23.855L32.5189 24.0043C32.4603 24.0154 32.4008 24.0178 32.3418 24.0115C32.2453 24.0019 32.1478 24.0144 32.0571 24.049L31.916 24.1022C31.5118 24.2554 31.3808 24.7627 31.6606 25.0925C31.9275 25.4078 32.215 25.7155 32.3293 25.727C32.4785 25.7419 32.6595 25.7482 32.7723 25.7506C32.8448 25.752 32.9163 25.7659 32.984 25.7918L33.5197 25.9978C33.6699 26.0554 33.8365 26.053 33.9853 25.991L34.9213 25.6003C35.2064 25.5504 35.3499 25.2274 35.1963 24.9821L34.8613 24.4483C34.7859 24.3278 34.6712 24.2366 34.5373 24.1901L34.5368 24.191Z" fill="#9B6D51"/>
<path opacity="0.1" d="M24.5793 47.9597C34.6874 47.9597 42.8817 47.7745 42.8817 47.546C42.8817 47.3174 34.6874 47.1322 24.5793 47.1322C14.4711 47.1322 6.27686 47.3174 6.27686 47.546C6.27686 47.7745 14.4711 47.9597 24.5793 47.9597Z" fill="#222222"/>
<path d="M25.5087 14.3198C25.3426 14.0554 23.2206 13.3738 23.0934 15.9096C23.0775 16.2211 25.1554 19.8211 25.5884 20.4331C26.0218 21.0451 31.7967 25.1438 31.7967 25.1438L32.1956 23.9966C32.1956 23.9966 28.1266 19.6258 27.7906 19.0512C27.4546 18.4766 25.6748 14.5843 25.5087 14.3198Z" fill="#9B6D51"/>
<path opacity="0.1" d="M28.8082 21.6879C28.6594 21.4378 26.1788 18.2275 25.5922 17.1912C25.0402 16.2159 24.9116 15.1503 25.1329 14.1629C24.4738 13.9589 23.1908 14.0011 23.0924 15.9557C23.0765 16.2672 25.1545 19.8672 25.5874 20.4792C25.9148 20.9415 29.2901 23.3933 30.9212 24.565C30.1129 23.6971 29.4188 22.7175 28.8073 21.6879H28.8082Z" fill="#222222"/>
<path d="M22.9405 15.8136C22.9319 15.9811 23.504 17.0602 24.1218 18.1536C25.0837 17.6856 25.9439 17.1571 26.6538 16.6536C26.0994 15.4771 25.5493 14.3002 25.4591 14.1562C25.2863 13.8807 23.0735 13.1698 22.9405 15.8136Z" fill="#F41C5E"/>
<path d="M32.7158 25.5048C32.8651 25.5197 32.6597 25.7487 32.7725 25.7511C32.845 25.7525 32.9165 25.7664 32.9842 25.7924L33.5198 25.9983C33.6701 26.0559 33.8366 26.0535 33.9854 25.9916L34.4837 25.5044C34.5888 25.4861 34.1294 24.9418 33.6648 24.9634C32.8675 25.0004 32.6443 25.4972 32.7163 25.5044L32.7158 25.5048Z" fill="#F41C5E"/>
<path d="M33.6726 25.0598C33.3693 25.0598 33.123 25.3061 33.123 25.6094C33.123 25.9133 33.3693 26.159 33.6726 26.159C33.9765 26.159 34.2222 25.9128 34.2222 25.6094C34.2222 25.3056 33.976 25.0598 33.6726 25.0598Z" fill="#F41C5E"/>
<path d="M21.2886 27.0101C21.2886 27.0101 18.0951 27.3586 17.0343 27.2606C16.2087 27.1843 16.0969 27.7162 16.1636 27.8794L16.4127 28.837C16.4751 28.9886 17.2119 29.5944 18.3059 28.9483L21.4556 27.4973C21.6932 27.349 21.567 26.9813 21.2886 27.0101Z" fill="#F41C5E"/>
<path d="M28.381 30.9087C27.8928 31.657 22.6613 36.816 22.6613 36.816L21.8564 36.3331L21.5232 36.133L21.5199 36.1311L25.344 29.7979L25.3714 29.7528L22.6983 29.1711C22.6983 29.1711 16.8116 27.7334 15.8199 26.6616C14.905 25.6728 15.8837 23.3078 16.0412 22.9469C16.0546 22.9166 16.0618 22.9003 16.0618 22.9003L21.432 23.8272C21.432 23.8272 28.4928 27.2534 29.2445 28.2552C29.9957 29.257 28.8687 30.1608 28.381 30.9087Z" fill="#9B6D51"/>
<path d="M16.0621 22.9003C16.0621 22.9003 14.828 25.5902 15.8197 26.6621C16.8114 27.7339 22.6986 29.1715 22.6986 29.1715L25.1106 29.6962C26.2184 29.3352 27.2144 27.4445 26.8947 26.6674C24.6277 25.4055 21.4323 23.8272 21.4323 23.8272L16.0626 22.9003H16.0621Z" fill="#333333"/>
<path opacity="0.1" d="M26.7101 29.496C26.5354 29.4259 26.582 29.4456 26.7072 29.4989C24.7469 31.5274 22.9176 33.7843 21.8564 36.3331C21.8496 36.349 21.8429 36.3653 21.8362 36.3811L21.4968 36.1771L21.5232 36.133L25.3484 29.7989L25.344 29.7979L25.3714 29.7528L22.6983 29.1711C22.6983 29.1711 16.8116 27.7335 15.8199 26.6616C14.905 25.6728 15.8837 23.3079 16.0412 22.9469L21.409 23.8733C21.409 23.8733 22.6119 24.457 24.0773 25.213C23.9376 27.1368 25.0028 28.6339 26.7255 29.4807C26.7202 29.4855 26.7154 29.4907 26.7101 29.496Z" fill="#222222"/>
<path d="M25.0925 38.761C24.7656 38.5897 24.2174 38.2234 24.2174 38.2234L23.436 36.7436L23.2867 36.5213C23.2867 36.5213 22.6349 36.6999 22.2504 36.4191C21.8659 36.1383 21.5155 35.3617 21.2582 35.3525L20.7994 35.7879C20.7994 35.7879 20.3338 36.2914 20.1547 36.6865L19.7832 37.1137C19.7832 37.1137 20.8402 38.2215 21.4469 38.3525C22.0536 38.4836 22.404 38.761 22.5979 38.8839C22.7918 39.0073 23.8982 39.6375 24.5155 39.6668C25.1328 39.6956 25.416 39.6212 25.416 39.6212C25.416 39.6212 25.4184 38.9324 25.092 38.761H25.0925Z" fill="#F5D970"/>
<path d="M20.1509 36.7014C20.1509 36.7014 20.148 36.6985 20.1466 36.6975L19.7842 37.1137C19.7842 37.1137 20.8411 38.2215 21.4479 38.3525C22.0546 38.4836 22.405 38.761 22.5989 38.8839C22.7928 39.0073 23.8992 39.6375 24.5165 39.6668C25.1338 39.6956 25.417 39.6212 25.417 39.6212C25.417 39.6212 25.417 39.5612 25.4088 39.4729C23.3794 39.2593 21.6 38.0017 20.1509 36.7009V36.7014Z" fill="white"/>
<path d="M26.9572 7.28592C26.1412 6.97728 24.945 7.26 24.6086 7.33008C24.2721 7.40016 23.8564 7.84224 23.5895 8.30448C23.3452 8.72832 23.5367 9.96864 23.5905 10.1371C23.6337 10.272 23.9538 10.523 24.1194 10.5475C24.3417 10.5811 24.9978 10.3541 24.9978 10.3541C25.1159 10.3262 25.3694 10.2173 25.583 10.1208C25.821 10.0128 26.0879 9.98496 26.3433 10.0411C26.517 10.0795 26.7393 10.1304 26.9942 10.1938C27.5294 10.3272 28.0833 9.93936 28.2402 9.81792C28.2311 9.33984 28.5062 8.91024 28.895 8.65488C28.8892 8.64768 28.8839 8.64096 28.8777 8.63376C28.4922 8.16288 27.7727 7.59456 26.9567 7.28592H26.9572Z" fill="#D30A48"/>
<path d="M28.8775 8.63376C28.4921 8.16288 27.773 7.59456 26.9565 7.28592C26.1405 6.97728 24.9444 7.26 24.6079 7.33008C24.2714 7.40016 23.8557 7.84224 23.5889 8.30448C23.3988 8.63376 23.2884 9.51168 23.334 9.94896C23.3508 10.1083 23.4914 10.2259 23.6513 10.2125C23.873 10.1938 24.3953 10.091 25.0572 9.90576C25.5242 9.77472 25.9802 9.66096 26.4674 9.62976C26.9047 9.60144 27.3449 9.63312 27.7802 9.67392C27.9698 9.69168 28.1513 9.7296 28.3255 9.78432C29.19 10.0555 29.73 9.6672 29.73 9.6672L29.4463 9.34992C29.4463 9.34992 29.2629 9.10512 28.878 8.63424L28.8775 8.63376Z" fill="#F64D81"/>
<path d="M25.2959 7.95984C25.4922 8.52288 25.5666 8.67648 25.9972 8.88576C26.4277 9.09504 27.5629 8.93136 27.5629 8.93136C27.5629 8.93136 26.8098 8.68896 26.2573 8.45616C25.8522 8.28528 25.2959 7.95984 25.2959 7.95984Z" fill="#D30A48"/>
<path d="M25.8066 7.85474C25.8066 7.85474 27.1041 8.40578 27.3263 8.50802C27.5486 8.61026 28.6132 8.92226 28.6132 8.92226C28.6132 8.92226 28.1063 8.5037 27.8385 8.30354C27.297 7.8989 25.8066 7.85474 25.8066 7.85474Z" fill="#D30A48"/>
<path d="M23.6074 8.80803C23.6665 9.26403 23.738 9.28179 23.738 9.28179C24.158 9.48579 24.6975 9.05811 24.6975 9.05811C24.325 9.02835 23.6237 8.50995 23.6237 8.50995L23.6074 8.80803Z" fill="#D30A48"/>
<path d="M28.0163 7.9704C27.6371 7.65504 26.5465 7.30512 26.1237 7.34976C25.7008 7.39392 24.6309 7.47936 24.6309 7.47936C24.9261 7.70688 25.3614 7.68768 25.3614 7.68768C25.3614 7.68768 26.1861 7.33824 27.447 7.81392C28.1017 8.06112 28.7766 8.77536 28.7766 8.77536C28.7766 8.77536 28.5328 8.39952 28.0168 7.9704H28.0163Z" fill="#D30A48"/>
<path d="M24.4049 7.67523C24.1553 7.77123 23.875 8.28963 23.875 8.28963C24.2676 8.66739 25.039 8.60307 25.039 8.60307C24.9651 8.55219 24.4049 7.67571 24.4049 7.67571V7.67523Z" fill="#D30A48"/>
<path d="M25.1348 9.93888C25.1348 9.93888 25.5581 11.7235 25.8653 13.9805L25.9748 13.9238C25.9748 13.9238 25.6983 10.7285 25.597 9.91296L25.1348 9.9384V9.93888Z" fill="#D30A48"/>
<path d="M26.4966 9.91681C26.4966 9.91681 26.3262 10.8974 25.6479 11.9635L25.7281 12.3168C25.7281 12.3168 26.3987 11.0928 26.7803 9.96721L26.4966 9.91681Z" fill="#D30A48"/>
</g>
<defs>
<clipPath id="clip0_9673_119226">
<rect width="48" height="48" fill="white"/>
</clipPath>
<clipPath id="clip1_9673_119226">
<rect width="48" height="48" fill="white"/>
</clipPath>
</defs>
</svg>
