<svg width="41" height="40" viewBox="0 0 41 40" fill="none" xmlns="http://www.w3.org/2000/svg">
<g clip-path="url(#clip0_16575_707)">
<g clip-path="url(#clip1_16575_707)">
<path d="M20.4997 39.9995C31.5453 39.9995 40.4995 31.0453 40.4995 19.9997C40.4995 8.95419 31.5453 0 20.4997 0C9.45419 0 0.5 8.95419 0.5 19.9997C0.5 31.0453 9.45419 39.9995 20.4997 39.9995Z" fill="#EAEFF4"/>
<path opacity="0.2" d="M20.4997 40C29.3924 40 36.9286 34.1951 39.5287 26.169C33.8055 23.1052 27.2661 21.3677 20.3207 21.3677C13.3753 21.3677 7.06855 23.0438 1.41821 26.0066C3.9688 34.117 11.5472 40 20.4997 40Z" fill="#7CA5B9"/>
</g>
<path opacity="0.3" d="M20.4219 34.8438C26.1605 34.8438 30.8125 34.4934 30.8125 34.0625C30.8125 33.6316 26.1605 33.2812 20.4219 33.2812C14.6832 33.2812 10.0312 33.6316 10.0312 34.0625C10.0312 34.4934 14.6832 34.8438 20.4219 34.8438Z" fill="#7CA5B9"/>
<path d="M26.876 9.81348H11.0196V21.1573H26.876V9.81348Z" fill="#F41C5E"/>
<path d="M26.876 20.9399H21.7633V11.1195L26.876 9.81348V20.9399Z" fill="#D30A48"/>
<path d="M21.7633 11.1196H30.8424V22.4393C30.8424 22.4542 30.8313 22.4653 30.8164 22.4653H21.7633V11.1196Z" fill="#F41C5E"/>
<path d="M21.7633 11.1196H30.8424V22.4393C30.8424 22.4542 30.8313 22.4653 30.8164 22.4653H21.7633V11.1196Z" fill="#F41C5E"/>
<path opacity="0.1" d="M11.0196 12.2544V21.157H21.7633V22.4649H30.8165C30.8165 22.4649 30.8425 22.4538 30.8425 22.4389L21.689 17.8557L21.7633 16.1317L11.0196 12.2544Z" fill="#333333"/>
<path d="M12.4389 8.15967H10.8914V34.1709H12.4389V8.15967Z" fill="#333333"/>
<path d="M11.6643 8.50732C12.5662 8.50732 13.2973 8.35178 13.2973 8.15991C13.2973 7.96804 12.5662 7.8125 11.6643 7.8125C10.7624 7.8125 10.0312 7.96804 10.0312 8.15991C10.0312 8.35178 10.7624 8.50732 11.6643 8.50732Z" fill="#333333"/>
</g>
<defs>
<clipPath id="clip0_16575_707">
<rect width="40" height="40" fill="white" transform="translate(0.5)"/>
</clipPath>
<clipPath id="clip1_16575_707">
<rect width="40" height="40" fill="white" transform="translate(0.5)"/>
</clipPath>
</defs>
</svg>
