<svg width="32" height="32" viewBox="0 0 32 32" fill="none" xmlns="http://www.w3.org/2000/svg">
<g clip-path="url(#clip0_16801_8157)">
<path d="M8.5 5.5C8.5 4.67031 7.82969 4 7 4C6.17031 4 5.5 4.67031 5.5 5.5V7V21.25V26.5C5.5 27.3297 6.17031 28 7 28C7.82969 28 8.5 27.3297 8.5 26.5V20.5L11.5141 19.7453C13.4406 19.2625 15.4797 19.4875 17.2563 20.3734C19.3281 21.4094 21.7328 21.5359 23.8984 20.7203L25.525 20.1109C26.1109 19.8906 26.5 19.3328 26.5 18.7047V7.09844C26.5 6.02031 25.3656 5.31719 24.4 5.8L23.95 6.025C21.7797 7.1125 19.225 7.1125 17.0547 6.025C15.4094 5.2 13.5203 4.99375 11.7344 5.43906L8.5 6.25V5.5Z" fill="#F41C5E"/>
</g>
<defs>
<clipPath id="clip0_16801_8157">
<rect width="32" height="32" fill="white"/>
</clipPath>
</defs>
</svg>
