<svg width="95" height="93" viewBox="0 0 95 93" fill="none" xmlns="http://www.w3.org/2000/svg">
<path d="M93.8642 25.8452L77.945 74.3474C77.3328 76.2008 75.3139 77.2433 73.4605 76.631L11.4883 56.3101C9.63497 55.6978 8.60899 53.6624 9.22126 51.809L25.1404 3.29035C25.7527 1.43697 27.7716 0.394447 29.6249 1.00672L91.5806 21.3442C93.4174 22.0558 94.4765 23.9753 93.8642 25.8452Z" fill="#F41C5E"/>
<path d="M81.8997 29.1044L71.9709 79.1952C71.5903 81.1147 69.7038 82.3889 67.7843 82.0083L3.82632 69.3326C1.9233 68.952 0.649103 67.0655 1.02971 65.1294L10.942 15.0386C11.3226 13.1191 13.209 11.8449 15.1286 12.2255L79.0866 24.9012C80.9896 25.3977 82.2803 27.1849 81.8997 29.1044Z" fill="white"/>
<path d="M44.7824 92.1691C58.3518 92.1691 69.3065 90.9776 69.3065 89.4717C69.3065 87.9659 58.269 86.7744 44.7824 86.7744C31.2958 86.7744 20.2583 87.8831 20.2583 89.389C20.2418 90.9114 31.2793 92.1691 44.7824 92.1691Z" fill="#E0E0E0"/>
<path opacity="0.05" d="M79.1028 24.9345L77.415 24.6035C77.3984 24.6366 77.3653 24.6697 77.3488 24.7028C75.2141 27.88 72.9139 30.9414 70.4152 33.8373C66.0134 38.9672 61.0986 43.6668 56.0019 48.0851C50.9382 52.4869 45.6925 56.7562 40.1985 60.6119C34.6881 64.5007 28.8135 67.8599 22.4922 70.2594C20.705 70.9379 18.9013 71.5005 17.0645 71.9639L67.784 82.0085C69.687 82.3891 71.5901 81.1149 71.9707 79.1953L81.8995 29.1377C82.2801 27.2181 80.9893 25.4309 79.1028 24.9345Z" fill="#333333"/>
<path d="M27.5562 44.4448L55.6381 49.4754L52.5933 66.4536C52.4609 67.1652 51.7824 67.6451 51.0543 67.5293L25.5704 62.962C24.8588 62.8296 24.3789 62.1512 24.4948 61.4231L27.5562 44.4448Z" fill="#F41C5E"/>
<path d="M28.3505 35.6245L57.9383 40.9198C58.6499 41.0522 59.1298 41.7307 59.0139 42.4588L57.9218 48.5485C57.7894 49.26 57.1109 49.7399 56.3828 49.6241L26.795 44.3287C26.0834 44.1963 25.6036 43.5179 25.7194 42.7898L26.8116 36.7001C26.9439 35.972 27.639 35.4921 28.3505 35.6245Z" fill="#F41C5E"/>
<path d="M27.5561 44.4448L55.638 49.4754L54.7113 54.688L26.6294 49.6574L27.5561 44.4448Z" fill="#FCFCFF"/>
<path d="M45.759 38.7358L40.927 65.709L35.7144 64.7823L40.5464 37.8091L45.759 38.7358Z" fill="#FCFCFF"/>
<path d="M42.2839 38.8185L46.9008 31.1568C47.2649 30.5445 47.7779 30.0481 48.357 29.7006L48.3736 29.684C49.532 29.0221 50.9385 28.8566 52.2127 29.2538C53.5035 29.6509 54.5625 30.528 55.1748 31.7525C56.2173 33.8541 55.5885 36.4687 53.6855 37.8587C53.6359 37.8918 53.5862 37.9249 53.5366 37.958C52.8581 38.4214 52.0307 38.6696 51.1537 38.6861L42.2839 38.8185ZM51.3026 31.041C50.6241 30.9251 49.9457 31.041 49.3334 31.3885C49.019 31.5705 48.7542 31.8353 48.5556 32.1662L45.759 36.8162L51.1206 36.75C51.6005 36.75 52.0638 36.6011 52.4279 36.3529C52.461 36.3363 52.494 36.3198 52.5106 36.2867C53.6524 35.4593 54.033 33.8872 53.4042 32.6296C53.0401 31.9015 52.4113 31.3719 51.6335 31.1237C51.5343 31.0906 51.4184 31.0741 51.3026 31.041Z" fill="#F41C5E"/>
<path d="M43.9055 39.1164L35.6149 35.9227C34.8041 35.6083 34.1256 35.0953 33.6457 34.4168C33.6126 34.3672 33.5795 34.3175 33.5464 34.2679C32.2557 32.3152 32.5701 29.6345 34.2745 28.0293C35.2674 27.1026 36.5582 26.6227 37.9151 26.7055C39.2555 26.7882 40.5131 27.417 41.3736 28.443L41.3902 28.4595C41.8204 28.9891 42.1183 29.6345 42.2507 30.3295L43.9055 39.1164ZM38.1302 28.6912C38.0144 28.6747 37.8986 28.6581 37.7827 28.6581C36.9719 28.6085 36.1941 28.8898 35.5984 29.4524C34.5724 30.4122 34.3904 32.0174 35.1681 33.1923C35.1847 33.2254 35.2012 33.2585 35.2343 33.275C35.4991 33.6391 35.8797 33.9204 36.3265 34.1024L41.3405 36.0385L40.3311 30.7101C40.2649 30.3295 40.0994 29.982 39.8843 29.7172V29.7006C39.421 29.1546 38.8087 28.8071 38.1302 28.6912Z" fill="#F41C5E"/>
<path opacity="0.05" d="M52.5932 66.4699L55.638 49.4916L56.3827 49.624C57.0942 49.7564 57.7892 49.2765 57.9216 48.5484L59.0138 42.4587C59.1462 41.7472 58.6663 41.0522 57.9382 40.9198L56.002 40.5723L49.9786 48.4822L45.5603 47.6879L29.1116 63.6071L51.0542 67.5455C51.7823 67.6613 52.4608 67.1814 52.5932 66.4699Z" fill="#333333"/>
</svg>
