<svg width="121" height="116" viewBox="0 0 121 116" fill="none" xmlns="http://www.w3.org/2000/svg">
<path d="M109.864 37.8452L93.945 86.3474C93.3328 88.2008 91.3139 89.2433 89.4605 88.631L27.4883 68.3101C25.635 67.6978 24.609 65.6624 25.2213 63.809L41.1404 15.2903C41.7527 13.437 43.7716 12.3944 45.6249 13.0067L107.581 33.3442C109.417 34.0558 110.476 35.9753 109.864 37.8452Z" fill="#F41C5E"/>
<path d="M97.8997 41.1044L87.9709 91.1952C87.5903 93.1147 85.7038 94.3889 83.7843 94.0083L19.8263 81.3326C17.9233 80.952 16.6491 79.0655 17.0297 77.1294L26.942 27.0386C27.3226 25.1191 29.209 23.8449 31.1286 24.2255L95.0866 36.9012C96.9896 37.3977 98.2803 39.1849 97.8997 41.1044Z" fill="white"/>
<path d="M60.7824 104.169C74.3518 104.169 85.3065 102.978 85.3065 101.472C85.3065 99.9659 74.269 98.7744 60.7824 98.7744C47.2958 98.7744 36.2583 99.8831 36.2583 101.389C36.2418 102.911 47.2793 104.169 60.7824 104.169Z" fill="#E0E0E0"/>
<path opacity="0.05" d="M95.1028 36.9345L93.415 36.6035C93.3984 36.6366 93.3653 36.6697 93.3488 36.7028C91.2141 39.88 88.9139 42.9414 86.4152 45.8373C82.0134 50.9672 77.0986 55.6668 72.0019 60.0851C66.9382 64.4869 61.6925 68.7562 56.1985 72.6119C50.6881 76.5007 44.8135 79.8599 38.4922 82.2594C36.705 82.9379 34.9013 83.5005 33.0645 83.9639L83.784 94.0085C85.687 94.3891 87.5901 93.1149 87.9707 91.1953L97.8995 41.1377C98.2801 39.2181 96.9893 37.4309 95.1028 36.9345Z" fill="#333333"/>
<path d="M43.5562 56.4448L71.6381 61.4754L68.5933 78.4536C68.4609 79.1652 67.7824 79.6451 67.0543 79.5293L41.5704 74.962C40.8588 74.8296 40.3789 74.1512 40.4948 73.4231L43.5562 56.4448Z" fill="#F41C5E"/>
<path d="M44.3505 47.6245L73.9383 52.9198C74.6499 53.0522 75.1298 53.7307 75.0139 54.4588L73.9218 60.5485C73.7894 61.26 73.1109 61.7399 72.3828 61.6241L42.795 56.3287C42.0834 56.1963 41.6036 55.5179 41.7194 54.7898L42.8116 48.7001C42.9439 47.972 43.639 47.4921 44.3505 47.6245Z" fill="#F41C5E"/>
<path d="M43.5561 56.4448L71.638 61.4754L70.7113 66.688L42.6294 61.6574L43.5561 56.4448Z" fill="#FCFCFF"/>
<path d="M61.759 50.7358L56.927 77.709L51.7144 76.7823L56.5464 49.8091L61.759 50.7358Z" fill="#FCFCFF"/>
<path d="M58.2839 50.8185L62.9008 43.1568C63.2649 42.5445 63.7779 42.0481 64.357 41.7006L64.3736 41.684C65.532 41.0221 66.9385 40.8566 68.2127 41.2538C69.5035 41.6509 70.5625 42.528 71.1748 43.7525C72.2173 45.8541 71.5885 48.4687 69.6855 49.8587C69.6359 49.8918 69.5862 49.9249 69.5366 49.958C68.8581 50.4214 68.0307 50.6696 67.1537 50.6861L58.2839 50.8185ZM67.3026 43.041C66.6241 42.9251 65.9457 43.041 65.3334 43.3885C65.019 43.5705 64.7542 43.8353 64.5556 44.1662L61.759 48.8162L67.1206 48.75C67.6005 48.75 68.0638 48.6011 68.4279 48.3529C68.461 48.3363 68.494 48.3198 68.5106 48.2867C69.6524 47.4593 70.033 45.8872 69.4042 44.6296C69.0401 43.9015 68.4113 43.3719 67.6335 43.1237C67.5343 43.0906 67.4184 43.0741 67.3026 43.041Z" fill="#F41C5E"/>
<path d="M59.9055 51.1164L51.6149 47.9227C50.8041 47.6083 50.1256 47.0953 49.6457 46.4168C49.6126 46.3672 49.5795 46.3175 49.5464 46.2679C48.2557 44.3152 48.5701 41.6345 50.2745 40.0293C51.2674 39.1026 52.5582 38.6227 53.9151 38.7055C55.2555 38.7882 56.5131 39.417 57.3736 40.443L57.3902 40.4595C57.8204 40.9891 58.1183 41.6345 58.2507 42.3295L59.9055 51.1164ZM54.1302 40.6912C54.0144 40.6747 53.8986 40.6581 53.7827 40.6581C52.9719 40.6085 52.1941 40.8898 51.5984 41.4524C50.5724 42.4122 50.3904 44.0174 51.1681 45.1923C51.1847 45.2254 51.2012 45.2585 51.2343 45.275C51.4991 45.6391 51.8797 45.9204 52.3265 46.1024L57.3405 48.0385L56.3311 42.7101C56.2649 42.3295 56.0994 41.982 55.8843 41.7172V41.7006C55.421 41.1546 54.8087 40.8071 54.1302 40.6912Z" fill="#F41C5E"/>
<path opacity="0.05" d="M68.5932 78.4699L71.638 61.4916L72.3827 61.624C73.0942 61.7564 73.7892 61.2765 73.9216 60.5484L75.0138 54.4587C75.1462 53.7472 74.6663 53.0522 73.9382 52.9198L72.002 52.5723L65.9786 60.4822L61.5603 59.6879L45.1116 75.6071L67.0542 79.5455C67.7823 79.6613 68.4608 79.1814 68.5932 78.4699Z" fill="#333333"/>
</svg>
