<svg width="94" height="94" viewBox="0 0 94 94" fill="none" xmlns="http://www.w3.org/2000/svg">
<path d="M41.2489 23.3044C40.604 23.3319 40.6167 22.4291 40.7478 21.9534C40.9212 21.3212 41.3652 20.8539 41.7838 20.4163C42.0396 20.7884 42.3864 20.7017 42.6803 20.4649C42.5809 20.7059 42.5069 20.9469 42.4689 21.1732C42.4689 21.1732 42.2447 22.0992 43.1898 21.9618C42.5471 21.9005 42.6845 21.0083 42.879 20.5537C43.1856 19.839 43.8389 19.4098 44.376 18.9679C45.0504 18.4161 45.3908 17.564 45.689 16.7225C45.7778 16.4731 45.8919 16.1707 46.0209 15.8409C46.171 15.6464 46.3063 15.4497 46.4163 15.2489C46.5516 15.0036 46.6763 14.7731 46.7926 14.5533C46.9195 14.4095 47.0379 14.2699 47.1415 14.0923C47.3254 13.7731 47.5115 13.4242 47.6553 13.0627C46.5727 12.7413 45.5092 12.1768 44.5155 11.4029C44.4732 11.479 44.4309 11.5552 44.3887 11.6355C44.3675 11.6609 44.3464 11.6863 44.3252 11.7116C44.2829 11.5277 44.2491 11.348 44.2322 11.1725C44.1709 11.1217 44.1075 11.0689 44.0461 11.0139C44.0461 11.3162 44.0525 11.5805 44.0652 11.8216C44.0546 11.7772 44.044 11.7328 44.0334 11.6884C44.0377 11.4896 44.0398 11.2676 44.044 11.0139C43.6169 10.6439 43.2046 10.2337 42.8114 9.7876C42.8114 9.92291 42.8219 10.0455 42.8473 10.1555C42.8579 10.2105 42.8642 10.2654 42.8685 10.3183C42.5111 10.6249 42.1433 10.9209 41.8176 11.3564C41.4582 11.8385 41.2151 12.3353 41.0079 12.9104C40.6569 13.4432 40.4581 14.0987 40.3101 14.6928C40.2404 14.9719 40.2467 15.2193 40.2298 15.5047C40.3186 15.2531 40.4032 15.0269 40.4856 14.8197C40.456 15.029 40.437 15.2468 40.4264 15.4688C40.0987 16.2468 39.771 17.0629 39.5278 17.5958C39.1578 18.4077 38.8111 19.2555 38.9126 20.1224C38.9929 20.8116 39.1642 21.5749 38.8893 22.3022C38.7138 22.7653 38.1937 23.5031 37.6884 23.0993C38.2741 23.8541 38.754 23.0338 38.754 23.0317C39.1578 22.446 39.4116 21.5199 39.4242 20.8243C39.439 19.9405 39.7033 18.951 40.4772 17.6106C40.4962 17.5788 40.5131 17.5471 40.5321 17.5154C40.5427 17.6063 40.5533 17.6951 40.5639 17.7839C40.5554 17.7099 40.5533 17.6021 40.5596 17.4689C40.6949 17.2321 40.8303 16.9974 40.9614 16.7627C40.5977 18.507 39.9845 19.0441 39.7245 19.8982C39.5574 20.4501 39.5892 21.4797 40.437 21.2155C40.3207 21.2155 40.1431 21.1922 40.0649 21.0865C39.9401 20.9173 39.9803 20.5579 40.048 20.3465C40.1917 19.8982 40.3757 19.6868 40.6315 19.3062C40.4581 20.3676 40.6019 20.689 40.4349 21.2831C40.1917 21.4501 39.919 21.5051 39.6928 21.2683C39.8873 21.6087 40.1029 21.6827 40.2869 21.6531C40.1981 21.8096 40.0776 21.9597 39.9465 21.9999C39.8217 22.04 39.6632 21.9534 39.5701 21.8857C39.8936 22.3212 40.2552 22.1859 40.5321 21.8899C40.4687 22.1415 40.4285 22.391 40.4222 22.6215C40.4222 22.6215 40.3271 23.5687 41.2447 23.3023" fill="#333333"/>
<path d="M42.1242 17.9678C42.1221 17.9847 42.1179 18.0037 42.1158 18.0206C42.0862 18.0777 42.0587 18.1348 42.0312 18.1877C42.0608 18.1158 42.0925 18.0418 42.1263 17.9678H42.1242Z" fill="#333333"/>
<path d="M41.8789 18.6149C41.9296 18.56 41.9783 18.5029 42.029 18.4458C41.9296 18.8813 41.807 19.2556 41.6632 19.5854C41.6928 19.4712 41.7161 19.3613 41.733 19.2535C41.7647 19.0442 41.8133 18.8327 41.881 18.6128L41.8789 18.6149Z" fill="#333333"/>
<path d="M41.3123 19.2808C41.2975 19.6592 41.2552 20.0419 41.1093 20.4035C41.1579 20.0736 41.2023 19.7142 41.3123 19.2808Z" fill="#333333"/>
<path d="M42.6125 19.9702C42.5131 20.1689 42.2953 20.4564 42.086 20.4903C41.9909 20.5072 41.8873 20.4522 41.8069 20.3909C41.8767 20.319 41.9465 20.245 42.012 20.1731C42.1304 20.0463 42.2319 19.9088 42.3228 19.7629C42.418 19.7947 42.5343 19.8031 42.6801 19.7799C42.5892 19.7672 42.4645 19.7333 42.3841 19.6636C42.6463 19.2069 42.8007 18.6825 42.9212 18.1497C42.9888 18.0778 43.0586 18.0017 43.1368 17.915C42.7964 19.0145 42.9317 19.3232 42.6125 19.968V19.9702Z" fill="#333333"/>
<path d="M44.9974 16.0773C44.9276 16.3543 44.8558 16.6102 44.7775 16.8491C44.4667 17.3037 44.1813 17.6398 44.0227 17.7688C44.2236 17.606 44.4287 17.4347 44.6316 17.2592C44.3166 18.0859 43.9445 18.6653 43.5195 19.122C43.4772 19.1664 43.4349 19.215 43.3948 19.2657C43.6379 18.4834 43.7923 17.5426 45.0397 15.9082C45.0249 15.9653 45.0101 16.0224 44.9974 16.0795V16.0773Z" fill="#333333"/>
<path d="M43.657 15.8555C43.7056 15.7244 43.7522 15.5975 43.7966 15.4728C43.8008 15.4665 43.805 15.458 43.8114 15.4517C43.8114 15.4495 43.8156 15.4474 43.8177 15.4453C43.7648 15.5912 43.712 15.7265 43.6591 15.8555H43.657Z" fill="#333333"/>
<path d="M42.4793 13.9124C42.5724 13.7116 42.6379 13.5509 42.6696 13.4409C42.6168 13.7412 42.4963 14.1006 42.344 14.4981C42.3884 14.2972 42.4349 14.1006 42.4815 13.9124H42.4793Z" fill="#333333"/>
<path d="M45.488 13.3902C45.5599 13.1978 45.6317 13.0096 45.7036 12.8299C45.822 12.6439 45.9108 12.4937 45.9574 12.3901C45.8622 12.6798 45.6952 13.0202 45.488 13.3902Z" fill="#333333"/>
<path d="M49.0147 11.2801C49.0401 9.86356 48.6426 8.42159 47.8836 7.3877C47.9343 7.67524 47.9829 7.97336 47.9745 8.26514C48.4692 9.11932 48.7737 10.1976 48.8117 11.2844C48.8583 12.0667 48.7716 12.8638 48.5771 13.6228C48.8561 12.9061 49.0041 12.0942 49.0126 11.278L49.0147 11.2801Z" fill="#222222"/>
<path d="M48.9035 12.7577C49.0634 11.6847 48.8944 10.7704 48.526 10.7155C48.1576 10.6606 47.7292 11.4858 47.5693 12.5587C47.4093 13.6317 47.5783 14.546 47.9467 14.6009C48.3151 14.6559 48.7435 13.8306 48.9035 12.7577Z" fill="#F41C5E"/>
<path d="M48.3474 12.7228C48.5353 11.4628 48.4957 10.4127 48.2589 10.3774C48.0221 10.3421 47.6779 11.3349 47.4901 12.595C47.3022 13.855 47.3418 14.9051 47.5786 14.9404C47.8154 14.9757 48.1596 13.9828 48.3474 12.7228Z" fill="#222222"/>
<path opacity="0.1" d="M46.9765 88.9238C49.8222 88.9238 52.1291 88.6673 52.1291 88.3508C52.1291 88.0344 49.8222 87.7778 46.9765 87.7778C44.1308 87.7778 41.8239 88.0344 41.8239 88.3508C41.8239 88.6673 44.1308 88.9238 46.9765 88.9238Z" fill="#333333"/>
<path d="M60.8486 28.9979C61.5421 28.0211 60.9818 27.2726 59.7576 26.6552C58.7279 26.1351 56.6073 23.9109 56.1104 23.1434C55.6135 22.3738 54.7953 20.5385 53.6049 20.0417C52.4146 19.5448 48.2198 18.1071 48.2198 18.1071L47.1288 17.4622L46.9301 16.2951C46.9301 16.2951 47.799 13.9884 47.9724 13.6142C48.1458 13.242 48.1458 12.1257 48.1204 11.6796C48.095 11.2334 48.4566 9.31365 48.0485 8.52078C47.6405 7.7258 47.4755 7.08939 45.3422 6.44452C43.2089 5.79966 41.2975 7.80826 41.2975 7.80826C41.2975 7.80826 40.0078 9.49548 40.6019 11.8529C41.1982 14.2104 41.5935 14.6311 41.7183 15.4515C41.843 16.2719 41.9424 17.883 41.6696 18.0817C41.3969 18.2804 37.0795 19.5702 36.3585 20.0163C35.6396 20.4624 34.9948 20.6865 34.9948 22.3738C34.9948 24.061 35.0201 27.6088 34.796 28.7019C34.5719 29.7929 33.9017 31.755 34.1511 34.2858C34.3985 36.8166 34.6226 40.2165 34.4746 40.9607C34.3266 41.7049 33.2589 43.4915 33.2589 43.6903V44.4091C33.2589 44.4091 33.0855 45.0286 33.0115 45.1534C32.9375 45.2781 32.7134 45.997 33.2356 46.2444C33.7558 46.4917 34.5254 47.0626 34.6755 46.9886C34.8256 46.9146 35.942 46.6165 35.8659 46.4431C35.7919 46.2697 35.5931 46.0202 35.5931 46.0202C35.5931 46.0202 36.1132 46.0456 36.164 45.9209C36.2126 45.7961 36.6355 44.8531 36.6101 44.5804C36.5847 44.3076 36.5615 44.4324 36.4853 44.4324C36.4092 44.4324 36.46 43.7135 36.4113 43.4894C36.3627 43.2653 36.4853 42.1743 36.6355 41.8276C36.7835 41.4808 36.3373 39.6435 36.3373 39.246C36.3373 38.8485 37.4051 33.068 37.4283 32.4231C37.4537 31.7782 37.6524 28.3298 37.6524 28.3298L38.0246 27.3382C38.0246 27.3382 39.1409 35.5015 38.9929 35.899C38.8449 36.2965 37.9252 39.0261 37.9019 39.4468C37.8766 39.8697 37.7899 40.2524 37.7899 40.2524C37.7899 40.2524 41.177 42.187 44.2301 42.2991C47.2831 42.4111 50.8563 40.7725 51.1904 40.4385C51.5245 40.1044 51.5625 39.8422 51.5625 39.8422C51.5625 39.8422 51.6006 38.4658 51.2285 37.6835C50.8563 36.9012 50.5223 36.3811 50.7083 35.6728C50.8944 34.9666 51.8247 29.8669 51.8628 29.5688C51.9008 29.2707 51.8628 28.8626 51.8628 28.8626C51.8628 28.8626 55.0025 30.0403 55.5226 30.165C56.0427 30.2898 57.8547 30.4378 58.451 30.313C59.0472 30.1883 60.0473 30.3003 60.3581 30.0339C60.6266 29.8035 60.4553 29.5645 60.857 28.9979H60.8486ZM34.3774 45.9462C34.3774 45.9462 34.0243 45.8215 33.9672 45.5868C33.9672 45.5868 34.3774 45.7982 34.3774 45.8722V45.9462ZM35.2717 44.5867C35.2717 44.5867 34.9377 44.1596 34.9186 43.9165C34.8996 43.6755 35.2083 43.3393 35.2083 43.3393L35.4218 43.0983V43.8425C35.4218 43.9905 35.498 44.5867 35.498 44.5867H35.2738H35.2717ZM52.0953 26.4036C52.0953 26.4036 52.5055 25.2302 52.6916 25.0632L52.8776 24.8961L54.5712 26.5707C54.5712 26.5707 52.5795 26.4967 52.0953 26.4036Z" fill="#EAC3A6"/>
<path opacity="0.05" d="M46.1943 14.9487C46.1943 14.9487 45.6805 14.862 45.5008 14.0226C45.4628 13.845 45.9152 13.4348 45.892 13.253L45.4501 11.3015C45.4268 11.1683 45.4691 11.0308 45.5621 10.9336L48.131 8.30337L44.321 6.74512C43.6656 7.14472 41.2954 7.8065 41.2954 7.8065C41.2954 7.8065 40.0057 9.49373 40.5998 11.8512C41.1961 14.2086 41.5914 14.6294 41.7162 15.4497C41.8409 16.268 41.9403 17.8812 41.6676 18.08C41.5322 18.1793 40.6146 18.5007 39.4116 18.9024L39.7161 24.0592L45.4141 17.8706C45.7588 17.4034 44.3697 16.0988 46.1943 14.9487Z" fill="#222222"/>
<path d="M46.3444 79.1411L46.0823 81.7755L49.1353 82.2724L49.2093 81.7523L48.9873 79.6168L46.3444 79.1411Z" fill="#222222"/>
<path d="M40.898 63.7128C40.898 63.7128 40.5999 66.2944 40.898 66.8885C41.1961 67.4847 41.5175 69.2206 42.3125 69.9162C43.1075 70.6118 43.4542 70.8592 44.1477 70.3623C44.8433 69.8654 45.5876 69.2713 45.4628 67.9562C45.3381 66.6411 44.8179 64.2097 44.7926 64.0109C44.7672 63.8122 44.5198 62.9199 44.5198 62.9199L40.898 63.7149V63.7128Z" fill="#333333"/>
<path d="M51.592 39.7623L51.6068 39.166C51.6068 39.166 51.3827 40.8088 46.8708 41.5552C42.3588 42.2994 38.6757 40.2147 38.4516 40.0667C38.2274 39.9187 37.6524 39.5128 37.6524 39.5128C37.6524 39.5128 37.4113 40.849 37.3733 41.3691C37.3352 41.8893 37.1491 46.2384 37.1872 46.5577C37.2253 46.8769 37.1724 48.5895 37.5889 51.3825C38.0054 54.1734 39.0837 60.5756 39.0837 60.5756C39.0837 60.5756 39.2698 62.3241 39.5679 62.7723C39.866 63.2184 40.8344 64.6329 41.8006 64.745C42.769 64.857 44.0672 64.4849 44.3674 63.9627C44.6676 63.4426 45.025 62.6962 45.025 62.6962C45.025 62.6962 45.8221 61.0576 45.5979 60.0153C45.5155 59.6347 45.3146 59.0173 45.099 58.3534C44.7205 57.2011 44.2955 55.9135 44.3674 55.5118C44.4816 54.8796 45.1201 52.8689 45.025 52.4228C44.9277 51.9766 45.1835 56.4421 45.1835 56.4421C45.1835 56.4421 44.5556 63.5504 44.8156 64.5927C45.0757 65.6351 45.4859 68.0919 45.4478 68.8721C45.4098 69.6544 45.2618 71.0689 45.5599 72.0351C45.858 73.0035 46.4162 77.3949 46.4162 78.0271C46.4162 78.6593 46.2682 79.7756 46.2682 79.7756C46.2682 79.7756 46.3802 80.3338 47.5706 80.3719C48.761 80.4099 49.1331 79.9258 49.1331 79.9258C49.1331 79.9258 49.095 78.1772 49.095 77.9531C49.095 77.729 50.3615 71.403 50.3974 70.0984C50.4355 68.796 50.3594 67.6797 50.1374 66.8234C49.9133 65.9671 49.6532 65.4089 49.6532 65.4089C49.6532 65.4089 50.1374 60.1971 50.4355 59.2309C50.7336 58.2625 52.5202 50.3359 52.5561 49.4416C52.5942 48.5472 52.5181 42.477 51.5878 39.758L51.592 39.7623Z" fill="#F41C5E"/>
<path d="M45.0271 52.4224C45.0271 52.4224 44.4626 50.9593 45.1857 49.8175C45.1857 49.8175 43.8558 48.6272 43.12 47.6842L42.3863 46.7412L44.3611 49.5828L45.0271 52.4245V52.4224Z" fill="#D30A48"/>
<path d="M44.3696 63.9602C44.6699 63.4401 45.0272 62.6937 45.0272 62.6937C45.0272 62.6937 45.8243 61.0551 45.6002 60.0128C45.5177 59.6322 45.3168 59.0148 45.1012 58.3509C44.7227 57.1986 44.2977 55.911 44.3696 55.5093L41.8028 64.7404C42.7712 64.8524 44.0694 64.4803 44.3696 63.9581" fill="#F41C5E"/>
<path d="M45.6805 14.6991C45.6805 14.6991 45.9554 14.5616 46.0251 14.5891C46.1626 14.6441 46.5579 14.7561 46.5051 14.8238C46.4311 14.9168 46.3423 14.8851 46.3423 14.8851C46.3423 14.8851 46.2936 15.0987 46.1964 15.0627C46.0991 15.0268 46.0822 14.9845 46.0082 14.9908C45.9342 14.9972 45.7101 15.0733 45.3295 14.9908C45.2048 14.9633 44.9785 14.9485 44.9172 14.9676C44.8559 14.9866 44.746 14.9887 44.6847 14.9887C44.6233 14.9887 44.3231 14.7984 44.3231 14.7984C44.3231 14.7984 44.8686 14.7202 45.0631 14.6399C45.2576 14.5595 45.3126 14.5637 45.3781 14.5849C45.4437 14.606 45.6826 14.7012 45.6826 14.7012L45.6805 14.6991Z" fill="#F41C5E"/>
<path d="M44.3189 14.7964C44.3189 14.7964 44.5304 15.0099 44.6276 15.1135C44.7249 15.2171 44.9596 15.5026 45.2746 15.5449C45.5896 15.5871 45.9427 15.511 46.0273 15.437C46.3085 15.1875 46.5136 14.8366 46.503 14.8281C46.503 14.8281 45.9068 14.9782 45.6805 14.9782C45.4543 14.9782 44.8877 14.8915 44.7714 14.881C44.6551 14.8704 44.321 14.7985 44.321 14.7985L44.3189 14.7964Z" fill="#F41C5E"/>
<path opacity="0.05" d="M36.6292 29.1945C36.5171 28.3382 36.8533 25.9194 36.8533 25.9194C36.8533 25.9194 36.7793 23.5747 35.997 22.6444C35.2147 21.7141 36.3564 20.0142 36.3564 20.0142C35.6376 20.4603 34.9927 20.6844 34.9927 22.3716C34.9927 24.0588 35.0181 27.6067 34.794 28.6998C34.5698 29.7907 33.8996 31.7528 34.1491 34.2837C34.3965 36.8145 34.6206 40.2143 34.4726 40.9585L34.462 41.0093C34.443 41.0727 34.3648 41.3349 34.2781 41.5336C34.1787 41.7599 34.1681 41.7852 34.1681 41.7852C34.1681 41.7852 34.2929 41.7345 34.3225 41.7028C35.5889 40.4004 35.2528 35.4867 35.4029 33.7741C35.553 32.0615 36.1852 31.1312 36.6694 30.9832C37.1535 30.8352 36.7434 30.0529 36.6313 29.1966L36.6292 29.1945Z" fill="#222222"/>
<path d="M45.0272 88.2282C45.0272 88.2282 45.2915 88.4015 45.8117 88.4523C46.3318 88.5009 46.8794 88.4036 47.1754 88.3402C47.4735 88.2789 48.2177 88.2282 48.4419 88.2282C48.666 88.2282 49.609 87.782 49.6576 87.6087C49.7062 87.4353 49.7316 87.0632 49.6576 86.7904C49.5836 86.5177 49.7041 86.3443 49.7041 86.3443C49.7041 86.3443 49.8796 85.9976 49.8563 85.6487C49.831 85.3019 49.7823 84.0862 49.7316 83.5386C49.683 82.9931 49.6069 81.826 49.4842 81.6273C49.3595 81.4285 49.1375 81.2298 49.1375 81.2298C49.1375 81.2298 49.2115 81.5279 49.2115 81.7499C49.2115 81.9719 48.888 81.9973 48.888 81.9973C48.888 81.9973 48.74 81.2277 48.4651 81.0797C48.1924 80.9317 46.6045 80.6822 46.281 80.7815C45.9575 80.8809 45.7842 81.7245 45.8349 81.8725C45.8857 82.0205 45.5875 82.0459 45.5875 82.0459C45.5875 82.0459 45.3402 81.7478 45.3148 81.9212C45.2894 82.0945 45.1414 82.3926 45.2894 82.5914C45.4374 82.7901 45.5622 83.5344 45.4882 84.0799C45.4142 84.6254 45.2598 85.3463 45.0272 85.7417C44.7947 86.1392 44.7207 86.5853 44.7439 86.8835C44.7672 87.1816 44.7397 87.4543 44.7397 87.4543C44.7397 87.4543 44.5156 87.9004 45.0272 88.2239V88.2282Z" fill="#333333"/>
<path d="M46.4544 83.4225C47.0232 83.266 47.6215 83.2977 48.1712 83.5113C48.3087 83.5642 48.3679 83.3443 48.2325 83.2914C47.6469 83.0652 46.9978 83.0356 46.3931 83.2026C46.2514 83.2428 46.3106 83.4627 46.4544 83.4225Z" fill="white"/>
<path d="M46.4162 83.8898C46.9849 83.7333 47.5833 83.765 48.133 83.9786C48.2704 84.0314 48.3296 83.8116 48.1943 83.7587C47.6086 83.5325 46.9595 83.5029 46.3549 83.6699C46.2132 83.7101 46.2724 83.93 46.4162 83.8898Z" fill="white"/>
<path d="M46.3761 84.3571C46.9449 84.2006 47.5432 84.2323 48.093 84.4459C48.2304 84.4987 48.2896 84.2788 48.1543 84.226C47.5686 83.9997 46.9195 83.9701 46.3148 84.1372C46.1732 84.1773 46.2324 84.3972 46.3761 84.3571Z" fill="white"/>
<path d="M46.3381 84.8263C46.9069 84.6698 47.5053 84.7016 48.055 84.9151C48.1924 84.968 48.2516 84.7481 48.1163 84.6952C47.5306 84.469 46.8815 84.4394 46.2768 84.6064C46.1352 84.6466 46.1944 84.8665 46.3381 84.8263Z" fill="white"/>
<path d="M44.0334 65.134C43.3167 65.3834 42.5576 65.4659 41.8049 65.3729C41.659 65.3538 41.6612 65.5843 41.8049 65.6012C42.5767 65.6964 43.3611 65.6118 44.0947 65.3538C44.2322 65.3052 44.173 65.0832 44.0334 65.134Z" fill="white"/>
<path d="M44.0334 65.7638C43.3167 66.0133 42.5576 66.0958 41.8049 66.0028C41.659 65.9837 41.6612 66.2142 41.8049 66.2311C42.5767 66.3262 43.3611 66.2417 44.0947 65.9837C44.2322 65.9351 44.173 65.7131 44.0334 65.7638Z" fill="white"/>
<path d="M44.0334 66.3918C43.3167 66.6413 42.5576 66.7237 41.8049 66.6307C41.659 66.6117 41.6612 66.8421 41.8049 66.859C42.5767 66.9542 43.3611 66.8696 44.0947 66.6117C44.2322 66.563 44.173 66.341 44.0334 66.3918Z" fill="white"/>
<path opacity="0.05" d="M34.7432 45.4286L33.6987 43.8788C33.6987 43.8788 33.5042 43.6188 33.5507 43.4327C33.5972 43.2466 33.6353 43.0986 33.6353 43.0986C33.6353 43.0986 33.6163 43.3587 33.7474 43.6653C33.8785 43.9718 34.7453 45.4286 34.7453 45.4286H34.7432Z" fill="#222222"/>
<path opacity="0.05" d="M33.7875 46.5006C33.7875 46.5006 33.0919 46.0693 33.056 45.9466C33.02 45.824 33.056 45.3145 33.056 45.3145C33.056 45.3145 32.8488 45.9572 33.0391 46.101C33.2293 46.2448 33.7875 46.5006 33.7875 46.5006Z" fill="#222222"/>
<path opacity="0.05" d="M33.8382 45.1135C33.8636 45.1452 33.2546 43.9971 33.2546 43.8428C33.2546 43.6884 33.3286 44.5194 33.2546 44.6314C33.1806 44.7435 33.354 44.5067 33.8382 45.1156V45.1135Z" fill="#222222"/>
<path opacity="0.05" d="M35.4958 44.5869C35.4958 44.5869 35.426 44.9675 35.6502 45.1155C35.8743 45.2635 36.109 45.3269 36.2083 45.1155C36.3077 44.9041 36.369 44.6567 36.369 44.6567C36.369 44.6567 36.3077 45.513 35.8108 45.3142C35.314 45.1155 35.3309 44.7561 35.4958 44.589V44.5869Z" fill="#222222"/>
<path opacity="0.08" d="M40.2616 18.5912C41.0016 18.3439 41.5724 18.1472 41.6655 18.0775C41.9382 17.8787 41.8388 16.2655 41.7141 15.4473C41.7141 15.4473 42.137 15.8511 42.545 16.0562C42.9552 16.2613 44.4965 17.1133 45.1033 17.2423C45.7101 17.3734 46.9238 16.2909 46.9238 16.2909L41.01 22.6423C41.01 22.6423 38.8471 19.0627 40.2594 18.5891L40.2616 18.5912Z" fill="#222222"/>
<path d="M41.1601 18.285C41.1601 18.285 40.697 20.1033 40.9571 21.5559C41.2172 23.0084 42.9107 23.5285 43.3569 23.5285C43.803 23.5285 45.1815 23.3615 45.9257 22.5602C46.3972 22.0527 48.2705 17.9827 48.4756 17.8706L50.1142 18.5218C50.1142 18.5218 49.0169 20.5135 49.296 22.5602C49.575 24.6068 49.9472 26.0953 50.8965 26.7296C51.8458 27.3618 52.2602 27.6239 52.2602 27.6239C52.2602 27.6239 50.8775 35.0875 50.8965 35.8127C50.9155 36.5379 51.4166 37.1278 51.5921 38.1194C51.7549 39.0476 51.7909 40.1512 51.7909 40.1512C51.7909 40.1512 48.465 41.9696 44.2787 41.7074C40.0924 41.4473 37.5108 40.073 37.5108 40.073C37.5108 40.073 37.7582 38.3245 38.2233 37.2631C38.6884 36.2017 38.5975 34.9183 38.5574 33.914C38.513 32.785 37.7687 31.7172 37.9442 27.791C37.959 27.4548 37.7962 27.1588 37.7962 26.9537C37.7962 26.7486 37.8702 24.0507 38.5214 22.6743C38.921 21.8286 39.4137 18.9045 39.4137 18.9045" fill="white"/>
<path d="M39.2848 18.9147C39.2848 18.9147 38.919 21.8261 38.5194 22.6719C37.8682 24.0483 37.7942 26.7483 37.7942 26.9512C37.7942 27.1542 37.957 27.4544 37.9422 27.7885C37.7688 31.7148 38.5131 32.7825 38.5554 33.9116C38.5934 34.9159 38.6865 36.2014 38.2213 37.2606C38.0226 37.7152 37.864 38.2924 37.7456 38.8083C38.7245 38.0577 39.8261 37.4573 40.676 36.3536C41.7057 34.8651 39.9889 33.9496 39.7605 32.5753C39.5322 31.0868 41.7078 30.628 41.7078 29.8267C41.7078 28.797 39.7605 28.5666 38.9592 27.4227C38.2721 26.5072 39.418 25.4754 39.8747 24.56C39.9889 24.2174 39.7605 23.7586 39.9889 23.6445C40.3864 23.1687 40.8388 22.748 41.3082 22.3822C41.1412 22.1475 41.0143 21.8748 40.9572 21.5555C40.6972 20.103 41.1602 18.2847 41.1602 18.2847" fill="#222222"/>
<path d="M49.2642 36.4701C49.0359 35.8972 49.6068 35.3242 49.9514 34.7533C50.1797 34.2945 49.6089 33.7236 49.8372 33.2648C50.2009 32.3937 51.0699 31.7531 51.6576 30.9624C51.9706 29.1927 52.2623 27.6239 52.2623 27.6239C52.2623 27.6239 51.8458 27.3638 50.8986 26.7295C49.9493 26.0973 49.5772 24.6088 49.2981 22.5601C49.019 20.5134 50.0508 18.7395 50.0508 18.7395L47.6426 17.7627C47.4375 17.8748 46.4015 22.0548 45.93 22.5601C45.1857 23.3593 43.8093 23.5284 43.3611 23.5284C43.0122 23.5284 41.9064 23.2113 41.3123 22.3825C40.8429 22.7482 40.3905 23.169 39.993 23.6447C39.7646 23.7589 39.993 24.2177 39.8788 24.5602C39.42 25.4757 38.2762 26.5075 38.9633 27.423C39.7646 28.569 41.7119 28.7973 41.7119 29.827C41.7119 30.6283 39.5363 31.0871 39.7646 32.5756C39.993 33.9499 41.7119 34.8654 40.6801 36.3538C39.8302 37.4575 38.7286 38.058 37.7497 38.8086C37.5932 39.4978 37.5108 40.0708 37.5108 40.0708C37.5108 40.0708 40.0924 41.4451 44.2787 41.7052C45.2217 41.7644 46.1181 41.7157 46.9448 41.61C47.5897 40.5888 48.4016 39.7008 49.2664 38.7578C49.7252 38.0707 49.6089 37.2694 49.2664 36.468L49.2642 36.4701Z" fill="#333333"/>
<path d="M49.8374 33.2624C49.609 33.7213 50.1799 34.2921 49.9515 34.7509C49.609 35.3239 49.036 35.8969 49.2644 36.4677C49.6069 37.2691 49.7232 38.0704 49.2644 38.7575C48.3996 39.7005 47.5899 40.5907 46.9429 41.6098C49.7909 41.2397 51.7889 40.1488 51.7889 40.1488C51.7889 40.1488 51.7529 39.0451 51.5901 38.1169C51.4168 37.1253 50.9136 36.5354 50.8945 35.8102C50.884 35.4169 51.2857 33.0489 51.6557 30.96C51.0679 31.7507 50.1989 32.3914 49.8353 33.2624H49.8374Z" fill="#222222"/>
<path d="M37.9823 37.9204C37.6715 38.9205 37.5087 40.0728 37.5087 40.0728L37.9823 37.9204Z" fill="white"/>
<path d="M38.2212 37.2628C38.5087 36.6073 38.5827 35.8652 38.5891 35.1548L37.9801 37.9203C38.052 37.6877 38.1324 37.4636 38.2212 37.2628Z" fill="white"/>
<path opacity="0.05" d="M52.8755 24.8964L54.5691 26.571C54.5691 26.571 56.1463 26.4568 56.8652 26.6534C57.582 26.8501 58.2691 26.9473 58.2691 26.9473C58.2691 26.9473 54.9243 25.5392 53.6641 24.1987C52.404 22.8582 51.6027 22.577 51.349 23.2325C51.0952 23.8879 51.5858 26.5731 51.5858 26.5731L51.6513 26.6788C51.6513 26.6788 52.4738 24.9218 52.8776 24.8985L52.8755 24.8964Z" fill="#222222"/>
<path d="M41.6315 14.589C40.938 12.2083 41.7499 11.3181 41.7964 11.2463C41.8197 11.5296 41.6654 12.0053 41.566 12.3436C41.8535 12.0729 44.7924 8.53993 44.8685 8.41519L46.2006 10.5506L45.6741 9.12137C45.8242 9.70069 47.4691 11.1427 47.7229 11.519C47.9491 11.8573 48.0231 13.6227 48.0231 13.6227C48.0231 13.6227 48.6341 12.5508 48.6933 11.6226C48.7969 10.0052 48.1478 8.34753 46.9913 7.14237C45.9405 6.04927 45.8813 6.18247 45.8813 6.18247C45.8813 6.18247 45.0567 5.58412 44.3949 5.56932C42.0734 5.52281 41.3863 7.17197 40.9127 8.71753C40.7224 9.33703 40.3059 10.1785 40.4623 11.4196C40.5384 12.0285 40.1853 12.481 40.1283 13.073C40.086 13.5043 41.8831 15.441 41.6336 14.5869L41.6315 14.589Z" fill="#333333"/>
<path d="M43.3442 11.1027C43.5112 8.62894 44.5768 8.07076 44.6466 8.02002C44.5705 8.29488 44.2618 8.68814 44.0525 8.97146C44.4161 8.815 43.3442 11.1027 43.3442 11.1027Z" fill="#333333"/>
<path fill-rule="evenodd" clip-rule="evenodd" d="M45.2852 13.7223C45.1921 13.6525 45.0864 13.5933 45.0188 13.644C44.9765 13.6757 45.0272 13.7011 45.1477 13.7455C45.2535 13.7857 45.3401 13.8111 45.3655 13.8111C45.4332 13.8132 45.3993 13.8026 45.2852 13.7201V13.7223Z" fill="#B99985"/>
<path fill-rule="evenodd" clip-rule="evenodd" d="M46.2472 13.644C46.1795 13.5933 46.0738 13.6525 45.9807 13.7223C45.8687 13.8047 45.8327 13.8153 45.9004 13.8132C45.9258 13.8132 46.0125 13.7878 46.1182 13.7476C46.2387 13.7011 46.2894 13.6757 46.2472 13.6461V13.644Z" fill="#B99985"/>
<path fill-rule="evenodd" clip-rule="evenodd" d="M43.5936 11.872H44.1306C44.1708 11.8107 44.1919 11.7367 44.1856 11.6564C44.1687 11.4745 44.0101 11.3434 43.8325 11.3604C43.6549 11.3773 43.5238 11.538 43.5407 11.7198C43.5471 11.7769 43.5661 11.8276 43.5936 11.872Z" fill="#333333"/>
<path d="M42.9191 11.4173C42.9128 11.3855 43.0946 11.4976 43.3229 11.4088C43.5513 11.32 44.2448 11.1995 44.638 11.7978C44.638 11.7978 43.6591 11.1657 43.2912 11.838C43.2912 11.838 43.0016 11.7704 42.9191 11.4173Z" fill="#333333"/>
<path fill-rule="evenodd" clip-rule="evenodd" d="M47.0675 11.8764C47.0971 11.832 47.1161 11.7813 47.1225 11.7242C47.1394 11.5424 47.0104 11.3817 46.8307 11.3647C46.6531 11.3478 46.4945 11.4789 46.4776 11.6608C46.4692 11.739 46.4903 11.8151 46.5305 11.8764H47.0675Z" fill="#333333"/>
<path d="M47.744 11.4238C47.7525 11.3921 47.5685 11.5041 47.3402 11.4153C47.1118 11.3244 46.4184 11.2039 46.023 11.8022C46.023 11.8022 47.0019 11.1722 47.3698 11.8445C47.3698 11.8445 47.6595 11.7769 47.7419 11.4238H47.744Z" fill="#333333"/>
<path d="M47.3444 10.7515C47.1752 10.7345 46.6319 10.8699 46.3316 10.9291C46.2767 11.039 46.2513 11.0686 46.2006 11.1849C46.5156 11.0897 46.8877 11.0052 47.2006 10.9735C47.5749 10.9354 47.6573 10.9925 48.0315 11.0961C47.8645 10.9544 47.6637 10.7853 47.3444 10.7515Z" fill="#333333"/>
<path d="M43.4393 10.7515C43.6085 10.7345 44.1519 10.8699 44.4521 10.9291C44.5071 11.039 44.5324 11.0686 44.5832 11.1849C44.2682 11.0897 43.896 11.0052 43.5831 10.9735C43.2089 10.9354 43.1264 10.9925 42.7522 11.0961C42.9192 10.9544 43.1201 10.7853 43.4393 10.7515Z" fill="#333333"/>
<path d="M51.8986 26.8518C51.8986 26.8518 46.8179 25.431 46.1878 25.2364C45.5578 25.044 44.7797 24.8918 44.638 25.1032C44.4964 25.3147 44.2997 25.5938 44.2997 25.5938C44.2997 25.5938 44.1729 25.691 44.2004 25.8327C44.2279 25.9743 44.1687 26.2429 44.1687 26.2429C44.1687 26.2429 43.9213 26.708 43.9551 26.8856C43.9847 27.078 44.1539 27.3085 44.1539 27.3085C44.1539 27.3085 44.3336 28.2789 44.471 28.3825C44.6084 28.4861 44.767 28.5157 44.767 28.5157C44.767 28.5157 44.8918 28.7843 45.2956 28.78C45.6973 28.7758 46.2914 28.3233 46.2914 28.3233C46.2914 28.3233 47.3232 28.4608 47.6002 28.4227C47.8793 28.3847 48.4079 28.1648 48.4988 28.1394C49.131 28.0316 52.165 28.9767 52.165 28.9767L53.2454 27.0611L51.8986 26.8497V26.8518Z" fill="#EAC3A6"/>
<path opacity="0.05" d="M51.8986 26.8433C51.8986 26.8433 46.8179 25.431 46.1878 25.2364C45.5578 25.044 44.7797 24.8918 44.638 25.1032C44.4964 25.3147 44.2997 25.5938 44.2997 25.5938C44.2997 25.5938 44.1729 25.691 44.2004 25.8327C44.2279 25.9743 44.1687 26.2429 44.1687 26.2429C44.1687 26.2429 43.9213 26.708 43.9551 26.8856C43.9847 27.078 44.1539 27.3085 44.1539 27.3085C44.1539 27.3085 44.3336 28.2789 44.471 28.3825C44.6084 28.4861 44.767 28.5157 44.767 28.5157C44.767 28.5157 44.8918 28.7843 45.2956 28.78C45.6973 28.7758 46.2914 28.3233 46.2914 28.3233C46.2914 28.3233 47.3232 28.4608 47.6002 28.4227C47.8793 28.3847 48.4079 28.1648 48.4988 28.1394C49.131 28.0316 50.5095 27.6848 50.5095 27.6848L51.7252 28.059L52.0255 27.0442L51.8986 26.8412V26.8433Z" fill="#222222"/>
<path d="M52.1565 26.56C52.1565 26.56 46.82 25.4288 46.1878 25.2364C45.5578 25.044 44.7797 24.8918 44.638 25.1032C44.4964 25.3147 44.2997 25.5938 44.2997 25.5938C44.2997 25.5938 44.1729 25.691 44.2004 25.8327C44.2131 25.9701 44.1687 26.2429 44.1687 26.2429C44.1687 26.2429 43.9213 26.708 43.9551 26.8856C43.9847 27.078 44.1539 27.3085 44.1539 27.3085C44.1539 27.3085 44.3336 28.2789 44.471 28.3825C44.6084 28.4861 44.767 28.5157 44.767 28.5157C44.767 28.5157 44.8918 28.7843 45.2956 28.78C45.3315 28.7737 45.3823 28.7716 45.4161 28.7631L45.4055 28.7441C45.395 28.7251 45.3992 28.7081 45.4224 28.6828C45.4816 28.6489 45.5451 28.6003 45.6106 28.5517C45.6339 28.5242 45.6487 28.4777 45.6719 28.4523C45.6889 28.391 45.7185 28.3487 45.7311 28.3022C45.6127 28.3699 45.4711 28.3973 45.34 28.3255C45.2935 28.3128 45.3146 28.2345 45.3611 28.2472C45.4774 28.2472 45.5853 28.2261 45.6952 28.1901C45.5409 28.1457 45.3992 28.0569 45.285 27.9258C45.2618 27.8857 45.2956 27.8286 45.3379 27.8561C45.4373 27.9174 45.5535 27.9829 45.6529 28.0442C45.71 28.0781 45.7523 28.1056 45.8199 28.1077C45.8707 28.1056 45.9257 28.0865 45.9658 28.0654C46.1519 27.9998 46.5367 28.2916 46.4627 28.3212C46.412 28.3233 46.3464 28.3212 46.3105 28.3297C46.4902 28.3466 47.3296 28.4481 47.5896 28.4206C47.8835 28.3868 48.3973 28.1627 48.4882 28.1373C49.1204 28.0294 50.9049 28.4671 50.9049 28.4671L52.3172 28.7969L52.1608 26.5621L52.1565 26.56Z" fill="#EAC3A6"/>
<path d="M49.5874 28.3593L50.1646 26.2112C50.1858 26.1351 50.264 26.0907 50.3401 26.1076C50.3401 26.1076 50.3422 26.1076 50.3443 26.1076L50.6488 26.19C50.6615 26.1943 50.6742 26.1985 50.6847 26.2048C50.7418 26.2366 50.7714 26.3042 50.7545 26.3698L50.1773 28.5179C50.1773 28.5179 50.171 28.5369 50.1667 28.5454C50.1371 28.6067 50.0652 28.6384 49.9955 28.6194L49.691 28.5369C49.6128 28.5158 49.5641 28.4354 49.5853 28.3572L49.5874 28.3593Z" fill="#333333"/>
<path d="M49.5875 28.3594L49.7144 27.8857C49.763 27.9301 49.7947 27.9999 49.856 28.0253C49.7778 28.1099 49.7144 28.2092 49.6742 28.3171C49.6615 28.3488 49.6509 28.3847 49.6594 28.4186C49.6721 28.4672 49.7207 28.4989 49.7672 28.5222C49.8391 28.556 49.9152 28.5835 49.9934 28.5856C50.0526 28.5856 50.114 28.575 50.1647 28.5454C50.1351 28.6067 50.0632 28.6384 49.9934 28.6194L49.689 28.537C49.6108 28.5158 49.5621 28.4355 49.5833 28.3572L49.5875 28.3594Z" fill="#333333"/>
<path d="M49.9554 26.9914L50.1647 26.2112C50.1859 26.1351 50.2641 26.0907 50.3402 26.1076C50.336 26.1076 50.3318 26.1076 50.3275 26.1097C50.2937 26.1182 50.2578 26.1287 50.2324 26.1541C50.207 26.1795 50.1246 26.5114 50.1098 26.56C50.1309 26.5368 50.1817 26.5283 50.2134 26.5262C50.3064 26.5199 50.4015 26.5537 50.4756 26.6108C50.5453 26.6658 50.5982 26.7398 50.632 26.8201L50.5495 27.1225C50.5178 27.1309 50.4861 27.1351 50.4523 27.1373C50.3571 27.1415 50.262 27.1203 50.1711 27.0907C50.095 27.0654 50.0189 27.0337 49.9533 26.9871L49.9554 26.9914Z" fill="#333333"/>
<path d="M49.6573 27.7861L49.911 26.8474C49.9638 26.6528 50.1689 26.5366 50.3677 26.5894C50.467 26.6169 50.5474 26.6803 50.596 26.7628C50.6446 26.8453 50.6616 26.9446 50.6341 27.0419L50.3804 27.9806C50.3381 28.1371 50.1985 28.2428 50.0442 28.2492C50.004 28.2513 49.9659 28.2492 49.9258 28.2365C49.9067 28.2322 49.8898 28.2259 49.8729 28.2174C49.7968 28.1857 49.7376 28.1308 49.6974 28.0631C49.6488 27.9806 49.6319 27.8813 49.6594 27.784L49.6573 27.7861Z" fill="#333333"/>
<path d="M50.1858 27.2598C50.1858 27.2598 50.2513 27.3909 50.2703 27.4353C50.2809 27.4585 50.283 27.4839 50.2767 27.5071C50.2703 27.5304 50.2577 27.5515 50.2365 27.5642C50.2154 27.5769 50.1921 27.5811 50.1689 27.5769C50.1562 27.5727 50.1456 27.5663 50.135 27.5579C50.1244 27.5494 50.1181 27.5389 50.1139 27.5262C50.1033 27.5346 50.0927 27.541 50.0801 27.5431C50.0674 27.5452 50.0547 27.5452 50.042 27.5431C50.0187 27.5367 49.9997 27.5198 49.9891 27.4987C49.9786 27.4775 49.9764 27.4522 49.9828 27.4289C49.9891 27.4057 50.0039 27.3845 50.0251 27.3697C50.0653 27.3401 50.1879 27.2598 50.1879 27.2598H50.1858Z" fill="#F64D81"/>
<path opacity="0.2" d="M50.078 27.5452C50.0907 27.5431 50.1034 27.5367 50.1118 27.5283C50.0421 27.5177 49.9596 27.4479 50.1837 27.2598C50.1837 27.2598 50.0611 27.3401 50.0209 27.3697C49.9998 27.3845 49.985 27.4057 49.9786 27.4289C49.9723 27.4522 49.9723 27.4775 49.985 27.4987C49.9977 27.5198 50.0146 27.5367 50.0378 27.5431C50.0505 27.5473 50.0632 27.5473 50.0759 27.5431L50.078 27.5452Z" fill="#333333"/>
<path opacity="0.2" d="M49.9089 26.8454C49.9618 26.6509 50.1669 26.5346 50.3656 26.5875C50.465 26.615 50.5453 26.6784 50.594 26.7608C50.6426 26.8433 50.6595 26.9427 50.632 27.0399L50.6045 27.1414C50.6045 27.1414 50.6045 27.1414 50.6024 27.1414C50.5876 27.1414 50.5707 27.1414 50.5559 27.1456C50.5517 27.1456 50.5475 27.1456 50.5432 27.1456C50.4988 27.152 50.4544 27.1647 50.4143 27.1816C50.2726 27.2408 50.1605 27.3507 50.0696 27.4712C49.9724 27.6002 49.8941 27.7461 49.8645 27.9047C49.8455 28.0041 49.8455 28.1098 49.8688 28.2091C49.8688 28.2113 49.8688 28.2155 49.8709 28.2176C49.7948 28.1859 49.7356 28.1309 49.6954 28.0633C49.6468 27.9808 49.6298 27.8814 49.6573 27.7842L49.911 26.8454H49.9089Z" fill="white"/>
<path d="M42.3864 63.3851C40.769 62.6768 41.2362 60.7084 40.9804 58.8224C40.3102 53.8918 37.5912 51.3779 37.5912 51.3779C38.0077 54.1688 39.086 60.571 39.086 60.571C39.086 60.571 39.272 62.3195 39.5702 62.7677C39.8683 63.2139 40.8366 64.6283 41.8029 64.7404C42.7691 64.8525 44.0694 64.4803 44.3697 63.9581C44.6699 63.438 45.0272 62.6916 45.0272 62.6916C45.0272 62.6916 44.0039 64.0913 42.3864 63.383V63.3851Z" fill="#D30A48"/>
<path opacity="0.11" d="M46.2704 79.7795C46.2704 79.7795 46.4184 78.6632 46.4184 78.031C46.4184 77.3988 45.8602 73.0053 45.5621 72.039C45.264 71.0707 45.4141 69.6562 45.4501 68.876C45.4881 68.0937 45.078 65.6369 44.8179 64.5966C44.5578 63.5564 45.1858 56.446 45.1858 56.446C45.1858 56.446 44.93 51.9784 45.0272 52.4266C45.0272 52.4266 44.4627 50.9635 45.1858 49.8218C45.911 48.6801 47.2747 47.2402 47.2747 47.2402C47.2747 47.2402 47.6384 52.3526 46.873 56.3212C46.1097 60.2919 45.1435 62.5246 45.4776 63.715C45.8116 64.9053 47.0231 68.6286 47.3614 71.7557C47.6976 74.8828 46.2704 79.7837 46.2704 79.7837" fill="black"/>
<path opacity="0.1" d="M46.9766 88.9243C49.8223 88.9243 52.1292 88.6677 52.1292 88.3513C52.1292 88.0348 49.8223 87.7783 46.9766 87.7783C44.1309 87.7783 41.824 88.0348 41.824 88.3513C41.824 88.6677 44.1309 88.9243 46.9766 88.9243Z" fill="#333333"/>
<path d="M59.7556 26.6534C58.7259 26.1333 56.6052 23.9091 56.1084 23.1416C55.6115 22.372 54.7933 20.5367 53.6029 20.0399C52.4506 19.5599 48.4947 18.1983 48.2326 18.1095C48.222 18.1053 48.2135 18.101 48.2051 18.0968L47.7991 17.8558C47.7167 17.8071 47.6109 17.8431 47.5729 17.9319C47.353 18.4457 47.0422 18.9299 46.6658 19.3295C46.2345 19.7883 45.8095 19.968 45.2746 20.0441C45.2958 20.0462 45.3169 20.0504 45.3402 20.0526C45.2704 20.0568 45.2006 20.0589 45.1309 20.0631C45.0378 20.0737 44.9406 20.0821 44.8391 20.0885C44.1223 20.1308 43.2005 20.3316 42.5493 19.932C41.989 19.5874 41.6634 18.9679 41.6211 18.3273C41.6148 18.2216 41.5069 18.1539 41.4075 18.192C40.4117 18.5725 36.9907 19.6191 36.3586 20.0124C35.6397 20.4585 34.9948 20.6826 34.9948 22.3698C34.9948 24.0571 35.0202 27.6049 34.7961 28.698C34.572 29.789 33.9017 31.751 34.1512 34.2819C34.3352 36.17 34.5064 38.538 34.5212 39.9292C34.5212 40.0201 34.5973 40.0899 34.6883 40.0857C34.8595 40.0772 35.0287 40.0709 35.1999 40.073C35.4388 40.0751 35.868 40.0984 36.2507 40.1977C36.3628 40.2273 36.4664 40.1301 36.4453 40.0159C36.3839 39.6713 36.3353 39.3774 36.3353 39.2442C36.3353 38.8467 37.403 33.0661 37.4263 32.4213C37.4496 31.7764 37.6314 28.6472 37.6483 28.3491C37.6483 28.3322 37.6525 28.3195 37.6589 28.3047L37.8005 27.9263C37.8576 27.7719 38.086 27.7952 38.1071 27.9601C38.3651 29.8778 39.1135 35.5653 38.9909 35.8951C38.8429 36.2926 37.9232 39.0222 37.8999 39.4429C37.883 39.7262 37.8386 39.9926 37.8111 40.1364C37.7984 40.2041 37.8301 40.2738 37.8914 40.3056C38.4792 40.6269 41.4879 42.1958 44.228 42.2951C47.2811 42.4072 50.8543 40.7686 51.1884 40.4345C51.4759 40.147 51.5436 39.9144 51.5584 39.8552C51.5605 39.8446 51.5605 39.8362 51.5626 39.8256C51.5647 39.6818 51.5774 38.4175 51.2264 37.6796C50.8543 36.8973 50.5202 36.3772 50.7063 35.6689C50.8924 34.9627 51.8227 29.863 51.8607 29.5648C51.8797 29.4147 51.8797 29.2392 51.8755 29.0976C51.8713 28.9834 51.9833 28.9031 52.0891 28.9411C52.8206 29.2139 55.085 30.0554 55.5206 30.159C56.0407 30.2837 57.8527 30.4317 58.4489 30.307C59.0451 30.1822 60.0452 30.2943 60.356 30.0279C60.6245 29.7974 60.4533 29.5585 60.855 28.9919C61.5485 28.0151 60.9882 27.2666 59.764 26.6492L59.7556 26.6534ZM51.2476 29.4401C51.1799 29.4972 51.0298 29.5162 50.8649 29.5204C50.7972 29.5204 50.7401 29.567 50.719 29.6304C50.3321 30.8313 49.313 31.9075 48.0317 31.9075C46.8519 31.9075 45.7355 31.4994 45.0505 30.6579C45.0294 30.6326 44.9998 30.6135 44.9659 30.6051C43.6403 30.307 42.562 29.4126 42.3738 27.8755C42.1772 26.275 43.4521 24.2368 45.2175 24.2368C46.3973 24.2368 47.5137 24.6448 48.1987 25.4863C48.2199 25.5117 48.2495 25.5307 48.2833 25.5392C48.5243 25.5942 48.7548 25.6745 48.9747 25.7697C49.0339 25.7591 49.0931 25.7506 49.1586 25.7506C49.2242 25.7506 49.2813 25.757 49.3405 25.7654C49.351 25.7654 49.3574 25.7633 49.3679 25.7633C49.7295 25.7633 50.0065 25.924 50.1946 26.1523C50.2052 26.1523 50.2179 26.1545 50.2285 26.1566C50.4145 26.1862 50.6006 26.2242 50.7845 26.2665C50.8268 26.2771 50.8691 26.2877 50.9093 26.3025L51.1503 26.368C51.3596 26.3997 51.5668 26.4314 51.7761 26.4674C51.8692 26.4843 52.0087 26.4885 52.0933 26.5519C52.1356 26.5562 52.1631 26.5625 52.1652 26.5731C52.3745 27.6239 52.0827 28.7381 51.2539 29.438L51.2476 29.4401ZM52.2899 26.4314C52.1884 26.4187 52.125 26.3151 52.1609 26.2179C52.2836 25.8817 52.55 25.1882 52.6895 25.0614L52.8756 24.8943L54.2774 26.2792C54.381 26.3807 54.3049 26.5583 54.159 26.5519C53.6388 26.5287 52.753 26.4843 52.2899 26.4293V26.4314Z" fill="#333333"/>
<path opacity="0.05" d="M42.5472 19.934C41.9214 19.5492 41.5915 18.824 41.6148 18.1094C41.3738 18.2341 40.5132 18.5322 39.4117 18.9022L39.7161 24.0591L43.302 20.1645C43.0314 20.1391 42.7734 20.0736 42.5472 19.934Z" fill="#333333"/>
<path opacity="0.05" d="M34.5191 40.0962C34.6862 40.0857 34.8511 40.0793 35.0181 40.0772C35.4452 38.0644 35.2909 35.043 35.4029 33.7744C35.5509 32.0618 36.1852 31.1315 36.6694 30.9835C37.1536 30.8355 36.7434 30.0532 36.6313 29.1969C36.5193 28.3407 36.8554 25.9219 36.8554 25.9219C36.8554 25.9219 36.7814 23.5771 35.9991 22.6468C35.2169 21.7165 36.3586 20.0166 36.3586 20.0166C35.6397 20.4627 34.9948 20.6868 34.9948 22.3741C34.9948 24.0613 35.0202 27.6091 34.7961 28.7022C34.572 29.7932 33.9017 31.7553 34.1512 34.2861C34.3436 36.2503 34.5212 38.7367 34.5212 40.0983L34.5191 40.0962Z" fill="#333333"/>
<path d="M49.8459 85.4863C49.7719 85.5032 49.6979 85.5202 49.6239 85.535C48.8458 85.6872 48.0508 85.7379 47.2706 85.8796C46.4735 86.0255 45.6638 86.1523 44.8582 86.1164C44.7588 86.3997 44.7271 86.6809 44.744 86.886C44.7694 87.1841 44.7398 87.4569 44.7398 87.4569C44.7398 87.4569 44.5157 87.903 45.0273 88.2265C45.0273 88.2265 45.2916 88.3998 45.8118 88.4506C46.3319 88.4992 46.8795 88.402 47.1755 88.3385C47.4736 88.2772 48.2178 88.2265 48.442 88.2265C48.6661 88.2265 49.6091 87.7804 49.6577 87.607C49.7063 87.4336 49.7317 87.0615 49.6577 86.7887C49.5837 86.516 49.7042 86.3426 49.7042 86.3426C49.7042 86.3426 49.8797 85.9959 49.8564 85.647C49.8543 85.6047 49.8501 85.5498 49.8459 85.4863Z" fill="#333333"/>
<path opacity="0.08" d="M42.5472 19.9342C41.9214 19.5494 41.5895 18.8221 41.6148 18.1074C41.4393 18.192 40.9171 18.3717 40.2617 18.5916C38.8493 19.0652 41.0122 22.6447 41.0122 22.6447L43.3211 20.1646C43.0441 20.1393 42.7777 20.0758 42.5472 19.9342Z" fill="#333333"/>
<path d="M48.353 18.1475C48.1479 18.2595 46.3972 22.0526 45.9257 22.56C45.1815 23.3592 43.8051 23.5284 43.3568 23.5284C43.008 23.5284 41.9022 23.2112 41.3081 22.3824C40.8387 22.7482 40.3862 23.169 39.9887 23.6447C39.7604 23.7588 39.9887 24.2177 39.8746 24.5602C39.4158 25.4757 38.2719 26.5075 38.9591 27.423C39.4094 30.1758 41.7077 28.7973 41.7077 29.8269C41.7077 30.6283 39.532 31.0871 39.7604 32.5755C39.9887 33.9498 41.7077 34.8653 40.6759 36.3538C39.8259 37.4575 38.7244 38.0579 37.7455 38.8085C37.589 39.4978 37.5065 40.0708 37.5065 40.0708C37.5065 40.0708 40.0881 41.4451 44.2745 41.7051C45.2174 41.7643 46.1139 41.7157 46.9406 41.61C47.5855 40.5888 48.3974 39.7008 49.2621 38.7578C49.7209 38.0706 49.6046 37.2693 49.2621 36.468C49.0338 35.895 49.6046 35.3241 49.9493 34.7512C50.1776 34.2924 49.6068 33.7215 49.8351 33.2627C50.1988 32.3916 51.0677 31.751 51.6555 30.9602C51.9684 29.1905 52.2602 27.6217 52.2602 27.6217C52.2602 27.6217 52.2391 27.609 52.1989 27.5836C52.1207 28.294 51.812 28.9622 51.2475 29.44C51.1629 29.5098 50.9599 29.5225 50.7527 29.5204C50.3933 30.7657 49.3509 31.9074 48.0316 31.9074C46.8328 31.9074 45.6995 31.4867 45.0187 30.6177C43.6677 30.3301 42.5661 29.4337 42.3737 27.8775C42.1771 26.277 43.452 24.2388 45.2174 24.2388C46.4163 24.2388 47.5495 24.6595 48.2303 25.5285C48.4904 25.5835 48.7378 25.6681 48.9725 25.7717C49.0317 25.7611 49.0909 25.7526 49.1564 25.7526C49.2219 25.7526 49.279 25.759 49.3382 25.7674C49.3488 25.7674 49.3552 25.7653 49.3657 25.7653C49.7273 25.7653 50.0043 25.926 50.1924 26.1544C50.203 26.1544 50.2157 26.1565 50.2262 26.1586C50.2664 26.1649 50.3045 26.1734 50.3447 26.1797C49.7886 25.4038 49.5137 24.1521 49.296 22.56" fill="#333333"/>
<path d="M37.9824 37.9204C37.6716 38.9205 37.5088 40.0728 37.5088 40.0728L37.9824 37.9204Z" fill="#333333"/>
<path d="M38.2213 37.2632C38.5088 36.6078 38.5828 35.8657 38.5892 35.1553L37.9802 37.9208C38.0521 37.6882 38.1325 37.4641 38.2213 37.2632Z" fill="#333333"/>
<path d="M52.2053 26.9009C52.2751 27.5923 52.1313 28.2858 51.7613 28.8566C52.0087 28.9306 52.1672 28.9792 52.1672 28.9792L53.2476 27.0637L52.2053 26.9009Z" fill="#333333"/>
<path d="M50.2242 26.1588C50.4103 26.1884 50.5963 26.2265 50.7803 26.2688C50.8627 26.2878 50.9388 26.3153 51.0128 26.347C51.072 26.3555 51.1312 26.3639 51.1904 26.3766C51.3194 26.3978 51.4505 26.4168 51.5795 26.4379C51.22 26.3618 50.7253 26.2561 50.1756 26.1377C50.1798 26.144 50.184 26.1483 50.1882 26.1546C50.1988 26.1546 50.2115 26.1567 50.2221 26.1588H50.2242Z" fill="#333333"/>
<path d="M52.2158 27.4189C52.1904 27.8672 52.0678 28.3027 51.8521 28.6896L52.3109 28.7975L52.2137 27.4189H52.2158Z" fill="#333333"/>
<path d="M40.6782 36.354C41.7079 34.8655 39.9911 33.95 39.7627 32.5757C39.5344 31.0872 41.71 30.6284 41.71 29.8271C41.71 28.7974 39.7627 28.567 38.9614 27.4231C38.2743 26.5076 39.4202 25.4758 39.8769 24.5603C39.9911 24.2178 39.7627 23.759 39.9911 23.6448C40.3886 23.1691 40.6951 22.3657 41.1645 21.9999C40.9975 21.7652 44.1859 20.5833 43.0589 20.1245C41.8136 19.6192 41.6043 18.3633 41.6677 18.0757C41.6698 18.0631 41.1709 18.2745 41.1603 18.2808C41.1074 18.3147 40.9066 18.3506 40.4922 18.4605C39.8114 18.6424 39.2849 18.9109 39.2849 18.9109C39.2849 18.9109 38.9191 21.8223 38.5195 22.668C37.8683 24.0445 37.7943 26.7444 37.7943 26.9474C37.7943 27.1504 37.9571 27.4506 37.9423 27.7847C37.7689 31.711 38.5132 32.7787 38.5555 33.9077C38.5935 34.912 38.6865 36.1975 38.2214 37.2568C38.0227 37.7114 37.8641 38.2886 37.7457 38.8045C38.7246 38.0539 39.8262 37.4534 40.6761 36.3498L40.6782 36.354Z" fill="#222222"/>
<path d="M46.4248 31.6261C45.8963 33.7764 45.1393 35.914 44.1646 37.9543C43.4141 39.5231 42.6 40.8932 41.8389 41.9715C41.8791 41.9863 41.9192 42.0032 41.9573 42.018C41.9911 42.0307 42.0249 42.0455 42.0567 42.0582C42.8094 40.9904 43.6107 39.6394 44.3697 38.0515C45.3486 36.0028 46.1098 33.8546 46.6405 31.698C46.5686 31.6748 46.4946 31.6515 46.4248 31.624V31.6261Z" fill="#222222"/>
<path d="M49.8375 33.2629C49.6091 33.7217 50.18 34.2926 49.9516 34.7514C49.6091 35.3244 49.0361 35.8974 49.2645 36.4682C49.607 37.2696 49.7233 38.0709 49.2645 38.758C48.3997 39.701 47.5899 40.5911 46.943 41.6102C49.7909 41.2402 51.789 40.1493 51.789 40.1493C51.789 40.1493 51.753 39.0456 51.5902 38.1174C51.4169 37.1258 50.9136 36.5359 50.8946 35.8107C50.884 35.4174 51.2858 33.0494 51.6558 30.9604C51.068 31.7512 50.199 32.3918 49.8354 33.2629H49.8375Z" fill="#222222"/>
<path d="M53.6641 24.1987C52.4039 22.8582 51.6026 22.577 51.3489 23.2325C51.129 23.7991 51.4673 25.8838 51.5624 26.4357C51.6259 26.4462 51.6893 26.4547 51.7527 26.4674C51.9832 26.0043 52.5583 24.9155 52.8754 24.8964L54.569 26.571C54.569 26.571 56.1463 26.4568 56.8651 26.6534C57.584 26.8501 58.2691 26.9473 58.2691 26.9473C58.2691 26.9473 54.9242 25.5392 53.6641 24.1987Z" fill="#222222"/>
<path d="M46.4859 26.8774C46.4817 26.9577 46.5007 27.0317 46.5134 27.1121C46.543 27.2812 46.5726 27.3552 46.6508 27.5202C46.6678 27.5561 46.6868 27.5899 46.71 27.6216C46.7735 27.7062 46.8454 27.7971 46.9299 27.8627C47.3126 28.1714 47.8349 27.8965 48.0505 27.5202C48.1816 27.2939 48.2746 27.0233 48.2471 26.7611C48.2239 26.5433 48.1605 26.3108 47.9807 26.167C47.9554 26.148 47.9342 26.1247 47.911 26.1014L48.0463 26.26C48.0167 26.222 47.9913 26.1839 47.9723 26.1395L48.0632 26.3404C48.0505 26.3108 48.0421 26.2812 48.0357 26.2495L48.0759 26.482C48.0695 26.4419 48.0674 26.4038 48.0674 26.3636C48.0759 26.167 47.9533 25.8964 47.801 25.7695C47.6488 25.6426 47.4078 25.594 47.2154 25.6638C46.9934 25.7441 46.7967 25.9069 46.6783 26.112L46.5599 26.3552C46.4986 26.5222 46.4711 26.6935 46.4817 26.8711L46.4859 26.8774Z" fill="#EAC3A6"/>
<path d="M47.2577 28.3214C48.3043 28.3214 48.9829 26.7061 47.6573 26.7061C46.6107 26.7061 45.932 28.3214 47.2577 28.3214Z" fill="#EAC3A6"/>
<path d="M46.6806 27.254C47.1732 27.254 47.7208 26.9749 47.8878 26.4801C48.0295 26.0615 47.8011 25.5752 47.3085 25.5752C46.8159 25.5752 46.2683 25.8543 46.1012 26.349C45.9596 26.7677 46.1879 27.254 46.6806 27.254Z" fill="#EAC3A6"/>
<path d="M46.6488 27.2515C47.1414 27.2515 47.6911 26.9851 47.8624 26.4904C48.0062 26.076 47.7842 25.5791 47.2915 25.5791C46.7989 25.5791 46.2492 25.8455 46.0779 26.3403C45.9341 26.7547 46.1561 27.2515 46.6488 27.2515Z" fill="#EAC3A6"/>
<path d="M47.336 26.1903C47.7715 26.1903 47.7715 25.5137 47.336 25.5137C46.9004 25.5137 46.9004 26.1903 47.336 26.1903Z" fill="#EAC3A6"/>
<path d="M47.2238 26.1903L47.3105 26.1987C47.357 26.1987 47.4014 26.1903 47.4416 26.1691C47.4839 26.1564 47.5198 26.1332 47.5494 26.0993C47.5833 26.0697 47.6065 26.0317 47.6192 25.9915C47.6403 25.9513 47.6509 25.9069 47.6488 25.8604L47.6361 25.7716C47.6192 25.7145 47.5917 25.6638 47.5494 25.6215L47.4818 25.5686C47.4289 25.539 47.3718 25.5221 47.3105 25.5221L47.2238 25.5137C47.1773 25.5137 47.1329 25.5221 47.0927 25.5433C47.0505 25.556 47.0145 25.5792 46.9849 25.613C46.9511 25.6426 46.9278 25.6807 46.9151 25.7209C46.894 25.761 46.8834 25.8054 46.8855 25.852L46.8982 25.9408C46.9151 25.9978 46.9426 26.0486 46.9849 26.0909L47.0526 26.1437C47.1054 26.1733 47.1625 26.1903 47.2238 26.1903Z" fill="#EAC3A6"/>
<path d="M47.2726 26.1839C47.7082 26.1839 47.7082 25.5073 47.2726 25.5073C46.8371 25.5073 46.8371 26.1839 47.2726 26.1839Z" fill="#EAC3A6"/>
<path d="M47.3676 26.2073C47.8031 26.2073 47.8031 25.5308 47.3676 25.5308C46.932 25.5308 46.932 26.2073 47.3676 26.2073Z" fill="#EAC3A6"/>
<path d="M47.4142 26.2073C47.8498 26.2073 47.8498 25.5308 47.4142 25.5308C46.9787 25.5308 46.9787 26.2073 47.4142 26.2073Z" fill="#EAC3A6"/>
<path d="M50.0339 72.7454C49.8732 72.8046 49.7125 72.8617 49.5476 72.9125C48.501 73.236 46.8095 73.6842 45.8898 72.8702C45.856 72.8406 45.8264 72.7919 45.801 72.7349C45.7756 72.7391 45.7503 72.7433 45.7228 72.7475C46.0251 74.3291 46.4184 77.5005 46.4184 78.0312C46.4184 78.6634 46.2704 79.7798 46.2704 79.7798C46.2704 79.7798 46.3824 80.3379 47.5728 80.376C48.7632 80.4141 49.1353 79.9299 49.1353 79.9299C49.1353 79.9299 49.0972 78.1813 49.0972 77.9572C49.0972 77.8092 49.6469 75.0099 50.0318 72.7454H50.0339Z" fill="#222222"/>
<path d="M46.4437 43.8048C48.1499 43.8682 50.093 43.5574 51.5307 42.5933C51.7252 42.4643 51.9261 42.3185 52.1227 42.162C51.9874 41.2486 51.8161 40.4092 51.5941 39.7623L51.6089 39.166C51.6089 39.166 51.3848 40.8088 46.8729 41.5552C42.3609 42.2994 38.6778 40.2147 38.4537 40.0667C38.2295 39.9187 37.6545 39.5128 37.6545 39.5128C37.6545 39.5128 37.4134 40.849 37.3754 41.3691C37.369 41.4452 37.3606 41.6038 37.35 41.8153C40.5088 41.3036 43.3187 43.6906 46.4437 43.8048Z" fill="#333333"/>
<path d="M40.4582 11.8701C40.0268 9.25472 40.8514 6.03039 43.3865 5.33901C45.8645 4.66243 49.241 8.71769 48.5665 11.6439C48.5665 11.6439 48.2029 8.88683 45.6382 8.9418C43.1835 8.99466 40.4582 11.8701 40.4582 11.8701Z" fill="#F41C5E"/>
<path d="M45.1709 7.62647C43.8706 7.25858 42.7352 6.75114 43.0777 5.44238C40.7858 6.30291 40.0436 9.36443 40.458 11.872C40.458 11.872 43.1834 8.99654 45.6381 8.94369C48.2028 8.88871 48.5664 11.6458 48.5664 11.6458C48.6341 11.354 48.6595 11.0495 48.651 10.7409C47.7968 9.39826 46.7545 8.0747 45.173 7.62647H45.1709Z" fill="#D30A48"/>
<path d="M41.4356 14.9575C41.8184 14.8662 41.8883 13.7848 41.5918 12.5422C41.2953 11.2996 40.7447 10.3663 40.3619 10.4577C39.9792 10.549 39.9092 11.6304 40.2057 12.8729C40.5022 14.1155 41.0528 15.0488 41.4356 14.9575Z" fill="#222222"/>
<path d="M41.2714 15.3307C41.6883 15.2313 41.7643 14.0531 41.4413 12.6992C41.1182 11.3453 40.5184 10.3284 40.1016 10.4278C39.6847 10.5273 39.6087 11.7055 39.9317 13.0594C40.2548 14.4133 40.8546 15.4302 41.2714 15.3307Z" fill="#F41C5E"/>
<path d="M40.6187 14.3592C40.8788 14.2971 40.926 13.5608 40.7241 12.7146C40.5222 11.8685 40.1476 11.2328 39.8875 11.2949C39.6274 11.3569 39.5803 12.0932 39.7822 12.9394C39.9841 13.7856 40.3586 14.4212 40.6187 14.3592Z" fill="#222222"/>
<path d="M47.8835 7.38779C47.7376 7.23345 47.579 7.08756 47.412 6.95224C46.5155 6.24606 45.3357 5.8824 44.1982 6.05789C40.9697 6.53784 39.422 10.4007 40.6229 13.236C40.1831 11.5255 40.4897 9.62262 41.5638 8.22294C42.1917 7.40259 43.1072 6.77041 44.1348 6.60127C45.7459 6.33063 47.0885 7.08122 47.9765 8.26735C48.0907 8.04323 47.9511 7.67745 47.8856 7.3899L47.8835 7.38779Z" fill="#222222"/>
</svg>
