<svg width="24" height="26" viewBox="0 0 24 26" fill="none" xmlns="http://www.w3.org/2000/svg">
<path d="M14.4795 24.3431C12.5806 25.2608 10.3659 25.2405 8.47416 24.3078C5.08152 22.6349 0.0353394 20.7061 0.0353394 16.724V5.26225C0.0353394 3.10137 1.80358 1.33313 3.96446 1.33313H19.2142C21.375 1.33313 23.3568 2.88784 23.3568 5.0496V16.5114C23.3568 20.0249 17.933 22.6746 14.4786 24.344L14.4795 24.3431Z" fill="#B7B7B7"/>
<path d="M14.4795 23.9823C12.5806 24.8999 10.3659 24.8796 8.47416 23.947C5.08152 22.2741 0.0353394 20.3452 0.0353394 16.3632V4.90141C0.0353394 2.74052 1.80358 0.97229 3.96446 0.97229H19.2142C21.375 0.97229 23.1433 2.74052 23.1433 4.90141V16.3632C23.1433 19.8767 17.9321 22.3129 14.4786 23.9823H14.4795Z" fill="#EDAD3F"/>
<path d="M17.7971 10.9799L14.9939 13.7028L15.6556 17.5578C15.7245 17.9611 15.3018 18.2681 14.94 18.0776L11.4803 16.2599L8.02327 18.0767C7.66063 18.2699 7.23622 17.9611 7.30592 17.5596L7.96769 13.7046L5.16975 10.9799C4.8768 10.6949 5.03828 10.2008 5.43975 10.139L9.3168 9.57255L11.0471 6.06785C11.228 5.70167 11.7503 5.70167 11.9312 6.06785L13.6615 9.57255L17.5245 10.1373C17.9286 10.1937 18.0909 10.6949 17.7971 10.9799Z" fill="white"/>
<mask id="mask0_8604_132572" style="mask-type:luminance" maskUnits="userSpaceOnUse" x="-8" y="-9" width="34" height="34">
<path d="M25.9527 2.06643L2.03386 24.1544L-7.30585 10.7753L5.44239 -8.28357L25.9527 2.06643Z" fill="white"/>
</mask>
<g mask="url(#mask0_8604_132572)">
<path opacity="0.26" d="M14.4795 23.9823C12.5806 24.8999 10.3659 24.8796 8.47416 23.947C5.08152 22.2741 0.0353394 20.3452 0.0353394 16.3632V4.90141C0.0353394 2.74052 1.80358 0.97229 3.96446 0.97229H19.2142C21.375 0.97229 23.1433 2.74052 23.1433 4.90141V16.3632C23.1433 19.8767 17.9321 22.3129 14.4786 23.9823H14.4795Z" fill="url(#paint0_linear_8604_132572)"/>
</g>
<path d="M23.9604 5.20406L23.2077 4.86964L22.808 5.53758L22.8777 4.73729L22.1348 4.54406L22.8715 4.43288V3.59729L23.1759 4.33847L24.0001 4.00494L23.3595 4.57847L23.9604 5.20406Z" fill="white"/>
<defs>
<linearGradient id="paint0_linear_8604_132572" x1="18.9459" y1="18.1464" x2="0.00534188" y2="-0.794183" gradientUnits="userSpaceOnUse">
<stop offset="0.36" stop-color="white"/>
<stop offset="0.55" stop-color="white" stop-opacity="0"/>
</linearGradient>
</defs>
</svg>
