<svg width="80" height="81" viewBox="0 0 80 81" fill="none" xmlns="http://www.w3.org/2000/svg">
<path d="M55.3364 66.5947H46.7938V11.2821H55.3364V66.5947Z" fill="#D4E0E8"/>
<path d="M46.7938 15.1992H55.3364V66.5947H46.7938V15.1992Z" fill="#A3C0CE"/>
<path d="M46.7935 11.3245H55.3364V66.5625H46.7935V11.3245Z" fill="#4CAF50"/>
<path d="M46.7938 27.44H55.3364V66.5947H46.7938V27.44Z" fill="#4CAF50"/>
<path d="M35.3363 11.2806H43.8789V66.7822H35.3363V11.2806Z" fill="#D4E0E8"/>
<path d="M35.3363 33.2943H43.8789V56.3516H35.3363V33.2943Z" fill="#4CAF50"/>
<path d="M35.3363 49.7539H43.8789V66.7822H35.3363V49.7539Z" fill="#4CAF50"/>
<path d="M32.7739 66.7842H24.2313V11.68H32.7739V66.7842Z" fill="#D4E0E8"/>
<path d="M32.7739 66.7842H24.2313V43.9077H32.7739V66.7842Z" fill="#4CAF50"/>
<path d="M32.7739 66.7842H24.2313V52.1982H32.7739V66.7842Z" fill="#4CAF50"/>
<path opacity="0.3" d="M40.1091 73.5463C48.8788 73.5463 55.9878 73.1186 55.9878 72.59C55.9878 72.0615 48.8788 71.6338 40.1091 71.6338C31.3394 71.6338 24.2305 72.0615 24.2305 72.59C24.2305 73.1186 31.3394 73.5463 40.1091 73.5463Z" fill="#7CA5B9"/>
<path fill-rule="evenodd" clip-rule="evenodd" d="M52.3182 12.4649L41.7079 31.9172C41.5077 32.2842 41.2517 32.6178 40.949 32.9061L28.6359 44.6329L26.5669 42.4605L38.8801 30.7336C38.9575 30.6599 39.023 30.5745 39.0742 30.4806L49.6845 11.0283L52.3182 12.4649Z" fill="#F41C5E"/>
<path d="M32.772 43.1547C32.772 40.7396 30.8076 38.7795 28.3848 38.7795C25.9644 38.7795 24 40.7396 24 43.1547C24 45.5721 25.9644 47.5322 28.3848 47.5322C30.8076 47.5322 32.772 45.5721 32.772 43.1547Z" fill="#F41C5E"/>
<path d="M43.9322 32.3217C43.9322 29.9066 41.9678 27.9465 39.545 27.9465C37.1246 27.9465 35.1602 29.9066 35.1602 32.3217C35.1602 34.7391 37.1246 36.6992 39.545 36.6992C41.9678 36.6992 43.9322 34.7391 43.9322 32.3217Z" fill="#F41C5E"/>
<path d="M55.44 12.2348C55.44 9.81965 53.4756 7.85955 51.0528 7.85955C48.6324 7.85955 46.668 9.81965 46.668 12.2348C46.668 14.6522 48.6324 16.6123 51.0528 16.6123C53.4756 16.6123 55.44 14.6522 55.44 12.2348Z" fill="#F41C5E"/>
</svg>
