<svg width="32" height="32" viewBox="0 0 32 32" fill="none" xmlns="http://www.w3.org/2000/svg">
<g clip-path="url(#clip0_16801_8273)">
<path d="M14.125 4H17.875C18.4984 4 19 4.50156 19 5.125V7H13V5.125C13 4.50156 13.5016 4 14.125 4ZM10 11.1109C10 10.3797 10.4219 9.71406 11.0875 9.4L12.2312 8.86563C12.7469 8.62656 13.3094 8.5 13.8766 8.5H18.1234C18.6906 8.5 19.2531 8.62656 19.7687 8.86563L20.9125 9.4C21.5734 9.70937 22 10.375 22 11.1109C22 11.7859 21.6484 12.3766 21.1141 12.7094C21.6531 13.1219 22 13.7688 22 14.5C22 15.2828 21.6016 15.9719 20.9922 16.375C21.5969 16.7781 22 17.4672 22 18.25C22 19.0328 21.6016 19.7219 20.9922 20.125C21.5969 20.5281 22 21.2172 22 22C22 22.7828 21.6016 23.4719 20.9922 23.875C21.5969 24.2781 22 24.9672 22 25.75C22 26.9922 20.9922 28 19.75 28H12.25C11.0078 28 10 26.9922 10 25.75C10 24.9672 10.3984 24.2781 11.0078 23.875C10.3984 23.4719 10 22.7828 10 22C10 21.2172 10.3984 20.5281 11.0078 20.125C10.3984 19.7219 10 19.0328 10 18.25C10 17.4672 10.3984 16.7781 11.0078 16.375C10.3984 15.9719 10 15.2828 10 14.5C10 13.7688 10.3469 13.1219 10.8859 12.7094C10.3516 12.3766 10 11.7859 10 11.1109ZM13 15.25C13 15.6625 13.3375 16 13.75 16H18.25C18.6625 16 19 15.6625 19 15.25C19 14.8375 18.6625 14.5 18.25 14.5H13.75C13.3375 14.5 13 14.8375 13 15.25ZM13.75 20.5C13.3375 20.5 13 20.8375 13 21.25C13 21.6625 13.3375 22 13.75 22H18.25C18.6625 22 19 21.6625 19 21.25C19 20.8375 18.6625 20.5 18.25 20.5H13.75Z" fill="#F41C5E"/>
</g>
<defs>
<clipPath id="clip0_16801_8273">
<rect width="32" height="32" fill="white"/>
</clipPath>
</defs>
</svg>
