<svg width="48" height="48" viewBox="0 0 48 48" fill="none" xmlns="http://www.w3.org/2000/svg">
<g clip-path="url(#clip0_9673_124066)">
<g clip-path="url(#clip1_9673_124066)">
<mask id="mask0_9673_124066" style="mask-type:luminance" maskUnits="userSpaceOnUse" x="0" y="0" width="48" height="48">
<path d="M24 48C37.2548 48 48 37.2548 48 24C48 10.7452 37.2548 0 24 0C10.7452 0 0 10.7452 0 24C0 37.2548 10.7452 48 24 48Z" fill="white"/>
</mask>
<g mask="url(#mask0_9673_124066)">
<path d="M82.5689 31.47C82.5689 32.452 82.5358 33.4239 82.469 34.389V34.3902C82.1823 38.6516 81.2691 42.7411 79.8224 46.5695C79.4001 47.6882 78.9316 48.7832 78.4201 49.8551C78.2876 50.1331 78.1521 50.4098 78.0122 50.6847C71.1292 64.3337 57.1373 73.787 40.9016 74.1806C40.7679 74.1837 40.6361 74.1874 40.5037 74.1881C40.4312 74.1893 40.3594 74.1906 40.2882 74.1906C40.1401 74.1924 39.9921 74.1937 39.8447 74.1937C39.661 74.1937 39.4767 74.1924 39.2931 74.1906C17.6111 73.9157 -0.178658 57.4908 -2.59852 36.3922L-2.61851 36.2123C-2.68535 35.6083 -2.73969 35.0011 -2.78092 34.3896C-2.84775 33.4245 -2.88086 32.4514 -2.88086 31.4694C-2.88086 30.395 -2.84088 29.3288 -2.7628 28.2738C-2.73157 27.8721 -2.69721 27.4711 -2.65599 27.0719C-2.12005 21.8312 -0.637769 16.8709 1.61969 12.3654C1.67528 12.2517 1.73337 12.1386 1.79209 12.0262C8.86679 -1.79527 23.2504 -11.2561 39.844 -11.2561C55.2377 -11.2561 68.7306 -3.11327 76.2494 9.09973C77.4069 10.978 78.4219 12.9513 79.2808 15.0076C81.399 20.0734 82.5689 25.6359 82.5689 31.47Z" fill="#EAEFF4"/>
<path opacity="0.2" d="M79.8224 46.5689C76.3818 43.8011 61.5928 41.7217 43.8692 41.7217C23.5971 41.7217 7.16211 44.4426 7.16211 47.7988C7.16211 47.9487 7.19522 48.098 7.26018 48.2448C8.64001 51.3918 24.5034 53.8747 43.8692 53.8747C59.7813 53.8747 73.3286 52.1988 78.42 49.8551C78.4425 49.8452 78.4631 49.8352 78.4856 49.8252C78.9872 48.7733 79.4463 47.6983 79.8611 46.6008C79.848 46.5895 79.8355 46.5795 79.8224 46.5695V46.5689ZM43.8692 52.2188C29.1189 52.2188 17.1608 50.2393 17.1608 47.7988C17.1608 45.3583 29.1189 43.3776 43.8692 43.3776C58.6195 43.3776 70.5783 45.3571 70.5783 47.7988C70.5783 50.2405 58.6201 52.2188 43.8692 52.2188Z" fill="#7CA5B9"/>
<path opacity="0.3" d="M43.8691 43.3776C29.1188 43.3776 17.1606 45.3571 17.1606 47.7988C17.1606 50.2405 29.1188 52.2187 43.8691 52.2187C58.6194 52.2187 70.5782 50.2393 70.5782 47.7988C70.5782 45.3583 58.62 43.3776 43.8691 43.3776ZM43.8691 51.308C32.1571 51.308 22.6619 49.737 22.6619 47.7988C22.6619 45.8605 32.1571 44.2883 43.8691 44.2883C55.5811 44.2883 65.0763 45.8593 65.0763 47.7988C65.0763 49.7383 55.5824 51.308 43.8691 51.308Z" fill="#7CA5B9"/>
<path opacity="0.2" d="M65.0765 47.7988C65.0765 49.7371 55.5826 51.3081 43.8693 51.3081C32.156 51.3081 22.6621 49.7371 22.6621 47.7988C22.6621 45.8606 32.1573 44.2883 43.8693 44.2883C55.5814 44.2883 65.0765 45.8593 65.0765 47.7988Z" fill="#7CA5B9"/>
<path opacity="0.2" d="M82.521 34.389C82.2331 38.6622 81.3155 42.763 79.8613 46.6008C79.4465 47.6983 78.9874 48.7733 78.4858 49.8252C78.3522 50.1057 78.2166 50.3836 78.0767 50.6603C71.0482 64.618 56.5903 74.1925 39.8967 74.1925C39.7118 74.1925 39.5288 74.1912 39.3439 74.1894C16.9811 73.9058 -1.24159 56.4414 -2.72949 34.389H0.667311L0.35499 36.0962L0.336251 36.1974H0.995873L1.02023 36.0806L1.37191 34.389H9.80395V35.9994H10.4679V34.389H18.9012L19.2529 36.0806L19.2773 36.1974H19.9369L19.9182 36.0962L19.6058 34.389H25.7273C25.7348 34.6301 25.7429 34.7926 25.7498 34.8569C25.8167 35.4909 26.0165 35.8563 26.5506 35.8563H27.7418V36.9569C27.7418 36.9569 28.0754 37.2905 28.9761 36.9569V35.8563H29.5308V36.1424C29.5308 36.1424 29.6432 36.2548 29.9174 36.2748C29.9905 36.2792 30.0767 36.278 30.1742 36.2648C30.3085 36.248 30.4677 36.2117 30.652 36.1424V35.8563H64.2921V36.1424C64.2921 36.1424 64.3364 36.1868 64.4364 36.2249C64.5576 36.2705 64.7625 36.3073 65.0704 36.243C65.1728 36.2217 65.2872 36.1899 65.414 36.143V35.8569H65.9686V36.9576C65.9686 36.9576 66.3022 37.2911 67.2029 36.9576V35.8569H68.8108C68.8108 35.8569 69.1774 35.8569 69.1774 35.1573V34.389H72.7104L72.6048 34.9393L72.6005 34.9618H73.2919L73.3007 34.9162L73.4019 34.389H76.1372V34.9618H76.8112V34.389H79.5621L79.6633 34.9162L79.672 34.9618H80.3623L80.3579 34.9406L80.2523 34.389H82.5217H82.521Z" fill="#7CA5B9"/>
<path opacity="0.2" d="M-2.59866 36.3923C-2.5818 36.3936 -2.56556 36.3948 -2.54744 36.3954C-0.7897 36.5166 4.22867 36.6034 10.1465 36.6034C17.5279 36.6034 23.5114 36.4679 23.5114 36.3011C23.5114 36.2211 22.1472 36.1487 19.9166 36.0956L19.9353 36.1968H19.2757L19.2513 36.08C16.9376 36.0313 13.8582 36.0013 10.467 35.9988H9.80298C6.4093 36.0013 3.33044 36.0313 1.01989 36.08L0.995527 36.1968H0.335905L0.354644 36.0956C-0.952732 36.1281 -1.96153 36.1656 -2.56743 36.208C-2.58492 36.2093 -2.60179 36.2105 -2.61865 36.2124L-2.59866 36.3923Z" fill="#7CA5B9"/>
<path opacity="0.3" d="M23.4691 27.0707H9.84999L10.1348 23.0118H8.42456C8.63381 19.7236 9.86248 17.8709 10.0967 17.5455C10.2067 17.5499 10.3316 17.5486 10.4684 17.5386C10.4709 17.6223 10.4753 17.6717 10.4753 17.6717C10.4753 17.6717 10.5765 17.6092 10.7445 17.5049C10.7688 17.5018 10.7926 17.4974 10.8157 17.493C11.4741 17.3706 11.5653 16.9346 12.1543 16.8447C12.7446 16.7535 13.403 15.9227 13.403 15.9227C13.7434 15.9083 15.2631 14.9889 15.2631 14.9889C15.2107 14.8777 15.072 14.774 14.9127 14.694C14.9527 14.5672 14.9927 14.4273 15.0964 14.2749C15.2007 14.1225 15.37 13.9582 15.671 13.7833C16.6461 13.2174 16.7373 12.5459 16.7373 12.5459C16.2601 12.4459 15.5117 12.7826 15.0583 12.8495C14.6048 12.9163 14.4692 12.8738 14.2187 13.1586C14.1163 13.2755 13.972 13.3623 13.8371 13.4254C14.0695 13.0831 14.2394 12.7326 14.3605 12.3935C14.5798 12.0174 14.7722 11.4984 14.7172 11.0911C14.7172 11.0911 14.6903 11.0855 14.6416 11.0798C14.6897 10.5014 14.6273 10.1104 14.6273 10.1104C12.7271 10.3371 11.3829 12.0199 11.3829 12.0199C11.3829 12.0199 11.2173 12.3647 10.9812 12.8626C10.772 13.1405 10.5708 13.4585 10.3841 13.8264C10.3841 13.8264 10.2929 14.2124 9.93057 14.5304C9.67009 14.7571 9.37651 15.4692 9.22098 16.1682C9.10229 16.1113 8.95863 16.0426 8.80497 15.9683C8.84057 15.7934 8.86618 15.6166 8.87492 15.4436C8.91053 15.1756 8.93177 14.8902 8.93177 14.5922C8.93177 13.158 8.43268 11.4321 6.61809 9.90177C6.61809 9.90177 6.52689 9.7962 6.36761 10.3478C6.22957 10.8281 6.02531 11.2729 5.98845 11.8113C5.46001 11.1898 4.62861 10.3977 3.59982 10.0542C3.59982 10.0542 4.2126 11.1042 4.2126 11.6489C4.2126 12.1936 4.167 12.4228 4.43934 12.7964C4.71169 13.1686 4.80163 13.6915 4.80163 13.6915C4.80163 13.6915 4.64235 13.8782 5.23326 14.5335C5.61991 14.9639 6.00719 15.5123 6.21395 16.0126C6.21645 16.0739 6.24081 16.1426 6.29203 16.2206C6.35075 16.4055 6.37885 16.5786 6.36761 16.7322C6.33888 17.117 6.65994 17.6617 6.9023 18.0134C6.89106 18.0109 6.87982 18.0102 6.86982 18.009C6.86858 18.0077 6.86732 18.0065 6.86732 18.0059C6.64745 17.7323 6.347 17.3431 6.11338 16.984C6.11338 16.984 6.11213 16.9827 6.10901 16.9815C5.95098 16.7378 5.83542 16.5198 5.8223 16.3899C5.77795 15.9339 5.5512 15.5529 5.5512 15.5529C5.5512 15.5529 5.11958 15.2125 4.77977 14.5341C4.43934 13.857 3.55422 13.579 3.30437 13.3642C3.05513 13.1493 2.85088 12.9425 2.85088 12.9425C2.85088 12.9425 2.14815 12.6258 1.96701 12.1942C1.9439 12.1399 1.90017 12.083 1.8427 12.0249C1.78461 12.1374 1.72714 12.2504 1.67155 12.3641C1.972 12.8201 2.07757 13.2436 2.12504 13.5097C2.21624 14.0088 1.74026 14.1 2.46672 14.5341C3.19193 14.9689 3.41992 15.8015 3.50987 16.3899C3.52736 16.5011 3.57234 16.6248 3.63418 16.7516C3.65542 16.7972 3.68977 16.864 3.74411 16.9527C3.87404 17.172 4.0352 17.385 4.17199 17.5543C4.19073 17.8035 4.20198 17.8603 4.34877 18.0715C4.42685 18.1826 4.51555 18.2364 4.59925 18.3163C4.1645 18.6443 3.84843 19.277 3.62418 19.9341L3.61419 19.9623C3.60669 19.9866 3.59857 20.0103 3.59108 20.0347L3.51674 20.2571C3.57671 19.6143 3.60107 18.9872 3.5967 18.6449C3.58795 17.9165 3.95837 17.5717 3.95837 17.5717C2.9452 17.6086 2.67535 18.7448 2.65849 19.8748L2.58166 19.6824C2.25372 18.8298 1.76088 18.0821 1.03816 18.0821C0.934474 18.0821 0.825786 18.0964 0.712101 18.1302C0.712101 18.1302 1.16996 18.3426 1.38921 19.0378C1.46729 19.2845 1.61034 19.6793 1.78524 20.114C1.67093 20.0185 1.55287 19.9273 1.43481 19.8436L1.43169 19.8411C1.0238 19.5544 0.600915 19.3582 0.207391 19.3582C-0.0662029 19.3582 -0.325429 19.4525 -0.555298 19.6805C-0.555298 19.6805 -0.0518358 19.6468 0.473488 20.1521C0.840153 20.5057 1.70903 21.2465 2.45048 21.7444C2.47484 21.8156 2.50607 21.9642 2.49483 22.2572H2.49608C2.49296 22.2828 2.49046 22.3084 2.49046 22.3346C2.49046 22.5227 2.57166 22.6913 2.69971 22.8094C2.35366 22.9736 2.11505 23.3253 2.11505 23.7332C2.11505 24.0143 2.22873 24.2704 2.41175 24.4547C2.12254 24.7864 1.93578 25.3111 1.93578 25.9001C1.93578 26.4891 2.15378 26.8077 2.47172 26.9501C2.47172 26.9501 2.47859 26.9532 2.48733 26.957C2.49858 26.9626 2.51045 26.967 2.52169 26.9714C2.53731 26.977 2.55605 26.9839 2.57728 26.9901C2.59477 26.997 2.61289 27.0026 2.63163 27.0082C2.72033 27.0326 2.84401 27.0594 2.99767 27.0719H-2.60537C-2.6466 27.4711 -2.68095 27.8727 -2.71094 28.275H1.78711L1.69279 28.7909L0.667752 34.3896L0.355431 36.0968L0.336691 36.1979H0.996314L1.02067 36.0811L1.37235 34.3896L2.24622 30.1795H9.80439V35.9993H10.4684V30.1795H18.0266L18.9017 34.3896L19.2534 36.0811L19.2777 36.1979H19.9373L19.9186 36.0968L19.6063 34.3896L18.6743 29.3056L18.4863 28.275H23.4709C23.494 28.275 23.5134 28.2562 23.5134 28.2325V27.1138C23.5134 27.0907 23.4947 27.0713 23.4709 27.0713L23.4691 27.0707ZM8.13847 19.4313C8.21156 18.3513 8.28526 17.9734 8.33773 17.8522C8.36022 17.8466 8.38458 17.8403 8.41019 17.8335H8.41144C8.6107 17.7779 8.87867 17.6736 9.02297 17.493C9.25283 17.2095 9.42523 17.2507 9.48645 17.1851C9.55204 17.3032 9.622 17.3962 9.66322 17.4474C9.64636 17.4774 9.64074 17.493 9.64074 17.493C9.64074 17.493 9.68071 17.503 9.75067 17.513C9.33154 18.2713 8.53512 20.5251 8.0429 21.9698C8.0504 21.2684 8.07538 20.362 8.13847 19.4313ZM7.6906 17.6298C7.80179 17.711 7.90985 17.7779 8.0098 17.8266L7.86176 19.2976C7.85488 19.2533 7.84427 19.2121 7.82053 19.1796C7.59378 18.8635 7.4345 18.9603 7.36704 18.4581C7.35579 18.3738 7.32894 18.3057 7.29396 18.2489C7.432 18.1196 7.63439 17.8922 7.69123 17.6292L7.6906 17.6298ZM7.83427 19.565L7.62502 21.65C7.59503 21.3352 7.55256 21.0173 7.49634 20.7418C7.49634 20.7418 7.49509 20.7349 7.49197 20.7237C7.47198 20.625 7.44887 20.5313 7.42326 20.447C7.52882 20.2746 7.75244 19.8842 7.8349 19.565H7.83427ZM4.74979 19.4925C4.81538 19.3126 4.86972 19.1565 4.90782 19.0353C4.91907 18.9984 4.93093 18.9653 4.94343 18.9316C5.14331 19.114 5.54059 19.1783 5.87727 19.3707C5.54371 19.4194 5.19453 19.5943 4.8541 19.8311L4.84973 19.8336C4.73979 19.9117 4.63048 19.9947 4.52367 20.0828L4.52117 20.0847C4.6055 19.8736 4.68358 19.6724 4.74916 19.4919L4.74979 19.4925ZM3.53361 27.0482C3.57609 27.0426 3.61731 27.0357 3.65729 27.0257H3.65979C3.6729 27.0226 3.68415 27.0182 3.69664 27.0157C3.71663 27.0101 3.73662 27.0045 3.75661 26.9988C3.78909 26.9876 3.81907 26.977 3.84781 26.9632C4.29567 26.7634 4.34252 26.2649 4.34252 26.0094C4.34252 25.9638 4.34127 25.9257 4.34002 25.8995C4.34002 25.8995 4.42248 25.2698 3.99647 24.6321C3.95399 24.569 3.91214 24.509 3.86405 24.4541C3.86405 24.4541 4.23321 24.1492 4.15201 23.597C4.15076 23.587 4.14888 23.5758 4.14638 23.5658C4.14513 23.5546 4.14389 23.5458 4.14201 23.5346C4.13639 23.5077 4.12952 23.4834 4.12327 23.459C4.12077 23.4515 4.12015 23.4434 4.11765 23.4359C3.97086 22.9287 3.57609 22.8087 3.57609 22.8087C3.57609 22.8087 3.64042 22.7713 3.69727 22.6595C3.75286 22.5639 3.78534 22.4527 3.78534 22.3334C3.78534 22.3203 3.78409 22.3065 3.78284 22.2922V22.2897C3.78409 22.2772 3.78409 22.2666 3.78409 22.2553H3.78659V22.2197C3.79096 22.076 3.79221 21.9792 3.79783 21.9074C3.80783 21.8249 3.82219 21.7706 3.83469 21.7375C4.57426 21.239 5.43689 20.5032 5.80294 20.1509C5.98658 19.9741 6.16773 19.8642 6.32451 19.7948C6.38323 19.8686 6.44444 19.936 6.50941 19.9972C6.50941 19.9972 6.63496 20.4901 6.76301 21.1128C6.88981 21.7356 7.01849 22.4896 7.02411 23.0124H5.38255L5.72423 27.0713H3.33997C3.40243 27.0669 3.46677 27.0601 3.53486 27.0488L3.53361 27.0482ZM9.80377 29.4712H2.33242L2.48046 28.2737H9.80377V29.4712ZM10.4678 29.4712V28.2737H17.7923L17.9391 29.4712H10.4678Z" fill="#7CA5B9"/>
<g opacity="0.4">
<path opacity="0.2" d="M27.7391 36.3717V36.7109C26.8671 36.6584 26.3911 36.6022 26.3911 36.5422C26.3911 36.4823 26.8671 36.4242 27.7391 36.3723V36.3717Z" fill="#7CA5B9"/>
<path opacity="0.2" d="M65.9669 36.2704V36.812C62.0954 36.9432 55.488 37.0288 47.9879 37.0288C39.7695 37.0288 32.6229 36.9257 28.9731 36.7733V36.3098C29.2655 36.2973 29.579 36.2867 29.9151 36.2754C29.9882 36.2798 30.0744 36.2786 30.1718 36.2655C34.064 36.1374 40.5921 36.0543 47.9879 36.0543C54.5754 36.0543 60.4739 36.1212 64.4347 36.2255C64.5559 36.2711 64.7608 36.3079 65.0687 36.2436C65.3823 36.2523 65.6827 36.2623 65.9669 36.2717V36.2704Z" fill="#7CA5B9"/>
</g>
<path opacity="0.4" d="M68.9846 22.9443C68.0851 22.0118 66.9508 21.6601 66.4592 21.5008C66.3236 21.4571 66.1369 21.4208 65.9376 21.3909L65.8976 21.3877C65.8976 21.3877 65.8951 21.3921 65.8951 21.3946C65.8827 21.4215 65.8708 21.4489 65.8583 21.4758C65.8539 21.4883 65.8483 21.5014 65.8427 21.5133C65.8183 21.5701 65.7927 21.6276 65.7671 21.6857C65.7527 21.72 65.7371 21.7544 65.7202 21.79C65.6921 21.8543 65.6634 21.9193 65.6334 21.9836C65.5878 22.0848 65.541 22.186 65.4941 22.2872C65.4716 22.3353 65.4498 22.3828 65.4273 22.4309C65.416 22.4552 65.4048 22.479 65.3929 22.5033C65.3673 22.5602 65.3405 22.6164 65.3142 22.672C65.3086 22.6832 65.3042 22.6932 65.2986 22.7045C65.2917 22.7176 65.2855 22.7326 65.2799 22.7457C65.2068 22.8981 65.1331 23.0518 65.06 23.2029C65.0569 23.2086 65.0531 23.2148 65.05 23.2217C65.0388 23.246 65.0269 23.2704 65.0144 23.296C64.9813 23.3647 64.9463 23.4341 64.9132 23.5015V26.2137C65.198 26.2512 65.4791 26.3262 65.7571 26.4829C66.2899 26.7834 66.2562 27.3493 66.2562 27.3493C66.2562 27.3493 66.2893 28.9403 66.2893 29.4063C66.2893 29.8722 66.4604 30.946 65.9233 30.9716C65.9233 30.9716 61.6357 31.2827 56.2669 31.2827C53.5372 31.2827 50.5258 31.2027 47.6581 30.9591C39.133 31.6918 29.1549 31.1446 29.1549 31.1446C28.6178 31.119 28.7889 30.0459 28.7889 29.5793C28.7889 29.1127 28.6552 27.4811 28.6552 27.4811C28.6552 27.4811 28.6221 26.9152 29.1543 26.616C29.3355 26.5135 29.5616 26.4323 29.804 26.3668L29.9539 21.0985C30.1475 18.0609 30.4986 17.1277 30.6766 16.8453C30.5154 17.0521 30.1238 17.8841 29.9151 21.1585L29.9076 21.4452C29.9076 21.4452 28.837 21.354 28.3473 21.5676C27.8638 21.7788 26.4403 22.156 25.6332 23.163C25.6288 23.1673 25.6245 23.1717 25.6201 23.1773C25.6157 23.183 25.6114 23.1873 25.607 23.1942C25.4802 23.3641 25.5458 23.6158 25.5458 23.6158C25.5458 23.975 25.6538 32.2534 25.7238 34.3884C25.7313 34.6295 25.7394 34.7919 25.7463 34.8563C25.8131 35.4903 26.013 35.8557 26.5471 35.8557H27.7383V36.9563C27.7383 36.9563 28.0718 37.2899 28.9726 36.9563V35.8557H29.5272V36.1418C29.5272 36.1418 29.6397 36.2542 29.9145 36.2742C29.9876 36.2786 30.0738 36.2773 30.1712 36.2642C30.3055 36.2473 30.4648 36.2111 30.6491 36.1418V35.8557H64.2892V36.1418C64.2892 36.1418 64.3335 36.1861 64.4335 36.2242C64.5547 36.2698 64.7595 36.3067 65.0675 36.2423C65.1699 36.2211 65.2842 36.1893 65.411 36.1424V35.8563H65.9657V36.9569C65.9657 36.9569 66.2993 37.2905 67.2 36.9569V35.8563H68.8078C68.8078 35.8563 69.1745 35.8563 69.1745 35.1567V23.4491C69.1745 23.0218 69.0446 22.9531 68.9834 22.9443H68.9846Z" fill="#7CA5B9"/>
<path opacity="0.2" d="M66.2885 19.2002C66.2885 19.2002 66.2854 19.2002 66.2798 19.2015C66.2742 19.2015 66.2667 19.2027 66.2554 19.204C66.2411 19.2052 66.2223 19.2071 66.1973 19.2096C66.193 19.2096 66.1886 19.2108 66.1842 19.2108C66.163 19.2133 66.1399 19.2152 66.113 19.219C66.0943 19.2202 66.073 19.2221 66.0505 19.2246C66.0293 19.2271 66.0062 19.229 65.9818 19.2327C65.9606 19.2346 65.9375 19.2371 65.9131 19.2396C65.8107 19.2508 65.6883 19.2627 65.5515 19.2783C65.4927 19.2839 65.429 19.2914 65.3647 19.2983C65.1867 19.3183 64.9887 19.3408 64.7788 19.3651C64.7257 19.3707 64.672 19.3776 64.6176 19.3839C64.5408 18.7136 64.4577 18.212 64.3753 17.836C64.3609 17.7692 64.3465 17.7073 64.3322 17.648C64.1266 16.8409 63.9455 16.7785 63.9455 16.7785C63.9455 16.7785 63.8118 16.6448 63.3452 16.6229C62.8805 16.6005 48.3894 16.4474 47.3488 16.7085C46.3094 16.4474 31.8183 16.6005 31.3536 16.6229C30.8863 16.6448 30.7533 16.7785 30.7533 16.7785C30.7533 16.7785 30.7302 16.7866 30.6902 16.8341C30.6871 16.8384 30.6846 16.8422 30.6814 16.8466C30.5034 17.1289 30.1524 18.0621 29.9587 21.0998L29.8088 26.368C29.5665 26.4336 29.341 26.5148 29.1592 26.6172C28.6264 26.9164 28.6601 27.4823 28.6601 27.4823C28.6601 27.4823 28.7938 29.1145 28.7938 29.5805C28.7938 30.0465 28.6226 31.1209 29.1598 31.1459C29.1598 31.1459 39.1372 31.6931 47.663 30.9604C50.5307 31.204 53.5421 31.2839 56.2718 31.2839C61.6406 31.2839 65.9281 30.9728 65.9281 30.9728C66.4653 30.9472 66.2942 29.8729 66.2942 29.4075C66.2942 28.9421 66.2611 27.3505 66.2611 27.3505C66.2611 27.3505 66.2942 26.7846 65.762 26.4842C65.484 26.3274 65.2029 26.2531 64.9181 26.215V23.5028C64.9512 23.4353 64.9862 23.366 65.0193 23.2972C65.0318 23.2716 65.0436 23.2473 65.0549 23.2229C65.058 23.216 65.0617 23.2098 65.0649 23.2042C65.1379 23.053 65.2117 22.8993 65.2847 22.7469C65.2904 22.7338 65.2972 22.7188 65.3035 22.7057C65.3091 22.6945 65.3135 22.6845 65.3191 22.6732C65.3459 22.6176 65.3722 22.5608 65.3978 22.5046C65.4103 22.4802 65.4209 22.4571 65.4321 22.4321C65.4546 22.3846 65.4765 22.3365 65.499 22.2885C65.5458 22.1873 65.5927 22.0861 65.6383 21.9849C65.6683 21.9205 65.697 21.8556 65.7251 21.7912C65.742 21.7556 65.7576 21.7213 65.7719 21.6869C65.7976 21.6295 65.8232 21.5714 65.8475 21.5145C65.865 21.4745 65.8819 21.4346 65.9 21.3958C65.9 21.3933 65.9013 21.3915 65.9025 21.389C65.9693 21.2334 66.0324 21.081 66.0918 20.9355C66.1199 20.8668 66.1461 20.7987 66.1717 20.7318C66.193 20.6775 66.213 20.625 66.2317 20.5726C66.2461 20.5338 66.2604 20.4945 66.2742 20.4582C66.3629 20.2128 66.4334 19.9935 66.4778 19.808C66.4847 19.778 66.4909 19.7493 66.4965 19.7199C66.5802 19.332 66.5334 19.1228 66.2929 19.2015L66.2885 19.2002ZM28.8612 26.8896V26.8883H28.8625C28.8625 26.8883 28.8612 26.8883 28.8612 26.8896Z" fill="#7CA5B9"/>
<path opacity="0.3" d="M28.8608 26.8883H28.8621C28.8621 26.8883 28.8608 26.8883 28.8608 26.8896V26.8883Z" fill="#7CA5B9"/>
</g>
</g>
<path opacity="0.1" d="M24.799 39.9048C34.8435 39.9048 42.9862 39.4771 42.9862 38.9496C42.9862 38.422 34.8435 37.9944 24.799 37.9944C14.7545 37.9944 6.61182 38.422 6.61182 38.9496C6.61182 39.4771 14.7545 39.9048 24.799 39.9048Z" fill="#222222"/>
<path d="M5.00879 31.9848C5.00879 35.8728 8.75759 39.0264 13.38 39.0264C13.884 39.0264 14.3688 38.9928 14.8536 38.916C15.1656 38.8728 15.4728 38.8104 15.78 38.7336C16.5 38.5512 17.1816 38.292 17.8104 37.9656C18.06 37.8312 18.3048 37.692 18.5352 37.5384C19.1784 37.116 19.7448 36.6168 20.2104 36.0552C21.1896 34.9032 21.7512 33.5016 21.7512 31.9896C21.7512 28.1064 18.0024 24.948 13.38 24.948C12.6264 24.948 11.9016 25.0296 11.2056 25.188C10.9176 25.2504 10.6392 25.3272 10.3704 25.4232C10.1688 25.4856 9.97199 25.5576 9.77999 25.6344C9.25199 25.8456 8.74799 26.1096 8.28239 26.4072C8.23919 26.436 8.20079 26.46 8.15759 26.4888C8.06159 26.556 7.96559 26.6184 7.87919 26.6808C7.65839 26.844 7.44719 27.0168 7.25039 27.1992C5.85839 28.452 5.00879 30.1368 5.00879 31.9848Z" fill="#8529A6"/>
<path opacity="0.1" d="M5.00879 31.9848C5.00879 35.8728 8.75759 39.0264 13.38 39.0264C13.884 39.0264 14.3688 38.9928 14.8536 38.916C15.1656 38.8728 15.4728 38.8104 15.78 38.7336C16.5 38.5512 17.1816 38.292 17.8104 37.9656C18.06 37.8312 18.3048 37.692 18.5352 37.5384C19.1784 37.116 19.7448 36.6168 20.2104 36.0552C20.1912 36.0792 20.1624 36.0888 20.1432 36.108C19.9128 36.2616 19.668 36.4008 19.4184 36.5352C18.7896 36.8664 18.108 37.1208 17.388 37.3032C17.0808 37.38 16.7736 37.4424 16.4616 37.4856C15.9768 37.5624 15.492 37.596 14.988 37.596C10.3608 37.596 6.61679 34.4472 6.61679 30.5544C6.61679 29.0424 7.18799 27.636 8.15759 26.4888C8.06159 26.556 7.96559 26.6184 7.87919 26.6808C7.65839 26.844 7.44719 27.0168 7.25039 27.1992C5.85839 28.452 5.00879 30.1368 5.00879 31.9848Z" fill="#222222"/>
<path d="M22.7254 23.796C22.735 23.8152 22.759 23.8248 22.7734 23.8392C23.071 24.0168 23.3782 24.18 23.6902 24.3384C24.0598 24.5256 24.439 24.7032 24.8182 24.8616C24.871 24.8856 24.9334 24.9048 24.9862 24.8808C25.0294 24.8616 25.0486 24.8136 25.0678 24.7704C25.159 24.5736 25.2454 24.3768 25.3462 24.1896C25.7542 23.4216 26.3542 22.7736 26.9494 22.1352C27.175 21.8904 27.4054 21.6456 27.6598 21.4248C27.4726 21.2952 27.2422 21.252 27.0166 21.2136C26.0086 21.0264 25.0198 20.7528 24.055 20.4024L24.0502 20.3976C23.9974 20.3784 23.9446 20.3592 23.8918 20.34L23.8534 20.3352L23.8006 20.3256C23.6998 20.5128 23.6662 20.7288 23.6278 20.94C23.4454 21.876 23.1478 22.788 22.7398 23.6472C22.7158 23.6952 22.6966 23.7528 22.7254 23.796Z" fill="#6F4535"/>
<path opacity="0.1" d="M22.6152 23.7384C22.6248 23.7576 22.6488 23.7672 22.6632 23.7816C22.9656 23.9592 25.4904 24.7992 25.7496 24.948C26.8392 22.2072 26.4024 21.1992 26.3928 21.1608L26.388 21.156L26.1912 21.0936L26.1384 21.084C26.0376 21.2712 26.004 21.4872 25.9656 21.6984C25.7832 22.6344 23.0376 22.74 22.6344 23.5992C22.6104 23.6376 22.5864 23.6952 22.6152 23.7384Z" fill="#222222"/>
<path d="M33.2186 27.4008C33.7802 28.092 34.4714 28.6728 35.2442 29.1096C35.5802 29.2968 35.9306 29.46 36.2714 29.6424C36.8858 29.9784 37.4618 30.3912 37.9754 30.8712C39.1706 31.9896 40.0394 33.4728 41.4314 34.3368C41.4938 34.3752 41.5658 34.4232 41.5802 34.4952C41.5898 34.5336 41.5802 34.5768 41.5706 34.6152C41.489 34.9416 41.3978 35.2776 41.2202 35.5656C41.0378 35.8536 40.7498 36.0936 40.4138 36.1272C39.785 35.3016 39.0506 34.5624 38.2298 33.9288C37.8698 33.6504 37.4906 33.396 37.1162 33.1368C36.6362 32.8104 36.1562 32.484 35.6762 32.1576C35.177 31.8168 34.673 31.476 34.1642 31.1496C33.1658 30.5208 32.1242 29.9544 31.0586 29.4456C31.2842 28.9704 31.6202 28.5624 31.9562 28.1544C32.2682 27.7752 32.681 27.3576 33.1658 27.4344L33.2186 27.4008Z" fill="#6F4535"/>
<path opacity="0.1" d="M33.3046 27.5016L32.2246 30.0312L31.7446 29.7864C31.8742 29.4888 32.0422 29.1576 32.2582 28.812C32.6038 28.26 32.9782 27.828 33.3046 27.5016Z" fill="#222222"/>
<path d="M27.6455 27.5832C28.1399 28.1256 28.6967 28.6104 29.2967 29.0232C29.9879 29.5032 30.7367 29.8968 31.5239 30.1848C31.8647 29.58 32.2055 28.9704 32.6375 28.4232C32.9111 28.0824 33.2183 27.756 33.3767 27.348C32.9255 27.0408 32.4743 26.7336 32.0183 26.4264C31.4471 26.0376 30.8567 25.62 30.4535 25.0776C30.3143 24.8904 30.1943 24.684 30.1079 24.4584L30.0743 24.4776C29.8919 24.612 29.7671 24.804 29.6471 24.996C29.0567 25.9224 28.5095 26.9112 27.6455 27.5832Z" fill="#3C3C3C"/>
<path opacity="0.25" d="M27.6455 27.5832C28.1399 28.1256 28.6967 28.6104 29.2967 29.0232L30.3383 24.9096C30.2183 24.7224 30.2183 24.684 30.1319 24.4584L30.0743 24.4776C29.8919 24.612 29.7671 24.804 29.6471 24.996C29.0567 25.9224 28.5095 26.9112 27.6455 27.5832Z" fill="#222222"/>
<path d="M20.5274 29.9448C20.5802 30.3048 20.801 30.6216 21.0794 30.8568C21.3578 31.0872 21.6938 31.2408 22.0346 31.3656C22.4138 31.5048 22.7978 31.6152 23.1866 31.7064C25.6106 32.2584 28.241 31.9656 30.6026 32.7864C30.6122 32.6136 30.6122 32.4408 30.6074 32.268C30.6026 32.004 30.5786 31.74 30.5402 31.4808C30.5306 31.4232 30.521 31.3608 30.4874 31.3176C30.4538 31.2744 30.4058 31.2504 30.3578 31.2312C28.4666 30.372 26.4986 29.6664 24.4922 29.1288C24.857 29.0136 25.217 28.8696 25.5578 28.692L25.7066 28.6152C25.2794 27.6264 24.209 27.108 23.4506 26.34C22.8362 26.7048 22.217 27.0792 21.689 27.5592C21.161 28.044 20.7242 28.6536 20.561 29.3496C20.5226 29.5464 20.4986 29.748 20.5274 29.9448Z" fill="#6F4535"/>
<path opacity="0.1" d="M24.199 28.4712C24.199 28.4712 24.463 29.0136 23.8486 29.2008L25.8646 29.5176L24.4966 29.124L24.6934 29.0568L24.199 28.4712Z" fill="#222222"/>
<path opacity="0.1" d="M24.6936 29.0616L22.7544 26.7672L23.3592 26.7432L24.6984 28.0056L25.5672 28.692C25.5624 28.692 25.02 28.9656 24.6936 29.0616Z" fill="#222222"/>
<path d="M26.4118 21.0792C25.7494 22.3416 24.8902 23.484 24.0358 24.6264L24.631 24.9192L22.4326 26.4888C23.3878 27.3288 24.343 28.1688 25.2982 29.0088C25.3318 29.0376 25.3702 29.0712 25.4134 29.0808C25.4758 29.0952 25.5382 29.0664 25.5958 29.0376C26.5654 28.5528 27.4918 27.9768 28.3558 27.3192C28.8886 26.9112 29.4022 26.4648 29.7718 25.908C30.1414 25.3512 30.3622 24.6696 30.2566 24.0072C30.151 23.3688 29.8966 22.7256 29.407 22.3032C29.3782 22.2792 29.3542 22.2552 29.3254 22.236C28.5574 21.6072 27.7654 21.2904 26.6326 21.0792H26.4118Z" fill="#3C3C3C"/>
<path d="M32.7144 34.2071C32.7048 33.9575 32.6664 33.6407 32.412 32.9495C32.1576 32.2631 31.6536 31.6199 31.5 31.5335C31.3464 31.4471 31.0344 31.2839 30.9144 31.1111C30.8232 30.9815 30.5304 30.5207 30.3864 30.2855C30.0264 30.4535 29.6328 30.6455 29.5896 30.6695C29.5128 30.7127 29.484 30.7415 29.484 30.7415C29.484 30.7415 29.4168 30.8807 29.604 31.0007C29.7912 31.1159 30.1608 31.3895 30.1848 31.4327C30.2088 31.4711 30.1608 31.9031 30.1272 31.9895C30.0936 32.0759 30.0072 32.0951 29.844 32.0807C29.6808 32.0663 29.4408 32.0327 29.3736 32.0471C29.3112 32.0615 29.4744 32.6855 29.4744 32.6855C29.5032 32.7959 29.5128 32.8007 29.604 32.8535C29.6952 32.9063 31.3416 33.8135 31.3416 33.8135C31.7016 34.1015 32.22 34.8167 32.268 34.8839C32.316 34.9511 32.3688 35.0327 32.46 35.0471C32.5032 35.0519 32.556 35.0471 32.6088 35.0279C32.6664 34.7687 32.7192 34.4039 32.7144 34.2071Z" fill="#F41C5E"/>
<path d="M30.9674 30.0167C30.9098 30.0407 30.6602 30.1559 30.3818 30.2855C30.5258 30.5159 30.8186 30.9815 30.9098 31.1111C31.0298 31.2839 31.3514 31.4471 31.4954 31.5335C31.6394 31.6199 32.1482 32.2631 32.4074 32.9495C32.6666 33.6359 32.705 33.9527 32.7098 34.2071C32.7146 34.4039 32.6618 34.7687 32.5946 35.0279C32.6618 35.0039 32.7338 34.9655 32.801 34.9079C32.921 34.8023 33.0218 34.2983 32.969 33.8567C32.9162 33.4199 32.3402 31.9271 32.009 31.2887C31.673 30.6455 31.4378 30.2807 31.3562 30.1655C31.2794 30.0455 31.097 29.9639 30.9674 30.0167Z" fill="#DDDDDD"/>
<path d="M17.484 16.02C17.94 16.3032 18.1944 16.884 18.084 17.412C18.0648 17.4936 18.0408 17.5704 18.036 17.652C18.012 17.9736 18.3336 18.2712 18.6552 18.2232C18.5544 18.6024 18.1224 18.8376 17.7336 18.78C17.3448 18.7224 17.0184 18.4296 16.8408 18.0792L17.484 16.02Z" fill="black"/>
<path d="M18.5445 20.4456C18.5205 20.0616 18.5541 19.668 18.7173 19.3224C18.8805 18.9768 19.1829 18.6792 19.5573 18.5928C19.9461 18.5016 20.3445 18.6456 20.7093 18.7992C21.4917 19.14 22.2357 19.572 22.9125 20.0904C22.9653 20.1336 23.0229 20.1768 23.0469 20.2392C23.0757 20.3256 23.0421 20.4168 23.0037 20.5032C22.7301 21.1368 22.4518 21.7704 22.1782 22.404C22.1398 22.4952 22.0965 22.5912 22.0293 22.6632C21.9525 22.7448 21.8517 22.7928 21.7509 22.8408C20.9301 23.2296 19.9893 23.5944 19.1349 23.2872C19.0581 23.2584 18.9813 23.2248 18.9333 23.1576C18.8853 23.0904 18.8805 23.004 18.8805 22.9176C18.8565 22.2168 18.8277 21.5208 18.7989 20.82L18.5445 20.4456Z" fill="#6F4535"/>
<path opacity="0.1" d="M20.8104 20.8968C20.8104 20.8968 21.0744 22.1256 21.8568 21.6024C22.6344 21.084 22.0248 22.5096 22.0248 22.5096L21.2568 23.2056L20.3208 23.4216L19.5576 22.8312L20.3016 20.6472L20.8104 20.8968Z" fill="#222222"/>
<path d="M17.4264 20.2536C17.1192 20.3976 16.9272 20.7192 16.8504 21.0504C16.7736 21.3816 16.8024 21.7272 16.8312 22.0632C16.9128 22.9944 16.9944 23.94 16.836 24.8616C16.2168 24.7512 15.5976 24.66 14.9736 24.5976C15.5784 25.092 16.236 25.5192 16.9368 25.8648C17.0952 25.9416 17.268 26.0184 17.4408 25.9992C17.58 25.9848 17.7096 25.908 17.8152 25.8168C18.0648 25.6056 18.228 25.3032 18.324 24.9912C18.42 24.6792 18.4632 24.3528 18.5016 24.0264C18.5784 23.3784 18.66 22.7304 18.7368 22.0824C18.804 21.5352 18.8712 20.9832 18.7656 20.4408C18.7608 20.4168 18.756 20.3928 18.7416 20.3784C18.7272 20.364 18.7032 20.3544 18.6792 20.3496C18.2328 20.244 17.7864 20.1432 17.3352 20.0568L17.4264 20.2536Z" fill="#6F4535"/>
<path opacity="0.1" d="M17.4264 20.2536C17.1192 20.3976 16.9272 20.7192 16.8504 21.0504C16.7736 21.3816 16.8024 21.7272 16.8312 22.0632C16.9128 22.9944 16.9944 23.94 16.836 24.8616C16.2168 24.7512 15.5976 24.66 14.9736 24.5976C15.5784 25.092 16.236 25.5192 16.9368 25.8648C17.0952 25.9416 17.268 26.0184 17.4408 25.9992C17.58 25.9848 17.7096 25.908 17.8152 25.8168C18.0648 25.6056 18.228 25.3032 18.324 24.9912C18.42 24.6792 18.4632 24.3528 18.5016 24.0264C18.5784 23.3784 18.66 22.7304 18.7368 22.0824C18.804 21.5352 18.8712 20.9832 18.7656 20.4408C18.7608 20.4168 18.756 20.3928 18.7416 20.3784C18.7272 20.364 18.7032 20.3544 18.6792 20.3496C18.2328 20.244 17.7864 20.1432 17.3352 20.0568L17.4264 20.2536Z" fill="#222222"/>
<path d="M14.7191 20.2295C14.9831 20.5319 15.1607 20.6711 15.4535 20.9447C15.5687 21.0551 15.7031 21.1703 15.8663 21.1703C16.1687 21.1655 16.8167 20.4695 16.8167 20.4695C16.8167 20.4695 17.9159 20.9735 18.4679 21.2279C18.7271 20.6231 18.9623 20.0039 19.1831 19.3847C18.6167 19.0727 17.7287 18.6071 17.1959 18.2471C17.5895 18.0119 17.6231 17.6279 17.2775 17.3207C17.1431 17.2007 16.8455 17.2487 16.5671 17.6183C16.2359 17.2679 15.7895 16.5959 15.3623 16.3751L13.3799 17.6471C13.4855 18.1175 13.9271 18.8663 14.1287 19.3031" fill="#6F4535"/>
<path d="M18.5112 20.1336C18.4776 19.5768 18.756 18.9624 19.2792 18.7752C19.452 18.7128 19.6392 18.7032 19.8264 18.708C20.4456 18.7368 21.0312 18.9768 21.5928 19.2408C21.852 19.3608 22.1256 19.5048 22.2504 19.764C22.2984 19.8696 22.3224 19.9896 22.3272 20.1048C22.3704 20.6376 22.1976 21.1848 21.8616 21.6024C21.5256 22.02 21.0216 22.2984 20.4936 22.3656C20.0424 22.4232 19.5816 22.3368 19.1352 22.2504C19.116 22.8264 19.0152 22.572 19.0392 23.148C19.0392 23.2008 21.876 23.8632 21.948 23.8776C22.2168 23.9304 22.476 24.0264 22.716 24.1512C22.764 24.1752 24.5016 24.9048 24.5544 24.8904C24.5976 24.8808 24.6216 24.8424 24.6504 24.8088C25.4568 23.7144 26.6136 22.4232 26.4936 21.0696C25.6776 20.6376 22.3992 19.4376 21.564 19.044C21.06 18.8088 20.5464 18.6456 19.9992 18.54C19.6536 18.4728 19.3224 18.612 19.02 18.7992C18.7224 18.9864 18.3192 19.9176 18.516 20.2104L18.5112 20.1336Z" fill="#F41C5E"/>
<path d="M16.5718 17.5704C16.5286 17.8104 16.2886 17.9928 16.0486 17.964C15.727 17.9304 15.487 17.5848 15.1654 17.6136C14.9542 17.6328 14.8006 17.8104 14.6518 17.9592C14.503 18.108 14.2966 18.252 14.095 18.1848C13.9654 18.1416 13.8694 18.0168 13.735 18.012C13.6582 18.0072 13.5862 18.0456 13.5046 18.0552C13.2982 18.0792 13.111 17.892 13.0774 17.6904C13.0438 17.4888 13.1254 17.2824 13.2454 17.1096C13.3606 16.9416 13.5094 16.7928 13.6294 16.6248C13.9414 16.1784 14.0662 15.5592 14.5462 15.3048C14.8678 15.1368 15.2566 15.1944 15.6166 15.2568C15.8998 15.3048 16.1782 15.3528 16.4614 15.4008C16.687 15.4392 16.9222 15.4776 17.1238 15.5928C17.623 15.8712 17.8006 16.4904 17.9302 17.0472C18.0022 17.364 18.079 17.6952 17.9686 18.0024C17.8582 18.3096 17.4982 18.5448 17.2102 18.396C17.1526 18.228 17.3446 18.0936 17.431 17.94C17.503 17.8008 17.4886 17.6232 17.3878 17.4984C17.287 17.3784 17.1142 17.3256 16.9654 17.3736C16.7782 17.4312 16.6678 17.6136 16.5238 17.7384L16.5718 17.5704Z" fill="black"/>
<path d="M18.9959 18.9912C17.7671 19.5096 17.8679 21.6024 17.8247 22.0008C17.7047 23.1096 17.4887 24.204 17.2679 25.2984C16.5863 24.8904 15.8663 24.54 15.1175 24.2616C14.8487 24.1608 14.5655 24.0648 14.3447 23.8728C14.1335 23.6904 13.9895 23.4264 13.7543 23.2728C13.3175 22.9896 12.7271 23.172 12.2279 23.004C12.1175 22.9656 11.9975 22.9128 11.8919 22.9608C11.7863 23.0088 11.8055 23.22 11.9207 23.196C11.8535 23.1192 11.7191 23.1336 11.6663 23.2152C11.6135 23.2968 11.6615 23.4264 11.7575 23.4552C11.6807 23.4264 11.5847 23.4744 11.5655 23.556C11.5463 23.6376 11.5991 23.724 11.6807 23.7384C11.6231 23.7192 11.5607 23.772 11.5463 23.8296C11.5319 23.8872 11.5559 23.9496 11.5847 24.0072C11.7767 24.3672 12.1799 24.564 12.5735 24.6744C12.9671 24.7896 13.3847 24.8568 13.7351 25.0632C13.8695 25.14 13.9895 25.2408 14.1095 25.3368C15.1799 26.196 16.3127 26.9784 17.4935 27.6744C17.6279 27.756 17.7719 27.8376 17.9303 27.8424C18.1607 27.8472 18.3623 27.6936 18.5207 27.5256C19.0535 26.9592 19.3223 26.196 19.4903 25.4376C19.6583 24.6792 19.7303 23.9016 19.9415 23.1528C20.1191 22.5192 20.3927 21.9144 20.6519 21.3096C20.8007 20.9688 20.9447 20.58 20.8103 20.2344C20.6759 19.8936 20.3159 19.7064 19.9655 19.5912C19.7495 19.5192 19.5239 19.4664 19.2983 19.4856C19.0727 19.5048 18.8423 19.6056 18.7175 19.7928L18.9959 18.9912Z" fill="#6F4535"/>
<path d="M11.4838 24.0023C11.6182 23.9495 11.7526 23.9111 11.8966 23.8871C11.9254 23.8823 11.959 23.8775 11.9878 23.8871C12.0406 23.9063 12.055 23.9783 12.0406 24.0311C12.0262 24.0839 11.983 24.1271 11.9446 24.1655C12.0598 24.0839 12.199 24.0263 12.343 24.0071C12.3862 24.0023 12.4342 24.0071 12.4678 24.0359C12.535 24.0935 12.5062 24.1799 12.4678 24.2423C12.4198 24.3191 12.3574 24.3815 12.2854 24.4295C12.439 24.3431 12.6118 24.2567 12.7798 24.3095C12.8086 24.3191 12.8374 24.3335 12.847 24.3623C12.8614 24.4007 12.8278 24.4391 12.8038 24.4679C12.7318 24.5447 12.6598 24.6167 12.5878 24.6935C12.6502 24.6647 12.7222 24.6551 12.7846 24.6695C12.8134 24.6743 12.8518 24.6839 12.8614 24.7127C12.871 24.7367 12.8662 24.7607 12.8566 24.7847C12.8326 24.8519 12.7798 24.9095 12.7174 24.9479C12.5542 25.0391 12.3718 25.0871 12.1846 25.0967C12.1414 25.0967 12.0934 25.0967 12.055 25.0727C12.0166 25.0487 11.9926 24.9959 12.0118 24.9575C11.9398 24.9815 11.8534 24.9575 11.8006 24.9047C11.7478 24.8519 11.7238 24.7655 11.743 24.6935C11.6662 24.7223 11.5702 24.6983 11.5222 24.6359C11.4742 24.5735 11.4646 24.4775 11.5078 24.4055C11.4886 24.4103 11.4694 24.4055 11.4502 24.4007C11.2966 24.3671 11.2678 24.1559 11.3974 24.0695L11.4838 24.0023Z" fill="#6F4535"/>
<path d="M13.3271 23.1096C13.2455 23.0376 13.1591 22.9704 13.0679 22.908C13.0247 22.8792 12.9815 22.8552 12.9335 22.8456C12.8375 22.8264 12.7463 22.884 12.6695 22.9368C12.5687 23.004 12.4679 23.076 12.4055 23.172C12.3623 23.2392 12.3383 23.3256 12.3863 23.388C12.4247 23.4312 12.4871 23.4408 12.5399 23.436C12.7751 23.4072 12.9047 23.0856 13.1399 23.1048C13.1783 23.1096 13.2887 23.1192 13.3559 23.1288L13.3271 23.1096Z" fill="#6F4535"/>
<path opacity="0.1" d="M11.4838 24.0023C11.6182 23.9495 11.7526 23.9111 11.8966 23.8871C11.9254 23.8823 11.959 23.8775 11.9878 23.8871C12.0406 23.9063 12.055 23.9783 12.0406 24.0311C12.0262 24.0839 11.983 24.1271 11.9446 24.1655C12.0598 24.0839 12.199 24.0263 12.343 24.0071C12.3862 24.0023 12.4342 24.0071 12.4678 24.0359C12.535 24.0935 12.5062 24.1799 12.4678 24.2423C12.4198 24.3191 12.3574 24.3815 12.2854 24.4295C12.439 24.3431 12.6118 24.2567 12.7798 24.3095C12.8086 24.3191 12.8374 24.3335 12.847 24.3623C12.8614 24.4007 12.8278 24.4391 12.8038 24.4679C12.7318 24.5447 12.6598 24.6167 12.5878 24.6935C12.6502 24.6647 12.7222 24.6551 12.7846 24.6695C12.8134 24.6743 12.8518 24.6839 12.8614 24.7127C12.871 24.7367 12.8662 24.7607 12.8566 24.7847C12.8326 24.8519 12.7798 24.9095 12.7174 24.9479C12.5542 25.0391 12.3718 25.0871 12.1846 25.0967C12.1414 25.0967 12.0934 25.0967 12.055 25.0727C12.0166 25.0487 11.9926 24.9959 12.0118 24.9575C11.9398 24.9815 11.8534 24.9575 11.8006 24.9047C11.7478 24.8519 11.7238 24.7655 11.743 24.6935C11.6662 24.7223 11.5702 24.6983 11.5222 24.6359C11.4742 24.5735 11.4646 24.4775 11.5078 24.4055C11.4886 24.4103 11.4694 24.4055 11.4502 24.4007C11.2966 24.3671 11.2678 24.1559 11.3974 24.0695L11.4838 24.0023Z" fill="#222222"/>
<path opacity="0.1" d="M13.3271 23.1096C13.2455 23.0376 13.1591 22.9704 13.0679 22.908C13.0247 22.8792 12.9815 22.8552 12.9335 22.8456C12.8375 22.8264 12.7463 22.884 12.6695 22.9368C12.5687 23.004 12.4679 23.076 12.4055 23.172C12.3623 23.2392 12.3383 23.3256 12.3863 23.388C12.4247 23.4312 12.4871 23.4408 12.5399 23.436C12.7751 23.4072 12.9047 23.0856 13.1399 23.1048C13.1783 23.1096 13.2887 23.1192 13.3559 23.1288L13.3271 23.1096Z" fill="#222222"/>
<path d="M16.4521 17.8679C16.3561 17.6087 16.5241 17.2871 16.7929 17.2055C17.0617 17.1239 17.3689 17.2967 17.4601 17.5607C17.5465 17.8247 17.4073 18.1415 17.1577 18.2615C17.1097 18.2855 17.0281 18.2759 17.0377 18.2231L16.4521 17.8679Z" fill="#6F4535"/>
<path opacity="0.1" d="M16.8169 20.4696L17.4649 19.5432L17.2057 20.6472L16.8169 20.4696Z" fill="#222222"/>
<path d="M39.9144 38.676C40.1832 38.6328 40.524 38.5416 41.2296 38.1672C41.9352 37.7928 41.9784 36.3048 41.9352 36.1224C41.892 35.94 41.772 35.5704 41.8152 35.34C41.8488 35.172 41.9832 34.5912 42.0552 34.2984C41.652 34.1496 41.2008 33.9864 41.148 33.9672C41.0568 33.9432 41.0088 33.9384 41.0088 33.9384C41.0088 33.9384 40.8504 33.9912 40.8984 34.2264C40.9464 34.4616 41.0184 34.956 41.0088 35.0088C40.9992 35.0568 40.6248 35.3496 40.5288 35.388C40.4328 35.4264 40.3512 35.3736 40.2408 35.2344C40.1304 35.0952 39.972 34.8792 39.9096 34.8408C39.8472 34.8024 39.4872 35.4072 39.4872 35.4072C39.4248 35.5128 39.4248 35.5272 39.4584 35.6376C39.4872 35.748 39.9864 37.5384 39.9864 37.5384C40.0344 38.0376 39.1896 38.2104 39.1224 38.2728C39.0552 38.3352 38.9736 38.4024 38.9736 38.5032C38.9736 38.5464 38.988 38.604 39.0168 38.6616C39.2952 38.7048 39.6984 38.7144 39.9144 38.676Z" fill="#F41C5E"/>
<path d="M42.7033 34.5527C42.6457 34.5239 42.3577 34.4183 42.0505 34.3031C41.9833 34.5959 41.8441 35.1767 41.8105 35.3447C41.7673 35.5751 41.8825 35.9447 41.9305 36.1271C41.9785 36.3095 41.7049 37.7207 41.0521 38.1815C40.4377 38.6135 40.1833 38.6375 39.9097 38.6855C39.6985 38.7191 39.2953 38.7143 39.0073 38.6807C39.0409 38.7527 39.0793 38.8439 39.1657 38.8871C39.8425 39.2183 40.6777 38.8247 41.0809 38.5847C41.4985 38.3399 42.2665 37.0919 42.5113 36.3431C42.7561 35.5943 42.8617 35.1287 42.8905 34.9751C42.9193 34.8215 42.8425 34.6151 42.7033 34.5527Z" fill="#DDDDDD"/>
</g>
<defs>
<clipPath id="clip0_9673_124066">
<rect width="48" height="48" fill="white"/>
</clipPath>
<clipPath id="clip1_9673_124066">
<rect width="48" height="48" fill="white"/>
</clipPath>
</defs>
</svg>
