<svg width="48" height="48" viewBox="0 0 48 48" fill="none" xmlns="http://www.w3.org/2000/svg">
<g clip-path="url(#clip0_9673_126192)">
<g clip-path="url(#clip1_9673_126192)">
<path d="M48 24.0003C48 24.5519 47.9813 25.0984 47.9444 25.6406C47.1018 38.1302 36.7035 48 24.0003 48C23.8966 48 23.7936 48 23.6899 47.9981C11.1279 47.8388 0.891353 38.0283 0.0555924 25.6406C0.018739 25.0984 0 24.5519 0 24.0003C0 10.7456 10.7456 0 24.0003 0C37.255 0 48 10.7456 48 24.0003Z" fill="#EAEFF4"/>
<mask id="mask0_9673_126192" style="mask-type:luminance" maskUnits="userSpaceOnUse" x="0" y="0" width="48" height="48">
<path d="M48 24.0003C48 24.5519 47.9813 25.0984 47.9444 25.6406C47.1018 38.1302 36.7035 48 24.0003 48C23.8966 48 23.7936 48 23.6899 47.9981C11.1279 47.8388 0.891353 38.0283 0.0555924 25.6406C0.018739 25.0984 0 24.5519 0 24.0003C0 10.7456 10.7456 0 24.0003 0C37.255 0 48 10.7456 48 24.0003Z" fill="white"/>
</mask>
<g mask="url(#mask0_9673_126192)">
<path opacity="0.2" d="M-7.19434 34.2463C-6.11122 50.2963 9.50026 62.9801 25.8244 62.9801C25.9575 62.9801 26.0899 62.9795 26.2236 62.9776C42.3666 62.7728 55.5214 50.1658 56.5958 34.2463H18.5831L18.4506 38.3046H18.0584L18.0084 34.2463H17.1408L17.0696 36.55L17.0552 37.0135L16.9952 38.943H16.603L16.5811 37.1015L16.5736 36.4569L16.548 34.2463H-7.19434Z" fill="#7CA5B9"/>
<path opacity="0.2" d="M17.0691 36.5499L17.0547 37.0134C17.382 36.9397 17.5569 36.861 17.5569 36.7804C17.5569 36.6998 17.387 36.6236 17.0691 36.5499Z" fill="#7CA5B9"/>
<path opacity="0.2" d="M-10.723 36.7805C-10.723 36.9504 -9.93972 37.1103 -8.58364 37.2446C-8.43622 37.2596 -8.28131 37.2746 -8.12078 37.2877C-7.81034 37.3152 -7.47616 37.3408 -7.11949 37.3658C-6.97833 37.3751 -6.83404 37.3851 -6.686 37.3945C-6.2219 37.4238 -5.72406 37.4513 -5.1975 37.4769C-4.92953 37.4901 -4.65344 37.5019 -4.36986 37.5132C-2.13679 37.6044 0.540392 37.6587 3.41808 37.6587C9.40145 37.6587 14.5166 37.4276 16.581 37.1015L16.5735 36.4569C15.2749 36.2533 12.7801 36.0859 9.62444 35.9903C9.63319 36.0272 9.63819 36.0659 9.63819 36.1052C9.63819 36.3876 9.40832 36.6168 9.12599 36.6168C8.84365 36.6168 8.61441 36.3882 8.61441 36.1052C8.61441 36.0553 8.62191 36.0084 8.63503 35.9635C8.62441 35.9628 8.61316 35.9628 8.60192 35.9628H2.88589C2.89901 36.0078 2.90588 36.0559 2.90588 36.1059C2.90588 36.3882 2.67727 36.6174 2.39431 36.6174C2.11135 36.6174 1.88273 36.3888 1.88273 36.1059C1.88273 36.0353 1.8971 35.9678 1.92271 35.9066C-0.381568 35.9216 -2.52156 35.971 -4.36174 36.0465C-4.65656 36.0584 -4.94265 36.0715 -5.22123 36.0853C-5.72469 36.1096 -6.20066 36.1359 -6.64665 36.164C-6.81342 36.1746 -6.97645 36.1858 -7.13449 36.1958C-7.47304 36.2202 -7.7916 36.2439 -8.08893 36.2695C-8.2657 36.2858 -8.43497 36.3008 -8.5955 36.317C-9.94409 36.4519 -10.7236 36.61 -10.7236 36.7811L-10.723 36.7805Z" fill="#7CA5B9"/>
<path opacity="0.7" d="M4.33594 24.7707C4.59579 24.9143 4.82128 25.0992 5.00242 25.3135C5.04177 25.1411 5.08362 24.9593 5.12922 24.7694L4.33594 24.7713V24.7707Z" fill="#7CA5B9"/>
<path opacity="0.7" d="M1.05762 28.7689H1.67101L1.73784 28.5009C1.70661 28.4753 1.67663 28.4478 1.64852 28.4197C1.47112 28.2423 1.34995 28.0093 1.31122 27.7501L1.05762 28.7689Z" fill="#7CA5B9"/>
<path opacity="0.7" d="M0.618164 24.7775C0.618164 24.8881 0.635029 25.0024 0.669384 25.1148L1.44955 26.9956H1.45018C1.55137 26.8144 1.69878 26.6614 1.87743 26.5552L1.52888 25.6857C1.37709 25.3265 1.34336 25.0024 1.46392 24.7762L0.618164 24.7781V24.7775Z" fill="#7CA5B9"/>
<path opacity="0.7" d="M1.88281 36.1058C1.88281 36.3882 2.11143 36.6174 2.39439 36.6174C2.67735 36.6174 2.90596 36.3888 2.90596 36.1058C2.90596 36.0559 2.89847 36.0078 2.88598 35.9628H8.63511C8.62136 36.0084 8.61449 36.0559 8.61449 36.1058C8.61449 36.3882 8.84311 36.6174 9.12607 36.6174C9.40903 36.6174 9.63827 36.3888 9.63827 36.1058C9.63827 36.0665 9.63327 36.0278 9.62453 35.9909C9.57331 35.7635 9.36905 35.5936 9.12607 35.5936C9.05861 35.5936 8.99427 35.6074 8.93493 35.6311L6.23963 35.5212L6.2996 31.7909C6.31022 31.1719 6.51135 30.5753 6.86927 30.0837L5.08781 30.5603C5.30518 30.9857 5.41949 31.4617 5.41512 31.9514L5.43823 35.5193L2.59677 35.6349C2.53431 35.6086 2.46622 35.593 2.39439 35.593C2.18264 35.593 2.00087 35.7223 1.92341 35.906C1.8978 35.9672 1.88344 36.0346 1.88344 36.1052L1.88281 36.1058Z" fill="#7CA5B9"/>
<path opacity="0.7" d="M1.16568 28.769H2.38371H5.46316H5.66991H9.59449H10.2429H10.3503V28.8103C10.3503 28.8471 10.3203 28.8765 10.2841 28.8765H9.59511L9.21534 28.8784C8.82619 28.8802 8.44391 28.9596 8.09225 29.1095C7.73933 29.2588 7.41577 29.4793 7.14155 29.7603C7.04286 29.8615 6.95229 29.9696 6.86859 30.0833L5.08713 30.5611C4.9316 30.2588 4.72422 29.9815 4.47124 29.7447L4.33632 29.6179C3.80351 29.1201 3.10642 28.8821 2.38247 28.8771H2.21007L1.96209 28.879V28.8771H1.12383C1.08697 28.8771 1.05762 28.8471 1.05762 28.8109V28.7697H1.16505L1.16568 28.769Z" fill="#7CA5B9"/>
<path opacity="0.4" d="M1.2998 27.5771C1.2998 27.6345 1.30355 27.6926 1.31167 27.7482V27.7507C1.3504 28.0099 1.47158 28.2429 1.64897 28.4203C1.67708 28.4484 1.70707 28.4759 1.7383 28.5009C1.9438 28.6695 2.20615 28.7695 2.49223 28.7695H9.58245C9.63492 28.7695 9.68489 28.7657 9.73486 28.7582L9.41567 27.474L9.31948 27.0855L9.59994 26.3853H2.49286C2.26799 26.3853 2.05874 26.4471 1.87884 26.5552C1.70082 26.662 1.55278 26.8144 1.45159 26.9968C1.3554 27.1685 1.30043 27.3659 1.30043 27.5771H1.2998Z" fill="#7CA5B9"/>
<path opacity="0.4" d="M5.41249 23.6719L5.32129 23.9442H11.7775L12.3434 21.5631C12.7032 19.3394 12.4315 18.1439 12.0036 17.503L11.4077 17.2944C11.2447 17.2375 11.1591 17.0589 11.216 16.8965L11.4746 16.9871C11.018 16.7116 10.5826 16.7809 10.5826 16.7809C7.91602 16.4786 6.26886 20.5818 5.41249 23.6719Z" fill="#7CA5B9"/>
<path opacity="0.4" d="M10.2114 26.3845H10.6318V27.6007L10.8454 26.9748C11.1271 26.189 11.367 25.4625 11.5694 24.7929L10.7898 24.7892C10.788 24.8966 10.7711 25.0059 10.7386 25.1152L10.2114 26.3851V26.3845Z" fill="#7CA5B9"/>
<path opacity="0.4" d="M4.7809 26.3848H6.14447C6.1476 26.1899 6.12574 25.9981 6.08264 25.8132C6.01205 25.509 5.88213 25.2223 5.70348 24.9625C5.65788 24.8956 5.60854 24.8307 5.55732 24.7676L5.12882 24.7695C5.08322 24.9593 5.04137 25.1411 5.00202 25.3135C4.90707 25.7395 4.83337 26.1055 4.78027 26.3854L4.7809 26.3848Z" fill="#7CA5B9"/>
<path opacity="0.4" d="M5.55811 24.7676C5.60933 24.8313 5.65867 24.8963 5.70427 24.9625C5.88229 25.2223 6.01221 25.509 6.08342 25.8132C6.12652 25.9981 6.14839 26.1899 6.14526 26.3848H9.59949L9.87932 25.6858C10.0292 25.331 10.0642 25.0106 9.94866 24.7845L7.07472 24.7695L6.50505 24.7664L5.85106 24.7682H5.55873L5.55811 24.7676Z" fill="#7CA5B9"/>
<path opacity="0.4" d="M9.92773 27.0681L10.0452 27.5391L10.2838 28.4998C10.4974 28.308 10.6323 28.0288 10.6323 27.719V26.3848H10.2119L9.92836 27.0681H9.92773Z" fill="#7CA5B9"/>
<path opacity="0.7" d="M9.31912 27.0849L9.41531 27.4735L9.7345 28.7577L9.737 28.769H10.3504L10.2836 28.5004L10.0449 27.5397L9.92751 27.0687L10.2111 26.3854L10.7383 25.1155C10.7714 25.0062 10.7883 24.8969 10.7895 24.7894L9.9475 24.7844C10.0631 25.0105 10.0287 25.331 9.87817 25.6858L9.59833 26.3847L9.31787 27.0849H9.31912Z" fill="#7CA5B9"/>
<path opacity="0.7" d="M6.90527 23.9436H10.4157C10.1971 23.7456 9.8929 23.6163 9.53061 23.6038L8.6861 23.5738C8.03461 23.5494 7.42434 23.6881 6.9059 23.943L6.90527 23.9436Z" fill="#7CA5B9"/>
<path opacity="0.7" d="M5.26361 26.3847C5.26424 26.484 5.27236 26.5846 5.2861 26.6857L5.33607 27.0437L5.41852 27.6302L5.57718 28.7683H6.14934L5.98944 27.6302L5.91636 27.1043L5.90511 27.0274C5.87451 26.8076 5.877 26.5914 5.91011 26.3847C5.94072 26.1848 5.99943 25.993 6.08251 25.8131C6.28302 25.3803 6.62657 25.0155 7.0738 24.7687L6.50414 24.7656L5.85015 24.7675C5.79893 24.8312 5.74958 24.8962 5.70398 24.9624C5.52596 25.2222 5.39604 25.5089 5.3242 25.8131C5.28173 25.998 5.25987 26.1898 5.26299 26.3847H5.26361Z" fill="#7CA5B9"/>
<g opacity="0.3">
<path d="M17.8936 24.78L18.0085 34.2464L18.0578 38.3052H18.4507L18.5832 34.2464L18.8911 24.78H17.8936Z" fill="#7CA5B9"/>
<path d="M16.438 24.8094L16.5473 34.2464L16.5729 36.4569L16.5798 37.1016L16.6016 38.943H16.9945L17.0545 37.0135L17.0689 36.55L17.1401 34.2464L17.4343 24.8063L16.438 24.8094Z" fill="#7CA5B9"/>
<path d="M16.438 24.7799V24.8093L17.4343 24.8061L17.4349 24.7799H16.438Z" fill="#7CA5B9"/>
</g>
<path opacity="0.4" d="M0.618166 24.7775L1.46392 24.7756L4.33536 24.77H4.33599L5.12927 24.7682L5.55777 24.7663H5.8501L6.50409 24.7644L7.07376 24.7675L9.9477 24.7825L10.7897 24.7875L11.5692 24.7913L15.1222 24.8106L16.4376 24.8075L17.4339 24.8044H17.893L18.89 24.8013L19.4228 24.7994C19.6558 24.7994 19.8425 24.6082 19.8425 24.3734V24.3696C19.8425 24.1335 19.6539 23.9424 19.4221 23.9424H0.992946C0.753711 24.1591 0.617542 24.4577 0.618166 24.7763V24.7775Z" fill="#7CA5B9"/>
<path opacity="0.4" d="M-9.56689 24.371C-9.56689 24.6071 -9.37825 24.7982 -9.14652 24.7982H-8.72801L-7.7311 24.7951H-7.27324L-6.2757 24.7926L0.617764 24.7782C0.617139 24.4597 0.753309 24.1611 0.992544 23.9443H-9.14652C-9.37825 23.9443 -9.56689 24.1355 -9.56689 24.3716V24.371Z" fill="#7CA5B9"/>
<path opacity="0.5" d="M-7.56104 15.6397L-5.83455 22.1403H-2.73699L-3.08553 18.2869H-0.903686L-0.2828 22.1403H4.12587L2.51431 15.6397L2.68921 15.5767L-7.44235 15.6116L-7.56104 15.6397Z" fill="#7CA5B9"/>
<path opacity="0.2" d="M-1.20312 18.287L-0.72403 22.1404L-0.554755 23.5058L-0.499787 23.9437H0.00741601L-0.0631679 23.5058L-0.283039 22.1404L-0.903925 18.287H-1.20312Z" fill="#7CA5B9"/>
<path opacity="0.2" d="M2.51416 15.6404L2.68906 15.5767L4.3206 22.0447L4.12572 22.1403L2.51416 15.6404Z" fill="#7CA5B9"/>
<path opacity="0.2" d="M15.5933 20.3372L16.7645 23.5028H17.043L16.6433 22.4234L16.5539 22.1823L15.8381 20.2466L15.5933 20.3372Z" fill="#7CA5B9"/>
<path d="M13.4844 23.7633V23.9444H17.5076V23.7633C17.5076 23.619 17.3915 23.5022 17.2465 23.5022H16.184C16.1553 23.5159 13.7742 23.5022 13.7742 23.5022H13.7455C13.6018 23.5022 13.4844 23.6184 13.4844 23.7633Z" fill="#7CA5B9"/>
<path opacity="0.2" d="M15.6919 19.9635C15.7843 19.9579 15.8743 19.9997 15.9305 20.0728L16.5245 18.7804C16.4315 18.7948 16.339 18.7605 16.2772 18.693L15.6919 19.9635Z" fill="#7CA5B9"/>
<path opacity="0.2" d="M16.2072 18.5512C16.191 18.4588 16.2235 18.3657 16.2891 18.3026L15.2172 17.9279L15.1304 18.1752L16.2066 18.5519L16.2072 18.5512Z" fill="#7CA5B9"/>
<path d="M16.2892 18.3027C16.3155 18.2764 16.3486 18.2552 16.386 18.2414C16.4423 18.2208 16.4997 18.219 16.5541 18.2333C16.5797 18.2396 16.6047 18.2502 16.6272 18.2639C16.6546 18.2802 16.6784 18.3008 16.6996 18.3258C16.719 18.3489 16.7352 18.3764 16.7465 18.407C16.7821 18.5025 16.7608 18.6062 16.6996 18.6806C16.6802 18.7055 16.6553 18.7274 16.6272 18.7443C16.6128 18.753 16.5972 18.7605 16.5803 18.7668C16.5716 18.7699 16.5628 18.7724 16.5541 18.7749C16.5447 18.7774 16.5341 18.7799 16.5241 18.7805C16.431 18.7949 16.3386 18.7605 16.2767 18.6931C16.2524 18.6674 16.2336 18.6362 16.2205 18.6012C16.2143 18.585 16.2099 18.5681 16.2068 18.5513C16.1905 18.4588 16.223 18.3657 16.2886 18.3027H16.2892ZM16.3148 18.5663C16.3173 18.5737 16.3211 18.5812 16.3255 18.5881C16.3667 18.6668 16.4604 18.7037 16.5453 18.6724C16.5484 18.6718 16.5516 18.6699 16.5541 18.6681C16.5653 18.6643 16.5747 18.6587 16.5841 18.6512C16.6015 18.6406 16.6159 18.6262 16.6272 18.61C16.6628 18.5625 16.6728 18.5 16.6515 18.4413C16.6459 18.4251 16.6378 18.4101 16.6272 18.397C16.6084 18.3707 16.5828 18.3514 16.5541 18.3395C16.5128 18.3214 16.466 18.3189 16.421 18.3358C16.328 18.3701 16.2805 18.4732 16.3148 18.5663Z" fill="#7CA5B9"/>
<path d="M16.3149 18.5657C16.3174 18.5732 16.3211 18.5807 16.3255 18.5876C16.3667 18.6663 16.4604 18.7031 16.5454 18.6719C16.5485 18.6713 16.5516 18.6694 16.5541 18.6675C16.5654 18.6638 16.5747 18.6581 16.5841 18.6506C16.6016 18.64 16.616 18.6257 16.6272 18.6094C16.6628 18.5619 16.6728 18.4995 16.6516 18.4408C16.6459 18.4245 16.6378 18.4095 16.6272 18.3964C16.6085 18.3702 16.5829 18.3508 16.5541 18.3389C16.5129 18.3208 16.4661 18.3183 16.4211 18.3352C16.328 18.3696 16.2805 18.4726 16.3149 18.5657Z" fill="#EAEFF4"/>
<path opacity="0.2" d="M11.4081 17.2946L12.004 17.5032L14.5531 18.3952C14.7161 18.4521 14.8941 18.3671 14.951 18.2041L13.6492 17.7481V17.7456L12.4756 17.3346V17.3365L11.4749 16.9873L11.2163 16.8967C11.1595 17.0598 11.245 17.2378 11.4081 17.2946Z" fill="#7CA5B9"/>
<path d="M11.0659 16.841L12.4757 17.3345L13.65 17.7455L15.1029 18.2546L15.131 18.1746L15.2179 17.9279L15.2428 17.856L15.1135 17.8111L11.3564 16.4956L11.2058 16.4431L11.0659 16.841Z" fill="#7CA5B9"/>
<path d="M15.6108 19.9804C15.6383 19.9698 15.6645 19.9641 15.692 19.9635C15.7845 19.9579 15.8744 19.9997 15.9306 20.0728C15.9475 20.0947 15.9612 20.1197 15.9706 20.1459C16.0243 20.2914 15.95 20.452 15.8051 20.5057C15.6595 20.5594 15.499 20.4857 15.4453 20.3402C15.3916 20.1959 15.4653 20.0341 15.6108 19.9804ZM15.5396 20.3052C15.574 20.3976 15.6776 20.4451 15.7701 20.4114C15.8607 20.3776 15.9081 20.2783 15.8775 20.1871C15.8775 20.1871 15.8769 20.1821 15.8757 20.1809C15.8419 20.0878 15.7382 20.0403 15.6452 20.0747C15.6433 20.0753 15.6414 20.0766 15.6395 20.0772C15.5515 20.1134 15.5065 20.2134 15.539 20.3052H15.5396Z" fill="#7CA5B9"/>
<path d="M15.5395 20.3053C15.5739 20.3977 15.6775 20.4452 15.77 20.4115C15.8606 20.3777 15.908 20.2784 15.8774 20.1872C15.8774 20.1872 15.8768 20.1822 15.8756 20.181C15.8418 20.0879 15.7381 20.0404 15.6451 20.0748C15.6432 20.0754 15.6413 20.0767 15.6394 20.0773C15.5514 20.1135 15.5064 20.2134 15.5389 20.3053H15.5395Z" fill="#EAEFF4"/>
<g opacity="0.6">
<path d="M54.1644 26.9926H29.9067V30.8547H54.1644V26.9926Z" fill="#7CA5B9"/>
<path d="M54.1644 22.0292H29.9067V25.9419H54.1644V22.0292Z" fill="#7CA5B9"/>
<path d="M54.1644 16.9091H29.9067V20.9779H54.1644V16.9091Z" fill="#7CA5B9"/>
<path d="M54.1644 11.7559H29.9067V15.8578H54.1644V11.7559Z" fill="#7CA5B9"/>
</g>
<path opacity="0.2" d="M43.1126 13.2207H41.2637V15.7848H43.1126V13.2207Z" fill="#7CA5B9"/>
<path d="M41.3363 13.2931V15.7123H43.0403V13.2931H41.3363ZM41.1914 13.1482H43.1852V15.8579H41.1914V13.1482Z" fill="#7CA5B9"/>
<path d="M42.4948 13.8517H41.8496L41.8252 15.1547H42.5504L42.4948 13.8517Z" fill="#7CA5B9"/>
<path opacity="0.2" d="M46.458 14.2593H44.333V15.7846H46.458V14.2593Z" fill="#7CA5B9"/>
<path d="M44.4057 14.3317V15.7121H46.3857V14.3317H44.4057ZM44.2607 14.1868H46.5313V15.8577H44.2607V14.1868Z" fill="#7CA5B9"/>
<path d="M44.9297 15.275H45.826L45.8623 14.7922L44.9297 14.7566V15.275Z" fill="#7CA5B9"/>
<path opacity="0.2" d="M39.9292 14.2593H37.8042V15.7846H39.9292V14.2593Z" fill="#7CA5B9"/>
<path d="M37.8773 14.3317V15.7121H39.8574V14.3317H37.8773ZM37.7324 14.1868H40.003V15.8577H37.7324V14.1868Z" fill="#7CA5B9"/>
<path d="M38.4009 14.7566H39.2972L39.3335 15.2394L38.4009 15.275V14.7566Z" fill="#7CA5B9"/>
<path opacity="0.4" d="M47.14 20.9779H53.1958V19.5069H47.14V20.9779Z" fill="#7CA5B9"/>
<path d="M46.9875 19.5068H53.3481V19.0059H46.9875V19.5068Z" fill="#7CA5B9"/>
<path opacity="0.4" d="M47.7897 19.0061H52.5444V17.8505H47.7897V19.0061Z" fill="#7CA5B9"/>
<path d="M47.6706 17.8506H52.6646V17.4571H47.6706V17.8506Z" fill="#7CA5B9"/>
<path opacity="0.4" d="M30.5233 25.9418H36.5791V24.4708H30.5233V25.9418Z" fill="#7CA5B9"/>
<path d="M30.3703 24.4702H36.731V23.9693H30.3703V24.4702Z" fill="#7CA5B9"/>
<path opacity="0.4" d="M31.173 23.9685H35.9277V22.8129H31.173V23.9685Z" fill="#7CA5B9"/>
<path d="M31.0534 22.8137H36.0474V22.4202H31.0534V22.8137Z" fill="#7CA5B9"/>
<path opacity="0.4" d="M39.866 20.9779H45.9219V19.5069H39.866V20.9779Z" fill="#7CA5B9"/>
<path d="M39.7136 19.5068H46.0742V19.0059H39.7136V19.5068Z" fill="#7CA5B9"/>
<path opacity="0.4" d="M40.8786 19.0061H45.6333V17.8505H40.8786V19.0061Z" fill="#7CA5B9"/>
<path d="M40.759 17.8506H45.7529V17.4571H40.759V17.8506Z" fill="#7CA5B9"/>
<path d="M29.9394 20.9779H37.1714V17.475H29.9394V20.9779Z" fill="#7CA5B9"/>
<g opacity="0.5">
<path d="M36.8416 17.8503C36.883 17.8503 36.9165 17.8168 36.9165 17.7754C36.9165 17.734 36.883 17.7004 36.8416 17.7004C36.8002 17.7004 36.7666 17.734 36.7666 17.7754C36.7666 17.8168 36.8002 17.8503 36.8416 17.8503Z" fill="#DDDDDD"/>
<path d="M36.5947 19.9523H37.0938V17.9472H36.5947V19.9523Z" fill="#DDDDDD"/>
</g>
<path d="M38.5088 20.9797L39.1011 20.7285L37.7335 17.5036L37.1412 17.7547L38.5088 20.9797Z" fill="#7CA5B9"/>
<g opacity="0.5">
<path d="M37.554 17.9849C37.5954 17.9849 37.6289 17.9513 37.6289 17.9099C37.6289 17.8685 37.5954 17.835 37.554 17.835C37.5126 17.835 37.479 17.8685 37.479 17.9099C37.479 17.9513 37.5126 17.9849 37.554 17.9849Z" fill="#DDDDDD"/>
<path d="M38.1777 20.0065L38.6372 19.8116L37.8544 17.9657L37.3949 18.1605L38.1777 20.0065Z" fill="#DDDDDD"/>
</g>
<path d="M42.3965 22.7143L41.8042 22.4631L40.4366 25.6881L41.0289 25.9393L42.3965 22.7143Z" fill="#7CA5B9"/>
<g opacity="0.5">
<path d="M41.9797 22.9424C42.0211 22.9424 42.0547 22.9088 42.0547 22.8674C42.0547 22.826 42.0211 22.7925 41.9797 22.7925C41.9383 22.7925 41.9048 22.826 41.9048 22.8674C41.9048 22.9088 41.9383 22.9424 41.9797 22.9424Z" fill="#DDDDDD"/>
<path d="M42.1426 23.1195L41.6831 22.9247L40.9003 24.7706L41.3598 24.9655L42.1426 23.1195Z" fill="#DDDDDD"/>
</g>
<g opacity="0.5">
<path d="M36.2551 17.8503C36.2965 17.8503 36.3301 17.8168 36.3301 17.7754C36.3301 17.734 36.2965 17.7004 36.2551 17.7004C36.2137 17.7004 36.1802 17.734 36.1802 17.7754C36.1802 17.8168 36.2137 17.8503 36.2551 17.8503Z" fill="#DDDDDD"/>
<path d="M36.052 19.9523H36.4648V17.9472H36.052V19.9523Z" fill="#DDDDDD"/>
</g>
<g opacity="0.5">
<path d="M35.6711 17.8503C35.7125 17.8503 35.7461 17.8168 35.7461 17.7754C35.7461 17.734 35.7125 17.7004 35.6711 17.7004C35.6298 17.7004 35.5962 17.734 35.5962 17.7754C35.5962 17.8168 35.6298 17.8503 35.6711 17.8503Z" fill="#DDDDDD"/>
<path d="M35.4247 19.9523H35.9238V17.9472H35.4247V19.9523Z" fill="#DDDDDD"/>
</g>
<g opacity="0.5">
<path d="M35.0383 17.8503C35.0797 17.8503 35.1133 17.8168 35.1133 17.7754C35.1133 17.734 35.0797 17.7004 35.0383 17.7004C34.9969 17.7004 34.9634 17.734 34.9634 17.7754C34.9634 17.8168 34.9969 17.8503 35.0383 17.8503Z" fill="#DDDDDD"/>
<path d="M34.7914 19.9523H35.2905V17.9472H34.7914V19.9523Z" fill="#DDDDDD"/>
</g>
<g opacity="0.5">
<path d="M34.4514 17.8503C34.4928 17.8503 34.5264 17.8168 34.5264 17.7754C34.5264 17.734 34.4928 17.7004 34.4514 17.7004C34.41 17.7004 34.3765 17.734 34.3765 17.7754C34.3765 17.8168 34.41 17.8503 34.4514 17.8503Z" fill="#DDDDDD"/>
<path d="M34.2482 19.9523H34.6611V17.9472H34.2482V19.9523Z" fill="#DDDDDD"/>
</g>
<g opacity="0.5">
<path d="M33.8684 17.8503C33.9098 17.8503 33.9434 17.8168 33.9434 17.7754C33.9434 17.734 33.9098 17.7004 33.8684 17.7004C33.827 17.7004 33.7935 17.734 33.7935 17.7754C33.7935 17.8168 33.827 17.8503 33.8684 17.8503Z" fill="#DDDDDD"/>
<path d="M33.6215 19.9523H34.1206V17.9472H33.6215V19.9523Z" fill="#DDDDDD"/>
</g>
<g opacity="0.5">
<path d="M33.2283 17.8503C33.2697 17.8503 33.3032 17.8168 33.3032 17.7754C33.3032 17.734 33.2697 17.7004 33.2283 17.7004C33.1869 17.7004 33.1533 17.734 33.1533 17.7754C33.1533 17.8168 33.1869 17.8503 33.2283 17.8503Z" fill="#DDDDDD"/>
<path d="M32.9819 19.9523H33.481V17.9472H32.9819V19.9523Z" fill="#DDDDDD"/>
</g>
<g opacity="0.5">
<path d="M32.6414 17.8503C32.6828 17.8503 32.7163 17.8168 32.7163 17.7754C32.7163 17.734 32.6828 17.7004 32.6414 17.7004C32.6 17.7004 32.5664 17.734 32.5664 17.7754C32.5664 17.8168 32.6 17.8503 32.6414 17.8503Z" fill="#DDDDDD"/>
<path d="M32.4382 19.9523H32.8511V17.9472H32.4382V19.9523Z" fill="#DDDDDD"/>
</g>
<g opacity="0.5">
<path d="M32.0574 17.8503C32.0988 17.8503 32.1323 17.8168 32.1323 17.7754C32.1323 17.734 32.0988 17.7004 32.0574 17.7004C32.016 17.7004 31.9824 17.734 31.9824 17.7754C31.9824 17.8168 32.016 17.8503 32.0574 17.8503Z" fill="#DDDDDD"/>
<path d="M31.811 19.9523H32.3101V17.9472H31.811V19.9523Z" fill="#DDDDDD"/>
</g>
<g opacity="0.5">
<path d="M31.426 17.8503C31.4674 17.8503 31.501 17.8168 31.501 17.7754C31.501 17.734 31.4674 17.7004 31.426 17.7004C31.3846 17.7004 31.3511 17.734 31.3511 17.7754C31.3511 17.8168 31.3846 17.8503 31.426 17.8503Z" fill="#DDDDDD"/>
<path d="M31.1796 19.9523H31.6787V17.9472H31.1796V19.9523Z" fill="#DDDDDD"/>
</g>
<g opacity="0.5">
<path d="M30.8391 17.8503C30.8805 17.8503 30.9141 17.8168 30.9141 17.7754C30.9141 17.734 30.8805 17.7004 30.8391 17.7004C30.7977 17.7004 30.7642 17.734 30.7642 17.7754C30.7642 17.8168 30.7977 17.8503 30.8391 17.8503Z" fill="#DDDDDD"/>
<path d="M30.6359 19.9523H31.0488V17.9472H30.6359V19.9523Z" fill="#DDDDDD"/>
</g>
<g opacity="0.5">
<path d="M30.2561 17.8503C30.2975 17.8503 30.3311 17.8168 30.3311 17.7754C30.3311 17.734 30.2975 17.7004 30.2561 17.7004C30.2147 17.7004 30.1812 17.734 30.1812 17.7754C30.1812 17.8168 30.2147 17.8503 30.2561 17.8503Z" fill="#DDDDDD"/>
<path d="M30.0092 19.9523H30.5083V17.9472H30.0092V19.9523Z" fill="#DDDDDD"/>
</g>
<path d="M43.5256 25.9413H44.1689V22.4383H43.5256V25.9413Z" fill="#7CA5B9"/>
<path d="M43.0029 25.9413H43.5264V22.4383H43.0029V25.9413Z" fill="#7CA5B9"/>
<path d="M42.3591 25.9413H43.0024V22.4383H42.3591V25.9413Z" fill="#7CA5B9"/>
<path d="M44.1603 25.9413H44.8037V22.4383H44.1603V25.9413Z" fill="#7CA5B9"/>
<g opacity="0.5">
<path d="M44.4778 22.8139C44.5192 22.8139 44.5527 22.7803 44.5527 22.7389C44.5527 22.6975 44.5192 22.6639 44.4778 22.6639C44.4364 22.6639 44.4028 22.6975 44.4028 22.7389C44.4028 22.7803 44.4364 22.8139 44.4778 22.8139Z" fill="#DDDDDD"/>
<path d="M44.2309 24.9158H44.73V22.9107H44.2309V24.9158Z" fill="#DDDDDD"/>
</g>
<g opacity="0.5">
<path d="M43.8464 22.8139C43.8878 22.8139 43.9214 22.7803 43.9214 22.7389C43.9214 22.6975 43.8878 22.6639 43.8464 22.6639C43.805 22.6639 43.7715 22.6975 43.7715 22.7389C43.7715 22.7803 43.805 22.8139 43.8464 22.8139Z" fill="#DDDDDD"/>
<path d="M43.5995 24.9158H44.0986V22.9107H43.5995V24.9158Z" fill="#DDDDDD"/>
</g>
<g opacity="0.5">
<path d="M43.2595 22.8139C43.3009 22.8139 43.3345 22.7803 43.3345 22.7389C43.3345 22.6975 43.3009 22.6639 43.2595 22.6639C43.2181 22.6639 43.1846 22.6975 43.1846 22.7389C43.1846 22.7803 43.2181 22.8139 43.2595 22.8139Z" fill="#DDDDDD"/>
<path d="M43.0564 24.9158H43.4692V22.9107H43.0564V24.9158Z" fill="#DDDDDD"/>
</g>
<g opacity="0.5">
<path d="M42.6765 22.8139C42.7179 22.8139 42.7515 22.7803 42.7515 22.7389C42.7515 22.6975 42.7179 22.6639 42.6765 22.6639C42.6351 22.6639 42.6016 22.6975 42.6016 22.7389C42.6016 22.7803 42.6351 22.8139 42.6765 22.8139Z" fill="#DDDDDD"/>
<path d="M42.4296 24.9158H42.9287V22.9107H42.4296V24.9158Z" fill="#DDDDDD"/>
</g>
<path opacity="0.4" d="M47.9811 30.3799H53.7671V27.3723H47.9811V30.3799Z" fill="#7CA5B9"/>
<path opacity="0.4" d="M42.0734 30.3799H47.8594V27.3723H42.0734V30.3799Z" fill="#7CA5B9"/>
<path opacity="0.4" d="M36.1369 30.3799H41.9229V27.3723H36.1369V30.3799Z" fill="#7CA5B9"/>
<path opacity="0.4" d="M30.2277 30.3799H36.0137V27.3723H30.2277V30.3799Z" fill="#7CA5B9"/>
<path d="M37.1636 28.6135H37.0349C37.0207 28.6135 37.0093 28.625 37.0093 28.6391V29.1551C37.0093 29.1692 37.0207 29.1807 37.0349 29.1807H37.1636C37.1777 29.1807 37.1892 29.1692 37.1892 29.1551V28.6391C37.1892 28.625 37.1777 28.6135 37.1636 28.6135Z" fill="#7CA5B9"/>
<path d="M35.1562 28.604H35.0276C35.0134 28.604 35.002 28.6155 35.002 28.6296V29.1456C35.002 29.1597 35.0134 29.1712 35.0276 29.1712H35.1562C35.1704 29.1712 35.1818 29.1597 35.1818 29.1456V28.6296C35.1818 28.6155 35.1704 28.604 35.1562 28.604Z" fill="#7CA5B9"/>
<path d="M46.98 28.604H46.8513C46.8372 28.604 46.8257 28.6155 46.8257 28.6296V29.1456C46.8257 29.1597 46.8372 29.1712 46.8513 29.1712H46.98C46.9941 29.1712 47.0056 29.1597 47.0056 29.1456V28.6296C47.0056 28.6155 46.9941 28.604 46.98 28.604Z" fill="#7CA5B9"/>
<path opacity="0.3" d="M54.8241 10.9176V11.9682H54.8247V31.067H54.8241V32.1183H54.5193V34.422H30.2616V32.1183H29.9556V10.9176H54.8241ZM30.2616 31.067H54.5199V27.2049H30.2616V31.067ZM30.2616 26.1543H54.5199V22.2416H30.2616V26.1543ZM30.2616 21.1903H54.5199V17.1215H30.2616V21.1903ZM30.2616 16.0696H54.5199V11.9676H30.2616V16.0696Z" fill="#7CA5B9"/>
</g>
</g>
<path opacity="0.1" d="M24.0047 46.9632C32.0928 46.9632 38.6495 46.4861 38.6495 45.8976C38.6495 45.3091 32.0928 44.832 24.0047 44.832C15.9166 44.832 9.35986 45.3091 9.35986 45.8976C9.35986 46.4861 15.9166 46.9632 24.0047 46.9632Z" fill="#222222"/>
<path d="M18.9789 19.0416C18.9789 19.0416 19.6221 19.3872 19.7421 19.7904C19.8669 20.1936 19.5885 22.9344 19.7901 23.352C19.9917 23.7696 20.1837 26.1648 19.8717 27.3168C19.8717 27.3168 20.1117 28.344 20.0349 28.5408C19.9581 28.7376 19.3485 28.9872 19.1277 28.9728C18.9069 28.9584 18.7965 27.6816 19.0365 27.312L18.9789 19.0416Z" fill="#6F4535"/>
<path d="M20.1981 26.0832C20.1981 26.0832 20.0109 26.2032 19.7709 26.304C19.6221 26.3664 19.4493 26.424 19.2909 26.4288C19.2573 26.4288 19.2237 26.4288 19.1901 26.4288C19.1709 26.4288 19.1517 26.4096 19.1325 26.3712C18.9789 26.0736 18.8109 24.6768 18.6669 23.0448C18.6621 23.0208 18.6621 22.992 18.6621 22.968C18.6573 22.9152 18.6525 22.8624 18.6477 22.8096C18.6429 22.7328 18.6333 22.6512 18.6285 22.5696C18.6189 22.4352 18.6045 22.3056 18.5949 22.1712C18.5901 22.1184 18.5853 22.0656 18.5805 22.008L18.5565 21.6864C18.5517 21.6048 18.5421 21.5232 18.5373 21.4464C18.5277 21.312 18.5181 21.1776 18.5085 21.0432C18.5037 20.9904 18.4989 20.9376 18.4989 20.8848C18.4941 20.832 18.4893 20.7792 18.4893 20.7264C18.4797 20.6208 18.4749 20.5152 18.4653 20.4096L18.4605 20.3328C18.4557 20.28 18.4557 20.2272 18.4509 20.1792C18.4461 20.1264 18.4461 20.0784 18.4413 20.0256C18.3933 19.3392 18.3501 18.7056 18.3165 18.1968C18.2685 17.4336 18.1821 16.8336 18.1821 16.8336C18.1821 16.8336 18.6813 16.968 19.0413 17.3856C19.2093 17.5776 19.4637 18.4176 19.6845 19.2576C19.9389 20.2368 20.1981 26.0832 20.1981 26.0832Z" fill="#F5D970"/>
<path opacity="0.1" d="M19.7713 26.3041C19.6225 26.3665 19.4497 26.4241 19.2913 26.4289C19.2577 26.4289 19.2241 26.4289 19.1905 26.4289C19.1713 26.4289 19.1521 26.4097 19.1329 26.3713C18.9553 25.3153 18.7729 24.2065 18.6673 23.0449C18.6625 23.0209 18.6625 22.9921 18.6625 22.9681C18.6577 22.9153 18.6529 22.8625 18.6481 22.8097C18.6433 22.7329 18.6337 22.6513 18.6289 22.5697C18.6193 22.4353 18.6049 22.3057 18.5953 22.1713C18.5905 22.1185 18.5857 22.0657 18.5809 22.0081L18.5569 21.6865C18.5521 21.6049 18.5425 21.5233 18.5377 21.4465C18.5281 21.3121 18.5185 21.1777 18.5089 21.0433C18.5041 20.9905 18.4993 20.9377 18.4993 20.8849C18.4945 20.8321 18.4897 20.7793 18.4897 20.7265C18.4801 20.6209 18.4753 20.5153 18.4657 20.4097L18.4609 20.3329C18.4561 20.2801 18.4561 20.2273 18.4513 20.1793C18.4465 20.1265 18.4465 20.0785 18.4417 20.0257C18.3937 19.3393 18.3505 18.7057 18.3169 18.1969C19.3345 18.6145 19.9585 21.8545 19.7713 26.3041Z" fill="#222222"/>
<path d="M20.2032 35.4337C20.16 35.7361 20.1456 35.7649 20.0688 36.0049C19.9296 36.4273 19.6128 36.9409 19.4784 37.3633C18.9888 38.8945 18.6336 40.4641 18.4128 42.0577C18.3792 42.2977 18.3504 42.5473 18.3936 42.7873C18.4368 43.0033 18.5328 43.2001 18.6336 43.3969C18.7824 43.6849 18.9264 43.9777 19.0752 44.2657C19.1328 44.3761 19.1952 44.4961 19.3104 44.5393C19.4064 44.5777 19.5168 44.5537 19.6128 44.5873C19.7616 44.6401 19.7904 44.5153 19.7136 44.6497C19.6368 44.7889 19.4304 44.8273 19.3056 44.7313C19.3152 44.7505 19.3296 44.7697 19.3392 44.7889C19.4016 44.9233 19.2096 45.0289 19.128 44.9089C19.152 44.9713 19.1136 45.0577 19.0464 45.0769C19.0032 45.0865 18.96 45.0721 18.9312 45.0433C18.9312 45.0913 18.9072 45.1441 18.8592 45.1681C18.8112 45.1921 18.7536 45.1777 18.7104 45.1441C18.7056 45.1825 18.6864 45.2209 18.648 45.2353C18.576 45.2641 18.4944 45.2305 18.432 45.1873C17.9472 44.8465 18.0192 44.3569 17.5152 44.0401C17.4096 43.9729 17.1504 44.2081 17.0688 44.1217C16.8624 43.8913 17.1888 43.3105 17.1888 42.9985C17.184 42.2449 17.1888 41.2657 17.0016 40.4161C16.6272 38.7265 16.9392 36.8929 17.8512 35.4241C17.9808 35.2129 18.0192 35.2273 18.0144 34.9825C18.0096 34.7329 17.9952 34.6801 17.9376 34.4401C17.8992 34.2865 17.8656 34.1377 17.832 33.9841C17.808 33.8881 17.7888 33.7969 17.7648 33.7057C17.7216 33.5233 17.6784 33.3457 17.64 33.1681C17.6256 33.1057 17.592 33.0001 17.5584 32.8897C17.52 32.7697 17.4816 32.6449 17.4672 32.5777L17.6976 32.5585C18.4176 32.3473 19.3776 32.0065 20.0928 31.7953C20.1312 31.9201 20.1552 32.0113 20.1744 32.1025C20.2032 32.2465 20.2176 32.3761 20.2416 32.5873C20.2512 32.6641 20.256 32.8273 20.2608 32.9905C20.2656 33.1729 20.2656 33.3601 20.2656 33.4609C20.256 33.8689 20.2656 34.2289 20.2464 34.6513C20.2224 35.0497 20.2416 35.1745 20.2032 35.4337Z" fill="#6F4535"/>
<path d="M15.5616 33.6817C15.5472 34.1665 15.5184 34.6177 15.4128 35.0929C15.3552 35.3521 15.3456 35.5873 15.2976 35.8225C15.2448 36.0673 15.2112 36.2881 15.1392 36.5281C15.0096 36.9505 14.6928 37.4689 14.568 37.8961C14.1024 39.4321 13.7664 41.0113 13.5696 42.6049C13.5408 42.8449 13.512 43.0945 13.56 43.3345C13.6032 43.5505 13.7088 43.7473 13.8096 43.9393C13.9584 44.2273 14.112 44.5153 14.2608 44.8033C14.3184 44.9137 14.3856 45.0337 14.5008 45.0721C14.5968 45.1105 14.7072 45.0817 14.808 45.1153C14.9568 45.1633 14.9856 45.0385 14.9088 45.1777C14.8368 45.3169 14.6304 45.3601 14.5056 45.2641C14.5152 45.2833 14.5296 45.3025 14.5392 45.3217C14.6016 45.4561 14.4096 45.5617 14.3328 45.4465C14.3568 45.5089 14.3184 45.5905 14.256 45.6145C14.2128 45.6241 14.1696 45.6097 14.1408 45.5809C14.1408 45.6337 14.1168 45.6817 14.0736 45.7057C14.0256 45.7297 13.9632 45.7153 13.9248 45.6817C13.92 45.7201 13.9008 45.7585 13.8672 45.7777C13.7952 45.8065 13.7136 45.7729 13.6512 45.7297C13.1616 45.3937 13.2288 44.9089 12.72 44.5969C12.6144 44.5345 12.4896 44.4913 12.408 44.4049C12.1968 44.1793 12.336 43.8673 12.3504 43.5553C12.3696 42.8929 12.36 41.8273 12.1584 40.9825C11.76 39.2977 12.0432 37.4593 12.936 35.9761C13.0656 35.7649 13.2048 35.5537 13.2624 35.3137C13.32 35.0737 13.2912 34.8193 13.2624 34.5745C13.224 34.2673 13.1904 33.9601 13.152 33.6577C13.1184 33.4033 13.0896 33.1441 13.0608 32.8849L13.152 32.7745L13.2336 32.6737C13.9728 32.5441 14.712 32.4145 15.4464 32.2849C15.4704 32.3857 15.4896 32.4913 15.5088 32.5921C15.5328 32.7457 15.552 32.8993 15.5616 33.0577C15.5664 33.1057 15.5664 33.1585 15.5712 33.2065C15.5664 33.3649 15.5664 33.5233 15.5616 33.6817Z" fill="#6F4535"/>
<path opacity="0.1" d="M15.5616 33.6817L13.1952 34.1137C13.1616 33.8593 13.1328 33.6001 13.104 33.3409L13.1952 33.2305L15.552 33.0529C15.5568 33.1009 15.5568 33.1537 15.5616 33.2017C15.5664 33.3649 15.5664 33.5233 15.5616 33.6817Z" fill="#222222"/>
<path d="M20.7453 32.1889C19.6893 32.7025 18.5373 33.0049 17.3661 33.0769C17.2557 33.0865 17.1453 33.0865 17.0301 33.0913C16.9725 32.9377 16.9197 32.7361 16.8669 32.5153C16.7277 31.9153 16.7325 30.8977 16.5741 30.4801C16.4589 31.2673 16.2525 32.1745 16.2717 32.9665C15.0957 33.2593 13.5741 33.3841 12.3885 33.1393C12.5709 31.9681 12.3021 30.7825 12.1821 29.6065C12.0621 28.4305 12.3981 27.0481 13.1037 26.0977L13.9917 24.9601C14.4189 25.4305 15.0573 25.6465 15.6813 25.7713C16.7565 25.9825 17.6973 26.0545 18.7629 25.7857C19.4013 27.3937 20.1309 29.6449 20.5725 31.4209C20.6445 31.6801 20.6973 31.9393 20.7453 32.1889Z" fill="#C7C7C7"/>
<path opacity="0.1" d="M20.2605 32.9761L17.7645 33.6913C17.7213 33.5089 17.6781 33.3313 17.6397 33.1537C17.6253 33.0913 17.5917 32.9857 17.5581 32.8753L20.1741 32.0881C20.2029 32.2321 20.2173 32.3617 20.2413 32.5729C20.2509 32.6545 20.2557 32.8129 20.2605 32.9761Z" fill="#222222"/>
<path d="M20.9376 32.1697C20.5488 32.3137 20.16 32.4625 19.7712 32.6113C19.0032 32.8993 18.216 33.1969 17.4 33.2833C17.2368 33.3025 17.0736 33.3121 16.9056 33.3121L16.8672 32.5201V32.4817C16.9824 32.4577 17.112 32.4289 17.2512 32.3905C18.3408 32.1121 20.0304 31.5409 20.5776 31.4209C20.6832 31.3969 20.7456 31.3921 20.7552 31.4113C20.8176 31.5985 20.8752 31.9777 20.9376 32.1697Z" fill="#808080"/>
<path d="M12.2207 33.4993C13.5839 33.5329 15.0623 33.7441 16.3679 33.3553C16.3247 33.1105 16.3151 32.8609 16.3439 32.6161C14.9855 32.7553 13.5887 32.8945 12.2591 32.5681L12.2207 33.4993Z" fill="#808080"/>
<path opacity="0.1" d="M16.8526 28.9393L17.3998 33.2833C17.2366 33.3025 17.0734 33.3121 16.9054 33.3121L16.867 32.5201C16.7278 31.9201 16.7326 30.9025 16.5742 30.4849L16.8526 28.9393Z" fill="#222222"/>
<path d="M15.8014 45.6481C15.595 45.7057 15.3262 45.7585 14.6974 45.7345C14.0686 45.7105 13.4158 45.4705 13.3006 45.3697C13.1854 45.2689 12.9742 45.0577 12.8014 45.0049C12.6718 44.9665 12.2206 44.8513 11.9902 44.7937C12.0334 44.4577 12.0814 44.0833 12.091 44.0449C12.1054 43.9729 12.1246 43.9393 12.1246 43.9393C12.1246 43.9393 12.2206 43.8481 12.3646 43.9681C12.5086 44.0881 12.8302 44.3185 12.8686 44.3281C12.907 44.3377 13.243 44.1841 13.3054 44.1313C13.3678 44.0785 13.3582 44.0017 13.3054 43.8769C13.2478 43.7473 13.1566 43.5601 13.1518 43.5025C13.147 43.4449 13.699 43.4113 13.699 43.4113C13.795 43.4065 13.8046 43.4113 13.8718 43.4737C13.939 43.5361 15.115 44.6305 15.115 44.6305C15.4462 44.8465 16.1662 45.0769 16.2334 45.0961C16.3006 45.1153 16.3822 45.1345 16.4158 45.2065C16.4302 45.2401 16.4398 45.2833 16.4398 45.3313C16.2478 45.4561 15.9646 45.6001 15.8014 45.6481Z" fill="#F41C5E"/>
<path d="M11.9279 45.3409C11.9327 45.2881 11.9567 45.0529 11.9903 44.7937C12.2159 44.8513 12.6719 44.9665 12.8015 45.0049C12.9743 45.0577 13.1903 45.2737 13.3007 45.3697C13.4111 45.4657 14.0687 45.7057 14.6975 45.7345C15.3263 45.7585 15.5951 45.7105 15.8015 45.6481C15.9647 45.6001 16.2479 45.4561 16.4351 45.3361C16.4351 45.3985 16.4207 45.4657 16.3919 45.5377C16.3391 45.6625 15.9551 45.8785 15.5807 45.9553C15.2063 46.0321 13.8431 45.9553 13.2335 45.8545C12.6239 45.7537 12.2591 45.6577 12.1439 45.6241C12.0335 45.5857 11.9231 45.4561 11.9279 45.3409Z" fill="#DDDDDD"/>
<path d="M20.7165 44.8224C20.5149 44.8992 20.2509 44.9712 19.6221 44.9904C18.9933 45.0096 18.3213 44.8224 18.2013 44.7312C18.0813 44.64 17.8509 44.4432 17.6733 44.4048C17.5437 44.376 17.0781 44.2944 16.8477 44.256C16.8669 43.9152 16.8861 43.5408 16.8909 43.5024C16.9005 43.4304 16.9149 43.392 16.9149 43.392C16.9149 43.392 17.0061 43.296 17.1597 43.4016C17.3133 43.5072 17.6493 43.7136 17.6877 43.7232C17.7261 43.7328 18.0525 43.5504 18.1101 43.4928C18.1677 43.4352 18.1533 43.3632 18.0909 43.2384C18.0285 43.1136 17.9181 42.936 17.9085 42.8784C17.8989 42.8208 18.4461 42.7488 18.4461 42.7488C18.5421 42.7344 18.5517 42.744 18.6189 42.7968C18.6861 42.8496 19.9437 43.8576 19.9437 43.8576C20.2893 44.0448 21.0237 44.2224 21.0909 44.2416C21.1581 44.256 21.2445 44.2704 21.2829 44.3376C21.3021 44.3664 21.3117 44.4096 21.3165 44.4624C21.1437 44.5968 20.8749 44.76 20.7165 44.8224Z" fill="#F41C5E"/>
<path d="M16.8335 44.8032C16.8335 44.7504 16.8431 44.5152 16.8527 44.256C17.0831 44.2944 17.5439 44.376 17.6783 44.4048C17.8559 44.4432 18.0863 44.6448 18.2063 44.7312C18.3263 44.8176 18.9983 45.0096 19.6271 44.9904C20.2559 44.9712 20.5199 44.8992 20.7215 44.8224C20.8799 44.7648 21.1487 44.6016 21.3311 44.4672C21.3359 44.5296 21.3263 44.5968 21.3023 44.6688C21.2591 44.7984 20.8895 45.0432 20.5247 45.144C20.1599 45.2448 18.7919 45.2736 18.1775 45.2208C17.5631 45.1632 17.1935 45.096 17.0735 45.072C16.9583 45.0384 16.8335 44.9232 16.8335 44.8032Z" fill="#DDDDDD"/>
<path d="M19.4975 23.7889C19.4927 24.2209 19.6031 24.8257 19.6031 25.2577C19.5983 25.6897 19.4495 26.1697 19.0751 26.3857C18.5615 26.6833 17.8895 26.6209 17.2943 26.6545C16.5551 26.6977 15.9695 27.0289 15.2351 27.1249C15.1679 27.1345 15.1055 27.1393 15.0383 27.1393C14.9183 27.1393 14.7935 27.1345 14.6735 27.1153C14.0207 27.0193 13.3727 26.6929 12.7103 26.7313C12.6815 26.7313 12.6527 26.7169 12.6431 26.6881C12.3167 25.9489 12.6431 24.9169 12.9647 24.1681C13.2815 23.4289 13.0415 21.0865 13.0511 20.3617L13.2047 17.1553C13.4015 16.9681 13.5071 16.8529 13.5935 16.7713C13.8095 16.5649 13.8911 16.5553 15.0383 15.9841C15.0479 15.9793 15.0623 15.9745 15.0767 15.9793L15.6239 16.0465C16.7231 16.1185 17.9951 16.3201 18.5279 17.2801C18.7775 17.7313 19.6271 19.1041 19.6799 20.0209C19.7279 20.8465 19.4975 22.9633 19.4975 23.7889Z" fill="#F5D970"/>
<path d="M17.8323 12.4944C18.2883 12.6288 18.7875 12.4896 19.1091 12.1872C19.4307 11.8848 19.5795 11.4336 19.5603 10.9824C19.5507 10.7184 19.4739 10.44 19.2675 10.248C19.0995 10.0896 18.8499 10.0128 18.6291 10.0512C18.5475 10.0656 18.4515 10.0896 18.3891 10.0272C18.3603 9.99365 18.3507 9.95525 18.3459 9.91205C18.2883 9.55205 18.1971 9.18725 18.0051 8.86565C17.8083 8.54405 17.4963 8.26565 17.1267 8.18405C16.7571 8.10245 16.3395 8.25605 16.2099 8.58245C16.1667 8.68805 16.1523 8.81285 16.0755 8.90405C15.9555 9.04805 15.7347 9.05285 15.5475 9.10565C15.2163 9.19685 14.9619 9.46565 14.8515 9.78245C14.7411 10.0992 14.7651 10.4544 14.8707 10.7904C14.8995 10.8816 14.9331 10.9728 14.9331 11.064C14.9331 11.1696 14.8899 11.2656 14.8611 11.3616C14.6787 11.9712 15.0915 12.6672 15.6435 13.08L17.8323 12.4944Z" fill="#222222"/>
<path d="M19.3921 11.2849C19.4209 10.8193 19.0033 10.4401 18.5665 10.2769C18.1297 10.1137 17.6497 10.0993 17.2129 9.9409C16.9969 9.8641 16.7905 9.7537 16.5649 9.7393C16.2577 9.7153 15.9745 9.8881 15.7201 10.0657C15.4225 10.2769 15.2113 10.1281 14.9665 10.2673C14.6113 10.4737 14.1457 10.9633 14.0545 11.3617C13.9873 11.6497 14.1793 11.9425 14.1505 12.2353C14.1265 12.4753 13.9633 12.6817 13.9201 12.9217C13.8529 13.3009 14.1073 13.6561 14.3473 13.9585C14.5153 14.1697 14.6881 14.3857 14.9137 14.5345C15.0385 14.6161 15.1729 14.6737 15.3121 14.7169C15.5617 14.7937 15.8449 14.8273 16.0753 14.6977C16.2961 14.5681 16.4065 14.3137 16.5937 14.1361C16.9009 13.8385 17.3617 13.7857 17.7409 13.5841C18.0673 13.4065 18.3313 13.1041 18.4609 12.7537L19.3921 11.2849Z" fill="#222222"/>
<path d="M19.392 12.2928C19.2288 13.2432 19.0128 14.1792 18.7488 15.1056C18.72 15.2112 18.6864 15.3168 18.6144 15.3984C18.3936 15.6528 17.8752 15.4992 17.544 15.528C17.4672 15.7824 17.4144 16.0416 17.376 16.3056C17.856 16.6176 17.1072 16.128 17.5872 16.4352C17.784 16.56 18.0048 16.7856 17.8896 16.9872C17.832 17.0928 17.7024 17.136 17.5824 17.1504C17.112 17.208 16.656 16.9824 16.2528 16.7328C15.48 16.2576 15.5184 16.3056 15.1488 16.032C15.1056 15.9984 15.36 14.7792 15.5232 14.1936C15.3408 14.2992 15.0864 14.1984 14.9808 14.016C14.8752 13.8336 14.8848 13.6032 14.952 13.4016C15.0048 13.248 15.1056 13.0944 15.2544 13.0368C15.408 12.9792 15.6144 13.056 15.648 13.2192C15.8208 12.5568 15.9888 11.8992 16.1568 11.2368C16.1664 11.2032 16.176 11.1696 16.2 11.1552C16.2288 11.1312 16.272 11.1408 16.3104 11.1504C17.3184 11.376 18.4608 10.8864 19.4496 11.8464L19.392 12.2928Z" fill="#6F4535"/>
<path d="M15.1972 12.9649C15.3652 12.8401 15.6292 12.8929 15.8452 12.8977C15.9604 12.8977 16.0852 12.9169 16.1764 12.8497C16.234 12.8065 16.2628 12.7345 16.2868 12.6673C16.3684 12.4321 16.426 12.1921 16.45 11.9425C16.6516 12.1345 17.0308 12.0769 17.17 11.8369C17.1892 11.7985 17.2084 11.7601 17.2468 11.7361C17.3236 11.6929 17.4148 11.7601 17.4868 11.8081C17.7796 11.9953 18.226 11.8465 18.346 11.5201C18.5284 11.5585 18.6436 11.7457 18.6916 11.9281C18.7396 12.1105 18.7492 12.3073 18.8404 12.4705C18.9748 12.7057 19.3252 12.8737 19.2436 13.1281C19.3924 12.7921 19.4692 12.4801 19.5652 12.1249C19.642 11.8417 19.6948 11.5201 19.5508 11.2657C19.378 10.9585 18.9988 10.8481 18.6532 10.7713C18.2836 10.6849 17.914 10.6033 17.5444 10.5169C17.074 10.4113 16.5316 10.3153 16.1524 10.6129C15.8836 10.8241 15.778 11.1793 15.586 11.4625C15.4036 11.7361 15.1396 11.9521 15.0148 12.2545C14.89 12.5569 14.9908 12.9937 15.3124 13.0561L15.1972 12.9649Z" fill="#222222"/>
<path opacity="0.1" d="M17.544 15.5329L17.496 15.5281L16.1616 15.3361L17.4528 15.8881L17.544 15.5329Z" fill="#222222"/>
<path d="M15.8783 12.7824C15.7679 12.8832 15.7247 13.056 15.7823 13.1952C15.8207 13.2864 15.8975 13.368 15.9071 13.4688C15.9215 13.584 15.8495 13.6944 15.7727 13.7808C15.7727 13.536 15.6239 13.296 15.3983 13.1904C15.3023 13.1472 15.1871 13.1136 15.1487 13.0176C15.1103 12.9216 15.1679 12.816 15.2207 12.7344C15.2207 12.7296 15.8783 12.7824 15.8783 12.7824Z" fill="#222222"/>
<path opacity="0.1" d="M15.0383 27.1392C14.9087 27.1344 14.7887 27.1248 14.6735 27.1152C14.0207 27.0192 13.3727 26.6928 12.7103 26.7312C12.6815 26.7312 12.6527 26.7168 12.6431 26.688C12.3167 25.9488 12.6431 24.9168 12.9647 24.168C13.2815 23.4288 13.0415 21.0864 13.0511 20.3616L13.2047 17.1552C13.4015 16.968 13.5071 16.8528 13.5935 16.7712L15.5231 17.2848L16.2623 24.2688C15.4127 24.2784 14.6975 24.84 14.5391 25.5792C14.3471 26.4384 14.9951 27.096 15.0383 27.1392Z" fill="#222222"/>
<path d="M30.1537 13.8912C30.1537 13.8912 25.7281 14.3664 27.4417 31.8768C27.4417 31.8768 30.6721 31.8432 31.7761 30.9264L32.3233 17.4288C32.3233 17.4288 32.9809 14.1984 30.1537 13.8912Z" fill="#C7C7C7"/>
<path d="M30.9119 16.2528C30.9119 16.2528 30.4079 20.304 28.1231 22.2C26.8703 23.2416 25.7567 22.872 24.8879 23.1888C24.1727 23.4528 23.7119 23.5296 23.7119 23.5296C22.9583 23.112 22.7327 22.6752 22.5503 22.2384C22.5503 22.2384 25.1663 21.312 26.1983 20.1936C27.2303 19.0752 27.4703 16.0368 28.6799 14.856C28.9919 14.5536 29.4623 14.4864 29.8559 14.8704C30.4175 15.4128 30.9119 16.2528 30.9119 16.2528Z" fill="#C7C7C7"/>
<path opacity="0.1" d="M30.9118 16.2528C30.9118 16.2528 30.4078 20.304 28.123 22.2C26.8702 23.2416 25.5406 22.9824 24.6094 23.2848L24.787 23.1456C24.787 23.1456 28.0798 22.1568 28.0942 17.6784C28.6606 18.2256 30.9118 16.2528 30.9118 16.2528Z" fill="#222222"/>
<path d="M29.2656 42.6048L28.92 44.3424L27.4272 44.2512L27.6 42.288L29.2656 42.6048Z" fill="#FFB39A"/>
<path opacity="0.1" d="M27.5999 42.288L27.5615 42.72C27.5615 42.72 28.6079 43.2912 29.2175 42.8544L29.2655 42.6048L27.5999 42.288Z" fill="#222222"/>
<path d="M35.0401 42.6815L34.9585 44.4527L33.4657 44.5871L33.3457 42.6191L35.0401 42.6815Z" fill="#FFB39A"/>
<path opacity="0.1" d="M33.3457 42.6191L33.3697 43.0511C33.3697 43.0511 34.5025 43.1567 35.0257 42.9359L35.0353 42.6815L33.3457 42.6191Z" fill="#222222"/>
<path d="M35.5776 42.5904C35.5776 42.5904 35.3088 42.6432 34.9152 42.7008C34.4544 42.7632 33.816 42.8304 33.24 42.8112C33.0384 42.8064 32.8416 42.7872 32.664 42.7536C32.664 42.7536 31.3872 36.0528 31.1184 34.9056C30.8496 33.7584 30.8496 30.9744 30.8496 30.9744L30.8448 30.9888C30.8016 31.2144 30.2976 33.9696 30.2112 34.7808C30.2064 34.8288 30.2016 34.872 30.2016 34.9056C30.1632 35.5152 30.4512 38.0544 29.6928 42.5856C29.6928 42.5856 29.3856 42.6912 28.9536 42.7392C28.4736 42.7872 27.8352 42.7632 27.312 42.4128C27.2832 42.3936 27.2544 42.3744 27.2256 42.3504C27.2256 42.3504 27.3408 36.8112 27.456 34.6752C27.5712 32.5392 27.4944 29.448 27.8736 27.048C28.2576 24.6432 28.3632 23.6736 28.3632 23.6736L33.7056 23.808C33.7056 23.808 34.3536 25.9056 34.5072 27.2016C34.6608 28.4976 33.9744 33.4944 33.9744 34.2576C33.9744 35.0208 34.4928 35.7552 35.0448 38.0208C35.6304 40.3728 35.5776 42.5904 35.5776 42.5904Z" fill="#2D9C86"/>
<path d="M30.6575 45.5904C30.8927 45.6768 31.1999 45.7584 31.9295 45.7776C32.6591 45.7968 33.4415 45.5712 33.5759 45.4656C33.7103 45.36 33.9791 45.1296 34.1855 45.0816C34.3391 45.048 34.8719 44.9472 35.1407 44.8992C35.1167 44.5056 35.0927 44.0688 35.0831 44.0208C35.0735 43.9344 35.0543 43.896 35.0543 43.896C35.0543 43.896 34.9487 43.7808 34.7711 43.9104C34.5935 44.04 34.2047 44.28 34.1567 44.2896C34.1087 44.2992 33.7295 44.0928 33.6623 44.0256C33.5951 43.9584 33.6095 43.872 33.6863 43.728C33.7631 43.584 33.8831 43.3728 33.8927 43.3056C33.9023 43.2432 33.2639 43.1616 33.2639 43.1616C33.1535 43.1472 33.1439 43.1568 33.0623 43.2192C32.9807 43.2816 31.5311 44.4672 31.5311 44.4672C31.1327 44.6928 30.2783 44.904 30.1967 44.9232C30.1151 44.9424 30.0191 44.9568 29.9759 45.0384C29.9567 45.0768 29.9423 45.1248 29.9375 45.1824C30.1535 45.336 30.4703 45.5232 30.6575 45.5904Z" fill="#8F8F8F"/>
<path d="M35.1742 45.5328C35.1742 45.4752 35.1598 45.1968 35.1454 44.8944C34.8766 44.9424 34.339 45.0432 34.1902 45.0768C33.9838 45.1248 33.7198 45.36 33.5806 45.4608C33.4414 45.5616 32.6638 45.792 31.9342 45.7728C31.2046 45.7536 30.8974 45.672 30.6622 45.5856C30.475 45.5184 30.163 45.3312 29.947 45.1776C29.9422 45.2496 29.9518 45.3312 29.9806 45.4128C30.0334 45.5616 30.4606 45.84 30.8878 45.9552C31.315 46.0704 32.9038 46.0896 33.619 46.0224C34.3342 45.9552 34.7614 45.8688 34.9006 45.84C35.0398 45.8112 35.1694 45.672 35.1742 45.5328Z" fill="#DDDDDD"/>
<path d="M24.8401 45.0912C25.0753 45.1776 25.3825 45.2592 26.1121 45.2784C26.8417 45.2976 27.6241 45.072 27.7585 44.9664C27.8977 44.8608 28.1617 44.6304 28.3681 44.5824C28.5217 44.5488 29.0545 44.448 29.3233 44.4C29.2993 44.0064 29.2753 43.5696 29.2657 43.5216C29.2561 43.4352 29.2369 43.3968 29.2369 43.3968C29.2369 43.3968 29.1313 43.2816 28.9537 43.4112C28.7761 43.5408 28.3873 43.7808 28.3393 43.7904C28.2913 43.8 27.9121 43.5936 27.8449 43.5264C27.7777 43.4592 27.7921 43.3728 27.8689 43.2288C27.9409 43.0848 28.0657 42.8736 28.0753 42.8064C28.0849 42.744 27.4465 42.6624 27.4465 42.6624C27.3361 42.648 27.3265 42.6576 27.2449 42.72C27.1633 42.7824 25.7137 43.968 25.7137 43.968C25.3153 44.1936 24.4609 44.4048 24.3793 44.424C24.2977 44.4432 24.2017 44.4576 24.1585 44.5392C24.1393 44.5776 24.1249 44.6256 24.1201 44.6832C24.3361 44.8368 24.6529 45.024 24.8401 45.0912Z" fill="#8F8F8F"/>
<path d="M29.3568 45.0335C29.3568 44.9759 29.3424 44.6975 29.328 44.3951C29.0592 44.4431 28.5216 44.5439 28.3728 44.5775C28.1664 44.6255 27.9024 44.8607 27.7632 44.9615C27.624 45.0671 26.8464 45.2927 26.1168 45.2735C25.3872 45.2543 25.08 45.1727 24.8448 45.0863C24.6576 45.0191 24.3456 44.8319 24.1296 44.6783C24.1248 44.7503 24.1344 44.8319 24.1632 44.9135C24.216 45.0623 24.6432 45.3407 25.0704 45.4559C25.4976 45.5711 27.0864 45.5903 27.8016 45.5231C28.5168 45.4511 28.944 45.3695 29.0832 45.3407C29.2128 45.3071 29.3568 45.1727 29.3568 45.0335Z" fill="#DDDDDD"/>
<path opacity="0.1" d="M30.8547 30.9792L30.8499 30.9936C30.8067 31.2192 30.3027 33.9744 30.2163 34.7808L30.6243 28.7328L30.8547 30.9792Z" fill="#222222"/>
<path d="M35.6111 20.544C35.4815 22.7856 35.6831 24.2736 35.2079 24.5328C34.7327 24.792 33.0095 25.1808 31.3727 25.0944C29.1791 24.9792 28.4879 24.7488 28.1855 24.2304C27.8831 23.712 28.0271 20.76 28.0703 19.0368C28.1135 17.3136 28.0223 15.5136 28.6847 14.856C29.2463 14.2944 30.3983 13.5216 31.9919 13.5648C33.5855 13.608 34.8911 14.1408 35.4095 15.2304C35.4815 15.3792 35.5391 15.5856 35.5823 15.8304C35.7695 16.8816 35.7167 18.7248 35.6111 20.544Z" fill="#2D9C86"/>
<path d="M33.1872 13.6992C33.1872 13.6992 30.96 14.5824 30.96 32.3616C30.96 32.3616 34.4784 31.8384 35.5824 30.9264L36.1296 17.4288C36.1296 17.4288 36.0144 14.0112 33.1872 13.6992Z" fill="#C7C7C7"/>
<path opacity="0.1" d="M35.6835 19.0416C35.6451 20.1744 35.1459 21.2448 34.2915 21.9888C34.2867 21.9936 34.2819 21.9984 34.2771 22.0032C32.1939 23.8128 30.5379 24.0096 28.1235 23.0304C29.3139 22.9344 29.3715 22.992 29.7411 22.6032C30.9603 21.3168 32.1603 20.496 33.3795 19.2096L35.5827 15.8304C35.7171 16.5888 35.7267 17.7648 35.6835 19.0416Z" fill="#222222"/>
<path d="M30.2065 12.384C30.2065 12.384 30.2929 13.3632 30.1537 13.8912C30.0337 14.3616 29.2945 15.552 30.1297 15.5664C30.7057 15.576 30.4321 15.5808 31.9249 14.1888C31.9249 14.1888 32.5201 13.7472 32.4577 13.6848C32.2369 13.464 31.6369 12.72 31.9345 11.2848C32.2321 9.84963 30.2065 12.384 30.2065 12.384Z" fill="#FFB39A"/>
<path d="M28.5791 12.0433C28.5791 12.0433 28.6031 12.7537 28.6175 13.0273C28.6223 13.1041 28.6319 13.1809 28.6799 13.2385C28.8191 13.4209 29.7551 13.1713 29.8559 13.1473C29.8607 13.1473 29.8655 13.1425 29.8655 13.1425L30.3455 14.6977C30.3455 14.6977 32.4527 13.6849 32.4575 13.6897L32.3279 13.0225C32.1887 12.3457 32.8655 11.2321 32.8751 10.7281C32.8847 10.2193 32.7359 9.68645 32.3663 9.33605C31.9103 8.90405 31.2335 8.83685 30.6047 8.78885C30.2591 8.76485 29.6015 8.93765 29.3231 9.14885C29.1791 9.25445 29.0831 9.41285 29.0063 9.57125C28.8287 9.92645 28.7087 10.3153 28.6655 10.7089C28.6415 10.9153 28.5983 11.3041 28.5983 11.3041" fill="#FFB39A"/>
<path opacity="0.1" d="M31.1182 11.1264C31.2382 11.016 31.4974 10.8288 31.699 10.896C31.9294 10.9728 31.9582 11.2896 31.891 11.4624C31.7854 11.736 31.4542 12.2112 31.2142 12.168C30.9742 12.1248 31.027 11.7552 31.0414 11.5536C31.051 11.352 31.0702 11.1696 31.1182 11.1264Z" fill="#222222"/>
<path d="M30.8447 11.1744C30.8303 11.1696 30.8639 10.7616 30.4079 10.4448C30.3215 10.3824 30.5135 9.90241 30.5375 9.78241C30.5471 9.72001 30.5135 9.66241 30.4799 9.61921C30.3311 9.56641 30.1055 9.47521 30.0431 9.47041C29.9567 9.46081 29.5343 9.45601 29.4671 9.44641C29.4287 9.44161 29.0735 9.48001 29.0735 9.48001C29.0735 9.48001 29.0399 9.50401 29.0015 9.57121C28.9775 9.48481 28.7375 9.09121 28.9103 8.83201C29.0783 8.58241 29.5679 8.42881 30.3311 8.42401C31.3295 8.41921 32.6639 8.72161 32.9807 9.82561C33.3359 11.0448 32.4575 11.5392 32.4287 12.2784C32.0687 12.2256 31.7471 11.8176 31.7471 11.8176C31.7471 11.8176 32.0159 11.0256 31.7903 10.9104C31.5023 10.7664 31.1471 10.8192 31.0415 11.1648C30.9983 11.3568 30.9887 11.3424 31.0031 11.712L30.8447 11.1744Z" fill="#222222"/>
<path opacity="0.1" d="M29.856 13.1424C29.8608 13.1424 29.8656 13.1376 29.8656 13.1376C29.8656 13.1376 30.1008 13.896 30.192 14.184C30.3888 13.8768 30.9216 12.8304 30.9792 12.6912C31.0368 12.552 30.9984 12.2544 30.9936 12.0048C30.9792 12.1728 30.9456 12.4128 30.8928 12.4944C30.8304 12.6 30.5808 12.8688 29.856 13.1424Z" fill="#222222"/>
<path d="M31.0897 11.064C31.2049 10.9584 31.4497 10.7664 31.6417 10.8336C31.8625 10.9104 31.8865 11.2224 31.8241 11.4C31.7233 11.6736 31.4065 12.1488 31.1809 12.1056C30.9553 12.0576 31.0033 11.6928 31.0177 11.4912C31.0273 11.2896 31.0417 11.1072 31.0897 11.064Z" fill="#FFB39A"/>
<path d="M27.9985 21.5472C27.9985 21.5472 28.8673 14.688 29.7361 14.064C29.7361 14.064 28.5745 14.5968 28.1281 15.6192L27.9985 21.5472Z" fill="#C7C7C7"/>
<path d="M32.8706 25.0511H35.0258V27.1535C35.0258 27.5183 34.7282 27.8207 34.3634 27.8207H33.5378C33.173 27.8207 32.8706 27.5231 32.8706 27.1535V25.0511Z" fill="#D6D6D6"/>
<path d="M33.0675 14.856C33.0675 14.856 33.6963 18.8832 31.8723 19.8672C31.0563 20.304 27.8595 20.7168 26.5875 21.3504C26.5683 21.9312 26.8131 22.4592 27.2931 22.9392C27.2931 22.9392 30.1971 23.3472 32.9571 22.2528C35.7171 21.1584 35.5779 15.8256 35.5779 15.8256L33.0675 14.856Z" fill="#C7C7C7"/>
<path opacity="0.1" d="M26.5874 21.3456C26.5874 21.3456 27.6482 21.84 27.293 22.9344C27.293 22.9344 26.5922 22.44 26.5874 21.3456Z" fill="#222222"/>
<mask id="mask1_9673_126192" style="mask-type:luminance" maskUnits="userSpaceOnUse" x="23" y="22" width="3" height="2">
<path d="M25.4067 22.1375C25.3203 22.1759 25.1043 22.2815 24.7875 22.5983C24.7875 22.5983 24.5187 22.7327 24.3459 22.8095C24.3459 22.8095 23.8659 22.8623 23.7459 23.0015C23.7459 23.0015 23.6547 23.1695 23.8131 23.1983C23.8323 23.2031 23.8563 23.2031 23.8851 23.2031C23.8467 23.2127 23.8083 23.2367 23.7891 23.2703C23.7891 23.2703 23.7459 23.5199 24.1491 23.4479C24.1443 23.4479 24.1395 23.4479 24.1299 23.4479C24.1299 23.4479 24.1347 23.4479 24.1443 23.4479C24.1299 23.4575 24.1203 23.4767 24.1155 23.5151C24.1155 23.5151 24.1203 23.6063 24.4563 23.5775L24.8883 23.5967C24.8883 23.5967 24.9651 23.6687 25.0803 23.6495C25.0803 23.6495 25.1907 23.6543 25.3443 23.6303L25.4067 22.1375ZM25.3875 22.1087L25.3779 22.0895C25.3635 22.0847 25.3491 22.0847 25.3347 22.0847C25.2723 22.0847 25.2243 22.1279 25.1859 22.1567C25.1859 22.1567 25.1859 22.1567 25.1811 22.1615C25.2531 22.1375 25.3347 22.1183 25.3875 22.1087Z" fill="white"/>
</mask>
<g mask="url(#mask1_9673_126192)">
<path d="M21.7251 19.1039C21.7251 19.1039 23.1651 19.8863 25.4643 19.5455L25.2723 24.2687L21.7251 23.8991V19.1039Z" fill="#F8F8F8"/>
</g>
<path d="M27.0145 21.6624C27.2977 21.9648 27.4129 22.3248 27.3601 22.6368C27.1441 22.704 26.7169 22.8144 26.7169 22.8144C26.5537 23.016 26.0017 23.3472 26.0017 23.3472C25.6369 23.6736 25.0849 23.6496 25.0849 23.6496C24.9649 23.6736 24.8929 23.5968 24.8929 23.5968L24.4609 23.5776C24.1201 23.6064 24.1201 23.5152 24.1201 23.5152C24.1201 23.472 24.1345 23.4528 24.1489 23.4432C23.7457 23.5152 23.7889 23.2656 23.7889 23.2656C23.8081 23.2272 23.8465 23.208 23.8849 23.1984C23.6305 23.2128 23.7457 23.0016 23.7457 23.0016C23.8657 22.8624 24.3457 22.8096 24.3457 22.8096C24.5185 22.7328 24.7873 22.5984 24.7873 22.5984C25.2337 22.1472 25.4833 22.1232 25.4353 22.104C25.3873 22.0848 25.0129 22.2096 25.0129 22.2096C24.3169 22.3968 24.5137 21.9648 24.5137 21.9648C24.6721 21.816 25.0225 21.7968 25.0225 21.7968C25.9681 21.3312 26.4865 21.6576 26.4865 21.6576C26.5489 21.6816 26.8321 21.6768 27.0145 21.6624Z" fill="#FFCAB3"/>
<path opacity="0.1" d="M25.2001 22.8431C25.2001 22.8431 24.7921 23.0687 24.5137 23.1263C24.5137 23.1263 24.2161 23.2079 23.9761 23.1839L23.8081 23.1983C23.8081 23.1983 24.5713 23.1407 24.7681 22.9775C24.7777 22.9775 25.1089 22.9151 25.2001 22.8431Z" fill="#222222"/>
<path opacity="0.1" d="M24.1299 23.4528C24.1299 23.4528 24.4755 23.4816 24.6483 23.4144C24.6483 23.4144 25.1235 23.3232 25.2243 23.2416C25.2243 23.2416 24.7683 23.3424 24.6147 23.3424C24.6099 23.3424 24.2979 23.4432 24.1299 23.4528Z" fill="#222222"/>
<path opacity="0.1" d="M24.8882 23.6016C24.8882 23.6016 25.2626 23.5296 25.3634 23.424C25.3634 23.424 25.7522 23.3088 25.8194 23.328C25.8194 23.328 25.445 23.3376 25.277 23.3904C25.2818 23.3904 25.0946 23.5584 24.8882 23.6016Z" fill="#222222"/>
<mask id="mask2_9673_126192" style="mask-type:luminance" maskUnits="userSpaceOnUse" x="21" y="19" width="5" height="6">
<path d="M21.6289 19.0079V24.3647H25.5601V19.0079H21.6289ZM25.1857 22.1567C25.2241 22.1279 25.2721 22.0847 25.3345 22.0847C25.3489 22.0847 25.3633 22.0847 25.3777 22.0895L25.3873 22.1087C25.3345 22.1183 25.2529 22.1375 25.1857 22.1567C25.1857 22.1567 25.1809 22.1567 25.1857 22.1567ZM25.3489 23.6303C25.1953 23.6543 25.0849 23.6495 25.0849 23.6495C24.9649 23.6735 24.8929 23.5967 24.8929 23.5967L24.4609 23.5775C24.1201 23.6063 24.1201 23.5151 24.1201 23.5151C24.1201 23.4767 24.1345 23.4575 24.1489 23.4479C24.1393 23.4479 24.1345 23.4479 24.1345 23.4479C24.1393 23.4479 24.1441 23.4479 24.1537 23.4479C23.7505 23.5199 23.7937 23.2703 23.7937 23.2703C23.8129 23.2319 23.8513 23.2127 23.8897 23.2031C23.8609 23.2031 23.8417 23.2031 23.8177 23.1983C23.6593 23.1695 23.7505 23.0015 23.7505 23.0015C23.8705 22.8623 24.3505 22.8095 24.3505 22.8095C24.5233 22.7327 24.7921 22.5983 24.7921 22.5983C25.1089 22.2815 25.3249 22.1711 25.4065 22.1327L25.4113 22.1375L25.3489 23.6303Z" fill="white"/>
</mask>
<g mask="url(#mask2_9673_126192)">
<path d="M21.7251 19.1039C21.7251 19.1039 23.1651 19.8863 25.4643 19.5455L25.2723 24.2687L21.7251 23.8991V19.1039Z" fill="#F8F8F8"/>
</g>
<path d="M20.7165 23.4192C20.7165 23.4192 21.1197 22.9728 22.1373 23.16C22.1373 23.16 22.4733 23.0832 22.6605 23.1792C22.6605 23.1792 22.9677 23.5344 22.2573 23.544C22.2573 23.544 21.8733 23.5248 21.8301 23.5584C21.7869 23.5872 22.0317 23.5488 22.5741 23.8512C22.5741 23.8512 22.8621 23.9088 23.0493 23.9328C23.0493 23.9328 23.5149 23.856 23.6685 23.952C23.6685 23.952 23.8797 24.168 23.4765 24.192C23.4765 24.192 23.6301 24.144 23.6973 24.216C23.6973 24.216 23.8125 24.456 23.3565 24.4848C23.3565 24.4848 23.4285 24.4512 23.4525 24.5424C23.4525 24.5424 23.4717 24.6288 23.1453 24.6912L22.7421 24.8256C22.7421 24.8256 22.6893 24.9168 22.5741 24.9264C22.5741 24.9264 22.0605 25.0944 21.6237 24.8832C21.6237 24.8832 21.0141 24.7152 20.8077 24.5712C20.8077 24.5712 20.1789 24.4944 19.9149 24.5808C19.9149 24.5808 20.0013 24.2352 19.7949 23.6352C19.7997 23.6256 20.5917 23.5056 20.7165 23.4192Z" fill="#6F4535"/>
<path opacity="0.1" d="M22.2524 24.1872C22.2524 24.1872 22.6988 24.288 22.9772 24.2736C22.9772 24.2736 23.2796 24.2736 23.5004 24.1824L23.6588 24.1488C23.6588 24.1488 22.9244 24.2976 22.6892 24.2016C22.6892 24.2016 22.358 24.2304 22.2524 24.1872Z" fill="#222222"/>
<path opacity="0.1" d="M23.4285 24.4752C23.4285 24.4752 23.1117 24.5952 22.9293 24.576C22.9293 24.576 22.4541 24.6192 22.3389 24.5664C22.3389 24.5664 22.7997 24.5424 22.9437 24.4992C22.9437 24.504 23.2653 24.5136 23.4285 24.4752Z" fill="#222222"/>
<path opacity="0.1" d="M22.7467 24.8208C22.7467 24.8208 22.3723 24.8496 22.2475 24.7824C22.2475 24.7824 21.8539 24.7776 21.7915 24.816C21.7915 24.816 22.1467 24.7248 22.3195 24.7296C22.3195 24.7296 22.5403 24.8352 22.7467 24.8208Z" fill="#222222"/>
<path opacity="0.1" d="M20.2942 23.5392L20.1982 24.5232L20.635 24.552L20.4958 23.496L20.2942 23.5392Z" fill="#222222"/>
<path d="M20.4476 24.1777C20.438 24.4081 20.4044 24.6289 20.342 24.7825C20.342 24.7825 15.4076 25.2817 14.2844 24.5137C14.0684 24.3649 13.8764 24.0769 13.7132 23.7025C13.0124 22.1281 12.974 19.1617 12.9644 18.1681C12.9548 16.9393 13.742 16.6513 14.4524 16.2433C15.9068 15.4177 15.7916 18.4177 15.686 20.2129C15.5756 22.0081 15.71 22.5937 15.71 22.5937C15.71 22.5937 16.67 23.0353 18.2924 23.1217C19.9148 23.2081 20.414 23.2321 20.414 23.2321C20.414 23.2321 20.4716 23.7217 20.4476 24.1777Z" fill="#F5D970"/>
<path opacity="0.1" d="M20.448 24.1777C20.4384 24.4081 20.4048 24.6289 20.3424 24.7825C20.3424 24.7825 15.6 25.3201 14.2848 24.5137C14.0208 24.3505 13.5936 23.6113 13.416 22.8145C14.1696 24.4225 19.2912 24.2353 20.448 24.1777Z" fill="#222222"/>
</g>
<defs>
<clipPath id="clip0_9673_126192">
<rect width="48" height="48" fill="white"/>
</clipPath>
<clipPath id="clip1_9673_126192">
<rect width="48" height="48" fill="white"/>
</clipPath>
</defs>
</svg>
