<svg width="32" height="32" viewBox="0 0 32 32" fill="none" xmlns="http://www.w3.org/2000/svg">
<g clip-path="url(#clip0_16801_6846)">
<path d="M14.8458 24.4561L7.31659 17.4269C7.14159 17.2644 6.97492 17.0894 6.82075 16.9102H10.4458C11.3874 16.9102 12.2374 16.3436 12.5999 15.4727L13.0374 14.4227L15.0916 18.9852C15.2499 19.3394 15.5958 19.5686 15.9833 19.5727C16.3708 19.5769 16.7249 19.3644 16.8999 19.0186L18.6666 15.4811L18.7374 15.6227C19.1333 16.4144 19.9416 16.9144 20.8249 16.9144H25.1791C25.0249 17.0936 24.8582 17.2686 24.6833 17.4311L17.1541 24.4561C16.8416 24.7477 16.4291 24.9102 15.9999 24.9102C15.5708 24.9102 15.1583 24.7477 14.8458 24.4561ZM26.3208 14.9102H20.8208C20.6958 14.9102 20.5791 14.8394 20.5208 14.7269L19.5541 12.7977C19.3833 12.4602 19.0374 12.2436 18.6583 12.2436C18.2791 12.2436 17.9333 12.4561 17.7624 12.7977L16.0374 16.2477L13.9124 11.5019C13.7499 11.1394 13.3833 10.9061 12.9874 10.9144C12.5916 10.9227 12.2333 11.1602 12.0791 11.531L10.7541 14.7102C10.7041 14.8352 10.5791 14.9144 10.4458 14.9144H5.99992C5.89159 14.9144 5.79159 14.9311 5.69575 14.9602C5.45825 14.2936 5.33325 13.5852 5.33325 12.8644V12.6227C5.33325 9.71022 7.43742 7.22688 10.3083 6.74772C12.2083 6.43105 14.1416 7.05188 15.4999 8.41022L15.9999 8.91022L16.4999 8.41022C17.8583 7.05188 19.7916 6.43105 21.6916 6.74772C24.5624 7.22688 26.6666 9.71022 26.6666 12.6227V12.8644C26.6666 13.5686 26.5499 14.2602 26.3208 14.9102Z" fill="#F41C5E"/>
</g>
<defs>
<clipPath id="clip0_16801_6846">
<rect width="32" height="32" fill="white"/>
</clipPath>
</defs>
</svg>
