<svg width="24" height="24" viewBox="0 0 24 24" fill="none" xmlns="http://www.w3.org/2000/svg">
<path d="M3 12C3 9.2375 5.2375 7 8 7H10.5C10.775 7 11 7.225 11 7.5C11 7.775 10.775 8 10.5 8H8C5.79063 8 4 9.79063 4 12C4 14.2094 5.79063 16 8 16H10.5C10.775 16 11 16.225 11 16.5C11 16.775 10.775 17 10.5 17H8C5.2375 17 3 14.7625 3 12ZM21 12C21 14.7625 18.7625 17 16 17H13.5C13.225 17 13 16.775 13 16.5C13 16.225 13.225 16 13.5 16H16C18.2094 16 20 14.2094 20 12C20 9.79063 18.2094 8 16 8H13.5C13.225 8 13 7.775 13 7.5C13 7.225 13.225 7 13.5 7H16C18.7625 7 21 9.2375 21 12ZM7.75 11.5H16.25C16.525 11.5 16.75 11.725 16.75 12C16.75 12.275 16.525 12.5 16.25 12.5H7.75C7.475 12.5 7.25 12.275 7.25 12C7.25 11.725 7.475 11.5 7.75 11.5Z" fill="#1D1D1D"/>
</svg>
