<svg width="24" height="24" viewBox="0 0 24 24" fill="none" xmlns="http://www.w3.org/2000/svg">
<path d="M15.7417 12.5982C15.2293 12.3794 14.6357 12.5232 14.2826 12.9543L13.2453 14.2229C11.808 13.3886 10.6082 12.1889 9.774 10.7516L11.0394 9.71741C11.4706 9.36434 11.6174 8.7707 11.3956 8.25829L9.89585 4.75889C9.66152 4.20899 9.071 3.90279 8.48672 4.02777L4.98733 4.77764C4.41243 4.89949 4 5.40878 4 5.9993C4 13.3949 9.73338 19.4501 16.9977 19.9625C17.1383 19.9719 17.2821 19.9813 17.4258 19.9875C17.4258 19.9875 17.4258 19.9875 17.4289 19.9875C17.6195 19.9938 17.807 20 18.0007 20C18.5912 20 19.1005 19.5876 19.2224 19.0127L19.9722 15.5133C20.0972 14.929 19.791 14.3385 19.2411 14.1041L15.7417 12.6044V12.5982ZM17.9882 18.997C10.8144 18.9908 4.99983 13.1762 4.99983 5.9993C4.99983 5.88057 5.08106 5.78059 5.19667 5.75559L8.69606 5.00572C8.81167 4.98073 8.9304 5.04322 8.97726 5.15257L10.477 8.65197C10.5207 8.75507 10.4926 8.8738 10.4051 8.94254L9.13661 9.97986C8.75855 10.2892 8.65857 10.8297 8.9054 11.2546C9.82712 12.845 11.1519 14.1698 12.7391 15.0884C13.164 15.3352 13.7046 15.2352 14.0139 14.8571L15.0512 13.5886C15.1231 13.5011 15.2418 13.473 15.3418 13.5167L18.8412 15.0165C18.9505 15.0634 19.013 15.1821 18.988 15.2977L18.2382 18.7971C18.2132 18.9127 18.1101 18.9939 17.9944 18.9939C17.9913 18.9939 17.9882 18.9939 17.9851 18.9939L17.9882 18.997Z" fill="#1D1D1D"/>
</svg>
