<svg width="24" height="24" viewBox="0 0 24 24" fill="none" xmlns="http://www.w3.org/2000/svg">
<path d="M4.5 5.25C3.80859 5.25 3.25 5.80859 3.25 6.5V8.05859L10.8906 13.6602C11.5508 14.1445 12.4492 14.1445 13.1094 13.6602L20.75 8.05859V6.5C20.75 5.80859 20.1914 5.25 19.5 5.25H4.5ZM3.25 9.60938V16.5C3.25 17.1914 3.80859 17.75 4.5 17.75H19.5C20.1914 17.75 20.75 17.1914 20.75 16.5V9.60938L13.8477 14.668C12.7461 15.4727 11.25 15.4727 10.1523 14.668L3.25 9.60938ZM2 6.5C2 5.12109 3.12109 4 4.5 4H19.5C20.8789 4 22 5.12109 22 6.5V16.5C22 17.8789 20.8789 19 19.5 19H4.5C3.12109 19 2 17.8789 2 16.5V6.5Z" fill="#1D1D1D"/>
</svg>
