<svg width="24" height="24" viewBox="0 0 24 24" fill="none" xmlns="http://www.w3.org/2000/svg">
<path d="M8.375 4.6875V5.25H15.125V4.6875C15.125 4.37812 14.8719 4.125 14.5625 4.125H8.9375C8.62812 4.125 8.375 4.37812 8.375 4.6875ZM7.25 5.30625V4.6875C7.25 3.75586 8.00586 3 8.9375 3H14.5625C15.4941 3 16.25 3.75586 16.25 4.6875V5.30625C17.5332 5.56641 18.5 6.70195 18.5 8.0625V15.9375C18.5 17.298 17.5332 18.4336 16.25 18.6937V19.3125C16.25 20.2441 15.4941 21 14.5625 21H8.9375C8.00586 21 7.25 20.2441 7.25 19.3125V18.6937C5.9668 18.4336 5 17.298 5 15.9375V8.0625C5 6.70195 5.9668 5.56641 7.25 5.30625ZM8.375 19.3125C8.375 19.6219 8.62812 19.875 8.9375 19.875H14.5625C14.8719 19.875 15.125 19.6219 15.125 19.3125V18.75H8.375V19.3125ZM7.8125 6.375C6.88086 6.375 6.125 7.13086 6.125 8.0625V15.9375C6.125 16.8691 6.88086 17.625 7.8125 17.625H15.6875C16.6191 17.625 17.375 16.8691 17.375 15.9375V8.0625C17.375 7.13086 16.6191 6.375 15.6875 6.375H7.8125ZM8.9375 10.7801C8.9375 11.0543 9.04648 11.3145 9.23984 11.5078L11.75 14.018L14.2602 11.5078C14.4535 11.3145 14.5625 11.0543 14.5625 10.7801C14.5625 10.2105 14.102 9.75 13.5324 9.75C13.2582 9.75 12.998 9.85898 12.8047 10.0523L12.1473 10.7098C11.9293 10.9277 11.5707 10.9277 11.3527 10.7098L10.6953 10.0523C10.502 9.85898 10.2418 9.75 9.96758 9.75C9.39805 9.75 8.9375 10.2105 8.9375 10.7801ZM9.96758 8.625C10.5371 8.625 11.0855 8.85352 11.4898 9.2543L11.75 9.51445L12.0102 9.2543C12.4145 8.85 12.9629 8.625 13.5324 8.625C14.7207 8.625 15.6875 9.58828 15.6875 10.7801C15.6875 11.3496 15.459 11.898 15.0582 12.3023L12.1508 15.2098C11.9328 15.4277 11.5742 15.4277 11.3563 15.2098L8.4418 12.3023C8.04102 11.898 7.8125 11.3496 7.8125 10.7801C7.8125 9.5918 8.77578 8.625 9.96758 8.625Z" fill="#1D1D1D"/>
</svg>
