<svg width="360" height="167" viewBox="0 0 360 167" fill="none" xmlns="http://www.w3.org/2000/svg">
<mask id="mask0_23213_105110" style="mask-type:luminance" maskUnits="userSpaceOnUse" x="-100" y="-19" width="560" height="186">
<path d="M366.333 -19H-6.33334C-57.7879 -19 -99.5 22.6375 -99.5 74C-99.5 125.362 -57.7879 167 -6.33334 167H366.333C417.788 167 459.5 125.362 459.5 74C459.5 22.6375 417.788 -19 366.333 -19Z" fill="white"/>
</mask>
<g mask="url(#mask0_23213_105110)">
<path d="M539.313 -24.3652H-155.541V179.594H539.313V-24.3652Z" fill="white"/>
<path fill-rule="evenodd" clip-rule="evenodd" d="M282.123 76.3701H262.865V103.313H282.123V76.3701Z" fill="#EEF3F6"/>
<path fill-rule="evenodd" clip-rule="evenodd" d="M278.367 73.7334H266.62V98.0413H278.367V73.7334Z" fill="#EEF3F6"/>
<path fill-rule="evenodd" clip-rule="evenodd" d="M273.842 65.5342H271.147V89.8407H273.842V65.5342Z" fill="#EEF3F6"/>
<path fill-rule="evenodd" clip-rule="evenodd" d="M280.679 71.6318H264.31V74.2684H280.679V71.6318Z" fill="#EEF3F6"/>
<path fill-rule="evenodd" clip-rule="evenodd" d="M159.305 57.8262H136.734V100.183H159.305V57.8262Z" fill="#EEF3F6"/>
<path fill-rule="evenodd" clip-rule="evenodd" d="M157.568 54.9434H138.47V82.35H157.568V54.9434Z" fill="#EEF3F6"/>
<path fill-rule="evenodd" clip-rule="evenodd" d="M153.879 51.8975H142.159V80.6897H153.879V51.8975Z" fill="#EEF3F6"/>
<path fill-rule="evenodd" clip-rule="evenodd" d="M149.297 44.5947H146.741V71.0578H149.297V44.5947Z" fill="#EEF3F6"/>
<path fill-rule="evenodd" clip-rule="evenodd" d="M307.895 54.3848H284.768V107.448H307.895V54.3848Z" fill="#EEF3F6"/>
<path d="M289.531 70.9897V43.1602L303.134 48.0674V70.9897H289.531Z" fill="#EEF3F6"/>
<path fill-rule="evenodd" clip-rule="evenodd" d="M299.937 39.9268H292.728V57.5991H299.937V39.9268Z" fill="#EEF3F6"/>
<path fill-rule="evenodd" clip-rule="evenodd" d="M299.383 38.7246H293.282V50.1586H299.383V38.7246Z" fill="#EEF3F6"/>
<path fill-rule="evenodd" clip-rule="evenodd" d="M298.205 37.4531H294.46V49.4663H298.205V37.4531Z" fill="#EEF3F6"/>
<path fill-rule="evenodd" clip-rule="evenodd" d="M296.74 34.4062H295.925V45.4472H296.74V34.4062Z" fill="#EEF3F6"/>
<path d="M197.599 104.698V64.6036L205.181 59.3809H220.486V104.698H197.599Z" fill="#EEF3F6"/>
<path fill-rule="evenodd" clip-rule="evenodd" d="M82.1257 61.001H51.7031V109.014H82.1257V61.001Z" fill="#EEF3F6"/>
<path fill-rule="evenodd" clip-rule="evenodd" d="M67.6881 48.4209H51.7031V96.4343H67.6881V48.4209Z" fill="#EEF3F6"/>
<path fill-rule="evenodd" clip-rule="evenodd" d="M74.9076 56.5967H58.9226V104.611H74.9076V56.5967Z" fill="#EEF3F6"/>
<path fill-rule="evenodd" clip-rule="evenodd" d="M27.0739 54.2383H0.902588V102.63H27.0739V54.2383Z" fill="#EEF3F6"/>
<path fill-rule="evenodd" clip-rule="evenodd" d="M114.192 71.0967H87.4858V108.457H114.192V71.0967Z" fill="#EEF3F6"/>
<path fill-rule="evenodd" clip-rule="evenodd" d="M118.998 85.1514H92.293V112.766H118.998V85.1514Z" fill="#EEF3F6"/>
<path fill-rule="evenodd" clip-rule="evenodd" d="M37.6906 81.7021H10.9854V102.162H37.6906V81.7021Z" fill="#EEF3F6"/>
<path fill-rule="evenodd" clip-rule="evenodd" d="M336.043 63.6123H323.224V104.698H336.043V63.6123Z" fill="#EEF3F6"/>
<path fill-rule="evenodd" clip-rule="evenodd" d="M371.529 62.4941H354.081V113.306H371.529V62.4941Z" fill="#EEF3F6"/>
<path fill-rule="evenodd" clip-rule="evenodd" d="M351.504 84.4238H334.054V108.726H351.504V84.4238Z" fill="#EEF3F6"/>
<path d="M67.6882 73.6941H49.6232V97.3588H41.4843V71.5498L35.3286 74.5127V94.9398H27.9416V83.2203H-13.3511V74.17H-39.5346V90.3494H-74.5572V80.2412H-90.5831V84.455H-97.0956V73.932L-101.559 71.7837V86.0309H-117.248V80.2412H-124.887V99.3386H-131.441V88.6729H-143.618V118.66H67.6882V73.6941Z" fill="#DDE8ED"/>
<path d="M530.382 73.2351H508.157V102.352H498.142V70.5986L490.568 74.2427V99.3746H481.481V84.956H430.677V73.8212H398.463V93.7276H355.374V81.2915H335.655V86.4748H327.644V73.5288L322.15 70.8855V88.4152H302.848V81.2915H293.451V104.788H285.387V91.6649H270.406V128.56H530.382V73.2351Z" fill="#DDE8ED"/>
<path d="M450.948 108.539C456.418 90.808 393.103 96.9771 393.103 96.9771C393.103 96.9771 399.26 88.8555 362.556 87.6032C327.633 86.412 321.626 92.1882 321.626 92.1882C321.626 92.1882 304.155 83.5471 248.781 84.6865C193.408 85.826 167.298 99.6776 167.298 99.6776C167.298 99.6776 164.564 92.781 133.469 93.9939C97.032 95.4148 84.0806 108.434 84.0806 108.434L450.948 108.54V108.539Z" fill="#BACFDA"/>
<path d="M124.721 108.539C127.566 99.3129 94.6249 102.523 94.6249 102.523C94.6249 102.523 97.8274 98.2972 78.7325 97.6459C60.5626 97.0259 57.4378 100.031 57.4378 100.031C57.4378 100.031 48.3481 95.5343 19.5383 96.1271C-9.27151 96.7199 -22.8564 103.927 -22.8564 103.927C-22.8564 103.927 -24.2785 100.338 -40.4569 100.969C-59.4142 101.709 -66.1528 108.483 -66.1528 108.483L124.722 108.537L124.721 108.539Z" fill="#BACFDA"/>
<path d="M203.956 80.7894C203.956 80.7894 202.31 83.2506 201.601 86.0217C200.991 88.4121 200.73 89.5284 200.542 91.1859C200.122 87.3284 198.524 84.0949 198.524 84.0949C198.524 84.0949 200.487 94.0318 199.765 102.68C199.043 111.329 198.546 112.434 198.546 112.434L202.551 112.451C202.551 112.451 202.156 109.614 201.667 101.641C201.398 97.253 201.357 92.6775 202.028 88.4733C202.567 85.0889 203.956 80.7881 203.956 80.7881V80.7894Z" fill="#C3D6DF"/>
<path d="M194.223 83.9403C194.223 83.9403 187.547 87.2717 183.486 81.2141C179.425 75.1565 182.493 69.1995 184.027 67.7854C185.561 66.3713 187.365 66.3713 187.365 66.3713C187.365 66.3713 184.084 59.2028 187.845 54.2561C191.606 49.3094 195.756 50.7222 195.756 50.7222C195.756 50.7222 195.966 47.3147 198.015 45.8571C200.464 44.1139 203.944 44.8373 205.311 46.9992C206.799 49.3556 206.042 51.3286 206.042 51.3286C206.042 51.3286 209.56 48.5017 213.531 50.2177C217.501 51.9337 217.231 56.3759 216.78 57.79C216.329 59.2042 215.697 60.2131 215.697 60.2131C215.697 60.2131 219.937 60.2131 219.848 64.0502C219.758 67.8874 213.892 69.4008 213.892 69.4008C213.892 69.4008 216.87 74.8533 215.155 80.0012C213.441 85.1505 207.035 86.5945 202.163 84.1402C202.163 84.1402 198.193 88.4818 194.223 83.9376V83.9403Z" fill="#C3D6DF"/>
<path d="M249.21 68.3021C249.21 68.3021 251.507 71.7341 252.495 75.5984C253.346 78.9311 253.711 80.4894 253.973 82.7996C254.557 77.4205 256.785 72.9116 256.785 72.9116C256.785 72.9116 254.049 86.7673 255.056 98.8267C256.062 110.886 256.755 112.429 256.755 112.429L251.172 112.453C251.172 112.453 251.724 108.497 252.405 97.3786C252.779 91.2598 252.837 84.88 251.901 79.0168C251.147 74.2972 249.212 68.3008 249.212 68.3008L249.21 68.3021Z" fill="#C3D6DF"/>
<path d="M262.783 72.6952C262.783 72.6952 272.093 77.3414 277.755 68.8934C283.416 60.4468 279.139 52.1402 277 50.1686C274.861 48.197 272.345 48.197 272.345 48.197C272.345 48.197 276.921 38.2016 271.677 31.3024C266.432 24.4045 260.644 26.3747 260.644 26.3747C260.644 26.3747 260.353 21.6238 257.497 19.5897C254.082 17.1585 249.228 18.1674 247.324 21.1819C245.248 24.467 246.304 27.2191 246.304 27.2191C246.304 27.2191 241.397 23.2772 235.861 25.6704C230.325 28.0635 230.703 34.2584 231.332 36.2287C231.961 38.2003 232.841 39.6076 232.841 39.6076C232.841 39.6076 226.928 39.6076 227.053 44.9568C227.179 50.3059 235.357 52.4176 235.357 52.4176C235.357 52.4176 231.205 60.0198 233.596 67.1992C235.987 74.3786 244.918 76.3937 251.713 72.9712C251.713 72.9712 257.249 79.0248 262.784 72.6898L262.783 72.6952Z" fill="#C3D6DF"/>
<path d="M206.987 105.908C205.4 104.873 202.872 105.137 201.938 105.852C202.018 104.718 201.807 103.404 200.815 102.288C198.438 99.6095 193.89 101.83 193.89 101.83C193.89 101.83 191.155 95.0925 184.532 96.1952C177.908 97.2966 178.762 105.122 178.762 105.122C178.762 105.122 177.708 103.084 176.354 104.075C174.998 105.066 175.732 106.996 175.732 106.996C175.732 106.996 174.697 105.232 170.814 105.452C166.929 105.673 168.408 108.537 168.408 108.537H207.189C207.189 108.537 208.593 106.955 206.989 105.908H206.987Z" fill="#C3D6DF"/>
<path d="M53.6403 13.3961C53.4591 12.6959 53.3638 11.9616 53.3638 11.2056C53.3638 6.36363 57.295 2.43945 62.1456 2.43945C65.7268 2.43945 68.8053 4.58103 70.1715 7.64857C71.6182 6.5268 73.4353 5.85645 75.4091 5.85645C78.8989 5.85645 81.8984 7.945 83.2265 10.9378C84.4865 9.84998 86.1293 9.18915 87.926 9.18915C90.8356 9.18915 93.3379 10.9146 94.4698 13.3961H53.6389H53.6403Z" fill="#EEF3F6"/>
<path d="M351.513 42.8197C351.658 42.2582 351.735 41.668 351.735 41.0616C351.735 37.1755 348.581 34.0264 344.687 34.0264C341.813 34.0264 339.342 35.7451 338.246 38.2075C337.084 37.3074 335.626 36.7689 334.042 36.7689C331.241 36.7689 328.835 38.4455 327.768 40.8468C326.756 39.9738 325.439 39.4435 323.996 39.4435C321.661 39.4435 319.652 40.8291 318.744 42.8197H351.513Z" fill="#EEF3F6"/>
<path d="M539.463 108.1H-155.541V179.594H539.463V108.1Z" fill="#D8E4EA"/>
</g>
</svg>
