<svg width="90" height="90" viewBox="0 0 90 90" fill="none" xmlns="http://www.w3.org/2000/svg">
<g clip-path="url(#clip0_23594_11696)">
<g clip-path="url(#clip1_23594_11696)">
<path d="M44.9994 89.9988C69.8519 89.9988 89.9988 69.8519 89.9988 44.9994C89.9988 20.1469 69.8519 0 44.9994 0C20.1469 0 0 20.1469 0 44.9994C0 69.8519 20.1469 89.9988 44.9994 89.9988Z" fill="#EAEFF4"/>
<path opacity="0.2" d="M44.9994 89.9999C65.0079 89.9999 81.9644 76.9388 87.8145 58.8802C74.9373 51.9866 60.2236 48.0771 44.5965 48.0771C28.9693 48.0771 14.7792 51.8484 2.06592 58.5148C7.80474 76.7631 24.8561 89.9999 44.9994 89.9999Z" fill="#7CA5B9"/>
</g>
<path opacity="0.3" d="M45.3391 78.3987C55.8204 78.3987 64.3134 77.5876 64.3134 76.5914C64.3134 75.5953 55.8165 74.7842 45.3391 74.7842C34.8617 74.7842 26.3647 75.5953 26.3647 76.5914C26.3647 77.5876 34.8617 78.3987 45.3391 78.3987Z" fill="#7CA5B9"/>
<path d="M67.1405 20.5036C66.672 19.4562 65.2191 19.4247 64.6442 20.4209C61.4982 25.8702 55.1984 27.9689 49.5325 26.6184C46.9771 26.012 44.2091 25.9529 41.3427 26.6184C34.7239 28.15 29.4911 33.5364 28.0422 40.2024C27.5264 42.6829 27.5579 45.0926 27.9949 47.3488C20.1437 53.7273 18.0293 61.9053 17.9978 62.0471C17.6829 63.3503 18.49 64.6654 19.7933 64.9765C19.9823 65.0198 20.1752 65.0395 20.3603 65.0395C21.4588 65.0395 22.455 64.2874 22.7227 63.1732C22.7463 63.0708 24.2229 57.2907 29.7037 52.2311C32.7907 58.0979 38.8936 61.7911 45.4651 61.7911C47.7803 61.7911 49.9853 61.3344 52.013 60.5312C62.6598 57.0111 69.755 46.1282 69.755 33.1938C69.755 28.7918 68.8139 24.2205 67.1445 20.4996L67.1405 20.5036Z" fill="white"/>
<path d="M46.7454 54.5974C46.7454 54.5974 40.4968 47.7148 38.5281 45.3051C37.4965 44.1003 36.9177 42.5726 36.8941 40.9819C36.8311 39.4345 37.3784 37.9265 38.4218 36.7807C39.4652 35.6388 40.9181 34.9537 42.4655 34.8789C43.3002 34.8907 44.1231 35.0955 44.8673 35.4774C45.6115 35.8593 46.2532 36.4106 46.7454 37.0878C47.2376 36.4106 47.8833 35.8593 48.6236 35.4774C49.3677 35.0955 50.1907 34.8907 51.0254 34.8789C52.5728 34.9537 54.0257 35.6349 55.0691 36.7807C56.1125 37.9225 56.6637 39.4345 56.5968 40.9819C56.5732 42.5686 55.9944 44.1003 54.9628 45.3051C52.9941 47.7148 46.7454 54.5974 46.7454 54.5974Z" fill="#F41C5E"/>
<path opacity="0.03" d="M69.535 33.1899C69.535 28.7879 68.594 24.2166 66.9245 20.4958C66.456 19.4484 65.0031 19.4169 64.4282 20.4131C61.2822 25.8624 54.9824 27.9611 49.3165 26.6105C46.7611 26.0042 43.9931 25.9451 41.1267 26.6105C40.2369 26.8153 39.3706 27.0948 38.5359 27.4335C42.5166 29.3707 46.0721 32.056 49.0094 35.3043C49.6472 35.0366 50.3323 34.8909 51.0253 34.883C52.5727 34.9578 54.0256 35.639 55.069 36.7848C56.1124 37.9266 56.6637 39.4386 56.5967 40.986C56.5771 42.4468 56.0849 43.8603 55.199 45.0139C56.8212 48.8608 57.7622 53.062 57.8764 57.4719C65.0543 52.4478 69.535 43.4705 69.535 33.1939V33.1899Z" fill="#222222"/>
<path opacity="0.2" d="M56.6008 40.9819C56.6677 39.4345 56.1165 37.9265 55.0731 36.7807C54.0297 35.6388 52.5768 34.9537 51.0294 34.8789C50.3364 34.8868 49.6513 35.0325 49.0134 35.3002C51.5885 38.143 53.6911 41.4189 55.203 45.0059C56.085 43.8522 56.5811 42.4387 56.6008 40.9779V40.9819Z" fill="#333333"/>
</g>
<defs>
<clipPath id="clip0_23594_11696">
<rect width="90" height="90" fill="white"/>
</clipPath>
<clipPath id="clip1_23594_11696">
<rect width="90" height="90" fill="white"/>
</clipPath>
</defs>
</svg>
