<svg width="48" height="48" viewBox="0 0 48 48" fill="none" xmlns="http://www.w3.org/2000/svg">
<g clip-path="url(#clip0_6637_80271)">
<g clip-path="url(#clip1_6637_80271)">
<path d="M23.9997 47.9994C37.2544 47.9994 47.9994 37.2544 47.9994 23.9997C47.9994 10.745 37.2544 0 23.9997 0C10.745 0 0 10.745 0 23.9997C0 37.2544 10.745 47.9994 23.9997 47.9994Z" fill="#EAEFF4"/>
<path opacity="0.2" d="M23.9999 47.9999C34.6711 47.9999 43.7146 41.034 46.8346 31.4027C39.9668 27.7261 32.1195 25.6411 23.785 25.6411C15.4505 25.6411 7.88245 27.6524 1.10205 31.2079C4.16276 40.9403 13.2568 47.9999 23.9999 47.9999Z" fill="#7CA5B9"/>
</g>
<path opacity="0.3" d="M24.1651 41.07C28.5751 41.07 32.1451 40.65 32.1451 40.14C32.1451 39.63 28.5751 39.21 24.1651 39.21C19.7551 39.21 16.1851 39.63 16.1851 40.14C16.1851 40.65 19.7551 41.07 24.1651 41.07Z" fill="#7CA5B9"/>
<path d="M24.6149 11.6704H24.5849C24.5249 11.6704 24.4949 11.6704 24.4349 11.6704C24.3749 11.6704 24.3149 11.6704 24.2549 11.6704H24.2249C24.1649 11.6704 24.1349 11.6704 24.0749 11.6704C24.0449 11.6704 24.0149 11.6704 24.0149 11.6704C19.2449 11.6704 15.3449 15.5404 15.3449 20.3404C15.3149 25.1104 20.0849 27.4504 20.0849 28.0504C20.0849 28.6504 20.0849 31.9204 20.0849 31.9204H27.8549C27.8549 31.9204 27.8549 28.6504 27.8549 28.0504C27.8549 27.4504 32.6249 24.9304 32.6249 20.3104C32.6249 15.6904 29.0849 12.0004 24.6149 11.6704Z" fill="white"/>
<path d="M24.015 23.0103C24.225 23.0103 24.405 23.1903 24.405 23.4003V31.9503H23.625V23.4003C23.625 23.1903 23.805 23.0103 24.015 23.0103Z" fill="#F41C5E"/>
<path d="M27.7045 31.9204H20.2345C20.1445 31.9204 20.0845 31.9804 20.0845 32.0704V32.6104C20.0845 32.7004 20.1445 32.7604 20.2345 32.7604H27.7045C27.7945 32.7604 27.8545 32.7004 27.8545 32.6104V32.0704C27.8545 31.9804 27.7945 31.9204 27.7045 31.9204Z" fill="#8529A6"/>
<path d="M27.6745 33.0898H20.2645C20.1745 33.0898 20.0845 33.1798 20.0845 33.2698V33.7798C20.0845 33.8698 20.1745 33.9598 20.2645 33.9598H27.6745C27.7645 33.9598 27.8545 33.8698 27.8545 33.7798V33.2698C27.8545 33.1498 27.7945 33.0898 27.6745 33.0898Z" fill="#8529A6"/>
<path d="M27.0449 34.2305H20.8949C20.8349 34.2305 20.7749 34.2905 20.7749 34.3505V34.9505C20.7749 35.0105 20.8349 35.0705 20.8949 35.0705H27.0449C27.1049 35.0705 27.1649 35.0105 27.1649 34.9505V34.3505C27.1649 34.2905 27.1049 34.2305 27.0449 34.2305Z" fill="#8529A6"/>
<path d="M26.4148 35.3999H21.5248C21.4648 35.3999 21.4048 35.4599 21.4048 35.5199V36.1199C21.4048 36.1799 21.4648 36.2399 21.5248 36.2399H26.3848C26.4448 36.2399 26.5048 36.1799 26.5048 36.1199V35.5199C26.5348 35.4599 26.4748 35.3999 26.4148 35.3999Z" fill="#8529A6"/>
<path opacity="0.05" d="M24.6148 11.6704H24.5848C24.5248 11.6704 24.4948 11.6704 24.4348 11.6704C24.3748 11.6704 24.3148 11.6704 24.2548 11.6704H24.2248C24.1648 11.6704 24.1348 11.6704 24.0748 11.6704C24.0448 11.6704 24.0148 11.6704 24.0148 11.6704C23.5348 11.6704 23.0848 11.7004 22.6348 11.7904C25.6648 13.9204 30.4348 18.1804 31.3348 24.4204C32.0848 23.3104 32.6848 21.9604 32.6848 20.3104C32.6548 15.7504 29.0848 12.0004 24.6148 11.6704Z" fill="#333333"/>
<path d="M24.0148 6.93018C23.8348 6.93018 23.7148 7.08018 23.7148 7.23018V10.1402C23.7148 10.3202 23.8648 10.4402 24.0148 10.4402C24.1948 10.4402 24.3148 10.2902 24.3148 10.1402V7.23018C24.3148 7.08018 24.1948 6.93018 24.0148 6.93018Z" fill="#F41C5E"/>
<path d="M35.1749 11.9399C35.0549 11.8199 34.8449 11.7899 34.7249 11.9099L32.5649 13.8899C32.4449 14.0099 32.4149 14.1899 32.5349 14.3399C32.6549 14.4599 32.8349 14.4899 32.9849 14.3699L35.1449 12.3899C35.2949 12.2699 35.2949 12.0599 35.1749 11.9399Z" fill="#F41C5E"/>
<path d="M30.3149 8.37016C30.1649 8.31016 29.9849 8.37016 29.8949 8.52016L28.6949 11.1902C28.6349 11.3402 28.6949 11.5202 28.8449 11.6102C28.9949 11.6702 29.1749 11.6102 29.2649 11.4602L30.4649 8.79016C30.5549 8.64016 30.4649 8.46016 30.3149 8.37016Z" fill="#F41C5E"/>
<path d="M15.4648 14.3403C15.5848 14.2203 15.5848 14.0103 15.4348 13.8903L13.2748 11.9103C13.1548 11.7903 12.9448 11.7903 12.8248 11.9403C12.7048 12.0603 12.7048 12.2703 12.8548 12.3903L15.0148 14.3703C15.1348 14.4603 15.3448 14.4603 15.4648 14.3403Z" fill="#F41C5E"/>
<path d="M19.1549 11.6099C19.3049 11.5499 19.3949 11.3399 19.3049 11.1899L18.1049 8.51989C18.0449 8.36989 17.8349 8.27989 17.6849 8.36989C17.5349 8.42989 17.4449 8.63989 17.5349 8.78989L18.7349 11.4599C18.8249 11.6099 19.0049 11.6699 19.1549 11.6099Z" fill="#F41C5E"/>
</g>
<defs>
<clipPath id="clip0_6637_80271">
<rect width="48" height="48" fill="white"/>
</clipPath>
<clipPath id="clip1_6637_80271">
<rect width="48" height="48" fill="white"/>
</clipPath>
</defs>
</svg>
