<svg width="69" height="102" viewBox="0 0 69 102" fill="none" xmlns="http://www.w3.org/2000/svg">
<path opacity="0.15" d="M31.5013 101.294C47.1342 101.294 59.8072 100.82 59.8072 100.236C59.8072 99.6521 47.1342 99.1787 31.5013 99.1787C15.8683 99.1787 3.19531 99.6521 3.19531 100.236C3.19531 100.82 15.8683 101.294 31.5013 101.294Z" fill="#333333"/>
<path fill-rule="evenodd" clip-rule="evenodd" d="M6.9864 25.4867C5.48726 15.5958 12.2901 6.36235 22.181 4.86321L30.0333 3.67306C39.9242 2.17393 49.1577 8.97681 50.6568 18.8677L53.1612 35.3911L41.6697 37.1329L39.0719 19.9936C38.5863 16.7894 35.5951 14.5856 32.3909 15.0713L23.4609 16.4248C20.2567 16.9104 18.053 19.9016 18.5386 23.1058L21.1363 40.245L9.4908 42.0101L6.9864 25.4867ZM22.4759 6.8089C13.6596 8.14517 7.59583 16.3755 8.93209 25.1918L11.1416 39.7695L18.8957 38.5942L16.5929 23.4007C15.9444 19.1219 18.8873 15.1276 23.166 14.4791L32.096 13.1256C36.3748 12.4771 40.3691 15.42 41.0176 19.6987L43.3205 34.8923L50.9206 33.7403L48.7111 19.1626C47.3749 10.3463 39.1446 4.28249 30.3282 5.61876L22.4759 6.8089Z" fill="url(#paint0_linear_20045_7255)"/>
<path d="M19.3391 39.5222L11.281 40.7435L8.94601 25.338C7.55655 16.1708 13.8617 7.61288 23.029 6.22343L29.543 5.23611C38.7103 3.84666 47.3114 9.93866 48.7009 19.1059L51.2036 34.6643L43.4652 35.8654L40.9767 19.4467C40.2926 15.6619 36.6392 12.7 32.6418 13.3058L22.9914 14.7685C18.994 15.3744 16.2447 19.1061 16.8506 23.1034L19.3391 39.5222Z" fill="url(#paint1_linear_20045_7255)"/>
<path d="M56.5066 33.8889L5.23616 41.6598C2.68517 42.0464 0.930627 44.4279 1.31727 46.9788L7.17465 85.6243C7.56129 88.1752 9.94272 89.9298 12.4937 89.5431L63.7641 81.7722C66.3151 81.3856 68.0697 79.0042 67.683 76.4532L61.8256 37.8078C61.439 35.2568 59.0576 33.5022 56.5066 33.8889Z" fill="#F5BC22"/>
<path d="M29.733 69.9591L30.698 60.0087L37.4725 58.9819L41.4087 68.139C42.9864 71.8093 40.6686 75.9803 36.7186 76.579C32.7897 77.1745 29.3495 73.9144 29.733 69.9591Z" fill="#DE9D00"/>
<path d="M22.4772 87.8724L13.5472 89.2259L6.31299 41.4966L15.243 40.1431L22.4772 87.8724Z" fill="#FCDC6C"/>
<path d="M49.0843 38.9514C48.5504 36.2602 46.3174 35.5907 45.2676 35.5923L54.6595 34.1688C56.7003 33.8595 58.6054 35.2631 58.9147 37.3039L65.0521 77.7969C65.3615 79.8377 63.9578 81.7428 61.917 82.0521L52.5251 83.4757C54.9624 82.0982 55.2606 79.701 55.105 78.6746C53.3205 66.5548 49.6182 41.6425 49.0843 38.9514Z" fill="#DE9D00"/>
<ellipse cx="33.0806" cy="52.8745" rx="8.25339" ry="8.25339" transform="rotate(-8.61856 33.0806 52.8745)" fill="#DE9D00"/>
<path d="M47.1641 46.1918C39.2831 46.9175 38.6939 47.5055 37.9694 55.3865C37.2436 47.5055 36.6557 46.9164 28.7747 46.1918C36.6557 45.4661 37.2448 44.8781 37.9694 36.9971C38.6951 44.8781 39.2831 45.4672 47.1641 46.1918Z" fill="white"/>
<path d="M17.8726 13.1568C10.5155 13.8343 9.96547 14.3831 9.28908 21.7403C8.61158 14.3831 8.06271 13.8331 0.705566 13.1568C8.06271 12.4793 8.61269 11.9304 9.28908 4.57324C9.96658 11.9304 10.5155 12.4804 17.8726 13.1568Z" fill="white"/>
<defs>
<linearGradient id="paint0_linear_20045_7255" x1="11.0377" y1="12.5722" x2="33.4375" y2="28.258" gradientUnits="userSpaceOnUse">
<stop stop-color="#CDCDCD"/>
<stop offset="1" stop-color="#AAAAAA"/>
</linearGradient>
<linearGradient id="paint1_linear_20045_7255" x1="12.3705" y1="10.7337" x2="49.0706" y2="32.9881" gradientUnits="userSpaceOnUse">
<stop stop-color="#DCDCDC"/>
<stop offset="0.427083" stop-color="#D6D5D5"/>
<stop offset="1" stop-color="#CDCDCD"/>
</linearGradient>
</defs>
</svg>
