<svg width="60" height="60" viewBox="0 0 60 60" fill="none" xmlns="http://www.w3.org/2000/svg">
<rect width="60" height="60" rx="15" fill="#F41C5E"/>
<path d="M28.292 25.293V28H20.3965V25.293H28.292ZM21.5889 12.3594V28H18.0869V12.3594H21.5889ZM42.3428 19.8359V20.5342C42.3428 21.723 42.1781 22.79 41.8486 23.7354C41.5264 24.6807 41.0645 25.4863 40.4629 26.1523C39.8685 26.8184 39.1595 27.3304 38.3359 27.6885C37.5195 28.0394 36.6136 28.2148 35.6182 28.2148C34.6227 28.2148 33.7132 28.0394 32.8896 27.6885C32.0661 27.3304 31.3499 26.8184 30.7412 26.1523C30.1396 25.4863 29.6742 24.6807 29.3447 23.7354C29.0153 22.79 28.8506 21.723 28.8506 20.5342V19.8359C28.8506 18.6471 29.0153 17.5801 29.3447 16.6348C29.6742 15.6823 30.1361 14.873 30.7305 14.207C31.332 13.541 32.0446 13.0326 32.8682 12.6816C33.6917 12.3236 34.6012 12.1445 35.5967 12.1445C36.5921 12.1445 37.5016 12.3236 38.3252 12.6816C39.1488 13.0326 39.8577 13.541 40.4521 14.207C41.0537 14.873 41.5192 15.6823 41.8486 16.6348C42.1781 17.5801 42.3428 18.6471 42.3428 19.8359ZM38.8086 20.5342V19.8145C38.8086 19.0195 38.737 18.3177 38.5938 17.709C38.4505 17.0931 38.2428 16.5775 37.9707 16.1621C37.6986 15.7467 37.362 15.4352 36.9609 15.2275C36.5599 15.0127 36.1051 14.9053 35.5967 14.9053C35.0667 14.9053 34.6048 15.0127 34.2109 15.2275C33.8171 15.4352 33.484 15.7467 33.2119 16.1621C32.9469 16.5775 32.7428 17.0931 32.5996 17.709C32.4635 18.3177 32.3955 19.0195 32.3955 19.8145V20.5342C32.3955 21.3219 32.4635 22.0238 32.5996 22.6396C32.7428 23.2484 32.9505 23.764 33.2227 24.1865C33.4948 24.609 33.8278 24.9277 34.2217 25.1426C34.6227 25.3574 35.0882 25.4648 35.6182 25.4648C36.1266 25.4648 36.5778 25.3574 36.9717 25.1426C37.3727 24.9277 37.7093 24.609 37.9814 24.1865C38.2536 23.764 38.4577 23.2484 38.5938 22.6396C38.737 22.0238 38.8086 21.3219 38.8086 20.5342ZM28.7969 39.7393V46.0449C28.5391 46.3385 28.1452 46.6536 27.6152 46.9902C27.0924 47.3268 26.4229 47.6169 25.6064 47.8604C24.79 48.0967 23.8161 48.2148 22.6846 48.2148C21.6605 48.2148 20.7295 48.0501 19.8916 47.7207C19.0537 47.3841 18.334 46.8936 17.7324 46.249C17.1309 45.5973 16.6654 44.8024 16.3359 43.8643C16.0137 42.9261 15.8525 41.8519 15.8525 40.6416V39.7178C15.8525 38.5075 16.0137 37.4333 16.3359 36.4951C16.6582 35.557 17.113 34.7656 17.7002 34.1211C18.2874 33.4694 18.9857 32.9753 19.7949 32.6387C20.6042 32.3021 21.4993 32.1338 22.4805 32.1338C23.877 32.1338 25.0192 32.3594 25.9072 32.8105C26.7952 33.2546 27.4684 33.8704 27.9268 34.6582C28.3923 35.446 28.6787 36.3519 28.7861 37.376H25.4131C25.3415 36.8532 25.1982 36.402 24.9834 36.0225C24.7757 35.6429 24.4785 35.3529 24.0918 35.1523C23.7051 34.9447 23.2038 34.8408 22.5879 34.8408C22.0938 34.8408 21.6462 34.9447 21.2451 35.1523C20.8512 35.3529 20.5182 35.6572 20.2461 36.0654C19.974 36.4736 19.7663 36.9821 19.623 37.5908C19.4798 38.1924 19.4082 38.8942 19.4082 39.6963V40.6416C19.4082 41.4437 19.4798 42.1491 19.623 42.7578C19.7734 43.3665 19.9919 43.875 20.2783 44.2832C20.5648 44.6842 20.9264 44.9886 21.3633 45.1963C21.8073 45.404 22.3229 45.5078 22.9102 45.5078C23.3685 45.5078 23.7552 45.472 24.0703 45.4004C24.3854 45.3216 24.6432 45.2249 24.8438 45.1104C25.0443 44.9886 25.1947 44.8776 25.2949 44.7773V42.1777H22.5127V39.7393H28.7969ZM44.2334 39.8359V40.5342C44.2334 41.723 44.0687 42.79 43.7393 43.7354C43.417 44.6807 42.9551 45.4863 42.3535 46.1523C41.7591 46.8184 41.0501 47.3304 40.2266 47.6885C39.4102 48.0394 38.5042 48.2148 37.5088 48.2148C36.5133 48.2148 35.6038 48.0394 34.7803 47.6885C33.9567 47.3304 33.2406 46.8184 32.6318 46.1523C32.0303 45.4863 31.5648 44.6807 31.2354 43.7354C30.9059 42.79 30.7412 41.723 30.7412 40.5342V39.8359C30.7412 38.6471 30.9059 37.5801 31.2354 36.6348C31.5648 35.6823 32.0267 34.873 32.6211 34.207C33.2227 33.541 33.9352 33.0326 34.7588 32.6816C35.5824 32.3236 36.4919 32.1445 37.4873 32.1445C38.4827 32.1445 39.3923 32.3236 40.2158 32.6816C41.0394 33.0326 41.7484 33.541 42.3428 34.207C42.9443 34.873 43.4098 35.6823 43.7393 36.6348C44.0687 37.5801 44.2334 38.6471 44.2334 39.8359ZM40.6992 40.5342V39.8145C40.6992 39.0195 40.6276 38.3177 40.4844 37.709C40.3411 37.0931 40.1335 36.5775 39.8613 36.1621C39.5892 35.7467 39.2526 35.4352 38.8516 35.2275C38.4505 35.0127 37.9958 34.9053 37.4873 34.9053C36.9574 34.9053 36.4954 35.0127 36.1016 35.2275C35.7077 35.4352 35.3747 35.7467 35.1025 36.1621C34.8376 36.5775 34.6335 37.0931 34.4902 37.709C34.3542 38.3177 34.2861 39.0195 34.2861 39.8145V40.5342C34.2861 41.3219 34.3542 42.0238 34.4902 42.6396C34.6335 43.2484 34.8411 43.764 35.1133 44.1865C35.3854 44.609 35.7184 44.9277 36.1123 45.1426C36.5133 45.3574 36.9788 45.4648 37.5088 45.4648C38.0173 45.4648 38.4684 45.3574 38.8623 45.1426C39.2633 44.9277 39.5999 44.609 39.8721 44.1865C40.1442 43.764 40.3483 43.2484 40.4844 42.6396C40.6276 42.0238 40.6992 41.3219 40.6992 40.5342Z" fill="white"/>
</svg>
