<svg width="48" height="48" viewBox="0 0 48 48" fill="none" xmlns="http://www.w3.org/2000/svg">
<g clip-path="url(#clip0_20824_31056)">
<path d="M23.9997 43.9995C35.0453 43.9995 43.9995 35.0453 43.9995 23.9997C43.9995 12.9542 35.0453 4 23.9997 4C12.9542 4 4 12.9542 4 23.9997C4 35.0453 12.9542 43.9995 23.9997 43.9995Z" fill="#EAEFF4"/>
</g>
<path d="M26.4213 2.74291C26.1697 1.9787 25.4465 1.4538 24.6211 1.4538C23.7957 1.4538 23.0725 1.9787 22.821 2.74291L18.8433 15.0396H6.38367C5.57399 15.0396 4.85864 15.5414 4.59923 16.2901C4.33982 17.0389 4.59137 17.8648 5.2281 18.3512L15.5103 26.2093L11.5012 38.5601C11.2496 39.332 11.5405 40.1811 12.2165 40.6442C12.8926 41.1074 13.8044 41.0842 14.4569 40.5902L24.6211 32.8247L34.7853 40.5825C35.4378 41.0842 36.3418 41.1074 37.0257 40.6365C37.7096 40.1657 37.9926 39.332 37.7411 38.5523L33.732 26.2093L44.0141 18.3512C44.6509 17.8648 44.9024 17.0389 44.643 16.2901C44.3836 15.5414 43.6682 15.0396 42.8586 15.0396H30.3989L26.4213 2.74291Z" fill="#DE9D00"/>
<path d="M25.1789 1.92729C24.9273 1.16309 24.2041 0.638184 23.3787 0.638184C22.5533 0.638184 21.8301 1.16309 21.5785 1.92729L17.6009 14.224H5.14124C4.33156 14.224 3.61621 14.7257 3.3568 15.4745C3.09738 16.2233 3.34893 17.0492 3.98567 17.5355L14.2678 25.3937L10.2587 37.7444C10.0072 38.5164 10.298 39.3655 10.9741 39.8286C11.6501 40.2918 12.562 40.2686 13.2145 39.7746L23.3787 32.0091L33.5429 39.7669C34.1954 40.2686 35.0994 40.2918 35.7833 39.8209C36.4672 39.35 36.7502 38.5164 36.4986 37.7367L32.4896 25.3937L42.7717 17.5355C43.4084 17.0492 43.66 16.2233 43.4006 15.4745C43.1412 14.7257 42.4258 14.224 41.6161 14.224H29.1565L25.1789 1.92729Z" fill="#F5BC22"/>
<path fill-rule="evenodd" clip-rule="evenodd" d="M13.8628 26.6299L14.2637 25.395L3.98152 17.5369C3.34478 17.0506 3.09323 16.2246 3.35265 15.4759C3.61206 14.7271 4.32741 14.2253 5.13709 14.2253H17.5967L21.5744 1.92864C21.8259 1.16443 22.5491 0.639526 23.3745 0.639526C24.1999 0.639526 24.9231 1.16443 25.1747 1.92864L29.1523 14.2253H31.5612C28.0661 20.4806 21.6034 25.1286 13.8628 26.6299Z" fill="#FCDC6C"/>
<path d="M35.5833 13.6347C30.8854 14.0677 30.5342 14.4184 30.1023 19.12C29.6697 14.4184 29.3192 14.0669 24.6213 13.6347C29.3192 13.2017 29.6704 12.851 30.1023 8.14941C30.535 12.851 30.8854 13.2025 35.5833 13.6347Z" fill="white"/>
<path d="M16.8795 33.2206C12.8027 33.5964 12.4979 33.9007 12.1231 37.9808C11.7477 33.9007 11.4435 33.5957 7.3667 33.2206C11.4435 32.8449 11.7483 32.5405 12.1231 28.4605C12.4985 32.5405 12.8027 32.8455 16.8795 33.2206Z" fill="white"/>
<path opacity="0.15" d="M24.0506 48C30.1054 48 35.0138 47.8166 35.0138 47.5905C35.0138 47.3643 30.1054 47.1809 24.0506 47.1809C17.9958 47.1809 13.0874 47.3643 13.0874 47.5905C13.0874 47.8166 17.9958 48 24.0506 48Z" fill="#333333"/>
<defs>
<clipPath id="clip0_20824_31056">
<rect width="40" height="40" fill="white" transform="translate(4 4)"/>
</clipPath>
</defs>
</svg>
