<svg width="90" height="90" viewBox="0 0 90 90" fill="none" xmlns="http://www.w3.org/2000/svg">
<g clip-path="url(#clip0_23594_9216)">
<g clip-path="url(#clip1_23594_9216)">
<path d="M44.9994 89.9988C69.8519 89.9988 89.9988 69.8519 89.9988 44.9994C89.9988 20.1469 69.8519 0 44.9994 0C20.1469 0 0 20.1469 0 44.9994C0 69.8519 20.1469 89.9988 44.9994 89.9988Z" fill="#EAEFF4"/>
<path opacity="0.2" d="M44.9994 89.9999C65.0079 89.9999 81.9644 76.9388 87.8145 58.8802C74.9373 51.9866 60.2236 48.0771 44.5965 48.0771C28.9693 48.0771 14.7792 51.8484 2.06592 58.5148C7.80474 76.7631 24.8561 89.9999 44.9994 89.9999Z" fill="#7CA5B9"/>
</g>
<path d="M28.3144 36.1963H28.3132C27.8123 36.1963 27.4062 36.6024 27.4062 37.1033V41.0528C27.4062 41.5537 27.8123 41.9598 28.3132 41.9598H28.3144C28.8153 41.9598 29.2213 41.5537 29.2213 41.0528V37.1033C29.2213 36.6024 28.8153 36.1963 28.3144 36.1963Z" fill="#909090"/>
<path d="M61.4562 31.9548V58.6053C61.4562 67.7574 54.0367 75.1769 44.8846 75.1769C40.2441 75.1769 36.0495 73.27 33.0429 70.1961C30.1165 67.2081 28.313 63.118 28.313 58.6053V31.9548C28.313 27.9611 31.5507 24.7246 35.5443 24.7246H54.226C58.2197 24.7246 61.4562 27.9611 61.4562 31.9548Z" fill="white"/>
<path d="M53.1813 29.584H36.5911C34.4643 29.584 32.7402 31.3081 32.7402 33.4348V54.8386C32.7402 56.9653 34.4643 58.6894 36.5911 58.6894H53.1813C55.308 58.6894 57.0321 56.9653 57.0321 54.8386V33.4348C57.0321 31.3081 55.308 29.584 53.1813 29.584Z" fill="#4E4E4E"/>
<path d="M52.697 24.7246C52.697 25.8871 49.2851 26.8289 45.0777 26.8289C40.8704 26.8289 37.4585 25.8871 37.4585 24.7246H52.697Z" fill="#CCCCCC"/>
<path d="M57.0306 33.4348V49.0077L37.0228 58.6894H36.5896C34.4633 58.6894 32.7388 56.966 32.7388 54.8386V37.3995L48.8912 29.584H53.181C55.3073 29.584 57.0318 31.3073 57.0318 33.4348H57.0306Z" fill="#222222"/>
<path d="M56.0447 63.0452C54.8916 64.1356 52.6398 65.6151 49.8028 66.5081C49.7285 66.5314 49.6541 66.5546 49.5798 66.5767C48.1375 67.0098 46.5512 67.2885 44.8847 67.2885C43.2183 67.2885 41.6319 67.0098 40.1908 66.5767C40.1165 66.5546 40.0421 66.5314 39.9678 66.5081C37.1308 65.6151 34.8802 64.1368 33.7259 63.0452C33.093 62.4471 33.5331 61.3799 34.4041 61.3799H55.3654C56.2363 61.3799 56.6765 62.4471 56.0435 63.0452H56.0447Z" fill="#F41C5E"/>
<path d="M39.9088 61.2021V66.7113C39.8298 66.6869 39.7508 66.6625 39.6719 66.6381V61.2021H39.9088Z" fill="white"/>
<path d="M50.0992 61.2021V66.6381C50.0202 66.6625 49.9413 66.6869 49.8623 66.7113V61.2021H50.0992Z" fill="white"/>
<path d="M48.0682 25.3301C48.0682 25.6076 46.7304 25.8318 45.079 25.8318C43.4276 25.8318 42.0898 25.6065 42.0898 25.3301H48.0682Z" fill="#4E4E4E"/>
<path d="M48.0682 25.3298C48.0682 25.0523 46.7304 24.8281 45.079 24.8281C43.4276 24.8281 42.0898 25.0534 42.0898 25.3298H48.0682Z" fill="#4E4E4E"/>
<path d="M46.8206 12.1621H43.439V25.33H46.8206V12.1621Z" fill="#F41C5E"/>
<path d="M45.6352 12.1621H44.5215V15.6855H45.6352V12.1621Z" fill="white"/>
<path opacity="0.1" d="M61.4578 31.955V58.6054C61.4578 67.7576 54.0384 75.1771 44.8862 75.1771C40.2457 75.1771 36.0511 73.2702 33.0445 70.1963C32.774 69.9211 32.5138 69.6354 32.2642 69.3416C34.9758 71.3611 38.3377 72.5549 41.9784 72.5549C50.9772 72.5549 58.2724 65.2596 58.2724 56.2608V30.0574C58.2724 28.0693 57.456 26.2716 56.1403 24.9814C59.2061 25.8187 61.4578 28.6233 61.4578 31.955Z" fill="#333333"/>
<path opacity="0.3" d="M44.8849 80.2184C52.071 80.2184 57.896 79.6645 57.896 78.9793C57.896 78.2942 52.071 77.7402 44.8849 77.7402C37.6989 77.7402 31.875 78.2942 31.875 78.9793C31.875 79.6645 37.7 80.2184 44.8849 80.2184Z" fill="#7CA5B9"/>
</g>
<defs>
<clipPath id="clip0_23594_9216">
<rect width="90" height="90" fill="white"/>
</clipPath>
<clipPath id="clip1_23594_9216">
<rect width="90" height="90" fill="white"/>
</clipPath>
</defs>
</svg>
