<svg width="90" height="90" viewBox="0 0 90 90" fill="none" xmlns="http://www.w3.org/2000/svg">
<g clip-path="url(#clip0_23594_9776)">
<g clip-path="url(#clip1_23594_9776)">
<path d="M44.9994 89.9988C69.8519 89.9988 89.9988 69.8519 89.9988 44.9994C89.9988 20.1469 69.8519 0 44.9994 0C20.1469 0 0 20.1469 0 44.9994C0 69.8519 20.1469 89.9988 44.9994 89.9988Z" fill="#EAEFF4"/>
<path opacity="0.2" d="M44.9994 89.9999C65.0079 89.9999 81.9644 76.9388 87.8145 58.8802C74.9373 51.9866 60.2236 48.0771 44.5965 48.0771C28.9693 48.0771 14.7792 51.8484 2.06592 58.5148C7.80474 76.7631 24.8561 89.9999 44.9994 89.9999Z" fill="#7CA5B9"/>
</g>
<path d="M70.9484 39.3916H70.1292V52.4352H70.9484V39.3916Z" fill="#707070"/>
<path d="M55.0468 68.3381C47.9873 68.3381 42.2432 62.594 42.2432 55.5345C42.2432 49.8419 46.8742 45.2096 52.568 45.2096C57.1675 45.2096 60.9091 48.9513 60.9091 53.5507C60.9091 57.276 57.8791 60.306 54.1538 60.306V59.4868C57.4273 59.4868 60.0898 56.8242 60.0898 53.5507C60.0898 49.403 56.7157 46.0289 52.568 46.0289C47.3272 46.0289 43.0624 50.2925 43.0624 55.5345C43.0624 62.1423 48.439 67.5189 55.0468 67.5189C63.3633 67.5189 70.1291 60.7531 70.1291 52.4366C70.1291 41.9841 61.6253 33.4804 51.1729 33.4804V32.6611C62.0771 32.6611 70.9484 41.5324 70.9484 52.4366C70.9484 61.2048 63.8151 68.3381 55.0468 68.3381Z" fill="#707070"/>
<path d="M55.6249 56.9336H54.1889C53.5425 56.9336 53.0186 57.4576 53.0186 58.1039V60.4446C53.0186 61.091 53.5425 61.615 54.1889 61.615H55.6249C56.2713 61.615 56.7953 61.091 56.7953 60.4446V58.1039C56.7953 57.4576 56.2713 56.9336 55.6249 56.9336Z" fill="#F41C5E"/>
<path d="M53.9689 45.7373H21.1183C20.5999 45.7373 20.1797 46.1575 20.1797 46.6759V71.8736C20.1797 72.392 20.5999 72.8122 21.1183 72.8122H53.9689C54.4873 72.8122 54.9075 72.392 54.9075 71.8736V46.6759C54.9075 46.1575 54.4873 45.7373 53.9689 45.7373Z" fill="white"/>
<path d="M43.8535 46.6757V71.8722C43.8535 72.3883 43.4311 72.8108 42.9149 72.8108H21.1183C20.6022 72.8108 20.1797 72.3883 20.1797 71.8722V71.6592H41.672C42.1881 71.6592 42.6106 71.2367 42.6106 70.7206V47.8274C42.6106 47.3112 42.1881 46.8887 41.672 46.8887H20.1797V46.6769C20.1797 46.1608 20.6022 45.7383 21.1183 45.7383H42.9149C43.4311 45.7383 43.8535 46.1608 43.8535 46.6769V46.6757Z" fill="#F41C5E"/>
<path d="M54.9062 71.6592V71.8722C54.9062 72.3883 54.4837 72.8108 53.9676 72.8108H37.3393C36.8231 72.8108 36.4006 72.3883 36.4006 71.8722V71.6592H54.9062Z" fill="#F41C5E"/>
<path d="M54.9062 46.6759V46.8878H36.4006V46.6759C36.4006 46.1598 36.8231 45.7373 37.3393 45.7373H53.9676C54.4837 45.7373 54.9062 46.1598 54.9062 46.6759Z" fill="#F41C5E"/>
<path d="M33.0208 52.0811H31.2267C30.451 52.0811 29.8223 52.7098 29.8223 53.4855V65.0649C29.8223 65.8406 30.451 66.4693 31.2267 66.4693H33.0208C33.7965 66.4693 34.4253 65.8406 34.4253 65.0649V53.4855C34.4253 52.7098 33.7965 52.0811 33.0208 52.0811Z" fill="#F41C5E"/>
<path opacity="0.1" d="M43.8535 45.7373V72.811H46.7279L44.5908 45.7373H43.8535Z" fill="#333333"/>
<path d="M52.4522 31.166H51.9736C51.3272 31.166 50.8032 31.69 50.8032 32.3364V33.4903C50.8032 34.1367 51.3272 34.6607 51.9736 34.6607H52.4522C53.0986 34.6607 53.6226 34.1367 53.6226 33.4903V32.3364C53.6226 31.69 53.0986 31.166 52.4522 31.166Z" fill="#F41C5E"/>
<path d="M44.1872 40.8514C48.6199 40.8514 52.2134 37.2579 52.2134 32.8251C52.2134 28.3923 48.6199 24.7988 44.1872 24.7988C39.7544 24.7988 36.1609 28.3923 36.1609 32.8251C36.1609 37.2579 39.7544 40.8514 44.1872 40.8514Z" fill="#707070"/>
<path d="M44.1872 39.3915C47.814 39.3915 50.754 36.4514 50.754 32.8247C50.754 29.1979 47.814 26.2578 44.1872 26.2578C40.5604 26.2578 37.6204 29.1979 37.6204 32.8247C37.6204 36.4514 40.5604 39.3915 44.1872 39.3915Z" fill="white"/>
<path d="M44.1872 39.3915C47.814 39.3915 50.754 36.4514 50.754 32.8247C50.754 29.1979 47.814 26.2578 44.1872 26.2578C40.5604 26.2578 37.6204 29.1979 37.6204 32.8247C37.6204 36.4514 40.5604 39.3915 44.1872 39.3915Z" fill="white"/>
<path d="M44.1872 33.161C44.3727 33.161 44.5231 33.0107 44.5231 32.8251C44.5231 32.6396 44.3727 32.4893 44.1872 32.4893C44.0017 32.4893 43.8513 32.6396 43.8513 32.8251C43.8513 33.0107 44.0017 33.161 44.1872 33.161Z" fill="#383838"/>
<path d="M43.9473 27.9824C43.9497 28.021 43.9204 28.0538 43.883 28.0561C43.8443 28.0585 43.8116 28.0292 43.8092 27.9917L43.7753 27.4733C43.7729 27.4347 43.8022 27.4019 43.8396 27.3995C43.8783 27.3972 43.911 27.4265 43.9134 27.4639L43.9473 27.9824Z" fill="#383838"/>
<path d="M43.08 28.3334C43.0941 28.3849 43.0706 28.4352 43.0285 28.4469C42.9864 28.4586 42.9396 28.4259 42.9267 28.3744L42.7394 27.6745C42.7254 27.623 42.7488 27.5715 42.7909 27.561C42.8331 27.5493 42.8787 27.582 42.8928 27.6335L43.0788 28.3334H43.08Z" fill="#383838"/>
<path d="M44.8988 28.2474C44.8917 28.3 44.8508 28.3387 44.8075 28.3328C44.7642 28.3269 44.7337 28.279 44.7408 28.2263L44.8356 27.5089C44.8426 27.4562 44.8835 27.4176 44.9268 27.4234C44.9713 27.4293 45.0006 27.4761 44.9936 27.5299L44.8988 28.2474Z" fill="#383838"/>
<path d="M46.639 28.8773C46.6121 28.9229 46.5594 28.9428 46.522 28.9206C46.4834 28.8984 46.4752 28.8434 46.5021 28.7965L46.8684 28.1716C46.8953 28.1259 46.948 28.106 46.9854 28.1283C47.0241 28.1505 47.0322 28.2055 47.0053 28.2523L46.639 28.8773Z" fill="#383838"/>
<path d="M47.9815 30.1149C47.9394 30.1477 47.8832 30.1441 47.8563 30.1102C47.8294 30.0751 47.8423 30.0201 47.8856 29.9885L48.4637 29.5519C48.5059 29.5192 48.562 29.5227 48.589 29.5578C48.6159 29.5929 48.603 29.6479 48.5597 29.6795L47.9815 30.1161V30.1149Z" fill="#383838"/>
<path d="M48.7468 31.7668C48.6953 31.7809 48.645 31.7563 48.6333 31.7141C48.6228 31.6708 48.6556 31.6264 48.707 31.6123L49.4081 31.4297C49.4596 31.4157 49.5111 31.4403 49.5216 31.4824C49.5333 31.5257 49.5005 31.5702 49.4479 31.5842L48.7468 31.7656V31.7668Z" fill="#383838"/>
<path d="M48.8195 33.6014C48.7668 33.5944 48.7294 33.5523 48.7352 33.509C48.7411 33.4657 48.7891 33.4364 48.8417 33.4434L49.558 33.5452C49.6106 33.5523 49.6481 33.5944 49.6422 33.6377C49.6364 33.681 49.5884 33.7103 49.5357 33.7032L48.8183 33.6002L48.8195 33.6014Z" fill="#383838"/>
<path d="M48.1969 35.2933C48.1501 35.2664 48.1314 35.2137 48.1536 35.1763C48.1759 35.1377 48.2309 35.1295 48.2777 35.1564L48.9026 35.5227C48.9483 35.5496 48.9682 35.6023 48.9459 35.6397C48.9237 35.6784 48.8687 35.6865 48.8219 35.6596L48.1969 35.2933Z" fill="#383838"/>
<path d="M39.6883 34.0359C39.7398 34.0207 39.7902 34.0441 39.803 34.0862C39.8147 34.1284 39.7831 34.1752 39.7316 34.1892L39.0341 34.3823C38.9826 34.3964 38.9311 34.3741 38.9194 34.332C38.9077 34.2899 38.9393 34.2431 38.9908 34.229L39.6883 34.0359Z" fill="#383838"/>
<path d="M39.5819 32.2327C39.6345 32.2385 39.6732 32.2795 39.6685 32.3228C39.6638 32.3661 39.6158 32.3965 39.5632 32.3907L38.8446 32.3052C38.7919 32.2994 38.7533 32.2584 38.758 32.2151C38.7626 32.1706 38.8106 32.1414 38.8633 32.1472L39.5819 32.2338V32.2327Z" fill="#383838"/>
<path d="M40.1906 30.487C40.2374 30.5128 40.2573 30.5655 40.2351 30.6041C40.2128 30.6427 40.1578 30.6521 40.1122 30.6251L39.4825 30.267C39.4357 30.2413 39.4158 30.1886 39.4381 30.15C39.4603 30.1114 39.5153 30.102 39.5609 30.1277L40.1906 30.4859V30.487Z" fill="#383838"/>
<path d="M41.4006 29.134C41.4333 29.1761 41.4322 29.2323 41.3971 29.2592C41.362 29.2861 41.3069 29.2744 41.2754 29.2323L40.8306 28.6612C40.7978 28.619 40.799 28.5628 40.8341 28.5359C40.8692 28.509 40.9231 28.5207 40.957 28.5628L41.4017 29.134H41.4006Z" fill="#383838"/>
<path d="M45.835 28.259C45.8221 28.2953 45.7835 28.314 45.7472 28.3023C45.7109 28.2906 45.6922 28.2508 45.7039 28.2146L45.8713 27.723C45.883 27.6867 45.9228 27.6668 45.959 27.6797C45.9953 27.6926 46.0141 27.7312 46.0024 27.7675L45.835 28.259Z" fill="#383838"/>
<path d="M47.5123 29.271C47.4865 29.2991 47.4432 29.3014 47.4151 29.2769C47.387 29.2511 47.3847 29.2078 47.4093 29.1785L47.7557 28.7923C47.7814 28.7642 47.8248 28.7619 47.854 28.7865C47.8821 28.8122 47.8844 28.8555 47.8599 28.8848L47.5134 29.271H47.5123Z" fill="#383838"/>
<path d="M48.6405 30.8243C48.6066 30.8407 48.5645 30.8267 48.5481 30.7916C48.5317 30.7564 48.5457 30.7155 48.5808 30.6991L49.049 30.4756C49.0829 30.4592 49.1251 30.4732 49.1414 30.5083C49.1578 30.5434 49.1438 30.5844 49.1087 30.6008L48.6394 30.8243H48.6405Z" fill="#383838"/>
<path d="M49.0827 32.6663C49.0441 32.6687 49.0113 32.6394 49.0101 32.6008C49.0078 32.5622 49.0371 32.5294 49.0757 32.5282L49.5941 32.5001C49.6328 32.4978 49.6655 32.527 49.6667 32.5657C49.669 32.6043 49.6398 32.6359 49.6012 32.6382L49.0827 32.6663Z" fill="#383838"/>
<path d="M48.7644 34.6097C48.7281 34.5968 48.7106 34.557 48.7234 34.5208C48.7363 34.4845 48.7761 34.4669 48.8124 34.4798L49.3004 34.6577C49.3367 34.6706 49.3543 34.7104 49.3414 34.7466C49.3285 34.7829 49.2887 34.8005 49.2524 34.7876L48.7644 34.6097Z" fill="#383838"/>
<path d="M39.8101 35.0242C39.8441 35.0066 39.8862 35.0207 39.9037 35.0546C39.9213 35.0886 39.9073 35.1307 39.8733 35.1482L39.411 35.3835C39.3771 35.401 39.335 35.387 39.3174 35.3531C39.2998 35.3191 39.3139 35.277 39.3478 35.2594L39.8101 35.023V35.0242Z" fill="#383838"/>
<path d="M39.3174 33.1613C39.356 33.1589 39.3888 33.187 39.3911 33.2256C39.3935 33.2643 39.3654 33.297 39.3268 33.2994L38.8095 33.338C38.7708 33.3403 38.7381 33.3122 38.7357 33.2736C38.7334 33.235 38.7615 33.2022 38.8001 33.1999L39.3174 33.1613Z" fill="#383838"/>
<path d="M39.5726 31.2821C39.6088 31.2938 39.6287 31.3335 39.617 31.3698C39.6053 31.4061 39.5667 31.426 39.5293 31.4143L39.0354 31.2528C38.9991 31.2411 38.9792 31.2013 38.9909 31.165C39.0026 31.1287 39.0412 31.1088 39.0787 31.1205L39.5726 31.2821Z" fill="#383838"/>
<path d="M40.5463 29.615C40.5755 29.6396 40.5779 29.6841 40.5533 29.7122C40.5287 29.7414 40.4842 29.7438 40.4562 29.7192L40.0629 29.3798C40.0337 29.3552 40.0313 29.3107 40.0559 29.2826C40.0805 29.2534 40.1249 29.251 40.153 29.2756L40.5463 29.615Z" fill="#383838"/>
<path d="M42.1005 28.4486C42.1169 28.4825 42.1029 28.5246 42.0689 28.541C42.035 28.5574 41.9928 28.5434 41.9765 28.5094L41.7471 28.0436C41.7307 28.0097 41.7447 27.9676 41.7787 27.9512C41.8126 27.9348 41.8547 27.9488 41.8711 27.9828L42.1005 28.4486Z" fill="#383838"/>
<path d="M44.187 29.7363H44.1859C44.118 29.7363 44.063 29.7913 44.063 29.8592V34.0959C44.063 34.1638 44.118 34.2188 44.1859 34.2188H44.187C44.2549 34.2188 44.3099 34.1638 44.3099 34.0959V29.8592C44.3099 29.7913 44.2549 29.7363 44.187 29.7363Z" fill="#383838"/>
<path opacity="0.1" d="M49.1706 28.5494C48.0224 27.5663 46.5302 26.9729 44.9011 26.9729C41.2742 26.9729 38.3343 29.9128 38.3343 33.5397C38.3343 35.1735 38.93 36.6657 39.9178 37.815C38.511 36.6107 37.6204 34.8224 37.6204 32.8247C37.6204 29.1989 40.5603 26.2578 44.1872 26.2578C46.1803 26.2578 47.9674 27.1461 49.1706 28.5494Z" fill="#333333"/>
<path d="M70.9028 36.3535H70.176C69.5296 36.3535 69.0056 36.8775 69.0056 37.5239V38.9856C69.0056 39.632 69.5296 40.156 70.176 40.156H70.9028C71.5491 40.156 72.0731 39.632 72.0731 38.9856V37.5239C72.0731 36.8775 71.5491 36.3535 70.9028 36.3535Z" fill="#F41C5E"/>
<path d="M70.5388 38.8628C73.4603 38.8628 75.8288 35.5166 75.8288 31.3889C75.8288 27.2612 73.4603 23.915 70.5388 23.915C67.6172 23.915 65.2488 27.2612 65.2488 31.3889C65.2488 35.5166 67.6172 38.8628 70.5388 38.8628Z" fill="#707070"/>
<path d="M71.4574 23.1855H69.6211V24.3945H71.4574V23.1855Z" fill="#707070"/>
<path d="M70.5387 23.3285C71.0454 23.3285 71.4562 23.2646 71.4562 23.1857C71.4562 23.1069 71.0454 23.043 70.5387 23.043C70.0319 23.043 69.6211 23.1069 69.6211 23.1857C69.6211 23.2646 70.0319 23.3285 70.5387 23.3285Z" fill="#4E4E4E"/>
<path d="M70.5388 23.2804C70.8749 23.2804 71.1473 23.238 71.1473 23.1856C71.1473 23.1333 70.8749 23.0908 70.5388 23.0908C70.2026 23.0908 69.9302 23.1333 69.9302 23.1856C69.9302 23.238 70.2026 23.2804 70.5388 23.2804Z" fill="#222222"/>
<path opacity="0.3" d="M44.9432 79.2055C57.7012 79.2055 68.0436 78.6473 68.0436 77.9568C68.0436 77.2663 57.7012 76.708 44.9432 76.708C32.1852 76.708 21.8428 77.2663 21.8428 77.9568C21.8428 78.6473 32.1852 79.2055 44.9432 79.2055Z" fill="#7CA5B9"/>
</g>
<defs>
<clipPath id="clip0_23594_9776">
<rect width="90" height="90" fill="white"/>
</clipPath>
<clipPath id="clip1_23594_9776">
<rect width="90" height="90" fill="white"/>
</clipPath>
</defs>
</svg>
