<svg width="48" height="48" viewBox="0 0 48 48" fill="none" xmlns="http://www.w3.org/2000/svg">
<g clip-path="url(#clip0_9673_124898)">
<g clip-path="url(#clip1_9673_124898)">
<mask id="mask0_9673_124898" style="mask-type:luminance" maskUnits="userSpaceOnUse" x="0" y="0" width="48" height="48">
<path d="M24 48C37.2548 48 48 37.2548 48 24C48 10.7452 37.2548 0 24 0C10.7452 0 0 10.7452 0 24C0 37.2548 10.7452 48 24 48Z" fill="white"/>
</mask>
<g mask="url(#mask0_9673_124898)">
<path d="M93.0991 31.2333C93.0991 32.3252 93.0622 33.4071 92.9892 34.4802C92.9779 34.6383 92.9667 34.7969 92.9548 34.955C92.9473 35.0574 92.9386 35.1592 92.9298 35.2604C92.9223 35.3504 92.9148 35.4409 92.9061 35.5296C92.8986 35.6233 92.8898 35.7164 92.8798 35.8088C92.8736 35.8807 92.8661 35.9525 92.8586 36.0237C92.8499 36.1162 92.8399 36.2092 92.8299 36.3004C92.8211 36.3835 92.8124 36.4647 92.8024 36.5478C92.7911 36.6452 92.7799 36.7433 92.7693 36.8408C92.7455 37.0413 92.7212 37.2412 92.695 37.4404C92.68 37.5528 92.6656 37.6653 92.6494 37.7765C92.6469 37.794 92.6444 37.8108 92.6419 37.8283C92.6356 37.8777 92.6281 37.9276 92.6206 37.977C92.6081 38.0651 92.5956 38.1538 92.5825 38.2418C92.5494 38.4655 92.5144 38.6884 92.4776 38.9108C92.4345 39.1857 92.387 39.4599 92.3377 39.7335C92.3077 39.899 92.2771 40.0639 92.2465 40.2269C92.1959 40.4924 92.1428 40.7585 92.0859 41.0234C92.0091 41.3956 91.9266 41.7654 91.8398 42.1352C91.8361 42.1552 91.8323 42.1733 91.8273 42.1921C91.8236 42.2083 91.8198 42.2227 91.8148 42.2377C91.7817 42.3813 91.7467 42.5244 91.7111 42.668C91.6718 42.8298 91.6306 42.991 91.59 43.1503C91.5069 43.4695 91.4219 43.7874 91.3326 44.1035C91.2439 44.4239 91.1508 44.7425 91.0534 45.0604C91.019 45.1754 90.9828 45.289 90.9472 45.404C90.8816 45.6189 90.8123 45.8331 90.7417 46.0467C90.7098 46.1442 90.6774 46.241 90.6455 46.3384C90.6168 46.4228 90.5887 46.5077 90.5587 46.592C90.5156 46.7245 90.4694 46.8569 90.4213 46.9881C90.3807 47.108 90.3382 47.2267 90.2951 47.3441C90.2457 47.4865 90.1939 47.6271 90.1408 47.767C90.0789 47.9338 90.0171 48.0999 89.9528 48.2655C89.9253 48.3373 89.8984 48.4091 89.8684 48.4803C89.7891 48.6846 89.7092 48.8882 89.6261 49.09C89.5986 49.1606 89.5692 49.2324 89.5393 49.3024C89.4749 49.4604 89.4093 49.6191 89.3412 49.7758C89.2532 49.9851 89.1632 50.1925 89.0714 50.3992C89.0171 50.5229 88.9627 50.6466 88.9059 50.769C88.8909 50.8059 88.874 50.8421 88.8578 50.8777C88.8172 50.9683 88.7759 51.0582 88.7328 51.1469C88.6847 51.2544 88.6341 51.3618 88.5829 51.4686C88.4443 51.7628 88.3037 52.0558 88.1588 52.3462C88.0807 52.5018 88.0033 52.6579 87.9227 52.8135C87.8346 52.9865 87.7459 53.1583 87.6541 53.3301C87.5872 53.46 87.5179 53.5887 87.4486 53.7173C87.3855 53.836 87.3212 53.9535 87.2556 54.0709C87.1875 54.1971 87.1169 54.322 87.0463 54.4469C86.9845 54.5594 86.9214 54.6705 86.8558 54.7817C86.8052 54.8742 86.7521 54.966 86.6978 55.0578C86.6447 55.1515 86.5903 55.2446 86.5347 55.337C86.1699 55.9579 85.7902 56.5676 85.3973 57.1685C85.3192 57.2897 85.2405 57.4108 85.1586 57.5308C84.8938 57.9299 84.6221 58.3247 84.3435 58.7139C84.2804 58.8044 84.2161 58.8944 84.1517 58.9837C84.058 59.1149 83.9625 59.2448 83.8675 59.3741C83.6982 59.604 83.5277 59.8313 83.3534 60.0581C83.1223 60.3635 82.8849 60.6652 82.6451 60.9632C82.5745 61.0513 82.5052 61.1375 82.4333 61.2243C82.3453 61.333 82.2578 61.4404 82.1685 61.5472C82.0854 61.6472 82.003 61.7465 81.9199 61.8439C81.8605 61.9158 81.7999 61.9864 81.7406 62.0557C81.5413 62.2893 81.3402 62.5204 81.1372 62.749C80.7093 63.2313 80.2714 63.7047 79.8254 64.1689C79.7143 64.285 79.6018 64.4 79.4894 64.5149C79.3957 64.6105 79.3001 64.7067 79.2052 64.8016C78.9591 65.0477 78.7117 65.2913 78.4606 65.5312C77.7879 66.1752 77.0964 66.8011 76.3868 67.407C76.383 67.4095 76.3793 67.412 76.3756 67.4157C76.2669 67.5082 76.1569 67.6013 76.0464 67.6925C75.9502 67.7743 75.8533 67.8542 75.7559 67.9336C75.6647 68.0104 75.5704 68.0854 75.4779 68.1609C75.3593 68.2571 75.2406 68.3527 75.1206 68.4476C74.9757 68.5626 74.8302 68.6763 74.684 68.79C74.6159 68.843 74.5466 68.8961 74.4773 68.948C74.3992 69.0086 74.3217 69.0679 74.2437 69.1273C74.0962 69.2397 73.9482 69.3496 73.7983 69.4596C73.5284 69.6588 73.2567 69.8556 72.9831 70.0492C72.8919 70.1148 72.7989 70.1792 72.7064 70.2435C72.5865 70.3278 72.4653 70.4103 72.3441 70.4934C72.2354 70.5677 72.1267 70.642 72.0162 70.7157C71.9793 70.7407 71.9406 70.7651 71.9037 70.7901C71.7888 70.8669 71.6739 70.9437 71.5577 71.0187C71.4315 71.1018 71.3053 71.183 71.1792 71.2635C71.0442 71.3504 70.9081 71.4366 70.7725 71.5209C70.6713 71.5852 70.5695 71.6483 70.4683 71.7102C70.3571 71.7795 70.2447 71.8488 70.1322 71.9157C69.9936 72 69.8543 72.0837 69.7144 72.1668C69.6313 72.2149 69.5488 72.263 69.4658 72.3117C69.3827 72.361 69.299 72.4091 69.2147 72.4566C69.0772 72.5359 68.9404 72.6134 68.803 72.6902C68.6893 72.7558 68.5744 72.8189 68.4595 72.882C68.3283 72.9551 68.1984 73.0257 68.0672 73.0944C67.9585 73.155 67.8486 73.2131 67.738 73.2699C67.5156 73.3886 67.2914 73.5048 67.0665 73.6172C66.9728 73.6653 66.8797 73.7134 66.786 73.7596C66.6898 73.8077 66.5918 73.8558 66.4943 73.9045C66.4387 73.9314 66.3832 73.9589 66.3276 73.9857C66.2289 74.0338 66.1295 74.0813 66.0309 74.1282C65.9347 74.175 65.8391 74.2206 65.7429 74.2656C65.6873 74.2918 65.6317 74.3174 65.5761 74.3436C65.4868 74.3842 65.3981 74.4267 65.3088 74.4661C65.1726 74.5292 65.0358 74.591 64.8984 74.6516C64.7378 74.7234 64.5754 74.7946 64.4137 74.864C64.3974 74.8715 64.3805 74.879 64.3643 74.8852C64.2088 74.9533 64.0526 75.0189 63.8958 75.0845C63.8833 75.0895 63.8708 75.0957 63.859 75.0995C63.7378 75.1513 63.6166 75.2007 63.4942 75.2506C63.358 75.3062 63.2218 75.3618 63.085 75.4149C62.9195 75.4817 62.7521 75.5461 62.5853 75.6104C62.5666 75.6179 62.5485 75.6242 62.5297 75.6317C62.4148 75.676 62.2999 75.7197 62.1837 75.7628C62.0837 75.7997 61.9819 75.8372 61.8807 75.874C61.6421 75.9621 61.4023 76.0458 61.1624 76.1301C61.0574 76.1676 60.9506 76.2032 60.8457 76.2388C60.7689 76.265 60.6939 76.2894 60.6171 76.3156C60.5171 76.3494 60.4166 76.3825 60.3154 76.415C60.236 76.4412 60.1586 76.4668 60.0793 76.4918C59.9618 76.5293 59.8431 76.5674 59.7245 76.603C59.6982 76.6117 59.6714 76.6205 59.6451 76.628C59.5027 76.6723 59.3597 76.716 59.2173 76.7579C59.0542 76.8072 58.8906 76.8553 58.7275 76.9016C58.6001 76.9384 58.4727 76.9759 58.3453 77.0102C58.3022 77.0227 58.2584 77.034 58.2153 77.0459C58.0879 77.0815 57.9617 77.1152 57.8343 77.1483C57.6906 77.1864 57.5476 77.2251 57.4027 77.2607C57.2852 77.2913 57.1678 77.3213 57.0504 77.3494C56.9735 77.3694 56.8967 77.3875 56.8193 77.4063C56.7193 77.4313 56.6175 77.4544 56.5163 77.4793C56.4114 77.5043 56.3046 77.5287 56.1984 77.5524C56.0416 77.588 55.8829 77.623 55.7261 77.6574C55.5987 77.6855 55.4713 77.713 55.3426 77.7392C55.3326 77.7417 55.3226 77.7442 55.312 77.7454C55.134 77.7823 54.9547 77.8198 54.7754 77.8541C54.6024 77.8885 54.4269 77.921 54.2526 77.9541C54.024 77.9959 53.7941 78.0359 53.5636 78.074C53.4081 78.1009 53.2507 78.1271 53.0939 78.1521C52.9296 78.1783 52.7647 78.2039 52.6004 78.2277C52.4505 78.2502 52.3012 78.272 52.1513 78.2908C52.0151 78.3108 51.879 78.3289 51.7434 78.3464C51.631 78.3613 51.5185 78.3763 51.4061 78.3882C51.2318 78.4107 51.0576 78.4301 50.8833 78.45C50.6928 78.4713 50.5035 78.4906 50.313 78.5094C50.1618 78.5244 50.0113 78.5394 49.8601 78.5512C49.3916 78.5943 48.9194 78.6293 48.4466 78.6562C48.2748 78.6674 48.103 78.6762 47.9312 78.6843C47.1548 78.7224 46.3734 78.7411 45.5882 78.7411C45.3827 78.7411 45.1791 78.7399 44.9735 78.7374C20.7537 78.4307 0.899418 60 -1.64537 36.3835C-1.71471 35.7526 -1.7703 35.1174 -1.8134 34.4777C-1.88649 33.4046 -1.92334 32.3227 -1.92334 31.2308C-1.92334 28.3462 -1.66599 25.5216 -1.17377 22.7794C-1.01948 21.9199 -0.842085 21.0692 -0.642199 20.2271C4.32246 -0.705231 23.1379 -16.2788 45.5882 -16.2788C68.0385 -16.2788 87.1544 -0.454749 91.9335 20.7325C92.6962 24.1105 93.0985 27.6248 93.0985 31.2333H93.0991Z" fill="#EAEFF4"/>
<path d="M92.9885 34.4802C92.9773 34.6383 92.9661 34.7969 92.9542 34.955C92.9467 35.0574 92.938 35.1592 92.9292 35.2604C92.9217 35.3504 92.9142 35.4409 92.9055 35.5296C92.898 35.6233 92.8892 35.7164 92.8792 35.8088C92.873 35.8807 92.8655 35.9525 92.858 36.0237C92.8493 36.1162 92.8392 36.2092 92.8293 36.3004C92.8205 36.3835 92.8118 36.4647 92.8018 36.5478C92.7905 36.6452 92.7793 36.7433 92.7687 36.8407C92.7449 37.0413 92.7206 37.2411 92.6943 37.4404C92.6794 37.5528 92.665 37.6653 92.6487 37.7765C92.6275 37.9307 92.6056 38.0869 92.5819 38.2412C92.5632 38.3661 92.545 38.4911 92.5251 38.616C92.4857 38.8646 92.4445 39.1132 92.4026 39.3618C92.3814 39.4855 92.3595 39.6092 92.337 39.7328C92.3071 39.8984 92.2765 40.0633 92.2458 40.2263C92.2196 40.3625 92.194 40.4968 92.1665 40.6317C92.1397 40.7629 92.1134 40.8928 92.0847 41.0227H25.2105L78.4719 65.5237C78.4681 65.5262 78.4656 65.5287 78.4619 65.5324C77.9547 66.0184 77.4381 66.4919 76.9103 66.9547C76.626 67.2058 76.3387 67.452 76.0483 67.6943C75.9521 67.7762 75.8552 67.8561 75.7578 67.9354C75.6666 68.0123 75.5723 68.0872 75.4798 68.1628C75.3611 68.259 75.2425 68.3546 75.1225 68.4495C74.9776 68.5644 74.8321 68.6781 74.6859 68.7918C74.5397 68.9055 74.393 69.0179 74.2455 69.1298C74.0981 69.2422 73.9501 69.3521 73.8002 69.4621C73.5303 69.6613 73.2586 69.8581 72.985 70.0517C72.8938 70.1173 72.8007 70.1816 72.7083 70.246C72.5884 70.3303 72.4672 70.4128 72.346 70.4958C72.2373 70.5702 72.1286 70.6445 72.0181 70.7182C71.9812 70.7432 71.9425 70.7676 71.9056 70.7925C71.7907 70.8694 71.6758 70.9462 71.5596 71.0212C71.4334 71.1042 71.3072 71.1854 71.181 71.266C71.0461 71.3529 70.9099 71.4391 70.7744 71.5234C70.6732 71.5877 70.5714 71.6508 70.4702 71.7126C70.359 71.782 70.2466 71.8513 70.1341 71.9182C69.9955 72.0025 69.8562 72.0862 69.7163 72.1693C69.6332 72.2174 69.5507 72.2655 69.4676 72.3142C69.3846 72.3635 69.3009 72.4116 69.2165 72.4591C69.0791 72.5384 68.9423 72.6159 68.8049 72.6927C68.6912 72.7583 68.5763 72.8214 68.4613 72.8845C68.3302 72.9576 68.2002 73.0281 68.0691 73.0969C67.9604 73.1574 67.8504 73.2155 67.7399 73.2724C67.5175 73.3911 67.2933 73.5072 67.0684 73.6197C66.9747 73.6678 66.8816 73.7159 66.7879 73.7621C66.6917 73.8102 66.5937 73.8583 66.4962 73.907C66.4406 73.9339 66.385 73.9614 66.3294 73.9882C66.2307 74.0363 66.1314 74.0838 66.0327 74.1306C65.9365 74.1775 65.841 74.2231 65.7448 74.2681C65.6892 74.2943 65.6336 74.3199 65.578 74.3461C65.4887 74.3867 65.4 74.4292 65.3107 74.4686C65.1745 74.5317 65.0377 74.5935 64.9003 74.6541C64.7397 74.7259 64.5773 74.7971 64.4155 74.8665C64.3993 74.874 64.3824 74.8815 64.3662 74.8877C64.2107 74.9558 64.0545 75.0214 63.8977 75.087C63.8852 75.092 63.8727 75.0982 63.8609 75.102C63.7397 75.1538 63.6185 75.2032 63.4961 75.2531C63.3599 75.3087 63.2237 75.3643 63.0869 75.4174C62.9214 75.4842 62.754 75.5486 62.5872 75.6129C62.5685 75.6204 62.5504 75.6267 62.5316 75.6342C62.4167 75.6785 62.3018 75.7222 62.1856 75.7653C62.0856 75.8022 61.9838 75.8397 61.8826 75.8765C61.644 75.9646 61.4041 76.0483 61.1643 76.1326C61.0593 76.1701 60.9525 76.2057 60.8476 76.2413C60.7707 76.2675 60.6958 76.2919 60.619 76.3181C60.519 76.3519 60.4184 76.385 60.3173 76.4174C60.2379 76.4437 60.1605 76.4693 60.0811 76.4943C59.9637 76.5318 59.845 76.5699 59.7263 76.6055C59.7001 76.6142 59.6733 76.623 59.647 76.6305C59.5046 76.6748 59.3616 76.7185 59.2191 76.7604C59.0561 76.8097 58.8925 76.8578 58.7294 76.904C58.602 76.9409 58.4746 76.9784 58.3471 77.0127C58.304 77.0252 58.2603 77.0365 58.2172 77.0483C58.0898 77.0839 57.9636 77.1177 57.8362 77.1508C57.6925 77.1889 57.5495 77.2276 57.4045 77.2632C57.2871 77.2938 57.1697 77.3238 57.0523 77.3519C56.9754 77.3719 56.8986 77.39 56.8211 77.4088C56.7212 77.4338 56.6194 77.4569 56.5182 77.4818C56.4132 77.5068 56.3064 77.5312 56.2002 77.5549C56.0435 77.5905 55.8848 77.6255 55.728 77.6599C55.6006 77.688 55.4732 77.7155 55.3445 77.7417C55.3345 77.7442 55.3245 77.7467 55.3139 77.7479C55.1358 77.7848 54.9566 77.8223 54.7773 77.8566C54.6043 77.891 54.4288 77.9235 54.2545 77.9566C54.0259 77.9984 53.796 78.0384 53.5655 78.0765C53.41 78.1034 53.2526 78.1296 53.0958 78.1546C52.9315 78.1808 52.7666 78.2064 52.6023 78.2302C52.4524 78.2526 52.3031 78.2745 52.1532 78.2933C52.017 78.3132 51.8808 78.3314 51.7453 78.3488C51.6329 78.3638 51.5204 78.3788 51.408 78.3907C51.2337 78.4132 51.0594 78.4325 50.8852 78.4525C50.6946 78.4738 50.5054 78.4931 50.3149 78.5119C50.1637 78.5269 50.0132 78.5419 49.862 78.5537C49.3935 78.5968 48.9213 78.6318 48.4484 78.6587C48.2767 78.6699 48.1049 78.6787 47.9331 78.6868C47.1567 78.7249 46.3752 78.7436 45.5901 78.7436C45.3846 78.7436 45.1809 78.7424 44.9754 78.7399C20.1072 78.4244 -0.156846 59.0037 -1.81152 34.4802H92.9904H92.9885Z" fill="#EAEFF4"/>
<path opacity="0.2" fill-rule="evenodd" clip-rule="evenodd" d="M-1.81348 34.4801H92.9885C92.9772 34.6382 92.966 34.7968 92.9541 34.9549C92.9466 35.0573 92.9379 35.1591 92.9291 35.2603C92.9216 35.3503 92.9141 35.4408 92.9054 35.5295C92.8979 35.6232 92.8891 35.7163 92.8792 35.8088C92.8729 35.8806 92.8654 35.9524 92.8579 36.0236C92.8492 36.1161 92.8392 36.2092 92.8292 36.3004C92.8204 36.3834 92.8117 36.4646 92.8017 36.5477C92.7905 36.6452 92.7792 36.7432 92.7686 36.8407C92.7449 37.0412 92.7205 37.2411 92.6943 37.4403C92.6793 37.5528 92.6649 37.6652 92.6487 37.7764C92.6462 37.7939 92.6437 37.8107 92.6412 37.8282C92.6349 37.8776 92.6274 37.9275 92.6199 37.9769C92.6074 38.065 92.5949 38.1537 92.5818 38.2417C92.5487 38.4654 92.5137 38.6884 92.4769 38.9107L90.9709 38.9095H90.884L87.7446 38.9082H87.6603L84.5196 38.907H84.434L14.3591 38.8733L21.5694 42.1907L76.3755 67.4163C76.2668 67.5087 76.1569 67.6018 76.0463 67.693C75.9501 67.7748 75.8533 67.8548 75.7558 67.9341C75.6646 68.0109 75.5703 68.0859 75.4779 68.1615C75.3592 68.2577 75.2405 68.3532 75.1206 68.4482C74.9756 68.5631 74.8301 68.6768 74.6839 68.7905C74.6159 68.8436 74.5465 68.8967 74.4772 68.9485C74.3991 69.0091 74.3217 69.0685 74.2436 69.1278C74.0962 69.2402 73.9481 69.3502 73.7982 69.4601C73.5284 69.6594 73.2566 69.8561 72.983 70.0498C72.8918 70.1154 72.7988 70.1797 72.7063 70.244C72.5864 70.3284 72.4652 70.4108 72.344 70.4939C72.2354 70.5682 72.1267 70.6426 72.0161 70.7163C71.9792 70.7412 71.9405 70.7656 71.9037 70.7906C71.7887 70.8674 71.6738 70.9443 71.5576 71.0192C71.4314 71.1023 71.3053 71.1835 71.1791 71.2641C71.0442 71.3509 70.908 71.4371 70.7724 71.5214C70.6712 71.5858 70.5694 71.6488 70.4682 71.7107C70.357 71.78 70.2446 71.8494 70.1322 71.9162C69.9935 72.0005 69.8542 72.0842 69.7143 72.1673C69.6312 72.2154 69.5488 72.2635 69.4657 72.3122C69.3826 72.3616 69.2989 72.4097 69.2146 72.4571C69.0772 72.5365 68.9404 72.6139 68.8029 72.6908C68.6893 72.7563 68.5743 72.8194 68.4594 72.8825C68.3282 72.9556 68.1983 73.0262 68.0671 73.0949C67.9584 73.1555 67.8485 73.2136 67.7379 73.2704C67.5156 73.3891 67.2913 73.5053 67.0664 73.6177C66.9727 73.6658 66.8797 73.7139 66.786 73.7601C66.6898 73.8082 66.5917 73.8563 66.4943 73.9051C66.4387 73.9319 66.3831 73.9594 66.3275 73.9863C66.2288 74.0344 66.1295 74.0818 66.0308 74.1287C65.9346 74.1755 65.839 74.2211 65.7428 74.2661C65.6872 74.2923 65.6316 74.3179 65.576 74.3442C65.4867 74.3848 65.398 74.4273 65.3087 74.4666C65.1725 74.5297 65.0357 74.5915 64.8983 74.6521C64.7378 74.724 64.5754 74.7952 64.4136 74.8645C64.3973 74.872 64.3805 74.8795 64.3642 74.8857C64.2087 74.9538 64.0525 75.0194 63.8958 75.085C63.8833 75.09 63.8708 75.0963 63.8589 75.1C63.7377 75.1518 63.6165 75.2012 63.4941 75.2512C63.3579 75.3068 63.2218 75.3624 63.085 75.4154C62.9194 75.4823 62.752 75.5466 62.5853 75.611C62.5665 75.6185 62.5484 75.6247 62.5297 75.6322C62.4147 75.6765 62.2998 75.7203 62.1836 75.7634C62.0837 75.8002 61.9818 75.8377 61.8807 75.8746C61.642 75.9626 61.4022 76.0463 61.1623 76.1307C61.0574 76.1681 60.9506 76.2037 60.8456 76.2393C60.7688 76.2656 60.6938 76.2899 60.617 76.3162C60.5171 76.3499 60.4165 76.383 60.3153 76.4155C60.236 76.4417 60.1585 76.4673 60.0792 76.4923C59.9618 76.5298 59.8431 76.5679 59.7244 76.6035C59.6982 76.6123 59.6713 76.621 59.6451 76.6285C59.5026 76.6728 59.3596 76.7166 59.2172 76.7584C59.0542 76.8078 58.8905 76.8559 58.7275 76.9021C58.6 76.9389 58.4726 76.9764 58.3452 77.0108C58.3021 77.0233 58.2584 77.0345 58.2153 77.0464C58.0878 77.082 57.9617 77.1157 57.8342 77.1488C57.6906 77.1869 57.5475 77.2257 57.4026 77.2613C57.2852 77.2919 57.1677 77.3219 57.0503 77.35C56.9735 77.3699 56.8966 77.3881 56.8192 77.4068C56.7192 77.4318 56.6174 77.4549 56.5162 77.4799C56.4113 77.5049 56.3045 77.5292 56.1983 77.553C56.0415 77.5886 55.8828 77.6236 55.7261 77.6579C55.5986 77.686 55.4712 77.7135 55.3425 77.7397C55.3325 77.7422 55.3225 77.7447 55.3119 77.746C55.1339 77.7828 54.9546 77.8203 54.7754 77.8547C54.6023 77.889 54.4268 77.9215 54.2525 77.9546C54.0239 77.9965 53.794 78.0364 53.5635 78.0745C53.408 78.1014 53.2506 78.1276 53.0938 78.1526C52.9295 78.1789 52.7646 78.2045 52.6003 78.2282C52.4504 78.2507 52.3011 78.2726 52.1512 78.2913C52.0151 78.3113 51.8789 78.3294 51.7433 78.3469C51.6309 78.3619 51.5185 78.3769 51.406 78.3887C51.2318 78.4112 51.0575 78.4306 50.8832 78.4506C50.6927 78.4718 50.5034 78.4912 50.3129 78.5099C50.1617 78.5249 50.0112 78.5399 49.86 78.5518C49.3916 78.5949 48.9193 78.6299 48.4465 78.6567C48.2747 78.668 48.1029 78.6767 47.9311 78.6848C47.1547 78.7229 46.3733 78.7417 45.5881 78.7417C45.3826 78.7417 45.179 78.7404 44.9735 78.7379C20.7536 78.4312 0.899344 60.0005 -1.64545 36.3841C-1.71478 35.7532 -1.77038 35.1179 -1.81348 34.4783V34.4801Z" fill="#7CA5B9"/>
<g opacity="0.3">
<path fill-rule="evenodd" clip-rule="evenodd" d="M21.9641 25.1973C21.9641 25.2854 22.0035 25.3616 22.0653 25.4147L18.6985 34.4795H18.2881V20.6799H18.8703V19.7092H20.1102V18.6854H20.9965L22.1084 24.95C22.0216 24.9993 21.9635 25.0911 21.9635 25.1973H21.9641Z" fill="#7CA5B9"/>
<path fill-rule="evenodd" clip-rule="evenodd" d="M25.8696 20.6805V34.4801H19.0054L22.3528 25.4659C22.4603 25.424 22.5383 25.3197 22.5383 25.1973C22.5383 25.0948 22.4828 25.0043 22.4009 24.9549L21.2878 18.6854H21.6489V16.2274H22.5071V18.6854H24.0469V19.7092H25.2861V20.6799H25.8696V20.6805Z" fill="#7CA5B9"/>
<path fill-rule="evenodd" clip-rule="evenodd" d="M46.421 19.6835V34.48H38.7329V21.4418L41.2789 19.6835H46.421Z" fill="#7CA5B9"/>
</g>
<path d="M92.621 37.9781C92.6085 38.0662 92.596 38.1549 92.5829 38.243C92.5542 38.4373 92.5236 38.6315 92.4923 38.8239C92.4873 38.8526 92.4823 38.8795 92.4773 38.9082V38.912C92.4342 39.1868 92.3868 39.461 92.3374 39.7346C92.3074 39.9002 92.2768 40.0651 92.2462 40.2281C92.1956 40.4936 92.1425 40.7597 92.0857 41.0245C92.0089 41.3968 91.9264 41.7666 91.8396 42.1364C91.8358 42.1564 91.8321 42.1745 91.8271 42.1932H21.5711L76.3884 67.41C76.3847 67.4125 76.3809 67.415 76.3772 67.4188C76.2685 67.5112 76.1586 67.6043 76.048 67.6955C75.9518 67.7773 75.855 67.8573 75.7575 67.9366C75.6664 68.0134 75.572 68.0884 75.4796 68.164C75.3609 68.2602 75.2422 68.3557 75.1223 68.4507C74.9774 68.5656 74.8318 68.6793 74.6857 68.793C74.6176 68.8461 74.5482 68.8992 74.4789 68.951L9.29688 38.0525L92.621 37.9781Z" fill="#FAFAFA"/>
<g opacity="0.3">
<path d="M45.7084 38.9084H45.624V42.1928H45.7084V38.9084Z" fill="#7CA5B9"/>
<path d="M42.4837 38.9084H42.3975V42.1928H42.4837V38.9084Z" fill="#7CA5B9"/>
<path d="M39.2572 38.9084H39.1729V42.1928H39.2572V38.9084Z" fill="#7CA5B9"/>
<path d="M36.033 38.9084H35.9468V42.1928H36.033V38.9084Z" fill="#7CA5B9"/>
</g>
<g opacity="0.3">
<path d="M32.5467 38.9084H32.4624V42.1928H32.5467V38.9084Z" fill="#7CA5B9"/>
<path d="M29.3221 38.9084H29.2378V42.1928H29.3221V38.9084Z" fill="#7CA5B9"/>
<path d="M26.0979 38.9084H26.0117V42.1928H26.0979V38.9084Z" fill="#7CA5B9"/>
<path d="M22.8709 38.9084H22.7866V42.1928H22.8709V38.9084Z" fill="#7CA5B9"/>
<path d="M19.5605 38.9084V41.2559L19.6467 41.294V38.9084H19.5605Z" fill="#7CA5B9"/>
<path d="M16.3359 38.9084V39.7798L16.4203 39.8173V38.9084H16.3359Z" fill="#7CA5B9"/>
</g>
<g opacity="0.3">
<path d="M92.4923 38.824C92.4873 38.8527 92.4823 38.8796 92.4773 38.9083H14.4126L14.2246 38.824H92.4929H92.4923Z" fill="#7CA5B9"/>
</g>
<path opacity="0.2" d="M39.7954 35.3942C39.7954 35.7315 31.2771 36.0064 20.7688 36.0064C10.2604 36.0064 1.74219 35.7322 1.74219 35.3942C1.74219 35.2943 2.47802 35.2012 3.78477 35.1181V35.1675C3.78477 35.2468 3.84911 35.3112 3.92843 35.3112C4.00776 35.3112 4.0721 35.2468 4.0721 35.1675V35.1007C5.02156 35.0451 6.23461 34.9945 7.65692 34.9507V35.1669C7.65692 35.2462 7.72126 35.3105 7.80059 35.3105C7.87992 35.3105 7.94426 35.2462 7.94426 35.1669V34.942C8.74568 34.9183 9.60893 34.8964 10.5259 34.8777V35.1669C10.5259 35.2462 10.5902 35.3105 10.6696 35.3105C10.7489 35.3105 10.8132 35.2462 10.8132 35.1669V34.8714C11.7208 34.8539 12.6803 34.8383 13.681 34.8258V35.1675C13.681 35.2468 13.7453 35.3112 13.8246 35.3112C13.904 35.3112 13.9683 35.2468 13.9683 35.1675V34.8227C14.5992 34.8139 15.2457 34.8077 15.9072 34.8027C15.9072 34.8027 15.9068 34.8035 15.9059 34.8052V34.9439C15.9059 35.0994 17.1733 35.2256 18.7362 35.2256C20.2991 35.2256 21.5665 35.0994 21.5665 34.9439V34.8052C21.5665 34.7977 21.564 34.7902 21.5565 34.7827C23.2011 34.784 24.7915 34.794 26.3012 34.8077V35.1675C26.3012 35.2468 26.3656 35.3112 26.4449 35.3112C26.5242 35.3112 26.5886 35.2468 26.5886 35.1675V34.8102C27.583 34.8214 28.5412 34.8339 29.4563 34.8483V35.1675C29.4563 35.2468 29.5206 35.3112 29.6 35.3112C29.6793 35.3112 29.7436 35.2468 29.7436 35.1675V34.8545C30.6512 34.8695 31.5145 34.8877 32.3253 34.9076V35.1675C32.3253 35.2468 32.3896 35.3112 32.469 35.3112C32.5483 35.3112 32.6126 35.2468 32.6126 35.1675V34.9151C33.9718 34.9495 35.1787 34.9907 36.1974 35.0363V35.1675C36.1974 35.2468 36.2618 35.3112 36.3411 35.3112C36.4204 35.3112 36.4848 35.2468 36.4848 35.1675V35.0488C38.5755 35.1463 39.7985 35.2649 39.7985 35.3936L39.7954 35.3942Z" fill="#7CA5B9"/>
<g opacity="0.4">
<path opacity="0.2" d="M33.7564 12.3874C32.7695 12.2181 30.2684 12.3799 26.9478 12.6916C26.8909 12.6978 26.8354 12.7028 26.7773 12.7078C25.5224 12.8277 24.1519 12.9677 22.7052 13.1182H22.704C22.5397 13.1357 22.3748 13.1525 22.2093 13.17C21.8682 13.2056 21.5228 13.2419 21.1742 13.2787L19.4159 13.4642C19.0673 13.5011 18.7231 13.5386 18.3821 13.5742C18.2153 13.5929 18.0504 13.6098 17.8861 13.6273C16.4394 13.7816 15.0702 13.9315 13.8178 14.0783C13.761 14.0845 13.7029 14.092 13.646 14.0983C10.3373 14.4868 7.85872 14.8528 6.92676 15.2239C7.52891 14.7391 8.16605 14.2975 8.82255 13.8884C9.66581 13.3606 10.5391 12.8815 11.4167 12.413C12.3268 11.927 13.2394 11.4423 14.157 10.9725C15.5062 10.2823 16.8773 9.62707 18.2909 9.08301L21.3572 8.75757C22.8533 8.99368 24.3312 9.34723 25.7953 9.74075C26.7922 10.0094 27.7848 10.2923 28.7767 10.5765C29.7324 10.8507 30.6869 11.1368 31.6232 11.4766C32.3503 11.7402 33.0662 12.0382 33.7564 12.3867V12.3874Z" fill="#7CA5B9"/>
</g>
<g opacity="0.2">
<path d="M34.2173 12.6272C34.2185 12.6346 34.2185 12.6434 34.2173 12.6521C34.1767 13.0638 32.2203 13.7678 29.1596 14.4436C29.1127 14.4549 29.0659 14.4649 29.0172 14.4761C26.7503 14.9708 23.8963 15.4518 20.7731 15.7891C20.7594 15.7916 20.7456 15.7928 20.7325 15.7941L20.4877 15.8191V15.8203L20.374 15.8316C17.2333 16.1583 14.3274 16.2863 11.9975 16.2769C11.9482 16.2757 11.8988 16.2769 11.8501 16.2757C8.71941 16.2532 6.66184 15.9752 6.53066 15.5817C6.52816 15.573 6.52566 15.5655 6.52441 15.5567C6.65684 15.443 6.79051 15.3331 6.92606 15.2244C6.95479 15.2132 6.9854 15.2007 7.01726 15.1901C7.04911 15.1788 7.08284 15.1663 7.11845 15.1557C7.1528 15.1432 7.19028 15.132 7.22839 15.1214C7.26524 15.1089 7.30522 15.0976 7.34582 15.087C7.4239 15.0645 7.50635 15.0426 7.59568 15.0202C7.75621 14.9796 7.93423 14.9396 8.12975 14.899C8.1691 14.8902 8.21032 14.8815 8.25217 14.8746C8.49454 14.8253 8.76063 14.7772 9.04734 14.7272C9.10419 14.7172 9.16353 14.7072 9.22162 14.6972C9.28096 14.6872 9.3403 14.6772 9.40214 14.6672C9.6445 14.6291 9.9006 14.5892 10.1686 14.5498C10.2354 14.5386 10.3035 14.5286 10.3728 14.5198C10.5103 14.4998 10.6496 14.4805 10.7932 14.4592C10.9369 14.4392 11.0824 14.4199 11.2323 14.3999C11.3067 14.3899 11.3823 14.3799 11.4572 14.3699C11.6858 14.3399 11.9194 14.3093 12.1593 14.2793C12.2162 14.2718 12.273 14.2643 12.3311 14.2568C12.3679 14.2518 12.4067 14.2481 12.4435 14.2431C12.5397 14.2306 12.6378 14.2194 12.7365 14.2075C12.9145 14.185 13.0963 14.1631 13.2818 14.1407C13.4017 14.1269 13.5217 14.1138 13.6441 14.0988C13.7009 14.0926 13.759 14.0851 13.8159 14.0788C15.0683 13.932 16.4375 13.7821 17.8842 13.6278C18.0484 13.6103 18.2133 13.5935 18.3801 13.5747C18.7212 13.5391 19.0654 13.5017 19.4139 13.4648L19.7318 13.4317L20.2166 13.3811L20.3602 13.3649L20.8562 13.313L21.1729 13.2793C21.5214 13.2424 21.8669 13.2062 22.2079 13.1706C22.3735 13.1531 22.5384 13.1362 22.7026 13.1187H22.7039C24.1506 12.9682 25.521 12.8283 26.7759 12.7084C26.834 12.7034 26.8896 12.6984 26.9465 12.6921C27.022 12.6846 27.0964 12.6784 27.1701 12.6709C27.3188 12.6571 27.4655 12.644 27.6105 12.6315C27.6835 12.624 27.7554 12.6178 27.8266 12.6115C27.8972 12.6053 27.969 12.599 28.039 12.5928C28.1158 12.5853 28.1908 12.5791 28.2651 12.5728C28.3219 12.5678 28.3788 12.5628 28.4356 12.5578C28.4431 12.5566 28.4506 12.5566 28.4581 12.5553C28.558 12.5466 28.6586 12.5391 28.7573 12.5303C28.8241 12.5253 28.8922 12.5191 28.9578 12.5141C29.0484 12.5066 29.1371 12.4991 29.2252 12.4916C29.758 12.4498 30.2564 12.4148 30.7162 12.3867C30.7718 12.3829 30.8274 12.3804 30.883 12.3767C31.0697 12.3667 31.249 12.3567 31.4208 12.3498C31.5395 12.3436 31.6531 12.3398 31.7643 12.3348C31.9573 12.3286 32.1391 12.3236 32.3096 12.3211C32.344 12.3198 32.3777 12.3198 32.4108 12.3198C32.9905 12.3136 33.4459 12.3336 33.7538 12.3867C33.9094 12.4635 34.063 12.5441 34.2148 12.6265L34.2173 12.6272Z" fill="#7CA5B9"/>
<path d="M6.92682 15.2236C6.79065 15.3323 6.65698 15.4423 6.52518 15.556V15.5535C6.51268 15.4423 6.65385 15.3323 6.92682 15.223V15.2236Z" fill="#5E4531"/>
<path d="M34.2173 12.6247V12.6272C34.0655 12.5441 33.9119 12.4642 33.7563 12.3873C34.0468 12.4367 34.2067 12.5135 34.2173 12.6247Z" fill="#5E4531"/>
</g>
<g opacity="0.6">
<path d="M21.5363 8.7395L21.3571 8.75824L21.2003 8.77573L18.3894 9.07368L18.2907 9.08368L18.1127 9.10241C18.019 9.11241 17.9753 8.98748 18.0558 8.93688C18.465 8.67578 18.8791 8.43217 19.2995 8.2098C19.3314 8.19231 19.3651 8.17545 19.3969 8.15796L19.3732 8.16045L19.347 7.91684L19.51 7.89935L19.495 7.76318C19.3663 7.70509 19.2714 7.58266 19.2539 7.4315C19.2302 7.20787 19.3938 7.00612 19.6187 6.98238C19.8423 6.95739 20.0441 7.12105 20.0678 7.34592C20.0841 7.49646 20.0172 7.63638 19.9023 7.71946L19.916 7.85563L20.0791 7.83814L20.1053 8.083L20.0816 8.0855C20.1172 8.09549 20.1534 8.10549 20.189 8.11548C20.645 8.2454 21.1016 8.39719 21.5563 8.56585C21.6457 8.59958 21.6294 8.73013 21.5351 8.74012L21.5363 8.7395Z" fill="#7CA5B9"/>
</g>
<g opacity="0.6">
<path opacity="0.1" d="M29.4203 13.2837L29.2573 13.3012C29.2104 13.2656 29.1636 13.2281 29.1161 13.1925C28.2628 12.5485 27.3802 11.9451 26.4626 11.3973C25.1284 10.5983 23.7248 9.9381 22.2657 9.39778C21.7485 9.20601 21.2269 9.02674 20.7028 8.85247L18.9507 9.03799C18.4747 9.31845 18.0025 9.60204 17.5346 9.89749C16.2229 10.7308 14.9886 11.6709 13.8499 12.7315C13.0684 13.4586 12.3301 14.2338 11.6318 15.0414C11.5924 15.087 11.5549 15.1332 11.5156 15.1776L11.3525 15.1951C11.3906 15.1507 11.4294 15.1045 11.4675 15.0589C11.7504 14.7297 12.0415 14.4062 12.3382 14.0895C13.3633 12.9951 14.4726 11.9751 15.6682 11.0699C16.6464 10.3304 17.6839 9.68386 18.7371 9.06047L18.4528 9.09108C18.421 9.09483 18.3997 9.08608 18.3898 9.07359L21.2006 8.77563C21.1944 8.79063 21.1744 8.8025 21.1413 8.80624L20.9177 8.82998C22.0776 9.21851 23.2289 9.63389 24.3382 10.1517C25.6987 10.7864 26.9942 11.5528 28.2272 12.4086C28.5833 12.6572 28.9343 12.9133 29.281 13.175C29.3291 13.2106 29.3747 13.2481 29.4222 13.2837H29.4203Z" fill="#7CA5B9"/>
<path opacity="0.1" d="M13.6453 14.0982C12.9988 14.7822 12.3917 15.5043 11.8501 16.2745C11.8982 16.2757 11.9475 16.2745 11.9975 16.2757C12.2686 15.8885 12.5578 15.5143 12.8608 15.1495C13.1675 14.781 13.4879 14.4249 13.8177 14.0789C13.7609 14.0851 13.7028 14.0926 13.6459 14.0989L13.6453 14.0982ZM20.3608 13.3637L20.2172 13.3799L20.3321 14.4187L20.4202 14.5636L20.4758 14.4056C20.4377 14.0583 20.399 13.7116 20.3608 13.3643V13.3637ZM26.9464 12.6909C26.8896 12.6972 26.834 12.7022 26.7759 12.7072C27.1713 12.9783 27.5598 13.2587 27.9359 13.5554C28.3082 13.8471 28.6692 14.1538 29.0165 14.4755C29.0646 14.4643 29.1115 14.4543 29.1589 14.443C28.4687 13.8028 27.7235 13.2237 26.9464 12.6909Z" fill="#7CA5B9"/>
</g>
<path opacity="0.6" d="M22.5385 25.1977C22.5385 25.3201 22.4604 25.4238 22.353 25.4663L19.0055 34.4805L18.9893 34.5248C20.3579 34.5361 21.4485 34.646 21.5553 34.7834C21.5628 34.7909 21.5653 34.7984 21.5653 34.8059V34.9446C21.5653 35.1001 20.2979 35.2263 18.735 35.2263C17.1722 35.2263 15.9048 35.1001 15.9048 34.9446V34.8059C15.9048 34.8059 15.9048 34.8047 15.906 34.8034C15.9173 34.6498 17.1522 34.5267 18.6832 34.5242L18.6994 34.4811L22.0663 25.4163C22.0044 25.3632 21.9651 25.2864 21.9651 25.1989C21.9651 25.0927 22.0232 25.0009 22.11 24.9516L20.9981 18.687L20.4884 15.8205V15.8193L20.7333 15.7943C20.747 15.7931 20.7608 15.7918 20.7739 15.7893L21.288 18.6864L22.4011 24.9559C22.4829 25.0053 22.5385 25.0959 22.5385 25.1983V25.1977Z" fill="#7CA5B9"/>
<path opacity="0.6" d="M21.0543 15.179L20.672 15.2183L20.7732 15.788C20.7594 15.7905 20.7457 15.7918 20.7326 15.793L20.4877 15.818L20.3865 15.249L19.9318 15.2971L19.8725 14.7367L17.8867 13.6261C18.051 13.6086 18.2159 13.5905 18.3827 13.573L20.0492 14.5056L19.4158 13.4631L19.7338 13.43L20.3334 14.4182L20.4215 14.5631L20.4771 14.4051L20.8581 13.3119L21.1748 13.2782L20.7744 14.4294L22.2099 13.1695C22.3754 13.152 22.5403 13.1352 22.7046 13.1177L20.9956 14.6187L21.0549 15.179H21.0543Z" fill="#7CA5B9"/>
<path opacity="0.3" d="M7.65658 29.8743V30.6264H4.41406V28.6663H6.53597C7.15437 28.6663 7.65595 29.2078 7.65595 29.8743H7.65658Z" fill="#7CA5B9"/>
<path opacity="0.3" d="M11.626 25.6167V30.6257H7.94378V29.8737C7.94378 29.0491 7.31164 28.3789 6.53646 28.3789H4.41455V25.1295H11.1351C11.4037 25.1295 11.626 25.3481 11.626 25.6167Z" fill="#7CA5B9"/>
<path d="M7.65573 29.8741V30.6261H5.70185C5.49134 30.3257 5.33206 29.8778 5.30957 28.666H6.53512C7.15351 28.666 7.6551 29.2076 7.6551 29.8741H7.65573Z" fill="white"/>
<path d="M12.2288 30.5101C12.2213 30.5532 12.2113 30.5913 12.1988 30.6262H7.94249V29.8742C7.94249 29.0497 7.31036 28.3794 6.53518 28.3794H5.30713C5.30713 27.8204 5.33212 27.117 5.38771 26.2244C5.59696 26.2244 5.84245 26.295 5.99111 26.3368C6.22723 26.4012 6.46834 26.4668 6.70445 26.5223C7.37719 26.6791 8.05368 26.8003 8.74079 26.8834C8.84198 26.8971 8.94504 26.9071 9.04624 26.8971C9.14368 26.8934 9.24175 26.8653 9.3292 26.8378C9.85327 26.671 10.3174 26.3643 10.8215 26.1601C11.0969 26.0526 11.3893 25.8977 11.6241 26.0251C11.6735 26.052 11.7203 26.0907 11.7641 26.1463C11.9914 26.433 12.0882 26.8091 12.162 27.1614C12.2475 27.563 12.3044 27.9703 12.3312 28.3794C12.34 28.475 12.345 28.5712 12.3475 28.6661C12.3725 29.282 12.3325 29.9004 12.2275 30.5101H12.2288Z" fill="white"/>
<path opacity="0.2" d="M5.7023 30.6261H5.15698C5.06891 29.9746 5.00707 29.3219 4.97021 28.666H5.31002C5.33251 29.8778 5.49179 30.3257 5.7023 30.6261Z" fill="#7CA5B9"/>
<path opacity="0.3" d="M14.3486 31.2059V31.432C14.3486 31.6831 14.1893 31.8955 13.9663 31.9761C13.9045 31.9998 13.8376 32.0117 13.7683 32.0117H7.94287V32.0055C8.08154 32.0042 8.16274 32.003 8.16524 32.0017C8.27268 31.9561 8.35576 31.868 8.39761 31.7606C8.44821 31.6219 8.42947 31.4601 8.42947 31.3152C8.42447 31.1716 8.42947 31.0185 8.39761 30.8749C8.39261 30.8511 8.38887 30.833 8.37387 30.8143C8.31828 30.6943 8.18835 30.625 8.18835 30.625H13.7677C13.837 30.625 13.9038 30.6375 13.9657 30.6606C14.188 30.7412 14.348 30.9536 14.348 31.2047L14.3486 31.2059Z" fill="#7CA5B9"/>
<path opacity="0.2" d="M4.41415 25.1295V28.3789H3.78076L3.78326 25.6167C3.78326 25.3481 4.00188 25.1295 4.27548 25.1295H4.41415Z" fill="#7CA5B9"/>
<path opacity="0.2" d="M7.65631 30.6264V32.0075C7.62196 32.0075 7.58698 32.0075 7.55012 32.0087C6.78494 32.0112 5.47631 32.0125 4.6218 32.0125H3.78853L3.78478 31.4191L3.77979 30.6264L3.78103 28.6663H4.41442V30.6264H7.65694H7.65631Z" fill="#7CA5B9"/>
<path opacity="0.2" d="M8.39859 31.7613C8.35674 31.8688 8.27366 31.9568 8.16622 32.0024C8.16372 32.0037 8.08189 32.0049 7.94385 32.0062V30.6263H8.18996C8.18996 30.6263 8.31988 30.6957 8.37548 30.8156C8.39047 30.8344 8.39422 30.8525 8.39921 30.8762C8.43107 31.0192 8.4267 31.1729 8.43107 31.3166C8.43107 31.4615 8.44981 31.6233 8.39921 31.7619L8.39859 31.7613Z" fill="#7CA5B9"/>
<g opacity="0.6">
<path d="M13.9662 29.8743V30.662C13.9044 30.6382 13.8376 30.6264 13.7682 30.6264H13.6789V29.8743C13.6789 29.2078 13.1767 28.6662 12.5583 28.6662H12.3478C12.3453 28.5707 12.3403 28.4745 12.3315 28.3795H12.5577C13.3341 28.3795 13.965 29.0498 13.965 29.8743H13.9662Z" fill="#7CA5B9"/>
<path d="M13.9665 31.9762V35.1675C13.9665 35.2468 13.9022 35.3112 13.8229 35.3112C13.7435 35.3112 13.6792 35.2468 13.6792 35.1675V32.0118H13.7685C13.8379 32.0118 13.9047 31.9993 13.9665 31.9762Z" fill="#7CA5B9"/>
<path d="M4.07152 32.0125V35.1681C4.07152 35.2475 4.00718 35.3118 3.92785 35.3118C3.84852 35.3118 3.78418 35.2475 3.78418 35.1681V32.0125H4.07089H4.07152Z" fill="#7CA5B9"/>
<path d="M10.8122 32.0125V35.1681C10.8122 35.2475 10.7479 35.3118 10.6686 35.3118C10.5892 35.3118 10.5249 35.2475 10.5249 35.1681V32.0125H10.8116H10.8122Z" fill="#7CA5B9"/>
<path d="M7.94314 29.8743V35.1681C7.94314 35.2475 7.8788 35.3118 7.79947 35.3118C7.72014 35.3118 7.6558 35.2475 7.6558 35.1681V32.0087C7.69016 32.0075 7.72389 32.0075 7.75449 32.0075H7.6558V29.8743C7.6558 29.2078 7.15359 28.6662 6.53582 28.6662H3.64123C3.5619 28.6662 3.49756 28.6019 3.49756 28.5226C3.49756 28.4432 3.5619 28.3789 3.64123 28.3789H6.53582C7.311 28.3789 7.94314 29.0491 7.94314 29.8737V29.8743Z" fill="#7CA5B9"/>
<path d="M7.75494 32.0074C7.72434 32.0074 7.69061 32.0074 7.65625 32.0087V32.0074H7.75494Z" fill="#7CA5B9"/>
</g>
<path opacity="0.2" d="M5.38883 26.2238C5.33323 27.1164 5.30825 27.8203 5.30825 28.3788H4.9547C4.94221 28.1189 4.93471 27.8609 4.92972 27.6011C4.92472 27.24 4.92472 26.874 4.98531 26.5167C5.02216 26.2943 5.18957 26.2238 5.3882 26.2238H5.38883Z" fill="#7CA5B9"/>
<path opacity="0.3" d="M35.8519 28.6663V30.6264H32.6094V29.8743C32.6094 29.2078 33.1116 28.6663 33.73 28.6663H35.8519Z" fill="#7CA5B9"/>
<path opacity="0.3" d="M35.8521 25.1295V28.3789H33.7302C32.955 28.3789 32.3229 29.0491 32.3229 29.8737V30.6257H28.6406V25.6167C28.6406 25.3481 28.863 25.1295 29.1316 25.1295H35.8521Z" fill="#7CA5B9"/>
<path d="M34.9555 28.6663C34.933 29.8781 34.7738 30.3259 34.5633 30.6264H32.6094V29.8743C32.6094 29.2078 33.1116 28.6663 33.73 28.6663H34.9555Z" fill="white"/>
<path d="M34.958 28.3795H33.7299C32.9548 28.3795 32.3226 29.0498 32.3226 29.8743V30.6263H28.0663C28.0538 30.592 28.0438 30.5533 28.0363 30.5102C27.9314 29.9005 27.8914 29.2821 27.9164 28.6662C27.9189 28.5706 27.9239 28.4745 27.9326 28.3795C27.9595 27.9704 28.017 27.5637 28.1019 27.1615C28.1762 26.8092 28.2724 26.4331 28.4998 26.1464C28.5429 26.0908 28.5904 26.0521 28.6397 26.0252C28.8746 25.8978 29.1663 26.0521 29.4424 26.1602C29.9471 26.3644 30.4106 26.6711 30.9347 26.8379C31.0227 26.8648 31.1202 26.8935 31.2176 26.8972C31.3188 26.9072 31.4219 26.8972 31.5231 26.8835C32.2108 26.8004 32.8873 26.6792 33.5594 26.5224C33.7955 26.4669 34.0366 26.4013 34.2727 26.3369C34.4214 26.2951 34.6669 26.2245 34.8761 26.2245C34.9317 27.1171 34.9567 27.8211 34.9567 28.3795H34.958Z" fill="white"/>
<path opacity="0.2" d="M35.2956 28.6663C35.2587 29.3215 35.1969 29.9743 35.1088 30.6264H34.5635C34.774 30.3259 34.9333 29.8781 34.9557 28.6663H35.2956Z" fill="#7CA5B9"/>
<path opacity="0.3" d="M32.3227 32.0062V32.0124H26.4973C26.428 32.0124 26.3611 31.9999 26.2993 31.9768C26.0769 31.8962 25.917 31.6838 25.917 31.4327V31.2066C25.917 30.9555 26.0763 30.7431 26.2993 30.6626C26.3611 30.6388 26.428 30.627 26.4973 30.627H32.0766C32.0766 30.627 31.9467 30.6963 31.8911 30.8162C31.8761 30.835 31.8723 30.8531 31.8673 30.8768C31.8355 31.0199 31.8398 31.1735 31.8355 31.3172C31.8355 31.4621 31.8167 31.6239 31.8673 31.7626C31.9092 31.87 31.9923 31.9581 32.0997 32.0037C32.1022 32.0049 32.184 32.0062 32.3221 32.0074L32.3227 32.0062Z" fill="#7CA5B9"/>
<path opacity="0.2" d="M36.4854 28.3796H35.8521V25.1302H35.9907C36.2637 25.1302 36.4829 25.3489 36.4829 25.6175L36.4854 28.3796Z" fill="#7CA5B9"/>
<path opacity="0.2" d="M36.4869 30.6264L36.4819 31.4191L36.4781 32.0125H35.6449C34.7904 32.0125 33.4824 32.0112 32.7165 32.0087C32.6797 32.0075 32.6447 32.0075 32.6104 32.0075V30.6264H35.8529V28.6663H36.4863L36.4875 30.6264H36.4869Z" fill="#7CA5B9"/>
<path opacity="0.2" d="M32.323 30.6265V32.0063C32.1843 32.0051 32.1031 32.0038 32.1006 32.0026C31.9932 31.957 31.9101 31.8689 31.8683 31.7615C31.8177 31.6228 31.8364 31.461 31.8364 31.3161C31.8414 31.1724 31.8364 31.0194 31.8683 30.8757C31.8733 30.852 31.877 30.8339 31.892 30.8151C31.9476 30.6952 32.0775 30.6259 32.0775 30.6259H32.3236L32.323 30.6265Z" fill="#7CA5B9"/>
<g opacity="0.6">
<path d="M26.2998 29.8743V30.662C26.3616 30.6382 26.4285 30.6264 26.4978 30.6264H26.5871V29.8743C26.5871 29.2078 27.0894 28.6662 27.7078 28.6662H27.9183C27.9208 28.5707 27.9257 28.4745 27.9345 28.3795H27.7084C26.9319 28.3795 26.3011 29.0498 26.3011 29.8743H26.2998Z" fill="#7CA5B9"/>
<path d="M26.5867 32.0124V35.1681C26.5867 35.2474 26.5223 35.3118 26.443 35.3118C26.3637 35.3118 26.2993 35.2474 26.2993 35.1681V31.9768C26.3612 32.0005 26.428 32.0124 26.4973 32.0124H26.5867Z" fill="#7CA5B9"/>
<path d="M36.4817 32.0125V35.1681C36.4817 35.2475 36.4173 35.3118 36.338 35.3118C36.2587 35.3118 36.1943 35.2475 36.1943 35.1681V32.0125H36.481H36.4817Z" fill="#7CA5B9"/>
<path d="M29.7409 32.0125V35.1681C29.7409 35.2475 29.6766 35.3118 29.5973 35.3118C29.518 35.3118 29.4536 35.2475 29.4536 35.1681V32.0125H29.7403H29.7409Z" fill="#7CA5B9"/>
<path d="M36.7685 28.5226C36.7685 28.6019 36.7041 28.6662 36.6248 28.6662H33.7302C33.1118 28.6662 32.6096 29.2078 32.6096 29.8743V32.0074H32.5109C32.5415 32.0074 32.5752 32.0074 32.6096 32.0087V35.1681C32.6096 35.2475 32.5453 35.3118 32.4659 35.3118C32.3866 35.3118 32.3223 35.2475 32.3223 35.1681V29.8743C32.3223 29.0498 32.9544 28.3795 33.7296 28.3795H36.6242C36.7035 28.3795 36.7678 28.4439 36.7678 28.5232L36.7685 28.5226Z" fill="#7CA5B9"/>
<path d="M32.6094 32.0073V32.0086C32.5751 32.0073 32.5413 32.0073 32.5107 32.0073H32.6094Z" fill="#7CA5B9"/>
</g>
<path opacity="0.2" d="M35.3361 27.6018C35.3311 27.8617 35.3236 28.1203 35.3111 28.3795H34.9575C34.9575 27.8204 34.9325 27.1171 34.877 26.2245C35.0762 26.2245 35.243 26.2951 35.2798 26.5174C35.3404 26.8747 35.3404 27.2408 35.3354 27.6018H35.3361Z" fill="#7CA5B9"/>
</g>
</g>
<path opacity="0.1" d="M24.0002 42.6496C35.3716 42.6496 44.5898 42.0696 44.5898 41.3541C44.5898 40.6386 35.3716 40.0586 24.0002 40.0586C12.6289 40.0586 3.41064 40.6386 3.41064 41.3541C3.41064 42.0696 12.6289 42.6496 24.0002 42.6496Z" fill="#222222"/>
<path d="M43.05 39.3991C43.05 39.3991 43.05 39.3991 43.0486 39.3991C42.5676 39.6766 42.1668 39.9554 41.8764 40.4326C41.5356 40.9913 41.3 41.3436 40.5593 41.2586C39.9862 41.1929 39.3651 40.7585 38.8107 40.615C38.2448 40.4686 37.436 40.6505 36.5888 40.5607C36.4582 40.5468 36.3272 40.5266 36.1956 40.4978C36.0497 39.9593 36.1644 38.2994 36.1644 38.2994C36.4812 38.3748 36.8182 38.4478 37.1585 38.5154C38.4665 38.7746 39.8283 38.9537 40.3145 38.8927C41.564 38.7353 41.4771 38.7223 42.2288 38.489C42.7644 38.322 43.0457 38.0705 43.6064 38.1689C44.5625 38.3364 43.4 39.1975 43.0505 39.3986L43.05 39.3991Z" fill="#F41C5E"/>
<path opacity="0.1" d="M43.0482 39.3995C42.5673 39.677 42.1665 39.9559 41.8761 40.433C41.5353 40.9917 41.2996 41.344 40.5589 41.2591C39.9858 41.1933 39.3647 40.7589 38.8103 40.6154C38.2444 40.469 37.4356 40.6509 36.5884 40.5611L37.1581 38.5159C37.1361 38.7477 37.1404 39.0909 37.3233 39.4096C37.917 40.4469 39.8476 40.2736 40.4653 40.2179C41.0241 40.1675 41.9697 40.0053 43.0487 39.3995H43.0482Z" fill="#222222"/>
<path d="M12.9422 12.6094C12.9422 12.6094 11.5066 11.9513 10.1021 13.349C8.69761 14.7468 5.17249 20.2639 5.04337 21.3948C4.91425 22.5262 5.58481 23.191 5.58481 23.191C5.58481 23.191 5.53777 22.4556 5.76625 22.1772C5.76625 22.1772 5.81041 23.3431 6.27601 23.6407C6.74161 23.9383 8.62417 24.51 9.52753 24.5993C10.4304 24.6886 14.0026 24.5162 14.5685 23.8812C15.1349 23.2462 15.6254 20.4622 15.5923 19.8905C15.5923 19.8905 15.5976 22.7354 14.8637 23.8178C14.8637 23.8178 16.6066 22.2478 16.9142 21.235C17.2219 20.2217 16.4026 11.4367 12.9422 12.6098V12.6094Z" fill="#222222"/>
<path d="M36.7759 40.6293C36.5479 40.9562 35.4929 41.0671 35.1079 41.1045C34.4772 41.166 33.8575 41.1684 33.2311 41.0772C31.9922 40.8977 30.8412 40.9769 29.5927 41.0661C28.3889 41.1521 27.197 41.4357 25.9845 41.4746C24.9108 41.5092 23.7463 41.5178 22.6452 41.3887C21.5469 41.2601 20.5111 40.8271 19.4167 40.7143C18.8508 40.6562 19.1119 40.4052 19.2329 39.8781C19.3217 39.4898 19.2329 39.8781 19.3442 39.4927C19.6044 38.5869 19.9121 37.6466 20.5793 36.9516C20.9297 36.5868 21.3631 36.3309 21.8772 36.2887L37.3711 38.1108C37.3711 38.1108 37.6255 39.4106 36.7759 40.6284V40.6293Z" fill="#999999"/>
<path d="M25.2717 32.6743C22.193 32.91 18.7394 32.6129 18.7394 32.6129C18.5267 32.586 18.3247 32.5337 18.1317 32.4603H18.1312C17.0791 32.059 16.2938 31.0246 15.5709 30.007C13.5587 27.1745 13.2904 24.4443 13.2299 22.3073C13.2146 21.7683 13.2127 21.2671 13.1992 20.8111C13.5626 20.4766 14.1717 20.5054 15.5003 20.8692C16.0067 21.0079 16.4829 21.6982 16.7243 22.2607C17.5303 24.2249 16.9461 26.838 17.8312 28.7667C18.2243 29.6235 18.3938 30.1947 19.3039 30.6617C19.3039 30.6617 20.8975 31.3054 25.4963 31.7969C25.4968 31.7969 25.2722 32.6743 25.2722 32.6743H25.2717Z" fill="#85522F"/>
<path opacity="0.1" d="M18.1313 32.4602C17.0791 32.0589 16.2938 31.0245 15.5709 30.0069C13.5588 27.1745 13.2905 24.4442 13.23 22.3073L15.9933 26.1689C15.9933 26.1689 15.1807 30.869 18.1313 32.4602Z" fill="#222222"/>
<path d="M26.8503 33.0214C26.8503 33.0214 26.7999 33.546 26.7932 33.7457C26.7864 33.9454 26.76 33.9895 26.76 33.9895C26.76 33.9895 26.5474 33.9223 26.5464 33.6775C26.546 33.4327 26.4994 33.0103 26.4994 33.0103L26.0684 32.5116C26.0684 32.5116 26.7768 32.6489 26.8498 33.0209L26.8503 33.0214Z" fill="#85522F"/>
<path d="M26.5215 32.8764C26.5215 32.8764 26.401 33.3896 26.3679 33.5864C26.3343 33.7832 26.3026 33.8235 26.3026 33.8235C26.3026 33.8235 26.1006 33.728 26.1332 33.4856C26.1654 33.2432 26.1764 32.8184 26.1764 32.8184L25.8164 32.2664C25.8164 32.2664 26.4999 32.4977 26.5225 32.8764H26.5215Z" fill="#85522F"/>
<path d="M26.8681 32.5769C26.8681 32.5769 27.1182 32.994 27.1499 33.198C27.1815 33.4015 27.23 34.0102 27.23 34.0102C27.23 34.0102 27.1206 34.1014 27.0049 33.8676C26.8892 33.6339 26.7495 33.0415 26.7495 33.0415L26.2705 32.6014L26.8686 32.5769H26.8681Z" fill="#85522F"/>
<path opacity="0.1" d="M26.1754 32.8184L25.8154 32.2664C25.8154 32.2664 26.1716 32.3868 26.378 32.5966L26.8681 32.5764C26.8681 32.5764 27.1182 32.9936 27.1498 33.1976C27.1815 33.4011 27.23 34.0097 27.23 34.0097C27.23 34.0097 27.1205 34.1009 27.0049 33.8672C26.9425 33.7414 26.8738 33.5124 26.823 33.3272C26.81 33.4788 26.7966 33.6497 26.7937 33.7452C26.787 33.9449 26.7605 33.9891 26.7605 33.9891C26.7605 33.9891 26.5479 33.9219 26.547 33.6771C26.5465 33.4323 26.4999 33.0099 26.4999 33.0099L26.4927 33.0012C26.4548 33.1659 26.391 33.4505 26.3679 33.5859C26.3343 33.7827 26.3026 33.823 26.3026 33.823C26.3026 33.823 26.1006 33.7275 26.1332 33.4851C26.1654 33.2427 26.1764 32.8179 26.1764 32.8179L26.1754 32.8184Z" fill="#222222"/>
<path d="M23.0973 31.8718C23.4376 31.7614 23.5807 31.6092 23.8365 31.625C24.2224 31.6486 24.88 31.7249 25.3946 31.7815C25.5933 31.8036 25.8338 31.8823 25.9975 31.9644C26.2951 32.1132 26.5869 32.2241 27.0971 32.4785C27.5181 32.6882 28.0283 33.15 28.0283 33.15C28.0283 33.15 27.8402 33.3564 27.5517 33.1711C27.2671 32.9882 26.1083 32.5625 25.7119 32.586C25.6461 32.5898 25.4752 32.7502 25.4752 32.7502C25.4752 32.7502 25.8242 33.2719 25.9639 33.4836C26.2528 33.9218 26.08 34.0644 26.0162 34.1201C25.8664 34.2502 25.7431 33.869 25.6226 33.7351C25.432 33.523 25.1685 33.3156 24.4365 33.1514C24.1725 33.0924 23.9037 32.7367 23.6503 32.693C23.5927 32.683 23.0805 32.5457 22.9639 32.5649L23.0973 31.8722V31.8718Z" fill="#85522F"/>
<path opacity="0.1" d="M26.6822 32.5677C26.6822 32.5677 26.6711 32.6508 26.6658 32.6724C26.6586 32.7017 26.6121 32.7804 26.6121 32.7804C26.6121 32.7804 26.5818 32.7348 26.6001 32.6738C26.6274 32.5821 26.6817 32.5677 26.6817 32.5677H26.6822Z" fill="#222222"/>
<path opacity="0.1" d="M27.307 32.8696C27.307 32.8696 27.3036 32.9205 27.2974 32.9359C27.2882 32.9589 27.2407 33.0165 27.2407 33.0165C27.2407 33.0165 27.2431 32.9853 27.2537 32.9277C27.2618 32.8826 27.307 32.8696 27.307 32.8696Z" fill="#222222"/>
<path d="M10.4614 20.0652L6.97754 21.3473L8.44346 32.7876H14.3614L15.5004 20.8692L12.5628 20.0652H10.4614Z" fill="#85522F"/>
<path opacity="0.1" d="M8.59968 24.2441L7.93104 24.8821L6.90576 24.8624L7.23696 26.1157L7.87536 25.891L8.89248 24.6209L8.59968 24.2441Z" fill="#222222"/>
<path d="M15.9935 26.1689C15.8423 27.8647 15.285 28.5651 15.0757 28.7921C14.8928 30.4409 14.71 30.8115 14.5266 32.4603C13.3304 33.0684 12.6704 32.7281 10.8316 32.9254C10.1711 32.9964 9.67523 32.9441 9.30419 32.8361C8.43107 32.5817 8.25251 32.0167 8.25251 32.0167L6.55859 26.2078C7.18979 26.1439 7.78835 25.8055 8.21363 25.1959C8.41667 24.9046 8.53427 24.5811 8.60051 24.2441C8.68259 23.8275 8.68595 23.3902 8.67491 22.9683C8.65667 22.2502 8.76851 21.5811 8.67155 20.7238L9.53411 20.4065C9.53411 20.4065 10.3607 23.6273 12.4242 23.623C12.4242 23.623 14.5703 23.8798 13.8959 20.4295L14.6605 20.6388C14.6605 20.6388 14.9418 21.9636 15.5288 23.4377C15.6767 23.694 16.1207 24.7539 15.9944 26.1689H15.9935Z" fill="#F5D970"/>
<path opacity="0.1" d="M9.30419 32.8361C8.43107 32.5817 8.25251 32.0168 8.25251 32.0168L6.55859 26.2078C7.18979 26.144 7.78835 25.8056 8.21363 25.196C8.41667 24.9046 8.53427 24.5811 8.60051 24.2441C8.38067 25.4192 8.20451 27.0661 8.41475 29.0086C8.58227 30.559 8.94755 31.8545 9.30467 32.8361H9.30419Z" fill="#222222"/>
<path d="M20.4772 40.8007L17.183 41.1588H17.1825L16.3161 41.1266H16.3132L15.046 41.08L9.89898 41.4012L8.89866 41.5567C7.95834 41.4996 7.24842 41.272 6.71658 40.9845C5.52282 40.3399 5.22474 39.3943 5.22474 39.3943C5.05866 38.0244 5.28474 36.773 5.79306 35.514C6.0729 34.8194 6.43866 34.1224 6.87258 33.4024C7.05354 33.1015 7.2465 32.7962 7.44954 32.4856C11.4465 32.5898 14.5262 32.4602 14.5262 32.4602L15.8174 34.8429L21.7929 36.1696C25.186 37.1844 20.4772 40.8007 20.4772 40.8007Z" fill="#999999"/>
<path opacity="0.1" d="M10.5134 33.8071L5.22474 39.3943C5.05866 38.0244 5.28474 36.773 5.79306 35.514C6.0729 34.8194 6.43866 34.1225 6.87258 33.4025L10.5134 33.8071Z" fill="#222222"/>
<path opacity="0.1" d="M25.1318 36.9444C25.1318 36.9444 20.8511 37.9284 22.6449 41.3897L12.2178 38.6595L6.84473 39.5849L13.6434 34.3875L23.4489 36.4755L25.3262 36.6972L25.1318 36.9449V36.9444Z" fill="#222222"/>
<path opacity="0.1" d="M17.1824 40.6788L16.316 41.1267H16.3132L15.046 41.0801L9.89893 41.4012L12.2951 35.9167L17.1824 40.6788Z" fill="#222222"/>
<path d="M5.43469 33.2009C9.80269 33.8077 10.2524 33.9397 14.7601 34.8781L15.0865 33.7424C13.0681 32.9417 7.82797 31.2401 7.82797 31.2401C6.72253 30.7957 6.89101 29.719 6.89101 29.719C7.32493 27.2312 8.25181 23.7699 8.25181 23.7699C7.96141 21.6363 7.98397 20.9773 6.97789 21.3478C6.40477 21.5456 4.18093 23.8736 4.29949 31.3078C4.30237 31.5022 4.33069 31.6957 4.38781 31.8819C4.52413 32.3283 4.84045 33.0886 5.43517 33.2014L5.43469 33.2009Z" fill="#85522F"/>
<path d="M17.3966 34.9702C17.3966 34.9702 17.1101 35.0633 16.8441 34.9107C16.6392 34.7926 16.4361 34.7547 16.3233 34.7614C16.2101 34.7681 16.0368 34.8449 15.9542 34.8852C15.7142 35.0028 15.1757 35.0532 14.795 34.891C14.2512 34.6596 14.2349 34.4859 14.2349 34.4859C14.2349 34.4859 15.8021 33.8657 16.3742 34.1129C16.9464 34.3601 17.3966 34.9702 17.3966 34.9702Z" fill="#85522F"/>
<path opacity="0.1" d="M17.3966 34.9702C17.3966 34.9702 17.1101 35.0633 16.8441 34.9107C16.6392 34.7926 16.4361 34.7547 16.3233 34.7614C16.2101 34.7681 16.0368 34.8449 15.9542 34.8852C15.7142 35.0028 15.1757 35.0532 14.795 34.891C14.2512 34.6596 14.2349 34.4859 14.2349 34.4859C14.2349 34.4859 15.8021 33.8657 16.3742 34.1129C16.9464 34.3601 17.3966 34.9702 17.3966 34.9702Z" fill="#222222"/>
<path d="M18.6127 35.3951C18.7145 35.4153 18.8388 35.3039 18.8388 35.3039C18.8388 35.3039 18.0262 34.6218 17.8875 34.5109C17.5769 34.2633 17.1823 33.9167 17.0796 33.8111C16.8775 33.6023 16.8065 33.574 16.6961 33.5423C16.5862 33.5106 16.2607 33.5629 16.2607 33.5629C16.2607 33.5629 17.8812 35.2516 18.6123 35.3951H18.6127Z" fill="#85522F"/>
<path opacity="0.1" d="M18.6127 35.3951C18.7145 35.4153 18.8388 35.3039 18.8388 35.3039C18.8388 35.3039 18.0262 34.6218 17.8875 34.5109C17.5769 34.2633 17.1823 33.9167 17.0796 33.8111C16.8775 33.6023 16.8065 33.574 16.6961 33.5423C16.5862 33.5106 16.2607 33.5629 16.2607 33.5629C16.2607 33.5629 17.8812 35.2516 18.6123 35.3951H18.6127Z" fill="#222222"/>
<path d="M13.2075 33.153C13.2075 33.153 14.096 33.6128 14.4262 33.7074C14.7018 33.7866 16.0078 33.6349 16.1936 33.5806C16.279 33.5557 16.4739 33.5062 16.6107 33.5653C16.7706 33.6344 16.9578 33.8101 17.1421 33.9954C17.3475 34.2018 17.6874 34.4691 17.8424 34.6208C17.9974 34.7725 18.8029 35.4301 18.8029 35.4301C18.8029 35.4301 18.6483 35.6226 18.4506 35.5198C18.2528 35.4171 18.1549 35.3629 18.1549 35.3629C18.1549 35.3629 17.9773 35.4531 17.7066 35.3067C17.5678 35.2318 17.2851 35.0552 16.9909 34.881C16.712 34.7154 16.4528 34.5738 16.2483 34.5771C15.8374 34.5834 15.261 35.0058 14.6053 34.8656C13.9501 34.7254 12.7544 34.3438 12.7544 34.3438L13.207 33.153H13.2075Z" fill="#85522F"/>
<path opacity="0.1" d="M18.1548 35.3629C18.1548 35.3629 18.2378 35.3307 18.2801 35.2554C18.1346 35.1771 18.0468 35.0883 17.7852 34.9223C17.5231 34.7557 16.8492 34.2267 16.7642 34.136C16.6793 34.0453 16.7254 33.9397 16.7254 33.9397C16.7254 33.9397 16.8612 34.0823 17.0345 34.2243C17.2082 34.3664 17.911 34.9002 18.0742 35.0413C18.1159 35.0778 18.329 35.2347 18.377 35.2727C18.3362 35.3384 18.2287 35.4032 18.2287 35.4032L18.1548 35.3629Z" fill="#222222"/>
<path d="M22.4727 36.3521H14.3784V36.689H22.4727V36.3521Z" fill="#DDDDDD"/>
<path d="M25.0718 36.6891H16.9775L19.9051 31.7047C19.9507 31.627 20.0342 31.5795 20.1244 31.5795H27.851C27.9494 31.5795 28.0103 31.686 27.9604 31.771L25.0718 36.6891Z" fill="#DDDDDD"/>
<path d="M25.3286 36.6891H17.2344L20.1619 31.7047C20.2075 31.627 20.291 31.5795 20.3813 31.5795H28.1078C28.2062 31.5795 28.2672 31.686 28.2173 31.771L25.3286 36.6891Z" fill="#ADADAD"/>
<path d="M23.2167 34.546C23.6241 34.2409 23.8159 33.8085 23.6449 33.5802C23.474 33.3518 23.0051 33.414 22.5976 33.719C22.1902 34.0241 21.9984 34.4565 22.1694 34.6848C22.3403 34.9132 22.8092 34.851 23.2167 34.546Z" fill="#F8F8F8"/>
<path d="M25.5764 40.3736C25.4396 40.6956 25.2039 40.9664 24.8727 41.0921C23.8599 41.4766 21.0764 41.7017 20.101 41.4329C19.323 40.1888 20.173 39.5297 20.173 39.5297C20.2057 39.5268 20.2388 39.524 20.2714 39.5211C21.6673 39.3876 23.1025 38.8352 24.4695 38.5236C25.597 38.2668 25.9465 39.5048 25.5759 40.3736H25.5764Z" fill="#F41C5E"/>
<path opacity="0.1" d="M25.5764 40.3735C25.4396 40.6956 25.2039 40.9663 24.8727 41.092C23.8599 41.4765 21.0764 41.7016 20.101 41.4328C19.323 40.1887 20.173 39.5296 20.173 39.5296C20.2057 39.5268 20.2388 39.5239 20.2714 39.521C20.2714 39.521 19.1607 42.7106 25.5759 40.3735H25.5764Z" fill="#222222"/>
<path d="M20.0528 41.6763C19.3981 41.8731 17.9206 41.5568 17.9206 41.5568C12.9421 40.4168 12.2187 38.659 12.2187 38.659L11.1968 40.1878C10.7173 40.843 9.80286 41.7493 8.60526 41.731C7.4235 41.7128 5.2251 41.7296 5.2251 39.3944C5.2251 39.1697 5.24574 38.9561 5.28366 38.7512C5.57262 37.1917 6.8715 36.1491 7.81902 34.903C8.46174 34.0573 9.23454 33.2149 10.3563 33.1025C12.0142 32.9365 13.4504 34.5949 14.5913 35.5309C16.0645 36.74 17.36 37.5315 19.0342 38.5745L20.2534 39.2149C20.2534 39.2149 20.4013 40.9577 20.0528 41.6763Z" fill="#999999"/>
<path d="M13.1967 18.5724C13.1967 18.5724 13.165 18.9214 13.1074 19.3908C13.0834 19.5862 13.0556 19.8022 13.0229 20.0225C13.0152 20.0763 13.0071 20.1305 12.9984 20.1843C12.8808 20.9465 12.7176 21.7145 12.5266 21.8225C11.4312 22.4403 10.3532 20.1358 10.3594 20.1276C10.4823 19.9687 10.7439 19.7427 10.9344 18.3977C10.9455 18.3209 10.956 18.2398 10.9666 18.1548C10.9772 18.0679 10.9877 17.9767 10.9978 17.8812L11.1332 17.9239L13.1967 18.5724Z" fill="#85522F"/>
<path opacity="0.1" d="M13.1075 19.3908C13.0835 19.5862 13.0312 19.9639 12.9986 20.1843C12.9909 20.238 12.9117 20.6883 12.903 20.742C11.9147 20.3998 11.2082 19.0443 10.9346 18.3977C10.8938 18.3017 10.865 18.2086 10.8486 18.1212L10.9667 18.1548L13.0715 18.751C13.0715 18.751 13.1176 19.0159 13.1075 19.3908Z" fill="#222222"/>
<path d="M10.9327 18.3103C10.9327 18.3103 10.0797 17.1982 9.8095 16.2055C9.61654 15.497 9.7423 12.7946 12.4596 12.9372C12.4596 12.9372 13.2453 12.9434 14.0225 13.3721C14.6402 13.7129 15.5575 14.4862 14.8279 16.9001L14.6546 17.7089L10.9327 18.3103Z" fill="#222222"/>
<path d="M14.1128 19.8127C14.1128 19.8127 10.7284 19.7907 10.7749 17.683C10.8215 15.5753 10.4154 14.1535 12.5783 14.0787C14.7412 14.0038 15.1429 14.8174 15.2989 15.5244C15.4544 16.2315 14.9946 19.7643 14.1128 19.8127Z" fill="#85522F"/>
<path d="M13.7251 14.1401C13.7251 14.1401 12.6921 16.6423 11.2622 16.975C9.83228 17.3076 9.22412 16.9126 9.22412 16.9126C9.22412 16.9126 10.3344 16.0716 10.596 14.5649C10.596 14.5649 13.0536 12.9473 13.7251 14.1401Z" fill="#222222"/>
<path d="M10.7612 17.8169C11.1838 17.8169 11.5263 17.291 11.5263 16.6423C11.5263 15.9936 11.1838 15.4678 10.7612 15.4678C10.3386 15.4678 9.99609 15.9936 9.99609 16.6423C9.99609 17.291 10.3386 17.8169 10.7612 17.8169Z" fill="#CCCCCC"/>
<path d="M10.4372 17.453C10.7288 17.453 10.9652 17.09 10.9652 16.6423C10.9652 16.1945 10.7288 15.8315 10.4372 15.8315C10.1456 15.8315 9.90918 16.1945 9.90918 16.6423C9.90918 17.09 10.1456 17.453 10.4372 17.453Z" fill="#B3B3B3"/>
<path d="M13.4571 12.5023V12.7423C12.5715 12.7423 11.8851 12.9986 11.4166 13.5046C10.6294 14.3537 10.7177 15.6372 10.7187 15.6497L10.6232 15.6574L10.4792 15.6684C10.4748 15.6118 10.3808 14.2702 11.239 13.3428C11.755 12.785 12.5009 12.5023 13.4571 12.5023Z" fill="#CCCCCC"/>
<path d="M13.4573 12.6223V12.7423C12.5717 12.7423 11.8853 12.9986 11.4168 13.5046C10.6296 14.3537 10.718 15.6372 10.7189 15.6497L10.6234 15.6574C10.6128 15.4116 10.6071 14.2591 11.3655 13.4393C11.8556 12.9098 12.5592 12.6348 13.4573 12.6223Z" fill="#B3B3B3"/>
<path d="M13.7251 14.1401C13.7251 14.1401 14.5185 14.8419 14.7221 15.3665C14.9241 15.8878 15.2155 16.3294 15.2515 16.9832C15.2515 16.9832 15.9883 15.319 15.2261 14.3499C14.4177 13.3227 13.7256 14.1397 13.7256 14.1397L13.7251 14.1401Z" fill="#222222"/>
<path d="M13.6151 12.5023C13.6151 12.5023 13.0031 12.5062 12.8336 12.6223C12.6445 12.7519 12.3608 13.073 12.3608 13.073L13.3885 13.3423L13.8575 13.1407L13.6151 12.5023Z" fill="#222222"/>
<path d="M5.05263 35.4987L4.48239 35.4949L4.48047 35.8242L5.05071 35.828L5.05263 35.4987Z" fill="#222222"/>
<path d="M5.6654 37.5992L5.66732 37.3342C5.7158 37.2944 5.75612 37.2382 5.78876 37.1826C5.81324 37.1264 5.83004 37.0621 5.83004 36.9901L5.831 36.8456C5.83195 36.7251 5.78444 36.6123 5.70428 36.5317C5.62411 36.451 5.51228 36.4021 5.3918 36.4011L4.13083 36.393C4.01035 36.392 3.89755 36.4395 3.81691 36.5197C3.73627 36.5998 3.68731 36.7117 3.68635 36.8322L3.68539 36.9766C3.68539 37.041 3.70075 37.0971 3.72427 37.1538C3.74779 37.2104 3.78763 37.2589 3.83563 37.2992L3.83371 37.5805C3.77707 37.6285 3.72043 37.6842 3.68827 37.7485C3.65563 37.8123 3.63931 37.8848 3.63883 37.9654L3.61915 40.9861C3.61819 41.1147 3.66571 41.2352 3.75355 41.3245C3.84139 41.4138 3.96139 41.4622 4.09003 41.4632L5.35963 41.4714C5.48827 41.4723 5.60876 41.4248 5.69804 41.337C5.78732 41.2491 5.8358 41.1291 5.83676 41.0005L5.85644 37.9798C5.85644 37.9074 5.84156 37.8272 5.80172 37.7624C5.76188 37.6981 5.72204 37.6491 5.66636 37.6006L5.6654 37.5992Z" fill="#F41C5E"/>
<path opacity="0.1" d="M5.39245 36.4011L4.84621 36.3977C4.96669 36.3987 4.87837 36.4462 4.95805 36.5268C5.03773 36.6075 5.08525 36.7203 5.08477 36.8407L5.08381 36.9852C5.08381 37.0495 5.06701 37.1139 5.04253 37.1777C5.02861 37.2103 5.00557 37.2425 4.98013 37.2718C4.49293 37.2972 3.82861 37.3063 3.82861 37.3063L4.92685 37.3246C4.92685 37.3246 4.92301 37.3279 4.92157 37.3294L4.91965 37.5943C4.98349 37.6428 5.03149 37.6995 5.06317 37.7643C5.09485 37.8286 5.11837 37.9092 5.11789 37.9817C5.11789 37.9817 4.19341 41.4617 4.06525 41.4612L5.36029 41.4785C5.48893 41.4795 5.60941 41.4319 5.69869 41.3441C5.78749 41.2563 5.83645 41.1363 5.83741 41.0076L5.85709 37.987C5.85709 37.9145 5.84221 37.8343 5.80237 37.7695C5.77069 37.7052 5.72269 37.6486 5.66701 37.6001L5.66845 37.3347C5.71693 37.2948 5.75725 37.2387 5.78989 37.183C5.81437 37.1268 5.83117 37.0625 5.83165 36.9905L5.83261 36.846C5.83357 36.7255 5.78605 36.6127 5.70637 36.5321C5.62669 36.4515 5.51437 36.4025 5.39389 36.4015L5.39245 36.4011Z" fill="#222222"/>
<path d="M5.37657 37.5891L3.82617 37.5948C3.82617 37.5948 5.44089 37.6376 5.48025 37.71C5.43273 37.5814 5.37657 37.5891 5.37657 37.5891Z" fill="#D30A48"/>
<path d="M5.62024 35.9278L3.90088 35.9167L3.90184 35.7963L5.6212 35.8073L5.62024 35.9278Z" fill="#222222"/>
<path d="M5.73079 36.2177C5.73175 36.0651 5.70871 35.9364 5.67655 35.9283L3.85303 35.9163C3.82087 35.9163 3.79591 36.0444 3.79495 36.2052C3.79399 36.366 3.81703 36.4865 3.84919 36.4947L5.67319 36.5067C5.70535 36.499 5.73031 36.3703 5.73127 36.2177H5.73079Z" fill="#222222"/>
<path d="M5.67651 35.9283L5.41155 35.9264C5.44371 35.9346 5.46675 36.0555 5.46579 36.2158C5.46483 36.3766 5.43987 36.4971 5.40771 36.5048L5.67267 36.5067C5.70483 36.499 5.7298 36.3786 5.73076 36.2178C5.73171 36.057 5.70867 35.9365 5.67651 35.9283Z" fill="#222222"/>
<path d="M3.90184 35.7963C3.90184 35.7963 4.89688 35.9873 5.6212 35.8073L5.62024 35.9278L3.90088 35.9167L3.90184 35.7963Z" fill="#222222"/>
<path d="M5.09273 35.4344L4.42601 35.4301C4.41785 35.4301 4.41017 35.4377 4.40969 35.4459V35.5424C4.40921 35.5505 4.41689 35.5582 4.42505 35.5587L5.09177 35.563C5.09993 35.563 5.10761 35.5553 5.10809 35.5472V35.4507C5.10857 35.4425 5.10089 35.4349 5.09273 35.4344Z" fill="#222222"/>
</g>
<defs>
<clipPath id="clip0_9673_124898">
<rect width="48" height="48" fill="white"/>
</clipPath>
<clipPath id="clip1_9673_124898">
<rect width="48" height="48" fill="white"/>
</clipPath>
</defs>
</svg>
