<svg width="90" height="90" viewBox="0 0 90 90" fill="none" xmlns="http://www.w3.org/2000/svg">
<g clip-path="url(#clip0_23594_6989)">
<g clip-path="url(#clip1_23594_6989)">
<path d="M44.9994 89.9988C69.8519 89.9988 89.9988 69.8519 89.9988 44.9994C89.9988 20.1469 69.8519 0 44.9994 0C20.1469 0 0 20.1469 0 44.9994C0 69.8519 20.1469 89.9988 44.9994 89.9988Z" fill="#EAEFF4"/>
<path opacity="0.2" d="M44.9994 89.9999C65.0079 89.9999 81.9644 76.9388 87.8145 58.8802C74.9373 51.9866 60.2236 48.0771 44.5965 48.0771C28.9693 48.0771 14.7792 51.8484 2.06592 58.5148C7.80474 76.7631 24.8561 89.9999 44.9994 89.9999Z" fill="#7CA5B9"/>
</g>
<path opacity="0.3" d="M44.6624 78.4127C56.6999 78.4127 66.4874 77.4564 66.4874 76.2752C66.4874 75.0939 56.7562 74.1377 44.6624 74.1377C32.6249 74.1377 22.8374 75.0939 22.8374 76.2752C22.8374 77.4564 32.6249 78.4127 44.6624 78.4127Z" fill="#7CA5B9"/>
<path d="M73.0686 80.0447C66.5999 75.6572 56.4187 72.8447 44.9999 72.8447C33.5812 72.8447 23.4562 75.6572 16.9312 80.0447C24.6374 86.176 34.3687 89.8885 44.9999 89.8885C55.6312 89.8885 65.3624 86.176 73.0686 80.0447Z" fill="#8529A6"/>
<path d="M60.6937 49.5008C60.2999 48.0945 58.2187 49.107 58.2187 49.107H58.0499C58.1624 42.3008 56.5312 36.5633 44.9437 36.3945C33.4124 36.5633 31.7812 42.3008 31.8937 49.107H31.7249C31.7249 49.107 29.6437 48.1508 29.2499 49.5008C28.8562 50.8508 29.6999 55.0695 30.7124 56.307C31.2749 56.982 31.8374 57.2633 32.2312 57.3195V57.4883C32.4562 59.457 32.6812 61.4258 33.5812 62.6633C34.3687 63.6758 35.1562 64.7445 35.9999 65.8133V68.3445C35.9999 73.0133 31.4999 74.1383 31.4999 74.1383C31.4999 74.1383 32.0062 74.7008 32.8499 75.1508C34.5374 76.107 38.8687 78.357 44.8312 78.357C50.7937 78.357 55.1812 76.107 56.8124 75.1508C57.6562 74.7008 58.1624 74.1383 58.1624 74.1383C58.1624 74.1383 53.6624 73.0133 53.6624 68.3445V65.8133C54.5624 64.7445 55.3499 63.6195 56.0812 62.6633C56.9812 61.4258 57.2062 59.457 57.4312 57.4883V57.3195C57.8249 57.207 58.3874 56.982 58.9499 56.307C60.2437 55.0695 61.0874 50.8508 60.6937 49.5008Z" fill="white"/>
<path d="M58.7812 39.5445C58.7249 39.4883 58.9499 38.1945 57.6562 36.3383C57.2062 35.6633 56.5312 34.932 55.5749 34.1445C52.5937 31.782 48.2062 30.7133 41.5124 31.8383C38.4749 32.3445 37.2374 31.3883 37.2374 30.207C36.4499 31.2758 33.3562 32.0633 32.8499 34.8195C32.7937 32.1758 34.3687 31.557 35.5499 30.9945C30.5437 31.6133 29.9249 35.7758 30.5999 37.857C30.6562 37.9133 30.6562 37.9133 30.5999 37.857C29.5874 36.1695 29.9249 35.0445 30.4874 34.1445C29.1374 35.0445 28.9687 36.3383 28.7999 37.9133C28.6874 39.2633 29.1374 40.8383 29.8124 42.0195C30.1499 42.6383 30.5437 43.257 30.5437 43.257C29.1937 44.832 30.4874 50.9633 30.5999 51.582C30.8249 51.6945 31.3312 52.3133 31.7812 53.1008C32.7937 54.8445 32.6812 55.2945 33.1874 56.4195C33.2437 56.4758 32.8499 50.232 32.8499 49.6695C32.8499 47.4758 33.2437 46.5758 33.5249 46.1258C34.3687 46.5758 35.1562 46.7445 35.9437 46.9133C38.0249 47.3633 40.6687 47.1383 44.9437 45.3945C45.5624 45.1695 46.1249 44.9445 46.6312 44.7758C50.7937 43.3695 54.6187 43.4258 55.8562 43.257C55.9124 43.257 55.9687 43.257 56.0812 43.2008C56.1374 43.6508 56.2499 45.057 56.9812 46.7445C57.2062 47.2508 57.7687 48.6008 57.7124 50.4008C57.6562 51.0195 57.7687 55.4633 57.6562 56.4758C58.1062 54.8445 58.7812 53.607 59.0624 53.157C59.3999 52.5383 60.0187 51.807 60.2437 51.582C60.4124 50.682 60.8624 45.732 60.8624 45.057C60.8062 43.8195 60.8624 41.0633 58.7812 39.5445Z" fill="#333333"/>
<path d="M44.9999 29.1943C44.9999 29.1943 40.5562 24.3006 39.1499 22.5568C38.4187 21.7131 38.0249 20.5881 37.9687 19.4631C37.9124 18.3381 38.3062 17.2693 39.0374 16.4818C39.7687 15.6943 40.8374 15.1881 41.9062 15.1318C42.5249 15.1318 43.0874 15.3006 43.5937 15.5818C44.0999 15.8631 44.6062 16.2568 44.9437 16.7068C45.2812 16.2006 45.7312 15.8068 46.2937 15.5818C46.7999 15.3006 47.4187 15.1881 47.9812 15.1318C49.1062 15.1881 50.1187 15.6943 50.8499 16.4818C51.5812 17.2693 51.9749 18.3943 51.9187 19.4631C51.9187 20.5881 51.4687 21.6568 50.7374 22.5568C49.4437 24.3006 44.9999 29.1943 44.9999 29.1943Z" fill="#F41C5E"/>
<path opacity="0.2" d="M46.35 15.6381C45.8438 15.9193 45.3375 16.3131 45 16.7631C48.2062 16.4256 52.7062 18.5068 45 29.1943C45 29.1943 49.4437 24.3006 50.85 22.5568C51.5812 21.7131 51.975 20.5881 52.0312 19.4631C52.0875 18.3381 51.6937 17.2693 50.9625 16.4818C50.2312 15.6943 49.1625 15.1881 48.0937 15.1318C47.475 15.1881 46.8563 15.3568 46.35 15.6381Z" fill="#333333"/>
</g>
<defs>
<clipPath id="clip0_23594_6989">
<rect width="90" height="90" fill="white"/>
</clipPath>
<clipPath id="clip1_23594_6989">
<rect width="90" height="90" fill="white"/>
</clipPath>
</defs>
</svg>
