<svg width="25" height="24" viewBox="0 0 25 24" fill="none" xmlns="http://www.w3.org/2000/svg">
<path d="M4.10001 4.79834C2.77626 4.79834 1.70001 5.87459 1.70001 7.19834V16.7983C1.70001 18.1221 2.77626 19.1983 4.10001 19.1983H20.9C22.2238 19.1983 23.3 18.1221 23.3 16.7983V7.19834C23.3 5.87459 22.2238 4.79834 20.9 4.79834H4.10001ZM6.50001 16.7983H4.10001V14.3983C5.42376 14.3983 6.50001 15.4746 6.50001 16.7983ZM4.10001 9.59834V7.19834H6.50001C6.50001 8.52209 5.42376 9.59834 4.10001 9.59834ZM18.5 16.7983C18.5 15.4746 19.5763 14.3983 20.9 14.3983V16.7983H18.5ZM20.9 9.59834C19.5763 9.59834 18.5 8.52209 18.5 7.19834H20.9V9.59834ZM12.5 8.39834C13.4548 8.39834 14.3705 8.77762 15.0456 9.45276C15.7207 10.1279 16.1 11.0436 16.1 11.9983C16.1 12.9531 15.7207 13.8688 15.0456 14.5439C14.3705 15.2191 13.4548 15.5983 12.5 15.5983C11.5452 15.5983 10.6296 15.2191 9.95443 14.5439C9.2793 13.8688 8.90001 12.9531 8.90001 11.9983C8.90001 11.0436 9.2793 10.1279 9.95443 9.45276C10.6296 8.77762 11.5452 8.39834 12.5 8.39834Z" fill="#F39325"/>
</svg>
