<svg width="48" height="48" viewBox="0 0 48 48" fill="none" xmlns="http://www.w3.org/2000/svg">
<g clip-path="url(#clip0_9673_125069)">
<g clip-path="url(#clip1_9673_125069)">
<path d="M23.9997 47.9994C37.2543 47.9994 47.9994 37.2543 47.9994 23.9997C47.9994 10.745 37.2543 0 23.9997 0C10.745 0 0 10.745 0 23.9997C0 37.2543 10.745 47.9994 23.9997 47.9994Z" fill="#EAEFF4"/>
<path opacity="0.2" d="M46.8345 31.4029C43.7144 41.0341 34.6716 48 24.0004 48C13.3291 48 4.16262 40.9404 1.10254 31.208C4.88033 29.2266 8.90297 27.725 13.1661 26.7837C13.4972 26.7106 13.8288 26.6407 14.163 26.5745C16.3355 26.1428 18.5698 25.8561 20.8647 25.7243C20.9934 25.7168 21.1221 25.71 21.2507 25.7037C22.0871 25.6619 22.9322 25.6406 23.7849 25.6406C32.12 25.6406 39.9666 27.7257 46.8345 31.4029Z" fill="#7CA5B9"/>
<g opacity="0.3">
<path d="M25.2119 17.6196C25.2319 16.7839 24.3093 16.7839 24.3093 16.7839C24.3093 16.7839 24.4467 16.5634 24.5448 16.2554C24.6429 15.9475 24.7016 14.9793 23.8383 14.6051C22.9745 14.231 22.2087 14.8469 22.2087 14.8469C22.2087 14.8469 22.3736 14.4171 22.0494 13.9037C21.7527 13.4321 20.995 13.2747 20.4622 13.6545C20.0168 13.9724 19.9712 14.7151 19.9712 14.7151C19.9712 14.7151 19.3753 14.5121 18.7132 15.0137C18.5296 14.281 18.2422 13.7725 18.2422 13.7725C18.2422 13.7725 20.2704 13.2672 20.3017 11.9861C20.3329 10.7049 18.8662 10.7049 18.8662 10.7049C18.8662 10.7049 19.0849 10.3676 19.241 9.89603C19.3966 9.4238 19.4903 7.94092 18.1173 7.36751C16.745 6.79472 15.5282 7.73854 15.5282 7.73854C15.5282 7.73854 15.7899 7.07955 15.2752 6.29251C14.8024 5.57106 13.5993 5.32933 12.7523 5.91149C12.044 6.3987 11.9715 7.53616 11.9715 7.53616C11.9715 7.53616 10.5361 7.06394 9.23564 8.71609C7.93515 10.3676 9.07011 12.7612 9.07011 12.7612C9.07011 12.7612 8.44611 12.7612 7.91579 13.2334C7.38548 13.705 6.32485 15.6945 7.7284 17.7171C9.13258 19.7396 11.4412 18.6272 11.4412 18.6272C12.0059 19.2518 12.5712 19.3736 13.0403 19.2999C13.2214 20.3955 13.5412 22.7572 13.3576 24.8847C13.287 25.7043 13.2221 26.3208 13.1658 26.7836C13.4969 26.7106 13.8286 26.6406 14.1628 26.5744C14.119 26.0516 14.0684 25.3807 14.0153 24.5381C13.9223 23.0733 13.9079 21.5455 14.1403 20.1413C14.2115 19.709 14.3258 19.2306 14.4407 18.8064C15.319 19.1569 16.3059 19.1737 17.1216 18.8639C16.8418 19.4254 16.65 20.3868 17.3015 21.3606C18.1848 22.681 19.637 21.9546 19.637 21.9546C19.9925 22.3625 20.3479 22.4418 20.6433 22.3943C20.7489 23.0552 20.9288 24.4238 20.8645 25.7243C20.9931 25.7168 21.1218 25.7099 21.2505 25.7036C21.198 24.7811 21.1949 23.8247 21.3354 22.9434C21.3804 22.661 21.4522 22.3494 21.5241 22.072C22.5597 22.5005 23.8365 22.1632 24.1913 21.0963C24.5642 19.9745 23.9164 18.7858 23.9164 18.7858C23.9164 18.7858 25.1925 18.456 25.2119 17.6196ZM13.9922 19.3224C13.7811 20.1207 13.6912 20.4936 13.6262 21.047C13.5475 20.3468 13.3482 19.7084 13.1827 19.2718C13.778 19.1262 14.1865 18.6946 14.1865 18.6946C14.1927 18.6977 14.1984 18.7002 14.2046 18.7034C14.1234 18.8983 14.0491 19.1075 13.9922 19.3224ZM21.2424 22.4087C21.1099 22.9296 21.0531 23.1732 21.0119 23.5343C20.9625 23.0777 20.837 22.661 20.7333 22.3756C21.1074 22.2806 21.3648 21.9989 21.3648 21.9989C21.3685 22.0008 21.3723 22.0027 21.376 22.0039C21.3248 22.132 21.278 22.2682 21.2424 22.4087Z" fill="#7CA5B9"/>
</g>
</g>
<path opacity="0.1" d="M25.0321 45.9359C35.3205 45.9359 43.6609 45.4975 43.6609 44.9567C43.6609 44.4159 35.3205 43.9775 25.0321 43.9775C14.7437 43.9775 6.40332 44.4159 6.40332 44.9567C6.40332 45.4975 14.7437 45.9359 25.0321 45.9359Z" fill="#222222"/>
<path d="M23.3425 34.7088C23.2705 35.0208 23.2561 35.0448 23.1601 35.2848C22.9873 35.7072 22.6177 36.2112 22.4449 36.6336C21.8257 38.1696 21.3361 39.7584 20.9857 41.376C20.9329 41.6208 20.8801 41.8752 20.9089 42.1248C20.9329 42.3504 21.0241 42.5616 21.1105 42.768C21.2401 43.0752 21.3649 43.3872 21.4945 43.6944C21.5425 43.8144 21.6001 43.9392 21.7153 43.9968C21.8113 44.0448 21.9265 44.0256 22.0273 44.0688C22.1761 44.1312 22.2145 44.0064 22.1281 44.1408C22.0417 44.2752 21.8209 44.304 21.7057 44.1888C21.7153 44.208 21.7249 44.232 21.7345 44.2512C21.7873 44.3952 21.5809 44.4864 21.5089 44.3568C21.5281 44.424 21.4849 44.5056 21.4129 44.52C21.3697 44.5296 21.3265 44.5104 21.2929 44.4768C21.2881 44.5296 21.2593 44.5776 21.2113 44.5968C21.1585 44.616 21.1009 44.6016 21.0625 44.5632C21.0577 44.6016 21.0289 44.64 20.9905 44.6544C20.9137 44.6784 20.8321 44.64 20.7745 44.5872C20.2993 44.1984 20.4145 43.704 19.9249 43.3392C19.8241 43.2624 19.5409 43.488 19.4593 43.3872C19.2625 43.1376 19.6465 42.5616 19.6657 42.2448C19.7185 41.4672 19.8001 40.4592 19.6705 39.576C19.4161 37.8096 19.8769 35.9472 20.9329 34.5072C21.0817 34.3008 21.1633 34.2288 21.1777 33.9744C21.1921 33.72 21.1297 33.6336 21.0529 33.3888C21.0049 33.2352 20.9569 33.0816 20.9041 32.928C20.8753 32.832 20.8417 32.7408 20.8129 32.6448C20.7553 32.4624 20.6977 32.28 20.6401 32.0976C20.6209 32.0352 20.5777 31.9296 20.5345 31.8192C20.4865 31.6992 20.4385 31.5744 20.4145 31.5072L20.6497 31.4688C21.3697 31.1952 22.3297 30.7632 23.0545 30.4896C23.1025 30.6144 23.1361 30.7104 23.1601 30.7968C23.2033 30.9408 23.2273 31.0752 23.2705 31.2912C23.2849 31.3728 23.3041 31.536 23.3233 31.704C23.3425 31.8912 23.3617 32.0832 23.3665 32.1888C23.3905 32.6064 23.4289 32.976 23.4385 33.4128C23.4433 33.8448 23.4001 34.4448 23.3425 34.7088Z" fill="#FED5B7"/>
<path d="M18.1536 32.7744C18.1392 33.2784 18.0624 33.7776 17.9568 34.272C17.8992 34.536 17.8848 34.7808 17.832 35.0256C17.7792 35.28 17.7936 35.4672 17.7168 35.712C17.5824 36.1488 17.2608 36.6816 17.1264 37.1184C16.6464 38.7024 16.3008 40.3296 16.0992 41.976C16.0704 42.2256 16.0416 42.48 16.0896 42.7296C16.1328 42.9504 16.2432 43.152 16.344 43.3536C16.4976 43.6512 16.656 43.944 16.8096 44.2416C16.8672 44.3568 16.9392 44.4768 17.0592 44.52C17.16 44.5584 17.2704 44.5296 17.376 44.5632C17.5296 44.6112 17.5584 44.4816 17.4816 44.6256C17.4048 44.7696 17.1936 44.8128 17.064 44.712C17.0784 44.7312 17.088 44.7504 17.0976 44.7744C17.16 44.9136 16.968 45.024 16.8816 44.904C16.9056 44.9664 16.8672 45.0528 16.8 45.0768C16.7568 45.0912 16.7088 45.072 16.68 45.0432C16.68 45.096 16.656 45.1488 16.608 45.1728C16.56 45.1968 16.4976 45.1872 16.4544 45.1488C16.4496 45.1872 16.4304 45.2304 16.392 45.2448C16.32 45.2784 16.2336 45.24 16.1664 45.1968C15.6576 44.8512 15.7296 44.3472 15.2064 44.0304C15.096 43.9632 14.9712 43.9248 14.8848 43.8288C14.6688 43.5936 14.8128 43.272 14.8224 42.9552C14.8416 42.2736 14.832 41.1696 14.6256 40.3008C14.2128 38.5632 14.5104 36.6672 15.4272 35.1408C15.5568 34.92 15.7056 34.704 15.7632 34.4592C15.8256 34.2096 15.792 33.9504 15.7632 33.696C15.7248 33.3792 15.6864 33.0672 15.648 32.7504C15.6144 32.4864 15.5856 32.2176 15.552 31.9536L15.6432 31.8384L15.7248 31.7376C16.488 31.6032 17.2464 31.4688 18.0096 31.3392C18.0336 31.4448 18.0576 31.5504 18.072 31.656C18.096 31.8144 18.1152 31.9728 18.1296 32.136C18.1344 32.1888 18.1344 32.2416 18.1392 32.2896C18.1632 32.4432 18.1632 32.6064 18.1536 32.7744Z" fill="#FED5B7"/>
<path opacity="0.1" d="M18.1535 32.7745L15.7151 33.2209C15.6815 32.9569 15.6527 32.6881 15.6191 32.4241L15.7103 32.3089L18.1391 32.1265C18.1439 32.1793 18.1439 32.2321 18.1487 32.2801C18.1631 32.4433 18.1631 32.6065 18.1535 32.7745Z" fill="#222222"/>
<path d="M23.6351 30.9648C22.5503 31.4928 21.3599 31.8048 20.1503 31.8816C20.0351 31.8912 19.9199 31.896 19.8047 31.896C19.7471 31.7376 19.6895 31.5312 19.6367 31.3056C19.4927 30.6864 19.3631 29.904 19.1999 29.472C19.0799 30.2832 18.8687 31.2192 18.8879 32.0352C17.6783 32.3376 16.1039 32.4672 14.8847 32.2128C15.0719 31.008 14.7983 29.784 14.6735 28.5696C14.5487 27.3552 14.8943 25.9296 15.6239 24.9552L16.5407 23.7744C16.9823 24.2592 17.6399 24.4848 18.2831 24.6096C19.3919 24.8256 20.3663 24.8976 21.4607 24.6288C22.1183 26.2848 23.0063 28.3392 23.4623 30.1728C23.5295 30.4416 23.5871 30.7056 23.6351 30.9648Z" fill="#808080"/>
<path opacity="0.1" d="M23.3187 31.7089L20.8131 32.6449C20.7555 32.4625 20.6979 32.2801 20.6403 32.0977C20.6211 32.0353 20.5779 31.9297 20.5347 31.8193L23.1603 30.7969C23.2035 30.9409 23.2275 31.0753 23.2707 31.2913C23.2803 31.3777 23.2995 31.5409 23.3187 31.7089Z" fill="#222222"/>
<path d="M23.8323 30.9456C23.4291 31.0944 23.0307 31.248 22.6275 31.4016C21.8355 31.6992 21.0243 32.0016 20.1843 32.0928C20.0163 32.112 19.8483 32.1216 19.6755 32.1216L19.6323 31.3056V31.2672C19.7523 31.2432 19.8867 31.2096 20.0307 31.1712C21.1539 30.8832 22.8963 30.2976 23.4579 30.1728C23.5683 30.1488 23.6307 30.144 23.6403 30.1632C23.7075 30.3552 23.7699 30.7488 23.8323 30.9456Z" fill="#707070"/>
<path d="M14.7119 32.5824C16.1183 32.616 17.6399 32.8368 18.9887 32.4336C18.9455 32.184 18.9359 31.9248 18.9647 31.6704C17.5631 31.8144 16.1279 31.9584 14.7551 31.6224L14.7119 32.5824Z" fill="#707070"/>
<path opacity="0.1" d="M19.4833 27.8832L20.1841 32.0928C20.0161 32.112 19.8481 32.1216 19.6753 32.1216L19.6321 31.3056C19.4881 30.6864 19.3585 29.904 19.1953 29.472L19.4833 27.8832Z" fill="#222222"/>
<path d="M18.4034 45.1104C18.1922 45.1728 17.9138 45.2256 17.2658 45.2016C16.6178 45.1776 15.941 44.928 15.8258 44.8272C15.7106 44.7264 15.4898 44.5056 15.3074 44.4528C15.173 44.4144 14.7074 44.2944 14.4722 44.2368C14.5154 43.8912 14.5634 43.5072 14.573 43.464C14.5874 43.3872 14.6066 43.3536 14.6066 43.3536C14.6066 43.3536 14.7074 43.2576 14.8562 43.3824C15.005 43.5072 15.3362 43.7424 15.3746 43.752C15.413 43.7616 15.7634 43.6032 15.8258 43.5504C15.8882 43.4928 15.8786 43.4208 15.8258 43.2864C15.7682 43.1568 15.6722 42.96 15.6674 42.9024C15.6626 42.8448 16.2338 42.8112 16.2338 42.8112C16.3346 42.8064 16.3442 42.8112 16.4114 42.8736C16.4786 42.936 17.693 44.0688 17.693 44.0688C18.0338 44.2896 18.773 44.5296 18.845 44.5488C18.917 44.5728 18.9986 44.592 19.0322 44.664C19.0466 44.6976 19.0562 44.7408 19.0562 44.7936C18.8594 44.9136 18.5714 45.0624 18.4034 45.1104Z" fill="#F41C5E"/>
<path d="M14.4097 44.7937C14.4145 44.7409 14.4433 44.4961 14.4769 44.2321C14.7121 44.2897 15.1777 44.4097 15.3121 44.4481C15.4897 44.5009 15.7153 44.7265 15.8305 44.8225C15.9457 44.9233 16.6225 45.1681 17.2705 45.1969C17.9185 45.2257 18.1921 45.1681 18.4081 45.1057C18.5761 45.0577 18.8641 44.9089 19.0657 44.7841C19.0657 44.8465 19.0513 44.9185 19.0225 44.9905C18.9649 45.1201 18.5713 45.3409 18.1873 45.4177C17.8033 45.4945 16.3969 45.4177 15.7681 45.3169C15.1393 45.2113 14.7649 45.1153 14.6449 45.0769C14.5249 45.0385 14.4001 44.9137 14.4097 44.7937Z" fill="#DDDDDD"/>
<path d="M23.1456 44.4001C22.9344 44.4625 22.656 44.5153 22.008 44.4913C21.36 44.4673 20.6832 44.2177 20.568 44.1169C20.4528 44.0161 20.232 43.7953 20.0496 43.7425C19.9152 43.7041 19.4496 43.5841 19.2144 43.5265C19.2576 43.1809 19.3104 42.7969 19.3152 42.7537C19.3296 42.6769 19.3488 42.6433 19.3488 42.6433C19.3488 42.6433 19.4496 42.5473 19.5984 42.6721C19.7472 42.7969 20.0784 43.0321 20.1168 43.0417C20.1552 43.0513 20.5056 42.8929 20.568 42.8401C20.6304 42.7825 20.6208 42.7105 20.568 42.5761C20.5104 42.4465 20.4144 42.2497 20.4096 42.1921C20.4048 42.1345 20.976 42.1009 20.976 42.1009C21.0768 42.0961 21.0864 42.1009 21.1536 42.1633C21.2208 42.2257 22.4352 43.3585 22.4352 43.3585C22.776 43.5793 23.5152 43.8193 23.5872 43.8385C23.6592 43.8625 23.7408 43.8817 23.7744 43.9537C23.7888 43.9873 23.7984 44.0305 23.7984 44.0833C23.6064 44.2081 23.3136 44.3521 23.1456 44.4001Z" fill="#F41C5E"/>
<path d="M19.152 44.0833C19.1568 44.0305 19.1856 43.7857 19.2192 43.5217C19.4544 43.5793 19.92 43.6993 20.0544 43.7377C20.232 43.7905 20.4576 44.0161 20.5728 44.1121C20.688 44.2081 21.3648 44.4577 22.0128 44.4865C22.6608 44.5153 22.9344 44.4577 23.1504 44.3953C23.3184 44.3473 23.6064 44.1985 23.808 44.0737C23.808 44.1361 23.7936 44.2081 23.7648 44.2801C23.7072 44.4097 23.3136 44.6305 22.9296 44.7073C22.5456 44.7841 21.1392 44.7073 20.5104 44.6065C19.8816 44.5009 19.5072 44.4049 19.3872 44.3665C19.2672 44.3281 19.1472 44.2081 19.152 44.0833Z" fill="#DDDDDD"/>
<path d="M27.6866 20.2031C27.4418 20.4623 27.1394 20.5823 26.8946 20.5967C26.6978 20.6063 26.597 20.6975 26.5106 20.7839C26.4386 20.8511 26.381 20.9087 26.3282 20.9519C26.2946 20.9807 26.1074 21.2063 26.0018 21.2495C25.9346 21.2783 25.661 21.2303 25.4786 21.1919L25.085 21.8831C25.085 21.8831 25.7426 21.9887 25.8434 22.0223C25.9442 22.0559 26.1506 22.1615 26.3282 22.2575C26.5058 22.3535 26.8178 22.4543 26.957 22.5407C27.1394 22.6559 27.4706 22.9679 27.701 23.1647C27.869 23.3087 27.9746 23.1743 27.9074 23.0543C27.869 22.9871 27.7202 22.8287 27.5474 22.6511C27.4994 22.6031 27.413 22.5167 27.3314 22.4351C27.3266 22.4303 27.2786 22.3727 27.2834 22.3535C27.2834 22.3295 27.3362 22.3295 27.3362 22.3295C27.6482 22.4879 28.1906 22.7855 28.3106 22.8287C28.5554 22.9199 28.733 22.8047 28.4018 22.5695C28.3394 22.5263 27.845 22.2911 27.5906 22.1231C27.581 22.1183 27.5282 22.0751 27.4946 22.0367C27.461 21.9935 27.5426 21.9599 27.5522 21.9551C27.5762 21.9551 27.6098 21.9551 27.6434 21.9551C27.7442 21.9599 27.8786 21.9935 28.085 22.0319C28.3346 22.0751 28.6322 22.1471 28.709 22.1471C29.021 22.1615 29.0354 21.9023 28.7234 21.8591C28.5122 21.8303 28.037 21.7199 27.749 21.6287C27.7298 21.6191 27.6722 21.5951 27.6482 21.5519C27.6338 21.5279 27.6818 21.5087 27.7106 21.5039C27.7154 21.5039 27.725 21.4991 27.725 21.4991C27.9746 21.4559 28.5506 21.4511 28.7714 21.4079C29.0402 21.3551 28.9538 21.1487 28.7378 21.1487C28.1714 21.1535 27.6002 21.1727 27.4706 21.1871C27.4274 21.1919 27.2786 21.1679 27.1394 21.1391H27.1346C27.0242 21.1151 27.0146 21.0431 27.0962 20.9807C27.1778 20.9183 27.6386 20.7263 27.7298 20.5343C27.8498 20.2751 27.7346 20.2175 27.6866 20.2031Z" fill="#FED5B7"/>
<path d="M26.0017 21.2495C25.9345 21.2783 25.6609 21.2303 25.4785 21.1919L25.4833 21.1583L25.5265 20.9567C25.5265 20.9567 25.9345 21.0383 26.0305 21.0287C26.0929 21.0239 26.2321 21.0287 26.3233 20.9519C26.2945 20.9759 26.1073 21.2015 26.0017 21.2495Z" fill="#FED5B7"/>
<path opacity="0.1" d="M26.0017 21.2495C25.9345 21.2783 25.6609 21.2303 25.4785 21.1919L25.4833 21.1583L25.5265 20.9567C25.5265 20.9567 25.9345 21.0383 26.0305 21.0287C26.0929 21.0239 26.2321 21.0287 26.3233 20.9519C26.2945 20.9759 26.1073 21.2015 26.0017 21.2495Z" fill="#222222"/>
<path opacity="0.1" d="M28.5652 21.3983C28.5652 21.3983 28.5364 21.3743 28.522 21.3023C28.5124 21.2303 28.5412 21.1871 28.5412 21.1871C28.5412 21.1871 28.5412 21.2255 28.5508 21.2927C28.5604 21.3599 28.5652 21.3983 28.5652 21.3983Z" fill="#222222"/>
<path opacity="0.1" d="M28.5074 22.0559C28.5074 22.0559 28.4834 22.0223 28.4978 21.9503C28.5074 21.8783 28.5506 21.8447 28.5506 21.8447C28.5506 21.8447 28.541 21.8831 28.5314 21.9503C28.5218 22.0175 28.5074 22.0559 28.5074 22.0559Z" fill="#222222"/>
<path opacity="0.1" d="M28.0321 21.4223C28.0321 21.4223 28.0177 21.3887 28.0081 21.3167C27.9985 21.2447 28.0177 21.2159 28.0177 21.2159C28.0177 21.2159 28.0321 21.2399 28.0417 21.3071C28.0465 21.3743 28.0273 21.4223 28.0321 21.4223Z" fill="#222222"/>
<path opacity="0.1" d="M27.9458 21.9407C27.9458 21.9407 27.9458 21.9023 27.9602 21.8303C27.9746 21.7583 28.0034 21.7391 28.0034 21.7391C28.0034 21.7391 28.0082 21.7679 27.9938 21.8351C27.9794 21.9023 27.9458 21.9407 27.9458 21.9407Z" fill="#222222"/>
<path opacity="0.1" d="M28.1519 22.7231C28.1519 22.7231 28.1423 22.6847 28.1711 22.6175C28.1999 22.5503 28.2527 22.5311 28.2527 22.5311C28.2527 22.5311 28.2287 22.5647 28.2047 22.6271C28.1759 22.6895 28.1519 22.7231 28.1519 22.7231Z" fill="#222222"/>
<path opacity="0.1" d="M27.5812 22.9967C27.5812 22.9967 27.5764 22.9871 27.6292 22.9343C27.682 22.8863 27.7108 22.8815 27.7108 22.8815C27.7108 22.8815 27.7012 22.9103 27.6532 22.9535C27.6052 22.9967 27.5812 22.9967 27.5812 22.9967Z" fill="#222222"/>
<path opacity="0.1" d="M27.3268 22.7616C27.3268 22.7616 27.322 22.752 27.3748 22.6992C27.4276 22.6512 27.4564 22.6464 27.4564 22.6464C27.4564 22.6464 27.4468 22.6752 27.3988 22.7184C27.3508 22.7616 27.3268 22.7616 27.3268 22.7616Z" fill="#222222"/>
<path opacity="0.1" d="M27.6724 22.4639C27.6724 22.4639 27.6772 22.4255 27.7108 22.3583C27.7396 22.2911 27.7732 22.2767 27.7732 22.2767C27.7732 22.2767 27.7732 22.3055 27.7444 22.3679C27.7156 22.4303 27.6724 22.4639 27.6724 22.4639Z" fill="#222222"/>
<path opacity="0.1" d="M25.949 22.0223C25.949 22.0223 25.8722 21.9263 25.8866 21.8255C25.901 21.7247 25.9058 21.6719 25.9058 21.6719C25.9058 21.6719 25.8242 21.7679 25.8482 21.8735C25.877 21.9791 25.949 22.0223 25.949 22.0223Z" fill="#222222"/>
<path opacity="0.1" d="M26.8467 22.3055C26.8467 22.3055 26.9859 22.0559 27.1011 21.8495C27.2163 21.6479 27.4323 21.4559 27.4323 21.4559C27.4323 21.4559 27.3267 21.4943 27.1827 21.6671C27.0579 21.8159 27.0003 21.9023 26.9187 22.0607C26.8419 22.2047 26.8467 22.3055 26.8467 22.3055Z" fill="#222222"/>
<path opacity="0.1" d="M27.2447 21.3647C27.2447 21.3647 27.0815 21.6095 26.9471 21.7439C26.7743 21.9167 26.5151 22.0031 26.5151 22.0031C26.5151 22.0031 26.8079 21.8111 26.9183 21.7007C27.0239 21.5951 27.2447 21.3647 27.2447 21.3647Z" fill="#222222"/>
<path opacity="0.1" d="M27.5954 22.1232C27.5954 22.1232 27.4082 22.0848 27.4082 22.0176C27.4082 21.9456 27.557 21.9504 27.557 21.9504C27.557 21.9504 27.461 21.9888 27.4994 22.032C27.533 22.08 27.5954 22.1232 27.5954 22.1232Z" fill="#222222"/>
<path opacity="0.1" d="M27.7538 21.6239C27.7538 21.6239 27.5762 21.6191 27.5714 21.5519C27.5666 21.4799 27.725 21.4943 27.725 21.4943C27.725 21.4943 27.6242 21.5135 27.6482 21.5471C27.677 21.5951 27.7538 21.6239 27.7538 21.6239Z" fill="#222222"/>
<path opacity="0.1" d="M27.3315 22.4352C27.3315 22.4352 27.1971 22.3632 27.2211 22.3296C27.2451 22.2912 27.3363 22.3296 27.3363 22.3296C27.3363 22.3296 27.2835 22.3296 27.2835 22.3536C27.2835 22.3776 27.3315 22.4352 27.3315 22.4352Z" fill="#222222"/>
<path d="M20.1552 9.24478C19.68 9.08638 19.1616 9.18718 18.6816 9.32638C18.2832 9.44158 17.8848 9.58558 17.5584 9.83518C16.848 10.3824 16.5984 11.3424 16.5552 12.2352C16.536 12.6288 16.536 13.0512 16.3056 13.368C16.1136 13.6368 15.792 13.7808 15.5136 13.968C15.24 14.1552 14.9808 14.4576 15.0384 14.784C15.0912 15.1008 15.4224 15.336 15.4032 15.6528C15.384 16.0176 14.9568 16.1808 14.6496 16.3776C14.1456 16.6992 13.848 17.3184 13.9152 17.9136C13.9344 18.072 13.9776 18.2352 14.0784 18.36C14.2128 18.528 14.424 18.6096 14.6256 18.6816C14.8416 18.7584 15.0576 18.84 15.2688 18.9168C15.3168 18.936 15.3696 18.9552 15.4224 18.9456C15.4704 18.936 15.5088 18.9072 15.5472 18.8784C15.7152 18.7536 15.888 18.6288 16.056 18.504C16.0656 18.7008 16.0704 18.8976 16.08 19.0944C16.4544 19.1904 16.824 19.2864 17.1984 19.3824C17.2416 19.392 17.2848 19.4016 17.328 19.3968C17.3808 19.3872 17.4288 19.3488 17.472 19.3104C17.6064 19.1952 17.736 19.0848 17.8704 18.9696C17.856 19.2192 17.88 19.4736 17.9424 19.7136C19.5312 20.0064 21.2064 19.7904 22.6656 19.104C22.6704 18.504 22.6752 17.904 22.6752 17.304C22.6752 17.088 22.68 16.8672 22.7568 16.6656C22.9392 16.1904 23.496 15.9072 23.5824 15.408C23.6544 15.0048 23.3904 14.6256 23.2128 14.256C23.0208 13.8576 22.9248 13.4112 22.9344 12.9696C22.9392 12.6192 23.0112 12.2688 23.0064 11.9184C23.0016 11.568 22.92 11.1936 22.6656 10.9488C22.4112 10.6992 22.0224 10.6128 21.8016 10.3344C21.6816 10.176 21.6288 9.97918 21.528 9.80638C21.312 9.43198 20.8656 9.20638 20.4336 9.25918L20.1552 9.24478Z" fill="#7F4924"/>
<path d="M25.9006 20.6448C25.6702 21.1728 25.435 21.7008 25.2046 22.2288C24.9118 22.1568 24.5998 22.1808 24.3166 22.2912C24.139 22.3632 23.971 22.464 23.779 22.4832C23.5678 22.5024 23.3614 22.4064 23.1694 22.3104C22.9918 22.224 22.8094 22.1376 22.6318 22.0464C22.603 22.032 22.5742 22.0176 22.5454 22.0032C22.5214 21.9936 22.5022 21.9792 22.4782 21.9696C22.4158 21.9408 22.3582 21.912 22.2958 21.8832C22.2478 21.8592 22.195 21.8352 22.147 21.8112C22.123 21.8016 22.099 21.7872 22.075 21.7728C22.051 21.7632 22.027 21.7488 22.003 21.7392C21.979 21.7296 21.955 21.7152 21.9358 21.7056C21.9118 21.696 21.8926 21.6864 21.8734 21.6768C21.8542 21.6672 21.835 21.6576 21.8158 21.648C21.7774 21.6288 21.7486 21.6144 21.7246 21.6048C21.4558 21.4704 21.163 21.3168 21.043 21.0432L22.1134 18.5856C22.1614 18.5808 22.2334 18.5808 22.315 18.5856C22.3822 18.5904 22.459 18.5952 22.5358 18.6048H22.5406C22.6894 18.6192 22.8382 18.648 22.9102 18.6768C23.083 18.7584 23.2318 18.8832 23.3326 19.0416C23.4238 19.1856 23.4766 19.3488 23.5726 19.4832C23.7406 19.7184 24.0238 19.8432 24.2926 19.9584C24.8302 20.1888 25.363 20.4144 25.9006 20.6448Z" fill="#8529A6"/>
<path opacity="0.1" d="M22.963 22.2096C22.939 22.2 22.6654 22.0656 22.6318 22.0464C22.603 22.032 22.5742 22.0176 22.5454 22.0032C22.5262 21.9936 22.5022 21.9792 22.4782 21.9696C22.3774 21.9216 22.2574 21.864 22.147 21.8064C22.123 21.792 22.099 21.7824 22.075 21.768C22.051 21.7584 22.027 21.744 22.003 21.7344C21.979 21.7248 21.955 21.7104 21.9358 21.7008C21.9118 21.6912 21.8926 21.6816 21.8734 21.672C21.8542 21.6624 21.835 21.6528 21.8158 21.6432C21.7774 21.624 21.7486 21.6096 21.7246 21.6C21.4558 21.4656 21.163 21.312 21.043 21.0384L22.315 18.5808C22.3822 18.5856 22.4062 18.5856 22.4206 18.5856L22.963 22.2096Z" fill="#222222"/>
<path d="M22.2144 22.608C22.2144 23.0544 22.3248 23.6784 22.32 24.1248C22.3152 24.5712 22.1616 25.0608 21.7728 25.2864C21.2448 25.5936 20.5776 25.2768 19.968 25.3104C19.2048 25.3536 18.5712 25.9488 17.8176 26.0496C16.944 26.1648 16.0944 25.5936 15.216 25.6464C15.1872 25.6464 15.1584 25.632 15.144 25.6032C14.8128 24.84 15.144 23.7744 15.4752 23.0064C15.8016 22.2432 16.3008 20.6592 15.9792 19.8672C15.9648 19.8288 15.9216 19.8144 15.8832 19.8288C15.216 20.1216 14.0784 20.2896 13.3824 20.3712C13.0176 20.4144 11.04 20.7216 10.68 20.8128C9.99841 20.9904 9.02881 20.808 8.31361 20.7888C8.28481 20.7888 8.26081 20.7696 8.25121 20.7456C8.04961 20.2656 7.95841 19.5168 7.93921 19.3392C7.93441 19.3152 7.94401 19.2912 7.96321 19.2768C8.12161 19.1424 8.88961 18.4992 9.28321 18.3264C9.72481 18.1392 10.2 18.0336 10.632 17.8272C11.5392 17.3904 14.328 16.6416 15.0576 15.9456C15.7824 15.2544 15.9744 15.3936 17.6256 14.5728C17.64 14.568 17.6544 14.5632 17.6688 14.5632L18.2352 14.6304C19.368 14.7024 20.6784 14.9136 21.2304 15.9024C21.4896 16.368 22.3632 17.784 22.416 18.7296C22.4544 19.5744 22.2144 21.7584 22.2144 22.608Z" fill="#8529A6"/>
<path opacity="0.1" d="M17.707 18.4656C17.443 20.3856 15.1294 24.4848 15.163 25.6512C14.7934 24.8784 15.1342 23.7936 15.475 23.0064C15.811 22.2192 16.3342 20.5632 15.9454 19.8C15.9454 19.8 17.491 18.8928 17.707 18.4656Z" fill="#222222"/>
<path d="M21.4512 13.9151C21.4416 14.0111 21.4272 14.1071 21.3936 14.1983C21.3408 14.3519 21.2496 14.4911 21.1104 14.5679C20.7888 14.7407 20.3136 14.5295 20.0352 14.4959C19.9152 14.8415 19.776 15.1775 19.6224 15.5087C19.5984 15.5567 19.5744 15.6095 19.5264 15.6335C19.488 15.6527 19.44 15.6527 19.3968 15.6479C18.7488 15.5855 18.144 15.2015 17.808 14.6447C18.0624 14.0447 18.24 13.4111 18.3408 12.7631C18.1248 12.9023 17.8224 12.7055 17.7408 12.4607C17.664 12.2207 17.7264 11.9423 17.904 11.7647C18.0816 11.5871 18.3552 11.5103 18.5952 11.5823C18.672 11.1839 18.7488 10.7855 18.8256 10.3823L21.7248 10.9199L21.4512 13.9151Z" fill="#FED5B7"/>
<path d="M21.7777 10.6128C21.8449 10.9536 21.6145 11.3232 21.2785 11.4144C21.0721 11.472 20.8561 11.4288 20.6449 11.4288C20.3425 11.424 20.0305 11.5056 19.8049 11.7024C19.5793 11.8992 19.4641 12.24 19.5697 12.5184C19.3633 12.48 19.1377 12.4272 19.0129 12.2592C18.8929 12.096 18.8881 11.8464 18.7057 11.7552C18.4945 11.6448 18.2209 11.8656 18.0049 11.7696C17.8129 11.688 17.7889 11.4144 17.8753 11.2224C17.9617 11.0304 18.1153 10.8768 18.1969 10.6848C18.3073 10.4256 18.2737 10.1184 18.3985 9.86883C18.5137 9.63363 18.7585 9.48003 19.0129 9.41763C19.2673 9.35523 19.5361 9.36483 19.7953 9.39363C20.4913 9.46563 21.2449 9.68163 21.6193 10.2768L21.7777 10.6128Z" fill="#7F4924"/>
<path opacity="0.1" d="M20.0354 14.5007L19.1426 14.2319L19.781 15.1487L20.0354 14.5007Z" fill="#222222"/>
<path d="M42.7061 27.6672C42.6293 27.7008 40.3685 27.7632 40.3685 27.7632C40.2293 27.5664 39.6149 26.9856 39.4709 26.7936L37.9253 26.9664C38.1989 27.4848 39.4373 28.944 39.7493 29.0256C40.0277 29.0976 40.3205 29.064 40.6037 29.0256C41.2853 28.9344 42.7061 28.4016 42.8645 28.416L42.7061 27.6672Z" fill="#E6AD81"/>
<path opacity="0.1" d="M39.7541 27.1055L38.7653 28.0847L38.5205 27.7919L39.5909 26.9327L39.7541 27.1055Z" fill="#222222"/>
<path d="M31.0853 33.9744C30.8597 34.176 30.9605 34.776 31.1429 35.0304C31.3301 35.2848 31.6181 35.4192 31.8965 35.448C32.1749 35.4816 32.4629 35.4576 32.7317 35.5392C33.1397 35.6592 34.7525 36.408 35.1077 36.6816C35.4629 36.9552 35.8901 37.1808 36.2981 37.056C36.4613 37.008 36.6101 36.9024 36.7685 36.8448C37.1909 36.6864 37.9061 36.9456 38.3189 36.768C38.8085 36.5616 38.8517 35.7168 38.8421 35.04C38.3525 35.3664 37.6373 35.2752 37.1573 34.9248C36.6773 34.5744 36.2741 34.08 35.7749 33.7632C34.8581 33.1824 32.4821 32.856 31.4693 33.1104L31.0853 33.9744Z" fill="#F41C5E"/>
<g opacity="0.1">
<path d="M31.0853 33.9744C30.8597 34.176 30.9605 34.776 31.1429 35.0304C31.3301 35.2848 31.6181 35.4192 31.8965 35.448C32.1749 35.4816 32.4629 35.4576 32.7317 35.5392C33.1397 35.6592 34.7525 36.408 35.1077 36.6816C35.4629 36.9552 35.8901 37.1808 36.2981 37.056C36.4613 37.008 36.6101 36.9024 36.7685 36.8448C37.1909 36.6864 37.9061 36.9456 38.3189 36.768C38.8085 36.5616 38.8517 35.7168 38.8421 35.04C38.3525 35.3664 37.6373 35.2752 37.1573 34.9248C36.6773 34.5744 36.2741 34.08 35.7749 33.7632C34.8581 33.1824 32.4821 32.856 31.4693 33.1104L31.0853 33.9744Z" fill="#222222"/>
</g>
<path d="M37.7139 34.56C37.7139 34.968 37.7043 35.376 37.6899 35.7792C37.5987 38.1168 37.2915 40.4496 36.7635 42.7296C36.7203 42.9168 36.6675 43.1184 36.5235 43.248C36.2259 43.5072 35.7699 43.32 35.4291 43.1184C36.1443 41.4144 35.2755 39.4272 35.6979 37.632C35.7459 37.44 35.8035 37.248 35.8131 37.0512C35.8275 36.7968 35.7555 36.5472 35.6979 36.3024C35.6595 36.144 35.6211 35.9856 35.5923 35.8224C35.5107 35.4192 35.4531 35.0112 35.4147 34.6032C35.3811 34.2096 35.3667 33.8112 35.3715 33.4128L35.8755 33.1872C36.4899 33.1248 37.1139 33.1872 37.7091 33.36C37.7091 33.7632 37.7139 34.1616 37.7139 34.56Z" fill="#E6AD81"/>
<path opacity="0.1" d="M37.7137 34.5601C37.7137 34.9681 37.6993 35.4385 37.6849 35.8465C36.6241 35.5585 35.9041 35.7457 35.5969 35.8753C35.5153 35.4721 35.4481 35.0161 35.4097 34.6081L37.7137 34.5601Z" fill="#222222"/>
<path d="M35.0162 33.192C34.9922 33.4896 34.9682 33.792 34.9298 34.0896C34.8866 34.4544 34.8338 34.8192 34.7714 35.1792C34.7666 35.1984 34.7666 35.2224 34.7618 35.2416C34.6754 35.736 34.565 36.2448 34.301 36.672C34.037 37.0992 33.5858 37.4496 33.0818 37.4592C32.7218 37.4688 32.381 37.3152 32.0546 37.1616C31.0322 36.6816 30.0098 36.2064 28.9922 35.7264C28.9442 35.7024 28.8914 35.6784 28.8578 35.6352C28.8242 35.5872 28.8194 35.5248 28.8146 35.4624C28.7954 35.1312 28.8194 34.9728 28.7954 34.6416C30.1874 34.6272 31.6754 34.488 32.7074 35.4192C32.6978 35.3184 32.693 35.2128 32.6882 35.112C32.6834 35.0016 32.6786 34.8864 32.6738 34.776V34.7712C32.6546 34.2192 32.6594 33.6672 32.6882 33.12L32.7986 32.9568C32.7794 32.9664 32.741 32.9376 32.7506 32.9088C32.765 32.8752 32.8082 32.8704 32.8466 32.8656C33.5906 32.8512 34.325 32.9616 35.0162 33.192Z" fill="#E6AD81"/>
<path opacity="0.1" d="M34.9347 34.0896C34.8915 34.4544 34.8387 34.8192 34.7763 35.1792C33.5907 34.6944 32.7987 34.9968 32.6931 35.0544C32.6883 34.944 32.6835 34.8288 32.6787 34.7184L32.6835 34.776L32.6787 33.9408L34.9347 34.0896Z" fill="#222222"/>
<path d="M33.0725 26.6352C33.1637 26.7408 32.7461 26.5824 32.6981 26.5104C32.6501 26.4384 32.6309 26.2224 32.6117 26.136C32.5157 25.6704 32.4485 25.1952 32.4101 24.72C32.4005 24.6048 32.4101 24.408 32.5205 24.3648C32.5781 24.3408 32.6453 24.336 32.6981 24.3648C32.9093 24.4848 33.0149 24.8064 33.0917 25.0416C33.1685 25.272 33.2309 25.512 33.2309 25.7568C33.2357 26.0016 33.1733 26.3232 33.0197 26.5104L33.0725 26.6352Z" fill="#F41C5E"/>
<g opacity="0.1">
<path d="M33.0725 26.6352C33.1637 26.7408 32.7461 26.5824 32.6981 26.5104C32.6501 26.4384 32.6309 26.2224 32.6117 26.136C32.5157 25.6704 32.4485 25.1952 32.4101 24.72C32.4005 24.6048 32.4101 24.408 32.5205 24.3648C32.5781 24.3408 32.6453 24.336 32.6981 24.3648C32.9093 24.4848 33.0149 24.8064 33.0917 25.0416C33.1685 25.272 33.2309 25.512 33.2309 25.7568C33.2357 26.0016 33.1733 26.3232 33.0197 26.5104L33.0725 26.6352Z" fill="#222222"/>
</g>
<path d="M30.202 22.4016C30.226 22.4832 31.5796 24.2928 31.5796 24.2928C31.8196 24.2832 32.6548 24.4032 32.8996 24.3936L33.7204 25.7136C33.1444 25.8192 31.234 25.7568 30.9748 25.56C30.7492 25.3872 30.5908 25.1376 30.442 24.888C30.0868 24.2976 29.626 22.8528 29.5156 22.7376L30.202 22.4016Z" fill="#E6AD81"/>
<path opacity="0.1" d="M32.3477 25.7568L32.5589 24.3792C32.6309 24.3888 32.6117 24.384 32.6933 24.3888C32.7653 24.3936 32.8325 24.3936 32.8997 24.3936C33.1733 24.8304 33.4469 25.272 33.7205 25.7136C33.4421 25.7424 33.1397 25.7616 32.8181 25.7616C32.5205 25.7664 32.6021 25.7712 32.3477 25.7568Z" fill="#222222"/>
<path d="M39.9651 26.8273C39.9651 26.8273 39.2595 27.2161 38.9379 27.5281C38.6931 27.7681 38.4483 28.0273 38.3427 28.3537C38.1891 28.8145 38.3379 29.3137 38.4531 29.7841C38.6547 30.6001 38.7219 33.5377 38.8275 34.3729C38.8611 34.6225 38.8755 35.2657 38.7555 35.4865C38.5683 35.8321 38.1123 35.5441 37.7235 35.4913C37.3347 35.4385 36.9459 35.2993 36.5523 35.3617C36.3507 35.3953 36.1587 35.4817 35.9523 35.5009C35.4243 35.5585 34.9587 35.1889 34.5027 34.9153C34.1043 34.6753 32.3955 34.1569 31.9395 34.0609C31.5843 33.9841 31.0851 34.0129 30.9555 34.3537C30.9315 34.2817 30.9219 34.1953 30.9219 34.0993C30.9219 33.0481 32.1795 30.7009 32.4531 29.9185C32.7507 29.0593 33.1971 28.2673 33.5715 27.4369C33.6339 27.2977 33.6963 27.1441 33.6579 27.0001C33.6147 26.8273 32.9811 26.6977 32.7555 26.5633C32.7123 26.5393 32.6835 26.5105 32.6787 26.4865C32.6787 26.4865 32.7363 26.5489 32.7843 26.5105C32.7987 26.4961 32.8179 26.4769 32.8323 26.4337C33.0435 25.7953 32.9139 24.8545 32.5923 24.3889C32.5875 24.3793 32.5731 24.3649 32.5347 24.3697C32.5443 24.3649 32.5875 24.3553 32.5971 24.3505C33.2931 24.1441 33.7155 24.1585 34.3203 24.0481C35.0211 23.9185 35.7555 23.9809 36.4275 24.2161L36.6771 24.2257C37.0035 24.1057 37.2627 24.3313 37.6035 24.3841C39.0387 24.5905 39.5907 26.2321 39.9651 26.8273Z" fill="#F41C5E"/>
<path opacity="0.1" d="M34.2532 26.3041L30.9268 34.0945C30.9268 33.0433 32.1844 30.6961 32.458 29.9137C32.7556 29.0545 33.202 28.2625 33.5764 27.4321C33.6388 27.2929 33.7012 27.1393 33.6628 26.9953C33.6196 26.8225 32.986 26.6929 32.7604 26.5585L32.7892 26.5057C32.8084 26.5057 33.8788 26.9137 34.2532 26.3041Z" fill="#222222"/>
<path d="M36.5138 19.4256C36.797 19.0464 37.3394 18.8784 37.7906 19.0368C38.1938 19.176 39.8258 19.5552 39.677 21.48C39.6626 21.6672 39.5378 21.84 39.557 22.032C39.5666 22.1376 39.6098 22.2384 39.653 22.3344C39.7586 22.5744 39.8786 22.8192 39.893 23.0832C39.9026 23.2656 39.8594 23.4576 39.7394 23.5968C39.6194 23.736 39.4226 23.8128 39.245 23.76C39.2498 23.5632 39.1682 23.3616 39.0242 23.2224C39.0002 23.448 39.0002 23.6736 39.0242 23.8944C38.5202 24.024 38.0066 24.1584 37.4882 24.1584C37.0466 24.1584 36.6098 24.0624 36.173 23.9664C35.885 23.904 35.597 23.8416 35.3138 23.7792C35.2802 23.6256 35.2322 23.4768 35.1698 23.3376C35.1362 23.5008 35.0642 23.6592 34.9586 23.7888C34.6802 23.7072 34.397 23.6352 34.1138 23.5776C34.3298 23.2752 34.4402 22.896 34.4258 22.5264C34.4162 22.3536 34.3826 22.176 34.4162 22.0032C34.4978 21.576 34.9442 21.3264 35.1362 20.9376C35.213 20.7792 35.2466 20.6064 35.3282 20.4528C35.4626 20.2032 35.7026 20.0352 35.9378 19.8768C36.1778 19.7136 36.4178 19.5504 36.6578 19.392C36.8834 19.2384 37.1522 19.0752 37.4162 19.1568L36.5138 19.4256Z" fill="#7F4924"/>
<path d="M39.3168 21.1488C39.24 21.6768 39.1584 22.2096 39.0816 22.7376C39.0384 23.0256 38.9952 23.3184 38.8512 23.568C38.7072 23.8176 38.4384 24.0192 38.1504 23.9952C37.992 23.9808 37.5696 23.856 37.5696 23.856C37.5168 23.904 37.4592 24.5616 37.3968 24.7488C37.3824 24.7968 37.3632 24.8448 37.3248 24.8736C37.272 24.9168 37.2 24.9168 37.1328 24.9168C36.7296 24.9072 36.3024 24.8832 35.976 24.6528C35.9136 24.6048 35.8512 24.552 35.8272 24.4752C35.8032 24.3936 35.8272 24.3072 35.8512 24.2304C36 23.7456 36.1488 23.2608 36.2976 22.7808C36.1056 22.9392 35.8128 22.7424 35.712 22.5168C35.6064 22.2864 35.6016 21.9936 35.7696 21.8016C35.9328 21.6096 36.2928 21.6 36.4176 21.816C36.5328 21.3024 36.648 20.7888 36.768 20.2752C37.6704 20.1936 38.5968 20.4384 39.3408 20.9568L39.3168 21.1488Z" fill="#E6AD81"/>
<g opacity="0.45">
<path opacity="0.1" d="M37.565 23.856L36.5762 23.52L37.4834 24.2976L37.565 23.856Z" fill="#222222"/>
</g>
<path d="M36.0676 21.6624C36.346 21.6576 36.5956 21.9408 36.5524 22.2144C36.778 22.1808 36.8788 21.9024 36.8644 21.6768C36.8452 21.4512 36.7492 21.2304 36.7684 21C36.7828 20.7792 36.9172 20.5632 37.1092 20.4528C37.3012 20.3376 37.5508 20.328 37.7524 20.424C37.834 20.4624 37.906 20.5152 37.9972 20.5296C38.0644 20.5392 38.1268 20.5248 38.194 20.5248C38.4628 20.5152 38.6884 20.7168 38.8996 20.88C39.1156 21.0432 39.4036 21.1872 39.6436 21.0624C39.8308 20.9616 39.9076 20.7168 39.85 20.5152C39.7876 20.3136 39.6148 20.16 39.418 20.0832C39.298 20.0352 39.1684 20.016 39.0484 19.9584C38.6788 19.7808 38.5348 19.296 38.17 19.1184C37.882 18.9792 37.5364 19.0608 37.2532 19.2096C36.97 19.3536 36.7156 19.5552 36.418 19.6704C36.2068 19.752 35.9668 19.7856 35.7988 19.9392C35.6596 20.064 35.5924 20.2464 35.5444 20.4288C35.41 20.9328 35.3236 21.4896 35.65 21.8928C35.722 21.7488 35.962 21.6816 36.1204 21.6912L36.0676 21.6624Z" fill="#7F4924"/>
<path d="M36.605 19.632C36.7538 19.56 36.8402 19.392 36.8306 19.224C36.821 19.0608 36.7298 18.9072 36.605 18.8016C36.365 18.6 35.9954 18.576 35.7314 18.7392C35.4674 18.9024 35.3234 19.248 35.3954 19.5504C35.4674 19.8528 35.7458 20.0976 36.0578 20.1264L36.605 19.632Z" fill="#7F4924"/>
<path d="M38.6544 19.7232C38.5488 19.5264 38.5824 19.2672 38.736 19.1088C38.9376 18.8976 39.2736 18.888 39.5424 18.9984C39.7104 19.0656 39.8784 19.1904 39.9168 19.3728C39.9504 19.512 39.8976 19.6608 39.8352 19.7856C39.7728 19.9104 39.6912 20.0304 39.576 20.1072C39.4416 20.1936 39.2688 20.208 39.1104 20.1744C38.952 20.1408 38.808 20.064 38.6784 19.9728L38.6544 19.7232Z" fill="#7F4924"/>
<path d="M28.4164 34.6416H28.9732L28.9396 35.6976L28.0708 35.3712L28.3396 34.512L28.4164 34.6416Z" fill="#DDDDDD"/>
<path d="M26.8417 36.8881C26.8321 36.7297 26.8321 36.5281 26.9473 36.0817C27.0625 35.6353 27.3361 35.1985 27.4225 35.1313C27.5089 35.0641 27.6961 34.9441 27.7633 34.8289C27.8113 34.7425 27.9649 34.4353 28.0369 34.2769C28.2721 34.3585 28.5313 34.4497 28.5601 34.4641C28.6081 34.4881 28.6321 34.5025 28.6321 34.5025C28.6321 34.5025 28.6849 34.5841 28.5745 34.6705C28.4641 34.7569 28.2529 34.9537 28.2385 34.9777C28.2241 35.0017 28.2865 35.2705 28.3153 35.3233C28.3441 35.3761 28.4017 35.3809 28.4977 35.3617C28.5985 35.3425 28.7473 35.3041 28.7905 35.3089C28.8337 35.3137 28.7713 35.7169 28.7713 35.7169C28.7617 35.7889 28.7569 35.7937 28.6993 35.8321C28.6465 35.8705 27.6769 36.5521 27.6769 36.5521C27.4705 36.7537 27.1969 37.2385 27.1681 37.2865C27.1441 37.3297 27.1153 37.3873 27.0625 37.4017C27.0385 37.4065 27.0049 37.4065 26.9665 37.4017C26.9137 37.2385 26.8513 37.0129 26.8417 36.8881Z" fill="#F41C5E"/>
<path d="M27.6531 34.152C27.6915 34.1616 27.8547 34.2192 28.0371 34.2816C27.9603 34.4352 27.8115 34.7472 27.7635 34.8336C27.7011 34.9488 27.5091 35.0736 27.4227 35.136C27.3363 35.1984 27.0627 35.6352 26.9475 36.0864C26.8323 36.5376 26.8275 36.7344 26.8419 36.8928C26.8515 37.0176 26.9091 37.2432 26.9667 37.3968C26.9235 37.3872 26.8755 37.368 26.8275 37.3344C26.7459 37.2768 26.6499 36.9648 26.6499 36.6864C26.6547 36.408 26.9139 35.4384 27.0771 35.0112C27.2403 34.584 27.3651 34.3392 27.4083 34.2624C27.4515 34.1856 27.5667 34.128 27.6531 34.152Z" fill="#DDDDDD"/>
<path d="M35.4245 43.1232L35.6117 42.5232L36.7589 42.7152L36.5813 43.4496L35.4053 43.3056L35.4245 43.1232Z" fill="#DDDDDD"/>
<path d="M37.5123 44.928C37.3539 44.9184 37.1571 44.8896 36.7251 44.712C36.2979 44.5392 35.8995 44.208 35.8467 44.1168C35.7939 44.0208 35.6979 43.8192 35.5923 43.7376C35.5107 43.68 35.2275 43.488 35.0835 43.392C35.1939 43.1712 35.3235 42.9216 35.3379 42.8976C35.3667 42.8496 35.3859 42.8304 35.3859 42.8304C35.3859 42.8304 35.4771 42.792 35.5443 42.912C35.6115 43.032 35.7795 43.272 35.8035 43.2864C35.8275 43.3008 36.1011 43.2816 36.1539 43.2576C36.2115 43.2336 36.2211 43.1808 36.2163 43.08C36.2115 42.9792 36.1923 42.8256 36.2019 42.7824C36.2115 42.744 36.6003 42.8544 36.6003 42.8544C36.6675 42.8736 36.6723 42.8832 36.7011 42.9408C36.7299 42.9984 37.2771 44.0496 37.2771 44.0496C37.4499 44.28 37.8915 44.6208 37.9347 44.6496C37.9779 44.6784 38.0307 44.712 38.0355 44.7696C38.0403 44.7936 38.0355 44.8272 38.0211 44.8656C37.8675 44.904 37.6371 44.9328 37.5123 44.928Z" fill="#F41C5E"/>
<path d="M34.9059 43.752C34.9203 43.7184 34.9971 43.56 35.0835 43.392C35.2275 43.488 35.5155 43.68 35.5923 43.7376C35.6979 43.8192 35.7939 44.0208 35.8467 44.1168C35.8995 44.2128 36.2931 44.5392 36.7251 44.712C37.1571 44.8848 37.3539 44.9136 37.5123 44.928C37.6371 44.9376 37.8675 44.9088 38.0307 44.8704C38.0163 44.9136 37.9923 44.9568 37.9539 45C37.8867 45.072 37.5651 45.1296 37.2915 45.0864C37.0179 45.0432 36.0867 44.6544 35.6931 44.4336C35.2995 44.2128 35.0691 44.0544 34.9971 44.0016C34.9251 43.9488 34.8723 43.8336 34.9059 43.752Z" fill="#DDDDDD"/>
<path d="M30.4658 21.3936C30.341 21.5952 30.317 21.8064 30.3506 21.9648C30.3746 22.0896 30.3362 22.1712 30.2978 22.2432C30.2642 22.3008 30.2402 22.3488 30.221 22.3872C30.2114 22.4112 30.0962 22.5696 30.0866 22.6464C30.077 22.6944 30.1538 22.8576 30.2114 22.968L29.7842 23.1888C29.7842 23.1888 29.6642 22.9344 29.6258 22.8768C29.5874 22.8192 29.4866 22.704 29.3954 22.608C29.3042 22.512 29.189 22.3296 29.1074 22.2528C29.0066 22.1568 28.7474 21.9984 28.5842 21.8832C28.4642 21.8016 28.5314 21.7104 28.6226 21.7344C28.6706 21.7488 28.7954 21.816 28.9394 21.8976C28.9778 21.9216 29.045 21.96 29.1122 21.9984C29.117 21.9984 29.1602 22.0224 29.1746 22.0176C29.189 22.0128 29.1794 21.9792 29.1794 21.9792C29.0258 21.8064 28.7474 21.5088 28.6994 21.4416C28.6034 21.3024 28.6466 21.168 28.8482 21.3408C28.8866 21.3744 29.117 21.648 29.2706 21.7824C29.2754 21.7872 29.309 21.816 29.3426 21.8304C29.3762 21.8448 29.3858 21.7872 29.3858 21.7824C29.381 21.768 29.3762 21.7488 29.3714 21.7248C29.3522 21.6624 29.309 21.5808 29.2514 21.456C29.1794 21.3024 29.0882 21.1248 29.0738 21.0768C29.0114 20.88 29.1794 20.8272 29.2562 21.0192C29.309 21.1488 29.4626 21.432 29.5682 21.6C29.5778 21.6096 29.6018 21.6432 29.6354 21.6528C29.6546 21.6576 29.6546 21.624 29.6546 21.6048C29.6546 21.6 29.6546 21.5952 29.6546 21.5952C29.6402 21.4272 29.5442 21.0624 29.5394 20.9136C29.5298 20.7312 29.6738 20.7552 29.7074 20.8896C29.8034 21.2496 29.885 21.6192 29.8946 21.7008C29.8994 21.7296 29.9378 21.8208 29.981 21.9024C30.0146 21.9696 30.0626 21.9648 30.0866 21.9024C30.1154 21.84 30.1586 21.5136 30.2642 21.4224C30.389 21.3024 30.4466 21.3648 30.4658 21.3936Z" fill="#E6AD81"/>
<path d="M30.0819 22.6416C30.0723 22.6896 30.1491 22.8528 30.2067 22.9632L30.2259 22.9536L30.3459 22.8912C30.3459 22.8912 30.2259 22.6416 30.2163 22.584C30.2115 22.5456 30.1827 22.4544 30.2163 22.3824C30.2067 22.4064 30.0915 22.5648 30.0819 22.6416Z" fill="#E6AD81"/>
<path opacity="0.1" d="M29.5586 21.0336C29.5586 21.0336 29.5778 21.048 29.6258 21.0432C29.6738 21.0384 29.6978 21.0096 29.6978 21.0096C29.6978 21.0096 29.6738 21.0144 29.6258 21.0192C29.5778 21.024 29.5586 21.0336 29.5586 21.0336Z" fill="#222222"/>
<path opacity="0.1" d="M29.146 21.1776C29.146 21.1776 29.17 21.1872 29.2132 21.168C29.2564 21.1488 29.2708 21.1152 29.2708 21.1152C29.2708 21.1152 29.2468 21.1296 29.2084 21.144C29.17 21.1584 29.146 21.1776 29.146 21.1776Z" fill="#222222"/>
<path opacity="0.1" d="M29.6304 21.3793C29.6304 21.3793 29.6544 21.3841 29.7024 21.3793C29.7504 21.3745 29.7648 21.3553 29.7648 21.3553C29.7648 21.3553 29.7456 21.3505 29.7024 21.3553C29.6592 21.3601 29.6304 21.3793 29.6304 21.3793Z" fill="#222222"/>
<path opacity="0.1" d="M29.314 21.5184C29.314 21.5184 29.338 21.5136 29.3812 21.4896C29.4244 21.4656 29.434 21.4464 29.434 21.4464C29.434 21.4464 29.4148 21.4512 29.3764 21.4704C29.3332 21.4944 29.314 21.5184 29.314 21.5184Z" fill="#222222"/>
<path opacity="0.1" d="M28.7808 21.5185C28.7808 21.5185 28.8048 21.5185 28.8432 21.4897C28.8816 21.4609 28.8864 21.4225 28.8864 21.4225C28.8864 21.4225 28.8672 21.4417 28.8336 21.4705C28.8 21.4993 28.7808 21.5185 28.7808 21.5185Z" fill="#222222"/>
<path opacity="0.1" d="M28.704 21.9313C28.704 21.9313 28.7136 21.9313 28.7328 21.8881C28.7568 21.8449 28.752 21.8257 28.752 21.8257C28.752 21.8257 28.7376 21.8353 28.7136 21.8737C28.6896 21.9121 28.704 21.9313 28.704 21.9313Z" fill="#222222"/>
<path opacity="0.1" d="M28.8964 22.0513C28.8964 22.0513 28.906 22.0513 28.9252 22.0081C28.9444 21.9649 28.9444 21.9457 28.9444 21.9457C28.9444 21.9457 28.93 21.9553 28.906 21.9937C28.882 22.0321 28.8964 22.0513 28.8964 22.0513Z" fill="#222222"/>
<path opacity="0.1" d="M29.0259 21.7825C29.0259 21.7825 29.0499 21.7729 29.0883 21.7441C29.1267 21.7153 29.1315 21.6913 29.1315 21.6913C29.1315 21.6913 29.1123 21.6961 29.0787 21.7249C29.0403 21.7489 29.0259 21.7825 29.0259 21.7825Z" fill="#222222"/>
<path opacity="0.1" d="M29.5972 22.8048C29.5972 22.8048 29.6692 22.8384 29.7316 22.8096C29.794 22.7808 29.8276 22.7712 29.8276 22.7712C29.8276 22.7712 29.7796 22.8384 29.7076 22.8432C29.6356 22.8432 29.5972 22.8048 29.5972 22.8048Z" fill="#222222"/>
<path opacity="0.1" d="M29.2656 22.2816C29.2656 22.2816 29.4048 22.152 29.5104 22.0464C29.616 21.9408 29.7072 21.7728 29.7072 21.7728C29.7072 21.7728 29.7024 21.8448 29.616 21.9648C29.544 22.0656 29.496 22.1184 29.4096 22.2C29.3328 22.2672 29.2656 22.2816 29.2656 22.2816Z" fill="#222222"/>
<path opacity="0.1" d="M29.7988 21.8689C29.7988 21.8689 29.6692 22.0129 29.6068 22.1233C29.5252 22.2625 29.5156 22.4401 29.5156 22.4401C29.5156 22.4401 29.5876 22.2193 29.6404 22.1329C29.6932 22.0465 29.7988 21.8689 29.7988 21.8689Z" fill="#222222"/>
<path opacity="0.1" d="M29.2563 21.7729C29.2563 21.7729 29.3091 21.8833 29.3523 21.8737C29.4003 21.8641 29.3715 21.7681 29.3715 21.7681C29.3715 21.7681 29.3619 21.8353 29.3283 21.8209C29.2947 21.8065 29.2563 21.7729 29.2563 21.7729Z" fill="#222222"/>
<path opacity="0.1" d="M29.5488 21.5905C29.5488 21.5905 29.5824 21.7057 29.6256 21.6961C29.6736 21.6865 29.6352 21.5905 29.6352 21.5905C29.6352 21.5905 29.64 21.6577 29.616 21.6481C29.5824 21.6337 29.5488 21.5905 29.5488 21.5905Z" fill="#222222"/>
<path opacity="0.1" d="M29.1025 21.9937C29.1025 21.9937 29.1697 22.0657 29.1889 22.0465C29.2081 22.0225 29.1697 21.9745 29.1697 21.9745C29.1697 21.9745 29.1793 22.0081 29.1649 22.0129C29.1505 22.0177 29.1025 21.9937 29.1025 21.9937Z" fill="#222222"/>
<path d="M43.2964 26.8224C43.2292 27.048 43.0852 27.2064 42.9412 27.2832C42.8308 27.3456 42.7972 27.4272 42.7684 27.504C42.7444 27.5664 42.7252 27.6144 42.7108 27.6576C42.7012 27.6816 42.6532 27.8736 42.6052 27.9264C42.5716 27.9648 42.3988 28.0128 42.2788 28.0464L42.394 28.512C42.394 28.512 42.6676 28.44 42.7348 28.4304C42.802 28.4208 42.9556 28.4208 43.09 28.4304C43.2244 28.4352 43.4356 28.4016 43.546 28.416C43.6852 28.4304 43.9732 28.5216 44.1652 28.5696C44.3044 28.608 44.3284 28.4976 44.2564 28.4448C44.2132 28.416 44.0836 28.368 43.9252 28.3104C43.882 28.296 43.8052 28.272 43.738 28.248C43.7332 28.2432 43.69 28.224 43.6852 28.2144C43.6804 28.2 43.7092 28.1856 43.7092 28.1856C43.9396 28.1856 44.3476 28.2048 44.4292 28.1952C44.5972 28.176 44.6692 28.056 44.41 28.0176C44.362 28.008 44.002 28.0176 43.8004 27.9888C43.7908 27.9888 43.7476 27.9792 43.7188 27.9648C43.6852 27.9504 43.7236 27.9072 43.7284 27.8976C43.7428 27.888 43.762 27.8832 43.7812 27.8736C43.8436 27.8496 43.93 27.8304 44.0644 27.7872C44.2228 27.7392 44.4196 27.696 44.4676 27.6768C44.6548 27.5952 44.5876 27.4368 44.3908 27.4992C44.2564 27.5424 43.9444 27.6144 43.7476 27.6432C43.7332 27.6432 43.69 27.6432 43.666 27.6288C43.6516 27.6192 43.6756 27.5952 43.69 27.5808C43.6948 27.576 43.6948 27.576 43.6996 27.576C43.834 27.4752 44.1748 27.3072 44.29 27.216C44.434 27.1056 44.3236 27.0096 44.194 27.072C43.858 27.24 43.5316 27.4176 43.4548 27.4608C43.4308 27.4752 43.3348 27.504 43.2436 27.528C43.1716 27.5472 43.1428 27.5088 43.1764 27.4464C43.2052 27.384 43.4212 27.1392 43.4212 26.9952C43.4164 26.8176 43.33 26.8176 43.2964 26.8224Z" fill="#E6AD81"/>
<path d="M42.605 27.9264C42.5714 27.9648 42.3986 28.0128 42.2786 28.0464L42.2738 28.0224L42.2402 27.8928C42.2402 27.8928 42.5042 27.8208 42.557 27.7872C42.5906 27.7632 42.677 27.7296 42.7106 27.6528C42.701 27.6816 42.653 27.8688 42.605 27.9264Z" fill="#E6AD81"/>
<path opacity="0.1" d="M44.165 27.2737C44.165 27.2737 44.141 27.2689 44.1122 27.2257C44.0834 27.1873 44.0882 27.1537 44.0882 27.1537C44.0882 27.1537 44.0978 27.1777 44.1266 27.2113C44.1506 27.2497 44.165 27.2737 44.165 27.2737Z" fill="#222222"/>
<path opacity="0.1" d="M44.3236 27.6816C44.3236 27.6816 44.2996 27.6672 44.2852 27.624C44.2708 27.5808 44.2852 27.5472 44.2852 27.5472C44.2852 27.5472 44.29 27.5712 44.3044 27.6144C44.3188 27.6576 44.3236 27.6816 44.3236 27.6816Z" fill="#222222"/>
<path opacity="0.1" d="M43.8579 27.4464C43.8579 27.4464 43.8387 27.432 43.8099 27.3888C43.7811 27.3456 43.7859 27.3264 43.7859 27.3264C43.7859 27.3264 43.8003 27.336 43.8243 27.3744C43.8483 27.4128 43.8579 27.4464 43.8579 27.4464Z" fill="#222222"/>
<path opacity="0.1" d="M43.9586 27.7728C43.9586 27.7728 43.949 27.7536 43.9346 27.7056C43.9202 27.6576 43.9346 27.6384 43.9346 27.6384C43.9346 27.6384 43.9442 27.6528 43.9538 27.696C43.9634 27.744 43.9586 27.7776 43.9586 27.7728Z" fill="#222222"/>
<path opacity="0.1" d="M44.3044 28.1761C44.3044 28.1761 44.2852 28.1569 44.2852 28.1089C44.2852 28.0609 44.3092 28.0369 44.3092 28.0369C44.3092 28.0369 44.3044 28.0609 44.3092 28.1089C44.314 28.1569 44.3044 28.1761 44.3044 28.1761Z" fill="#222222"/>
<path opacity="0.1" d="M44.0452 28.5024C44.0452 28.5024 44.0404 28.4976 44.0548 28.4544C44.0692 28.4112 44.0884 28.4016 44.0884 28.4016C44.0884 28.4016 44.0932 28.4208 44.074 28.4592C44.0596 28.5024 44.0452 28.5024 44.0452 28.5024Z" fill="#222222"/>
<path opacity="0.1" d="M43.824 28.44C43.824 28.44 43.8192 28.4352 43.8336 28.392C43.848 28.3488 43.8672 28.3392 43.8672 28.3392C43.8672 28.3392 43.872 28.3584 43.8528 28.3968C43.8384 28.4352 43.824 28.44 43.824 28.44Z" fill="#222222"/>
<path opacity="0.1" d="M43.9442 28.1617C43.9442 28.1617 43.9346 28.1377 43.9346 28.0897C43.9346 28.0417 43.949 28.0225 43.949 28.0225C43.949 28.0225 43.9538 28.0417 43.9586 28.0849C43.9586 28.1329 43.9442 28.1617 43.9442 28.1617Z" fill="#222222"/>
<path opacity="0.1" d="M42.8019 28.4016C42.8019 28.4016 42.7299 28.368 42.7107 28.3056C42.6915 28.2432 42.6771 28.2096 42.6771 28.2096C42.6771 28.2096 42.6579 28.2864 42.7011 28.344C42.7443 28.3968 42.8019 28.4016 42.8019 28.4016Z" fill="#222222"/>
<path opacity="0.1" d="M43.4116 28.3104C43.4116 28.3104 43.4212 28.1232 43.4308 27.9696C43.4404 27.816 43.5124 27.6432 43.5124 27.6432C43.5124 27.6432 43.4596 27.696 43.426 27.84C43.3972 27.9648 43.3876 28.032 43.3828 28.152C43.378 28.2528 43.4116 28.3104 43.4116 28.3104Z" fill="#222222"/>
<path opacity="0.1" d="M43.3731 27.6384C43.3731 27.6384 43.3491 27.8304 43.3059 27.9504C43.2531 28.0992 43.1235 28.2288 43.1235 28.2288C43.1235 28.2288 43.2435 28.0272 43.2723 27.936C43.3011 27.8448 43.3731 27.6384 43.3731 27.6384Z" fill="#222222"/>
<path opacity="0.1" d="M43.8002 27.984C43.8002 27.984 43.6802 28.0176 43.661 27.9744C43.6418 27.9312 43.7282 27.8928 43.7282 27.8928C43.7282 27.8928 43.685 27.9408 43.7186 27.96C43.7522 27.9744 43.8002 27.984 43.8002 27.984Z" fill="#222222"/>
<path opacity="0.1" d="M43.7476 27.6432C43.7476 27.6432 43.642 27.6913 43.618 27.6529C43.594 27.6097 43.6947 27.576 43.6947 27.576C43.6947 27.576 43.6419 27.6145 43.6611 27.6289C43.6947 27.6481 43.7476 27.6432 43.7476 27.6432Z" fill="#222222"/>
<path opacity="0.1" d="M43.7378 28.2432C43.7378 28.2432 43.637 28.2384 43.6418 28.2096C43.6466 28.1808 43.709 28.176 43.709 28.176C43.709 28.176 43.6754 28.1904 43.685 28.2048C43.6898 28.224 43.7378 28.2432 43.7378 28.2432Z" fill="#222222"/>
<path opacity="0.1" d="M8.3233 20.4575C8.3089 20.6111 8.2753 20.7071 8.2753 20.7071C8.2465 20.6687 8.2129 20.5823 8.1841 20.4719C8.1025 20.1935 8.0305 19.7615 7.9873 19.5167C7.9681 19.4015 7.9585 19.3247 7.9585 19.3247C8.0113 19.3823 8.0545 19.4399 8.0929 19.4975C8.3281 19.8575 8.3473 20.2223 8.3233 20.4575Z" fill="#222222"/>
<path d="M4.60817 19.7807C4.60817 19.7807 4.33937 19.5935 4.17617 19.5311C4.01297 19.4687 3.83057 19.5983 3.83057 19.5983L4.47377 20.0639L4.60817 19.7807Z" fill="#FED5B7"/>
<path opacity="0.1" d="M4.60817 19.7807C4.60817 19.7807 4.33937 19.5935 4.17617 19.5311C4.01297 19.4687 3.83057 19.5983 3.83057 19.5983L4.47377 20.0639L4.60817 19.7807Z" fill="#222222"/>
<path d="M8.3234 20.4576C8.2754 20.4624 8.2274 20.4672 8.1794 20.4768C7.8002 20.52 7.5026 20.544 7.2722 20.5776C6.989 20.6208 6.2498 20.7744 6.0578 20.8176C5.7794 20.88 5.6306 20.9376 5.4626 20.808C5.2658 20.8464 5.1602 20.7216 5.0978 20.6352C4.9058 20.6064 4.7522 20.616 4.6754 20.5392C4.205 20.1072 3.4082 19.5744 3.4082 19.5744C3.4082 19.5744 3.5282 19.4256 3.7634 19.4592C3.821 19.4688 3.893 19.4976 3.9698 19.5408C4.1426 19.632 4.3394 19.7712 4.4498 19.8528L4.4594 19.8576C4.5074 19.8912 4.5362 19.9152 4.5362 19.9152L4.5506 19.9104L4.8482 19.848L5.1362 19.7856L5.477 19.7136L5.5586 19.6944L5.6402 19.632L5.9618 19.392C5.9618 19.392 5.7266 19.2912 5.6258 19.2576C5.4578 19.2 5.2322 19.1376 5.1458 19.056C4.9634 18.8784 5.0546 18.7632 5.1266 18.7056C5.2226 18.7872 6.3074 19.0992 6.6002 19.1904C6.893 19.2816 7.1234 19.6224 7.229 19.6128C7.2674 19.608 7.6322 19.5744 7.9874 19.512C8.021 19.5072 8.0546 19.5024 8.093 19.4928C8.3282 19.8576 8.3474 20.2224 8.3234 20.4576Z" fill="#FED5B7"/>
<path d="M5.07861 20.1216C5.11701 20.2272 5.15541 20.3328 5.19861 20.4384L5.47221 20.2176C5.47221 20.2176 5.48661 19.7136 5.47701 19.5216C5.46741 19.2768 5.22741 19.224 5.22741 19.224C5.22741 19.224 5.16021 19.584 5.15541 19.656C5.15061 19.6992 5.10261 19.9824 5.07861 20.1216Z" fill="#FED5B7"/>
<path d="M4.53137 19.5407C4.47857 19.7183 4.38737 20.0591 4.50737 20.1743C4.56017 20.2271 4.95377 20.4047 5.11217 20.4767C5.04977 20.3231 4.99697 20.1695 4.93937 20.0111L4.83857 19.9343C4.83857 19.9343 4.90097 19.5743 4.89617 19.3055C4.88657 19.0079 4.65137 18.9791 4.65137 18.9791C4.65137 18.9791 4.57937 19.3631 4.53137 19.5407Z" fill="#FED5B7"/>
<path opacity="0.1" d="M5.47689 19.7136L5.46729 20.2176C5.46729 20.2176 5.69289 20.3424 5.93289 20.1696C5.99049 20.1264 6.41769 19.824 6.57609 19.776C6.76809 19.7184 7.01768 19.8384 7.01768 19.8384C7.01768 19.8384 6.76329 19.6224 6.55209 19.6752C6.34569 19.728 5.79849 19.9872 5.79849 19.9872L5.63529 19.632L5.55369 19.6944L5.47689 19.7136Z" fill="#222222"/>
<path opacity="0.1" d="M5.13614 19.7855L5.08334 20.1743L4.84814 19.8479L5.13614 19.7855Z" fill="#222222"/>
<path opacity="0.1" d="M4.45944 19.8528C4.45464 19.896 4.44984 19.9824 4.47384 20.064C4.50744 20.1792 4.68024 20.352 4.68024 20.352C4.68024 20.352 4.49784 20.2896 4.44024 20.16C4.38264 20.0208 4.42584 19.9008 4.44984 19.848L4.45944 19.8528Z" fill="#222222"/>
<path opacity="0.1" d="M7.33459 20.3472C7.33459 20.3472 7.29619 20.1024 7.27219 20.04C7.24819 19.9776 7.26259 19.9104 7.26259 19.9104C7.26259 19.9104 7.31058 19.968 7.32978 20.04C7.39218 20.2224 7.33459 20.3472 7.33459 20.3472Z" fill="#222222"/>
</g>
<defs>
<clipPath id="clip0_9673_125069">
<rect width="48" height="48" fill="white"/>
</clipPath>
<clipPath id="clip1_9673_125069">
<rect width="48" height="48" fill="white"/>
</clipPath>
</defs>
</svg>
