<svg width="88" height="192" viewBox="0 0 88 192" fill="none" xmlns="http://www.w3.org/2000/svg">
<path opacity="0.1" d="M43.9298 191.098C67.9287 191.098 87.3836 189.872 87.3836 188.36C87.3836 186.848 67.9287 185.622 43.9298 185.622C19.9309 185.622 0.475983 186.848 0.475983 188.36C0.475983 189.872 19.9309 191.098 43.9298 191.098Z" fill="#222222"/>
<path d="M37.8926 35.0898C37.8926 35.0898 28.0178 35.6748 26.9648 39.7464C25.2332 46.2282 23.642 61.368 23.642 61.368L13.697 49.0362L10.1168 50.7678C10.1168 50.7678 18.611 73.5828 25.7714 72.5298C32.9318 71.4534 37.8926 35.0898 37.8926 35.0898Z" fill="#6F4535"/>
<path d="M59.327 85.1658C55.5596 76.7418 53.7578 74.355 53.711 71.7108C53.6642 69.6048 54.6938 67.3584 56.7062 61.8126C57.1742 60.5022 57.5018 59.1684 57.7124 57.8112C59.3036 47.1174 53.126 35.5578 49.265 34.7622C48.1886 34.4814 46.3868 30.6204 46.4102 24.396L45.9188 24.4896L37.8224 26.0808C37.8224 26.0808 38.0096 28.6314 38.0096 31.0182C38.0096 33.0072 37.8926 34.9026 37.448 35.16C36.863 35.2068 36.512 35.2536 36.512 35.2536C36.512 35.2536 29.7728 44.637 29.1878 53.3418C28.6262 62.07 34.5932 65.8374 29.141 83.2704C23.5952 101.031 61.4096 89.8224 59.327 85.1658Z" fill="#6F4535"/>
<path d="M56.9168 1.79162C55.115 0.691819 52.2602 2.00222 52.2602 2.00222C53.243 0.598219 56.87 1.06622 56.87 1.06622C49.6628 -0.478181 48.1652 4.13162 48.0248 4.57622C42.8066 -0.150581 34.4294 9.91142 34.4294 9.91142L46.4336 25.8234C46.4336 25.8234 47.5334 23.2962 48.9842 24.0918C51.2306 25.332 55.6064 20.3244 54.2024 13.7724C54.062 13.0704 53.8748 12.4152 53.6642 11.8302C54.1322 12.0408 54.6704 12.2046 55.1618 12.2046C56.4722 12.2046 58.4612 8.85842 58.7186 7.73522C58.9994 6.58862 58.7186 2.89142 56.9168 1.79162Z" fill="#222222"/>
<path opacity="0.1" d="M37.8224 26.0574C37.8224 26.0574 38.0096 28.608 38.0096 30.9948C42.5492 30.8544 44.936 26.736 45.9188 24.4428L37.8224 26.0574Z" fill="#222222"/>
<path d="M46.7612 23.577C46.7612 23.577 49.1246 19.833 49.7096 16.6272C50.1074 14.334 48.9608 5.83982 40.4198 7.08002C40.4198 7.08002 37.9394 7.31402 35.6228 8.90522C33.7742 10.1454 31.1066 12.8598 34.0784 20.2542L34.8506 22.758L46.7612 23.577Z" fill="#222222"/>
<path d="M36.3014 28.3272C36.3014 28.3272 47.0186 28.5144 47.0186 21.822C47.0186 15.153 48.4226 10.6602 41.5664 10.2858C34.7102 9.91142 33.3998 12.4386 32.8382 14.6616C32.3234 16.8846 33.5168 28.1166 36.3014 28.3272Z" fill="#6F4535"/>
<path d="M43.2746 122.442C41.7536 131.03 40.6538 137.465 40.6538 137.465C45.1466 155.881 25.9118 184.709 25.9118 184.709L21.2786 183.048C21.2786 183.048 30.6152 160.584 27.4328 138.167C22.94 106.483 28.8836 85.2594 28.8836 85.2594L47.9312 91.4136L48.8204 91.6944C47.1356 100.68 44.936 112.895 43.2746 122.442Z" fill="#6F4535"/>
<path opacity="0.1" d="M56.7062 61.7892C54.6938 67.335 53.6642 69.6048 53.711 71.6874C47.2994 61.7658 35.7398 60.2682 35.7398 60.2682L57.689 57.7644C57.5018 59.1216 57.1742 60.4788 56.7062 61.7892Z" fill="#222222"/>
<path d="M48.7268 34.5282C48.7268 34.5282 57.8996 35.4642 58.9526 37.8276C62.4158 45.4326 65.8556 71.1258 66.8384 73.3722C67.7978 75.6186 70.7462 87.9972 73.2734 94.128L70.0442 95.0874C70.0442 95.0874 59.4206 77.4672 58.4612 72.8808C57.5018 68.2944 52.2134 49.668 52.2134 49.668L48.7268 34.5282Z" fill="#6F4535"/>
<path d="M55.934 55.5648L56.051 63.5208C56.051 63.5208 49.0544 61.485 41.6132 60.8766C39.788 60.7362 37.9394 60.666 36.161 60.7362C33.9614 60.8064 31.8554 61.1106 30.0302 61.6956C30.0302 61.6956 28.8602 56.5476 27.6668 50.4402C27.62 50.2296 27.5966 49.9956 27.5732 49.785C26.8946 43.9584 32.066 39.2316 29.8898 36.8916C29.8898 36.8916 31.9022 35.7684 36.4886 35.2302C36.4886 35.2302 32.8616 41.6184 33.1892 43.2096C33.5168 44.8242 47.51 43.3734 48.4694 42.4842C49.4288 41.595 50.9498 34.8324 50.9498 34.8324C50.9498 34.8324 56.1914 35.3706 58.3208 37.149C58.3208 37.149 56.6828 39.1848 55.6532 41.6418C55.349 42.3672 55.0916 43.116 54.9512 43.8648C54.5768 45.8772 53.594 49.6914 55.8404 52.6866L55.934 55.5648Z" fill="#F41C5E"/>
<path opacity="0.1" d="M46.9016 101.827C45.2168 110.812 44.9594 112.871 43.2746 122.442C32.8148 104.19 34.3592 99.4164 34.3592 99.4164L46.9016 101.827Z" fill="#222222"/>
<path d="M79.2638 182.393L76.1282 183.516C76.1282 183.516 63.9602 148.978 58.9526 143.642C49.2884 133.346 35.0846 88.4886 35.0846 88.4886L54.296 82.2642C57.1508 85.0254 59.4674 90.1968 61.316 96.2808C66.0194 111.631 67.8446 132.808 68.102 135.874C68.1254 136.108 68.2424 136.318 68.4062 136.482C83.3588 153.143 79.2638 182.393 79.2638 182.393Z" fill="#6F4535"/>
<path d="M42.2918 103.862L39.1562 103.043C37.5416 102.505 35.9738 102.154 34.4996 101.897C29.7728 101.101 26.1926 101.569 26.1926 101.569C27.6434 86.1018 29.3048 82.3812 29.3048 82.3812L31.3406 82.2642L36.6758 93.3324L42.2918 103.862Z" fill="#3C3C3C"/>
<path opacity="0.1" d="M42.2918 103.862L39.1562 103.043C37.5416 102.505 35.9738 102.154 34.4996 101.897C34.289 98.925 35.4824 95.7426 36.6992 93.3324L42.2918 103.862Z" fill="#222222"/>
<path opacity="0.1" d="M68.102 135.874C58.04 128.011 50.2712 101.663 50.2712 101.663L61.316 96.2574C66.0194 111.631 67.8446 132.808 68.102 135.874Z" fill="#222222"/>
<path d="M29.7494 81.141C29.7494 81.141 34.3592 84.6276 39.0158 84.3C43.6724 83.9724 57.2912 80.8602 57.2912 80.8602C57.2912 80.8602 59.8184 84.534 61.5734 91.788C63.3986 99.2994 63.539 104.798 63.539 104.798C63.539 104.798 47.4164 102.786 40.9814 106.156L29.7494 81.141Z" fill="#3C3C3C"/>
<path d="M44.1404 19.1076C48.6332 20.2542 50.5988 19.0608 50.5988 19.0608C50.5988 19.0608 49.7564 15.036 46.4336 11.526C44.7488 9.74762 37.0268 9.63062 36.7928 9.98162C36.0908 9.37322 34.8272 8.95202 33.1892 10.941C30.7088 13.9596 32.9084 19.2714 32.9084 19.2714C33.938 19.3884 34.172 15.9018 34.7102 14.1936C35.108 12.9534 36.395 11.6664 37.0502 11.0814C37.2608 11.877 39.4136 19.365 44.7956 21.8454C44.7956 21.8454 42.3152 19.6458 40.49 16.6038C41.543 17.7738 42.7598 18.7566 44.1404 19.1076Z" fill="#222222"/>
<path d="M83.4758 96.6786C82.6802 93.7068 79.5212 91.9752 76.4558 92.7942C75.6602 93.0048 74.9582 93.3558 74.3498 93.8238L73.133 94.713C73.133 94.713 71.846 97.9656 72.314 99.6738C73.1096 102.646 80.036 103.558 80.036 103.558L81.4166 102.529C83.1716 101.195 84.0608 98.9016 83.4758 96.6786Z" fill="#909090"/>
<path d="M82.3058 97.521C81.5102 94.5492 78.3512 92.8176 75.2858 93.6366C72.2204 94.4556 70.3484 97.5444 71.144 100.516C71.9396 103.488 75.0986 105.22 78.164 104.401C81.2294 103.582 83.1014 100.493 82.3058 97.521Z" fill="#3C3C3C"/>
<path d="M77.813 98.9718C77.7662 98.3166 76.9472 97.6614 76.0814 97.9656C75.7304 98.0826 66.4406 103.909 66.4406 103.909L68.4296 106.366L77.4386 99.9312C77.4386 99.9546 77.8598 99.6504 77.813 98.9718Z" fill="#909090"/>
<path d="M14.6798 40.1676L13.463 39.2784C12.8546 38.8104 12.1526 38.4594 11.357 38.2488C8.26819 37.4298 5.13259 39.1614 4.33699 42.1332C3.75199 44.3562 4.61779 46.626 6.39619 47.9832L7.77679 49.0128C7.77679 49.0128 14.7032 48.1002 15.4988 45.1284C15.9668 43.3968 14.6798 40.1442 14.6798 40.1676Z" fill="#909090"/>
<path d="M12.5036 39.0678C9.41478 38.2488 6.27918 39.9804 5.48358 42.9522C4.68798 45.924 6.53658 48.9894 9.62538 49.8318C12.7142 50.6508 15.8498 48.9192 16.6454 45.9474C17.441 42.9756 15.5924 39.9102 12.5036 39.0678Z" fill="#3C3C3C"/>
<path d="M11.7314 43.3968C10.8656 43.0692 10.0466 43.7244 9.99978 44.403C9.95298 45.0816 10.3742 45.3624 10.3742 45.3624L19.4066 51.7974L21.3956 49.3404C21.3722 49.3404 12.0824 43.5372 11.7314 43.3968Z" fill="#909090"/>
<path d="M10.1168 50.7912C10.1168 50.7912 6.79399 46.6728 9.18078 44.5668C11.5676 42.4608 14.6564 43.0692 14.75 44.3094C14.8436 45.5496 13.697 49.083 13.697 49.083L10.1168 50.7912Z" fill="#6F4535"/>
<path d="M73.0394 93.5664C73.0394 93.5664 74.0222 95.883 75.0284 96.5148C76.0346 97.1466 77.4854 98.7144 77.228 99.9546C76.9706 101.195 76.6898 103.114 75.4028 103.114C74.1158 103.114 71.1206 97.4274 70.7462 96.351C70.3718 95.2746 70.0442 95.064 70.0442 95.064L73.0394 93.5664Z" fill="#6F4535"/>
<path d="M76.3622 102.014C75.4964 98.7846 72.08 96.8892 68.7104 97.8018C67.8446 98.0358 67.0724 98.4336 66.4172 98.925L65.1068 99.8844C65.1068 99.8844 63.7028 103.418 64.2176 105.266C65.0834 108.496 72.6416 109.478 72.6416 109.478L74.1392 108.379C76.058 106.904 77.0174 104.424 76.3622 102.014Z" fill="#909090"/>
<path d="M75.122 102.926C74.2562 99.6972 70.8398 97.8018 67.4702 98.7144C64.124 99.627 62.0882 102.95 62.954 106.202C63.8198 109.432 67.2362 111.327 70.6058 110.414C73.952 109.502 75.9878 106.156 75.122 102.926Z" fill="#3C3C3C"/>
<path d="M71.027 103.769C70.7462 102.716 69.623 102.107 68.5466 102.388C68.2658 102.458 68.0084 102.599 67.7978 102.763L67.3766 103.067L67.4234 103.137C67.0724 103.605 66.9086 104.213 67.0724 104.822C67.3532 105.875 68.4764 106.483 69.5528 106.202C69.623 106.179 69.6932 106.156 69.7634 106.132L69.8102 106.202L70.3016 105.851C70.9334 105.36 71.2376 104.564 71.027 103.769Z" fill="#909090"/>
<path d="M70.6292 104.073C70.3484 103.02 69.2252 102.412 68.1488 102.692C67.049 102.973 66.3938 104.073 66.698 105.126C66.9788 106.179 68.102 106.787 69.1784 106.507C70.2548 106.202 70.91 105.126 70.6292 104.073Z" fill="#595959"/>
<path d="M11.4272 47.445C12.293 44.2158 15.7094 42.3204 19.079 43.233C19.9448 43.467 20.717 43.8648 21.3722 44.3562L22.706 45.3156C22.706 45.3156 24.11 48.849 23.5952 50.6976C22.7294 53.9268 15.1712 54.9096 15.1712 54.9096L13.6736 53.8098C11.7548 52.3356 10.772 49.8552 11.4272 47.445Z" fill="#909090"/>
<path d="M20.3192 44.1456C16.973 43.233 13.5332 45.1284 12.6674 48.3576C11.8016 51.5868 13.814 54.933 17.1836 55.8222C20.5298 56.7348 23.9696 54.8394 24.8354 51.6102C25.7012 48.381 23.6888 45.0348 20.3192 44.1456Z" fill="#3C3C3C"/>
<path d="M20.366 48.5916L20.4128 48.5214L19.9916 48.2172C19.781 48.0534 19.5236 47.9364 19.2428 47.8428C18.143 47.562 17.0432 48.1704 16.7624 49.2234C16.5518 50.019 16.856 50.8146 17.4878 51.2826L17.9792 51.6336L18.026 51.5634C18.0962 51.5868 18.1664 51.6102 18.2132 51.6336C19.313 51.9144 20.4128 51.306 20.6936 50.253C20.8808 49.668 20.717 49.0362 20.366 48.5916Z" fill="#909090"/>
<path d="M19.664 48.1236C18.5642 47.8428 17.4644 48.4512 17.1836 49.5042C16.9028 50.5572 17.558 51.6336 18.6344 51.9378C19.7342 52.2186 20.834 51.6102 21.1148 50.5572C21.3956 49.5042 20.7404 48.4278 19.664 48.1236Z" fill="#595959"/>
<path opacity="0.1" d="M56.0744 63.5208C56.0744 63.5208 49.0778 61.485 41.6366 60.8766C41.6366 60.8766 49.4288 61.8126 55.934 55.5882C55.934 55.5882 55.9574 55.5882 55.9574 55.5648L56.0744 63.5208Z" fill="#222222"/>
<path d="M29.3282 82.3812C29.3282 82.3812 33.4934 85.4466 37.9394 85.5636C42.3854 85.6806 57.8996 81.8898 57.8996 81.8898L57.2678 80.673C57.2678 80.673 40.2326 85.236 36.2312 83.8788C32.2298 82.5216 29.8664 80.8836 29.8664 80.8836L29.3282 82.3812Z" fill="#909090"/>
<path d="M61.9244 186.067C62.9306 186.441 64.2644 186.792 67.4234 186.862C70.5824 186.932 73.952 185.95 74.537 185.505C75.122 185.06 76.292 184.054 77.1812 183.844C77.8364 183.68 80.153 183.259 81.323 183.048C81.2294 181.34 81.1124 179.468 81.089 179.257C81.0422 178.883 80.972 178.719 80.972 178.719C80.972 178.719 80.5274 178.228 79.7552 178.789C78.983 179.351 77.2982 180.38 77.111 180.427C76.9238 180.474 75.2624 179.585 74.9816 179.304C74.7008 179.023 74.7476 178.649 75.0752 178.017C75.4028 177.385 75.9176 176.473 75.9644 176.192C76.0112 175.911 73.25 175.56 73.25 175.56C72.7586 175.49 72.7118 175.537 72.3608 175.817C72.0098 176.098 65.7386 181.199 65.7386 181.199C64.007 182.159 60.3332 183.095 59.9822 183.165C59.6312 183.235 59.21 183.329 59.0228 183.656C58.9292 183.82 58.8824 184.031 58.859 184.288C59.7716 184.967 61.1288 185.762 61.9244 186.067Z" fill="#8529A6"/>
<path d="M81.4634 185.809C81.4634 185.552 81.4166 184.358 81.323 183.048C80.153 183.259 77.8364 183.68 77.1812 183.844C76.292 184.054 75.1454 185.06 74.537 185.505C73.9286 185.95 70.559 186.932 67.4234 186.862C64.2644 186.792 62.9306 186.441 61.9244 186.067C61.1288 185.786 59.7482 184.967 58.8356 184.288C58.8122 184.592 58.859 184.943 58.976 185.294C59.21 185.95 61.0586 187.143 62.9072 187.658C64.7558 188.173 71.612 188.243 74.7008 187.939C77.7896 187.634 79.6382 187.283 80.2466 187.143C80.855 187.003 81.44 186.418 81.4634 185.809Z" fill="#595959"/>
<path d="M11.4272 186.067C12.4334 186.441 13.7672 186.792 16.9262 186.862C20.0852 186.932 23.4548 185.95 24.0398 185.505C24.6248 185.06 25.7714 184.054 26.684 183.844C27.3392 183.68 29.6558 183.259 30.8258 183.048C30.7322 181.34 30.6152 179.468 30.5684 179.257C30.5216 178.883 30.4514 178.719 30.4514 178.719C30.4514 178.719 30.0068 178.228 29.2346 178.789C28.4624 179.351 26.7776 180.38 26.5904 180.427C26.4032 180.474 24.7418 179.585 24.461 179.304C24.1802 179.023 24.227 178.649 24.5546 178.017C24.8822 177.385 25.397 176.473 25.4438 176.192C25.4906 175.911 22.7294 175.56 22.7294 175.56C22.238 175.49 22.1912 175.537 21.8402 175.817C21.4892 176.098 15.218 181.199 15.218 181.199C13.4864 182.159 9.81258 183.095 9.46158 183.165C9.11058 183.235 8.68938 183.329 8.50218 183.656C8.40858 183.82 8.36178 184.031 8.33838 184.288C9.27438 184.967 10.6316 185.762 11.4272 186.067Z" fill="#8529A6"/>
<path d="M30.9662 185.809C30.9662 185.552 30.9194 184.358 30.8258 183.048C29.6558 183.259 27.3392 183.68 26.684 183.844C25.7948 184.054 24.6482 185.06 24.0398 185.505C23.4314 185.95 20.0852 186.932 16.9262 186.862C13.7672 186.792 12.4334 186.441 11.4272 186.067C10.6316 185.786 9.251 184.967 8.3384 184.288C8.315 184.592 8.3618 184.943 8.4788 185.294C8.7128 185.95 10.5614 187.143 12.41 187.658C14.2586 188.173 21.1148 188.243 24.2036 187.939C27.2924 187.634 29.141 187.283 29.7494 187.143C30.3578 187.003 30.9428 186.418 30.9662 185.809Z" fill="#595959"/>
</svg>
