<svg width="32" height="32" viewBox="0 0 32 32" fill="none" xmlns="http://www.w3.org/2000/svg">
<g clip-path="url(#clip0_16801_7573)">
<path d="M21.3334 7.3335C21.3334 7.07085 21.2817 6.81078 21.1812 6.56813C21.0807 6.32548 20.9333 6.105 20.7476 5.91928C20.5619 5.73357 20.3414 5.58625 20.0988 5.48574C19.8561 5.38523 19.5961 5.3335 19.3334 5.3335C19.0708 5.3335 18.8107 5.38523 18.568 5.48574C18.3254 5.58625 18.1049 5.73357 17.9192 5.91928C17.7335 6.105 17.5862 6.32548 17.4857 6.56813C17.3851 6.81078 17.3334 7.07085 17.3334 7.3335C17.3334 7.59614 17.3851 7.85621 17.4857 8.09886C17.5862 8.34151 17.7335 8.56199 17.9192 8.74771C18.1049 8.93343 18.3254 9.08075 18.568 9.18126C18.8107 9.28176 19.0708 9.3335 19.3334 9.3335C19.5961 9.3335 19.8561 9.28176 20.0988 9.18126C20.3414 9.08075 20.5619 8.93343 20.7476 8.74771C20.9333 8.56199 21.0807 8.34151 21.1812 8.09886C21.2817 7.85621 21.3334 7.59614 21.3334 7.3335ZM11.3334 21.3335C11.3334 22.2176 10.9822 23.0654 10.3571 23.6905C9.73198 24.3156 8.88414 24.6668 8.00008 24.6668C7.11603 24.6668 6.26818 24.3156 5.64306 23.6905C5.01794 23.0654 4.66675 22.2176 4.66675 21.3335C4.66675 20.4494 5.01794 19.6016 5.64306 18.9765C6.26818 18.3514 7.11603 18.0002 8.00008 18.0002C8.88414 18.0002 9.73198 18.3514 10.3571 18.9765C10.9822 19.6016 11.3334 20.4494 11.3334 21.3335ZM8.00008 16.0002C6.58559 16.0002 5.22904 16.5621 4.22885 17.5623C3.22865 18.5625 2.66675 19.919 2.66675 21.3335C2.66675 22.748 3.22865 24.1045 4.22885 25.1047C5.22904 26.1049 6.58559 26.6668 8.00008 26.6668C9.41457 26.6668 10.7711 26.1049 11.7713 25.1047C12.7715 24.1045 13.3334 22.748 13.3334 21.3335C13.3334 19.919 12.7715 18.5625 11.7713 17.5623C10.7711 16.5621 9.41457 16.0002 8.00008 16.0002ZM27.3334 21.3335C27.3334 22.2176 26.9822 23.0654 26.3571 23.6905C25.732 24.3156 24.8841 24.6668 24.0001 24.6668C23.116 24.6668 22.2682 24.3156 21.6431 23.6905C21.0179 23.0654 20.6667 22.2176 20.6667 21.3335C20.6667 20.4494 21.0179 19.6016 21.6431 18.9765C22.2682 18.3514 23.116 18.0002 24.0001 18.0002C24.8841 18.0002 25.732 18.3514 26.3571 18.9765C26.9822 19.6016 27.3334 20.4494 27.3334 21.3335ZM24.0001 16.0002C22.5856 16.0002 21.229 16.5621 20.2288 17.5623C19.2287 18.5625 18.6667 19.919 18.6667 21.3335C18.6667 22.748 19.2287 24.1045 20.2288 25.1047C21.229 26.1049 22.5856 26.6668 24.0001 26.6668C25.4146 26.6668 26.7711 26.1049 27.7713 25.1047C28.7715 24.1045 29.3334 22.748 29.3334 21.3335C29.3334 19.919 28.7715 18.5625 27.7713 17.5623C26.7711 16.5621 25.4146 16.0002 24.0001 16.0002ZM16.8959 11.5668C17.0417 11.4627 17.2417 11.4877 17.3542 11.6252L19.2209 13.9585C19.4126 14.196 19.7001 14.3335 20.0001 14.3335H22.6667C23.2209 14.3335 23.6667 13.8877 23.6667 13.3335C23.6667 12.7793 23.2209 12.3335 22.6667 12.3335H20.4792L18.9167 10.3752C18.1334 9.396 16.7209 9.21266 15.7126 9.95433L12.6042 12.246C11.0001 13.4293 11.2126 15.8877 12.9917 16.7793L15.3334 17.9502V22.6668C15.3334 23.221 15.7792 23.6668 16.3334 23.6668C16.8876 23.6668 17.3334 23.221 17.3334 22.6668V17.3335C17.3334 16.9543 17.1209 16.6085 16.7792 16.4377L13.8792 14.9877C13.4334 14.7668 13.3792 14.1502 13.7834 13.8543L16.8917 11.5627L16.8959 11.5668Z" fill="#F41C5E"/>
</g>
<defs>
<clipPath id="clip0_16801_7573">
<rect width="32" height="32" fill="white"/>
</clipPath>
</defs>
</svg>
