<svg width="32" height="32" viewBox="0 0 32 32" fill="none" xmlns="http://www.w3.org/2000/svg">
<g clip-path="url(#clip0_16801_7027)">
<path d="M15.9963 7.3335C15.9963 6.80306 16.207 6.29436 16.5821 5.91928C16.9571 5.54421 17.4658 5.3335 17.9963 5.3335C18.5267 5.3335 19.0354 5.54421 19.4105 5.91928C19.7856 6.29436 19.9963 6.80306 19.9963 7.3335C19.9963 7.86393 19.7856 8.37264 19.4105 8.74771C19.0354 9.12278 18.5267 9.3335 17.9963 9.3335C17.4658 9.3335 16.9571 9.12278 16.5821 8.74771C16.207 8.37264 15.9963 7.86393 15.9963 7.3335ZM16.4838 12.7002L15.2379 16.4418C15.1921 16.5752 15.2379 16.7168 15.3421 16.8043L16.0254 17.3585L17.3754 13.0335C17.3796 13.021 17.3838 13.0043 17.3879 12.9918C17.1088 12.846 16.8046 12.746 16.4838 12.696V12.7002ZM18.8838 14.9127L17.6963 18.7168L19.7838 20.4127C20.0713 20.646 20.2713 20.971 20.3588 21.3335L21.3088 25.4418C21.4338 25.9793 21.0963 26.5168 20.5588 26.6418C20.0213 26.7668 19.4838 26.4293 19.3588 25.8918L18.4379 21.8918L14.0796 18.3585C13.3296 17.746 13.0338 16.7293 13.3379 15.8085L14.2879 12.9627C13.2588 13.371 12.4254 14.1668 11.9713 15.1835L11.5754 16.071C11.3504 16.5752 10.7588 16.8043 10.2546 16.5793C9.75044 16.3543 9.52127 15.7627 9.74627 15.2585L10.1421 14.3752C10.8546 12.771 12.2088 11.5418 13.8713 10.9877C14.5088 10.7752 15.1754 10.6668 15.8463 10.6668H16.0504C18.2379 10.6668 20.1629 12.1168 20.7671 14.2252L21.2213 15.8127L22.3713 16.9585C22.7629 17.3502 22.7629 17.9835 22.3713 18.371C21.9796 18.7585 21.3463 18.7627 20.9588 18.371L19.7463 17.1627C19.5463 16.9627 19.4004 16.7127 19.3213 16.4418L18.8838 14.9127ZM12.4754 22.1043L13.4796 19.5877L15.1046 20.9085L14.3046 22.9085C14.2213 23.1168 14.0963 23.3085 13.9338 23.4668L11.0379 26.3752C10.6463 26.7668 10.0129 26.7668 9.62544 26.3752C9.23794 25.9835 9.23377 25.3502 9.62544 24.9627L12.4796 22.1085L12.4754 22.1043Z" fill="#F41C5E"/>
</g>
<defs>
<clipPath id="clip0_16801_7027">
<rect width="32" height="32" fill="white"/>
</clipPath>
</defs>
</svg>
