<svg width="24" height="24" viewBox="0 0 24 24" fill="none" xmlns="http://www.w3.org/2000/svg">
<path d="M11.9973 5.5C11.9973 5.10218 12.1553 4.72064 12.4366 4.43934C12.7179 4.15804 13.0994 4 13.4973 4C13.8951 4 14.2766 4.15804 14.5579 4.43934C14.8392 4.72064 14.9973 5.10218 14.9973 5.5C14.9973 5.89782 14.8392 6.27936 14.5579 6.56066C14.2766 6.84196 13.8951 7 13.4973 7C13.0994 7 12.7179 6.84196 12.4366 6.56066C12.1553 6.27936 11.9973 5.89782 11.9973 5.5ZM12.3629 9.525L11.4285 12.3313C11.3941 12.4313 11.4285 12.5375 11.5066 12.6031L12.0191 13.0188L13.0316 9.775C13.0348 9.76562 13.0379 9.75313 13.041 9.74375C12.8316 9.63438 12.6035 9.55937 12.3629 9.52187V9.525ZM14.1629 11.1844L13.2723 14.0375L14.8379 15.3094C15.0535 15.4844 15.2035 15.7281 15.2691 16L15.9816 19.0813C16.0754 19.4844 15.8223 19.8875 15.4191 19.9812C15.016 20.075 14.6129 19.8219 14.5191 19.4187L13.8285 16.4187L10.5598 13.7688C9.99727 13.3094 9.77539 12.5469 10.0035 11.8562L10.716 9.72188C9.94414 10.0281 9.31914 10.625 8.97852 11.3875L8.68164 12.0531C8.51289 12.4313 8.06914 12.6031 7.69102 12.4344C7.31289 12.2656 7.14102 11.8219 7.30977 11.4437L7.60664 10.7812C8.14102 9.57812 9.15664 8.65625 10.4035 8.24062C10.8816 8.08125 11.3816 8 11.8848 8H12.0379C13.6785 8 15.1223 9.0875 15.5754 10.6687L15.916 11.8594L16.7785 12.7188C17.0723 13.0125 17.0723 13.4875 16.7785 13.7781C16.4848 14.0687 16.0098 14.0719 15.7191 13.7781L14.8098 12.8719C14.6598 12.7219 14.5504 12.5344 14.491 12.3313L14.1629 11.1844ZM9.35664 16.5781L10.1098 14.6906L11.3285 15.6812L10.7285 17.1812C10.666 17.3375 10.5723 17.4813 10.4504 17.6L8.27852 19.7812C7.98477 20.075 7.50977 20.075 7.21914 19.7812C6.92852 19.4875 6.92539 19.0125 7.21914 18.7219L9.35977 16.5813L9.35664 16.5781Z" fill="#1D1D1D"/>
</svg>
