<svg width="25" height="24" viewBox="0 0 25 24" fill="none" xmlns="http://www.w3.org/2000/svg">
<path d="M15.3485 23.2927C13.4567 24.2069 11.2501 24.1867 9.36525 23.2575C5.98503 21.5907 0.957336 19.6689 0.957336 15.7015V4.28167C0.957336 2.1287 2.7191 0.366943 4.87206 0.366943H20.0659C22.2189 0.366943 24.1934 1.91595 24.1934 4.0698V15.4896C24.1934 18.9902 18.7894 21.6302 15.3477 23.2935L15.3485 23.2927Z" fill="#B7B7B7"/>
<path d="M15.3485 22.933C13.4567 23.8473 11.2501 23.8271 9.36525 22.8979C5.98503 21.2311 0.957336 19.3093 0.957336 15.3418V3.92205C0.957336 1.76908 2.7191 0.00732422 4.87206 0.00732422H20.0659C22.2189 0.00732422 23.9806 1.76908 23.9806 3.92205V15.3418C23.9806 18.8425 18.7885 21.2697 15.3477 22.933H15.3485Z" fill="#C5C5C5"/>
<path d="M18.654 9.97836L15.8611 12.6913L16.5204 16.5322C16.589 16.934 16.1679 17.2399 15.8074 17.05L12.3604 15.239L8.91602 17.0491C8.5547 17.2417 8.13185 16.934 8.2013 16.534L8.86064 12.6931L6.07294 9.97836C5.78108 9.69441 5.94196 9.2021 6.34196 9.14056L10.2048 8.57616L11.9288 5.0843C12.109 4.71946 12.6294 4.71946 12.8096 5.0843L14.5336 8.57616L18.3824 9.1388C18.785 9.19507 18.9468 9.69441 18.654 9.97836Z" fill="white"/>
<mask id="mask0_16771_1418" style="mask-type:luminance" maskUnits="userSpaceOnUse" x="-7" y="-10" width="34" height="34">
<path d="M26.7798 1.09749L2.94856 23.1045L-6.35693 9.77441L6.3446 -9.2146L26.7798 1.09749Z" fill="white"/>
</mask>
<g mask="url(#mask0_16771_1418)">
<path opacity="0.26" d="M15.3485 22.933C13.4567 23.8473 11.2501 23.8271 9.36525 22.8979C5.98503 21.2311 0.957336 19.3093 0.957336 15.3418V3.92205C0.957336 1.76908 2.7191 0.00732422 4.87206 0.00732422H20.0659C22.2189 0.00732422 23.9806 1.76908 23.9806 3.92205V15.3418C23.9806 18.8425 18.7885 21.2697 15.3477 22.933H15.3485Z" fill="url(#paint0_linear_16771_1418)"/>
</g>
<path d="M24.7947 4.22368L24.0448 3.8905L23.6465 4.55599L23.716 3.75863L22.9758 3.5661L23.7098 3.45533V2.6228L24.0131 3.36127L24.8342 3.02896L24.196 3.60039L24.7947 4.22368Z" fill="white"/>
<defs>
<linearGradient id="paint0_linear_16771_1418" x1="19.7987" y1="17.1185" x2="0.927446" y2="-1.75268" gradientUnits="userSpaceOnUse">
<stop offset="0.36" stop-color="white"/>
<stop offset="0.55" stop-color="white" stop-opacity="0"/>
</linearGradient>
</defs>
</svg>
