<svg width="77" height="77" viewBox="0 0 77 77" fill="none" xmlns="http://www.w3.org/2000/svg">
<path d="M38.4999 0.399902C17.4909 0.399902 0.399902 17.4909 0.399902 38.4999C0.399902 59.5089 17.4909 76.5999 38.4999 76.5999C59.5089 76.5999 76.5999 59.5089 76.5999 38.4999C76.5999 17.4909 59.5089 0.399902 38.4999 0.399902Z" fill="#303C42"/>
<path d="M38.4999 3.57471C56.5847 3.57471 71.4977 17.3923 73.2503 35.0231C70.6658 35.5946 64.0999 36.7884 54.213 36.8963C53.397 28.908 46.7041 22.6247 38.4999 22.6247C30.2957 22.6247 23.6028 28.9049 22.7868 36.8995C12.8999 36.7884 6.33396 35.5946 3.74951 35.0231C5.50211 17.3923 20.4183 3.57471 38.4999 3.57471Z" fill="#F41C5E"/>
<path d="M38.4998 51.1998C45.5138 51.1998 51.1998 45.5138 51.1998 38.4998C51.1998 31.4858 45.5138 25.7998 38.4998 25.7998C31.4858 25.7998 25.7998 31.4858 25.7998 38.4998C25.7998 45.5138 31.4858 51.1998 38.4998 51.1998Z" fill="#455A64"/>
<path d="M38.4997 73.4249C19.2433 73.4249 3.57471 57.7562 3.57471 38.4999C3.57471 38.411 3.58741 38.3252 3.58741 38.2363C6.61001 38.8809 13.1442 39.954 22.7835 40.062C23.5772 48.0725 30.2765 54.3749 38.4997 54.3749C46.723 54.3749 53.4222 48.0725 54.216 40.062C63.8521 39.954 70.3894 38.8809 73.412 38.2363C73.412 38.3252 73.4247 38.411 73.4247 38.4999C73.4247 57.7562 57.7561 73.4249 38.4997 73.4249Z" fill="white"/>
<path d="M38.4999 48.0251C43.7604 48.0251 48.0249 43.7606 48.0249 38.5001C48.0249 33.2396 43.7604 28.9751 38.4999 28.9751C33.2393 28.9751 28.9749 33.2396 28.9749 38.5001C28.9749 43.7606 33.2393 48.0251 38.4999 48.0251Z" fill="#303C42"/>
<path d="M38.4999 44.8499C42.0069 44.8499 44.8499 42.0069 44.8499 38.4999C44.8499 34.9929 42.0069 32.1499 38.4999 32.1499C34.9929 32.1499 32.1499 34.9929 32.1499 38.4999C32.1499 42.0069 34.9929 44.8499 38.4999 44.8499Z" fill="#F2F2F2"/>
<path opacity="0.2" d="M33.4072 40.4176C33.4072 36.9156 36.2552 34.0676 39.7572 34.0676C40.621 34.0696 41.4752 34.2487 42.267 34.5938C43.0588 34.939 43.7715 35.4428 44.3609 36.0742C43.8807 34.9145 43.0677 33.9229 42.0247 33.2245C40.9816 32.5261 39.7552 32.1522 38.4999 32.1499C34.9979 32.1499 32.1499 34.9979 32.1499 38.4999C32.1499 40.1827 32.8198 41.7066 33.893 42.8433C33.5726 42.0747 33.4075 41.2503 33.4072 40.4176Z" fill="white"/>
<path d="M38.4999 0.399902C17.4909 0.399902 0.399902 17.4909 0.399902 38.4999C0.399902 59.5089 17.4909 76.5999 38.4999 76.5999C59.5089 76.5999 76.5999 59.5089 76.5999 38.4999C76.5999 17.4909 59.5089 0.399902 38.4999 0.399902Z" fill="url(#paint0_linear_20045_2413)"/>
<path opacity="0.1" d="M66.5898 36.1187C69.7236 35.7377 71.9746 35.3059 73.251 35.0233C72.4005 26.5667 68.4892 18.7124 62.2528 12.938C65.4078 18.2757 67.0733 24.362 67.0756 30.5624C67.0756 32.4579 66.8851 34.3057 66.5898 36.1187ZM73.4129 38.2364C71.8445 38.5698 69.3076 39.0206 65.9009 39.3889C61.9766 54.3781 48.3526 65.4874 32.1506 65.4874C23.3099 65.4842 14.8026 62.1122 8.36035 56.0577C14.4246 66.424 25.6482 73.4249 38.5006 73.4249C57.757 73.4249 73.4256 57.7563 73.4256 38.4999C73.4256 38.411 73.4129 38.3253 73.4129 38.2364Z" fill="black"/>
<defs>
<linearGradient id="paint0_linear_20045_2413" x1="3.97178" y1="22.3995" x2="73.028" y2="54.6003" gradientUnits="userSpaceOnUse">
<stop stop-color="white" stop-opacity="0.2"/>
<stop offset="1" stop-color="white" stop-opacity="0"/>
</linearGradient>
</defs>
</svg>
