<svg width="90" height="90" viewBox="0 0 90 90" fill="none" xmlns="http://www.w3.org/2000/svg">
<g clip-path="url(#clip0_23594_9289)">
<path d="M44.9994 89.9988C69.8519 89.9988 89.9988 69.8519 89.9988 44.9994C89.9988 20.1469 69.8519 0 44.9994 0C20.1469 0 0 20.1469 0 44.9994C0 69.8519 20.1469 89.9988 44.9994 89.9988Z" fill="#EAEFF4"/>
<path opacity="0.2" d="M44.9994 89.9999C65.0079 89.9999 81.9644 76.9388 87.8145 58.8802C74.9373 51.9866 60.2236 48.0771 44.5965 48.0771C28.9693 48.0771 14.7792 51.8484 2.06592 58.5148C7.80474 76.7631 24.8561 89.9999 44.9994 89.9999Z" fill="#7CA5B9"/>
</g>
<mask id="mask0_23594_9289" style="mask-type:alpha" maskUnits="userSpaceOnUse" x="24" y="28" width="42" height="42">
<path d="M65.4645 42.201C65.4851 49.3081 60.9581 58.6311 48.2227 69.0262C26.6202 66.2925 22.3352 54.9115 25.4268 46.8503L25.4776 46.7184C25.484 46.701 25.4909 46.6835 25.4983 46.666C25.5952 46.4235 25.6989 46.1842 25.8091 45.9481C25.825 45.9136 25.8414 45.8792 25.8578 45.8448C27.8698 41.6757 32.1368 38.7997 37.0752 38.7997C37.5602 38.7997 38.0388 38.8272 38.5095 38.8812C38.5238 38.8229 38.5381 38.7658 38.5529 38.708C39.1121 36.5579 40.1816 34.6131 41.6239 33.0115C41.6249 33.0099 41.626 33.0088 41.6271 33.0077C44.1304 30.2296 47.7557 28.4834 51.7892 28.4834C58.9795 28.4834 64.8741 34.0333 65.4226 41.0827C65.4258 41.1288 65.429 41.1743 65.4322 41.2204C65.4523 41.5423 65.4634 41.869 65.4645 42.201Z" fill="#F41C5E"/>
</mask>
<g mask="url(#mask0_23594_9289)">
<path d="M65.4645 42.201C65.4851 49.3081 60.9581 58.6311 48.2227 69.0262C26.6202 66.2925 22.3352 54.9115 25.4268 46.8503L25.4776 46.7184C25.484 46.701 25.4909 46.6835 25.4983 46.666C25.5952 46.4235 25.6989 46.1842 25.8091 45.9481C25.825 45.9136 25.8414 45.8792 25.8578 45.8448C27.8698 41.6757 32.1368 38.7997 37.0752 38.7997C37.5602 38.7997 38.0388 38.8272 38.5095 38.8812C38.5238 38.8229 38.5381 38.7658 38.5529 38.708C39.1121 36.5579 40.1816 34.6131 41.6239 33.0115C41.6249 33.0099 41.626 33.0088 41.6271 33.0077C44.1304 30.2296 47.7557 28.4834 51.7892 28.4834C58.9795 28.4834 64.8741 34.0333 65.4226 41.0827C65.4258 41.1288 65.429 41.1743 65.4322 41.2204C65.4523 41.5423 65.4634 41.869 65.4645 42.201Z" fill="#F41C5E"/>
<path opacity="0.2" d="M64.0992 35.3684C59.3037 29.2114 55.0802 25.9548 51.5859 28.4067C51.5859 28.4067 57.1824 34.6754 58.6796 42.8238C60.7414 54.0442 55.2231 62.3656 55.4676 62.3656C66.0153 62.3656 70.8861 44.0823 64.0992 35.3684Z" fill="black"/>
</g>
<path d="M65.4644 42.1589V42.2013C65.4634 41.8693 65.4522 41.5426 65.4321 41.2207C65.4538 41.5304 65.4644 41.8434 65.4644 42.1589Z" fill="url(#paint0_linear_23594_9289)"/>
<path d="M25.8091 45.9473C25.699 46.1834 25.5952 46.4227 25.4983 46.6652C25.5941 46.4217 25.6979 46.1824 25.8091 45.9473Z" fill="url(#paint1_linear_23594_9289)"/>
<path d="M36.7328 48.221C37.9858 46.9679 37.9858 44.9364 36.7327 43.6833C35.4797 42.4303 33.4481 42.4303 32.1951 43.6833C30.9421 44.9364 30.9421 46.9679 32.1951 48.221C33.4481 49.474 35.4797 49.474 36.7328 48.221Z" fill="#FBF8FF"/>
<path d="M41.402 54.5507C41.402 54.5729 41.402 54.5957 41.4009 54.6179C41.402 60.1064 33.5319 59.8804 33.5319 59.8804C33.5319 59.8804 29.7626 58.7642 28.9027 54.9314C28.5077 53.1719 29.132 51.4204 30.3852 50.2964C30.4107 50.2715 30.4377 50.2477 30.4647 50.2249C30.5039 50.191 30.543 50.1582 30.5833 50.1264C30.758 49.9877 30.9497 49.868 31.1535 49.7674C31.19 49.7489 31.2271 49.7309 31.2647 49.7134C31.2705 49.7108 31.2769 49.7081 31.2838 49.7049C31.6915 49.5207 32.1447 49.418 32.6217 49.418C34.2774 49.418 35.6434 50.6548 35.8478 52.2544C36.4361 51.664 37.2504 51.2987 38.15 51.2987C39.9459 51.2987 41.402 52.7547 41.402 54.5507Z" fill="#FBF8FF"/>
<mask id="mask1_23594_9289" style="mask-type:alpha" maskUnits="userSpaceOnUse" x="37" y="11" width="17" height="17">
<path d="M50.7044 25.093C53.837 21.9604 53.837 16.8814 50.7044 13.7488C47.5718 10.6162 42.4929 10.6162 39.3603 13.7488C36.2277 16.8814 36.2277 21.9604 39.3603 25.093C42.4929 28.2256 47.5718 28.2256 50.7044 25.093Z" fill="#F41C5E"/>
</mask>
<g mask="url(#mask1_23594_9289)">
<path d="M50.7044 25.093C53.837 21.9604 53.837 16.8814 50.7044 13.7488C47.5718 10.6162 42.4929 10.6162 39.3603 13.7488C36.2277 16.8814 36.2277 21.9604 39.3603 25.093C42.4929 28.2256 47.5718 28.2256 50.7044 25.093Z" fill="#F41C5E"/>
<path d="M50.5681 25.4447C58.2168 20.7464 52.789 14.7436 49.1714 12.1864C45.5539 9.62915 35.8385 1.22535 40.204 12.916C40.204 12.916 43.2577 13.8214 46.8464 17.2615C50.5681 21.9125 50.5681 25.4447 50.5681 25.4447Z" fill="#C3164B"/>
</g>
<path opacity="0.3" d="M44.8955 80.0781C54.8361 80.0781 62.8955 79.406 62.8955 78.5781C62.8955 77.7502 54.8361 77.0781 44.8955 77.0781C34.9549 77.0781 26.8955 77.7502 26.8955 78.5781C26.8955 79.406 34.9549 80.0781 44.8955 80.0781Z" fill="#7CA5B9"/>
<defs>
<linearGradient id="paint0_linear_23594_9289" x1="65.2341" y1="41.5982" x2="65.663" y2="41.8237" gradientUnits="userSpaceOnUse">
<stop stop-color="#FAC4C6"/>
<stop offset="0.26" stop-color="#F9BDBF"/>
<stop offset="0.65" stop-color="#F7A9AC"/>
<stop offset="1" stop-color="#F69296"/>
</linearGradient>
<linearGradient id="paint1_linear_23594_9289" x1="25.628" y1="46.2925" x2="25.6799" y2="46.32" gradientUnits="userSpaceOnUse">
<stop stop-color="#FAC4C6"/>
<stop offset="0.26" stop-color="#F9BDBF"/>
<stop offset="0.65" stop-color="#F7A9AC"/>
<stop offset="1" stop-color="#F69296"/>
</linearGradient>
<clipPath id="clip0_23594_9289">
<rect width="90" height="90" fill="white"/>
</clipPath>
</defs>
</svg>
