<svg width="40" height="40" viewBox="0 0 40 40" fill="none" xmlns="http://www.w3.org/2000/svg">
<g clip-path="url(#clip0_16575_3281)">
<g clip-path="url(#clip1_16575_3281)">
<path d="M19.9997 39.9995C31.0453 39.9995 39.9995 31.0453 39.9995 19.9997C39.9995 8.95419 31.0453 0 19.9997 0C8.95419 0 0 8.95419 0 19.9997C0 31.0453 8.95419 39.9995 19.9997 39.9995Z" fill="#EAEFF4"/>
<path opacity="0.2" d="M19.9997 40C28.8924 40 36.4286 34.1951 39.0287 26.169C33.3055 23.1052 26.7661 21.3677 19.8207 21.3677C12.8753 21.3677 6.56855 23.0438 0.918213 26.0066C3.4688 34.117 11.0472 40 19.9997 40Z" fill="#7CA5B9"/>
</g>
<path opacity="0.3" d="M19.9922 28.4761C27.2826 28.4761 33.1922 28.2073 33.1922 27.8761C33.1922 27.5449 27.2826 27.2761 19.9922 27.2761C12.7018 27.2761 6.79224 27.5449 6.79224 27.8761C6.79224 28.2073 12.7018 28.4761 19.9922 28.4761Z" fill="#7CA5B9"/>
<path d="M16.1907 17.3353C14.3163 17.3825 12.6835 16.4081 11.9667 14.9809L12.1699 14.7193C12.1991 14.6845 12.2358 14.6568 12.2773 14.6382C12.3188 14.6197 12.3639 14.6107 12.4094 14.6121C12.4548 14.6135 12.4993 14.6252 12.5396 14.6462C12.5798 14.6673 12.6148 14.6972 12.6419 14.7337C12.9807 15.1766 13.4203 15.5325 13.924 15.7718C14.4277 16.011 14.9812 16.1269 15.5387 16.1097C17.3395 16.0641 18.7851 14.7065 18.9171 13.0113C18.9218 12.936 18.955 12.8652 19.01 12.8135C19.065 12.7618 19.1376 12.733 19.2131 12.7329H19.2171C19.8691 12.7473 20.0843 13.4817 20.4859 14.2161C20.0315 15.9561 18.2963 17.2825 16.1907 17.3353Z" fill="#333333"/>
<path d="M28.8051 21.7162C25.5051 20.4362 20.3011 13.425 20.3011 13.425C20.2702 13.3899 20.2318 13.3622 20.1887 13.3441C20.1456 13.326 20.0989 13.3179 20.0523 13.3204C20.0056 13.323 19.9601 13.3361 19.9192 13.3588C19.8783 13.3814 19.8431 13.4131 19.8163 13.4514C19.4793 13.9158 19.0364 14.2932 18.5244 14.5522C18.0124 14.8113 17.4461 14.9446 16.8723 14.941C15.0187 14.941 13.4955 13.581 13.3163 11.8418C13.3096 11.7643 13.2736 11.6922 13.2156 11.6404C13.1576 11.5885 13.082 11.5607 13.0043 11.5626H13.0003C11.9603 11.6122 12.0483 13.4106 10.8011 14.269C8.72107 15.6986 8.71387 17.869 8.71387 17.869C8.08107 19.9322 22.6251 29.0026 33.2171 26.7266C33.8227 26.5962 34.3459 23.8626 28.8051 21.7162Z" fill="#F41C5E"/>
<path opacity="0.2" d="M16.2323 16.2194C18.7739 16.4354 19.8171 15.1746 20.5171 13.6874C20.3779 13.5186 20.3011 13.4242 20.3011 13.4242C20.2702 13.3891 20.2318 13.3614 20.1887 13.3433C20.1456 13.3252 20.0989 13.3171 20.0523 13.3196C20.0056 13.3222 19.9601 13.3353 19.9192 13.358C19.8783 13.3806 19.8431 13.4123 19.8163 13.4506C19.4794 13.9152 19.0365 14.2927 18.5245 14.5519C18.0126 14.8111 17.4461 14.9445 16.8723 14.941C15.0187 14.941 13.4955 13.581 13.3163 11.8418C13.3096 11.7643 13.2736 11.6922 13.2156 11.6404C13.1576 11.5885 13.082 11.5607 13.0043 11.5626H13.0003C12.3299 11.5946 13.1467 15.9562 16.2323 16.2194Z" fill="#333333"/>
<g style="mix-blend-mode:multiply">
<path d="M21.7586 17.2289C21.7174 17.3046 21.6545 17.3664 21.5781 17.4065C21.5017 17.4465 21.4151 17.4629 21.3294 17.4537C21.2436 17.4446 21.1625 17.4101 21.0963 17.3548C21.0301 17.2995 20.9818 17.2258 20.9575 17.1431C20.9332 17.0603 20.934 16.9722 20.9598 16.8899C20.9856 16.8076 21.0352 16.7348 21.1024 16.6806C21.1695 16.6265 21.2513 16.5936 21.3372 16.5859C21.4231 16.5783 21.5094 16.5963 21.585 16.6377C21.6353 16.6651 21.6797 16.7021 21.7156 16.7466C21.7515 16.7912 21.7783 16.8424 21.7945 16.8973C21.8106 16.9522 21.8157 17.0098 21.8096 17.0667C21.8034 17.1236 21.7861 17.1787 21.7586 17.2289Z" fill="#333333"/>
</g>
<path d="M21.3123 16.9826C21.2387 16.8346 21.2507 16.7114 21.3331 16.7018C21.5716 16.6799 21.7981 16.5867 21.9829 16.4343C22.1677 16.2819 22.3022 16.0774 22.3691 15.8474C22.3939 15.7674 22.5035 15.7674 22.6195 15.8474C22.7355 15.9274 22.8171 16.0746 22.7923 16.1674C22.5251 16.8026 22.2819 17.029 21.6243 17.233C21.5291 17.2466 21.3859 17.1306 21.3123 16.9826Z" fill="white"/>
<path opacity="0.1" d="M22.7922 16.165C22.8138 16.085 22.7554 15.9618 22.6642 15.8794C22.7498 16.1714 22.5322 16.4842 22.245 16.6794C22.0219 16.829 21.4299 17.1394 21.2651 16.7858C21.2615 16.8558 21.2779 16.9254 21.3123 16.9866C21.3859 17.1346 21.5291 17.2506 21.6243 17.2346C22.2818 17.0266 22.525 16.8002 22.7922 16.165Z" fill="#333333"/>
<g style="mix-blend-mode:multiply">
<path d="M22.9586 18.549C22.9174 18.6247 22.8545 18.6865 22.7781 18.7265C22.7017 18.7665 22.6152 18.783 22.5294 18.7738C22.4436 18.7646 22.3625 18.7302 22.2963 18.6749C22.2301 18.6196 22.1818 18.5459 22.1575 18.4631C22.1332 18.3804 22.134 18.2923 22.1598 18.2099C22.1856 18.1276 22.2352 18.0548 22.3024 18.0007C22.3696 17.9466 22.4513 17.9137 22.5372 17.906C22.6231 17.8984 22.7094 17.9164 22.785 17.9578C22.8353 17.9851 22.8797 18.0222 22.9156 18.0667C22.9516 18.1113 22.9784 18.1624 22.9945 18.2174C23.0106 18.2723 23.0157 18.3298 23.0096 18.3867C23.0034 18.4436 22.9861 18.4988 22.9586 18.549Z" fill="#333333"/>
</g>
<path d="M22.5122 18.3026C22.4386 18.1546 22.4506 18.0314 22.533 18.0218C22.7716 18 22.998 17.9068 23.1828 17.7544C23.3676 17.602 23.5022 17.3974 23.569 17.1674C23.5938 17.0874 23.7034 17.0874 23.8194 17.1674C23.9354 17.2474 24.017 17.3946 23.9922 17.4874C23.725 18.1226 23.4818 18.349 22.8242 18.553C22.729 18.5666 22.5858 18.4506 22.5122 18.3026Z" fill="white"/>
<path opacity="0.1" d="M23.9923 17.4851C24.0139 17.4051 23.9555 17.2819 23.8643 17.1995C23.9499 17.4915 23.7323 17.8043 23.4451 17.9995C23.2219 18.1491 22.6299 18.4595 22.4651 18.1059C22.4616 18.1759 22.4779 18.2455 22.5123 18.3067C22.5859 18.4547 22.7291 18.5707 22.8243 18.5547C23.4819 18.3467 23.7251 18.1203 23.9923 17.4851Z" fill="#333333"/>
<path d="M21.3019 24.1321C18.9963 22.3353 11.1219 18.7009 8.71229 17.8665C8.18269 17.6833 7.90509 17.8281 7.77869 18.4769C7.77362 18.5199 7.75891 18.5613 7.73563 18.5979C7.71236 18.6344 7.68114 18.6653 7.64429 18.6881L20.1387 24.8169C20.1831 24.8392 20.2322 24.8505 20.2819 24.8497L22.0083 24.8361C22.0516 24.8361 22.0944 24.8448 22.1342 24.8618C22.174 24.8787 22.2099 24.9036 22.2398 24.9349C22.2697 24.9661 22.293 25.0031 22.3082 25.0436C22.3234 25.0841 22.3302 25.1273 22.3283 25.1705L22.3107 25.5593C22.3072 25.6347 22.3306 25.7089 22.3765 25.7688C22.4225 25.8287 22.4882 25.8703 22.5619 25.8865L31.0691 27.7473C32.0027 27.5529 32.7987 27.2089 33.3891 26.6817C33.6251 26.4761 25.8947 27.7161 21.3019 24.1321Z" fill="white"/>
<path opacity="0.2" d="M33.2171 26.7242C33.5907 26.6442 33.9314 25.5738 32.8395 24.2626C32.9353 24.5471 32.933 24.8555 32.8331 25.1386C32.2851 26.5714 28.9762 26.637 25.4418 25.285C23.2722 24.4554 21.5218 23.285 20.6227 22.1722V22.177C19.6935 20.3124 18.4255 18.637 16.8834 17.2362C16.4954 16.8882 15.9234 17.3594 16.1898 17.805C16.3904 18.1351 16.5869 18.4717 16.7794 18.8146C16.8176 18.8818 16.832 18.9599 16.8203 19.0363C16.8087 19.1127 16.7716 19.1829 16.7151 19.2357C16.6587 19.2885 16.5861 19.3207 16.5091 19.3272C16.4321 19.3336 16.3551 19.314 16.2906 19.2714C14.2942 17.9628 12.1448 16.904 9.89065 16.1186C9.69225 16.049 9.49065 15.9826 9.29625 15.917C8.95459 16.5135 8.75477 17.1805 8.71225 17.8666C8.08105 19.9298 22.625 29.0002 33.2171 26.7242Z" fill="#333333"/>
<path d="M6.43146 20.0233C6.20346 20.6145 7.51146 21.9433 10.7787 22.7529C11.4987 22.9305 15.1467 24.0977 19.4883 25.8577C24.2763 27.7961 30.8019 28.9961 33.3915 26.6841C33.6251 26.4761 25.8947 27.7121 21.3019 24.1321C18.9963 22.3353 11.1219 18.7009 8.71226 17.8665C8.18266 17.6833 7.90506 17.8281 7.77866 18.4769C7.68026 18.9881 7.06106 18.3873 6.43146 20.0233Z" fill="white"/>
</g>
<defs>
<clipPath id="clip0_16575_3281">
<rect width="40" height="40" fill="white"/>
</clipPath>
<clipPath id="clip1_16575_3281">
<rect width="40" height="40" fill="white"/>
</clipPath>
</defs>
</svg>
