<svg width="90" height="90" viewBox="0 0 90 90" fill="none" xmlns="http://www.w3.org/2000/svg">
<g clip-path="url(#clip0_23594_7369)">
<g clip-path="url(#clip1_23594_7369)">
<path d="M44.9994 89.9988C69.8519 89.9988 89.9988 69.8519 89.9988 44.9994C89.9988 20.1469 69.8519 0 44.9994 0C20.1469 0 0 20.1469 0 44.9994C0 69.8519 20.1469 89.9988 44.9994 89.9988Z" fill="#EAEFF4"/>
<path opacity="0.2" d="M44.9994 89.9999C65.0079 89.9999 81.9644 76.9388 87.8145 58.8802C74.9373 51.9866 60.2236 48.0771 44.5965 48.0771C28.9693 48.0771 14.7792 51.8484 2.06592 58.5148C7.80474 76.7631 24.8561 89.9999 44.9994 89.9999Z" fill="#7CA5B9"/>
</g>
<path opacity="0.3" d="M44.9827 64.0711C61.3861 64.0711 74.6827 63.4663 74.6827 62.7211C74.6827 61.9759 61.3861 61.3711 44.9827 61.3711C28.5793 61.3711 15.2827 61.9759 15.2827 62.7211C15.2827 63.4663 28.5793 64.0711 44.9827 64.0711Z" fill="#7CA5B9"/>
<path d="M36.4288 39.0048C32.2114 39.111 28.5376 36.9186 26.9248 33.7074L27.382 33.1188C27.4478 33.0405 27.5304 32.9782 27.6238 32.9364C27.7171 32.8946 27.8187 32.8745 27.9209 32.8777C28.0231 32.8808 28.1232 32.907 28.2138 32.9544C28.3044 33.0018 28.3831 33.0691 28.444 33.1512C29.2065 34.1478 30.1954 34.9484 31.3288 35.4868C32.4622 36.0252 33.7076 36.2859 34.9618 36.2472C39.0136 36.1446 42.2662 33.09 42.5632 29.2758C42.5737 29.1063 42.6485 28.9471 42.7722 28.8308C42.8959 28.7144 43.0593 28.6495 43.2292 28.6494H43.2382C44.7052 28.6818 45.1894 30.3342 46.093 31.9866C45.0706 35.9016 41.1664 38.886 36.4288 39.0048Z" fill="#333333"/>
<path d="M64.8112 48.8614C57.3862 45.9814 45.6772 30.2062 45.6772 30.2062C45.6077 30.1272 45.5213 30.0649 45.4243 30.0242C45.3273 29.9834 45.2224 29.9652 45.1173 29.9709C45.0123 29.9767 44.9099 30.0062 44.8179 30.0572C44.726 30.1083 44.6468 30.1795 44.5864 30.2656C43.8281 31.3106 42.8317 32.1597 41.6797 32.7426C40.5277 33.3254 39.2534 33.6253 37.9624 33.6172C33.7918 33.6172 30.3646 30.5572 29.9614 26.644C29.9463 26.4696 29.8653 26.3076 29.7348 26.1908C29.6044 26.0741 29.4343 26.0115 29.2594 26.0158H29.2504C26.9104 26.1274 27.1084 30.1738 24.3022 32.1052C19.6222 35.3218 19.606 40.2052 19.606 40.2052C18.1822 44.8474 50.9062 65.2558 74.7382 60.1348C76.1008 59.8414 77.278 53.6908 64.8112 48.8614Z" fill="#F41C5E"/>
<path opacity="0.2" d="M36.5227 36.4936C42.2413 36.9796 44.5885 34.1428 46.1635 30.7966C45.8503 30.4168 45.6775 30.2044 45.6775 30.2044C45.6081 30.1254 45.5216 30.0631 45.4247 30.0224C45.3277 29.9816 45.2227 29.9634 45.1177 29.9692C45.0126 29.9749 44.9103 30.0044 44.8183 30.0554C44.7263 30.1065 44.6471 30.1777 44.5867 30.2638C43.8287 31.3091 42.8323 32.1586 41.6803 32.7418C40.5283 33.325 39.2539 33.6251 37.9627 33.6172C33.7921 33.6172 30.3649 30.5572 29.9617 26.644C29.9466 26.4696 29.8656 26.3076 29.7352 26.1908C29.6047 26.0741 29.4347 26.0115 29.2597 26.0158H29.2507C27.7423 26.0878 29.5801 35.9014 36.5227 36.4936Z" fill="#333333"/>
<g style="mix-blend-mode:multiply">
<path d="M48.9571 38.765C48.8642 38.9354 48.7228 39.0744 48.5509 39.1645C48.379 39.2545 48.1842 39.2915 47.9912 39.2709C47.7983 39.2502 47.6158 39.1727 47.4668 39.0483C47.3179 38.9239 47.2092 38.7581 47.1545 38.5718C47.0998 38.3856 47.1016 38.1874 47.1596 38.0022C47.2176 37.817 47.3293 37.6531 47.4805 37.5314C47.6316 37.4097 47.8155 37.3355 48.0088 37.3183C48.2021 37.3011 48.3962 37.3416 48.5665 37.4348C48.6796 37.4964 48.7794 37.5797 48.8603 37.6799C48.9411 37.7801 49.0014 37.8953 49.0377 38.0189C49.074 38.1424 49.0856 38.2719 49.0717 38.3999C49.0579 38.528 49.0189 38.652 48.9571 38.765Z" fill="#333333"/>
</g>
<path d="M47.9524 38.2107C47.7868 37.8777 47.8138 37.6005 47.9992 37.5789C48.536 37.5298 49.0454 37.3201 49.4612 36.9772C49.877 36.6343 50.1798 36.174 50.3302 35.6565C50.386 35.4765 50.6326 35.4765 50.8936 35.6565C51.1546 35.8365 51.3382 36.1677 51.2824 36.3765C50.6812 37.8057 50.134 38.3151 48.6544 38.7741C48.4402 38.8047 48.118 38.5437 47.9524 38.2107Z" fill="white"/>
<path opacity="0.1" d="M51.2825 36.3711C51.3311 36.1911 51.1997 35.9139 50.9945 35.7285C51.1871 36.3855 50.6975 37.0893 50.0513 37.5285C49.5491 37.8651 48.2171 38.5635 47.8463 37.7679C47.8384 37.9255 47.8752 38.0821 47.9525 38.2197C48.1181 38.5527 48.4403 38.8137 48.6545 38.7777C50.1341 38.3097 50.6813 37.8003 51.2825 36.3711Z" fill="#333333"/>
<g style="mix-blend-mode:multiply">
<path d="M51.6568 41.7357C51.5639 41.9061 51.4226 42.0451 51.2506 42.1352C51.0787 42.2252 50.8839 42.2623 50.6909 42.2416C50.498 42.2209 50.3155 42.1434 50.1665 42.019C50.0176 41.8946 49.9089 41.7288 49.8542 41.5425C49.7995 41.3563 49.8013 41.1581 49.8593 40.9729C49.9173 40.7877 50.029 40.6238 50.1802 40.5021C50.3313 40.3804 50.5152 40.3062 50.7085 40.289C50.9018 40.2718 51.0959 40.3124 51.2662 40.4055C51.3793 40.4671 51.4791 40.5504 51.56 40.6506C51.6408 40.7508 51.7011 40.866 51.7374 40.9896C51.7737 41.1131 51.7853 41.2426 51.7714 41.3707C51.7576 41.4987 51.7186 41.6227 51.6568 41.7357Z" fill="#333333"/>
</g>
<path d="M50.6526 41.1804C50.487 40.8474 50.514 40.5702 50.6994 40.5486C51.2362 40.4995 51.7456 40.2898 52.1614 39.9469C52.5772 39.604 52.88 39.1438 53.0304 38.6262C53.0862 38.4462 53.3328 38.4462 53.5938 38.6262C53.8548 38.8062 54.0384 39.1374 53.9826 39.3462C53.3814 40.7754 52.8342 41.2848 51.3546 41.7438C51.1404 41.7744 50.8182 41.5134 50.6526 41.1804Z" fill="white"/>
<path opacity="0.1" d="M53.9827 39.3408C54.0313 39.1608 53.8999 38.8836 53.6947 38.6982C53.8873 39.3552 53.3977 40.059 52.7515 40.4982C52.2493 40.8348 50.9173 41.5332 50.5465 40.7376C50.5386 40.8952 50.5754 41.0519 50.6527 41.1894C50.8183 41.5224 51.1405 41.7834 51.3547 41.7474C52.8343 41.2794 53.3815 40.77 53.9827 39.3408Z" fill="#333333"/>
<path d="M47.9293 54.2977C42.7417 50.2549 25.0243 42.0774 19.6027 40.2C18.4111 39.7878 17.7865 40.1136 17.5021 41.5734C17.4907 41.6703 17.4576 41.7633 17.4052 41.8456C17.3529 41.9279 17.2826 41.9973 17.1997 42.0486L45.3121 55.8385C45.412 55.8887 45.5225 55.914 45.6343 55.9123L49.5187 55.8817C49.616 55.8816 49.7124 55.9012 49.8019 55.9394C49.8915 55.9776 49.9723 56.0335 50.0396 56.1039C50.1069 56.1742 50.1593 56.2574 50.1935 56.3486C50.2277 56.4397 50.2431 56.5368 50.2387 56.6341L50.1991 57.5089C50.1914 57.6785 50.2438 57.8455 50.3473 57.9802C50.4507 58.1149 50.5984 58.2087 50.7643 58.2451L69.9055 62.4319C72.0061 61.9945 73.7971 61.2205 75.1255 60.0343C75.6565 59.5717 58.2631 62.3617 47.9293 54.2977Z" fill="white"/>
<path opacity="0.2" d="M74.7386 60.1297C75.5792 59.9497 76.346 57.5413 73.889 54.5911C74.1046 55.2312 74.0995 55.9251 73.8746 56.5621C72.6416 59.7859 65.1968 59.9335 57.2444 56.8915C52.3628 55.0249 48.4244 52.3915 46.4012 49.8877V49.8985C44.3106 45.7031 41.4576 41.9334 37.988 38.7817C37.115 37.9987 35.828 39.0589 36.4274 40.0615C36.8786 40.8043 37.3208 41.5615 37.754 42.3331C37.8398 42.4843 37.8722 42.66 37.846 42.8319C37.8197 43.0038 37.7364 43.1618 37.6093 43.2806C37.4823 43.3993 37.319 43.4718 37.1457 43.4864C36.9724 43.5009 36.7993 43.4567 36.6542 43.3609C32.1622 40.4166 27.3261 38.0343 22.2542 36.2671C21.8078 36.1105 21.3542 35.9611 20.9168 35.8135C20.1481 37.1555 19.6985 38.6564 19.6028 40.2001C18.1826 44.8423 50.9066 65.2507 74.7386 60.1297Z" fill="#333333"/>
<path d="M14.4708 45.0528C13.9578 46.383 16.9008 49.3728 24.252 51.1944C25.872 51.594 34.08 54.2202 43.8486 58.1802C54.6216 62.5416 69.3042 65.2417 75.1308 60.0397C75.6564 59.5717 58.263 62.3527 47.9292 54.2977C42.7416 50.2549 25.0242 42.0774 19.6026 40.2C18.411 39.7878 17.7864 40.1136 17.502 41.5734C17.2806 42.7236 15.8874 41.3718 14.4708 45.0528Z" fill="white"/>
</g>
<defs>
<clipPath id="clip0_23594_7369">
<rect width="90" height="90" fill="white"/>
</clipPath>
<clipPath id="clip1_23594_7369">
<rect width="90" height="90" fill="white"/>
</clipPath>
</defs>
</svg>
