<svg width="90" height="90" viewBox="0 0 90 90" fill="none" xmlns="http://www.w3.org/2000/svg">
<g clip-path="url(#clip0_23594_9137)">
<g clip-path="url(#clip1_23594_9137)">
<path d="M44.9994 89.9988C69.8519 89.9988 89.9988 69.8519 89.9988 44.9994C89.9988 20.1469 69.8519 0 44.9994 0C20.1469 0 0 20.1469 0 44.9994C0 69.8519 20.1469 89.9988 44.9994 89.9988Z" fill="#EAEFF4"/>
<path opacity="0.2" d="M44.9994 89.9999C65.0079 89.9999 81.9644 76.9388 87.8145 58.8802C74.9373 51.9866 60.2236 48.0771 44.5965 48.0771C28.9693 48.0771 14.7792 51.8484 2.06592 58.5148C7.80474 76.7631 24.8561 89.9999 44.9994 89.9999Z" fill="#7CA5B9"/>
</g>
<path opacity="0.1" d="M53.1397 73.2908C64.6037 73.2908 73.8971 72.6359 73.8971 71.828C73.8971 71.0201 64.6037 70.3652 53.1397 70.3652C41.6757 70.3652 32.3823 71.0201 32.3823 71.828C32.3823 72.6359 41.6757 73.2908 53.1397 73.2908Z" fill="#333333"/>
<path d="M35.8554 27.9368C33.1611 29.4866 31.0088 31.8276 29.6902 34.6423L36.1711 36.387C36.9194 35.2374 37.9285 34.2806 39.1163 33.5945C40.3041 32.9084 41.6371 32.5124 43.0069 32.4386L44.7435 25.9576C41.6479 25.6901 38.5449 26.381 35.8554 27.9368Z" fill="white"/>
<path d="M43.4458 71.0534C42.6808 71.4952 41.8362 71.7819 40.9604 71.8972C40.0845 72.0125 39.1945 71.9541 38.3412 71.7255C37.4879 71.4968 36.688 71.1023 35.9872 70.5645C35.2863 70.0266 34.6983 69.356 34.2566 68.591L34.2225 68.5372L17.0924 43.8521L17.0501 43.7756C16.1965 42.233 15.9828 40.417 16.4549 38.7184C16.927 37.0199 18.0473 35.5746 19.5744 34.6938L48.6882 17.8844L49.8486 17.2138C51.3753 16.3325 53.1868 16.0855 54.8937 16.5259C56.6005 16.9663 58.0664 18.059 58.976 19.5689L59.0216 19.6454L71.8304 46.8256C71.8402 46.8468 71.85 46.8647 71.8597 46.8826C72.7519 48.4279 72.9937 50.2644 72.5319 51.988C72.0701 53.7116 70.9425 55.1811 69.3972 56.0734L43.4458 71.0534Z" fill="white"/>
<path d="M41.9791 68.508C41.5477 68.7573 41.0714 68.9191 40.5775 68.9843C40.0835 69.0494 39.5816 69.0166 39.1003 68.8876C38.6191 68.7587 38.1679 68.5362 37.7727 68.2329C37.3775 67.9295 37.0459 67.5513 36.7969 67.1197C36.7465 67.0302 36.6911 66.9439 36.6342 66.8593L19.5888 42.306C19.1264 41.4373 19.0194 40.423 19.2902 39.477C19.561 38.5309 20.1885 37.7269 21.0405 37.2345L21.1382 37.1792L32.1323 40.1088L41.2841 42.5713C42.2313 42.8249 43.2405 42.692 44.0899 42.2019C44.9392 41.7117 45.5592 40.9044 45.8136 39.9574L48.403 30.2897L51.2122 19.818L51.3212 19.7562C52.1732 19.2644 53.1828 19.1228 54.1372 19.3611C55.0915 19.5995 55.916 20.1992 56.4367 21.0338L69.1804 48.0708C69.2227 48.1603 69.2716 48.2531 69.3237 48.3426C69.8261 49.2142 69.9619 50.2496 69.7013 51.2213C69.4407 52.193 68.8049 53.0215 67.9337 53.5247L41.9791 68.508Z" fill="#F41C5E" stroke="#F41C5E" stroke-width="2.51762" stroke-miterlimit="10"/>
<path d="M35.8554 27.9368C33.1611 29.4866 31.0088 31.8276 29.6902 34.6423L36.1711 36.387C36.9194 35.2374 37.9285 34.2806 39.1163 33.5945C40.3041 32.9084 41.6371 32.5124 43.0069 32.4386L44.7435 25.9576C41.6479 25.6901 38.5449 26.381 35.8554 27.9368Z" fill="#DDDDDD"/>
<path fill-rule="evenodd" clip-rule="evenodd" d="M39.0716 33.51C39.4408 33.2982 39.8248 33.1133 40.2206 32.9567L37.8672 31.417L38.0218 34.2278C38.354 33.9636 38.7048 33.7237 39.0716 33.51Z" fill="#F41C5E"/>
<path d="M33.0052 33.0141L31.4949 31.8553M35.8974 28.0126L36.8479 29.6597L35.8974 28.0126ZM41.4246 26.1182L41.6736 28.011L41.4246 26.1182Z" stroke="#333333" stroke-width="0.314703" stroke-miterlimit="10" stroke-linecap="round"/>
<path d="M39.9652 26.3867L40.1979 27.3893M34.6122 28.846L35.2078 29.676L34.6122 28.846ZM32.3792 30.8153L33.1278 31.5168L32.3792 30.8153ZM33.4533 29.7688L34.1288 30.5386L33.4533 29.7688ZM38.5508 26.7952L38.8764 27.7718L38.5508 26.7952ZM37.1528 27.36L37.5743 28.291L37.1528 27.36Z" stroke="#333333" stroke-width="0.314703" stroke-miterlimit="10" stroke-linecap="round"/>
</g>
<defs>
<clipPath id="clip0_23594_9137">
<rect width="90" height="90" fill="white"/>
</clipPath>
<clipPath id="clip1_23594_9137">
<rect width="90" height="90" fill="white"/>
</clipPath>
</defs>
</svg>
