<svg width="48" height="48" viewBox="0 0 48 48" fill="none" xmlns="http://www.w3.org/2000/svg">
<g clip-path="url(#clip0_9673_125885)">
<g clip-path="url(#clip1_9673_125885)">
<path d="M48 24.0003C48 24.5519 47.9813 25.0984 47.9444 25.6406C47.1018 38.1302 36.7035 48 24.0003 48C23.8966 48 23.7936 48 23.6899 47.9981C11.1279 47.8388 0.891353 38.0283 0.0555924 25.6406C0.018739 25.0984 0 24.5519 0 24.0003C0 10.7456 10.7456 0 24.0003 0C37.255 0 48 10.7456 48 24.0003Z" fill="#EAEFF4"/>
<mask id="mask0_9673_125885" style="mask-type:luminance" maskUnits="userSpaceOnUse" x="0" y="0" width="48" height="48">
<path d="M48 24.0003C48 24.5519 47.9813 25.0984 47.9444 25.6406C47.1018 38.1302 36.7035 48 24.0003 48C23.8966 48 23.7936 48 23.6899 47.9981C11.1279 47.8388 0.891353 38.0283 0.0555924 25.6406C0.018739 25.0984 0 24.5519 0 24.0003C0 10.7456 10.7456 0 24.0003 0C37.255 0 48 10.7456 48 24.0003Z" fill="white"/>
</mask>
<g mask="url(#mask0_9673_125885)">
<path opacity="0.2" d="M47.0148 34.5385C45.8067 52.4442 28.3901 66.5941 10.1782 66.5941C10.0296 66.5941 9.88155 66.5934 9.73288 66.5915C-8.27657 66.3629 -22.9523 52.298 -24.1504 34.5385H18.2579L18.4059 39.0664H18.8438L18.8994 34.5385H19.8676L19.9475 37.1088L19.9638 37.6254L20.0312 39.7779H20.4691L20.4935 37.7235L20.5016 37.0045L20.5303 34.5385H47.0167H47.0148Z" fill="#7CA5B9"/>
<path opacity="0.2" d="M19.9464 37.1083L19.9626 37.6248C19.5972 37.5424 19.4023 37.4549 19.4023 37.365C19.4023 37.2751 19.5922 37.1901 19.947 37.1083H19.9464Z" fill="#7CA5B9"/>
<path opacity="0.2" d="M50.9518 37.3654C50.9518 37.5553 50.078 37.7333 48.5651 37.8833C48.4002 37.9001 48.2278 37.9164 48.0485 37.9314C47.7019 37.962 47.3296 37.9907 46.9317 38.0182C46.7743 38.0288 46.6131 38.0394 46.4482 38.0507C45.9304 38.0838 45.3751 38.1144 44.788 38.1431C44.4888 38.1575 44.1808 38.1712 43.8647 38.1837C41.3737 38.2855 38.3867 38.3455 35.1767 38.3455C28.5012 38.3455 22.7952 38.0875 20.4922 37.724L20.5003 37.005C21.9495 36.7777 24.7322 36.5915 28.2526 36.4847C28.2426 36.5259 28.2376 36.569 28.2376 36.6128C28.2376 36.9282 28.4937 37.183 28.8092 37.183C29.1246 37.183 29.3795 36.9276 29.3795 36.6128C29.3795 36.5572 29.3714 36.5047 29.3564 36.4541C29.3682 36.4528 29.3807 36.4528 29.3932 36.4528H35.7701C35.7557 36.5028 35.7476 36.5565 35.7476 36.6121C35.7476 36.9276 36.0031 37.1824 36.3179 37.1824C36.6327 37.1824 36.8882 36.9269 36.8882 36.6121C36.8882 36.5334 36.872 36.4578 36.8432 36.3904C39.4142 36.4072 41.8016 36.4622 43.8541 36.5459C44.1827 36.5597 44.5025 36.574 44.8129 36.589C45.3745 36.6159 45.9054 36.6452 46.4033 36.6765C46.5894 36.6883 46.7712 36.7008 46.9479 36.7121C47.3258 36.7389 47.6813 36.7658 48.0129 36.7945C48.2097 36.8126 48.399 36.8295 48.5782 36.8476C50.083 36.9982 50.9525 37.1743 50.9525 37.3654H50.9518Z" fill="#7CA5B9"/>
<path opacity="0.7" d="M34.1512 23.9665C33.8608 24.127 33.6097 24.3325 33.4079 24.5717C33.3642 24.3794 33.3173 24.177 33.2661 23.9646L34.1506 23.9665H34.1512Z" fill="#7CA5B9"/>
<path opacity="0.7" d="M37.8081 28.4269H37.1241L37.0498 28.1277C37.0848 28.0989 37.1179 28.0683 37.1491 28.0371C37.3471 27.8391 37.482 27.5792 37.5251 27.29L37.8081 28.4262V28.4269Z" fill="#7CA5B9"/>
<path opacity="0.7" d="M38.2995 23.9745C38.2995 24.0982 38.2807 24.225 38.242 24.3506L37.3713 26.4487V26.45C37.2576 26.2463 37.0927 26.0764 36.894 25.9571L37.2826 24.9871C37.4518 24.5867 37.4893 24.225 37.355 23.9727L38.2988 23.9745H38.2995Z" fill="#7CA5B9"/>
<path opacity="0.7" d="M36.8879 36.6123C36.8879 36.9278 36.6324 37.1826 36.3176 37.1826C36.0028 37.1826 35.7473 36.9271 35.7473 36.6123C35.7473 36.5567 35.7554 36.503 35.7698 36.4531H29.356V36.4543C29.371 36.5043 29.3791 36.5574 29.3791 36.613C29.3791 36.9284 29.1237 37.1832 28.8088 37.1832C28.494 37.1832 28.2373 36.9278 28.2373 36.613C28.2373 36.5692 28.2429 36.5261 28.2523 36.4849C28.3098 36.2313 28.5371 36.0414 28.8082 36.0414C28.8832 36.0414 28.955 36.0564 29.0212 36.0833L32.0282 35.9608L31.9607 31.7995C31.9489 31.1093 31.7246 30.4434 31.3249 29.895L33.3118 30.4272C33.0688 30.9019 32.942 31.4329 32.9464 31.9794L32.9202 35.9602L36.0902 36.0889C36.1602 36.0595 36.2364 36.0427 36.3157 36.0427C36.5518 36.0427 36.7542 36.187 36.8416 36.3918C36.8704 36.4599 36.8866 36.5349 36.8866 36.6136L36.8879 36.6123Z" fill="#7CA5B9"/>
<path opacity="0.7" d="M37.6884 28.4276H36.3298H32.8943H32.6638H28.2852H27.5618H27.4419V28.4732C27.4419 28.5138 27.475 28.5469 27.5156 28.5469H28.2845L28.708 28.5488C29.1421 28.5507 29.5688 28.6394 29.961 28.8068C30.3552 28.9735 30.7162 29.2196 31.021 29.5332C31.131 29.6463 31.2322 29.7668 31.3252 29.893V29.8943L33.3122 30.4264C33.4859 30.0891 33.717 29.7799 33.9993 29.5157L34.1498 29.3739C34.7445 28.8186 35.5215 28.5525 36.3292 28.5475H36.5216L36.7983 28.5494V28.5475H37.7334C37.774 28.5475 37.8071 28.5144 37.8071 28.4738V28.4282H37.6871L37.6884 28.4276Z" fill="#7CA5B9"/>
<path opacity="0.4" d="M37.5394 27.0971C37.5394 27.1614 37.535 27.2264 37.5263 27.2876V27.2901C37.4832 27.5793 37.3482 27.8391 37.1502 28.0371C37.119 28.0684 37.0859 28.099 37.0509 28.1265C36.8217 28.3145 36.5287 28.4263 36.2101 28.4263H28.2998C28.2417 28.4263 28.1849 28.4219 28.1299 28.4138L28.4866 26.9809L28.594 26.5474L28.2817 25.7666H36.2108C36.4613 25.7666 36.6955 25.8353 36.896 25.9565C37.0946 26.0758 37.2595 26.2457 37.3726 26.4493C37.48 26.6411 37.5412 26.861 37.5412 27.0964L37.5394 27.0971Z" fill="#7CA5B9"/>
<path opacity="0.4" d="M32.9508 22.7409L33.0526 23.0444H25.85L25.2185 20.3885C24.8175 17.9081 25.1198 16.5739 25.597 15.8593L26.2616 15.6263C26.4434 15.5626 26.539 15.3639 26.4759 15.1822L26.1873 15.2834C26.697 14.9761 27.1823 15.0535 27.1823 15.0535C30.1575 14.7162 31.9945 19.2935 32.9502 22.7415L32.9508 22.7409Z" fill="#7CA5B9"/>
<path opacity="0.4" d="M27.5973 25.7671H27.1282V27.1238L26.8902 26.4255C26.576 25.5485 26.308 24.7384 26.0825 23.9913L26.952 23.9869C26.9539 24.1069 26.9726 24.2287 27.0095 24.3505L27.5979 25.7671H27.5973Z" fill="#7CA5B9"/>
<path opacity="0.4" d="M33.6553 25.7671H32.1337C32.1299 25.5497 32.1543 25.3355 32.2024 25.1293C32.2811 24.7902 32.426 24.4704 32.6253 24.1799C32.6765 24.1056 32.7308 24.0331 32.7883 23.9625L33.2668 23.9644C33.318 24.1768 33.3642 24.3792 33.4086 24.5715C33.5141 25.0469 33.5966 25.4554 33.6559 25.7671H33.6553Z" fill="#7CA5B9"/>
<path opacity="0.4" d="M32.7886 23.9632C32.7312 24.0338 32.6768 24.1062 32.6256 24.1806C32.427 24.471 32.2814 24.7902 32.2027 25.13C32.1546 25.3361 32.1302 25.5497 32.134 25.7677H28.2806L27.9683 24.9876C27.8009 24.5916 27.7622 24.2343 27.8915 23.9819L31.0977 23.9651L31.7336 23.9613L32.4632 23.9632H32.7892H32.7886Z" fill="#7CA5B9"/>
<path opacity="0.4" d="M27.9131 26.5291L27.7825 27.0551L27.5165 28.127C27.2785 27.9127 27.1279 27.601 27.1279 27.2556V25.7671H27.597L27.9131 26.5291Z" fill="#7CA5B9"/>
<path opacity="0.7" d="M28.5932 26.5488L28.4858 26.9823L28.1291 28.4152L28.1266 28.4277H27.4426L27.517 28.1279L27.783 27.056L27.9136 26.5301L27.5975 25.768L27.0091 24.3513C26.9723 24.2295 26.9535 24.1077 26.9517 23.9878L27.8911 23.9822C27.7624 24.2345 27.8005 24.5918 27.9679 24.9878L28.2803 25.768L28.5926 26.5488H28.5932Z" fill="#7CA5B9"/>
<path opacity="0.7" d="M31.2855 23.0444H27.3696C27.6132 22.8233 27.9524 22.679 28.3572 22.6653L29.2991 22.6322C30.0262 22.6053 30.707 22.7596 31.2855 23.0444Z" fill="#7CA5B9"/>
<path opacity="0.7" d="M33.1165 25.7674C33.1159 25.8786 33.1065 25.9904 33.0915 26.1034L33.036 26.5026L32.9435 27.1572L32.7661 28.4271H32.1277L32.3058 27.1572L32.387 26.5707L32.3995 26.4845C32.4332 26.239 32.4307 25.9985 32.3938 25.7674C32.3601 25.5444 32.2945 25.3301 32.2014 25.1296C31.9778 24.6468 31.5943 24.2395 31.0952 23.9647L31.7311 23.9609L32.4607 23.9628C32.5181 24.0334 32.5725 24.1059 32.6237 24.1802C32.8223 24.4706 32.9679 24.7898 33.0472 25.1296C33.0947 25.3358 33.119 25.5494 33.1153 25.7674H33.1165Z" fill="#7CA5B9"/>
<g opacity="0.3">
<path d="M19.0272 23.9779L18.8991 34.5386L18.8435 39.0659H18.4056L18.2582 34.5386L17.9141 23.9779H19.0272Z" fill="#7CA5B9"/>
<path d="M20.6503 24.0097L20.5285 34.5386L20.5004 37.0046L20.4923 37.7236L20.4679 39.778H20.03L19.9626 37.6255L19.9469 37.1083L19.867 34.5386L19.5391 24.006L20.6503 24.0097Z" fill="#7CA5B9"/>
<path d="M20.6506 23.9779V24.0098L19.5393 24.006L19.5381 23.9779H20.6506Z" fill="#7CA5B9"/>
</g>
<path opacity="0.4" d="M38.2995 23.9747L37.3557 23.9728L34.1525 23.9665H34.1519L33.2674 23.9647L32.789 23.9628H32.4629L31.7333 23.9609L31.0975 23.9647L27.8912 23.9815L26.9518 23.9872L26.0823 23.9915L22.119 24.0128L20.6511 24.009L19.5399 24.0053L19.0276 24.004L17.9152 24.0015L17.3205 23.9997C17.0607 23.9997 16.8521 23.7867 16.8521 23.5243V23.5199C16.8521 23.2563 17.0626 23.0433 17.3211 23.0433H37.881C38.1477 23.2851 38.3001 23.618 38.2995 23.974V23.9747Z" fill="#7CA5B9"/>
<path opacity="0.4" d="M49.6622 23.5207C49.6622 23.7836 49.4517 23.9973 49.1931 23.9973H48.7265L47.614 23.9935H47.1025L45.9894 23.991L38.2989 23.9748C38.2995 23.6194 38.1477 23.2864 37.8804 23.0441H49.1925C49.4511 23.0441 49.6616 23.2571 49.6616 23.5207H49.6622Z" fill="#7CA5B9"/>
<path opacity="0.5" d="M47.4248 13.7801L45.4985 21.0321H42.043L42.4315 16.734H39.9973L39.3052 21.0321H34.3862L36.1846 13.7801L35.989 13.7095L47.2924 13.7488L47.4248 13.7801Z" fill="#7CA5B9"/>
<g opacity="0.5">
<path opacity="0.7" d="M42.4314 16.7341L42.0429 21.0322L41.8611 23.0448H39.5469L39.6081 22.5557L39.7967 21.0322L40.3314 16.7341H42.4314Z" fill="#7CA5B9"/>
</g>
<path opacity="0.2" d="M40.3314 16.734L39.7967 21.0321L39.6081 22.5556L39.5469 23.0447H38.981L39.0597 22.5556L39.3051 21.0321L39.9972 16.734H40.3314Z" fill="#7CA5B9"/>
<path opacity="0.2" d="M36.1846 13.7807L35.9891 13.7095L34.1689 20.9259L34.3863 21.0327L36.1846 13.7807Z" fill="#7CA5B9"/>
<path opacity="0.2" d="M21.5929 19.0207L20.2862 22.5518H19.9751L20.4211 21.3481L20.521 21.0789L21.3193 18.9196L21.5929 19.0207Z" fill="#7CA5B9"/>
<path d="M23.9455 22.8428V23.0452H19.4575V22.8428C19.4575 22.6817 19.5874 22.5518 19.7486 22.5518H20.9342C20.9666 22.5667 23.6226 22.5518 23.6226 22.5518H23.6551C23.8156 22.5518 23.9461 22.6817 23.9461 22.8428H23.9455Z" fill="#7CA5B9"/>
<path opacity="0.2" d="M21.4825 18.6035C21.3795 18.5972 21.2795 18.6434 21.2164 18.7253L20.5537 17.2836C20.6574 17.2998 20.7605 17.2611 20.8298 17.1862L21.4825 18.6035Z" fill="#7CA5B9"/>
<path opacity="0.2" d="M20.9081 17.0281C20.9262 16.9251 20.89 16.8214 20.8169 16.7502L22.0124 16.3317L22.1093 16.6078L20.9081 17.0275V17.0281Z" fill="#7CA5B9"/>
<path d="M20.8168 16.7508C20.7875 16.7215 20.7506 16.6977 20.7088 16.6827C20.6463 16.6596 20.5813 16.6577 20.5214 16.674C20.4926 16.6809 20.4652 16.6927 20.4402 16.7083C20.4096 16.7265 20.3827 16.7496 20.3596 16.777C20.3384 16.8033 20.3202 16.8333 20.3078 16.8676C20.2684 16.9744 20.2915 17.09 20.3596 17.1731C20.3808 17.2012 20.4089 17.2249 20.4402 17.2436C20.4564 17.2536 20.4733 17.2618 20.492 17.2686C20.502 17.2724 20.512 17.2749 20.5214 17.2774C20.532 17.2799 20.5439 17.283 20.5545 17.2836C20.6582 17.2999 20.7612 17.2611 20.8306 17.1862C20.8574 17.1575 20.8787 17.1225 20.893 17.0837C20.8999 17.0656 20.9049 17.0469 20.908 17.0282C20.9261 16.9251 20.8899 16.8214 20.8168 16.7502V16.7508ZM20.7881 17.0444C20.7856 17.0525 20.7812 17.0613 20.7762 17.0688C20.7306 17.1568 20.6257 17.1981 20.5307 17.1631C20.527 17.1618 20.5239 17.1606 20.5208 17.1587C20.5083 17.1543 20.4976 17.1481 20.4876 17.14C20.4677 17.1281 20.452 17.1125 20.4396 17.0944C20.4002 17.0413 20.3883 16.9719 20.4127 16.9063C20.4189 16.8882 20.4277 16.8714 20.4396 16.857C20.4602 16.8276 20.4889 16.8058 20.5208 16.7927C20.5664 16.7721 20.6194 16.7696 20.6694 16.7883C20.7731 16.827 20.8262 16.9413 20.7875 17.045L20.7881 17.0444Z" fill="#7CA5B9"/>
<path d="M20.7879 17.0443C20.7854 17.0524 20.7811 17.0612 20.7761 17.0687C20.7305 17.1567 20.6255 17.198 20.5306 17.163C20.5268 17.1617 20.5237 17.1605 20.5206 17.1586C20.5081 17.1542 20.4975 17.148 20.4875 17.1399C20.4675 17.128 20.4519 17.1124 20.4394 17.0943C20.4 17.0412 20.3882 16.9718 20.4125 16.9063C20.4188 16.8881 20.4275 16.8713 20.4394 16.8569C20.46 16.8275 20.4887 16.8057 20.5206 16.7926C20.5662 16.772 20.6193 16.7695 20.6693 16.7882C20.773 16.8269 20.826 16.9412 20.7873 17.0449L20.7879 17.0443Z" fill="#EAEFF4"/>
<path opacity="0.2" d="M26.2623 15.6261L25.5976 15.8591L22.7537 16.8541C22.5719 16.9179 22.3733 16.8229 22.3096 16.6411L23.7618 16.1327V16.1302L25.0711 15.6717V15.6736L26.1879 15.2838L26.4765 15.1826C26.5402 15.3644 26.444 15.563 26.2623 15.6267V15.6261Z" fill="#7CA5B9"/>
<path d="M26.6437 15.12L25.0708 15.6709L23.761 16.1294L22.14 16.6972L22.1082 16.6085L22.012 16.3324L21.9839 16.2531L22.1282 16.2025L26.3195 14.7352L26.4875 14.6765L26.6437 15.12Z" fill="#7CA5B9"/>
<path d="M21.573 18.6221C21.5424 18.6102 21.513 18.604 21.4824 18.6033C21.3794 18.5971 21.2794 18.6433 21.2163 18.7251C21.1976 18.7495 21.1826 18.777 21.1714 18.8064C21.1114 18.9688 21.1945 19.1474 21.3556 19.2074C21.518 19.2673 21.6967 19.1849 21.7566 19.0231C21.8166 18.8619 21.7342 18.682 21.5724 18.6221H21.573ZM21.6529 18.985C21.6142 19.0881 21.4987 19.1405 21.3962 19.1031C21.295 19.0656 21.2419 18.9544 21.2763 18.8532V18.8519C21.2763 18.8519 21.2769 18.8476 21.2782 18.8457C21.3156 18.742 21.4312 18.6889 21.5349 18.7276C21.5368 18.7283 21.5393 18.7295 21.5411 18.7301C21.6398 18.7707 21.6898 18.8826 21.6529 18.9844V18.985Z" fill="#7CA5B9"/>
<path d="M21.6532 18.9851C21.6145 19.0882 21.4989 19.1406 21.3965 19.1032C21.2953 19.0657 21.2422 18.9545 21.2766 18.8533V18.8521C21.2766 18.8521 21.2772 18.8477 21.2784 18.8458C21.3159 18.7421 21.4315 18.689 21.5352 18.7278C21.537 18.7284 21.5395 18.7296 21.5414 18.7303C21.6401 18.7709 21.6901 18.8827 21.6532 18.9845V18.9851Z" fill="#EAEFF4"/>
<path opacity="0.1" d="M5.38009 21.8495H-0.901855V14.4538L-0.028617 13.5806H5.38009V21.8495Z" fill="#7CA5B9"/>
</g>
</g>
<path opacity="0.1" d="M24.0047 47.7456C32.0928 47.7456 38.6495 47.2685 38.6495 46.68C38.6495 46.0915 32.0928 45.6144 24.0047 45.6144C15.9166 45.6144 9.35986 46.0915 9.35986 46.68C9.35986 47.2685 15.9166 47.7456 24.0047 47.7456Z" fill="#222222"/>
<path d="M30.1537 14.6736C30.1537 14.6736 25.7281 15.1488 27.4417 32.6592C27.4417 32.6592 30.6721 32.6256 31.7761 31.7088L32.3233 18.2112C32.3233 18.216 32.9809 14.9856 30.1537 14.6736Z" fill="#C7C7C7"/>
<path d="M30.9119 17.04C30.9119 17.04 30.4079 21.0912 28.1231 22.9872C26.8703 24.0288 25.7567 23.6592 24.8879 23.976C24.1727 24.24 23.7119 24.3168 23.7119 24.3168C22.9583 23.8992 22.7327 23.4624 22.5503 23.0256C22.5503 23.0256 25.1663 22.0992 26.1983 20.9808C27.2303 19.8624 27.4703 16.824 28.6799 15.6432C28.9919 15.3408 29.4623 15.2736 29.8559 15.6576C30.4175 16.2 30.9119 17.04 30.9119 17.04Z" fill="#C7C7C7"/>
<path opacity="0.1" d="M30.9118 17.0399C30.9118 17.0399 30.4078 21.0911 28.123 22.9871C26.8702 24.0287 25.5406 23.7695 24.6094 24.0719L24.787 23.9327C24.787 23.9327 28.0798 22.9439 28.0942 18.4655C28.6606 19.0127 30.9118 17.0399 30.9118 17.0399Z" fill="#222222"/>
<path d="M29.2656 43.3872L28.92 45.1296L27.4272 45.0384L27.6 43.0752L29.2656 43.3872Z" fill="#6F4535"/>
<path opacity="0.1" d="M27.5999 43.0752L27.5615 43.5072C27.5615 43.5072 28.6079 44.0784 29.2175 43.6416L29.2655 43.392L27.5999 43.0752Z" fill="#222222"/>
<path d="M35.0401 43.4688L34.9585 45.2352L33.4657 45.3696L33.3457 43.4016L35.0401 43.4688Z" fill="#6F4535"/>
<path opacity="0.1" d="M33.3457 43.4016L33.3697 43.8336C33.3697 43.8336 34.5025 43.9392 35.0257 43.7184L35.0353 43.464L33.3457 43.4016Z" fill="#222222"/>
<path d="M35.5776 43.3776C35.5776 43.3776 35.3088 43.4304 34.9152 43.488C34.4544 43.5504 33.816 43.6176 33.24 43.5984C33.0384 43.5936 32.8416 43.5744 32.664 43.5408C32.664 43.5408 31.3872 36.84 31.1184 35.6928C30.8496 34.5456 30.8496 31.7616 30.8496 31.7616L30.8448 31.776C30.8016 32.0016 30.2976 34.7568 30.2112 35.568C30.2064 35.616 30.2016 35.6592 30.2016 35.6928C30.1632 36.3024 30.4512 38.8416 29.6928 43.3728C29.6928 43.3728 29.3856 43.4784 28.9536 43.5264C28.4736 43.5744 27.8352 43.5504 27.312 43.2C27.2832 43.1808 27.2544 43.1616 27.2256 43.1376C27.2256 43.1376 27.3408 37.5984 27.456 35.4624C27.5712 33.3264 27.4944 30.2352 27.8736 27.8352C28.2576 25.4304 28.3632 24.4608 28.3632 24.4608L33.7056 24.5952C33.7056 24.5952 34.3536 26.6928 34.5072 27.9888C34.6608 29.2848 33.9744 34.2816 33.9744 35.0448C33.9744 35.808 34.4928 36.5424 35.0448 38.808C35.6304 41.16 35.5776 43.3776 35.5776 43.3776Z" fill="#2D9C86"/>
<path d="M30.6575 46.3728C30.8927 46.4592 31.1999 46.5408 31.9295 46.56C32.6591 46.5792 33.4415 46.3536 33.5759 46.248C33.7103 46.1424 33.9791 45.912 34.1855 45.864C34.3391 45.8304 34.8719 45.7296 35.1407 45.6816C35.1167 45.288 35.0927 44.8512 35.0831 44.8032C35.0735 44.7168 35.0543 44.6784 35.0543 44.6784C35.0543 44.6784 34.9487 44.5632 34.7711 44.6928C34.5935 44.8224 34.2047 45.0624 34.1567 45.072C34.1087 45.0816 33.7295 44.8752 33.6623 44.808C33.5951 44.7408 33.6095 44.6544 33.6863 44.5104C33.7631 44.3664 33.8831 44.1552 33.8927 44.088C33.9023 44.0256 33.2639 43.944 33.2639 43.944C33.1535 43.9296 33.1439 43.9392 33.0623 44.0016C32.9807 44.064 31.5311 45.2496 31.5311 45.2496C31.1327 45.4752 30.2783 45.6864 30.1967 45.7056C30.1151 45.7248 30.0191 45.7392 29.9759 45.8208C29.9567 45.8592 29.9423 45.9072 29.9375 45.9648C30.1535 46.1184 30.4703 46.3056 30.6575 46.3728Z" fill="#8F8F8F"/>
<path d="M35.1742 46.3199C35.1742 46.2623 35.1598 45.9839 35.1454 45.6815C34.8766 45.7295 34.339 45.8303 34.1902 45.8639C33.9838 45.9119 33.7198 46.1471 33.5806 46.2479C33.4414 46.3487 32.6638 46.5791 31.9342 46.5599C31.2046 46.5407 30.8974 46.4591 30.6622 46.3727C30.475 46.3055 30.163 46.1183 29.947 45.9647C29.9422 46.0367 29.9518 46.1183 29.9806 46.1999C30.0334 46.3487 30.4606 46.6271 30.8878 46.7423C31.315 46.8575 32.9038 46.8767 33.619 46.8095C34.3342 46.7423 34.7614 46.6559 34.9006 46.6271C35.0398 46.5983 35.1694 46.4543 35.1742 46.3199Z" fill="#DDDDDD"/>
<path d="M24.8401 45.8736C25.0753 45.96 25.3825 46.0416 26.1121 46.0608C26.8417 46.08 27.6241 45.8544 27.7585 45.7488C27.8977 45.6432 28.1617 45.4128 28.3681 45.3648C28.5217 45.3312 29.0545 45.2304 29.3233 45.1824C29.2993 44.7888 29.2753 44.352 29.2657 44.304C29.2561 44.2176 29.2369 44.1792 29.2369 44.1792C29.2369 44.1792 29.1313 44.064 28.9537 44.1936C28.7761 44.3232 28.3873 44.5632 28.3393 44.5728C28.2913 44.5824 27.9121 44.376 27.8449 44.3088C27.7777 44.2416 27.7921 44.1552 27.8689 44.0112C27.9409 43.8672 28.0657 43.656 28.0753 43.5888C28.0849 43.5264 27.4465 43.4448 27.4465 43.4448C27.3361 43.4304 27.3265 43.44 27.2449 43.5024C27.1633 43.5648 25.7137 44.7504 25.7137 44.7504C25.3153 44.976 24.4609 45.1872 24.3793 45.2064C24.2977 45.2256 24.2017 45.24 24.1585 45.3216C24.1393 45.36 24.1249 45.408 24.1201 45.4656C24.3361 45.6192 24.6529 45.8064 24.8401 45.8736Z" fill="#8F8F8F"/>
<path d="M29.3568 45.816C29.3568 45.7584 29.3424 45.48 29.328 45.1776C29.0592 45.2256 28.5216 45.3264 28.3728 45.36C28.1664 45.408 27.9024 45.6432 27.7632 45.744C27.624 45.8496 26.8464 46.0752 26.1168 46.056C25.3872 46.0368 25.08 45.9552 24.8448 45.8688C24.6576 45.8016 24.3456 45.6144 24.1296 45.4608C24.1248 45.5328 24.1344 45.6144 24.1632 45.696C24.216 45.8448 24.6432 46.1232 25.0704 46.2384C25.4976 46.3536 27.0864 46.3728 27.8016 46.3056C28.5168 46.2336 28.944 46.152 29.0832 46.1232C29.2128 46.0944 29.3568 45.9552 29.3568 45.816Z" fill="#DDDDDD"/>
<path opacity="0.1" d="M30.8547 31.7664L30.8499 31.7808C30.8067 32.0064 30.3027 34.7616 30.2163 35.568L30.6243 29.52L30.8547 31.7664Z" fill="#222222"/>
<path d="M35.6111 21.3264C35.4815 23.568 35.6831 25.056 35.2079 25.3152C34.7327 25.5744 33.0095 25.9632 31.3727 25.8768C29.1791 25.7616 28.4879 25.5312 28.1855 25.0128C27.8831 24.4944 28.0271 21.5424 28.0703 19.8192C28.1135 18.096 28.0223 16.296 28.6847 15.6384C29.2463 15.0768 30.3983 14.304 31.9919 14.3472C33.5855 14.3904 34.8911 14.9232 35.4095 16.0128C35.4815 16.1616 35.5391 16.368 35.5823 16.6128C35.7695 17.6688 35.7167 19.5072 35.6111 21.3264Z" fill="#2D9C86"/>
<path d="M33.1872 14.4863C33.1872 14.4863 30.96 15.3695 30.96 33.1487C30.96 33.1487 34.4784 32.6255 35.5824 31.7135L36.1296 18.2159C36.1296 18.2159 36.0144 14.7935 33.1872 14.4863Z" fill="#C7C7C7"/>
<path opacity="0.1" d="M35.6835 19.8288C35.6451 20.9616 35.1459 22.032 34.2915 22.776C34.2867 22.7808 34.2819 22.7856 34.2771 22.7904C32.1939 24.6 30.5379 24.7968 28.1235 23.8176C29.3139 23.7216 29.3715 23.7792 29.7411 23.3904C30.9603 22.104 32.1603 21.2832 33.3795 19.9968L35.5827 16.6176C35.7171 17.376 35.7267 18.5472 35.6835 19.8288Z" fill="#222222"/>
<path d="M27.9985 22.3295C27.9985 22.3295 28.8673 15.4703 29.7361 14.8463C29.7361 14.8463 28.5745 15.3791 28.1281 16.4015L27.9985 22.3295Z" fill="#C7C7C7"/>
<path d="M32.8706 25.8384H35.0258V27.9408C35.0258 28.3056 34.7282 28.608 34.3634 28.608H33.5378C33.173 28.608 32.8706 28.3104 32.8706 27.9408V25.8384Z" fill="#D6D6D6"/>
<path d="M33.0675 15.6384C33.0675 15.6384 33.6963 19.6704 31.8723 20.6496C31.0563 21.0864 27.8595 21.4992 26.5875 22.1328C26.5683 22.7136 26.8131 23.2416 27.2931 23.7216C27.2931 23.7216 30.1971 24.1296 32.9571 23.0352C35.7171 21.9408 35.5779 16.608 35.5779 16.608L33.0675 15.6384Z" fill="#C7C7C7"/>
<path opacity="0.1" d="M26.5874 22.1328C26.5874 22.1328 27.6482 22.6272 27.293 23.7216C27.293 23.7216 26.5922 23.2224 26.5874 22.1328Z" fill="#222222"/>
<mask id="mask1_9673_125885" style="mask-type:luminance" maskUnits="userSpaceOnUse" x="23" y="22" width="3" height="3">
<path d="M25.4067 22.9247C25.3203 22.9631 25.1043 23.0687 24.7875 23.3855C24.7875 23.3855 24.5187 23.5199 24.3459 23.5967C24.3459 23.5967 23.8659 23.6495 23.7459 23.7887C23.7459 23.7887 23.6547 23.9567 23.8131 23.9855C23.8323 23.9903 23.8563 23.9903 23.8851 23.9903C23.8467 23.9999 23.8083 24.0239 23.7891 24.0575C23.7891 24.0575 23.7459 24.3071 24.1491 24.2351C24.1443 24.2351 24.1395 24.2351 24.1299 24.2351C24.1299 24.2351 24.1347 24.2351 24.1443 24.2351C24.1299 24.2447 24.1203 24.2639 24.1155 24.3023C24.1155 24.3023 24.1203 24.3935 24.4563 24.3647L24.8883 24.3839C24.8883 24.3839 24.9651 24.4559 25.0803 24.4367C25.0803 24.4367 25.1907 24.4415 25.3443 24.4175L25.4067 22.9247ZM25.3875 22.8959L25.3779 22.8767C25.3635 22.8719 25.3491 22.8719 25.3347 22.8719C25.2723 22.8719 25.2243 22.9151 25.1859 22.9439C25.1859 22.9439 25.1859 22.9439 25.1811 22.9487C25.2531 22.9247 25.3347 22.9007 25.3875 22.8959Z" fill="white"/>
</mask>
<g mask="url(#mask1_9673_125885)">
<path d="M21.7251 19.8864C21.7251 19.8864 23.1651 20.6688 25.4643 20.328L25.2723 25.0512L21.7251 24.6816V19.8864Z" fill="#F8F8F8"/>
</g>
<path d="M27.0145 22.4449C27.2977 22.7473 27.4129 23.1073 27.3601 23.4193C27.1441 23.4865 26.7169 23.5969 26.7169 23.5969C26.5537 23.7985 26.0017 24.1297 26.0017 24.1297C25.6369 24.4561 25.0849 24.4321 25.0849 24.4321C24.9649 24.4561 24.8929 24.3793 24.8929 24.3793L24.4609 24.3601C24.1201 24.3889 24.1201 24.2977 24.1201 24.2977C24.1201 24.2545 24.1345 24.2353 24.1489 24.2257C23.7457 24.2977 23.7889 24.0481 23.7889 24.0481C23.8081 24.0097 23.8465 23.9905 23.8849 23.9809C23.6305 23.9953 23.7457 23.7841 23.7457 23.7841C23.8657 23.6449 24.3457 23.5921 24.3457 23.5921C24.5185 23.5153 24.7873 23.3809 24.7873 23.3809C25.2337 22.9297 25.4833 22.9057 25.4353 22.8865C25.3873 22.8673 25.0129 22.9921 25.0129 22.9921C24.3169 23.1793 24.5137 22.7473 24.5137 22.7473C24.6721 22.5985 25.0225 22.5793 25.0225 22.5793C25.9681 22.1137 26.4865 22.4401 26.4865 22.4401C26.5489 22.4689 26.8321 22.4593 27.0145 22.4449Z" fill="#6F4535"/>
<path opacity="0.1" d="M25.2001 23.6305C25.2001 23.6305 24.7921 23.8561 24.5137 23.9137C24.5137 23.9137 24.2161 23.9953 23.9761 23.9713L23.8081 23.9857C23.8081 23.9857 24.5713 23.9281 24.7681 23.7649C24.7777 23.7649 25.1089 23.6977 25.2001 23.6305Z" fill="#222222"/>
<path opacity="0.1" d="M24.1299 24.2352C24.1299 24.2352 24.4755 24.264 24.6483 24.1968C24.6483 24.1968 25.1235 24.1056 25.2243 24.024C25.2243 24.024 24.7683 24.1248 24.6147 24.1248C24.6099 24.1296 24.2979 24.2304 24.1299 24.2352Z" fill="#222222"/>
<path opacity="0.1" d="M24.8882 24.384C24.8882 24.384 25.2626 24.312 25.3634 24.2064C25.3634 24.2064 25.7522 24.0912 25.8194 24.1104C25.8194 24.1104 25.445 24.12 25.277 24.1728C25.2818 24.1776 25.0946 24.3456 24.8882 24.384Z" fill="#222222"/>
<mask id="mask2_9673_125885" style="mask-type:luminance" maskUnits="userSpaceOnUse" x="21" y="19" width="5" height="7">
<path d="M21.6289 19.7904V25.152H25.5601V19.7904H21.6289ZM25.1857 22.944C25.2241 22.9152 25.2721 22.872 25.3345 22.872C25.3489 22.872 25.3633 22.872 25.3777 22.8768L25.3873 22.896C25.3345 22.9008 25.2529 22.9248 25.1857 22.944C25.1857 22.944 25.1809 22.944 25.1857 22.944ZM25.3489 24.4176C25.1953 24.4416 25.0849 24.4368 25.0849 24.4368C24.9649 24.4608 24.8929 24.384 24.8929 24.384L24.4609 24.3648C24.1201 24.3936 24.1201 24.3024 24.1201 24.3024C24.1201 24.264 24.1345 24.2448 24.1489 24.2352C24.1393 24.2352 24.1345 24.2352 24.1345 24.2352C24.1393 24.2352 24.1441 24.2352 24.1537 24.2352C23.7505 24.3072 23.7937 24.0576 23.7937 24.0576C23.8129 24.0192 23.8513 24 23.8897 23.9904C23.8609 23.9904 23.8417 23.9904 23.8177 23.9856C23.6593 23.9568 23.7505 23.7888 23.7505 23.7888C23.8705 23.6496 24.3505 23.5968 24.3505 23.5968C24.5233 23.52 24.7921 23.3856 24.7921 23.3856C25.1089 23.0688 25.3249 22.9584 25.4065 22.92L25.4113 22.9248L25.3489 24.4176Z" fill="white"/>
</mask>
<g mask="url(#mask2_9673_125885)">
<path d="M21.7251 19.8864C21.7251 19.8864 23.1651 20.6688 25.4643 20.328L25.2723 25.0512L21.7251 24.6816V19.8864Z" fill="#F8F8F8"/>
</g>
<path d="M29.9762 10.0656C29.7986 9.96477 29.6642 9.78717 29.645 9.58077C29.6402 9.53277 29.6546 9.47997 29.6786 9.43677C29.645 9.39357 29.6354 9.32637 29.6402 9.26397C29.645 9.07677 29.6978 8.88957 29.7842 8.72157C29.7122 8.79357 29.621 8.64957 29.6306 8.55357C29.6594 8.27997 29.8226 8.02077 30.0626 7.87677C30.101 7.85277 30.1442 7.83837 30.1874 7.82397C30.221 7.73277 30.3074 7.66077 30.3986 7.62717C30.5138 7.58397 30.6434 7.58877 30.7682 7.59357V7.58877C30.7586 7.33437 31.1138 7.25277 31.2194 7.48797C31.2482 7.55037 31.2626 7.61277 31.2674 7.67997C31.2914 7.53597 31.4402 7.43517 31.5842 7.44477C31.7282 7.45437 31.8578 7.55037 31.925 7.67997C31.9394 7.70397 31.949 7.73277 31.9538 7.75677C32.093 7.73757 32.2274 7.73277 32.3618 7.77597C32.5298 7.82877 32.6786 7.98717 32.669 8.16477C33.0674 8.16957 33.4322 8.50077 33.4802 8.89437C33.4898 8.95677 33.485 9.02877 33.437 9.06717C33.4226 9.08157 33.3986 9.08637 33.3794 9.08157C33.5042 9.23997 33.557 9.45597 33.509 9.65757C33.4562 9.88797 33.2738 10.0848 33.0482 10.152C33.0242 10.1616 32.9954 10.1616 32.9666 10.1616C32.981 10.2048 32.9906 10.2576 32.9858 10.3008C32.9666 10.5024 32.8322 10.6944 32.645 10.776C32.4578 10.8576 32.2274 10.824 32.0642 10.6944C32.093 10.8816 31.9298 11.0592 31.7426 11.088C31.5554 11.1168 31.3682 11.0208 31.2434 10.8768C31.1474 11.016 30.917 11.0208 30.7874 10.9104C30.6578 10.8 30.6098 10.6128 30.6242 10.44C30.341 10.5696 29.957 10.3584 29.9186 10.0512L29.9762 10.0656Z" fill="#222222"/>
<path d="M30.6579 12.8447C30.6867 12.9887 30.8307 13.1039 30.9795 13.0943C31.0611 13.0559 31.1283 12.9743 31.1475 12.8831C31.4451 12.9167 31.7043 12.5519 31.5795 12.2783C31.6467 12.3551 31.7619 12.2639 31.8099 12.1775C31.9779 11.8751 32.0259 11.5055 31.9443 11.1647C31.9827 10.9391 31.9875 10.6415 31.7763 10.5503C31.9251 10.2383 31.6131 9.82074 31.2723 9.87354C31.2435 9.60954 30.9939 9.39354 30.7299 9.40794C30.6531 9.41274 30.5715 9.43194 30.4995 9.40794C30.3555 9.36474 30.2931 9.18234 30.1491 9.13914C30.0963 9.11994 30.0339 9.12954 29.9763 9.13434C29.7411 9.15834 29.5059 9.19674 29.2707 9.23994C29.2755 9.14874 29.1651 9.08634 29.0787 9.09594C28.9875 9.11034 28.9155 9.17274 28.8483 9.23514C28.7427 9.33114 28.6371 9.42714 28.5315 9.52314C28.4259 9.51834 28.3395 9.59514 28.2627 9.66714C28.1619 9.76314 28.0563 9.86874 28.0083 10.0031C27.9027 10.3007 28.1955 10.6655 28.5123 10.6175C28.5027 10.5599 28.4115 10.5551 28.3731 10.5983C28.3347 10.6415 28.3395 10.7087 28.3491 10.7663C28.4115 11.0447 28.6803 11.2607 28.9635 11.2703C28.8771 11.4671 28.9059 11.7167 29.0403 11.8847C29.1747 12.0527 29.4099 12.1391 29.6211 12.0959C29.5395 12.2927 29.7219 12.5423 29.9331 12.5279C29.8851 12.6575 29.9427 12.8255 30.0627 12.8927C30.1827 12.9599 30.3555 12.9311 30.4467 12.8207L30.6579 12.8447Z" fill="#222222"/>
<path d="M32.069 14.5919C31.9202 14.0351 31.541 13.0031 31.3778 12.4367C31.4354 12.5663 32.3618 11.9855 31.5266 11.4191C31.3778 11.3183 31.1282 11.3903 31.0706 11.5583C30.8546 10.9919 30.6578 10.6415 30.5282 10.0511C29.6738 10.3151 27.749 10.9247 27.749 10.9247C27.8498 11.8175 28.2002 12.9983 28.4786 13.8527C28.5218 13.9823 28.5698 14.1167 28.685 14.1935C28.9538 14.3759 29.573 13.9391 29.8946 13.8959C29.8802 13.9103 30.437 15.6671 30.4562 16.7423C30.7346 16.3343 32.0834 14.6543 32.069 14.5919Z" fill="#6F4535"/>
<path opacity="0.1" d="M29.8945 13.9008L31.0321 13.4208L30.0241 14.4096L29.8945 13.9008Z" fill="#333333"/>
<path d="M30.437 12.0432C30.3986 12.1008 30.3554 12.1536 30.317 12.2112C30.1538 12.0624 30.125 11.7888 30.245 11.6064C30.1634 11.6928 30.0002 11.616 29.9666 11.5008C29.9378 11.3856 29.9474 11.0592 30.005 10.9536C29.8226 11.0016 29.5586 11.0064 29.5154 10.8192C29.2994 10.8672 29.069 10.8384 28.877 10.7328C28.6514 10.8336 28.4114 11.0112 28.205 10.872C28.0946 10.9056 27.9458 11.0496 27.9026 11.1552C27.8594 11.2608 27.9746 11.64 27.8642 11.6544C27.7682 11.664 27.5474 11.2992 27.5234 11.2464C27.4322 11.0544 27.4658 10.7664 27.5666 10.584C27.5954 10.5312 27.6962 10.3584 27.7442 10.3152C27.8546 10.2192 27.9218 10.08 28.061 10.0512C28.3058 10.0032 28.6994 10.2096 28.9442 10.1616C29.0786 9.97923 29.3234 9.90723 29.549 9.93123C29.645 9.94083 29.765 10.0224 29.7074 10.0992C29.8898 10.0752 30.245 9.92643 30.4274 9.97443C30.6098 10.0224 30.6098 10.2816 30.6338 10.464C30.8018 10.4448 30.9794 10.5264 31.0754 10.6656C31.1714 10.8048 31.1762 11.0016 31.0946 11.1504C31.3442 11.2032 31.4498 11.5776 31.2578 11.7504C31.4402 11.8368 31.397 12.1488 31.2146 12.2304C31.0322 12.312 30.8066 12.2112 30.677 12.0576C30.5522 12.1392 30.4322 12.3024 30.3122 12.2112L30.437 12.0432Z" fill="#222222"/>
<path d="M19.3536 17.3232C19.3536 17.3232 20.1072 17.7264 20.2512 18.2064C20.3952 18.6816 20.0736 21.8928 20.3088 22.3824C20.544 22.872 20.7696 25.6848 20.4048 27.0384C20.4048 27.0384 20.6832 28.2432 20.5968 28.4784C20.5104 28.7136 19.7904 29.0064 19.536 28.9872C19.2816 28.968 19.1472 27.4704 19.4304 27.0432L19.3536 17.3232Z" fill="#FFC3BA"/>
<path d="M18.2349 43.3872L18.5805 45.1296L20.0733 45.0384L19.9005 43.0752L18.2349 43.3872Z" fill="#FFB39A"/>
<path opacity="0.1" d="M19.9005 43.0752L19.9389 43.5072C19.9389 43.5072 18.8925 44.0784 18.2829 43.6416L18.2349 43.392L19.9005 43.0752Z" fill="#222222"/>
<path d="M12.4609 43.4688L12.5425 45.2352L14.0353 45.3696L14.1553 43.4016L12.4609 43.4688Z" fill="#FFB39A"/>
<path opacity="0.1" d="M14.1549 43.4016L14.1309 43.8336C14.1309 43.8336 12.9981 43.9392 12.4749 43.7184L12.4653 43.464L14.1549 43.4016Z" fill="#222222"/>
<path d="M11.9231 43.3776C11.9231 43.3776 12.1919 43.4304 12.5855 43.488C13.0463 43.5504 13.6847 43.6176 14.2559 43.5984C14.4575 43.5936 14.6543 43.5744 14.8367 43.5408C14.8367 43.5408 16.1135 36.84 16.3823 35.6928C16.6511 34.5456 16.6511 31.7616 16.6511 31.7616L16.6559 31.776C16.6991 32.0016 17.2031 34.7568 17.2895 35.568C17.2943 35.616 17.2991 35.6592 17.2991 35.6928C17.3375 36.3024 17.0495 38.8416 17.8079 43.3728C17.8079 43.3728 18.1151 43.4784 18.5471 43.5264C19.0271 43.5744 19.6655 43.5504 20.1887 43.2C20.2175 43.1808 20.2463 43.1616 20.2751 43.1376C20.2751 43.1376 20.1599 37.5984 20.0447 35.4624C19.9295 33.3264 20.0063 30.2352 19.6271 27.8352C19.2479 25.4304 19.1375 24.4608 19.1375 24.4608L13.7951 24.5952C13.7951 24.5952 13.1471 26.6928 12.9935 27.9888C12.8399 29.2848 13.5263 34.2816 13.5263 35.0448C13.5263 35.808 13.0079 36.5424 12.4559 38.808C11.8703 41.16 11.9231 43.3776 11.9231 43.3776Z" fill="#595959"/>
<path d="M16.8431 46.3728C16.6079 46.4592 16.3007 46.5408 15.5711 46.56C14.8415 46.5792 14.0591 46.3536 13.9247 46.248C13.7903 46.1424 13.5215 45.912 13.3151 45.864C13.1615 45.8304 12.6287 45.7296 12.3599 45.6816C12.3839 45.288 12.4079 44.8512 12.4175 44.8032C12.4271 44.7168 12.4463 44.6784 12.4463 44.6784C12.4463 44.6784 12.5519 44.5632 12.7295 44.6928C12.9071 44.8224 13.2959 45.0624 13.3439 45.072C13.3919 45.0816 13.7711 44.8752 13.8383 44.808C13.9055 44.7408 13.8911 44.6544 13.8191 44.5104C13.7471 44.3664 13.6223 44.1552 13.6127 44.088C13.6031 44.0256 14.2415 43.944 14.2415 43.944C14.3519 43.9296 14.3663 43.9392 14.4431 44.0016C14.5199 44.064 15.9743 45.2496 15.9743 45.2496C16.3727 45.4752 17.2271 45.6864 17.3087 45.7056C17.3903 45.7248 17.4863 45.7392 17.5295 45.8208C17.5487 45.8592 17.5631 45.9072 17.5679 45.9648C17.3471 46.1184 17.0303 46.3056 16.8431 46.3728Z" fill="#F41C5E"/>
<path d="M12.3262 46.3199C12.3262 46.2623 12.3406 45.9839 12.355 45.6815C12.6238 45.7295 13.1614 45.8303 13.3102 45.8639C13.5166 45.9119 13.7806 46.1471 13.9198 46.2479C14.059 46.3487 14.8366 46.5791 15.5662 46.5599C16.2958 46.5407 16.603 46.4591 16.8382 46.3727C17.0254 46.3055 17.3374 46.1183 17.5534 45.9647C17.5582 46.0367 17.5486 46.1183 17.5198 46.1999C17.467 46.3487 17.035 46.6271 16.6126 46.7423C16.1902 46.8575 14.5966 46.8767 13.8814 46.8095C13.1662 46.7423 12.739 46.6559 12.5998 46.6271C12.4606 46.5983 12.331 46.4543 12.3262 46.3199Z" fill="#DDDDDD"/>
<path d="M22.6609 45.8736C22.4257 45.96 22.1185 46.0416 21.3889 46.0608C20.6593 46.08 19.8769 45.8544 19.7425 45.7488C19.6033 45.6432 19.3393 45.4128 19.1329 45.3648C18.9793 45.3312 18.4465 45.2304 18.1777 45.1824C18.2017 44.7888 18.2305 44.352 18.2353 44.304C18.2449 44.2176 18.2641 44.1792 18.2641 44.1792C18.2641 44.1792 18.3697 44.064 18.5473 44.1936C18.7249 44.3232 19.1137 44.5632 19.1617 44.5728C19.2097 44.5824 19.5889 44.376 19.6561 44.3088C19.7233 44.2416 19.7089 44.1552 19.6369 44.0112C19.5649 43.8672 19.4401 43.656 19.4305 43.5888C19.4209 43.5264 20.0593 43.4448 20.0593 43.4448C20.1697 43.4304 20.1841 43.44 20.2609 43.5024C20.3377 43.5648 21.7921 44.7504 21.7921 44.7504C22.1905 44.976 23.0449 45.1872 23.1265 45.2064C23.2081 45.2256 23.3041 45.24 23.3473 45.3216C23.3665 45.36 23.3809 45.408 23.3857 45.4656C23.1649 45.6192 22.8481 45.8064 22.6609 45.8736Z" fill="#F41C5E"/>
<path d="M18.144 45.816C18.144 45.7584 18.1584 45.48 18.1728 45.1776C18.4416 45.2256 18.9792 45.3264 19.128 45.36C19.3344 45.408 19.5984 45.6432 19.7376 45.744C19.8768 45.8496 20.6544 46.0752 21.384 46.056C22.1136 46.0368 22.4208 45.9552 22.656 45.8688C22.8432 45.8016 23.1552 45.6144 23.3712 45.4608C23.376 45.5328 23.3664 45.6144 23.3376 45.696C23.2848 45.8448 22.8576 46.1232 22.4304 46.2384C22.0032 46.3536 20.4144 46.3728 19.6992 46.3056C18.984 46.2336 18.5568 46.152 18.4176 46.1232C18.288 46.0944 18.144 45.9552 18.144 45.816Z" fill="#DDDDDD"/>
<path opacity="0.1" d="M16.6465 31.7664L16.6513 31.7808C16.6945 32.0064 17.1985 34.7616 17.2849 35.568L16.8769 29.52L16.6465 31.7664Z" fill="#222222"/>
<path d="M20.784 25.584C20.784 25.584 20.5632 25.728 20.2848 25.8432C20.1072 25.9152 19.9104 25.9824 19.7232 25.992C19.6848 25.9968 19.6464 25.9968 19.608 25.992C19.584 25.992 19.5648 25.968 19.5408 25.9248C19.1712 25.2144 18.7488 19.1808 18.5712 16.3344C18.5136 15.4416 18.48 14.8608 18.48 14.8608C18.48 14.8608 18.9984 14.8896 19.4256 15.3792C19.6224 15.6048 19.92 16.5888 20.1792 17.5776C20.4816 18.7248 20.784 25.584 20.784 25.584Z" fill="#8529A6"/>
<path opacity="0.1" d="M20.2844 25.8432C20.1068 25.9152 19.91 25.9824 19.7228 25.992L19.5404 25.9248C19.1708 25.2144 18.7484 19.1808 18.5708 16.3344C19.7756 16.8192 20.1932 23.9136 20.2844 25.8432Z" fill="#222222"/>
<path d="M12.9502 25.4688C13.7614 23.6544 14.0014 23.1696 14.0158 22.5984C14.0254 22.1472 13.8046 21.6576 13.3726 20.4624C13.2718 20.1792 13.1998 19.8912 13.1566 19.5984C12.9022 17.8848 14.2078 14.7936 14.9758 14.6352C15.2062 14.5728 15.595 13.7424 15.5902 12.4032L15.6958 12.4224L17.4382 12.768C17.4382 12.768 17.3998 13.3152 17.395 13.8336C17.395 14.2656 17.419 14.6736 17.5198 14.7264C17.6446 14.736 17.7214 14.7456 17.7214 14.7456C17.7214 14.7456 19.1758 16.7664 19.2958 18.6432C19.4158 20.52 18.1342 21.336 19.3054 25.0896C20.5054 28.92 12.5038 26.472 12.9502 25.4688Z" fill="#FFC3BA"/>
<path opacity="0.1" d="M13.0557 27.504C16.6461 28.3872 18.6381 27.6624 19.5453 27.3504C19.2093 25.4976 18.0669 24.1152 18.0669 24.1152L13.5549 23.4528C13.0269 24.1776 13.4301 25.176 13.2429 26.6016L13.0557 27.504Z" fill="#222222"/>
<path d="M13.3727 20.4671C13.8047 21.6623 14.0303 22.1471 14.0159 22.6031C15.3935 20.4671 17.8847 20.1456 17.8847 20.1456L13.1567 19.6031C13.2047 19.9007 13.2719 20.1887 13.3727 20.4671Z" fill="#CB7D45"/>
<path d="M12.4414 20.6736C13.3918 21.1968 13.1566 21.3216 13.411 21.2544C13.075 23.4528 12.8446 25.5024 12.7918 26.5056C12.7822 26.6496 12.7918 26.7696 12.8206 26.8512C12.9118 27.144 12.7102 27.1584 13.507 27.3456C13.9678 27.4512 14.899 27.5904 15.4222 27.6096C16.3726 27.6384 19.6942 28.0128 19.939 26.2272C20.2078 24.264 19.627 21.0144 19.579 19.1424C19.6894 18.48 19.7278 17.904 19.7134 17.4048C19.6846 16.0704 19.291 15.3216 18.9886 15.024C18.9022 14.9568 18.8158 14.9184 18.475 14.8608C18.3022 14.832 18.0574 14.7984 17.7118 14.7504C17.7118 14.7504 17.5102 14.7264 17.5102 14.7312C17.5726 14.8464 17.6014 15.216 17.5342 15.5472C17.467 15.8928 16.3054 15.8448 16.099 15.6528C15.8926 15.4608 15.0382 14.6064 15.0382 14.6064C15.0382 14.6064 13.5982 14.88 13.0798 15.2592C13.0798 15.2592 13.3534 15.3168 13.3294 15.3696" fill="#8529A6"/>
<path opacity="0.1" d="M12.792 26.5056C13.3056 26.3328 13.44 26.184 14.232 25.1568C16.3344 22.44 14.8848 16.7856 14.6304 16.728C14.6304 16.728 13.6896 19.1424 13.6752 19.1856C13.5792 19.4304 13.6656 20.7504 13.5504 21.2256L13.4112 21.2544C13.0752 23.4528 12.8448 25.5024 12.792 26.5056Z" fill="#222222"/>
<path d="M17.75 12.6815L17.4716 14.5103V14.5151L17.4332 14.7743C17.4332 14.7743 17.5196 15.4799 16.9532 15.5231C15.9884 15.5951 15.3836 14.5535 15.3308 14.4095C15.302 14.3327 15.3404 13.6703 15.3836 13.0463C15.4268 12.4463 15.47 11.8751 15.47 11.8751L15.7244 11.9663L17.75 12.6815Z" fill="#FFC3BA"/>
<path opacity="0.1" d="M17.7502 12.6816L17.4718 14.5104V14.5152C16.8718 14.3616 16.315 14.0496 15.859 13.6128C15.6766 13.4352 15.5182 13.248 15.3838 13.0416C15.427 12.4416 15.4702 11.8704 15.4702 11.8704L15.7246 11.9616L17.7502 12.6816Z" fill="#222222"/>
<path d="M15.6817 9.74882C15.1537 10.4448 14.9953 12.4704 15.4321 13.272C15.7297 13.8192 16.5793 14.1696 17.3041 14.0592C17.6305 14.0064 17.9329 13.8624 18.1441 13.5984C18.8161 12.7488 18.9553 10.3536 18.5569 9.88322C17.8609 9.03842 16.3297 8.89442 15.6817 9.74882Z" fill="#FFC3BA"/>
<path d="M18.7728 10.7184C18.7632 10.6128 18.7152 10.2672 18.648 10.1808C18.5808 10.0944 18.4032 10.3152 18.1584 10.3344C17.9136 10.3536 17.568 9.98398 17.1696 9.85438C16.9392 9.78238 16.416 9.95038 16.272 10.1664C15.8976 10.7232 16.0512 11.0688 15.7824 11.5008C15.576 11.832 15.4032 11.8896 15.2496 11.8944C14.904 11.9088 15.0576 9.54718 15.8016 9.16318C16.5456 8.77918 18.1344 8.88478 18.5712 9.64318C18.8496 10.128 18.7728 10.7184 18.7728 10.7184Z" fill="#333333"/>
<path d="M15.5324 11.8848C15.5324 11.8848 15.2876 11.112 14.9516 11.1792C14.6156 11.2464 14.654 12.2688 14.9564 12.504C15.254 12.7344 15.4748 12.4656 15.4748 12.4656L15.5324 11.8848Z" fill="#FFC3BA"/>
<path d="M19.8286 22.3727C19.8286 22.3727 20.275 21.9695 21.2686 22.2575C21.2686 22.2575 21.6094 22.2143 21.787 22.3295C21.787 22.3295 22.0558 22.7135 21.3454 22.6511C21.3454 22.6511 20.9662 22.5935 20.9182 22.6223C20.875 22.6511 21.1198 22.6319 21.6286 22.9919C21.6286 22.9919 21.9118 23.0783 22.0894 23.1215C22.0894 23.1215 22.5646 23.0927 22.7038 23.2031C22.7038 23.2031 22.891 23.4383 22.4878 23.4191C22.4878 23.4191 22.6462 23.3903 22.7086 23.4671C22.7086 23.4671 22.7998 23.7215 22.3438 23.6975C22.3438 23.6975 22.4158 23.6687 22.435 23.7647C22.435 23.7647 22.4446 23.8559 22.1134 23.8847L21.7006 23.9759C21.7006 23.9759 21.643 24.0575 21.523 24.0575C21.523 24.0575 20.995 24.1727 20.5822 23.9183C20.5822 23.9183 19.9966 23.6879 19.7998 23.5247C19.7998 23.5247 19.1806 23.3855 18.9118 23.4431C18.9118 23.4431 19.0366 23.1071 18.8926 22.4879C18.8974 22.4879 19.6942 22.4447 19.8286 22.3727Z" fill="#FFCAB3"/>
<path opacity="0.1" d="M21.2783 23.2943C21.2783 23.2943 21.7103 23.4431 21.9887 23.4527C21.9887 23.4527 22.2911 23.4815 22.5167 23.4191L22.6799 23.4047C22.6799 23.4047 21.9359 23.4767 21.7103 23.3567C21.7103 23.3519 21.3743 23.3471 21.2783 23.2943Z" fill="#222222"/>
<path opacity="0.1" d="M22.4158 23.6975C22.4158 23.6975 22.0894 23.7839 21.9118 23.7503C21.9118 23.7503 21.4366 23.7407 21.3262 23.6831C21.3262 23.6831 21.787 23.7071 21.931 23.6783C21.931 23.6783 22.2526 23.7215 22.4158 23.6975Z" fill="#222222"/>
<path opacity="0.1" d="M21.7052 23.9759C21.7052 23.9759 21.3308 23.9711 21.2108 23.8847C21.2108 23.8847 20.8172 23.8415 20.75 23.8703C20.75 23.8703 21.1148 23.8175 21.2876 23.8415C21.2876 23.8367 21.4988 23.9663 21.7052 23.9759Z" fill="#222222"/>
<path opacity="0.1" d="M19.3916 22.4495L19.4348 23.4527L19.6316 23.4911L19.598 22.4255L19.3916 22.4495Z" fill="#222222"/>
<path d="M19.5309 23.0543C19.5213 23.2847 19.4877 23.5055 19.4253 23.6591C19.4253 23.6591 14.4909 24.1583 13.3677 23.3903C13.1517 23.2415 12.9597 22.9535 12.7965 22.5791C12.1005 21.0047 12.3693 17.7119 12.3645 16.7231C12.3549 15.4943 13.1181 15.0719 13.8381 15.1391C15.5037 15.2927 15.0477 17.3759 14.9421 19.1711C14.8317 20.9663 14.8029 21.4751 14.8029 21.4751C14.8029 21.4751 15.7629 21.9167 17.3853 22.0031C19.0077 22.0895 19.5069 22.1135 19.5069 22.1135C19.5069 22.1135 19.5501 22.5935 19.5309 23.0543Z" fill="#8529A6"/>
<path opacity="0.1" d="M19.5313 23.0544C19.5217 23.2848 19.4881 23.5056 19.4257 23.6592C19.4257 23.6592 14.4913 24.1584 13.3681 23.3904C13.1521 23.2416 12.9601 22.9536 12.7969 22.5792C15.0289 23.1984 18.3745 23.1072 19.5313 23.0544Z" fill="#222222"/>
</g>
<defs>
<clipPath id="clip0_9673_125885">
<rect width="48" height="48" fill="white"/>
</clipPath>
<clipPath id="clip1_9673_125885">
<rect width="48" height="48" fill="white"/>
</clipPath>
</defs>
</svg>
