<svg width="90" height="90" viewBox="0 0 90 90" fill="none" xmlns="http://www.w3.org/2000/svg">
<g clip-path="url(#clip0_23594_5530)">
<g clip-path="url(#clip1_23594_5530)">
<path d="M44.9994 89.9988C69.8519 89.9988 89.9988 69.8519 89.9988 44.9994C89.9988 20.1469 69.8519 0 44.9994 0C20.1469 0 0 20.1469 0 44.9994C0 69.8519 20.1469 89.9988 44.9994 89.9988Z" fill="#EAEFF4"/>
<path opacity="0.2" d="M44.9994 89.9999C65.0079 89.9999 81.9644 76.9388 87.8145 58.8802C74.9373 51.9866 60.2236 48.0771 44.5965 48.0771C28.9693 48.0771 14.7792 51.8484 2.06592 58.5148C7.80474 76.7631 24.8561 89.9999 44.9994 89.9999Z" fill="#7CA5B9"/>
</g>
<g clip-path="url(#clip2_23594_5530)">
<path d="M69.0724 63.4443H20.9277V65.457H69.0724V63.4443Z" fill="#333333"/>
<path d="M69.0724 54.6514H20.9277V63.4444H69.0724V54.6514Z" fill="white"/>
<path d="M69.0725 68.7829H35.3418C35.1102 68.7829 34.888 68.6911 34.7241 68.5277C34.5603 68.3643 34.4683 68.1427 34.4683 67.9116V54.6523H69.0725V68.7829Z" fill="#F41C5E"/>
<path d="M40.4852 54.6514H37.4766V68.7819H40.4852V54.6514Z" fill="white"/>
<path d="M25.975 49.2335C24.6175 49.2261 23.2773 49.5378 22.0632 50.1433C20.849 50.7488 19.7949 51.6311 18.9863 52.7187C19.083 52.85 19.1826 52.9772 19.2851 53.1003C20.1063 54.0723 21.1304 54.8537 22.286 55.3897C23.4415 55.9257 24.7006 56.2034 25.975 56.2034C27.2494 56.2034 28.5084 55.9257 29.6639 55.3897C30.8195 54.8537 31.8437 54.0723 32.6648 53.1003C32.7685 52.976 32.8681 52.8488 32.9636 52.7187C32.155 51.6311 31.101 50.7488 29.8868 50.1433C28.6726 49.5378 27.3324 49.2261 25.975 49.2335Z" fill="white"/>
<path d="M25.975 49.2335C24.6175 49.2261 23.2773 49.5378 22.0632 50.1433C20.849 50.7488 19.7949 51.6311 18.9863 52.7187C19.083 52.85 19.1826 52.9772 19.2851 53.1003C20.1063 54.0723 21.1304 54.8537 22.286 55.3897C23.4415 55.9257 24.7006 56.2034 25.975 56.2034C27.2494 56.2034 28.5084 55.9257 29.6639 55.3897C30.8195 54.8537 31.8437 54.0723 32.6648 53.1003C32.7685 52.976 32.8681 52.8488 32.9636 52.7187C32.155 51.6311 31.101 50.7488 29.8868 50.1433C28.6726 49.5378 27.3324 49.2261 25.975 49.2335Z" fill="white"/>
<path opacity="0.1" d="M25.975 54.4615C23.4416 54.4615 21.1162 53.951 19.2852 53.1006C20.1063 54.0726 21.1305 54.8539 22.2861 55.3899C23.4416 55.9259 24.7006 56.2037 25.975 56.2037C27.2494 56.2037 28.5084 55.9259 29.664 55.3899C30.8196 54.8539 31.8437 54.0726 32.6649 53.1006C30.8339 53.951 28.5084 54.4615 25.975 54.4615Z" fill="#333333"/>
<path opacity="0.3" d="M45 73.8277C60.9219 73.8277 73.8281 73.2422 73.8281 72.5208C73.8281 71.7994 60.9219 71.2139 45 71.2139C29.0781 71.2139 16.1719 71.7994 16.1719 72.5208C16.1719 73.2422 29.0781 73.8277 45 73.8277Z" fill="#7CA5B9"/>
<path d="M20.9276 42.2347C20.9276 41.4061 20.2541 40.7344 19.4232 40.7344C18.5924 40.7344 17.9189 41.4061 17.9189 42.2347V70.9472C17.9189 71.7758 18.5924 72.4476 19.4232 72.4476C20.2541 72.4476 20.9276 71.7758 20.9276 70.9472V42.2347Z" fill="#333333"/>
<path d="M72.0809 48.0502C72.0809 47.2215 71.4074 46.5498 70.5766 46.5498C69.7458 46.5498 69.0723 47.2215 69.0723 48.0502V70.9476C69.0723 71.7763 69.7458 72.448 70.5766 72.448C71.4074 72.448 72.0809 71.7763 72.0809 70.9476V48.0502Z" fill="#333333"/>
</g>
</g>
<defs>
<clipPath id="clip0_23594_5530">
<rect width="90" height="90" fill="white"/>
</clipPath>
<clipPath id="clip1_23594_5530">
<rect width="90" height="90" fill="white"/>
</clipPath>
<clipPath id="clip2_23594_5530">
<rect width="57.6562" height="57.3047" fill="white" transform="translate(16.1719 16.5234)"/>
</clipPath>
</defs>
</svg>
