<svg width="41" height="40" viewBox="0 0 41 40" fill="none" xmlns="http://www.w3.org/2000/svg">
<path d="M24.3 38.8609C21.1469 40.3847 17.4693 40.351 14.3279 38.8023C8.69418 36.0243 0.314697 32.8213 0.314697 26.2089V7.17591C0.314697 3.58763 3.25096 0.651367 6.83924 0.651367H32.1623C35.7506 0.651367 39.0414 3.23305 39.0414 6.8228V25.8558C39.0414 31.6902 30.0348 36.0902 24.2986 38.8624L24.3 38.8609Z" fill="#B7B7B7"/>
<path d="M24.3 38.2623C21.1469 39.7861 17.4693 39.7524 14.3279 38.2037C8.69418 35.4256 0.314697 32.2227 0.314697 25.6102V6.57728C0.314697 2.989 3.25096 0.0527344 6.83924 0.0527344H32.1623C35.7506 0.0527344 38.6869 2.989 38.6869 6.57728V25.6102C38.6869 31.4447 30.0334 35.4901 24.2986 38.2623H24.3Z" fill="#868989"/>
<path d="M30.0891 16.6704L25.4341 21.192L26.533 27.5935C26.6473 28.2631 25.9455 28.773 25.3447 28.4565L19.5997 25.4382L13.859 28.4551C13.2568 28.7759 12.5521 28.2631 12.6678 27.5964L13.7667 21.195L9.12056 16.6704C8.63411 16.1972 8.90224 15.3767 9.56891 15.2741L16.007 14.3334L18.8803 8.51366C19.1806 7.9056 20.048 7.9056 20.3484 8.51366L23.2217 14.3334L29.6363 15.2712C30.3074 15.3649 30.577 16.1972 30.0891 16.6704Z" fill="white"/>
<mask id="mask0_24106_5276" style="mask-type:luminance" maskUnits="userSpaceOnUse" x="-12" y="-16" width="56" height="55">
<path d="M43.3521 1.86943L3.63343 38.5478L-11.8757 16.331L9.2935 -15.3174L43.3521 1.86943Z" fill="white"/>
</mask>
<g mask="url(#mask0_24106_5276)">
<path opacity="0.26" d="M24.3 38.2623C21.1469 39.7861 17.4693 39.7524 14.3279 38.2037C8.69418 35.4256 0.314697 32.2227 0.314697 25.6102V6.57728C0.314697 2.989 3.25096 0.0527344 6.83924 0.0527344H32.1623C35.7506 0.0527344 38.6869 2.989 38.6869 6.57728V25.6102C38.6869 31.4447 30.0334 35.4901 24.2986 38.2623H24.3Z" fill="url(#paint0_linear_24106_5276)"/>
</g>
<path d="M40.0437 7.07927L38.7939 6.52396L38.1302 7.63311L38.2459 6.30418L37.0122 5.9833L38.2357 5.79868V4.41113L38.7411 5.6419L40.1096 5.08806L39.0459 6.04044L40.0437 7.07927Z" fill="white"/>
<defs>
<linearGradient id="paint0_linear_24106_5276" x1="31.7169" y1="28.5714" x2="0.264884" y2="-2.8806" gradientUnits="userSpaceOnUse">
<stop offset="0.36" stop-color="white"/>
<stop offset="0.55" stop-color="white" stop-opacity="0"/>
</linearGradient>
</defs>
</svg>
