<svg width="40" height="40" viewBox="0 0 40 40" fill="none" xmlns="http://www.w3.org/2000/svg">
<g clip-path="url(#clip0_16575_1572)">
<g clip-path="url(#clip1_16575_1572)">
<path d="M19.9997 39.9995C31.0453 39.9995 39.9995 31.0453 39.9995 19.9997C39.9995 8.95419 31.0453 0 19.9997 0C8.95419 0 0 8.95419 0 19.9997C0 31.0453 8.95419 39.9995 19.9997 39.9995Z" fill="#EAEFF4"/>
<path opacity="0.2" d="M19.9997 40C28.8924 40 36.4286 34.1951 39.0287 26.169C33.3055 23.1052 26.7661 21.3677 19.8207 21.3677C12.8753 21.3677 6.56855 23.0438 0.918213 26.0066C3.4688 34.117 11.0472 40 19.9997 40Z" fill="#7CA5B9"/>
</g>
<path opacity="0.3" d="M19.65 35.3374C24.75 35.3374 28.9 34.9374 28.9 34.4624C28.9 33.9874 24.775 33.5874 19.65 33.5874C14.525 33.5874 10.4 33.9874 10.4 34.4624C10.425 34.9374 14.55 35.3374 19.65 35.3374Z" fill="#7CA5B9"/>
<path d="M28.575 13.5625H27.525C27.25 13.5625 27 13.6625 26.8 13.8625C26.6 14.0625 26.5 14.3125 26.5 14.5875V16.6375C26.5 16.7625 26.525 16.9125 26.575 17.0375C26.625 17.1625 26.7 17.2875 26.8 17.3625C26.9 17.4625 27 17.5375 27.125 17.5875C27.25 17.6375 27.375 17.6625 27.525 17.6625H28.575C28.7 17.6625 28.85 17.6375 28.975 17.5875C29.1 17.5375 29.225 17.4625 29.3 17.3625C29.4 17.2625 29.475 17.1625 29.525 17.0375C29.575 16.9125 29.6 16.7875 29.6 16.6375V14.5875C29.6 14.3125 29.5 14.0625 29.3 13.8625C29.1 13.6625 28.85 13.5625 28.575 13.5625Z" fill="white"/>
<path d="M28.775 18.6875H26.075C26.05 18.6875 26.025 18.6875 26 18.7125C25.975 18.7125 25.95 18.7375 25.925 18.7625C25.9 18.7875 25.9 18.8125 25.875 18.8375C25.875 18.8625 25.85 18.8875 25.85 18.9125V22.5875C25.85 22.6375 25.875 22.6875 25.9 22.7375C25.95 22.7875 26 22.7875 26.05 22.7875H28.75C28.8 22.7875 28.85 22.7625 28.9 22.7375C28.95 22.6875 28.95 22.6375 28.95 22.5875V18.8875C28.95 18.8625 28.95 18.8375 28.925 18.8125C28.925 18.7875 28.9 18.7625 28.875 18.7375C28.85 18.7125 28.825 18.7125 28.8 18.6875C28.825 18.6875 28.8 18.6875 28.775 18.6875Z" fill="white"/>
<path d="M27.525 10.8626C25.775 9.8126 25.35 8.4626 25.225 6.7876C25.1 5.2126 24.975 5.0626 23.175 4.8126C23.025 4.7876 20.675 4.6626 19.675 4.6626C18.675 4.6626 16.325 4.7876 16.175 4.8126C14.375 5.0626 14.25 5.2376 14.125 6.7876C14 8.4626 13.575 9.8126 11.825 10.8626C11.025 11.3376 10.775 12.1126 10.775 12.9626C10.775 17.1876 10.775 21.3876 10.775 25.6126C10.775 26.5876 11.15 27.3626 12.075 27.9376C13.05 28.5376 13.6 29.3626 13.825 30.3626C13.975 31.0126 14.075 31.6376 14.15 32.3126C14.25 33.5126 14.425 34.0626 15.75 34.1126C17.05 34.1876 18.375 34.2376 19.675 34.2376C21 34.2126 22.3 34.1626 23.6 34.1126C24.925 34.0376 25.125 33.4876 25.2 32.3126C25.25 31.6626 25.375 31.0126 25.525 30.3626C25.75 29.3626 26.3 28.5376 27.275 27.9376C28.2 27.3626 28.575 26.5876 28.575 25.6126C28.575 21.3876 28.575 17.1876 28.575 12.9626C28.575 12.1126 28.325 11.3376 27.525 10.8626Z" fill="white"/>
<path opacity="0.05" d="M28.575 12.9625C28.575 12.1125 28.325 11.3375 27.525 10.8625C25.775 9.8125 25.35 8.4625 25.225 6.7875C25.125 5.5125 25.025 5.1625 24.025 4.9375C25.075 7.0625 25.725 9.3625 25.95 11.7125H26.525C26.8 11.7125 27.05 11.8125 27.25 12.0125C27.45 12.2125 27.55 12.4625 27.55 12.7375V26.2625C27.55 26.5375 27.45 26.7875 27.25 26.9875C27.05 27.1875 26.8 27.2875 26.525 27.2875H20.525C18.7 29.1875 16.5 30.7125 14.075 31.7625C14.1 31.9375 14.125 32.1375 14.125 32.3125C14.225 33.5125 14.4 34.0625 15.725 34.1125C17.025 34.1875 18.35 34.2375 19.65 34.2375C20.975 34.2125 22.275 34.1625 23.575 34.1125C24.9 34.0375 25.1 33.4875 25.175 32.3125C25.225 31.6625 25.35 31.0125 25.5 30.3625C25.725 29.3625 26.275 28.5375 27.25 27.9375C28.175 27.3625 28.55 26.5875 28.55 25.6125C28.575 21.3875 28.575 17.1875 28.575 12.9625Z" fill="#333333"/>
<path d="M25.925 11.7124H12.825C12.7 11.7124 12.55 11.7374 12.425 11.7874C12.3 11.8374 12.175 11.9124 12.1 12.0124C12 12.1124 11.925 12.2124 11.875 12.3374C11.825 12.4624 11.8 12.5874 11.8 12.7374V26.2624C11.8 26.3874 11.825 26.5374 11.875 26.6624C11.925 26.7874 12 26.9124 12.1 26.9874C12.2 27.0874 12.3 27.1624 12.425 27.2124C12.55 27.2624 12.675 27.2874 12.825 27.2874H20.525C24.05 23.6124 26.025 18.7374 26.025 13.6374C26.025 12.9874 25.975 12.3624 25.925 11.7124Z" fill="#333333"/>
<path d="M27.525 26.2624V12.7374C27.525 12.4624 27.425 12.2124 27.225 12.0124C27.025 11.8124 26.775 11.7124 26.5 11.7124H25.925C25.975 12.3374 26.025 12.9874 26.025 13.6374C26.025 18.7374 24.05 23.6124 20.525 27.2874H26.5C26.775 27.2874 27.025 27.1874 27.225 26.9874C27.425 26.7874 27.525 26.5374 27.525 26.2624Z" fill="#222222"/>
<path d="M19.525 23.9124C18.675 23.9124 17.85 23.6624 17.15 23.1874C16.45 22.7124 15.9 22.0624 15.575 21.2624C15.25 20.4874 15.175 19.6124 15.325 18.7874C15.5 17.9624 15.9 17.1874 16.5 16.5874C17.1 15.9874 17.85 15.5874 18.7 15.4124C19.525 15.2374 20.4 15.3374 21.175 15.6624C21.95 15.9874 22.625 16.5374 23.1 17.2374C23.575 17.9374 23.825 18.7624 23.825 19.6124C23.825 20.7374 23.375 21.8374 22.575 22.6374C21.75 23.4624 20.675 23.9124 19.525 23.9124ZM19.525 16.1124C18.825 16.1124 18.15 16.3124 17.575 16.7124C17 17.1124 16.55 17.6374 16.275 18.2874C16 18.9374 15.95 19.6374 16.075 20.3124C16.2 20.9874 16.55 21.6124 17.025 22.1124C17.525 22.6124 18.15 22.9374 18.825 23.0624C19.5 23.1874 20.225 23.1374 20.85 22.8624C21.5 22.5874 22.05 22.1374 22.425 21.5624C22.8 20.9874 23.025 20.3124 23.025 19.6124C23.025 18.6874 22.65 17.7874 22 17.1374C21.35 16.4874 20.475 16.1124 19.525 16.1124Z" fill="white"/>
<path d="M23.425 20.2627C23.25 20.2627 23.1 20.1877 22.975 20.0877C22.85 19.9627 22.8 19.8127 22.8 19.6377C22.8 18.7627 22.45 17.9377 21.85 17.3377C21.25 16.7377 20.4 16.3877 19.55 16.3877C19.475 16.3877 19.375 16.3627 19.3 16.3377C19.225 16.3127 19.15 16.2627 19.1 16.2127C19.05 16.1627 19 16.0877 18.975 16.0127C18.95 15.9377 18.925 15.8627 18.925 15.7627C18.925 15.6877 18.95 15.5877 18.975 15.5127C19 15.4377 19.05 15.3627 19.1 15.3127C19.15 15.2627 19.225 15.2127 19.3 15.1877C19.375 15.1627 19.45 15.1377 19.55 15.1377C20.75 15.1377 21.9 15.6127 22.75 16.4627C23.6 17.3127 24.075 18.4627 24.075 19.6627C24.075 19.8377 24 19.9877 23.9 20.1127C23.75 20.1877 23.6 20.2627 23.425 20.2627Z" fill="#8529A6"/>
<path opacity="0.1" d="M23.375 20.2626C23.225 21.2376 22.75 22.1376 22 22.8126C21.275 23.4876 20.325 23.8626 19.325 23.9126C19.375 23.9126 19.45 23.9126 19.525 23.9126C20.575 23.9126 21.575 23.5376 22.35 22.8376C23.125 22.1376 23.625 21.1876 23.775 20.1626C23.675 20.2376 23.55 20.2626 23.425 20.2626H23.375Z" fill="#333333"/>
<path d="M19.525 21.1374C19.525 21.1374 18.575 20.0874 18.25 19.7124C18.1 19.5374 18 19.2874 18 19.0374C18 18.7874 18.075 18.5624 18.225 18.3874C18.375 18.2124 18.6 18.1124 18.85 18.0874C18.975 18.0874 19.1 18.1124 19.225 18.1874C19.35 18.2374 19.45 18.3374 19.525 18.4374C19.6 18.3374 19.7 18.2374 19.825 18.1874C19.95 18.1374 20.075 18.0874 20.2 18.0874C20.45 18.0874 20.65 18.2124 20.825 18.3874C20.975 18.5624 21.075 18.7874 21.05 19.0374C21.05 19.2874 20.95 19.5124 20.8 19.7124C20.5 20.0874 19.525 21.1374 19.525 21.1374Z" fill="#F41C5E"/>
<path opacity="0.2" d="M19.825 18.2128C19.7 18.2628 19.6 18.3628 19.525 18.4628C20.225 18.3878 21.2 18.8378 19.525 21.1628C19.525 21.1628 20.475 20.1128 20.8 19.7378C20.95 19.5628 21.05 19.3128 21.05 19.0628C21.05 18.8128 20.975 18.5878 20.825 18.4128C20.675 18.2378 20.45 18.1378 20.2 18.1128C20.05 18.1128 19.925 18.1378 19.825 18.2128Z" fill="#333333"/>
</g>
<defs>
<clipPath id="clip0_16575_1572">
<rect width="40" height="40" fill="white"/>
</clipPath>
<clipPath id="clip1_16575_1572">
<rect width="40" height="40" fill="white"/>
</clipPath>
</defs>
</svg>
