<svg width="61" height="99" viewBox="0 0 61 99" fill="none" xmlns="http://www.w3.org/2000/svg">
<path opacity="0.3" d="M29.3888 98.1969C45.5813 98.1969 58.7575 96.9269 58.7575 95.4188C58.7575 93.9106 45.6607 92.6406 29.3888 92.6406C13.1169 92.6406 0.0200195 93.9106 0.0200195 95.4188C0.0993945 96.9269 13.1963 98.1969 29.3888 98.1969Z" fill="#7CA5B9"/>
<path d="M57.7256 29.0613H54.3918C53.5187 29.0613 52.725 29.3788 52.09 30.0138C51.455 30.6488 51.1375 31.4425 51.1375 32.3157V38.8244C51.1375 39.2213 51.2168 39.6975 51.3756 40.0944C51.5343 40.4913 51.7725 40.8881 52.09 41.1263C52.4075 41.4438 52.725 41.6819 53.1218 41.8406C53.5187 41.9994 53.9156 42.0788 54.3918 42.0788H57.7256C58.1225 42.0788 58.5987 41.9994 58.9956 41.8406C59.3925 41.6819 59.7893 41.4438 60.0275 41.1263C60.345 40.8088 60.5831 40.4913 60.7418 40.0944C60.9006 39.6975 60.98 39.3006 60.98 38.8244V32.3157C60.98 31.4425 60.6625 30.6488 60.0275 30.0138C59.3925 29.3788 58.5987 29.0613 57.7256 29.0613Z" fill="white"/>
<path d="M58.3606 45.333H49.7881C49.7087 45.333 49.6294 45.333 49.55 45.4124C49.4706 45.4124 49.3912 45.4918 49.3119 45.5711C49.2325 45.6505 49.2325 45.7299 49.1531 45.8093C49.1531 45.8886 49.0737 45.968 49.0737 46.0474V57.7155C49.0737 57.8743 49.1531 58.033 49.2325 58.1918C49.3912 58.3505 49.55 58.3505 49.7087 58.3505H58.2812C58.44 58.3505 58.5987 58.2711 58.7575 58.1918C58.9162 58.033 58.9162 57.8743 58.9162 57.7155V45.968C58.9162 45.8886 58.9162 45.8093 58.8369 45.7299C58.8369 45.6505 58.7575 45.5711 58.6781 45.4918C58.5987 45.4124 58.5194 45.4124 58.44 45.333C58.5194 45.333 58.44 45.333 58.3606 45.333Z" fill="white"/>
<path d="M54.3917 20.4887C48.8354 17.155 47.4861 12.8687 47.0892 7.55059C46.6923 2.54996 46.2954 2.07371 40.5805 1.27996C40.1042 1.20059 32.643 0.803711 29.468 0.803711C26.293 0.803711 18.8317 1.20059 18.3555 1.27996C12.6405 2.07371 12.2436 2.62934 11.8467 7.55059C11.4498 12.8687 10.1004 17.155 4.5442 20.4887C2.0042 21.9968 1.21045 24.4575 1.21045 27.1562C1.21045 40.5706 1.21045 53.9056 1.21045 67.32C1.21045 70.4156 2.40107 72.8762 5.33795 74.7018C8.43357 76.6068 10.1798 79.2262 10.8942 82.4012C11.3705 84.465 11.6879 86.4493 11.9261 88.5925C12.2436 92.4025 12.7992 94.1487 17.0061 94.3075C21.1336 94.5456 25.3405 94.7043 29.468 94.7043C33.6748 94.625 37.8023 94.4662 41.9298 94.3075C46.1367 94.0693 46.7717 92.3231 47.0098 88.5925C47.1686 86.5287 47.5655 84.465 48.0417 82.4012C48.7561 79.2262 50.5023 76.6068 53.5979 74.7018C56.5348 72.8762 57.7254 70.4156 57.7254 67.32C57.7254 53.9056 57.7254 40.5706 57.7254 27.1562C57.7254 24.4575 56.9317 21.9968 54.3917 20.4887Z" fill="white"/>
<path opacity="0.05" d="M57.7257 27.1561C57.7257 24.4574 56.932 21.9968 54.392 20.4886C48.8357 17.1549 47.4864 12.8686 47.0895 7.55051C46.772 3.50238 46.4545 2.39113 43.2795 1.67676C46.6132 8.42363 48.677 15.7261 49.3914 23.1874H51.217C52.0901 23.1874 52.8839 23.5049 53.5189 24.1399C54.1539 24.7749 54.4714 25.5686 54.4714 26.4418V69.3836C54.4714 70.2568 54.1539 71.0505 53.5189 71.6855C52.8839 72.3205 52.0901 72.638 51.217 72.638H32.167C26.3726 78.6705 19.3876 83.5124 11.6882 86.8461C11.7676 87.4018 11.847 88.0368 11.847 88.5924C12.1645 92.4024 12.7201 94.1486 16.927 94.3074C21.0545 94.5455 25.2614 94.7043 29.3889 94.7043C33.5957 94.6249 37.7232 94.4661 41.8507 94.3074C46.0576 94.0693 46.6926 92.323 46.9307 88.5924C47.0895 86.5286 47.4864 84.4649 47.9626 82.4011C48.677 79.2261 50.4232 76.6068 53.5189 74.7018C56.4557 72.8761 57.6464 70.4155 57.6464 67.3199C57.7257 53.9055 57.7257 40.5705 57.7257 27.1561Z" fill="#333333"/>
<path d="M49.3117 23.1875H7.71922C7.32234 23.1875 6.84609 23.2669 6.44922 23.4256C6.05234 23.5844 5.65547 23.8225 5.41734 24.14C5.09984 24.4575 4.86172 24.775 4.70297 25.1719C4.54422 25.5687 4.46484 25.9656 4.46484 26.4419V69.3837C4.46484 69.7806 4.54422 70.2569 4.70297 70.6538C4.86172 71.0506 5.09984 71.4475 5.41734 71.6856C5.73484 72.0031 6.05234 72.2412 6.44922 72.4C6.84609 72.5588 7.24297 72.6381 7.71922 72.6381H32.1667C43.3586 60.97 49.6292 45.4919 49.6292 29.2994C49.6292 27.2356 49.4705 25.2512 49.3117 23.1875Z" fill="#333333"/>
<path d="M54.392 69.3837V26.4419C54.392 25.5687 54.0745 24.775 53.4395 24.14C52.8045 23.505 52.0107 23.1875 51.1376 23.1875H49.312C49.4707 25.1719 49.6295 27.2356 49.6295 29.2994C49.6295 45.4919 43.3589 60.97 32.167 72.6381H51.1376C52.0107 72.6381 52.8045 72.3206 53.4395 71.6856C54.0745 71.0506 54.392 70.2569 54.392 69.3837Z" fill="#222222"/>
<path d="M28.9919 61.9226C26.2931 61.9226 23.6738 61.1288 21.4513 59.6207C19.2288 58.1126 17.4825 56.0488 16.4506 53.5088C15.4188 51.0482 15.1806 48.2701 15.6569 45.6507C16.2125 43.0313 17.4825 40.5707 19.3875 38.6657C21.2925 36.7607 23.6738 35.4907 26.3725 34.9351C28.9919 34.3795 31.77 34.697 34.2306 35.7288C36.6913 36.7607 38.8344 38.507 40.3425 40.7295C41.8506 42.952 42.6444 45.5713 42.6444 48.2701C42.6444 51.842 41.2156 55.3345 38.6756 57.8745C36.0563 60.4938 32.6431 61.9226 28.9919 61.9226ZM28.9919 37.1576C26.7694 37.1576 24.6263 37.7926 22.8006 39.0626C20.975 40.3326 19.5463 41.9995 18.6731 44.0632C17.8 46.127 17.6413 48.3495 18.0381 50.4926C18.435 52.6357 19.5463 54.6201 21.0544 56.2076C22.6419 57.7951 24.6263 58.827 26.7694 59.2238C28.9125 59.6207 31.2144 59.462 33.1988 58.5888C35.2625 57.7157 37.0088 56.287 38.1994 54.4613C39.39 52.6357 40.1044 50.4926 40.1044 48.2701C40.1044 45.3332 38.9138 42.4757 36.85 40.412C34.7863 38.3482 32.0081 37.1576 28.9919 37.1576Z" fill="white"/>
<path d="M41.3744 50.3336C40.8188 50.3336 40.3425 50.0955 39.9457 49.778C39.5488 49.3811 39.39 48.9049 39.39 48.3493C39.39 45.5711 38.2788 42.9518 36.3738 41.0468C34.4688 39.1418 31.77 38.0305 29.0713 38.0305C28.8332 38.0305 28.5157 37.9511 28.2775 37.8718C28.0394 37.7924 27.8013 37.6336 27.6425 37.4749C27.4838 37.3161 27.325 37.078 27.2457 36.8399C27.1663 36.6018 27.0869 36.3636 27.0869 36.0461C27.0869 35.808 27.1663 35.4905 27.2457 35.2524C27.325 35.0143 27.4838 34.7761 27.6425 34.6174C27.8013 34.4586 28.0394 34.2999 28.2775 34.2205C28.5157 34.1411 28.7538 34.0618 29.0713 34.0618C32.8813 34.0618 36.5325 35.5699 39.2313 38.2686C41.93 40.9674 43.4382 44.6186 43.4382 48.4286C43.4382 48.9843 43.2 49.4605 42.8825 49.8574C42.4063 50.0955 41.93 50.3336 41.3744 50.3336Z" fill="#F41C5E"/>
<path opacity="0.1" d="M41.2157 50.3336C40.7394 53.4292 39.2313 56.2867 36.8501 58.4299C34.5482 60.573 31.5319 61.7636 28.3569 61.9224C28.5157 61.9224 28.7538 61.9224 28.9919 61.9224C32.3257 61.9224 35.5007 60.7317 37.9613 58.5092C40.4219 56.2867 42.0094 53.2705 42.4857 50.0161C42.1682 50.2542 41.7713 50.3336 41.3744 50.3336H41.2157Z" fill="#333333"/>
<path d="M28.9918 53.1117C28.9918 53.1117 25.9755 49.778 24.9437 48.5874C24.4674 48.0317 24.1499 47.238 24.1499 46.4442C24.1499 45.6505 24.388 44.9361 24.8643 44.3805C25.3405 43.8249 26.0549 43.5074 26.8487 43.428C27.2455 43.428 27.6424 43.5074 28.0393 43.7455C28.4362 43.9042 28.7537 44.2217 28.9918 44.5392C29.2299 44.2217 29.5474 43.9042 29.9443 43.7455C30.3412 43.5867 30.738 43.428 31.1349 43.428C31.9287 43.428 32.5637 43.8249 33.1193 44.3805C33.5955 44.9361 33.913 45.6505 33.8337 46.4442C33.8337 47.238 33.5162 47.9524 33.0399 48.5874C32.0874 49.778 28.9918 53.1117 28.9918 53.1117Z" fill="#F41C5E"/>
<path opacity="0.2" d="M29.9444 43.8251C29.5476 43.9838 29.2301 44.3013 28.9919 44.6188C31.2144 44.3807 34.3101 45.8094 28.9919 53.1913C28.9919 53.1913 32.0082 49.8576 33.0401 48.6669C33.5163 48.1113 33.8338 47.3176 33.8338 46.5238C33.8338 45.7301 33.5957 45.0157 33.1194 44.4601C32.6432 43.9044 31.9288 43.5869 31.1351 43.5076C30.6588 43.5076 30.2619 43.5869 29.9444 43.8251Z" fill="#333333"/>
</svg>
