<svg width="16" height="13" viewBox="0 0 16 13" fill="none" xmlns="http://www.w3.org/2000/svg">
<path d="M5.08611 5.64722C6.02222 6.22222 6.83333 6.98333 7.46944 7.88333C7.66389 8.15833 7.84167 8.44722 8 8.74444C8.15833 8.44444 8.33611 8.15833 8.53056 7.88333C9.16667 6.98333 9.97778 6.22222 10.9139 5.64722C12.1556 4.88333 13.6139 4.44444 15.1667 4.44444H15.4417C15.75 4.44444 16 4.69444 16 5.00278C16 9.11389 12.6694 12.4444 8.55833 12.4444H8H7.44167C3.33056 12.4444 0 9.11389 0 5.00278C0 4.69444 0.25 4.44444 0.558333 4.44444H0.833333C2.38611 4.44444 3.84444 4.88333 5.08611 5.64722ZM8.375 0.155556C8.81111 0.625 10.0722 2.15 10.7194 4.72778C9.66389 5.32778 8.73611 6.13889 8 7.10556C7.26389 6.13889 6.33611 5.33056 5.28056 4.72778C5.925 2.15 7.18611 0.625 7.625 0.155556C7.72222 0.0527777 7.85833 0 8 0C8.14167 0 8.27778 0.0527777 8.375 0.155556Z" fill="#1D1D1D"/>
</svg>
