<svg width="24" height="25" viewBox="0 0 24 25" fill="none" xmlns="http://www.w3.org/2000/svg">
<g clip-path="url(#clip0_22338_2523)">
<rect y="0.5" width="24" height="24" rx="6" fill="#F3F3F3"/>
<path d="M9.08611 12.1472C10.0222 12.7222 10.8333 13.4833 11.4694 14.3833C11.6639 14.6583 11.8417 14.9472 12 15.2444C12.1583 14.9444 12.3361 14.6583 12.5306 14.3833C13.1667 13.4833 13.9778 12.7222 14.9139 12.1472C16.1556 11.3833 17.6139 10.9444 19.1667 10.9444H19.4417C19.75 10.9444 20 11.1944 20 11.5028C20 15.6139 16.6694 18.9444 12.5583 18.9444H12H11.4417C7.33056 18.9444 4 15.6139 4 11.5028C4 11.1944 4.25 10.9444 4.55833 10.9444H4.83333C6.38611 10.9444 7.84444 11.3833 9.08611 12.1472ZM12.375 6.65556C12.8111 7.125 14.0722 8.65 14.7194 11.2278C13.6639 11.8278 12.7361 12.6389 12 13.6056C11.2639 12.6389 10.3361 11.8306 9.28056 11.2278C9.925 8.65 11.1861 7.125 11.625 6.65556C11.7222 6.55278 11.8583 6.5 12 6.5C12.1417 6.5 12.2778 6.55278 12.375 6.65556Z" fill="#1D1D1D"/>
</g>
<defs>
<clipPath id="clip0_22338_2523">
<rect y="0.5" width="24" height="24" rx="6" fill="white"/>
</clipPath>
</defs>
</svg>
