<svg width="98" height="77" viewBox="0 0 98 77" fill="none" xmlns="http://www.w3.org/2000/svg">
<path d="M48.0129 36.3569C48.0193 36.3155 48.0328 36.2773 48.04 36.2351C48.1088 35.8155 48.2005 35.4 48.3148 34.9904C48.4336 34.5813 48.5742 34.1788 48.736 33.7847C48.752 33.7457 48.7615 33.7051 48.7774 33.666L31.2113 24.9236C29.7879 27.9607 28.8714 31.2104 28.498 34.5436L48.0129 36.3569Z" fill="#D4E0E8"/>
<path d="M52.3569 28.9228C52.3895 28.8965 52.4261 28.8758 52.4596 28.8495C52.7912 28.586 53.1368 28.3406 53.4949 28.1145C53.8552 27.8933 54.2274 27.6921 54.6098 27.5116C54.648 27.4933 54.6838 27.4686 54.7229 27.4503L47.6352 9.16418C44.5424 10.4504 41.677 12.2264 39.1492 14.4242L52.3569 28.9228Z" fill="#D4E0E8"/>
<path d="M70.8143 33.7911C70.9735 34.1795 71.112 34.5761 71.2292 34.9792L71.234 34.9928C71.3479 35.4024 71.4397 35.8179 71.5087 36.2375C71.5159 36.2773 71.5287 36.3171 71.535 36.3569L91.0459 34.5436C90.6692 31.2109 89.7525 27.9618 88.3319 24.9236L70.7705 33.666C70.7872 33.7066 70.7976 33.7497 70.8143 33.7911Z" fill="#D4E0E8"/>
<path d="M48.1179 40.7319C48.0423 40.3759 47.9881 40.0112 47.9459 39.6441C47.9355 39.5541 47.926 39.4633 47.9172 39.3725C47.8838 39.0038 47.8599 38.6319 47.8599 38.2576C47.8599 38.1525 47.8599 38.0482 47.8639 37.9439L28.3418 36.1289C28.2932 36.766 28.2693 37.4541 28.2693 38.209C28.2641 40.8741 28.598 43.529 29.2632 46.1098L48.1187 40.7367L48.1179 40.7319Z" fill="#F3F3F3"/>
<path d="M59.374 31.0501C57.8777 31.0501 56.415 31.4938 55.1709 32.3251C53.9268 33.1564 52.9571 34.338 52.3845 35.7204C51.8119 37.1028 51.6621 38.624 51.954 40.0915C52.2459 41.5591 52.9664 42.9071 54.0245 43.9651C55.0825 45.0232 56.4305 45.7437 57.8981 46.0356C59.3657 46.3276 60.8868 46.1777 62.2692 45.6051C63.6516 45.0325 64.8332 44.0628 65.6645 42.8187C66.4958 41.5746 66.9395 40.1119 66.9395 38.6156C66.9368 36.6099 66.1388 34.6872 64.7206 33.269C63.3024 31.8508 61.3797 31.0528 59.374 31.0501Z" fill="white"/>
<path d="M70.994 42.2693C70.9804 42.3083 70.9597 42.3442 70.9462 42.3824C70.8016 42.7835 70.6347 43.1762 70.4461 43.5586L70.4373 43.5746C70.2471 43.9501 70.0369 44.3151 69.8074 44.668C69.7835 44.7054 69.7652 44.7476 69.7405 44.785L83.027 54.8128L85.3619 56.576C87.3238 53.8565 88.837 50.8401 89.8439 47.6416L70.994 42.2693Z" fill="#D4E0E8"/>
<path d="M64.8154 27.4483C64.8529 27.4658 64.8871 27.4897 64.9245 27.5072C65.6918 27.8731 66.4161 28.3229 67.0843 28.8483C67.1185 28.8754 67.1559 28.8961 67.1902 28.9232L80.3979 14.4254C77.8672 12.2276 74.9998 10.4505 71.9055 9.16222L64.8154 27.4483Z" fill="#D4E0E8"/>
<path d="M49.7415 44.6678C49.5144 44.3184 49.3063 43.9572 49.118 43.5855C49.1124 43.5752 49.106 43.5656 49.1012 43.556C48.9138 43.1744 48.7474 42.7828 48.6027 42.383C48.5884 42.344 48.5685 42.3073 48.5541 42.2683L29.7058 47.6414C30.7109 50.8414 32.2251 53.8584 34.1901 56.5766L49.8084 44.784C49.7837 44.7474 49.7662 44.706 49.7415 44.6678Z" fill="#D4E0E8"/>
<path d="M71.6875 38.2568C71.6875 38.6319 71.6636 39.0038 71.6301 39.3717C71.6214 39.4633 71.6118 39.5541 71.6015 39.6449C71.5592 40.0112 71.5059 40.3744 71.4294 40.7311V40.7359L90.2857 46.109C90.95 43.5284 91.2834 40.8738 91.278 38.209C91.278 37.4525 91.2541 36.766 91.2063 36.1289L71.6835 37.9431C71.6859 38.0474 71.6875 38.1517 71.6875 38.2568Z" fill="#F3F3F3"/>
<path d="M61.0508 50.096C60.6256 50.1439 60.1982 50.1689 59.7703 50.1708C59.3445 50.1691 58.9191 50.1441 58.4961 50.096C58.4539 50.096 58.4101 50.096 58.3687 50.0888L54.7683 69.309C58.0814 69.8458 61.4592 69.8458 64.7722 69.309L61.1766 50.0888C61.1352 50.0936 61.0922 50.092 61.0508 50.096Z" fill="#F3F3F3"/>
<path d="M52.8333 47.9334C52.7966 47.9071 52.7648 47.8752 52.7282 47.8482C52.3966 47.6069 52.0776 47.3488 51.7725 47.0749C51.7614 47.0645 51.7494 47.0566 51.7383 47.047C51.4286 46.7619 51.1343 46.4604 50.8567 46.1439C50.8296 46.1129 50.797 46.0858 50.7699 46.0547L46.452 49.3151L35.1516 57.8473C37.2338 60.4713 39.722 62.7457 42.522 64.5845L52.8333 47.9334Z" fill="#F41C5E"/>
<path d="M65.2458 48.8318C64.8698 49.0307 64.4832 49.2091 64.0879 49.3662H64.0736C63.678 49.5173 63.2745 49.6465 62.8647 49.7532C62.8233 49.7644 62.7851 49.7819 62.7437 49.7922L66.34 69.0141C69.6242 68.3278 72.7757 67.115 75.6726 65.4225L65.3637 48.7777C65.3255 48.7984 65.2849 48.8087 65.2458 48.8318Z" fill="#D4E0E8"/>
<path d="M59.774 0C52.2153 0.00157522 44.8268 2.24453 38.5428 6.44523C32.2589 10.6459 27.3617 16.6157 24.4706 23.5996C21.5794 30.5836 20.8242 38.268 22.3004 45.6812C23.7765 53.0943 27.4178 59.9033 32.7637 65.247C38.1097 70.5907 44.9201 74.2291 52.3339 75.7022C59.7477 77.1753 67.4318 76.4168 74.4145 73.5228C81.3972 70.6287 87.365 65.7291 91.5631 59.4434C95.7611 53.1577 98.001 45.7682 97.9994 38.2095C97.9853 28.0773 93.953 18.3644 86.7869 11.2013C79.6208 4.03821 69.9062 0.00990159 59.774 0ZM86.1575 58.1744C83.701 61.4331 80.664 64.2103 77.1992 66.3665C73.7253 68.5167 69.8795 69.9974 65.8606 70.7322H65.855C61.8396 71.4925 57.7172 71.4925 53.7017 70.7322H53.6954C49.6752 69.9986 45.8281 68.5187 42.3527 66.3689C38.8886 64.2157 35.8528 61.4401 33.3984 58.1823C30.9201 54.9321 29.0701 51.248 27.9433 47.3191C27.0969 44.3568 26.6707 41.2904 26.6771 38.2095C26.672 37.1949 26.7251 36.1807 26.8364 35.1722C27.1898 31.1092 28.3076 27.1495 30.131 23.5015C31.953 19.8304 34.4474 16.5336 37.4846 13.7819C40.4943 11.0254 43.9921 8.85507 47.7983 7.38229C55.4984 4.37838 64.0464 4.37838 71.7465 7.38229C75.5518 8.85585 79.0499 11.024 82.0626 13.7763C85.0994 16.5283 87.5934 19.825 89.4154 23.4959C91.2401 27.1535 92.3589 31.1224 92.7132 35.1945C92.8221 36.1949 92.8737 37.2008 92.8677 38.2071C92.8868 45.4193 90.5272 52.4366 86.1543 58.172L86.1575 58.1744Z" fill="#E3175C"/>
<path d="M68.7817 46.0547C68.7546 46.0858 68.7228 46.1121 68.6957 46.1431C68.4174 46.4613 68.1223 46.7643 67.8117 47.051L67.7839 47.0741C67.4766 47.3501 67.1552 47.6101 66.8211 47.8529C66.7852 47.8792 66.7542 47.9103 66.7175 47.9326L77.0281 64.5845C79.8271 62.7443 82.3153 60.4701 84.3992 57.8473L73.0996 49.3151L68.7817 46.0547Z" fill="#F41C5E"/>
<path d="M56.8018 49.795C56.7604 49.7846 56.7221 49.7671 56.6807 49.756C56.2688 49.6486 55.8631 49.5186 55.4655 49.3666H55.4599C55.0639 49.2106 54.6769 49.033 54.3004 48.8346C54.2622 48.8147 54.2208 48.8003 54.1817 48.7796L43.8728 65.4236C46.7697 67.1161 49.9212 68.329 53.2054 69.0152L56.8018 49.795Z" fill="#D4E0E8"/>
<path d="M56.3546 26.8353C56.6732 26.739 56.9981 26.6593 57.327 26.5909C57.5205 26.5502 57.7156 26.5176 57.9123 26.4865C58.2014 26.4419 58.4913 26.4013 58.7843 26.3774C58.8496 26.3719 58.9126 26.3575 58.9787 26.3527V6.73034C55.6153 6.80823 52.2872 7.43388 49.1252 8.58268L56.2129 26.8704C56.2615 26.856 56.3092 26.8489 56.3546 26.8353Z" fill="#F3F3F3"/>
<path d="M60.5693 26.3511C60.6354 26.3559 60.6999 26.3703 60.766 26.3758C61.044 26.3989 61.3187 26.4379 61.5935 26.4794C61.8172 26.5144 62.0386 26.5518 62.2584 26.5988C62.577 26.6657 62.886 26.7414 63.1926 26.8377C63.2387 26.8513 63.2865 26.8576 63.3319 26.8728L70.195 9.17199L70.4227 8.58507C67.2609 7.43545 63.9328 6.80899 60.5693 6.73034V26.3511Z" fill="#D4E0E8"/>
<path d="M68.3711 29.9957C68.3998 30.0244 68.4229 30.0586 68.4507 30.0881C69.0394 30.7096 69.557 31.3947 69.9941 32.1308C70.0164 32.1682 70.0443 32.2009 70.0658 32.2391L87.6303 23.4966C86.0583 20.5209 84.0143 17.8197 81.578 15.4979L68.3711 29.9957Z" fill="#F41C5E"/>
<path d="M49.4848 32.2391C49.5063 32.2016 49.5334 32.169 49.5557 32.1316C49.7684 31.7698 50.0008 31.4199 50.2517 31.0836L50.2677 31.0605C50.5251 30.7232 50.8014 30.4007 51.0951 30.0945C51.1237 30.0642 51.1468 30.0292 51.1747 29.9997L49.4864 28.1466L37.9718 15.4979C35.5353 17.8196 33.4914 20.5208 31.9194 23.4966L49.4848 32.2391Z" fill="#F41C5E"/>
<path fill-rule="evenodd" clip-rule="evenodd" d="M8.52935 34.0863C8.52384 33.7703 8.80925 33.5285 9.12005 33.5859L49.0125 40.9506C49.5485 41.0496 49.5619 41.813 49.0296 41.9306L9.41847 50.6831C9.10986 50.7513 8.81619 50.5196 8.81067 50.2036L8.52935 34.0863Z" fill="#5C5C5C"/>
</svg>
