<svg width="13" height="14" viewBox="0 0 13 14" fill="none" xmlns="http://www.w3.org/2000/svg">
<g id="star">
<path id="vector" d="M6.93611 2.44304C6.87517 2.2545 6.69996 2.125 6.5 2.125C6.30004 2.125 6.12483 2.2545 6.06389 2.44304L5.10025 5.47677H2.08176C1.8856 5.47677 1.7123 5.60056 1.64945 5.78529C1.58661 5.97002 1.64755 6.17379 1.80181 6.29377L4.29278 8.23246L3.32153 11.2795C3.26059 11.47 3.33105 11.6795 3.49483 11.7937C3.65861 11.908 3.87952 11.9023 4.03759 11.7804L6.5 9.86455L8.96241 11.7785C9.12048 11.9023 9.33948 11.908 9.50517 11.7918C9.67085 11.6756 9.73941 11.47 9.67847 11.2776L8.70722 8.23246L11.1982 6.29377C11.3525 6.17379 11.4134 5.97002 11.3505 5.78529C11.2877 5.60056 11.1144 5.47677 10.9182 5.47677H7.89975L6.93611 2.44304Z" fill="#F39325"/>
</g>
</svg>
