<svg width="36" height="37" viewBox="0 0 36 37" fill="none" xmlns="http://www.w3.org/2000/svg">
<rect y="0.5" width="36" height="36" rx="18" fill="white"/>
<path d="M31.1427 12.6453L26.6301 26.394C26.4566 26.9193 25.8843 27.2148 25.3589 27.0413L7.79202 21.281C7.26665 21.1075 6.97583 20.5305 7.14938 20.0051L11.6619 6.25181C11.8355 5.72644 12.4077 5.43092 12.9331 5.60448L30.4953 11.3694C31.016 11.5711 31.3162 12.1153 31.1427 12.6453Z" fill="#F41C5E"/>
<path d="M27.751 13.5693L24.9365 27.7682C24.8286 28.3124 24.2939 28.6735 23.7497 28.5657L5.61992 24.9725C5.08049 24.8646 4.7193 24.3299 4.82718 23.7811L7.63695 9.58213C7.74484 9.038 8.27959 8.67681 8.82372 8.7847L26.9535 12.3778C27.493 12.5185 27.8589 13.0251 27.751 13.5693Z" fill="white"/>
<path d="M17.2296 31.4462C21.076 31.4462 24.1813 31.1084 24.1813 30.6816C24.1813 30.2547 21.0525 29.917 17.2296 29.917C13.4066 29.917 10.2778 30.2313 10.2778 30.6581C10.2731 31.0897 13.4019 31.4462 17.2296 31.4462Z" fill="#E0E0E0"/>
<path opacity="0.05" d="M26.9582 12.3868L26.4798 12.293C26.4751 12.3024 26.4657 12.3117 26.461 12.3211C25.8559 13.2217 25.2039 14.0895 24.4956 14.9104C23.2478 16.3646 21.8547 17.6967 20.4099 18.9492C18.9746 20.1969 17.4876 21.4071 15.9303 22.5001C14.3682 23.6024 12.703 24.5546 10.9111 25.2348C10.4045 25.4271 9.89323 25.5866 9.37256 25.7179L23.7498 28.5652C24.2892 28.6731 24.8286 28.3119 24.9365 27.7678L27.751 13.5782C27.8589 13.0341 27.493 12.5275 26.9582 12.3868Z" fill="#333333"/>
<path d="M12.3463 17.918L20.3065 19.344L19.4434 24.1567C19.4059 24.3584 19.2136 24.4944 19.0072 24.4616L11.7834 23.1669C11.5817 23.1294 11.4457 22.9371 11.4785 22.7307L12.3463 17.918Z" fill="#F41C5E"/>
<path d="M12.5715 15.4174L20.9586 16.9184C21.1603 16.9559 21.2963 17.1482 21.2635 17.3546L20.9539 19.0808C20.9164 19.2825 20.7241 19.4186 20.5177 19.3857L12.1306 17.8847C11.9289 17.8472 11.7929 17.6548 11.8257 17.4485L12.1353 15.7223C12.1728 15.5159 12.3698 15.3798 12.5715 15.4174Z" fill="#F41C5E"/>
<path d="M12.3467 17.918L20.3069 19.344L20.0442 20.8216L12.084 19.3956L12.3467 17.918Z" fill="#FCFCFF"/>
<path d="M17.5065 16.2998L16.1368 23.9457L14.6592 23.6831L16.0289 16.0371L17.5065 16.2998Z" fill="#FCFCFF"/>
<path d="M16.521 16.3225L17.8297 14.1507C17.9329 13.9771 18.0783 13.8364 18.2425 13.7379L18.2472 13.7332C18.5756 13.5456 18.9743 13.4987 19.3355 13.6112C19.7013 13.7238 20.0015 13.9724 20.1751 14.3195C20.4706 14.9153 20.2924 15.6564 19.7529 16.0504C19.7389 16.0598 19.7248 16.0692 19.7107 16.0786C19.5184 16.2099 19.2839 16.2803 19.0352 16.285L16.521 16.3225ZM19.0775 14.1178C18.8851 14.085 18.6928 14.1178 18.5193 14.2163C18.4301 14.2679 18.3551 14.343 18.2988 14.4368L17.5061 15.7549L19.0259 15.7361C19.1619 15.7361 19.2932 15.6939 19.3964 15.6236C19.4058 15.6189 19.4152 15.6142 19.4199 15.6048C19.7436 15.3703 19.8514 14.9246 19.6732 14.5681C19.57 14.3618 19.3917 14.2117 19.1713 14.1413C19.1431 14.1319 19.1103 14.1272 19.0775 14.1178Z" fill="#F41C5E"/>
<path d="M16.981 16.4074L14.631 15.5021C14.4011 15.413 14.2088 15.2675 14.0728 15.0752C14.0634 15.0611 14.054 15.0471 14.0446 15.033C13.6787 14.4795 13.7679 13.7196 14.251 13.2646C14.5325 13.0019 14.8983 12.8659 15.283 12.8893C15.6629 12.9128 16.0194 13.091 16.2634 13.3818L16.268 13.3865C16.39 13.5366 16.4744 13.7196 16.512 13.9166L16.981 16.4074ZM15.344 13.4522C15.3111 13.4475 15.2783 13.4428 15.2455 13.4428C15.0156 13.4288 14.7951 13.5085 14.6263 13.668C14.3354 13.9401 14.2838 14.3951 14.5043 14.7281C14.509 14.7375 14.5137 14.7469 14.5231 14.7516C14.5981 14.8547 14.706 14.9345 14.8327 14.9861L16.254 15.5349L15.9678 14.0245C15.9491 13.9166 15.9022 13.8181 15.8412 13.743V13.7383C15.7098 13.5836 15.5363 13.485 15.344 13.4522Z" fill="#F41C5E"/>
<path opacity="0.05" d="M19.4433 24.1614L20.3064 19.3486L20.5175 19.3862C20.7192 19.4237 20.9162 19.2877 20.9537 19.0813L21.2633 17.3551C21.3009 17.1534 21.1648 16.9563 20.9584 16.9188L20.4096 16.8203L18.7022 19.0625L17.4497 18.8373L12.7871 23.3499L19.0071 24.4663C19.2135 24.4991 19.4058 24.3631 19.4433 24.1614Z" fill="#333333"/>
</svg>
