<svg width="36" height="37" viewBox="0 0 36 37" fill="none" xmlns="http://www.w3.org/2000/svg">
<rect y="0.5" width="36" height="36" rx="18" fill="white"/>
<g clip-path="url(#clip0_11355_97704)">
<path d="M18.4604 13.692C18.3961 13.4931 18.2112 13.3564 18.0003 13.3564C17.7893 13.3564 17.6045 13.4931 17.5402 13.692L16.5236 16.8924H13.3393C13.1323 16.8924 12.9495 17.023 12.8832 17.2178C12.8169 17.4127 12.8812 17.6277 13.0439 17.7543L15.6718 19.7995L14.6472 23.014C14.5829 23.2149 14.6572 23.4359 14.83 23.5564C15.0028 23.677 15.2358 23.6709 15.4026 23.5423L18.0003 21.5212L20.598 23.5403C20.7647 23.6709 20.9958 23.677 21.1706 23.5544C21.3454 23.4319 21.4177 23.2149 21.3534 23.012L20.3288 19.7995L22.9566 17.7543C23.1193 17.6277 23.1836 17.4127 23.1173 17.2178C23.051 17.023 22.8682 16.8924 22.6613 16.8924H19.4769L18.4604 13.692Z" fill="#F39325"/>
</g>
<defs>
<clipPath id="clip0_11355_97704">
<rect width="13.7143" height="13.7143" fill="white" transform="translate(11.1431 11.6426)"/>
</clipPath>
</defs>
</svg>
