<svg width="32" height="32" viewBox="0 0 32 32" fill="none" xmlns="http://www.w3.org/2000/svg">
<g clip-path="url(#clip0_16801_7211)">
<path d="M9.66675 6.25C9.66675 5.00781 10.6746 4 11.9167 4H19.4167C20.6589 4 21.6667 5.00781 21.6667 6.25H9.66675ZM9.66675 25.75H21.6667C21.6667 26.9922 20.6589 28 19.4167 28H11.9167C10.6746 28 9.66675 26.9922 9.66675 25.75ZM6.66675 11.5C6.66675 9.42812 8.34487 7.75 10.4167 7.75H20.9167C22.9886 7.75 24.6667 9.42812 24.6667 11.5V20.5C24.6667 22.5719 22.9886 24.25 20.9167 24.25H10.4167C8.34487 24.25 6.66675 22.5719 6.66675 20.5V11.5ZM13.2902 11.5C11.7011 11.5 10.4167 12.7844 10.4167 14.3734C10.4167 15.1328 10.7214 15.8641 11.2558 16.4031L15.1324 20.2797C15.423 20.5703 15.9011 20.5703 16.1917 20.2797L20.0683 16.4031C20.6074 15.8641 20.9074 15.1328 20.9074 14.3734C20.9074 12.7891 19.623 11.5 18.0339 11.5C17.2746 11.5 16.5433 11.8047 16.0042 12.3391L15.6574 12.6859L15.3105 12.3391C14.7714 11.8 14.0402 11.5 13.2808 11.5H13.2902Z" fill="#F41C5E"/>
</g>
<defs>
<clipPath id="clip0_16801_7211">
<rect width="32" height="32" fill="white"/>
</clipPath>
</defs>
</svg>
