<svg width="11" height="17" viewBox="0 0 11 17" fill="none" xmlns="http://www.w3.org/2000/svg">
<path d="M5.49727 1.5C5.49727 1.10218 5.6553 0.720644 5.93661 0.43934C6.21791 0.158035 6.59944 0 6.99727 0C7.39509 0 7.77662 0.158035 8.05793 0.43934C8.33923 0.720644 8.49727 1.10218 8.49727 1.5C8.49727 1.89782 8.33923 2.27936 8.05793 2.56066C7.77662 2.84196 7.39509 3 6.99727 3C6.59944 3 6.21791 2.84196 5.93661 2.56066C5.6553 2.27936 5.49727 1.89782 5.49727 1.5ZM5.86289 5.525L4.92852 8.33125C4.89414 8.43125 4.92852 8.5375 5.00664 8.60312L5.51914 9.01875L6.53164 5.775C6.53477 5.76562 6.53789 5.75313 6.54102 5.74375C6.33164 5.63438 6.10352 5.55937 5.86289 5.52187V5.525ZM7.66289 7.18437L6.77227 10.0375L8.33789 11.3094C8.55352 11.4844 8.70352 11.7281 8.76914 12L9.48164 15.0813C9.57539 15.4844 9.32227 15.8875 8.91914 15.9812C8.51602 16.075 8.11289 15.8219 8.01914 15.4187L7.32852 12.4187L4.05977 9.76875C3.49727 9.30937 3.27539 8.54688 3.50352 7.85625L4.21602 5.72188C3.44414 6.02813 2.81914 6.625 2.47852 7.3875L2.18164 8.05313C2.01289 8.43125 1.56914 8.60312 1.19102 8.43437C0.812892 8.26562 0.641017 7.82188 0.809767 7.44375L1.10664 6.78125C1.64102 5.57812 2.65664 4.65625 3.90352 4.24062C4.38164 4.08125 4.88164 4 5.38477 4H5.53789C7.17852 4 8.62227 5.0875 9.07539 6.66875L9.41602 7.85938L10.2785 8.71875C10.5723 9.0125 10.5723 9.4875 10.2785 9.77812C9.98477 10.0687 9.50977 10.0719 9.21914 9.77812L8.30977 8.87187C8.15977 8.72188 8.05039 8.53438 7.99102 8.33125L7.66289 7.18437ZM2.85664 12.5781L3.60977 10.6906L4.82852 11.6812L4.22852 13.1812C4.16602 13.3375 4.07227 13.4813 3.95039 13.6L1.77852 15.7812C1.48477 16.075 1.00977 16.075 0.719142 15.7812C0.428517 15.4875 0.425392 15.0125 0.719142 14.7219L2.85977 12.5813L2.85664 12.5781Z" fill="#1D1D1D"/>
</svg>
