<svg width="40" height="40" viewBox="0 0 40 40" fill="none" xmlns="http://www.w3.org/2000/svg">
<g clip-path="url(#clip0_16575_3093)">
<g clip-path="url(#clip1_16575_3093)">
<path d="M19.9997 39.9995C31.0453 39.9995 39.9995 31.0453 39.9995 19.9997C39.9995 8.95419 31.0453 0 19.9997 0C8.95419 0 0 8.95419 0 19.9997C0 31.0453 8.95419 39.9995 19.9997 39.9995Z" fill="#EAEFF4"/>
<path opacity="0.2" d="M19.9997 40C28.8924 40 36.4286 34.1951 39.0287 26.169C33.3055 23.1052 26.7661 21.3677 19.8207 21.3677C12.8753 21.3677 6.56855 23.0438 0.918213 26.0066C3.4688 34.117 11.0472 40 19.9997 40Z" fill="#7CA5B9"/>
</g>
<path opacity="0.3" d="M20.025 34.4248C25.125 34.4248 29.275 34.0248 29.275 33.5498C29.275 33.0748 25.15 32.6748 20.025 32.6748C14.925 32.6748 10.775 33.0748 10.775 33.5498C10.775 34.0248 14.925 34.4248 20.025 34.4248Z" fill="#7CA5B9"/>
<path d="M21.375 5.59961H18.7V7.12461H21.375V5.59961Z" fill="#333333"/>
<path d="M24.3 15.3997V14.1747C24.525 13.9747 24.725 13.7247 24.85 13.4497C24.975 13.1747 25.05 12.8747 25.05 12.5747V11.8747C25.05 11.3247 24.8251 10.7997 24.4501 10.4247C24.0501 10.0497 23.55 9.82471 23 9.82471H17.1C16.55 9.82471 16.025 10.0497 15.65 10.4247C15.275 10.7997 15.05 11.3247 15.05 11.8747V12.5497C15.05 12.8497 15.1 13.1247 15.225 13.3997C15.35 13.6747 15.525 13.8997 15.725 14.0997V15.4247C15.45 15.6247 15.225 15.8997 15.05 16.2247C14.9 16.5247 14.8 16.8747 14.8 17.2247V31.3497C14.8 31.9497 15.025 32.5247 15.45 32.9247C15.875 33.3497 16.45 33.5747 17.025 33.5747H22.9501C23.5501 33.5747 24.125 33.3497 24.525 32.9247C24.95 32.4997 25.175 31.9247 25.175 31.3497V17.2247C25.175 16.8747 25.1 16.5247 24.925 16.1997C24.825 15.8747 24.575 15.6247 24.3 15.3997Z" fill="#F41C5E"/>
<path d="M20.025 26.9497C21.75 26.9497 23.15 25.5497 23.15 23.8247C23.15 22.0997 21.75 20.6997 20.025 20.6997C18.3 20.6997 16.9 22.0997 16.9 23.8247C16.9 25.5497 18.3 26.9497 20.025 26.9497Z" fill="white"/>
<path opacity="0.1" d="M24.3 15.3997V14.1747C24.525 13.9747 24.725 13.7247 24.85 13.4497C24.975 13.1747 25.05 12.8747 25.05 12.5747V11.8747C25.05 11.3247 24.825 10.7997 24.45 10.4247C24.075 10.0497 23.55 9.82471 23 9.82471H21.675C22.225 9.82471 22.75 10.0497 23.125 10.4247C23.5 10.7997 23.725 11.3247 23.725 11.8747V12.5497C23.725 12.9247 23.625 13.2747 23.45 13.5997C23.3 13.9497 15.725 14.0997 15.725 14.0997L22.975 14.1497V15.3497L15.725 15.3997C15.725 15.3997 23.275 15.5497 23.45 15.8997C23.425 15.8497 23.425 15.8247 23.4 15.7747C23.5 25.6247 17.875 33.5497 16.625 33.5497H22.975C23.575 33.5497 24.15 33.3247 24.55 32.8997C24.975 32.4747 25.2 31.8997 25.2 31.3247V17.2247C25.2 16.8747 25.125 16.5247 24.95 16.1997C24.825 15.8747 24.575 15.6247 24.3 15.3997Z" fill="#333333"/>
<path d="M24.075 7.5999H16.025V7.0249H24.05V7.5999H24.075Z" fill="#333333"/>
<path d="M24.575 8.94961C24.575 8.22461 24.45 7.62461 24.3 7.59961H15.8C15.65 7.62461 15.525 8.19961 15.525 8.94961C15.525 9.67461 15.65 10.2746 15.8 10.2996H24.325C24.45 10.2746 24.575 9.67461 24.575 8.94961Z" fill="#333333"/>
<path opacity="0.05" d="M24.3 7.625H23.075C23.225 7.65 23.35 8.25 23.35 8.975C23.35 9.7 23.225 10.3 23.075 10.325H24.3C24.45 10.3 24.575 9.7 24.575 8.975C24.575 8.225 24.45 7.625 24.3 7.625Z" fill="#333333"/>
<path opacity="0.05" d="M16.025 7.0249C16.025 7.0249 20.675 7.8749 24.05 7.0249V7.5999H16.025V7.0249Z" fill="#333333"/>
<path d="M21.475 5.2998H18.55C18.45 5.2998 18.35 5.3748 18.35 5.4998V5.7498C18.35 5.8498 18.425 5.9498 18.55 5.9498H21.45C21.55 5.9498 21.65 5.8748 21.65 5.7498V5.4998C21.675 5.3998 21.575 5.2998 21.475 5.2998Z" fill="#333333"/>
<path opacity="0.05" d="M21.475 5.6499H20.625C20.775 5.9249 20.85 6.2499 20.85 6.5499C20.85 6.8749 20.775 7.1749 20.625 7.4499H21.4V6.2749H21.5C21.55 6.2749 21.6 6.2499 21.625 6.2249C21.65 6.1999 21.675 6.1499 21.675 6.0999V5.8499C21.675 5.7999 21.65 5.7499 21.625 5.7249C21.6 5.6999 21.525 5.6499 21.475 5.6499Z" fill="#333333"/>
</g>
<defs>
<clipPath id="clip0_16575_3093">
<rect width="40" height="40" fill="white"/>
</clipPath>
<clipPath id="clip1_16575_3093">
<rect width="40" height="40" fill="white"/>
</clipPath>
</defs>
</svg>
