<svg width="121" height="127" viewBox="0 0 121 127" fill="none" xmlns="http://www.w3.org/2000/svg">
<path d="M67.72 63.5005L66.2106 63.7746L65.4767 63.9079L31.096 70.1562L29.105 70.5177L28.2771 70.6684C27.8577 68.3432 27.6382 65.947 27.6382 63.5005C27.6382 61.054 27.8577 58.6578 28.2771 56.3325L29.105 56.4832L31.096 56.8448L65.4767 63.0931L66.2106 63.2263L67.72 63.5005Z" fill="#F41C5E"/>
<path d="M107.802 63.5005C107.802 65.947 107.582 68.3432 107.163 70.6684L106.335 70.5177L104.344 70.1562L69.9631 63.9079L69.2291 63.7746L67.7197 63.5005L69.2291 63.2263L69.9631 63.0931L104.344 56.8448L106.335 56.4832L107.163 56.3325C107.582 58.6578 107.802 61.054 107.802 63.5005Z" fill="#F41C5E"/>
<path d="M74.8879 24.0574L74.7372 24.8853L74.3757 26.8763L68.1273 61.257L67.9941 61.9909L67.72 63.5003L67.4458 61.9909L67.3126 61.257L61.0642 26.8763L60.7027 24.8853L60.552 24.0574C62.8772 23.638 65.2735 23.4185 67.72 23.4185C70.1664 23.4185 72.5627 23.638 74.8879 24.0574Z" fill="#F41C5E"/>
<path d="M74.8879 102.943C72.5627 103.363 70.1664 103.582 67.72 103.582C65.2735 103.582 62.8772 103.363 60.552 102.943L60.7027 102.116L61.0642 100.124L67.3126 65.7438L67.4458 65.0099L67.72 63.5005L67.9941 65.0099L68.1273 65.7438L74.3757 100.124L74.7372 102.116L74.8879 102.943Z" fill="#F41C5E"/>
<path d="M100.676 40.6804L99.9848 41.1599L98.3204 42.3122L69.5939 62.2029L68.9812 62.6267L67.7197 63.5004L68.5935 62.2389L69.0172 61.6262L88.908 32.8998L90.0602 31.2353L90.5397 30.5439C94.4956 33.2875 97.9326 36.7246 100.676 40.6804Z" fill="#E9E9E9"/>
<path d="M67.7197 63.5005L66.8459 64.762L66.4221 65.3747L46.5314 94.1011L45.3792 95.7656L44.8997 96.457C40.9438 93.7134 37.5067 90.2763 34.7632 86.3204L35.4545 85.841L37.119 84.6887L65.8455 64.798L66.4582 64.3742L67.7197 63.5005Z" fill="#E9E9E9"/>
<path d="M100.676 86.3204C97.9326 90.2763 94.4956 93.7134 90.5397 96.457L90.0602 95.7656L88.908 94.1011L69.0172 65.3747L68.5935 64.762L67.7197 63.5005L68.9812 64.3742L69.5939 64.798L98.3204 84.6887L99.9848 85.841L100.676 86.3204Z" fill="#E9E9E9"/>
<path d="M67.7197 63.5004L66.4582 62.6267L65.8455 62.2029L37.119 42.3122L35.4545 41.1599L34.7632 40.6804C37.5067 36.7246 40.9438 33.2875 44.8997 30.5439L45.3792 31.2353L46.5314 32.8998L66.4221 61.6262L66.8459 62.2389L67.7197 63.5004Z" fill="#E9E9E9"/>
<path d="M70.0004 63.5002C70.0004 63.6389 69.9884 63.7754 69.9633 63.9076C69.9054 64.2341 69.7765 64.5356 69.5941 64.7977C69.439 65.0238 69.2435 65.2193 69.0174 65.3744C68.7553 65.5568 68.4539 65.6856 68.1273 65.7435C67.9951 65.7686 67.8586 65.7807 67.7199 65.7807C67.5812 65.7807 67.4447 65.7686 67.3125 65.7435C66.986 65.6856 66.6845 65.5568 66.4224 65.3744C66.1963 65.2193 66.0008 65.0238 65.8457 64.7977C65.6633 64.5356 65.5345 64.2341 65.4766 63.9076C65.4515 63.7754 65.4395 63.6389 65.4395 63.5002C65.4395 63.3615 65.4515 63.225 65.4766 63.0928C65.5345 62.7662 65.6633 62.4648 65.8457 62.2027C66.0008 61.9766 66.1963 61.7811 66.4224 61.626C66.6845 61.4436 66.986 61.3147 67.3125 61.2569C67.4447 61.2317 67.5812 61.2197 67.7199 61.2197C67.8586 61.2197 67.9951 61.2317 68.1273 61.2569C68.4539 61.3147 68.7553 61.4436 69.0174 61.626C69.2435 61.7811 69.439 61.9766 69.5941 62.2027C69.7765 62.4648 69.9054 62.7662 69.9633 63.0928C69.9884 63.225 70.0004 63.3615 70.0004 63.5002Z" fill="white"/>
<path opacity="0.1" d="M70.4965 63.5004C70.4965 63.6697 70.4823 63.8357 70.4517 63.9963C70.3807 64.3938 70.2245 64.7608 70.0017 65.0797C69.8128 65.355 69.5747 65.5931 69.2995 65.782C68.9805 66.0037 68.6136 66.161 68.216 66.232C68.0555 66.2626 67.8884 66.2768 67.7202 66.2768C67.552 66.2768 67.3849 66.2626 67.2243 66.232C66.8268 66.161 66.4598 66.0048 66.1409 65.782C65.8656 65.5931 65.6276 65.355 65.4386 65.0797C65.2169 64.7608 65.0596 64.3938 64.9886 63.9963C64.958 63.8357 64.9438 63.6686 64.9438 63.5004C64.9438 63.3312 64.958 63.1651 64.9886 63.0046C65.0596 62.607 65.2158 62.2401 65.4386 61.9211C65.6276 61.6459 65.8656 61.4078 66.1409 61.2189C66.4598 60.9972 66.8268 60.8399 67.2243 60.7689C67.3849 60.7383 67.552 60.7241 67.7202 60.7241C67.8884 60.7241 68.0555 60.7383 68.216 60.7689C68.6136 60.8399 68.9805 60.9961 69.2995 61.2189C69.5747 61.4078 69.8128 61.6459 70.0017 61.9211C70.2234 62.2401 70.3807 62.607 70.4517 63.0046C70.4823 63.1651 70.4965 63.3322 70.4965 63.5004Z" fill="#333333"/>
<path d="M70.0004 63.5002C70.0004 63.6389 69.9884 63.7754 69.9633 63.9076C69.9054 64.2341 69.7765 64.5356 69.5941 64.7977C69.439 65.0238 69.2435 65.2193 69.0174 65.3744C68.7553 65.5568 68.4539 65.6856 68.1273 65.7435C67.9951 65.7686 67.8586 65.7807 67.7199 65.7807C67.5812 65.7807 67.4447 65.7686 67.3125 65.7435C66.986 65.6856 66.6845 65.5568 66.4224 65.3744C66.1963 65.2193 66.0008 65.0238 65.8457 64.7977C65.6633 64.5356 65.5345 64.2341 65.4766 63.9076C65.4515 63.7754 65.4395 63.6389 65.4395 63.5002C65.4395 63.3615 65.4515 63.225 65.4766 63.0928C65.5345 62.7662 65.6633 62.4648 65.8457 62.2027C66.0008 61.9766 66.1963 61.7811 66.4224 61.626C66.6845 61.4436 66.986 61.3147 67.3125 61.2569C67.4447 61.2317 67.5812 61.2197 67.7199 61.2197C67.8586 61.2197 67.9951 61.2317 68.1273 61.2569C68.4539 61.3147 68.7553 61.4436 69.0174 61.626C69.2435 61.7811 69.439 61.9766 69.5941 62.2027C69.7765 62.4648 69.9054 62.7662 69.9633 63.0928C69.9884 63.225 70.0004 63.3615 70.0004 63.5002Z" fill="white"/>
<path d="M67.7201 65.0348C68.5675 65.0348 69.2546 64.3478 69.2546 63.5003C69.2546 62.6528 68.5675 61.9658 67.7201 61.9658C66.8726 61.9658 66.1855 62.6528 66.1855 63.5003C66.1855 64.3478 66.8726 65.0348 67.7201 65.0348Z" fill="#F41C5E"/>
<path d="M106.335 70.5176C105.321 76.1314 103.114 81.3301 99.9849 85.8408L98.3204 84.6886L69.594 64.7978C69.7764 64.5357 69.9053 64.2343 69.9631 63.9077L104.344 70.1561L106.335 70.5176Z" fill="white"/>
<path d="M106.335 56.4829L104.344 56.8444L69.9631 63.0928C69.9053 62.7662 69.7764 62.4648 69.594 62.2027L98.3204 42.3119L99.9849 41.1597C103.114 45.6704 105.321 50.8691 106.335 56.4829Z" fill="white"/>
<path d="M90.0603 31.2352L88.9081 32.8997L69.0173 61.6261C68.7552 61.4437 68.4538 61.3148 68.1272 61.257L74.3755 26.8763L74.7371 24.8853C80.3509 25.8988 85.5496 28.1061 90.0603 31.2352Z" fill="white"/>
<path d="M67.3128 61.257C66.9862 61.3148 66.6848 61.4437 66.4226 61.6261L46.5319 32.8997L45.3796 31.2352C49.8903 28.1061 55.0891 25.8988 60.7029 24.8853L61.0644 26.8763L67.3128 61.257Z" fill="white"/>
<path d="M65.8458 62.2027C65.6634 62.4648 65.5346 62.7662 65.4767 63.0928L31.096 56.8444L29.105 56.4829C30.1185 50.8691 32.3258 45.6704 35.4549 41.1597L37.1194 42.3119L65.8458 62.2027Z" fill="white"/>
<path d="M65.8458 64.7978L37.1194 84.6886L35.4549 85.8408C32.3258 81.3301 30.1185 76.1314 29.105 70.5176L31.096 70.1561L65.4767 63.9077C65.5346 64.2343 65.6634 64.5357 65.8458 64.7978Z" fill="white"/>
<path d="M67.3128 65.7437L61.0644 100.124L60.7029 102.115C55.0891 101.102 49.8903 98.8945 45.3796 95.7655L46.5319 94.101L66.4226 65.3745C66.6848 65.5569 66.9862 65.6858 67.3128 65.7437Z" fill="white"/>
<path d="M90.0603 95.7655C85.5496 98.8945 80.3509 101.102 74.7371 102.115L74.3755 100.124L68.1272 65.7437C68.4538 65.6858 68.7552 65.5569 69.0173 65.3745L88.9081 94.101L90.0603 95.7655Z" fill="white"/>
<path d="M109.308 55.9422C108.217 49.8959 105.84 44.2974 102.469 39.4394C99.5759 35.2684 95.952 31.6446 91.781 28.7514C86.923 25.3809 81.3245 23.0032 75.2782 21.9122C72.8263 21.4698 70.3 21.2383 67.7203 21.2383C65.1406 21.2383 62.6144 21.4698 60.1624 21.9122C54.1162 23.0032 48.5176 25.3809 43.6596 28.7514C39.4886 31.6446 35.8648 35.2684 32.9716 39.4394C29.6011 44.2974 27.2235 49.8959 26.1324 55.9422C26.0952 56.1487 26.0592 56.3551 26.0264 56.5626C25.8451 57.6537 25.7075 58.7601 25.6125 59.8784C25.5994 60.0313 25.5874 60.1853 25.5754 60.3393C25.4989 61.3518 25.4607 62.3741 25.4585 63.4062V63.6006C25.4585 63.7284 25.4596 63.8551 25.4607 63.9828C25.4738 65.1078 25.5306 66.2207 25.63 67.3227C25.7294 68.4411 25.8735 69.5475 26.0592 70.6397C26.0625 70.6582 26.0657 70.6757 26.069 70.6943C26.0898 70.8155 26.1105 70.9367 26.1324 71.058C27.2235 77.1043 29.6011 82.7028 32.9716 87.5608C35.8648 91.7318 39.4886 95.3557 43.6596 98.2488C48.5176 101.619 54.1162 103.997 60.1624 105.088C62.6144 105.53 65.1406 105.762 67.7203 105.762C70.3 105.762 72.8263 105.53 75.2782 105.088C81.3245 103.997 86.923 101.619 91.781 98.2488C95.952 95.3557 99.5759 91.7318 102.469 87.5608C105.84 82.7028 108.217 77.1043 109.308 71.058C109.751 68.606 109.982 66.0798 109.982 63.5001C109.982 60.9204 109.751 58.3942 109.308 55.9422ZM106.335 70.5173C105.322 76.1311 103.115 81.3299 99.9854 85.8406C97.2987 89.7135 93.9337 93.0785 90.0608 95.7652C85.5501 98.8943 80.3514 101.102 74.7376 102.115C72.4615 102.527 70.1155 102.741 67.7203 102.741C65.3252 102.741 62.9792 102.527 60.7031 102.115C55.0893 101.102 49.8905 98.8943 45.3798 95.7652C41.507 93.0785 38.142 89.7135 35.4552 85.8406C32.3261 81.3299 30.1188 76.1311 29.1053 70.5173C29.0758 70.3535 29.0474 70.1897 29.0201 70.0259C28.9633 69.6917 28.912 69.3564 28.865 69.02C28.7077 67.9092 28.5985 66.7832 28.5373 65.6441C28.4991 64.9341 28.4795 64.2188 28.4795 63.5001C28.4795 62.8503 28.4948 62.2037 28.5275 61.5615C28.5363 61.3791 28.5461 61.1967 28.5581 61.0154C28.6171 60.0619 28.7099 59.1183 28.8366 58.1856C28.9131 57.6144 29.0026 57.0464 29.1053 56.4829C30.1188 50.8691 32.3261 45.6703 35.4552 41.1596C38.142 37.2867 41.507 33.9217 45.3798 31.235C49.8905 28.1059 55.0893 25.8986 60.7031 24.8851C62.9792 24.4733 65.3252 24.2592 67.7203 24.2592C70.1155 24.2592 72.4615 24.4733 74.7376 24.8851C80.3514 25.8986 85.5501 28.1059 90.0608 31.235C93.9337 33.9217 97.2987 37.2867 99.9854 41.1596C103.115 45.6703 105.322 50.8691 106.335 56.4829C106.747 58.759 106.961 61.105 106.961 63.5001C106.961 65.8953 106.747 68.2413 106.335 70.5173Z" fill="#F41C5E"/>
<path opacity="0.1" d="M106.336 56.4828C105.322 50.869 103.115 45.6702 99.9857 41.1595C97.2989 37.2867 93.935 33.9217 90.0622 31.236C85.5515 28.1069 80.3527 25.8985 74.7389 24.8861C72.4617 24.4754 70.1168 24.2603 67.7217 24.2603C65.3265 24.2603 62.9805 24.4754 60.7044 24.8861C55.0906 25.8996 49.8919 28.1069 45.3812 31.236C41.5083 33.9228 38.1433 37.2867 35.4576 41.1595C32.3286 45.6702 30.1202 50.869 29.1077 56.4828C29.0728 56.6739 29.04 56.8661 29.0094 57.0584C28.8412 58.0719 28.7134 59.0985 28.625 60.1372C28.613 60.2792 28.602 60.4223 28.59 60.5653C28.5791 60.715 28.5704 60.8657 28.5605 61.0153L25.5778 60.3393C25.5013 61.3517 25.4631 62.374 25.4609 63.4061V63.6005C25.4609 63.7283 25.462 63.855 25.4631 63.9828C25.4762 65.1077 25.533 66.2206 25.6324 67.3226C25.7318 68.441 25.876 69.5474 26.0616 70.6396C26.0649 70.6582 26.0682 70.6756 26.0715 70.6942L29.0225 70.0258C29.028 70.0596 29.0335 70.0946 29.0389 70.1295C29.0422 70.147 29.0455 70.1634 29.0476 70.1798C29.0673 70.2923 29.0859 70.4048 29.1066 70.5173C30.1202 76.1311 32.3275 81.3298 35.4565 85.8405C38.1433 89.7134 41.5072 93.0784 45.3801 95.7641C49.8908 98.8931 55.0895 101.102 60.7033 102.114C62.9805 102.525 65.3254 102.74 67.7206 102.74C70.1157 102.74 72.4617 102.525 74.7378 102.114C80.3516 101.1 85.5504 98.8931 90.0611 95.7641C93.9339 93.0773 97.2989 89.7134 99.9846 85.8405C103.114 81.3298 105.322 76.1311 106.335 70.5173C106.745 68.2401 106.96 65.8952 106.96 63.5C106.96 61.1049 106.745 58.7589 106.335 56.4828H106.336ZM103.576 70.016C102.634 75.2289 100.585 80.0553 97.6801 84.2438C95.1856 87.8403 92.0609 90.9639 88.4654 93.4585C84.2769 96.3637 79.4506 98.4137 74.2376 99.354C72.1242 99.7363 69.9464 99.9351 67.7217 99.9351C65.4969 99.9351 63.3191 99.7363 61.2057 99.354C55.9928 98.4126 51.1664 96.3637 46.9779 93.4585C43.3814 90.9639 40.2578 87.8392 37.7632 84.2438C34.858 80.0553 32.808 75.2278 31.8677 70.016C31.8403 69.8641 31.8141 69.7112 31.789 69.5594C31.7803 69.5081 31.7726 69.4568 31.7639 69.4054L48.6839 65.5773L31.3347 61.6444C31.3423 61.4937 31.35 61.343 31.3598 61.1933C31.4144 60.3076 31.5007 59.4317 31.6186 58.5656C31.6896 58.0348 31.7726 57.5083 31.8677 56.9841C32.8091 51.7711 34.858 46.9448 37.7632 42.7563C40.2578 39.1597 43.3825 36.0361 46.9779 33.5416C51.1664 30.6364 55.9939 28.5864 61.2057 27.646C63.3191 27.2637 65.4969 27.065 67.7217 27.065C69.9464 27.065 72.1242 27.2637 74.2376 27.646C79.4506 28.5875 84.2769 30.6364 88.4654 33.5416C92.0619 36.0361 95.1856 39.1608 97.6801 42.7563C100.585 46.9448 102.635 51.7722 103.576 56.9841C103.958 59.0975 104.157 61.2753 104.157 63.5C104.157 65.7248 103.958 67.9026 103.576 70.016Z" fill="#333333"/>
<path d="M48.6814 63.6114L17.6188 70.6396C17.4331 69.5474 17.2889 68.441 17.1895 67.3226C17.0902 66.2206 17.0334 65.1077 17.0203 63.9828C17.0192 63.855 17.0181 63.7283 17.0181 63.6005V63.4061C17.0203 62.2178 17.0716 61.0415 17.1721 59.8784C17.2671 58.76 17.4047 57.6536 17.586 56.5625L48.6814 63.6114Z" fill="#8529A6"/>
</svg>
