<svg width="93" height="85" viewBox="0 0 93 85" fill="none" xmlns="http://www.w3.org/2000/svg">
<path d="M50.72 42.5L49.2106 42.7741L48.4767 42.9074L14.096 49.1557L12.105 49.5172L11.2771 49.668C10.8577 47.3427 10.6382 44.9465 10.6382 42.5C10.6382 40.0535 10.8577 37.6573 11.2771 35.332L12.105 35.4828L14.096 35.8443L48.4767 42.0926L49.2106 42.2259L50.72 42.5Z" fill="#F41C5E"/>
<path d="M90.8016 42.5C90.8016 44.9465 90.582 47.3427 90.1626 49.668L89.3348 49.5172L87.3437 49.1557L52.9631 42.9074L52.2291 42.7741L50.7197 42.5L52.2291 42.2259L52.9631 42.0926L87.3437 35.8443L89.3348 35.4828L90.1626 35.332C90.582 37.6573 90.8016 40.0535 90.8016 42.5Z" fill="#F41C5E"/>
<path d="M57.8879 3.05714L57.7372 3.88501L57.3757 5.87605L51.1273 40.2567L50.9941 40.9907L50.72 42.5L50.4458 40.9907L50.3126 40.2567L44.0642 5.87605L43.7027 3.88501L43.552 3.05714C45.8772 2.63774 48.2735 2.41821 50.72 2.41821C53.1664 2.41821 55.5627 2.63774 57.8879 3.05714Z" fill="#F41C5E"/>
<path d="M57.8879 81.9429C55.5627 82.3623 53.1664 82.5818 50.72 82.5818C48.2735 82.5818 45.8772 82.3623 43.552 81.9429L43.7027 81.115L44.0642 79.124L50.3126 44.7433L50.4458 44.0094L50.72 42.5L50.9941 44.0094L51.1273 44.7433L57.3757 79.124L57.7372 81.115L57.8879 81.9429Z" fill="#F41C5E"/>
<path d="M83.6762 19.6802L82.9848 20.1597L81.3204 21.3119L52.5939 41.2027L51.9812 41.6264L50.7197 42.5002L51.5935 41.2387L52.0172 40.626L71.908 11.8995L73.0602 10.235L73.5397 9.5437C77.4956 12.2873 80.9326 15.7243 83.6762 19.6802Z" fill="#E9E9E9"/>
<path d="M50.7197 42.5L49.8459 43.7615L49.4221 44.3742L29.5314 73.1006L28.3792 74.7651L27.8997 75.4565C23.9438 72.7129 20.5067 69.2758 17.7632 65.32L18.4545 64.8405L20.119 63.6882L48.8455 43.7975L49.4582 43.3737L50.7197 42.5Z" fill="#E9E9E9"/>
<path d="M83.6762 65.32C80.9326 69.2758 77.4956 72.7129 73.5397 75.4565L73.0602 74.7651L71.908 73.1006L52.0172 44.3742L51.5935 43.7615L50.7197 42.5L51.9812 43.3737L52.5939 43.7975L81.3204 63.6882L82.9848 64.8405L83.6762 65.32Z" fill="#E9E9E9"/>
<path d="M50.7197 42.5002L49.4582 41.6264L48.8455 41.2027L20.119 21.3119L18.4545 20.1597L17.7632 19.6802C20.5067 15.7243 23.9438 12.2873 27.8997 9.5437L28.3792 10.235L29.5314 11.8995L49.4221 40.626L49.8459 41.2387L50.7197 42.5002Z" fill="#E9E9E9"/>
<path d="M53.0004 42.4999C53.0004 42.6387 52.9884 42.7752 52.9633 42.9073C52.9054 43.2339 52.7765 43.5353 52.5941 43.7975C52.439 44.0235 52.2435 44.219 52.0174 44.3741C51.7553 44.5565 51.4539 44.6854 51.1273 44.7433C50.9951 44.7684 50.8586 44.7804 50.7199 44.7804C50.5812 44.7804 50.4447 44.7684 50.3125 44.7433C49.986 44.6854 49.6845 44.5565 49.4224 44.3741C49.1963 44.219 49.0008 44.0235 48.8457 43.7975C48.6633 43.5353 48.5345 43.2339 48.4766 42.9073C48.4515 42.7752 48.4395 42.6387 48.4395 42.4999C48.4395 42.3612 48.4515 42.2247 48.4766 42.0926C48.5345 41.766 48.6633 41.4646 48.8457 41.2024C49.0008 40.9764 49.1963 40.7809 49.4224 40.6258C49.6845 40.4434 49.986 40.3145 50.3125 40.2566C50.4447 40.2315 50.5812 40.2195 50.7199 40.2195C50.8586 40.2195 50.9951 40.2315 51.1273 40.2566C51.4539 40.3145 51.7553 40.4434 52.0174 40.6258C52.2435 40.7809 52.439 40.9764 52.5941 41.2024C52.7765 41.4646 52.9054 41.766 52.9633 42.0926C52.9884 42.2247 53.0004 42.3612 53.0004 42.4999Z" fill="white"/>
<path opacity="0.1" d="M53.4965 42.5C53.4965 42.6692 53.4823 42.8352 53.4517 42.9958C53.3807 43.3934 53.2245 43.7603 53.0017 44.0792C52.8128 44.3545 52.5747 44.5926 52.2995 44.7815C51.9805 45.0032 51.6136 45.1605 51.216 45.2315C51.0555 45.2621 50.8884 45.2763 50.7202 45.2763C50.552 45.2763 50.3849 45.2621 50.2243 45.2315C49.8268 45.1605 49.4598 45.0043 49.1409 44.7815C48.8656 44.5926 48.6276 44.3545 48.4386 44.0792C48.2169 43.7603 48.0596 43.3934 47.9886 42.9958C47.958 42.8352 47.9438 42.6681 47.9438 42.5C47.9438 42.3307 47.958 42.1647 47.9886 42.0041C48.0596 41.6065 48.2158 41.2396 48.4386 40.9207C48.6276 40.6454 48.8656 40.4073 49.1409 40.2184C49.4598 39.9967 49.8268 39.8394 50.2243 39.7684C50.3849 39.7378 50.552 39.7236 50.7202 39.7236C50.8884 39.7236 51.0555 39.7378 51.216 39.7684C51.6136 39.8394 51.9805 39.9956 52.2995 40.2184C52.5747 40.4073 52.8128 40.6454 53.0017 40.9207C53.2234 41.2396 53.3807 41.6065 53.4517 42.0041C53.4823 42.1647 53.4965 42.3318 53.4965 42.5Z" fill="#333333"/>
<path d="M53.0004 42.4999C53.0004 42.6387 52.9884 42.7752 52.9633 42.9073C52.9054 43.2339 52.7765 43.5353 52.5941 43.7975C52.439 44.0235 52.2435 44.219 52.0174 44.3741C51.7553 44.5565 51.4539 44.6854 51.1273 44.7433C50.9951 44.7684 50.8586 44.7804 50.7199 44.7804C50.5812 44.7804 50.4447 44.7684 50.3125 44.7433C49.986 44.6854 49.6845 44.5565 49.4224 44.3741C49.1963 44.219 49.0008 44.0235 48.8457 43.7975C48.6633 43.5353 48.5345 43.2339 48.4766 42.9073C48.4515 42.7752 48.4395 42.6387 48.4395 42.4999C48.4395 42.3612 48.4515 42.2247 48.4766 42.0926C48.5345 41.766 48.6633 41.4646 48.8457 41.2024C49.0008 40.9764 49.1963 40.7809 49.4224 40.6258C49.6845 40.4434 49.986 40.3145 50.3125 40.2566C50.4447 40.2315 50.5812 40.2195 50.7199 40.2195C50.8586 40.2195 50.9951 40.2315 51.1273 40.2566C51.4539 40.3145 51.7553 40.4434 52.0174 40.6258C52.2435 40.7809 52.439 40.9764 52.5941 41.2024C52.7765 41.4646 52.9054 41.766 52.9633 42.0926C52.9884 42.2247 53.0004 42.3612 53.0004 42.4999Z" fill="white"/>
<path d="M50.7201 44.0346C51.5675 44.0346 52.2546 43.3476 52.2546 42.5001C52.2546 41.6526 51.5675 40.9656 50.7201 40.9656C49.8726 40.9656 49.1855 41.6526 49.1855 42.5001C49.1855 43.3476 49.8726 44.0346 50.7201 44.0346Z" fill="#F41C5E"/>
<path d="M89.3348 49.5171C88.3213 55.1309 86.114 60.3296 82.9849 64.8403L81.3204 63.6881L52.594 43.7974C52.7764 43.5352 52.9053 43.2338 52.9631 42.9072L87.3438 49.1556L89.3348 49.5171Z" fill="white"/>
<path d="M89.3348 35.4827L87.3438 35.8442L52.9631 42.0925C52.9053 41.766 52.7764 41.4645 52.594 41.2024L81.3204 21.3117L82.9849 20.1594C86.114 24.6701 88.3213 29.8689 89.3348 35.4827Z" fill="white"/>
<path d="M73.0603 10.2349L71.9081 11.8994L52.0173 40.6259C51.7552 40.4435 51.4538 40.3146 51.1272 40.2567L57.3755 5.87605L57.7371 3.88501C63.3509 4.89855 68.5496 7.10584 73.0603 10.2349Z" fill="white"/>
<path d="M50.3128 40.2567C49.9862 40.3146 49.6848 40.4435 49.4226 40.6259L29.5319 11.8994L28.3796 10.2349C32.8903 7.10584 38.0891 4.89855 43.7029 3.88501L44.0644 5.87605L50.3128 40.2567Z" fill="white"/>
<path d="M48.8458 41.2024C48.6634 41.4645 48.5346 41.766 48.4767 42.0925L14.096 35.8442L12.105 35.4827C13.1185 29.8689 15.3258 24.6701 18.4549 20.1594L20.1194 21.3117L48.8458 41.2024Z" fill="white"/>
<path d="M48.8458 43.7974L20.1194 63.6881L18.4549 64.8403C15.3258 60.3296 13.1185 55.1309 12.105 49.5171L14.096 49.1556L48.4767 42.9072C48.5346 43.2338 48.6634 43.5352 48.8458 43.7974Z" fill="white"/>
<path d="M50.3128 44.7432L44.0644 79.1239L43.7029 81.1149C38.0891 80.1013 32.8903 77.8941 28.3796 74.765L29.5319 73.1005L49.4226 44.374C49.6848 44.5564 49.9862 44.6853 50.3128 44.7432Z" fill="white"/>
<path d="M73.0603 74.765C68.5496 77.8941 63.3509 80.1013 57.7371 81.1149L57.3755 79.1239L51.1272 44.7432C51.4538 44.6853 51.7552 44.5564 52.0173 44.374L71.9081 73.1005L73.0603 74.765Z" fill="white"/>
<path d="M92.3083 34.9422C91.2172 28.8959 88.8395 23.2974 85.4691 18.4394C82.5759 14.2684 78.952 10.6446 74.781 7.75137C69.923 4.38091 64.3245 2.00324 58.2782 0.912155C55.8263 0.469823 53.3 0.238281 50.7203 0.238281C48.1406 0.238281 45.6144 0.469823 43.1624 0.912155C37.1162 2.00324 31.5176 4.38091 26.6596 7.75137C22.4886 10.6446 18.8648 14.2684 15.9716 18.4394C12.6011 23.2974 10.2235 28.8959 9.13237 34.9422C9.09524 35.1487 9.05919 35.3551 9.02643 35.5626C8.84513 36.6537 8.70751 37.7601 8.61249 38.8784C8.59939 39.0313 8.58737 39.1853 8.57536 39.3393C8.49891 40.3518 8.46068 41.3741 8.4585 42.4062V42.6006C8.4585 42.7284 8.45959 42.8551 8.46068 42.9828C8.47379 44.1078 8.53058 45.2207 8.62997 46.3227C8.72936 47.4411 8.87352 48.5475 9.05919 49.6397C9.06247 49.6582 9.06575 49.6757 9.06902 49.6943C9.08978 49.8155 9.11053 49.9367 9.13237 50.058C10.2235 56.1043 12.6011 61.7028 15.9716 66.5608C18.8648 70.7318 22.4886 74.3557 26.6596 77.2488C31.5176 80.6193 37.1162 82.997 43.1624 84.0881C45.6144 84.5304 48.1406 84.7619 50.7203 84.7619C53.3 84.7619 55.8263 84.5304 58.2782 84.0881C64.3245 82.997 69.923 80.6193 74.781 77.2488C78.952 74.3557 82.5759 70.7318 85.4691 66.5608C88.8395 61.7028 91.2172 56.1043 92.3083 50.058C92.7506 47.606 92.9821 45.0798 92.9821 42.5001C92.9821 39.9204 92.7506 37.3942 92.3083 34.9422ZM89.3354 49.5173C88.3218 55.1311 86.1145 60.3299 82.9854 64.8406C80.2987 68.7135 76.9337 72.0785 73.0608 74.7652C68.5501 77.8943 63.3514 80.1016 57.7376 81.1152C55.4615 81.5269 53.1155 81.741 50.7203 81.741C48.3252 81.741 45.9792 81.5269 43.7031 81.1152C38.0893 80.1016 32.8905 77.8943 28.3798 74.7652C24.507 72.0785 21.142 68.7135 18.4552 64.8406C15.3261 60.3299 13.1188 55.1311 12.1053 49.5173C12.0758 49.3535 12.0474 49.1897 12.0201 49.0259C11.9633 48.6917 11.912 48.3564 11.865 48.02C11.7077 46.9092 11.5985 45.7832 11.5373 44.6441C11.4991 43.9341 11.4795 43.2188 11.4795 42.5001C11.4795 41.8503 11.4948 41.2037 11.5275 40.5615C11.5363 40.3791 11.5461 40.1967 11.5581 40.0154C11.6171 39.0619 11.7099 38.1183 11.8366 37.1856C11.9131 36.6144 12.0026 36.0464 12.1053 35.4829C13.1188 29.8691 15.3261 24.6703 18.4552 20.1596C21.142 16.2867 24.507 12.9217 28.3798 10.235C32.8905 7.1059 38.0893 4.8986 43.7031 3.88506C45.9792 3.47331 48.3252 3.25925 50.7203 3.25925C53.1155 3.25925 55.4615 3.47331 57.7376 3.88506C63.3514 4.8986 68.5501 7.1059 73.0608 10.235C76.9337 12.9217 80.2987 16.2867 82.9854 20.1596C86.1145 24.6703 88.3218 29.8691 89.3354 35.4829C89.7471 37.759 89.9612 40.105 89.9612 42.5001C89.9612 44.8953 89.7471 47.2413 89.3354 49.5173Z" fill="#F41C5E"/>
<path opacity="0.1" d="M89.3356 35.4828C88.3221 29.869 86.1148 24.6702 82.9857 20.1595C80.2989 16.2867 76.935 12.9217 73.0622 10.236C68.5515 7.1069 63.3527 4.89852 57.7389 3.88607C55.4617 3.47541 53.1168 3.26025 50.7217 3.26025C48.3265 3.26025 45.9805 3.47541 43.7044 3.88607C38.0906 4.89961 32.8919 7.1069 28.3812 10.236C24.5083 12.9228 21.1433 16.2867 18.4576 20.1595C15.3286 24.6702 13.1202 29.869 12.1077 35.4828C12.0728 35.6739 12.04 35.8661 12.0094 36.0584C11.8412 37.0719 11.7134 38.0985 11.625 39.1372C11.613 39.2792 11.602 39.4223 11.59 39.5653C11.5791 39.715 11.5704 39.8657 11.5605 40.0153L8.5778 39.3393C8.50135 40.3517 8.46312 41.374 8.46094 42.4061V42.6005C8.46094 42.7283 8.46203 42.855 8.46312 42.9828C8.47623 44.1077 8.53302 45.2206 8.63241 46.3226C8.7318 47.441 8.87597 48.5474 9.06164 49.6396C9.06491 49.6582 9.06819 49.6756 9.07146 49.6942L12.0225 49.0258C12.028 49.0596 12.0335 49.0946 12.0389 49.1295C12.0422 49.147 12.0455 49.1634 12.0476 49.1798C12.0673 49.2923 12.0859 49.4048 12.1066 49.5173C13.1202 55.1311 15.3275 60.3298 18.4565 64.8405C21.1433 68.7134 24.5072 72.0784 28.3801 74.7641C32.8908 77.8931 38.0895 80.1015 43.7033 81.114C45.9805 81.5246 48.3254 81.7398 50.7206 81.7398C53.1157 81.7398 55.4617 81.5246 57.7378 81.114C63.3516 80.1004 68.5504 77.8931 73.0611 74.7641C76.9339 72.0773 80.2989 68.7134 82.9846 64.8405C86.1137 60.3298 88.3221 55.1311 89.3345 49.5173C89.7452 47.2401 89.9603 44.8952 89.9603 42.5C89.9603 40.1049 89.7452 37.7589 89.3345 35.4828H89.3356ZM86.5757 49.016C85.6342 54.2289 83.5853 59.0553 80.6801 63.2438C78.1856 66.8403 75.0609 69.9639 71.4654 72.4585C67.2769 75.3637 62.4506 77.4137 57.2376 78.354C55.1242 78.7363 52.9464 78.9351 50.7217 78.9351C48.4969 78.9351 46.3191 78.7363 44.2057 78.354C38.9928 77.4126 34.1664 75.3637 29.9779 72.4585C26.3814 69.9639 23.2578 66.8392 20.7632 63.2438C17.858 59.0553 15.808 54.2278 14.8677 49.016C14.8403 48.8641 14.8141 48.7112 14.789 48.5594C14.7803 48.5081 14.7726 48.4568 14.7639 48.4054L31.6839 44.5773L14.3347 40.6444C14.3423 40.4937 14.35 40.343 14.3598 40.1933C14.4144 39.3076 14.5007 38.4317 14.6186 37.5656C14.6896 37.0348 14.7726 36.5083 14.8677 35.9841C15.8091 30.7711 17.858 25.9448 20.7632 21.7563C23.2578 18.1597 26.3825 15.0361 29.9779 12.5416C34.1664 9.63639 38.9939 7.58637 44.2057 6.64601C46.3191 6.26374 48.4969 6.06497 50.7217 6.06497C52.9464 6.06497 55.1242 6.26374 57.2376 6.64601C62.4506 7.58746 67.2769 9.63639 71.4654 12.5416C75.0619 15.0361 78.1856 18.1608 80.6801 21.7563C83.5853 25.9448 85.6353 30.7722 86.5757 35.9841C86.9579 38.0975 87.1567 40.2753 87.1567 42.5C87.1567 44.7248 86.9579 46.9026 86.5757 49.016Z" fill="#333333"/>
<path d="M31.6814 42.6114L0.618764 49.6396C0.433094 48.5474 0.288927 47.441 0.189538 46.3226C0.0901501 45.2206 0.0333569 44.1077 0.0202508 42.9828C0.0191586 42.855 0.0180664 42.7283 0.0180664 42.6005V42.4061C0.0202508 41.2178 0.0715831 40.0415 0.172063 38.8784C0.267083 37.76 0.404697 36.6536 0.585999 35.5625L31.6814 42.6114Z" fill="#8529A6"/>
</svg>
